<?xml version='1.0' encoding='utf-8'?>
<svg xmlns="http://www.w3.org/2000/svg" id="Layer_1" data-name="Layer 1" viewBox="0 0 319.55 319.55"><defs><style>.cls-1{fill:#fff;stroke:#1d1d1b;stroke-width:15.22px;}.cls-1,.cls-4{stroke-miterlimit:10;}.cls-2{fill:#010101;}.cls-3{fill:#020303;}.cls-4{fill:none;stroke:#020303;stroke-width:8px;}</style></defs><rect class="cls-1" x="7.61" y="7.61" width="304.33" height="304.33" rx="25.36"/><path class="cls-2" d="M144.94,106.18q0-13.09,7.27-26.56a60.05,60.05,0,0,1,21.23-22.29q14-8.82,32.57-8.83,17.3,0,30.53,7.39A52.25,52.25,0,0,1,257,76a55,55,0,0,1,7.22,27.6,48.24,48.24,0,0,1-4.12,20.56,63,63,0,0,1-9.78,15.25Q244.65,145.79,230,161c-8,8.47-11.76,17-13.95,28.29-.83,5.24-1.83,10.78-4.25,15.56-2.65,5.21-7.48,7.14-13.21,6.8-11.61-.69-11.41-18.16-11.41-26.64a58.48,58.48,0,0,1,3.1-20.08,52.42,52.42,0,0,1,8.23-14.9,203.53,203.53,0,0,1,13.84-15.25q7.63-7.73,11-11.66a39.4,39.4,0,0,0,5.73-8.76,23.87,23.87,0,0,0,2.32-10.49,26.26,26.26,0,0,0-7.09-18.63q-7.11-7.59-18.31-7.59-13.12,0-19.33,7.66t-10.49,22.56q-4.06,15.6-15.39,15.59A14.18,14.18,0,0,1,149.53,118,18,18,0,0,1,144.94,106.18Zm74.21,134.89a19.93,19.93,0,0,1-4.28,12.7q-4.27,5.43-12,5.43A14.73,14.73,0,0,1,191.44,254a18.75,18.75,0,0,1-4.66-12.88,18.16,18.16,0,0,1,4.66-12.65,14.88,14.88,0,0,1,11.47-5.13q7.58,0,11.91,5.37A19.23,19.23,0,0,1,219.15,241.07Z"/><path class="cls-3" d="M100.77,63C94.58,71.67,94.64,74.48,89,83.46L75,54.82c-1.42-2.91-5.76-.36-4.35,2.54L86.5,89.91c.86,1.77,3.42,1.5,4.35,0C97.27,79.58,98,75.47,105.12,65.58,107,62.94,102.64,60.42,100.77,63Z"/><rect class="cls-4" x="58.74" y="43.11" width="58.45" height="58.45" rx="12"/><path class="cls-3" d="M100.77,144.55C94.58,153.19,94.64,156,89,165L75,136.34c-1.42-2.92-5.76-.37-4.35,2.54L86.5,171.42c.86,1.77,3.42,1.5,4.35,0C97.27,161.09,98,157,105.12,147.09,107,144.45,102.64,141.94,100.77,144.55Z"/><rect class="cls-4" x="58.74" y="124.63" width="58.45" height="58.45" rx="12"/><rect class="cls-4" x="58.74" y="206.14" width="58.45" height="58.45" rx="12"/></svg>