<?xml version='1.0' encoding='utf-8'?>
<svg xmlns="http://www.w3.org/2000/svg" version="1.1" width="600px" height="976px" viewBox="0 0 600 976"> <g id="layer1"> <g style="fill:rgb(0,0,0); fill-opacity:1.0; stroke-linejoin: miter"> <path d="M126.373474,316.86725C121.95648,317.58917,117.4541,319.9391,114.397766,323.0964C112.88803,324.65646,107.1852,331.65366,104.868645,334.80777C102.42324,338.11038,101.25578,341.83267,99.979385,350.2717C99.5475,353.02914,99.51375,353.76913,99.599045,356.37643C99.807205,361.72043,100.53819,363.955,105.014694,372.66483C108.09224,378.64365,108.1671,378.8467,108.5269,380.78702C108.73515,381.89584,109.037674,383.41104,109.170425,384.16876C109.32167,384.92633,109.548996,386.1645,109.6631,386.88525C109.79576,387.62445,109.946365,388.23413,110.02034,388.23376C110.27925,388.23267,111.84111,385.89563,112.57451,384.43134C113.67436,382.17026,113.94676,381.02243,114.15373,377.58163C114.22328,376.56406,114.455185,374.6027,114.68965,373.23312C115.21266,370.1608,116.05525,368.28915,117.620255,366.67337C118.9091,365.3547,119.81331,364.8884,121.36623,364.75217C122.863754,364.63467,124.90056,365.19913,126.77321,366.2822C128.47899,367.27347,131.61821,370.4224,132.90327,372.48813C134.56068,375.1071,134.33794,374.92313,135.79793,374.67636C138.29276,374.2402,138.95764,374.0339,139.8428,373.43826C142.05573,371.96756,142.43628,370.17197,141.40106,366.01523C140.57275,362.67136,140.5726,362.63437,141.97284,361.40768C143.24411,360.29245,145.10608,358.9343,146.82138,357.85422L147.96503,357.1649L146.58578,354.7112C145.57925,352.9031,145.20575,352.07248,145.20358,351.57315C145.20004,350.75943,147.39752,345.73795,147.89542,345.4028C148.35638,345.0864,152.775,344.73434,156.82507,344.6982L160.24632,344.64633L162.35759,345.32144L164.46889,345.9966L165.13255,345.51285C166.40456,344.56412,166.86473,344.06277,168.02199,342.24533C170.13463,338.9811,170.02544,339.38846,170.06244,335.13464C170.13248,329.9745,169.75723,328.73694,167.09763,325.30853C164.66107,322.13812,162.02661,320.2262,158.58157,319.05756C156.19232,318.25415,155.8407,318.2002,144.49947,317.23236C136.91408,316.59955,129.01627,316.43036,126.373474,316.86725 Z"/> </g> <g style="fill:rgb(255,189,128); fill-opacity:1.0; stroke-linejoin: miter"> <path d="M152.20505,345.51352C151.13272,345.5922,149.80167,345.709,149.22867,345.7855L148.19357,345.9194L147.05777,348.42105C146.41644,349.79245,145.90472,351.20023,145.8876,351.51468C145.88937,351.92154,146.28162,352.8076,147.13892,354.3204C147.82849,355.538,148.48044,356.60782,148.5733,356.69992C149.00061,357.14188,148.6694,357.53177,147.13849,358.4816C145.31244,359.5992,143.32138,361.05038,142.12393,362.12833L141.33182,362.853L141.91534,365.1992C142.68726,368.33987,142.824,370.0223,142.44089,371.2261C142.0393,372.44846,140.89816,373.7111,139.69864,374.30807C138.59131,374.8492,134.98836,375.64157,134.32185,375.47806C134.02565,375.40536,133.63527,374.94467,133.09499,374.0408C130.03972,368.93112,125.91991,365.69412,122.1461,365.47012C120.333206,365.36703,119.410385,365.79642,117.95619,367.37473C115.91301,369.60294,115.20268,372.1212,114.71498,379.0587C114.48775,382.09274,113.55574,384.66748,111.80919,387.0609C110.55907,388.78625,110.04503,389.65778,110.04695,390.10162C110.04921,390.61945,109.00429,392.75085,108.56221,393.15967C108.35957,393.34546,108.26799,393.54932,108.3795,393.67828C108.453964,393.78894,108.7531,394.5274,109.05238,395.30286C109.63277,396.92786,110.30217,397.75714,112.79039,400.0581C118.37959,405.21222,119.474594,406.0952,124.55696,409.53156C125.72554,410.32172,127.357834,411.42426,128.17397,411.97552C128.99019,412.54535,130.02892,413.2436,130.49254,413.53748C130.95616,413.83136,131.66103,414.30914,132.0876,414.58472C132.77388,415.04407,132.86641,415.06213,133.29066,414.8014C133.53038,414.6339,134.02803,414.24335,134.37794,413.90894C134.72789,413.57452,135.98091,412.51495,137.1604,411.56662C143.66595,406.28598,144.71625,405.39365,144.49359,405.22818C144.45645,405.19138,144.17856,405.08163,143.88208,404.95346C143.47443,404.7703,143.40005,404.67813,143.56561,404.47397C143.73117,404.26974,144.02722,404.30545,145.23083,404.6517C148.08255,405.47153,154.22525,406.07358,158.05304,405.946C159.9021,405.86398,160.27174,405.80692,161.21284,405.32193C163.09529,404.40756,164.50935,402.10812,165.45534,398.4976C165.98268,396.42398,166.42253,395.49728,167.12239,394.82846C167.39867,394.56833,167.7848,394.04886,167.98647,393.64108L168.3532,392.91824L167.59166,392.16324C167.16444,391.73972,166.82945,391.26035,166.82881,391.1124C166.82808,390.94595,167.21526,390.66684,167.73213,390.44266C168.65514,390.05032,169.77791,388.8063,169.77516,388.17746C169.77443,388.01102,169.43797,387.19876,169.00902,386.36838C168.35628,385.11362,168.26244,384.79965,168.46483,384.55826C168.59364,384.40976,168.83348,384.27927,168.99992,384.27853C169.57326,384.27603,171.14137,383.3815,171.78578,382.71292C172.39326,382.06302,172.42976,381.95187,172.4062,380.7869C172.38063,379.15945,171.79945,377.34958,170.36208,374.28574C168.66368,370.74222,168.51292,370.0956,168.48091,366.98868C168.47255,365.06528,168.56029,363.97372,168.83229,362.7335C169.04973,361.69687,169.17387,360.47568,169.1696,359.49545C169.12459,357.64627,168.9185,357.03683,166.43373,351.27744C165.5182,349.13602,164.71477,347.25314,164.63991,347.05002C164.52791,346.8101,163.86082,346.51712,162.47179,346.06076C160.4901,345.42203,160.34209,345.4042,157.2904,345.38046C155.5704,345.36948,153.2774,345.4349,152.20505,345.51352 Z"/> </g> <g style="fill:rgb(198,196,230); fill-opacity:1.0; stroke-linejoin: miter"> <path d="M106.8134,395.03516C106.316635,395.6291,105.3228,396.74316,104.58632,397.50458C103.31612,398.86017,103.279465,398.93433,103.411575,399.54407C103.487076,399.89508,104.2921,402.14795,105.17171,404.5299C109.36372,415.86713,108.952866,414.9627,110.43715,416.04736C110.84538,416.36005,111.884995,417.26178,112.7578,418.0902C113.63066,418.91864,115.54286,420.59332,117.02763,421.8075C118.51247,423.0216,119.960464,424.273,120.25783,424.60455C120.57359,424.9176,120.85213,425.1753,120.9261,425.175C121.07405,425.17438,122.713486,423.66913,124.68407,421.75568C126.23097,420.23248,127.87099,418.8567,130.21223,417.1266C131.59486,416.1034,132.16609,415.62006,132.16542,415.4721C132.1652,415.41656,131.71999,415.10413,131.20067,414.7735C130.66301,414.46143,129.58739,413.78186,128.8268,413.24884C128.06621,412.71582,125.69191,411.09857,123.54027,409.6469C119.47804,406.89044,118.457504,406.1181,116.30351,404.13007C115.57936,403.4674,114.001175,402.05023,112.81291,400.98273C110.10234,398.59027,109.11687,397.37396,108.48042,395.6197C108.19972,394.86267,107.91942,394.19812,107.84505,394.10596C107.78926,394.03223,107.32875,394.4596,106.8134,395.03516 Z"/> </g> <g style="fill:rgb(113,110,192); fill-opacity:1.0; stroke-linejoin: miter"> <path d="M101.12477,401.03357C99.375565,402.8166,97.29289,404.47162,95.300514,405.62695C93.78779,406.50275,91.92329,407.2876,80.366005,411.92444C78.18751,412.80316,75.36286,413.9436,74.089,414.46698C68.883064,416.63495,67.44309,417.23303,61.42469,419.70038C57.953926,421.1211,54.870995,422.41058,54.55732,422.57837C54.077522,422.82092,53.967354,423.00635,53.878105,423.74646C53.82479,424.24603,53.66366,425.4674,53.520134,426.48523C53.37661,427.503,53.144447,429.40894,52.983803,430.7412C52.84156,432.05493,52.62687,433.72034,52.519035,434.44208C52.42962,435.14526,52.108543,437.86536,51.82389,440.4558C51.539253,443.0462,51.076164,447.13544,50.77215,449.52252C50.25367,453.63055,49.574867,459.14478,48.16407,470.70984C47.82459,473.4485,47.377827,477.03833,47.181477,478.66663C46.985126,480.29504,46.57407,483.5888,46.27004,485.97583C45.984516,488.36285,45.43088,492.89636,45.03777,496.0606C44.35863,501.50085,44.00179,504.49854,42.071888,520.0236C40.143116,535.8076,40.03626,536.7513,40.05289,540.5795C40.07001,544.51874,40.485233,546.44037,42.35561,551.2592C42.972843,552.8471,43.852177,555.1735,44.320072,556.4476C44.769474,557.72174,45.648563,559.99274,46.265553,561.5251C46.88245,563.0389,47.89269,565.6977,48.54737,567.3963L49.707497,570.49835L56.18038,570.47015C62.209328,570.4255,84.80802,570.12384,84.88175,570.068C85.01081,569.975,82.66706,562.62445,81.93818,560.87067C81.41486,559.6153,80.18134,556.6431,79.19077,554.26166C76.424355,547.52325,76.29362,547.2279,74.480965,542.9266C73.52805,540.69293,72.630196,538.3665,72.498085,537.7568C71.95188,535.48444,72.10563,532.5616,73.25263,524.1417C73.5391,521.9582,74.0767,517.9981,74.43507,515.3518C74.793434,512.70557,75.31403,509.07843,75.60221,507.30176C76.214455,503.48926,76.627266,500.60236,77.48661,494.07007C77.84498,491.4239,78.32838,487.7599,78.56086,485.92792C78.811806,484.09595,79.17155,481.7641,79.37058,480.74603C79.56959,479.72803,79.785164,478.266,79.87434,477.50732C79.96223,476.45282,80.071754,476.11945,80.275185,476.11853C80.66355,476.11688,80.58054,478.2995,80.12745,480.42834C79.927895,481.31696,79.60377,483.33423,79.38868,484.90717C78.04655,495.25134,76.68314,504.94824,76.14295,508.3166C75.67457,511.18524,75.62159,511.7588,75.81007,512.5717C75.94169,513.07043,76.412544,515.0288,76.8646,516.91327C78.38947,523.08374,78.59693,524.00757,79.105965,526.24316C79.38868,527.4625,79.78416,529.0883,79.99088,529.8457C80.19761,530.603,80.51835,532.0627,80.70771,533.07904C80.89707,534.0954,81.540504,537.45856,82.12733,540.5631C82.71412,543.66754,83.30222,547.06793,83.45484,548.13995C83.72199,550.0252,84.13889,552.3352,85.141975,557.60175C85.4069,558.9876,85.76716,561.02045,85.91993,562.12946C86.148994,563.7744,86.71717,566.842,87.2656,569.63226L87.37876,570.13116L129.84074,569.92804C153.19852,569.80804,175.48341,569.6372,179.3669,569.5648L186.39412,569.42334L185.86101,565.91174C185.55666,563.9711,184.7202,558.74084,183.99794,554.26843C183.27574,549.7959,182.36342,544.1406,182.00142,541.7009C181.62093,539.26135,181.10744,536.0086,180.82344,534.4933C179.894,529.15247,179.99654,522.9565,181.15675,513.31586C181.9236,506.78412,182.12328,505.914,182.80754,505.911C182.97398,505.91034,187.70964,510.42084,193.33727,515.90765C207.97295,530.2141,211.0558,533.1598,211.38869,533.1583C211.55513,533.1576,212.62617,532.7831,213.75237,532.3343C216.20787,531.36194,227.74747,526.9101,231.77264,525.3946C234.83774,524.25305,240.98602,521.8776,244.14307,520.6247C245.2139,520.1947,246.70941,519.61487,247.46637,519.3157C248.22333,519.0165,251.14056,517.89417,253.92838,516.79083C262.27365,513.5366,266.64938,511.8346,268.699,511.08588C274.2015,509.06458,286.81116,504.0163,287.10583,503.71918C287.25314,503.57056,287.17746,503.18256,286.76596,502.13013C286.44827,501.37317,285.0812,497.4583,283.71368,493.451C282.3277,489.4438,280.26764,483.5346,279.10712,480.3401C277.94656,477.14563,276.9168,474.24658,276.80438,473.91412C276.69205,473.60016,276.52438,473.3235,276.43192,473.3239C276.33945,473.32428,273.45923,474.44653,270.0438,475.82996C263.5821,478.42877,253.42804,482.52313,237.0708,489.12268C231.79068,491.25403,225.97507,493.57257,224.14713,494.26483C222.31929,494.9756,220.02995,495.89172,219.03307,496.30292C217.18715,497.1062,216.39247,497.23914,215.89134,496.8344C215.72441,496.72418,214.1414,494.1974,212.35326,491.26453C210.56496,488.31323,206.89543,482.30005,204.21312,477.89154C199.64943,470.4027,197.18864,465.90082,195.89848,462.66992C194.85133,460.0298,193.72664,456.57623,193.08638,453.93433C190.07326,441.50076,188.00243,433.11337,187.68358,432.09756C186.57692,428.533,184.53142,425.97116,180.74757,423.4354C178.74434,422.09402,177.09502,421.32443,168.88701,417.86472C164.71825,416.1259,159.49329,413.9293,157.30698,413.01407C150.89618,410.30478,150.5625,410.12125,148.64908,408.16916L146.97714,406.4565L147.42746,407.93405C149.1912,413.7521,149.34058,414.08438,153.91351,423.69998C155.61215,427.29898,157.01202,430.25198,157.01218,430.28897C157.01236,430.32596,157.90842,432.2455,158.99118,434.57108C160.89513,438.5945,162.20241,441.51096,163.39821,444.31693C164.2577,446.329,164.71098,448.49097,164.71974,450.50677C164.70961,452.43024,164.67332,452.59686,162.9608,458.5594C162.32323,460.80005,161.52196,463.6701,161.1761,464.9477C160.83028,466.22534,160.17479,468.59546,159.71948,470.2249C159.26422,471.85443,158.55438,474.48364,158.13586,476.0575C157.73581,477.63123,156.8255,480.94568,156.13345,483.40845C152.78192,495.2409,152.29031,497.01843,151.85394,498.74036C151.58093,499.75873,151.18042,501.2215,150.9433,501.98077C150.68768,502.74017,150.36002,503.94373,150.19672,504.6657C150.05182,505.36908,149.63318,506.9245,149.28687,508.09113C148.92206,509.2578,148.63123,510.42426,148.61377,510.66473C148.56055,511.1828,148.24698,511.36914,147.98651,511.01886C147.8935,510.88983,147.70645,510.4098,147.57498,509.948C147.44357,509.50464,147.12573,508.71082,146.86456,508.1941C146.62198,507.6958,146.22977,506.8098,146.02393,506.25592C145.81808,505.7019,145.57523,505.14813,145.50085,505.05597C145.4079,504.94543,145.12769,504.29938,144.86569,503.59772C144.58524,502.89618,144.28647,502.2317,144.19342,502.10266C144.10046,501.992,143.78278,501.23517,143.4649,500.44128C143.16547,499.62885,142.21216,497.30267,141.33408,495.27216C140.47455,493.24152,139.24121,490.32483,138.58734,488.8111C137.9519,487.27887,136.64427,484.2884,135.69185,482.16565C133.91756,478.1786,133.11427,476.3327,130.27394,469.6131C129.37688,467.47168,127.994125,464.20422,127.19066,462.32123C126.38725,460.43835,124.668106,456.37708,123.36003,453.2757C122.051956,450.17438,120.25844,446.02094,119.38063,444.0459C117.214096,439.1728,118.13075,441.57306,104.74956,405.27148C103.6454,402.2802,102.654434,399.80627,102.58037,399.7881C102.48775,399.75146,101.82448,400.3277,101.12477,401.03357 Z"/> </g> <g style="fill:rgb(198,196,230); fill-opacity:1.0; stroke-linejoin: miter"> <path d="M145.25433,405.7982C145.10654,405.83585,144.60889,406.22635,144.14847,406.6722C143.68799,407.09958,142.69293,407.93613,141.93726,408.53128C141.18155,409.12637,140.02063,410.0931,139.35736,410.66934C138.69403,411.2455,137.45938,412.2681,136.59303,412.93762C135.72673,413.60718,134.8607,414.3507,134.65825,414.57355C134.45586,414.81482,134.05046,415.14948,133.73686,415.33582C133.42336,415.5406,133.31303,415.68903,133.46098,415.68835C133.94182,415.68628,136.7213,416.91333,137.77835,417.57455C138.3162,417.9236,139.24475,418.80728,139.85828,419.5444C140.4718,420.28152,141.43832,421.387,141.99594,422.03183C142.55347,422.65823,143.3713,423.59787,143.81744,424.1138C144.26361,424.64822,144.69083,425.0717,144.7648,425.07138C144.89426,425.07083,145.0889,423.05405,145.50659,417.02316C145.61087,415.48764,145.65262,412.32498,145.60541,409.9764C145.53394,406.2963,145.49445,405.72318,145.25433,405.7982 Z"/> </g> <g style="fill:rgb(198,196,230); fill-opacity:1.0; stroke-linejoin: miter"> <path d="M146.38593,410.8422C146.39493,412.91354,146.31476,415.7435,146.22824,417.11246C145.86118,422.01505,145.50891,426.0668,145.41705,426.21518C145.21506,426.54892,144.8255,426.27322,143.6731,424.9467C143.004,424.1913,142.05609,423.10422,141.53586,422.55167L140.60672,421.53854L140.27576,421.98386C140.0918,422.20657,139.44836,423.09708,138.84158,423.91354L137.75705,425.43472L138.11792,427.61545C138.32666,428.83524,138.59085,430.05466,138.70319,430.36856C138.92776,430.97794,141.16626,435.38834,141.68796,436.27383C142.17233,437.08542,142.56674,438.4708,142.81445,440.15274C142.94745,440.96585,143.15594,442.1301,143.30664,442.7582C143.53293,443.756,143.77905,445.06796,145.0864,452.25665C145.29514,453.47632,145.48962,455.67633,145.57446,458.17267C145.65796,460.3546,145.77975,462.85077,145.876,463.71967C145.95377,464.58856,146.03528,466.3266,146.05927,467.58417C146.08328,468.86017,146.14343,469.93256,146.16217,469.9879C146.1994,470.04327,146.30112,472.16968,146.38617,474.72156C146.47116,477.25488,146.57288,479.3813,146.59161,479.4367C146.66623,479.58435,146.8674,483.31927,147.19669,490.99298C147.36142,494.8576,147.54233,498.1858,147.58029,498.40753C147.61816,498.61084,147.72156,501.12555,147.80801,503.99182C147.91302,506.87646,148.0343,509.24316,148.08994,509.2799C148.21979,509.37183,148.69348,507.72382,150.65945,500.5025C151.27829,498.20654,152.31638,494.50317,152.93542,492.26263C155.28488,483.9115,155.83127,481.96716,156.97797,477.727C158.6705,471.41315,161.07399,462.72882,162.49483,457.7292C164.06145,452.2296,164.20634,451.52625,164.05034,449.67743C163.85423,447.1075,163.08672,444.98404,159.95032,438.2288C159.29681,436.8076,158.06467,434.14975,157.20596,432.32254C155.74973,429.16635,155.09622,427.74515,154.12555,425.678C153.88287,425.16122,152.74445,422.79886,151.60596,420.41806C149.17969,415.36118,148.5629,413.8658,147.3811,410.04263C146.91202,408.49118,146.48096,407.1799,146.44382,407.1431C146.40668,407.1063,146.37692,408.7709,146.38593,410.8422 Z"/> </g> <g style="fill:rgb(0,0,0); fill-opacity:1.0; stroke-linejoin: miter"> <path d="M132.16978,416.47076C131.9304,416.71228,131.24837,417.23303,130.67683,417.6424C128.85155,418.94495,124.79759,422.347,124.79857,422.5689C124.81731,422.62433,126.04057,423.2293,127.52321,423.9442C129.0984,424.67712,130.54454,425.50305,130.93452,425.87122C131.97444,426.84692,132.06935,427.4013,131.86855,432.26624C131.58656,439.72064,131.53572,449.3009,131.75105,452.0371C131.86821,453.46063,132.09004,457.6949,132.2729,461.46692C132.43718,465.22058,132.6598,469.6397,132.74086,471.2669L132.90166,474.22522L134.07845,476.9018C135.2737,479.5783,136.54369,482.42084,137.38379,484.22974C137.60797,484.74658,138.20581,486.13104,138.69165,487.27563C139.15897,488.42023,140.33615,491.18927,141.28906,493.4229C142.242,495.65662,143.32605,498.27808,143.7001,499.23816C144.09268,500.19812,144.5599,501.32422,144.7836,501.7301C144.9888,502.13617,145.32516,502.92993,145.531,503.4839C145.73685,504.03778,145.9797,504.59155,146.07266,504.70215C146.16559,504.81268,146.44574,505.44025,146.70746,506.0865L147.17496,507.26807L147.0636,502.92236C146.99774,500.53687,146.85526,497.54144,146.75723,496.26575C146.65924,494.9901,146.51877,492.45697,146.45532,490.62634C146.39188,488.79565,146.30792,486.50275,146.24826,485.54126C146.1886,484.57983,146.10611,482.6198,146.02594,481.1961C145.9643,479.77234,145.88507,478.57056,145.84784,478.51514C145.82913,478.45978,145.72742,476.33337,145.6424,473.80005C145.55731,471.24823,145.4556,469.12183,145.41837,469.06647C145.39963,469.01105,145.33951,467.93866,145.31546,466.66266C145.2915,465.40515,145.20996,463.66705,145.1322,462.79816C145.03598,461.92932,144.91455,459.52563,144.83148,457.4361C144.74844,455.34668,144.57211,453.07257,144.43951,452.35193C143.41727,446.93747,143.11447,445.3483,142.62228,442.7427C141.69455,437.7903,141.61963,437.5687,140.05319,434.59793C138.15118,431.01828,137.8143,430.09506,137.41498,427.5815C137.03497,425.25296,137.07114,425.06784,138.11984,423.80563C138.83731,422.93332,140.14227,421.05972,140.14157,420.89328C140.14139,420.8563,139.71362,420.3033,139.17462,419.69534C138.20822,418.60837,136.9097,417.7078,135.31645,417.08594C134.61241,416.7931,132.66734,416.0617,132.63036,416.0619C132.61186,416.06195,132.40923,416.2478,132.16978,416.47076 Z"/> </g> <g style="fill:rgb(198,196,230); fill-opacity:1.0; stroke-linejoin: miter"> <path d="M109.60646,416.40247C109.6068,416.47644,115.72673,433.11316,117.111496,436.84296C117.6353,438.20923,118.64464,440.6646,119.373,442.28894C120.10133,443.91333,121.42775,446.97754,122.32478,449.11902C123.221725,451.24194,124.95943,455.32166,126.15544,458.16455C127.36989,461.0074,128.77141,464.33026,129.27605,465.5487C129.78072,466.7671,130.5655,468.61316,131.03233,469.6468C131.4807,470.68048,131.85469,471.62213,131.85524,471.7516C131.85582,471.88104,131.89305,471.93634,131.94835,471.8991C132.04036,471.78778,131.28297,454.97974,131.00685,451.02313C130.84969,448.89703,130.83665,445.901,130.99321,439.37177C131.29103,427.05328,131.30977,427.1087,130.75249,426.53784C130.2694,426.0221,124.98671,423.30786,124.48738,423.31006C124.20998,423.31128,122.58806,424.59442,121.7227,425.4859C121.13353,426.09882,120.837326,426.02612,119.76033,425.0321C119.22182,424.5351,117.718124,423.22852,116.38182,422.1432C115.06392,421.03925,113.133224,419.36462,112.13048,418.42578C110.5334,416.91626,109.605484,416.18048,109.60646,416.40247 Z"/> </g> <g style="fill:rgb(255,189,128); fill-opacity:1.0; stroke-linejoin: miter"> <path d="M308.332,459.96188C306.5031,460.43216,304.7118,461.03177,300.66788,462.4919C297.7134,463.55893,295.69983,464.08554,293.74026,464.27896C291.7808,464.49094,290.3405,465.01505,288.8286,466.07578C286.94803,467.41556,282.8236,471.63165,282.14502,472.9477L281.5947,473.98572L282.13736,475.44446C282.4183,476.25696,282.94147,477.47528,283.2775,478.1952C283.61343,478.89648,284.41687,480.77936,285.03403,482.34875C285.66965,483.91797,286.23056,485.3211,286.28653,485.43182C286.43607,485.8011,286.5837,485.72644,287.0798,484.96606C287.68616,484.05725,289.0851,482.5346,289.56482,482.27362C289.76776,482.1618,291.56104,482.00604,293.63202,481.92303C296.9419,481.77917,305.09387,480.85602,308.78983,480.19263C310.95206,479.81335,313.2422,479.10065,315.25412,478.18567C318.79807,476.5797,319.86954,476.31616,329.01755,474.77838C335.70755,473.6396,341.86002,472.24426,344.35263,471.29022L345.55283,470.8412L345.6019,469.37988L345.65097,467.90012L344.67032,467.79343C342.59793,467.5435,338.2529,467.80283,331.02505,468.5925C329.3428,468.76627,326.4769,468.92667,324.64597,468.9346C320.00412,468.9733,305.6886,468.75815,305.18878,468.64932C304.24478,468.46848,304.834,467.8741,307.25095,466.53207C308.9852,465.56277,312.3596,463.25485,312.8934,462.67923C313.46414,462.08487,314.16205,460.9537,314.16077,460.6578C314.1595,460.3619,311.54797,459.4855,310.6973,459.50772C310.30893,459.50943,309.25568,459.71744,308.332,459.96188 Z"/> </g> <g style="fill:rgb(198,196,230); fill-opacity:1.0; stroke-linejoin: miter"> <path d="M278.98627,473.81213L277.6753,474.29877L280.20258,481.33405C281.588,485.2118,282.72995,488.38788,282.74866,488.4248C282.7672,488.44318,283.5241,488.1255,284.4286,487.73322C285.7022,487.15436,286.05252,486.9124,286.0144,486.65363C285.97662,486.46887,285.4716,485.15796,284.8736,483.7365C284.27557,482.31506,283.67728,480.81958,283.54605,480.41327C283.41483,480.00702,283.19073,479.5086,283.0604,479.3058C282.93005,479.1029,282.44427,477.97687,281.95837,476.81378C280.7433,473.823,280.51907,473.30615,280.3897,473.3252C280.33423,473.32544,279.6879,473.55017,278.98627,473.81213 Z"/> </g> <g style="fill:rgb(250,84,34); fill-opacity:1.0; stroke-linejoin: miter"> <path d="M309.49033,364.78522L307.17905,364.9062L304.78024,366.15576C300.29633,368.50555,300.35165,368.46832,298.4557,370.52936C297.48016,371.60626,296.35718,372.79486,295.9704,373.16638C295.56516,373.53802,295.0138,374.3357,294.70206,374.94733C294.4088,375.5589,294.06012,376.1892,293.9128,376.3379C293.78403,376.4864,293.5271,376.94983,293.32544,377.3576C293.12378,377.76532,292.75696,378.46973,292.50006,378.93317C292.24313,379.39667,291.95102,380.2672,291.8427,380.878C291.53555,382.54376,290.75995,387.05978,290.65283,387.94797L290.54517,388.7067L292.08072,388.8295C292.91327,388.89987,295.96597,389.16397,298.87076,389.4288C302.4971,389.76437,304.18042,389.84958,304.25385,389.71976C304.40057,389.44174,305.76474,384.16495,305.96317,383.01733C306.0537,382.57312,306.67938,381.84912,308.55798,380.047L311.06277,377.6504L313.5758,377.14008L316.1072,376.61127L318.23837,377.6007C319.40585,378.15045,320.68448,378.7367,321.07358,378.90143C321.46268,379.06616,321.92685,379.471,322.13162,379.78455C322.31802,380.1167,322.70932,380.78076,323.0073,381.2603C323.28683,381.75842,323.71512,382.42236,323.9384,382.73578C324.9434,384.19254,325.05655,384.69138,325.31326,388.4446C325.53214,391.99454,325.53244,392.0685,325.1295,392.95798C324.28702,394.86655,323.79153,395.7565,322.85385,397.01816C322.33908,397.72318,321.65903,398.68777,321.3835,399.15134C321.10812,399.6149,320.6301,400.2643,320.3173,400.6171C320.02292,400.96976,319.69217,401.4705,319.56387,401.73C319.3076,402.3414,317.6722,404.77127,316.23782,406.6639C314.73,408.66788,312.855,411.30215,312.21216,412.32217C311.8447,412.87863,311.4065,414.17508,310.86093,416.30435C309.33337,422.28464,309.19107,423.57986,309.50754,428.31302L309.62646,430.1434L311.9747,430.02225C313.25046,429.94272,316.39395,429.81808,318.9459,429.7515L323.6058,429.60178L323.71548,425.05173L323.82523,420.52017L325.01718,418.18466C326.72287,414.88528,327.45706,413.606,328.41324,412.34427C328.87296,411.73196,329.46103,410.87857,329.7181,410.45212C329.99374,410.02554,330.7291,409.0237,331.37296,408.22562C332.01675,407.42758,332.7706,406.40707,333.06448,405.94345C333.63382,405.03476,335.0129,403.17935,336.11673,401.843C336.52145,401.36038,336.83377,400.87814,336.83328,400.76718C336.83273,400.63773,337.0156,400.1561,337.21695,399.6744C337.56503,398.91458,338.05887,397.63632,338.66177,395.93222C338.89944,395.30234,339.1077,383.65002,338.902,383.13306C338.827,382.893,338.67752,382.54224,338.60263,382.3391C338.5278,382.13605,338.1534,381.102,337.7789,380.03094C337.38577,378.95996,337.01144,377.9259,336.91806,377.7229C336.84323,377.51978,336.63724,376.9289,336.4501,376.43036C336.2814,375.9132,336.05698,375.34088,335.96365,375.13782C335.88876,374.9347,335.66428,374.34387,335.5142,373.8452C334.7269,371.42584,334.72696,371.44434,332.9277,370.23157C332.00034,369.6068,330.86868,368.79797,330.4047,368.4301C329.94077,368.0622,329.19846,367.49213,328.73483,367.19824C328.27115,366.88586,327.51065,366.37134,327.04684,366.04047L326.17502,365.4339L319.36728,365.01965C315.61197,364.7956,312.37473,364.6247,312.17136,364.6441C311.96802,364.66345,310.76617,364.72418,309.49033,364.78522 Z"/> </g> <g style="fill:rgb(250,84,34); fill-opacity:1.0; stroke-linejoin: miter"> <path d="M309.7571,443.18137C309.76364,444.67935,309.79474,447.58286,309.82217,449.63553L309.87546,453.38968L316.68124,453.36008L323.46854,453.33054L323.38492,446.85794L323.3013,440.38528L316.514,440.41483L309.7267,440.4443L309.7571,443.18137 Z"/> </g> </g> </svg>