<?xml version="1.0" encoding="UTF-8"?>
<svg viewBox="0 0 363 356" xmlns="http://www.w3.org/2000/svg" xmlns:xlink="http://www.w3.org/1999/xlink">
 <defs>
  <filter id="l">
   <feGaussianBlur stdDeviation="2.77578"/>
  </filter>
  <linearGradient id="a">
   <stop offset="0"/>
   <stop stop-opacity="0" offset="1"/>
  </linearGradient>
  <linearGradient id="b">
   <stop stop-color="#520000" offset="0"/>
   <stop stop-color="#a90e0c" offset="1"/>
  </linearGradient>
  <linearGradient id="k" x1="191.95" x2="40.195" y1="122.04" y2="212.74" gradientUnits="userSpaceOnUse">
   <stop stop-color="#596911" offset="0"/>
   <stop stop-color="#a3af68" offset="1"/>
  </linearGradient>
  <radialGradient id="j" cx="135.55" cy="212.82" r="8.312" gradientTransform="matrix(1.0466 0 0 1.1513 31.325 -7.9152)" gradientUnits="userSpaceOnUse">
   <stop stop-color="#fff" offset="0"/>
   <stop stop-color="#fff" stop-opacity="0" offset="1"/>
  </radialGradient>
  <radialGradient id="i" cx="216.89" cy="290.77" r="37.516" gradientTransform="matrix(1.0466 0 0 1.237 31.325 -51.132)" gradientUnits="userSpaceOnUse">
   <stop stop-color="#7b2226" offset="0"/>
   <stop stop-color="#7b2226" stop-opacity="0" offset="1"/>
  </radialGradient>
  <radialGradient id="h" cx="290.1" cy="232.83" r="9.8" gradientTransform="matrix(1.8271 -.21625 .1697 1.4338 -270.13 -48.455)" gradientUnits="userSpaceOnUse">
   <stop stop-color="#eaeeee" offset="0"/>
   <stop stop-color="#eaeeee" stop-opacity="0" offset="1"/>
  </radialGradient>
  <radialGradient id="g" cx="275.01" cy="236.35" r="85.666" gradientUnits="userSpaceOnUse">
   <stop stop-color="#b20002" offset="0"/>
   <stop stop-color="#b20002" stop-opacity="0" offset="1"/>
  </radialGradient>
  <radialGradient id="f" cx="398.8" cy="294.69" r="50.11" gradientTransform="matrix(1.6941 0 0 1.909 -564.4 -265.1)" gradientUnits="userSpaceOnUse" xlink:href="#b"/>
  <radialGradient id="e" cx="507.84" cy="264.55" r="54.256" gradientTransform="matrix(1.9532 6.6666e-8 0 1.8894 -766.62 -239.01)" gradientUnits="userSpaceOnUse" xlink:href="#b"/>
  <radialGradient id="d" cx="160.05" cy="337.61" r="59.521" gradientTransform="matrix(.43326 -.90127 1.6374 .78713 -462.08 188.7)" gradientUnits="userSpaceOnUse" xlink:href="#a"/>
  <radialGradient id="c" cx="250.64" cy="333.6" r="51.389" gradientTransform="matrix(.36601 -.93061 2.4915 .97989 -672.25 215.7)" gradientUnits="userSpaceOnUse" xlink:href="#a"/>
 </defs>
 <path transform="matrix(1.0466 0 0 1.0466 -7.3992 -14.939)" d="m126 264s-27.933-2.7589-40 3c-7.023 3.3516-15.21 9.2585-16 17-0.51669 5.0618 3.8799 10.014 8 13 19.706 14.28 71 17 71 17l18 1 22-6z" fill="url(#d)" opacity=".69565"/>
 <path transform="matrix(1.0466 0 0 1.0466 -7.3992 -14.939)" d="m289.61 298.83s-5.9434 6.5179-9.8469 8.3086c-10.576 4.8517-22.858 6.3628-34.464 5.5389-20.355-1.445-58.466-18.156-58.466-18.156l3.0772-20.925 47.388-6.0006z" fill="url(#c)" opacity=".6"/>
 <path transform="matrix(1.0466 0 0 1.0466 -7.3992 -14.939)" d="m207.15625,54.09375c-1.96577.01899-3.29743,3.06047-4.15625,4.96875-1.16562,2.58999-2.19868,5.70267-2.125,8.59375-4.5143,3.27345-24.8841,18.31591-32.28125,28.75-1.4,1.97478-2.72923,3.99458-3.96875,6.0625l-6.9375,2.15625-12.625-.46875 1.84375,3.84375c0,0-3.82446-.28842-4.59375-.75s-.3125,2.625-.3125,2.625l-6.9375.125 1.6875,4.3125-8.59375.625 3.0625,3.6875-9.375.78125 1.21875,3.53125-5.0625,2.15625h-2.78125v3.21875l-7.21875.9375 .75,4.15625-5.0625.46875-1.09375,4.75h-4.4375l-.78125,2.78125-2.46875.3125-1.375,4-5.65625-.65625v4.34375l-3.90625.21875-.875,3.28125-1.96875-.65625-.21875,4.5625-3.6875-.65625-.21875,3.0625-2.625.21875-.4375,2.8125-2.8125.4375 .4375,3.28125-3.625-.21875-.4375,4.78125-1.25-.0625-1.25-1.25-.4375,5.65625-6.3125,1.3125 1.9375,3.90625-5,5.21875 2.625,1.3125-3.6875,3.90625 .1875,4.59375-3.25,1.71875 .875,4.34375-3.90625,1.75-.65625,4.125-.875-.40625-2.625,3.90625-1.71875,1.3125 1.28125,3.03125-3.90625,2.1875 .875,2.59375-3.0625,2.1875-.84375,4.34375-3.0625,2.1875-.4375,3.46875-4.78125,3.9375 5.46875,1.75c0,0 8.37477-1.1452 12.59375-1.53125 2.50724-.22942 5.07729-.0655 7.5625-.46875 .7859-.12753 1.50782-.43603 2.28125-.625 2.29661-.56113 4.60631-1.13777 6.9375-1.53125 2.18919-.36952 4.44706-.35033 6.625-.78125 2.03867-.40337 3.96964-1.24422 6-1.6875 1.62284-.35431 3.40022-.0493 4.90625-.75 6.16337-2.86774 10.02617-9.25104 15.40625-13.40625 6.98011-5.39097 14.65723-9.79366 21.84375-14.90625 8.21604-5.845 16.59619-11.50957 24.3125-18 5.74646-4.83353 10.64323-10.63866 16.3125-15.5625 .33155-.28796.76643-.65549 1.1875-1-.62977,1.93291-1.23355,3.88698-1.78125,5.84375-1.41273,5.04725-2.67498,10.15242-3.59375,15.3125-.61666,3.46334-1.13466,8.56738-1.40625,11.25-6.62698,1.13531-12.9982,4.03477-18.8125,7.40625-.56563.32799-1.13388.68144-1.6875,1.03125-.0962.0608-.18539.12604-.28125.1875-.40375.25881-.79049.51132-1.1875.78125-.98751.67046-1.96192,1.35918-2.90625,2.09375-.29988.23364-.57976.47903-.875.71875-.23572.19099-.48605.36776-.71875.5625-.11973.10045-.22482.21107-.34375.3125-.92382.78583-1.81508,1.59669-2.6875,2.4375-.12234.118-.25369.22474-.375.34375l-.0625.0625c-.40526.39874-.79401.80919-1.1875,1.21875-.17232.17935-.36133.34991-.53125.53125-.51364.54817-1.0089,1.09094-1.5,1.65625-.70864.81572-1.40673,1.65202-2.09375,2.5l-.125.15625c-2.37765,2.94964-4.58268,6.09752-6.25,9.46875-.36291.73394-.69036,1.4635-1,2.21875s-.59151,1.52646-.84375,2.3125c-.14279.44496-.26403.89093-.375,1.34375-.0415.16589-.0873.33323-.125.5-.0134.0609-.0183.12647-.0312.1875-.92996,4.27415-.66615,8.80553-.46875,13.1875 .19522,4.33359 1.02898,8.65439 2.03125,12.875 1.36771,5.75949 2.53468,11.72972 5.40625,16.90625 3.29877,5.94662 8.15234,10.99179 13.1875,15.5625 4.97947,4.52016 10.50447,8.57985 16.5625,11.5 6.28353,3.02885 13.10003,5.57492 20.0625,6 5.65226.34509 11.68081-.31979 16.75-2.84375 6.46336-3.21812 11.92452-8.73991 15.78125-14.84375 .20675-.32721.39767-.66686.59375-1 .0848-.14404.16715-.29241.25-.4375 .41766-.73161.81655-1.46209 1.1875-2.21875 .11851-.24138.22972-.47507.34375-.71875 .10962-.23448.20689-.48222.3125-.71875 .11899-.26648.26093-.54357.375-.8125 .92944-2.19321 1.68797-4.46604 2.34375-6.78125 .26215-.92403.4896-1.84613.71875-2.78125 .0283-.11555.0659-.22807.0937-.34375 .23346-.96931.45071-1.96206.65625-2.9375 .0176-.0839.045-.16611.0625-.25 .21213-1.01728.40385-2.04484.59375-3.0625 .008-.0424.0234-.0826.0312-.125 .19695-1.05953.38084-2.10312.5625-3.15625 .21523-1.24775.42384-2.51918.625-3.78125 .81175-5.09007 1.46879-10.29944 1.5-15.4375 .003-.63169-.0154-1.27636-.0312-1.90625-.00026-.0103.00027-.0209 0-.0312-.00054-.0209.00056-.0416 0-.0625-.0334-1.24958-.099-2.51103-.21875-3.75-.18478-1.90407-.47943-3.78989-.90625-5.65625-.57431-2.5113-1.41972-4.9845-2.4375-7.375-.004-.009.004-.0225 0-.0312-1.01945-2.39052-2.23458-4.70439-3.59375-6.9375-.005-.007.005-.0238 0-.0312-1.08745-1.78488-2.28644-3.493-3.53125-5.15625-.005-.007.005-.0247 0-.0312-.62521-.83475-1.2827-1.63695-1.9375-2.4375-.67695-.82764-1.37875-1.65842-2.09375-2.46875-.005-.006.005-.0255 0-.0312-.71552-.81044-1.46508-1.59162-2.21875-2.375-.005-.005.005-.026 0-.0312-1.52417-1.58321-3.13182-3.0874-4.8125-4.5-.4185-.35253-.82176-.69239-1.25-1.03125-1.71287-1.35352-3.50584-2.60199-5.375-3.6875-.45946-.26712-.93732-.53338-1.40625-.78125h-.0312c-.4771-.25175-.9506-.48817-1.4375-.71875s-.97203-.44809-1.46875-.65625c-.17905-.075-.3507-.14704-.53125-.21875h-.0312c-3.60167-1.42655-7.50521-2.18734-11.4375-2.4375-.34133-.0217-.69022-.0477-1.03125-.0625h-.28125c-.80558-.0304-1.59994-.0444-2.40625-.0312-.92824.0151-1.86084.0274-2.78125.0937 .0363-1.47421.0846-2.87175.21875-4.03125 1.02882-8.89434 3.70609-17.54572 6.46875-26.0625 2.40183-7.4044 5.42323-14.61874 8.75-21.65625 5.54217-11.724 12.51082-22.73474 18.59375-34.1875 3.33562-6.2802 6.26085-12.77689 9.8125-18.9375 3.01929-5.23719 3.85475-14.47174 9.46875-15.78125 .85317.18189 1.67981.20958 2.5.0625 3.58032,1.14897 5.61656,6.85628 8.34375,9.96875 8.79895,10.04201 17.07571,20.61254 24.34375,31.8125 5.65817,8.71917 10.49472,17.98011 14.875,27.40625 3.26502,7.02616 6.49833,14.13203 8.46875,21.625 1.41947,5.39784 1.81598,11.04045 2.375,16.59375 .38466,3.82117 1.25492,7.70167.6875,11.5-.0667.44662-.20656.9489-.34375,1.46875-1.84212-.46284-3.6899-.99354-5.53125-1.4375h-.0312c-1.3775-.33142-2.75993-.61191-4.15625-.78125h-.0312c-.70332-.0845-1.3825-.13772-2.09375-.15625-6.60557-.17207-13.67426.002-19.625,2.875-6.50224,3.13881-12.01677,8.65133-15.78125,14.8125-5.71032,9.34585-8.16588,20.68083-9.09375,31.59375-.85637,10.07194.0643,20.56349 3.34375,30.125 1.86583,5.43999 5.06953,10.38544 8.625,14.96875 .014.0181.0172.0444.0312.0625 .76822.98891 1.55209,1.94973 2.34375,2.90625 1.75865,2.12489 3.53626,4.32188 5.4375,6.40625 .63321.69443 1.27542,1.37201 1.9375,2.03125 .84853.84614 1.71693,1.64618 2.625,2.40625 .16004.1338.3066.27572.46875.40625 .006.005.025-.005.0312,0 .35264.28344.69931.5771 1.0625.84375 .007.005.0246-.005.0312,0 .36309.26608.71933.53377 1.09375.78125 .38867.25744.78584.48334 1.1875.71875 .39415.23099.77994.44838 1.1875.65625 .41959.21499.81538.40535 1.25.59375 .32434.14059.63764.25599.96875.375 .34317.12416.68165.24133 1.03125.34375 .33721.099.65734.20069 1,.28125h.0312l.1875.0312c.96749.21704 1.93836.37284 2.9375.46875 .22953.0224.45675.014.6875.0312 .48303.036.95035.0776 1.4375.0937 .3122.01.62413-.003.9375,0 .78372.008 1.55735.0242 2.34375,0h.0625c1.78235-.0562 3.57244-.16958 5.3125-.25 1.32496-.0612 2.63514-.13608 3.96875-.25 1.32355-.11367 2.62646-.26618 3.9375-.46875 2.6217-.40202 5.2117-1.02335 7.65625-2 7.92848-3.16763 15.22054-8.23688 21.3125-14.21875 7.34281-7.21012 13.51569-15.9266 17.59375-25.375 3.88241-8.9951 6.61608-18.96846 6.0625-28.75-.544-9.61228-3.39704-19.63663-9.125-27.375-3.36628-4.54778-8.32831-8.09358-13.625-10.21875-.53074-.22127-1.05453-.44031-1.59375-.625-.33195-.1137-.66451-.21899-1-.3125l-.34375-.0937-.0937-.0312c-.84528-.21419-1.70126-.3591-2.5625-.46875-2.65181-.33754-5.38038-.21073-8.125-.0625-1.66219.0865-3.30898.1745-4.96875.21875-1.11862.0314-2.23674.0204-3.34375-.0312-.70071-5.85751-1.88987-14.91759-3.1875-20.5-2.36279-10.1648-5.41009-20.20779-9.56255-29.78155-4.37077-10.0771-10.31129-19.43521-16.03125-28.8125-3.59295-5.89028-7.55887-11.5339-11.46875-17.21875-4.76403-6.92676-9.77533-13.67347-14.59375-20.5625-1.60989-2.30171-4.78125-6.9375-4.78125-6.9375l-.84375-5.46875c.18204-1.60478.16349-3.22764 0-4.625-1.0383-8.87461-6.64446-4.05198-8.875-7.125-1.0296-1.41848-.15479-4.57006-1.875-4.90625-.13692-.02676-.24395-.06377-.375-.0625zm-5.875,17.25 .375,6.375c0,0-1.00702,6.63782-2.15625,9.78125-2.87797,7.87193-7.79915,14.84144-11.71875,22.25-4.05335,7.66137-8.1532,15.29733-12.1875,22.96875-.0649.12347-.12241.25161-.1875.375l-2.03125-5.53125 3.6875-.15625-7.375-18.3125 .46875-8.3125-1.53125.46875c.44254-.65669.88203-1.31747 1.34375-1.96875 6.82835-9.63176 25.41108-23.60746 31.3125-27.9375zm-26.6875,63.21875-.84375,1.59375-.21875-.90625 1.0625-.6875z" filter="url(#l)" opacity=".5"/>
 <path d="m84.57 136.89v4.5546l-4.0991 0.22773-0.91091 3.4159-2.0496-0.68318-0.22773 4.7823-3.8714-0.68318-0.22773 3.1882-2.7328 0.22773-0.45545 2.9605-2.9605 0.45545 0.45546 3.4159-3.7746-0.23247-0.45545 5.01-1.3313-0.0569-1.3094-1.3094-0.45546 5.921-6.6041 1.3664 2.0496 4.0991-5.2378 5.4655 2.7328 1.3664-3.8714 4.0991 0.22773 4.7823-3.4159 1.8218 0.91091 4.5546-4.0991 1.8218-0.68318 4.3268-0.91092-0.45546-2.7327 4.0991-1.8218 1.3664 1.3664 3.1882-4.0991 2.2773 0.91091 2.7328-3.1882 2.2773-0.91091 4.5546-3.1882 2.2773-0.45545 3.6437-5.01 4.0991 5.7132 1.8451s8.7888-1.2062 13.204-1.6103c2.6241-0.24011 5.2894-0.061 7.8904-0.48308 0.82253-0.13348 1.606-0.44635 2.4154-0.64413 2.4036-0.58728 4.8064-1.1985 7.2463-1.6103 2.2912-0.38675 4.6448-0.35414 6.9242-0.80515 2.1337-0.42217 4.1551-1.3074 6.2801-1.7713 1.6985-0.37082 3.5767-0.0718 5.1529-0.80514 6.4506-3.0014 10.472-9.6606 16.103-14.01 7.3054-5.6422 15.345-10.269 22.866-15.62 8.599-6.1174 17.367-12.047 25.443-18.84 6.0143-5.0588 11.136-11.111 17.069-16.264 2.2215-1.9294 6.9242-5.475 6.9242-5.475l10.306-23.349-1.4493-5.797 2.2544-1.4492-2.4154-6.6022 3.8647-0.16103-7.7294-19.162 0.48308-8.6956-13.043 4.0257-13.204-0.48309 1.9323 4.0257s-4.0257-0.32205-4.8309-0.80514-0.32206 2.7375-0.32206 2.7375l-7.2463 0.16103 1.7713 4.5088-9.0176 0.64413 3.2206 3.8647-9.8228 0.80515 1.2882 3.7037-5.314 2.2544h-2.8985v3.3816l-7.5684 0.96617 0.80514 4.3478-5.314 0.48309-1.1272 4.9919h-4.6698l-0.80514 2.8985-2.5765 0.32205-1.4493 4.1868z" fill="url(#k)"/>
 <path d="m204.72 54.506s-26.998 19.218-35.676 31.458c-10.655 15.03-16.158 33.089-26.853 47.598-11.907 16.153-26.378 30.482-41.427 43.846-11.672 10.365-25.159 18.602-37.799 28.032-9.7934 7.3055-29.303 21.985-29.303 21.985l1.0543 1.4264s19.548-14.685 29.334-21.985c12.552-9.3634 26.063-17.62 37.892-28.125 15.099-13.407 29.659-27.823 41.675-44.125 10.938-14.838 16.453-30.931 26.884-45.644 8.4663-11.942 35.49-31.241 35.49-31.241z" fill="#c1be7b"/>
 <path d="m221.55 273.93c-3.4323-10.007-4.4012-21.003-3.5049-31.544 0.97111-11.422 3.5368-23.265 9.5133-33.046 3.9399-6.4483 9.7178-12.237 16.523-15.522 6.2281-3.0065 13.615-3.1843 20.529-3.0042 5.9552 0.15513 11.61 2.794 17.524 3.5049 7.817 0.93957 16.151-1.5631 23.599 0.98814 6.165 2.1116 12.055 6.0917 15.932 11.33 5.9949 8.099 8.9899 18.618 9.5593 28.678 0.57938 10.237-2.3095 20.68-6.3728 30.094-4.2681 9.8888-10.725 19.007-18.41 26.554-6.3759 6.2607-14.007 11.555-22.305 14.87-5.117 2.0443-10.782 2.578-16.286 2.8324-5.9133 0.27327-12.271 0.93813-17.702-1.4162-7.0632-3.0617-12.174-9.6115-17.082-15.542-4.6813-5.6562-9.134-11.831-11.516-18.776z" fill="url(#e)"/>
 <path d="m117.9 214.34c4.2744-4.9203 9.3827-9.248 15.021-12.517 6.6243-3.8412 13.929-7.0828 21.53-8.0112 7.3363-0.89603 15.214-0.35308 22.031 2.5035 8.3179 3.4858 15.319 10.043 21.029 17.024 5.4825 6.7029 10.086 14.591 12.017 23.032 2.3824 10.418 0.81518 21.513-1.0014 32.045-1.5791 9.1544-3.5498 18.684-8.5119 26.537-4.0365 6.3883-9.7585 12.154-16.523 15.522-5.3054 2.6416-11.609 3.3654-17.524 3.0042-7.287-0.44489-14.4-3.1291-20.976-6.2992-6.3404-3.0562-12.137-7.3068-17.348-12.038-5.2698-4.7837-10.355-10.062-13.808-16.286-3.0054-5.4178-4.2333-11.674-5.6648-17.702-1.049-4.4173-1.92-8.9182-2.1243-13.454-0.23953-5.3171-0.56417-10.864 1.0621-15.932 2.0878-6.506 6.3112-12.269 10.792-17.427z" fill="url(#f)"/>
 <path d="m262.2 190.75 10.499 12.003-4.35-7.0973 20.638 3.8594 12.788-5.1022c-6.3772-0.87261-13.193 0.67872-19.657-0.0981-5.9146-0.71091-11.543-3.3445-17.498-3.4996-0.79941-0.0208-1.6107-0.058-2.4203-0.0654z" opacity=".19732"/>
 <path d="m175.92 196.08s-23.002 2.4002-33.935 5.9061c-8.0342 2.5762-22.81 10.97-22.81 10.97-0.42719 0.46279-0.86359 0.89946-1.2756 1.3737-4.481 5.1582-8.7054 10.927-10.793 17.433-0.89511 2.7894-1.1576 5.7385-1.2101 8.6999 0 0 9.6151 24.807 20.769 28.618 8.6741 2.9639 17.32-6.4191 26.394-7.7187 11.267-1.6137 22.796-0.85955 34.146 0 2.8151 0.2132 6.7375-1.0257 8.3728 1.2756 3.4173 4.809-4.2517 11.588-3.2379 17.4 0.93114 5.3381 8.2093 14.031 8.2093 14.031 4.5711-7.6805 6.4594-16.824 7.9804-25.642 1.8166-10.531 3.3964-21.634 1.0139-32.052-1.9305-8.4416-6.5534-16.322-12.036-23.025-5.71-6.981-12.712-13.554-21.03-17.04l-0.55601-0.22895z" fill="#c90401" opacity=".38127"/>
 <path d="m160.03 193.43c-1.8767 0.0305-3.726 0.16847-5.5601 0.39248-7.6009 0.92835-14.929 4.1719-21.554 8.0131-4.7359 2.7462-9.0784 6.2409-12.886 10.204l12.428-0.29435 6.4432-3.8594 10.957 7.0973-5.1676-10.303 15.47-6.4432 3.7612-4.7097c-1.2984-0.0826-2.5939-0.1192-3.8921-0.0981z" opacity=".20067"/>
 <path d="m203.76 59.784c2.2405 4.3533 8.1609 8.986 12.753 7.2873 4.2335-1.5661 5.0791-8.2695 4.5546-12.753-1.0867-9.2882-6.9821-4.2233-9.3166-7.4396-1.0776-1.4846-0.13197-4.8011-1.9324-5.1529-2.2928-0.4481-3.7917 3.0226-4.7504 5.1529-1.7745 3.9428-3.2867 9.0606-1.308 12.905z" fill="#a26c3e"/>
 <path d="m273.25 202.83 13.269 1.2517-1.5021-3.7552s-1.9241-18.333-4.0056-27.288c-2.4729-10.638-5.6819-21.173-10.028-31.193-4.5745-10.547-10.773-20.328-16.76-30.142-3.7604-6.1648-7.9247-12.075-12.017-18.025-4.9861-7.2496-10.228-14.32-15.271-21.53-1.6849-2.409-5.007-7.2601-5.007-7.2601l-1.0014-6.5091s-4.5784 3.333-7.2601 3.5049c-3.6869 0.2363-10.515-3.5049-10.515-3.5049l0.5007 8.0112s-1.0504 6.9744-2.2532 10.264c-3.0121 8.2388-8.1648 15.529-12.267 23.282-4.2423 8.0184-8.5455 16.005-12.768 24.034-3.1966 6.0785-6.581 12.065-9.5133 18.276-1.82 3.8544-3.5096 7.7756-5.007 11.766-1.5112 4.0273-2.8461 8.1248-4.0056 12.267-1.4786 5.2825-2.7936 10.622-3.7552 16.022-0.84009 4.7182-1.7524 14.27-1.7524 14.27l-2.2531 12.517-0.75106 5.2573 6.0084 1.0014s4.9061 1.9512 7.2601 1.2517c1.5283-0.45409 3.7438-1.6782 3.5049-3.2545-0.3468-2.288-6.2587-3.0042-6.2587-3.0042l-2.2532-1.0014s-1.0175-13.396-0.25035-20.028c1.0768-9.3089 3.868-18.374 6.7594-27.288 2.5138-7.7495 5.6863-15.291 9.1682-22.656 5.8005-12.27 13.106-23.772 19.473-35.759 3.4911-6.5729 6.5502-13.379 10.267-19.827 3.2866-5.7008 4.0798-15.927 10.621-16.64 4.9775-0.54292 7.3217 6.8556 10.621 10.621 9.209 10.51 17.885 21.559 25.491 33.28 5.9219 9.1255 10.994 18.812 15.578 28.678 3.4172 7.3536 6.7889 14.817 8.8512 22.659 1.4856 5.6494 1.8933 11.536 2.4783 17.348 0.40259 3.9993 1.302 8.0623 0.70809 12.038-0.58121 3.8906-4.1058 11.064-4.1058 11.064z" fill="#c1be7b"/>
 <path d="m205.76 66.262c-0.77095 6.0207-2.1868 12.01-5.1022 17.367 4.0313-6.2216 4.0815-17.839 13.442-18.61 8.0981 0.84555 9.4518 10.96 15.176 15.339 2.1889 2.4159 10.087 12.615 4.7948 5.3914-4.61-7.2297-10.978-13.811-14.365-21.57 0.3386-4.6938-4.1208 0.92167-6.8484-0.20716-3.0696 0.54456-8.8229-4.7069-7.1843 0.97434l0.0691 1.0443 0.0179 0.27079zm-8.242 23.222c-11.221 20.039-22.465 40.035-31.987 60.867-4.7016 11.631-8.2205 23.908-9.9755 36.435 4.8187-29.963 19.516-56.966 34.647-82.881 2.8161-5.1768 5.2976-10.513 8.0352-15.729l-0.50438 0.91706-0.21516 0.3912zm67.931 45.625c0.0617-0.0634-0.14133-0.1936 0 0zm1.7662 3.7285c4.0157 8.9554 1.1845 1.9442-1.2994-2.8588-1.3853-2.759 1.2036 2.6034 1.2994 2.8588zm2.5511 5.5274c-0.0309 0.0485 0.11273 0.12333 0 0zm0.5233 1.2428c-0.43872-1.419-0.63712-1.3232 0 0zm7.0646 21.75c0.74348 10.982 4.9914 22.802-0.74198 33.177 5.3202 3.2061 8.0202-7e-3 5.5825-6.2266-1.0674-9.3885-2.4157-18.877-5.0368-28.029l0.18723 1.0297 9e-3 0.0496zm-122.35 24.072c-0.55732 7.1414-2.4016 14.095-3.3034 21.194 3.8637-0.33905 8.8743 3.8622 12.069 0.98119-3.8297-1.5326-10.07-1.4958-8.4628-7.3901-0.26099-5.2592-0.5128-10.538-0.17169-15.799l-0.13082 1.0139z" fill="#d4d1af"/>
 <path d="m257.23 200.59c9.0272-0.20483 17.9 5.158 26.824 3.7794 5.8399-0.9022 10.092-8.0234 15.989-7.6555 7.2044 0.44938 14.151 5.7427 18.218 11.706 6.1064 8.9538 7.7348 21.13 6.3764 31.882-1.1404 9.0273-4.9224 18.686-11.842 24.595-9.643 8.2343-23.798 11.956-36.437 10.931-13.129-1.065-25.566-8.6864-35.526-17.307-6.9407-6.0078-13.622-13.784-15.486-22.773-1.3181-6.3558 0.56799-13.413 3.6437-19.129 3.0112-5.5963 8.0227-10.369 13.664-13.296 4.3876-2.2761 9.633-2.6206 14.575-2.7328z" fill="url(#g)" opacity=".50836"/>
 <path d="m289.43 219.52c-1.6917 6.1228 4.7418 16.434 11.031 15.54 8.4115-1.1964 10.647-19.462 8.3735-24.074-1.3306-2.699-17.522 1.7235-19.404 8.5344z" fill="url(#h)" opacity=".69231"/>
 <path d="m261.74 252.73c-4.9232 0.0359-9.8859 4.3127-13.344 7.9804-4.487 4.7587-4.4597 12.369-7.7514 18.021-2.393 4.1088-7.2469 7.1008-10.074 10.859 0.81795 1.0544 1.6421 2.0879 2.4857 3.1071 4.9083 5.9305 10.01 12.474 17.073 15.536 5.4313 2.3543 11.814 1.7124 17.727 1.4391 5.5043-0.25438 11.171-0.80111 16.288-2.8455 8.298-3.3153 15.93-8.6208 22.306-14.881 0.90543-0.88907 1.7794-1.7832 2.6492-2.7146-0.0602-0.0496-0.10257-0.11501-0.16353-0.16353-4.7144-3.7549-12.506 3.7052-18.021 1.2756-6.0145-2.6494-8.3813-10.168-12.265-15.47-5.208-7.11-6.2903-19.647-14.816-21.881-0.69664-0.18249-1.3899-0.26678-2.0932-0.26165z" fill="url(#i)" opacity=".63552"/>
 <path d="m301.55 194.35-12.559 8.4056 20.082-6.0834c-1.0996-0.50811-2.2074-0.98708-3.336-1.3737-1.3656-0.46776-2.7699-0.76815-4.1864-0.94849z" fill="#fff" opacity=".25425"/>
 <path d="m119.47 212.6c-0.53758 0.57372-1.0559 1.1418-1.5699 1.7334-0.78705 0.90599-1.5612 1.836-2.3222 2.78l26.525 0.45789-18.087-2.0932-4.5462-2.8782z" fill="#fff" opacity=".42809"/>
 <path d="m173.43 227.55c-2.9876-0.13284-6.6956 1.0581-8.1982 3.6437-1.5333 2.6383-0.39585 6.3516 0.91091 9.1092 1.2872 2.7163 3.3706 6.3764 6.3764 6.3764s4.7961-3.8195 6.3764-6.3764c1.5144-2.4504 3.777-5.5136 2.7328-8.1983-1.1333-2.9135-5.0752-4.4157-8.1983-4.5546z" fill="url(#j)"/>
 <path d="m268.15 219.21s-5.2966 32.27-7.2935 49.583c-1.2525 10.859-2.6425 28.703-3.565 41.047 1.6532 0.12097 3.3251 0.15106 5.0041 0.0981 0.94701-13.406 2.1124-30.308 2.8455-41.537 1.1694-17.915 3.009-49.19 3.009-49.19z" fill="#6b363a" opacity=".51191"/>
</svg>
