<?xml version="1.0" encoding="UTF-8"?>
<!DOCTYPE svg  PUBLIC '-//W3C//DTD SVG 1.1//EN'  'http://www.w3.org/Graphics/SVG/1.1/DTD/svg11.dtd'>
<svg enable-background="new -308.043 -416.0075 795.1136 1075.1212" version="1.1" viewBox="-308.043 -416.0075 795.1136 1075.1212" xml:space="preserve" xmlns="http://www.w3.org/2000/svg">
	<path d="m156.21-354.75c-0.7572-8.7076 4.7534-16.237 8.7917-23.473 2.0192 22.463-3.6177 45.81 4.0804 67.558 8.6235 24.903 12.704 51.657 10.096 77.948-1.6406 21.159-2.1874 42.402-4.7114 63.477-7.8242 17.878-12.031 37.817-25.113 52.961-7.025-3.0708-14.765-3.5335-22.295-3.828 5.132-34.242 14.723-67.558 24.23-100.75 6.5622-23.725 6.8146-48.544 5.8051-72.942-0.9675-20.318 2.4398-40.72-0.8834-60.953z" fill="#234910" stroke="#234910" stroke-width=".3944"/>
	<path d="m110.06-276.5c9.9275-28.394 19.855-60.575 46.146-78.242 3.3232 20.234-0.0841 40.636 0.8834 60.953 1.0096 24.398 0.7572 49.217-5.8051 72.942-9.5069 33.19-19.098 66.506-24.23 100.75-7.4036-0.0841-14.849 0-22.253 0.2524-5.8051-24.903-14.218-49.049-21.412-73.573-1.9351-7.7401-6.0154-14.765-12.956-18.972l6.8146 2.3557c-1.8088-26.417 0.4627-54.728 16.195-77.022 7.025-9.2965 7.4877-21.075 8.4552-32.222 8.6656 12.41 6.3519 28.479 8.1608 42.781z" fill="#499224" stroke="#499224" stroke-width=".3944"/>
	<path d="m249.09-305.11c0.8834 0.0841 2.6081 0.1682 3.4914 0.2103-4.2907 17.415-6.0995 35.588-2.0612 53.213 3.8701 16.742 0.2103 33.737-4.1645 49.974 27.385-12.998 62.005 2.3136 85.982-19.056 18.719-13.419 32.012-33.316 37.691-55.653-0.3365 22.926-5.2582 46.525-18.509 65.623-7.5298 11.021-19.476 17.626-29.698 25.744-13.966 10.348-23.473 25.197-33.989 38.743l-4.6693-0.5469c-20.654-2.8184-42.024-3.3653-62.257 2.4398-22.211 5.5106-39.836 21.201-60.743 29.867-2.1033-21.033 10.432-39.289 17.205-58.303 21.327-28.563 50.1-54.643 56.494-91.325 2.0192-6.6464 4.5431-13.082 6.8567-19.603 2.6081-7.193 5.3845-14.302 8.3712-21.327z" fill="#254813" stroke="#254813" stroke-width=".3944"/>
	<path d="m11.837-260.18c-1.0516-13.124 5.0479-25.618 14.891-34.031-4.1645 19.224-9.8434 42.318 5.09 58.556 8.2028 14.092 25.029 16.91 38.616 23.262 6.9409 4.2066 11.021 11.232 12.956 18.972 7.1932 24.524 15.606 48.67 21.412 73.573-10.264 0.5048-20.486 1.5564-30.666 2.7343-9.2124-18.635-4.501-40.383-11.82-59.481-6.7726-15.396-17.079-29.53-31.171-39.037-7.2774-14.471-20.696-27.09-19.308-44.548z" fill="#224A11" stroke="#224A11" stroke-width=".3944"/>
	<path d="m-136.36-230.15c-11.736-17.499-10.474-38.7-14.891-58.387 5.9733 8.2449 13.84 14.681 23.304 18.467-2.3557 0.0421-7.1091 0.1262-9.5069 0.1683 9.8434 18.383 23.178 34.452 35.504 51.11 13.293 17.499 26.586 35.335 43.58 49.511 25.282 20.528 54.054 37.985 73.236 64.95-21.412-0.4207-41.856-9.9696-63.435-6.5202l-3.3232-0.4207c-6.394-6.8146-13.924-12.367-22.084-16.868-17.163-9.4648-31.591-23.136-42.066-39.668-15.228-21.874-22.926-48.418-40.888-68.357 5.1321 1.5144 15.438 4.501 20.57 6.0154z" fill="#244812" stroke="#244812" stroke-width=".3944"/>
	<path d="m222-260.06c1.5144-10.811 9.5489-18.677 18.719-23.725-2.3136 6.5202-4.8375 12.956-6.8567 19.603-2.9446 1.0516-8.918 3.1129-11.863 4.1224z" fill="#AECC9E" stroke="#AECC9E" stroke-width=".3944"/>
	<path d="m-137.45-269.9c2.3978-0.0421 7.1512-0.1262 9.5069-0.1683 36.976 6.5623 68.904 31.886 91.83 60.911 24.356 35.798 34.2 80.093 64.571 111.98-1.8929-0.0421-5.6789-0.1262-7.6139-0.1683-2.0612-2.2716-4.0383-4.5852-5.9733-6.9829-19.182-26.964-47.955-44.421-73.236-64.95-16.995-14.176-30.287-32.012-43.58-49.511-12.325-16.658-25.66-32.727-35.504-51.11z" fill="#4A9126" stroke="#4A9126" stroke-width=".3944"/>
	<path d="m-37.591-266.74c0.8413-0.2103 2.4819-0.5468 3.2811-0.7572 1.2199 2.6501 3.5756 7.9925 4.7955 10.643 0.5048 2.1874 1.5564 6.6043 2.1033 8.8338 6.0995 30.372 21.412 58.303 40.93 82.112 8.6655 9.7172 9.7172 23.304 16.027 34.284 6.3519 9.4648 14.134 17.836 21.075 26.922-7.1512 3.197-14.344 6.394-22.169 7.5298-30.372-31.886-40.215-76.181-64.571-111.98 3.3232-19.14 4.0804-38.743-1.4723-57.588z" fill="#214B0F" stroke="#214B0F" stroke-width=".3944"/>
	<path d="m179.17-232.71c14.471-8.8338 28.563-18.172 42.823-27.343 2.9446-1.0096 8.918-3.0708 11.862-4.1224-6.394 36.681-35.167 62.762-56.494 91.325l-2.9026 3.6176c2.524-21.075 3.0709-42.318 4.7114-63.477z" fill="#4B9028" stroke="#4B9028" stroke-width=".3944"/>
	<path d="m-27.411-248.02c12.115 21.159 32.895 33.737 53.003 46.23 1.893-4.6272 3.7018-9.2545 5.5527-13.84 14.092 9.5069 24.398 23.641 31.171 39.037 7.3194 19.098 2.6081 40.846 11.82 59.481 0.5889 1.3461 1.8509 4.0383 2.4398 5.3844-8.7497 1.8088-17.584 3.7439-25.955 7.025-6.9409-9.0862-14.723-17.457-21.075-26.922-6.3099-10.979-7.3615-24.566-16.027-34.284-19.518-23.809-34.83-51.741-40.93-82.112z" fill="#4A9224" stroke="#4A9224" stroke-width=".3944"/>
	<path d="m149.35-116.27c13.082-15.144 17.289-35.083 25.113-52.961l2.9026-3.6176c-6.7726 19.014-19.308 37.27-17.205 58.303-3.7859 0.757-7.4877 0.2943-10.811-1.7248z" fill="#ECCF9B" stroke="#ECCF9B" stroke-width=".3944"/>
	<path d="m-116.04-167.81c10.474 16.532 24.903 30.203 42.066 39.668-18.046 1.7668-35.504-5.4265-53.508-3.87-29.404 1.1358-56.957 12.409-85.73 17.121-18.004 3.5756-36.05-4.9638-53.844-0.1682-5.9733-1.4303-8.5814-8.3711-12.872-12.073 15.396 2.3557 31.213 5.4685 46.735 2.1453 31.044-5.6368 53.255-32.601 84.678-37.186 10.643-2.8184 21.496-1.304 31.802 2.1033 0.1683-1.935 0.5048-5.8051 0.6731-7.7401z" fill="#4C9028" stroke="#4C9028" stroke-width=".3944"/>
	<path d="m220.9-144.42c20.234-5.8051 41.603-5.2582 62.257-2.4398 9.2965 8.7076 22.631 9.0862 33.779 14.092 24.104 9.8434 47.829 21.958 67.936 38.743 3.7859 3.9121 7.9084 7.4877 12.452 10.516 3.7018 2.9446 7.3195 6.0154 10.811 9.2545-1.3461 2.4398-3.9541 7.3194-5.3003 9.7593-8.6235-15.648-21.832-28.773-37.607-37.144-3.9962-2.2716-8.0345-1.9771-12.073 0.8834-5.5106-4.3328-10.937-8.8338-16.364-13.293-6.6464-5.7209-14.26-10.18-22.463-13.251-1.2199 1.6826-3.6598 5.0058-4.8796 6.6885-5.7209-3.828-11.484-7.698-17.415-11.232-18.551-11.316-41.603-8.329-62.299-7.5718-28.226 1.8088-46.819 31.002-75.76 29.152-28.605-1.262-58.514-3.5335-85.52 8.1187-21.075 6.5202-43.706 19.561-65.833 9.7172-7.2774-2.4819-14.471-5.2161-21.874-7.2774 13.293 1.6406 26.712 2.1874 40.089 2.3557 1.935 0.042 5.7209 0.1262 7.6139 0.1683 7.8242-1.1358 15.018-4.3328 22.169-7.5298 8.3711-3.2811 17.205-5.2162 25.955-7.025-0.5889-1.3461-1.8509-4.0383-2.4398-5.3844 10.18-1.1778 20.402-2.2295 30.666-2.7343 7.4036-0.2524 14.849-0.3365 22.253-0.2524 7.5298 0.2945 15.27 0.7572 22.295 3.828 3.3232 2.0191 7.025 2.4819 10.811 1.7247 20.906-8.6657 38.532-24.356 60.743-29.867z" fill="#883415" stroke="#883415" stroke-width=".3944"/>
	<path d="m-213.22-114.89c28.773-4.7113 56.326-15.985 85.73-17.121 18.004-1.5564 35.462 5.6368 53.508 3.87 8.1608 4.501 15.69 10.054 22.084 16.868-43.202-3.828-85.141 10.012-127.46 16.28-12.199 2.6081-23.978-1.6826-35.125-6.2258-17.037-7.025-37.228-2.1033-52.582-13.84 17.794-4.7954 35.84 3.7439 53.844 0.1683z" fill="#306316" stroke="#306316" stroke-width=".3944"/>
	<path d="m305.25-114.8c-10.432 2.2716-21.159-6.8988-13.209-17.037 5.9313 3.5335 11.694 7.4036 17.415 11.232-1.0517 1.4722-3.155 4.3747-4.2066 5.805z" fill="#FFBD83" stroke="#FFBD83" stroke-width=".3944"/>
	<path d="m264.61-120.14c11.694-3.9121 19.729 9.3386 22.084 18.888-8.4131 12.409-32.012-8.4553-22.084-18.888z" fill="#FFC584" stroke="#FFC584" stroke-width=".3944"/>
	<path d="m-179.35-94.99c42.318-6.2678 84.258-20.107 127.46-16.28l3.3232 0.4207c-17.92 2.9446-36.639-1.6406-54.054 4.501-13.756 4.2486-27.301 9.3386-40.005 16.195-2.7343 1.4302-5.3844 2.9867-8.0346 4.5852-8.1608-1.7247-18.425-7.1932-25.366 0.3786-6.6043 5.0479-2.8184 13.251-2.3557 19.981l-2.3557 1.9771c-4.9217 4.9638-9.4648 10.222-13.882 15.606-2.1454-10.811 11.105-16.364 9.6751-26.922-0.2522-7.2773 2.3138-14.092 5.5949-20.444z" fill="#FFFFEA" stroke="#FFFFEA" stroke-width=".3944"/>
	<path d="m-48.57-110.85c21.58-3.4494 42.024 6.0995 63.435 6.5202 1.935 2.3977 3.9121 4.7114 5.9733 6.9829-13.377-0.1683-26.796-0.7152-40.089-2.3557-22.589-1.7668-46.188-9.4227-68.273-0.9254-8.2869 2.7343-15.312 7.9084-21.874 13.503-1.0096-2.7764-2.9867-8.2449-3.9963-10.979-8.96 5.0479-18.593 10.012-29.236 7.9504 12.704-6.8567 26.249-11.947 40.005-16.195 17.415-6.1416 36.134-1.5564 54.054-4.501z" fill="#61230C" stroke="#61230C" stroke-width=".3944"/>
	<path d="m336.79-114.05c5.4265 4.459 10.853 8.96 16.364 13.293 0.4207 3.3653 1.2199 10.138 1.5985 13.545-14.555 1.5143-31.255-13.587-17.962-26.838z" fill="#FFC380" stroke="#FFC380" stroke-width=".3944"/>
	<path d="m-87.523-100.63c22.084-8.4973 45.683-0.8413 68.273 0.9254 7.4036 2.0612 14.597 4.7955 21.874 7.2774-6.5623 0.5468-13.503 0.2103-19.645 2.9446-20.402 14.807-35.377 34.872-48.081 56.284-21.201 19.897-29.278 48.207-39.163 74.583-9.2545 18.719-14.723 39.374-14.891 60.322-0.0421 15.312 6.2257 30.372 2.9867 45.683-5.0479 27.427-7.1091 58.724 10.432 82.365 2.4398 4.2487 4.9638 8.4131 7.4877 12.662-2.2716 3.6597-8.2028 7.1091-5.9313 12.115 4.9638 13.84 10.432 27.595 12.998 42.192 3.5756 2.3136 7.1512 4.6693 10.769 6.9409 2.4819 6.3098 4.8376 12.704 6.6464 19.266 8.4552 35.672 36.471 62.552 48.67 96.667 4.1645-0.9254 8.3711-1.8509 12.536-2.8184 0.7993 5.3003 1.5985 10.6 2.7343 15.817 3.1549 2.4819 6.3519 4.9217 9.591 7.3195-0.2945 3.4915-0.5889 6.9829-0.8834 10.474 11.484 7.9084 16.658 20.696 21.496 33.19 4.8796 14.008 21.538 17.794 28.478 30.245 4.2486 7.1091 7.4036 14.765 10.811 22.295 4.9638 0.2945 9.8855 0.5469 14.849 1.0096-1.9771 7.9925-7.9504 19.813 0.7992 25.786 8.4552 4.8376 10.601-8.6656 14.723-12.914 1.3882 5.7209 2.524 11.484 3.7018 17.205 4.2486-0.1683 8.4973-0.3365 12.746-0.5048 6.5202 14.05 17.668 26.88 33.821 29.278 7.2774 2.0192 11.021-6.3939 15.985-9.9695 0.0842 4.4169 0.1683 8.7917 0.2945 13.209 2.6502 0.6731 7.9925 2.0192 10.643 2.6923 2.4819 0.5889 7.4035 1.8088 9.8855 2.3978-9.8434 2.0191-19.603 4.3748-29.488 6.0995-1.5564-0.2524-4.7114-0.7572-6.2678-1.0516-9.7172 4.0804-20.276 4.9637-30.708 5.0059l-5.8471 0.1262c6.5622-6.9409 9.9275-15.943 7.656-25.408-14.555-0.2103-13.251 14.471-10.685 24.566-16.49-3.2812-33.148-6.3519-48.712-12.788-12.199-7.2353-22.8-17.583-37.312-20.107-16.49-11.105-31.381-25.155-43.875-40.593-5.5527-11.947-13.882-22.042-25.071-29.11-19.561-21.243-32.727-47.703-51.993-68.946l1.935-2.6922c1.1358-1.5564 3.3232-4.5851 4.459-6.0995 3.2811-0.2104 9.8013-0.5468 13.082-0.7151-2.1033-8.1608-5.8471-15.69-11.316-22.127-2.6501 1.5144-7.9504 4.501-10.601 6.0154-2.7763-0.0421-8.3711-0.0841-11.19-0.1262-6.1837-13.545-13.882-26.333-22.926-38.154-7.1091-9.0862-10.264-20.78-18.761-28.857l1.7247-2.4398c1.4723-2.0612 4.4169-6.1416 5.8472-8.2028 7.8663-7.0671 9.0441-20.57-1.0096-26.249-2.3978 0.9254-7.1933 2.7764-9.591 3.7018-5.0479-1.2199-10.012-2.7764-14.933-4.459-4.3328-5.4685-7.9925-11.694-9.4648-18.551-0.0841-12.788-6.4361-23.557-14.386-32.98-11.61-25.366-18.551-52.961-23.978-80.262-0.9675-10.138-2.0192-20.234-4.0383-30.245 0.8413-10.39 1.3461-20.865 0.5889-31.255-1.9771-24.02 3.0287-47.955-0.0421-71.932 0.9254-11.862 3.0708-23.851 7.5298-34.957 3.4073-7.9925 6.7305-16.027 9.5489-24.272 5.2582-2.9025 10.558-5.8051 16.069-8.329 2.6922 0.0421 8.0346 0.0421 10.727 0.0841 5.5106-4.9637 10.138-11.147 10.474-18.846-0.7993-1.935-2.4398-5.763-3.2391-7.656-1.1358-5.1741-1.5144-10.474-2.0612-15.733l2.3557-1.9771c9.2124-6.8147 18.425-13.629 27.721-20.36 2.6501-1.5985 5.3003-3.1549 8.0346-4.5852 10.643 2.0612 20.276-2.9025 29.236-7.9504 1.0096 2.7343 2.9867 8.2028 3.9963 10.979 0.2945 2.8184 0.9254 8.4132 1.2199 11.232 13.25-0.3786 25.87-10.306 20.654-24.735m5.4686 75.76c9.591-6.6884 13.04-17.752 12.998-28.983-16.784-4.4169-24.693 19.098-12.998 28.983m-72.437 21.201c3.7439-7.4877 8.4552-14.933 8.2028-23.599-14.428-13.166-26.67 23.515-8.2028 23.599m32.853 44.253c2.2715 0.2945 6.7305 0.8413 8.96 1.0937 2.9446-8.4132 3.6177-17.289 3.1549-26.123-15.733-4.5432-17.037 14.555-12.115 25.029m-90.526 13.166c9.9275-5.5106 14.555-17.079 13.124-28.058-14.849-3.0707-25.366 19.182-13.124 28.058m44.001 5.6789c-1.6406 8.3711 4.8376 13.713 11.61 16.952 5.2162-9.0021 7.4036-19.897 4.1224-30.035-8.0346-6.9828-17.752 4.7535-15.733 13.082m-34.452 70.923c2.6081-0.0421 7.8242-0.0421 10.39-0.0841 1.3461-8.5814 7.3195-22.589-2.7763-27.595-12.241 3.0708-11.274 18.172-7.6139 27.679m67.978-5.7209c-0.7572 10.39-5.2162 28.058 10.601 28.268 3.9963-9.4648 6.8988-19.518 3.197-29.614-4.5852 0.4627-9.2124 0.8833-13.798 1.3461m-32.517 29.951c-2.3136 10.222-6.2678 27.721 9.4648 27.427 3.5335-8.96 3.828-18.551 2.7343-28.016-4.0804 0.2103-8.1187 0.3786-12.199 0.5889m-39.542 49.385c-6.6043 6.9408-5.7209 23.515 3.9121 27.343 9.8434-0.4207 6.7305-13.671 6.8988-20.318 0.7993-6.6886-5.3002-9.2966-10.811-7.025m38.532 64.487c2.0612-0.4206 6.1837-1.2619 8.2449-1.6826 1.893-10.18 4.2486-22.589-5.5947-29.656-10.39 7.5719-8.7077 21.58-2.6502 31.339m37.901-22.421c-7.1512 10.012-4.4169 21.916 2.2716 31.339 12.746-4.7955 9.1283-18.551 9.1283-29.11-3.8281-0.7572-7.614-1.4723-11.4-2.2295m12.073 76.097c-8.4973 5.1741-1.8088 28.436 9.5069 21.454 1.6405-7.4035 3.3652-27.805-9.5069-21.454m40.004 39.289c-0.3365 5.2582-0.631 10.474-0.9255 15.733 2.3978 3.2811 4.8376 6.5623 7.2774 9.8434 2.3557-0.3786 7.067-1.1778 9.4227-1.5564 0.2524-8.3291-0.1262-16.616-1.1778-24.819-4.8796 0.2524-9.7592 0.5047-14.597 0.7992m-28.31 35.083c6.8567-7.4877 8.329-27.385-5.0058-27.469-12.199 5.721-5.5527 23.515 5.0058 27.469m51.32 26.333c-7.6139 7.6559-6.0995 26.291 7.2774 25.576 5.8892-6.5201 1.6406-15.817 0.9675-23.431-2.0613-0.5468-6.1837-1.6405-8.2449-2.1453m51.068 38.742c-8.7918 5.0479-4.5431 19.518 2.7343 24.735 12.115-0.631 10.138-28.857-2.7343-24.735m-64.992 0.589c-6.6043 10.264 4.6693 24.314 15.943 21.748 4.5011-9.4648-3.7438-27.974-15.943-21.748m37.439 37.354c-0.4207 4.1224-0.8413 8.2449-1.262 12.367 4.459 6.0154 10.39 10.138 18.046 10.769 1.8509-11.189-3.3232-25.366-16.784-23.136m62.594 12.83c-2.9446 9.591-1.1778 19.434 6.4361 26.333 2.2716-0.673 6.7726-2.0191 9.0441-2.6922 0.9255-10.348-1.5143-26.67-15.48-23.641m-22.421 32.264c-2.1033 9.8434 4.459 24.188 16.111 21.454 6.5622-9.2123-3.7439-26.459-16.111-21.454m44.085 40.72c0.3365 7.7402 8.2028 8.0346 13.966 9.4228 1.0937-8.4131-1.0516-16.49-5.8051-23.431-3.6176 3.6177-12.031 7.5299-8.1607 14.008z" fill="#9E070A" stroke="#9E070A" stroke-width="1.6589"/>
	<path d="m-109.4-87.123c6.5622-5.5948 13.587-10.769 21.874-13.503 5.2162 14.428-7.4036 24.356-20.654 24.735-0.2945-2.8185-0.9254-8.4132-1.2199-11.232z" fill="#EBA56F" stroke="#EBA56F" stroke-width=".3944"/>
	<path d="m384.88-94.022c6.1416-6.0996 18.509 3.4914 12.452 10.516-4.5431-3.0287-8.6656-6.6043-12.452-10.516z" fill="#F3B8B8" stroke="#F3B8B8" stroke-width=".3944"/>
	<path d="m-176.03-85.188c6.9408-7.5719 17.205-2.1033 25.366-0.3786-9.2965 6.7305-18.509 13.545-27.721 20.36-0.4628-6.7306-4.2487-14.933 2.3556-19.981z" fill="#F1CC89" stroke="#F1CC89" stroke-width=".3944"/>
	<path d="m88.354-77.953c3.3652-2.6502 7.9083-2.0612 11.82-2.8605 1.1778 8.8338 1.262 17.794-1.262 26.375-2.6922-0.5048-8.0766-1.4723-10.769-1.9771-0.3786-7.1511-1.7668-14.513 0.2103-21.538z" fill="#FFC189" stroke="#FFC189" stroke-width=".3944"/>
	<path d="m197.68-61.547c-16.153 14.134-25.071-28.352-3.2391-21.033 1.4723 6.8988 3.6177 13.84 3.2391 21.033z" fill="#FFC382" stroke="#FFC382" stroke-width=".3944"/>
	<path d="m408.14-74.251c8.7918 8.7497 19.098 17.71 19.603 31.171-12.199-1.4723-24.104-7.9084-24.903-21.412 1.3461-2.4398 3.9542-7.3194 5.3002-9.7592z" fill="#FFC88E" stroke="#FFC88E" stroke-width=".3944"/>
	<path d="m322.96-70.339c4.5852 1.0937 13.419-1.9771 14.344 4.8796 1.5985 6.5623 0.631 13.335 0.5889 19.981-14.05 0.7572-15.522-14.302-14.933-24.861z" fill="#FFC387" stroke="#FFC387" stroke-width=".3944"/>
	<path d="m369.4-62.094c0.0842-5.9733 7.3195-8.4552 11.274-4.2066 7.1512 4.6693 8.0767 13.461 8.6656 21.243-9.549 0.1683-20.402-6.5623-19.939-17.037z" fill="#FFC484" stroke="#FFC484" stroke-width=".3944"/>
	<path d="m147.46-63.651c12.073-2.1453 9.7172 15.648 7.3615 22.968-13.419 12.452-20.318-19.056-7.3615-22.968z" fill="#FFC085" stroke="#FFC085" stroke-width=".3944"/>
	<path d="m-194.62-47.624c4.4169-5.3844 8.96-10.643 13.882-15.606 0.5468 5.2582 0.9254 10.558 2.0612 15.733-11.568 4.1645-16.069 15.144-17.962 26.417-5.5106 2.5239-10.811 5.4265-16.069 8.329 1.8509-5.2162 3.7859-10.348 6.0154-15.438 3.4915-6.7725 7.5719-13.251 12.073-19.434z" fill="#8A3426" stroke="#8A3426" stroke-width=".3944"/>
	<path d="m246.77-54.186c14.891-6.7726 15.817 13.545 13.882 23.473-14.134 2.9026-14.26-13.84-13.882-23.473z" fill="#FFBF80" stroke="#FFBF80" stroke-width=".3944"/>
	<path d="m-82.054-24.866c-11.694-9.8855-3.7859-33.4 12.998-28.983 0.042 11.232-3.4074 22.295-12.998 28.983z" fill="#DDA06E" stroke="#DDA06E" stroke-width=".3944"/>
	<path d="m-196.64-21.08c1.893-11.274 6.394-22.253 17.962-26.417 0.7993 1.8929 2.4398 5.7209 3.2391 7.656-0.3365 7.698-4.9638 13.882-10.474 18.846-2.6923-0.0421-8.0346-0.0421-10.727-0.0842z" fill="#E39B6F" stroke="#E39B6F" stroke-width=".3944"/>
	<path d="m-48.149-4.0014c-14.891-7.0671-4.1645-39.542 10.979-27.174 1.304 10.516-4.1646 19.729-10.979 27.174z" fill="#FFC282" stroke="#FFC282" stroke-width=".3944"/>
	<path d="m88.985-4.3379c-15.943 4.6693-18.635-21.243-6.6464-26.628 12.409 1.8929 6.8988 18.046 6.6464 26.628z" fill="#FFC57C" stroke="#FFC57C" stroke-width=".3944"/>
	<path d="m-222.53-15.416c5.4209-6.5739 8.182-8.9453 15.838-12.773-2.2295 5.09-4.1645 10.222-6.0154 15.438-2.8184 8.2449-6.1416 16.279-9.5489 24.272-5.0058-1.9771-4.8155-3.3171-6.289-8.3437-1.8407-6.2787 1.8764-13.574 6.0153-18.593z" fill="#EBCE94" stroke="#EBCE94" stroke-width=".3944"/>
	<path d="m-154.49-3.6649c-18.467-0.0841-6.2257-36.766 8.2028-23.599 0.2524 8.6656-4.459 16.111-8.2028 23.599z" fill="#E6A16C" stroke="#E6A16C" stroke-width=".3944"/>
	<path d="m6.8308-7.8294c-4.6693-8.0346-1.3461-17.289 3.9121-24.062 12.031 2.7343 11.19 14.975 8.7497 24.356-1.7667 5.3003-11.568 5.2582-12.662-0.2945z" fill="#FFBE7F" stroke="#FFBE7F" stroke-width=".3944"/>
	<path d="m217.54 12.783c-2.3978-7.8242-6.8988-19.14 3.6177-23.22 9.8013 3.7439 6.5202 14.807 7.6139 22.884-2.8184 0.0841-8.4132 0.2523-11.232 0.3365z" fill="#FFBE89" stroke="#FFBE89" stroke-width=".3944"/>
	<path d="m445.11-7.1984c6.8146 8.5393 8.5393 19.897 6.6884 30.498l-4.4169-1.8509c-2.1874-0.5889-6.4781-1.8088-8.6655-2.4398-0.7572-5.9733-1.4723-11.947-2.1874-17.92 2.8604-2.7764 5.7209-5.5106 8.5814-8.287z" fill="#FFC894" stroke="#FFC894" stroke-width=".3944"/>
	<path d="m390.89 1.8458c14.134-6.0995 17.794 15.901 10.558 23.431-11.82 2.6922-16.49-15.859-10.558-23.431z" fill="#FFC47F" stroke="#FFC47F" stroke-width=".3944"/>
	<path d="m114.1 24.309c-3.7439-20.738 26.712-28.815 37.607-13.587 4.9217 5.7209 3.2391 13.419 3.197 20.276-6.6043-2.8184-8.918-9.7172-12.073-15.522-11.147-5.4264-20.486 2.0192-28.731 8.8339z" fill="#ED6764" stroke="#ED6764" stroke-width=".3944"/>
	<path d="m319.51 7.8191c2.9026-0.7993 8.7076-2.4398 11.61-3.2391 3.2811 7.8242 10.474 21.79-0.1262 26.88-10.643-2.5239-10.6-14.933-11.484-23.641z" fill="#FFBB81" stroke="#FFBB81" stroke-width=".3944"/>
	<path d="m-121.64 40.588c-4.9217-10.474-3.6177-29.572 12.115-25.029 0.4627 8.8338-0.2103 17.71-3.1549 26.123-2.2295-0.2523-6.6885-0.7992-8.96-1.0936z" fill="#E1A26C" stroke="#E1A26C" stroke-width=".3944"/>
	<path d="m128.86 42.523c-2.7764-8.96-6.2678-21.243 3.7859-27.174 12.704 2.8605 9.2545 17.121 6.9829 26.249-2.6922 0.2524-8.0766 0.7151-10.769 0.9255z" fill="#FFC07C" stroke="#FFC07C" stroke-width=".3944"/>
	<path d="m169.92 43.827c-0.9675-13.167 14.807-21.622 26.586-21.327 17.247-1.304 30.708 17.373 25.029 33.484-2.1033-1.4723-6.3099-4.3748-8.3711-5.8051-3.828-5.763-5.2582-14.639-13.124-16.195-11.063-2.9868-20.612 5.6367-30.119 9.8433z" fill="#F97577" stroke="#F97577" stroke-width=".3944"/>
	<path d="m447.39 21.448l4.4169 1.8509c3.1549 16.237 3.0708 32.895 5.7209 49.217-4.8376 10.979-3.7018 22.968-1.7668 34.452-0.2104 26.712-0.7993 54.054-7.7401 79.925 0.2524-6.0154 0.5048-11.989 0.7151-18.004 2.9446-33.61 0.9255-67.389 1.5985-101.08 0.4208-15.48-0.5047-31.044-2.9445-46.356z" fill="#883415" stroke="#883415" stroke-width=".3944"/>
	<path d="m-212.16 53.755c-12.241-8.8759-1.7247-31.129 13.124-28.058 1.4303 10.979-3.197 22.547-13.124 28.058z" fill="#DDA071" stroke="#DDA071" stroke-width=".3944"/>
	<path d="m291.87 50.6c-12.872 1.304-27.132-20.234-12.157-27.048 11.61 3.6177 12.956 16.784 12.157 27.048z" fill="#FFC17D" stroke="#FFC17D" stroke-width=".3944"/>
	<path d="m184.18 63.767c0.7151-8.3711-4.2907-22.127 7.7401-23.557 7.7401 2.6081 5.5527 11.778 5.9313 18.088-0.9254 2.2716-2.7343 6.8146-3.6597 9.0862-3.3654-1.1779-6.6885-2.3557-10.012-3.6177z" fill="#FFC984" stroke="#FFC984" stroke-width=".3944"/>
	<path d="m420.46 40.294c14.134-0.5469 12.704 18.93 8.1608 27.763-11.274-2.6922-18.467-20.444-8.1608-27.763z" fill="#FFC17C" stroke="#FFC17C" stroke-width=".3944"/>
	<path d="m-168.16 59.434c-2.0191-8.329 7.698-20.065 15.733-13.082 3.2811 10.138 1.0937 21.033-4.1224 30.035-6.7726-3.239-13.251-8.5814-11.61-16.952z" fill="#D8A365" stroke="#D8A365" stroke-width=".3944"/>
	<path d="m-13.95 64.734c-15.775 9.9696-17.878-14.344-9.3386-22.547 2.566 0.673 7.7401 2.0612 10.306 2.7343-0.3365 6.6044-0.7151 13.209-0.9675 19.813z" fill="#FFC085" stroke="#FFC085" stroke-width=".3944"/>
	<path d="m-234.71 110.08c0.3365-21.243-1.2199-42.991 4.9217-63.604 3.0708 23.978-1.935 47.913 0.0421 71.932 0.7572 10.39 0.2524 20.865-0.5889 31.255l-1.8509-5.4686c-3.4073-10.979-1.8509-22.758-2.524-34.115z" fill="#90393B" stroke="#90393B" stroke-width=".3944"/>
	<path d="m83.853 57.162c11.905-2.5239 26.459-1.8088 34.957 8.0766 8.329 8.7918 8.7917 22.042 5.1741 33.064-7.6139-4.0383-8.5393-13.04-11.652-20.107-4.3748-7.1932-12.409-13.882-21.369-10.558-8.7076 1.7668-12.914 10.18-18.341 16.237-1.5985 1.4723-4.7534 4.3328-6.3519 5.8051-2.0193-13.251 4.5851-27.721 17.583-32.517z" fill="#F37673" stroke="#F37673" stroke-width=".3944"/>
	<path d="m40.526 92.582c-14.218-5.5106-15.606-36.429 3.786-32.391 7.6139 9.0021 2.5239 23.599-3.786 32.391z" fill="#FFC87F" stroke="#FFC87F" stroke-width=".3944"/>
	<path d="m224.82 86.398c10.601-24.398 49.554-28.647 65.875-7.656 10.096 10.769 14.849 29.782 2.9867 41.098-11.694 10.643-7.6981 28.058 0.5469 39.542 14.05 2.9026 24.819-5.763 36.176-12.283l3.9962 1.8088c-0.0841 2.2295-0.2103 6.6885-0.2944 8.96-8.8759 23.641 15.817 42.486 12.746 66.001 0 17.499-14.092 29.698-27.09 39.121-13.209 8.6234-17.752 25.66-16.111 40.636 2.3978 14.344 24.104 14.849 31.465 4.5431 5.1741-12.536 4.3748-27.974 15.48-37.523 2.1454 1.8929 6.4781 5.6789 8.6235 7.5718-0.4207 9.0021 0.7571 18.467-2.2716 27.132-6.394 9.7593-15.312 17.499-22.968 26.249-14.344 6.3519-30.119-8.918-43.075-0.7572-8.5814 14.639-2.6501 33.232-5.2582 49.427-5.2161 8.918-11.442 19.224-22.421 21.369-8.7917 0.7151-22.463 4.0804-24.861-7.5718 5.6368-0.0421 11.274-0.0421 16.952 0.0421 6.8146-7.6139 14.723-14.891 18.467-24.608 4.5851-15.354-8.1187-31.802-23.052-34.368-19.392-1.6826-16.7 31.718-36.303 25.66-7.6139-7.656 2.4398-15.733 4.3328-23.683 2.1033-10.306 0.3365-23.767-10.222-28.773-6.9829-4.7534-15.27-0.1262-22 2.7343-8.5393 4.5431-18.888 10.979-19.182 21.874-1.2199 16.742 15.27 26.417 20.486 41.056-21.117 4.1645-36.639-13.082-47.45-28.647-2.1033-20.023 15.901-35.083 15.018-54.433-4.7113-21.538-37.733-17.626-45.515-0.5048-0.631 12.914 6.2678 24.777 9.2124 37.144l1.2199 4.2907c-5.3003-0.5889-12.325 1.3882-15.606-4.2486-10.853-12.241-14.05-29.11-12.452-44.968 5.5106-10.685 14.134-19.266 20.065-29.656-0.1683-6.2678-1.1358-12.452-1.8509-18.677-0.2524-2.4398-0.7572-7.3195-1.0096-9.8013 6.4361 0.8413 12.872 2.3136 19.392 1.7668 15.775-8.7497 23.557-31.297 14.555-47.282-8.6655-10.138-26.628-11.863-36.008-1.7668-7.7401 7.4456-7.5718 19.014-9.8855 28.815-2.2295-0.5048-6.6884-1.5564-8.9179-2.0612-5.8051-18.93 6.0575-36.345 22.589-44.716 17.92-3.786 33.526 8.4132 50.942 8.5814 21.58-5.8471 22.169-49.89-4.0804-48.965-11.274-1.0937-14.849 11.736-20.528 18.846-2.6922 8.7076-15.396 5.5527-16.195-2.4819-9.1703-28.268 23.094-53.508 49.427-50.731 13.419 2.7764 20.402 16.027 31.339 22.968 7.4036 2.4398 16.153-0.7572 22.8 3.828 9.8855 9.4227 18.299 25.955 34.536 22.884 21.117-1.5144 26.544-32.012 12.199-44.926-11.988-14.092-31.591-3.4073-46.819-2.8604m-27.174 46.314c-10.643 9.5069-11.274 27.343-5.0058 39.374 12.199 13.335 33.821 0.7572 34.115-15.648 4.5431-16.195-13.84-34.957-29.11-23.725m46.188 38.532c-15.102 6.352-13.587 26.081-12.872 39.542 0.7993 14.05 18.972 25.744 30.498 14.933 10.811-14.976 11.736-36.934 2.1033-52.666-5.2584-4.4169-13.545-3.6597-19.729-1.8089m54.812 7.9926c-13.377 3.9542-15.186 20.276-15.48 32.054 0.7993 13.082 14.176 22.253 26.544 17.121 10.222-11.568 12.788-29.698 4.8376-43.16-3.1549-5.5527-9.9696-7.5718-15.901-6.0154m-131.58 82.028l-0.2945-3.786c2.0191 0.7993 6.0575 2.3557 8.1187 3.1129 8.96 5.3003 17.037-5.3424 20.065-12.746 7.5719-13.798-3.2811-36.134-20.192-34.031-21.958 2.2295-26.712 37.354-7.698 47.45m39.458 8.3711c-1.8929 11.568 2.1033 22.758 9.1703 31.844 7.9925 0.042 18.593 3.2811 23.725-5.09 6.5202-12.451 4.8376-29.404-4.459-40.047-9.7592-11.021-28.394 0.3786-28.436 13.293m58.219-14.807c-18.593 9.7172-19.35 51.446 7.4036 49.68 16.7-3.4073 17.92-25.113 14.681-38.532-1.7667-10.096-12.956-14.975-22.084-11.147z" fill="#E58285" stroke="#E58285" stroke-width="1.6589"/>
	<path d="m305.25 79.92c1.262-16.574 25.071-20.318 35.546-9.6331 8.1187 5.8051 7.9504 16.658 7.2353 25.576-3.6176-5.763-6.8146-11.82-11.105-17.079-7.2353-4.8375-16.364-0.9675-24.272-0.2103-1.851 0.3365-5.5527 1.0095-7.4036 1.3461z" fill="#EE5A5C" stroke="#EE5A5C" stroke-width=".3944"/>
	<path d="m365.57 64.692c16.91-5.8892 17.205 20.486 4.6693 24.903-2.3977-8.1186-4.0804-16.448-4.6693-24.903z" fill="#FFBD83" stroke="#FFBD83" stroke-width=".3944"/>
	<path d="m72.622 83.874c5.4265-6.0575 9.6331-14.471 18.341-16.237 8.96-3.3232 16.995 3.3652 21.369 10.558-8.0346 3.4494-9.6331 12.283-12.662 19.476-0.0841-8.2028 3.2811-22.421-8.7076-23.178-6.4361 4.2486-7.1091 12.115-7.8242 19.056-3.4915-3.239-7.025-6.436-10.516-9.6751z" fill="#AB2C16" stroke="#AB2C16" stroke-width=".3944"/>
	<path d="m-77.343 107.26c-12.536-6.3099-9.7593-30.203 6.1837-29.068 0.631 9.6752 5.9733 24.524-6.1837 29.068z" fill="#FFC47D" stroke="#FFC47D" stroke-width=".3944"/>
	<path d="m83.138 93.549c0.7151-6.9409 1.3882-14.807 7.8242-19.056 11.989 0.7572 8.6235 14.975 8.7076 23.178-1.3461 2.2295-4.1224 6.6043-5.4685 8.7917-5.8472-2.2295-10.853-6.0996-11.063-12.914z" fill="#FFC878" stroke="#FFC878" stroke-width=".3944"/>
	<path d="m312.65 78.574c7.9084-0.7572 17.037-4.6272 24.272 0.2103 4.2907 5.2582 7.4877 11.316 11.105 17.079-3.2391 3.4494-6.6884 6.7305-10.474 9.5489 1.0096-9.3386-3.2811-16.28-12.283-19.098-4.2906-2.4398-8.4972-5.0058-12.62-7.74z" fill="#AD1F13" stroke="#AD1F13" stroke-width=".3944"/>
	<path d="m325.27 86.314c9.0021 2.8184 13.293 9.7593 12.283 19.098-2.1874 3.828-3.9541 9.591-9.4648 7.1091-8.4552-6.2257-4.501-17.752-2.8184-26.207z" fill="#FFC084" stroke="#FFC084" stroke-width=".3944"/>
	<path d="m243.87 121.86c-3.197-10.516-3.7859-29.32 12.073-25.702 1.7247 10.432 4.3748 29.025-12.073 25.702z" fill="#FFC282" stroke="#FFC282" stroke-width=".3944"/>
	<path d="m-202.61 130.36c-3.6597-9.5069-4.6272-24.608 7.6139-27.679 10.096 5.0058 4.1225 19.014 2.7763 27.595-2.5659 0.0421-7.7821 0.0421-10.39 0.0841z" fill="#E0A169" stroke="#E0A169" stroke-width=".3944"/>
	<path d="m403.81 102.85c18.467-4.4169 19.014 25.87 6.4781 31.339-9.5489-6.6464-6.2678-21.201-6.4781-31.339z" fill="#FFC382" stroke="#FFC382" stroke-width=".3944"/>
	<path d="m455.76 106.97l3.4073-4.459c1.8929 32.18-7.8663 63.73-4.7534 95.91 1.7247 9.8434-5.0479 17.541-10.264 24.945-1.9351-12.409-3.4915-25.366 3.8701-36.471 6.9408-25.87 7.5297-53.213 7.74-79.925z" fill="#FDC79B" stroke="#FDC79B" stroke-width=".3944"/>
	<path d="m-134.64 124.64c4.5852-0.4627 9.2124-0.8834 13.798-1.3461 3.7018 10.096 0.7992 20.15-3.197 29.614-15.817-0.2103-11.358-17.878-10.601-28.268z" fill="#DAA26A" stroke="#DAA26A" stroke-width=".3944"/>
	<path d="m0.8996 129.09c3.828 0.1262 7.656 0.2103 11.484 0.3365 1.0937 8.8338 0.7572 17.794-1.8509 26.375-2.8184-0.1682-8.4132-0.5048-11.232-0.673-3.2811-8.6655-2.0612-17.668 1.5986-26.039z" fill="#FFC486" stroke="#FFC486" stroke-width=".3944"/>
	<path d="m37.581 188.62c-16.237-18.972-6.0995-53.592 19.392-57.882 9.6751-3.2812 23.431 4.0804 15.691 15.186l-4.3748 0.2944c-9.9696 0.2103-21.79 1.8089-26.081 12.367-6.9409 11.652 2.5239 23.767 8.96 33.148-4.6273 1.7247-10.937 2.0612-13.587-3.1129z" fill="#F47679" stroke="#F47679" stroke-width=".3944"/>
	<path d="m157.89 164.01c-12.62-7.2774-13.756-26.417 0.1683-32.727 8.7917 9.3386 7.6559 23.136-0.1683 32.727z" fill="#FFC17B" stroke="#FFC17B" stroke-width=".3944"/>
	<path d="m301.92 131.53c11.863-0.7151 9.9696 19.645 3.5756 25.45-14.26 2.6921-14.765-21.79-3.5756-25.45z" fill="#FCAC7A" stroke="#FCAC7A" stroke-width=".3944"/>
	<path d="m198.9 144.7c16.069-2.9446 15.27 20.318 5.5527 27.132-6.7305-2.2295-7.4457-9.9696-10.39-15.27 1.2199-2.9868 3.6177-8.876 4.8376-11.863z" fill="#FFC67E" stroke="#FFC67E" stroke-width=".3944"/>
	<path d="m-239.64 166.08c-1.5985-11.232-1.7563-16.374 7.4561-21.885l1.8509 5.4686c2.0191 10.012 3.0708 20.107 4.0383 30.245-7.3614-1.7248-8.5918-7.0987-13.345-13.829z" fill="#EED298" stroke="#EED298" stroke-width=".3944"/>
	<path d="m-167.15 154.59c4.0804-0.2103 8.1187-0.3786 12.199-0.5889 1.0937 9.4648 0.7993 19.056-2.7343 28.016-15.733 0.2945-11.778-17.205-9.4648-27.427z" fill="#DFA269" stroke="#DFA269" stroke-width=".3944"/>
	<path d="m-48.444 163.76c6.1837-5.0479 11.442 3.4915 10.222 9.2966 1.7668 8.7076-2.8605 17.079-11.105 20.192-4.3748-8.8339-9.591-22.716 0.8834-29.488z" fill="#FFC17E" stroke="#FFC17E" stroke-width=".3944"/>
	<path d="m58.53 189c-5.1741-10.558-3.5335-31.213 12.788-25.786 0.4627 8.7917 0.0421 17.626-3.1549 25.955-2.3978-0.0421-7.2354-0.1262-9.6331-0.1683z" fill="#FFC482" stroke="#FFC482" stroke-width=".3944"/>
	<path d="m347.27 194.04c-13.882-9.0862-5.9734-34.704 11.82-28.815-0.8834 6.7726-1.0938 13.671-2.6922 20.318-2.2716 2.1454-6.8568 6.3519-9.1283 8.4973z" fill="#FFC180" stroke="#FFC180" stroke-width=".3944"/>
	<path d="m416.93 171.12c2.1033-0.0841 6.2678-0.2944 8.329-0.3786 6.3519 9.5069 6.3519 29.993-8.2449 30.918-1.2619-10.138-2.1453-20.444-0.0841-30.54z" fill="#FFC483" stroke="#FFC483" stroke-width=".3944"/>
	<path d="m382.48 176.88c4.6693-2.3978 9.5069-3.0287 14.513-1.893 4.3328 8.2029 0.7151 17.499-0.4207 26.039-2.3136 0.2945-6.9829 0.8834-9.2965 1.1778-1.4723-7.6139-3.0708-15.186-4.8375-22.716l0.042-2.608z" fill="#FFC17B" stroke="#FFC17B" stroke-width=".3944"/>
	<path d="m113.22 194.13c0.5468-7.5719 9.0862-7.067 14.555-8.2449-0.7993 9.1703 3.1549 21.285-3.9962 28.436-12.115 3.8701-11.778-12.746-10.559-20.192z" fill="#FFC982" stroke="#FFC982" stroke-width=".3944"/>
	<path d="m251.44 223.2c-15.312-2.9446-20.949-29.951-5.0058-35.966 15.312 5.2161 10.769 24.945 5.0058 35.966z" fill="#FFCA78" stroke="#FFCA78" stroke-width=".3944"/>
	<path d="m8.1349 247.51c-27.721 3.828-33.442-44.464-7.8663-50.731 0.0421 9.0441-0.9255 18.004-1.8088 27.006 0.5468 8.7917 4.3327 16.868 9.6751 23.725z" fill="#EA7777" stroke="#EA7777" stroke-width=".3944"/>
	<path d="m294.14 203.89c1.893-6.5622 9.2545-3.9121 14.26-4.5851 1.3882 9.6751 0.8833 20.36-6.8146 27.469-13.756 2.9866-11.19-15.228-7.4457-22.884z" fill="#FFC57D" stroke="#FFC57D" stroke-width=".3944"/>
	<path d="m-206.7 203.97c5.5106-2.2716 11.61 0.3365 10.811 7.025-0.1683 6.6464 2.9446 19.897-6.8988 20.318-9.633-3.8281-10.516-20.402-3.9121-27.343z" fill="#D8A165" stroke="#D8A165" stroke-width=".3944"/>
	<path d="m-103.47 213.39c4.9217 0.0421 9.8434 0.0842 14.765 0.1683-0.0841 10.558 0.1262 22.042-9.5489 28.857-2.5239-4.2487-5.0479-8.4132-7.4877-12.662 0.715-5.4686 1.4722-10.937 2.2715-16.364z" fill="#FFC17A" stroke="#FFC17A" stroke-width=".3944"/>
	<path d="m9.6913 222.56c4.2907-0.2103 11.947-5.3844 14.218 0.9255 4.1225 9.8854 0.0421 21.748-9.633 26.628-2.4398-9.0021-3.9121-18.257-4.5852-27.553z" fill="#FFC480" stroke="#FFC480" stroke-width=".3944"/>
	<path d="m420.59 218.36c4.9638 0.7992 9.8855 1.6406 14.849 2.4819-0.7571 10.685-3.8701 24.819-17.668 23.599 0-5.9733 0.0841-11.947 0.1682-17.92 0.6731-2.0612 1.9772-6.1416 2.6502-8.1607z" fill="#FFBC80" stroke="#FFBC80" stroke-width=".3944"/>
	<path d="m-1.5402 223.78c2.1033 2.3557 4.2066 4.7955 6.3519 7.1933l4.8796-8.4132c0.6731 9.2965 2.1454 18.551 4.5852 27.553-1.5144-0.631-4.5852-1.935-6.1416-2.6081-5.3424-6.8566-9.1283-14.933-9.6751-23.725z" fill="#B54024" stroke="#B54024" stroke-width=".3944"/>
	<path d="m359.01 260.59c-10.054-10.727-6.6884-29.951 8.9179-32.727 3.1129 9.0441 3.2811 18.677-1.3461 27.259-1.893 1.3882-5.6789 4.1225-7.5718 5.4686z" fill="#FFCB7F" stroke="#FFCB7F" stroke-width=".3944"/>
	<path d="m167.02 232.2c4.9217 0.7151 9.8013 1.3882 14.723 2.1453-1.0517 9.0442-3.7859 17.71-6.8567 26.249-2.0612-0.7572-6.0995-2.3136-8.1187-3.1129-0.9675-8.4132-0.2944-16.868 0.2524-25.282z" fill="#FFC081" stroke="#FFC081" stroke-width=".3944"/>
	<path d="m49.317 257.14c0.1262-10.811 8.2028-19.561 17.499-23.978 0.1683 1.3882 0.5048 4.0804 0.673 5.4686-4.2486 13.924-4.1224 28.352 3.9542 40.93-12.914 2.9866-23.809-10.18-22.127-22.421z" fill="#EC7879" stroke="#EC7879" stroke-width=".3944"/>
	<path d="m-168.16 268.46c-6.0575-9.7592-7.7401-23.767 2.6501-31.339 9.8434 7.0671 7.4877 19.476 5.5947 29.656-2.0611 0.4207-6.1836 1.262-8.2448 1.6826z" fill="#DFA36C" stroke="#DFA36C" stroke-width=".3944"/>
	<path d="m-130.26 246.04c3.7859 0.7572 7.5719 1.4723 11.4 2.2295 0 10.558 3.6176 24.314-9.1283 29.11-6.6884-9.4227-9.4227-21.327-2.2715-31.339z" fill="#DAA060" stroke="#DAA060" stroke-width=".3944"/>
	<path d="m87.008 274.89c-19.561 2.0192-23.136-35.335-0.9675-29.993l1.7247 3.3653c0.3786 8.8759-0.0841 17.752-0.7572 26.628z" fill="#FFC57A" stroke="#FFC57A" stroke-width=".3944"/>
	<path d="m-41.082 251.76c4.1645-1.5985 8.4973-2.4819 13.082-2.6081 0.5048 8.9179 3.1549 31.087-11.905 25.66-3.2391-7.109-4.417-15.732-1.1779-23.052z" fill="#FFC681" stroke="#FFC681" stroke-width=".3944"/>
	<path d="m390.77 278.3c1.4723-9.2124-3.1129-22.253 7.2773-27.343 12.452 0.9254 9.1704 12.578 8.0346 20.907-5.0478 2.3136-10.096 4.6272-15.312 6.4361z" fill="#FFC47D" stroke="#FFC47D" stroke-width=".3944"/>
	<path d="m-202.32 260.17c7.9504 9.4228 14.302 20.192 14.386 32.98-16.952-1.0096-21.201-20.107-14.386-32.98z" fill="#D8AC7C" stroke="#D8AC7C" stroke-width=".3944"/>
	<path d="m262.09 268.58c3.7438 0 7.4877-0.0421 11.232-0.0421 1.9771 10.096 0.673 26.838-12.956 26.207-2.5239-8.8337-1.1777-17.668 1.7248-26.165z" fill="#FFC67E" stroke="#FFC67E" stroke-width=".3944"/>
	<path d="m422.57 269.47c4.7535-0.3365 9.549-0.6731 14.386-1.0096-0.9254 17.794-5.3844 37.06-15.396 51.993 2.0192-7.4877 4.0804-14.975 6.1837-22.421-1.8509-1.8929-5.5948-5.6788-7.4456-7.5298 0.7572-7.0249 1.4723-14.05 2.2715-21.033z" fill="#FFC980" stroke="#FFC980" stroke-width=".3944"/>
	<path d="m218.63 271.91c17.331-6.7306 12.409 20.57 3.0708 26.544-11.947-1.1779-10.937-21.285-3.0708-26.544z" fill="#FFCA81" stroke="#FFCA81" stroke-width=".3944"/>
	<path d="m317.7 312.92c-14.513-4.4169-8.6656-30.077 6.6043-28.941 1.8089 9.8855 3.113 22.589-6.6043 28.941z" fill="#FFC482" stroke="#FFC482" stroke-width=".3944"/>
	<path d="m-11.173 324.53c-5.0479-14.597 1.5564-29.656 9.5069-41.813 6.4781 6.9409 0.5889 16.868 1.1778 25.113-2.1874 10.138 5.5527 18.046 9.9696 26.291-7.5719-1.0937-16.195-2.5239-20.654-9.591z" fill="#F06A69" stroke="#F06A69" stroke-width=".3944"/>
	<path d="m-80.414 303.67c3.9542-4.1225 8.7076-7.2774 14.092-9.2124 1.3882 10.264 4.7534 23.304-7.4456 28.478-1.8088-6.5623-4.1645-12.956-6.6464-19.266z" fill="#FFBD83" stroke="#FFBD83" stroke-width=".3944"/>
	<path d="m122.51 297.48c5.09-0.8413 10.18-1.6406 15.312-2.3978 2.3136 10.222 1.3461 20.738-4.7113 29.572-11.316-5.0057-10.727-16.784-10.601-27.174z" fill="#FFC87D" stroke="#FFC87D" stroke-width=".3944"/>
	<path d="m8.1769 305.18c2.5239-0.0421 7.5298-0.1683 10.012-0.2104-0.3786 7.2774 2.7343 15.901-2.524 22.042-10.138-1.8508-7.9504-14.386-7.4877-21.832z" fill="#FFC07F" stroke="#FFC07F" stroke-width=".3944"/>
	<path d="m61.558 355.96c-19.434-7.9504-20.318-41.603-0.7151-49.764-0.9675 11.148-5.3424 23.936 1.935 33.947 3.5335 6.8988 11.568 8.7497 17.878 12.115-3.4494 7.1511-12.998 5.1319-19.098 3.7017z" fill="#F16C6A" stroke="#F16C6A" stroke-width=".3944"/>
	<path d="m-178.47 311.7c4.9217 1.6826 9.8855 3.2391 14.933 4.459 2.9446 7.7821 6.4781 15.312 10.601 22.547-1.4302 2.0612-4.3748 6.1416-5.8472 8.2028-8.5814-10.474-14.429-22.842-19.687-35.209z" fill="#872C23" stroke="#872C23" stroke-width=".3944"/>
	<path d="m-163.54 316.16c2.3977-0.9254 7.1932-2.7764 9.591-3.7018 10.054 5.6789 8.8759 19.182 1.0096 26.249-4.1224-7.2354-7.656-14.765-10.601-22.547z" fill="#E29F6D" stroke="#E29F6D" stroke-width=".3944"/>
	<path d="m360.69 312.88c2.566 0.0421 7.6981 0.1682 10.264 0.2524-0.2524 7.6559-1.3882 15.312-4.0383 22.547-2.4819 0-7.4457-0.0841-9.9276-0.1262 0.6731-7.3195-3.5335-17.668 3.7018-22.674z" fill="#FFC384" stroke="#FFC384" stroke-width=".3944"/>
	<path d="m-118.19 322.13c12.872-6.352 11.147 14.05 9.5069 21.454-11.316 6.983-18.004-16.279-9.5069-21.454z" fill="#DF9F6F" stroke="#DF9F6F" stroke-width=".3944"/>
	<path d="m81.498 344.6c-14.807 4.7114-15.312-22.042-3.0287-25.155 4.2907 7.2353 9.3386 17.668 3.0287 25.155z" fill="#FFC183" stroke="#FFC183" stroke-width=".3944"/>
	<path d="m177.32 330.97c4.0383-0.7992 8.1608-1.1357 12.367-0.9675 1.4302 9.2965 2.6922 18.93-1.5985 27.721-9.0442-5.3844-15.775-16.279-10.769-26.754z" fill="#FFC67C" stroke="#FFC67C" stroke-width=".3944"/>
	<path d="m-26.822 367.65c-13.209-3.9542-13.209-26.67 2.6501-25.87 3.3233 7.9925 8.7918 21.916-2.6501 25.87z" fill="#FFBF7D" stroke="#FFBF7D" stroke-width=".3944"/>
	<path d="m294.22 365.25c-7.1512-10.474 1.7668-26.88 15.144-23.599 0.2524 9.3387-2.0612 26.333-15.144 23.599z" fill="#FFC685" stroke="#FFC685" stroke-width=".3944"/>
	<path d="m374.7 372.4c-1.8929-8.3711-2.0191-27.974 11.274-23.641 6.6464 7.1512 0.3786 17.205-2.1033 24.861-2.2716-0.2943-6.8567-0.8833-9.1704-1.2198z" fill="#FFC383" stroke="#FFC383" stroke-width=".3944"/>
	<path d="m237.1 353.1c3.828-1.3882 7.8242-2.0612 12.031-1.9771 0.3786 7.3615 0.4207 14.723 0.2103 22.084-2.7343 0.4206-8.287 1.2199-11.021 1.6406-2.4819-6.9829-4.3748-14.639-1.2199-21.748z" fill="#FFC283" stroke="#FFC283" stroke-width=".3944"/>
	<path d="m-78.184 361.42c4.8376-0.2945 9.7172-0.5469 14.597-0.7993 1.0516 8.2028 1.4302 16.49 1.1778 24.819-2.3557 0.3786-7.0671 1.1778-9.4227 1.5564-2.4398-3.2811-4.8796-6.5622-7.2774-9.8434 0.2945-5.2581 0.589-10.474 0.9255-15.732z" fill="#DEA267" stroke="#DEA267" stroke-width=".3944"/>
	<path d="m83.18 363.44c2.9025-0.1262 8.7076-0.4627 11.61-0.631-0.5469 3.1549-1.6826 9.4648-2.2716 12.62-0.7572 7.2774-3.1549 15.354 0.9255 22.084 4.2486 6.8146 12.662 8.9601 19.561 11.989-8.1187 11.484-22.926 2.7343-30.498-4.7113-11.147-11.694-6.8567-29.025 0.673-41.351z" fill="#F27879" stroke="#F27879" stroke-width=".3944"/>
	<path d="m-106.49 396.51c-10.558-3.9542-17.205-21.748-5.0058-27.469 13.335 0.0842 11.863 19.981 5.0058 27.469z" fill="#DFA567" stroke="#DFA567" stroke-width=".3944"/>
	<path d="m36.445 399.96c-13.251-4.5851-16.826-29.656 1.5144-27.553 3.7018 9.2966 4.6693 19.014-1.5144 27.553z" fill="#FFC285" stroke="#FFC285" stroke-width=".3944"/>
	<path d="m108.55 376.48c13.756-4.5011 12.157 14.891 10.306 23.094-11.82 9.3386-21.285-17.289-10.306-23.094z" fill="#FFC97C" stroke="#FFC97C" stroke-width=".3944"/>
	<path d="m335.87 376.74c2.8184-0.1682 8.4973-0.4627 11.358-0.5889 2.4819 8.3711-0.6731 16.658-3.1549 24.608-15.775 1.9771-12.536-14.891-8.2029-24.02z" fill="#FFBC7F" stroke="#FFBC7F" stroke-width=".3944"/>
	<path d="m-141.75 378.21c9.0442 11.82 16.742 24.608 22.926 38.154-6.6043-1.5564-13.124-3.5756-19.561-5.6368-4.6273-10.306-5.1321-21.538-3.3653-32.517z" fill="#CD9E78" stroke="#CD9E78" stroke-width=".3944"/>
	<path d="m132.06 391.84c16.616-6.3519 7.9504 15.102 10.811 23.893 2.9446 13.082 22.211 9.633 24.735 22.127-18.004 3.3653-37.943-7.067-41.561-25.828 1.3881-6.8988 3.4494-13.671 6.0154-20.192z" fill="#F37478" stroke="#F37478" stroke-width=".3944"/>
	<path d="m152.42 411.4c3.0287-7.1512 7.3194-18.383 17.373-13.714 7.5719 8.7918 0.5048 22.042-6.9408 28.731-3.5336-4.9637-6.983-9.9695-10.432-15.017z" fill="#FFCA85" stroke="#FFCA85" stroke-width=".3944"/>
	<path d="m-107.63 416.49c2.6501-1.5144 7.9504-4.501 10.601-6.0154 5.4685 6.4361 9.2124 13.966 11.316 22.127-3.2811 0.1683-9.8013 0.5048-13.082 0.7151-2.9867-5.5947-5.9313-11.232-8.8338-16.826z" fill="#E0A169" stroke="#E0A169" stroke-width=".3944"/>
	<path d="m-12.562 416.78c5.0058-1.2199 9.9696-2.6502 14.933-3.9962-0.1262 6.8146-0.2945 13.629-0.4207 20.486-2.9446-0.1683-8.8338-0.5048-11.778-0.6731-1.1358-5.2162-1.935-10.516-2.7343-15.817z" fill="#FFBF8C" stroke="#FFBF8C" stroke-width=".3944"/>
	<path d="m82.213 438.95c-17.121 0.8414-13.503-29.951 2.6922-24.566 7.1933 7.3616-0.7571 16.616-2.6922 24.566z" fill="#FFC182" stroke="#FFC182" stroke-width=".3944"/>
	<path d="m210.81 415.18c2.6922 0.042 8.0346 0.0841 10.685 0.0841-0.1262 7.2353 1.0937 14.975-2.7343 21.58-6.3099 4.7114-10.054-3.8701-14.05-7.2353 2.0613-4.7954 4.0805-9.633 6.0996-14.428z" fill="#FFBE83" stroke="#FFBE83" stroke-width=".3944"/>
	<g fill="#BF090D" stroke="#BF090D">
		<path d="m261.46 225.72c10.811-14.975 11.736-36.934 2.1033-52.666-5.2582-4.4169-13.545-3.6597-19.729-1.8088-15.102 6.352-13.587 26.081-12.872 39.542 0.799 14.05 18.972 25.744 30.498 14.933zm-15.018-38.49c15.312 5.2164 10.769 24.945 5.0056 35.966-15.312-2.9446-20.949-29.951-5.0056-35.966z" stroke-width="1.6589"/>
		<path d="m314.54 185.25c-3.1549-5.5527-9.9691-7.5718-15.9-6.0154-13.377 3.9542-15.186 20.276-15.48 32.054 0.7995 13.082 14.177 22.253 26.544 17.121 10.222-11.568 12.788-29.698 4.8372-43.16zm-12.956 41.519c-13.756 2.9868-11.19-15.228-7.4457-22.884 1.8928-6.5623 9.2543-3.9121 14.26-4.585 1.3884 9.6751 0.8831 20.36-6.8142 27.469z" stroke-width="1.6589"/>
		<path d="m174.76 213.82c-21.958 2.2296-26.712 37.354-7.6979 47.45l-0.2942-3.786c-0.9674-8.4131-0.2948-16.868 0.2521-25.282 4.9219 0.7153 9.8011 1.3882 14.723 2.1454-1.0517 9.0443-3.786 17.71-6.8568 26.249 8.96 5.3004 17.037-5.3422 20.066-12.746 7.5722-13.798-3.2811-36.135-20.192-34.031z" stroke-width=".3944"/>
		<path d="m206.52 269.64c-1.8927 11.568 2.1033 22.758 9.1701 31.844 7.9931 0.0421 18.593 3.281 23.726-5.0901 6.5199-12.451 4.8371-29.404-4.4592-40.046-9.7597-11.022-28.394 0.3785-28.437 13.293zm15.186 28.815c-11.946-1.1777-10.937-21.285-3.0707-26.544 17.331-6.7304 12.41 20.57 3.0707 26.544z" stroke-width="1.6589"/>
		<path d="m264.74 254.83c-18.594 9.7172-19.351 51.447 7.4036 49.68 16.7-3.4073 17.92-25.113 14.681-38.532-1.7674-10.096-12.957-14.976-22.084-11.148zm-4.375 39.92c-2.5244-8.8337-1.1779-17.667 1.7243-26.165 3.7444 0 7.4879-0.0421 11.232-0.0421 1.9774 10.096 0.6732 26.838-12.956 26.207z" stroke-width="1.6589"/>
		<path d="m226.75 156.44c4.5429-16.196-13.84-34.957-29.11-23.725-10.643 9.5069-11.274 27.343-5.0061 39.374 12.199 13.335 33.821 0.7572 34.116-15.648zm-22.295 15.396c-6.7304-2.2296-7.4457-9.9696-10.39-15.27 1.2201-2.9868 3.6176-8.8758 4.8372-11.863 16.069-2.9446 15.27 20.318 5.5529 27.132z" stroke-width="1.6589"/>
		<path d="m450.33 67.805c0.4211-15.48-0.5042-31.045-2.9444-46.357-2.1875-0.589-6.4783-1.8088-8.6658-2.4399-0.7569-5.9733-1.4717-11.946-2.1875-17.92 2.8607-2.7762 5.7214-5.5106 8.5816-8.2868-5.9309-11.526-10.559-23.725-15.985-35.504l-1.3875-0.3787c-12.2-1.4722-24.104-7.9081-24.904-21.411-8.6232-15.649-21.832-28.773-37.607-37.144-3.9961-2.2715-8.0342-1.977-12.073 0.8835 0.4206 3.3652 1.2201 10.138 1.5985 13.545-14.555 1.5146-31.255-13.587-17.962-26.838-6.6462-5.7209-14.26-10.18-22.463-13.251-1.2195 1.6825-3.6597 5.0058-4.8798 6.6883-1.0516 1.4725-3.1549 4.375-4.2066 5.8051-10.432 2.2717-21.159-6.8986-13.208-17.037-18.552-11.316-41.604-8.3289-62.3-7.5718-28.226 1.8088-46.819 31.002-75.76 29.152-28.605-1.2619-58.514-3.5336-85.52 8.1187-21.075 6.5201-43.706 19.561-65.832 9.7172-6.5625 0.5469-13.503 0.2103-19.645 2.9447-20.402 14.807-35.377 34.872-48.081 56.284-21.201 19.897-29.278 48.208-39.163 74.583-9.2548 18.719-14.723 39.374-14.891 60.322-0.0421 15.312 6.2257 30.371 2.9865 45.683-5.0477 27.427-7.1094 58.724 10.432 82.365 0.7148-5.4688 1.4722-10.937 2.2717-16.364 4.9214 0.0421 9.8432 0.0842 14.765 0.1682-0.0842 10.558 0.1258 22.042-9.549 28.857-2.2717 3.6597-8.2031 7.1089-5.9314 12.115 4.964 13.84 10.432 27.595 12.998 42.192 3.576 2.3136 7.151 4.6692 10.769 6.9409 3.9539-4.1226 8.7074-7.2776 14.092-9.2124 1.388 10.264 4.7535 23.304-7.4457 28.478 8.4553 35.672 36.471 62.552 48.67 96.667 4.1645-0.9256 8.371-1.8509 12.536-2.8186 5.0061-1.2198 9.9701-2.6502 14.934-3.9961-0.1263 6.8146-0.2942 13.629-0.4206 20.486-2.9449-0.1684-8.8337-0.5048-11.778-0.6732 3.1549 2.482 6.352 4.9216 9.5906 7.3194-0.2942 3.4915-0.589 6.9831-0.8832 10.474 11.484 7.9084 16.658 20.697 21.496 33.19 4.8798 14.008 21.538 17.794 28.479 30.245 4.2487 7.1091 7.4036 14.765 10.811 22.295 4.9635 0.2945 9.8848 0.5469 14.849 1.0098 7.0673 1.6825 12.115 6.6884 15.522 12.872 1.388 5.7209 2.5238 11.484 3.7013 17.205 4.2487-0.1682 8.4974-0.3366 12.746-0.5048 6.5204 14.05 17.667 26.88 33.821 29.278 7.2773 2.0191 11.021-6.394 15.985-9.9695 4.5008-2.1875 9.2122-3.8702 13.881-5.5527-0.8832 7.1512-1.8512 14.302-2.9444 21.453 2.4817 0.589 7.4031 1.8088 9.8854 2.3978 17.415-2.8605 37.48-5.9312 47.114-22.8-1.5559-8.7918 2.8607-23.978 14.723-17.289 2.5244 4.9216 4.9219 9.9274 7.3615 14.933 11.61-7.3194 21.916-16.364 33.064-24.314 6.9825-4.459 14.512-8.0344 21.748-12.115 3.1128-2.3557 5.8472-5.0898 8.2026-8.2028 2.1875-3.7016 4.3329-7.4455 6.3941-11.232-3.4913-13.251 8.5816-20.276 19.855-21.538 26.502-41.519 52.246-84.889 67.558-131.67 8.2026-15.69 13.083-32.853 18.425-49.638 2.0196-7.4879 4.0807-14.975 6.1841-22.421-1.8512-1.893-5.5951-5.6788-7.4457-7.5297 0.7569-7.0251 1.4717-14.05 2.2712-21.033 4.7534-0.3366 9.549-0.6732 14.387-1.0098 1.3043-15.186 6.0993-29.867 7.1931-45.094-1.9349-12.41-3.4913-25.366 3.8702-36.471 0.2521-6.0154 0.5048-11.989 0.7153-18.004v-3e-4c2.9443-33.611 0.9252-67.389 1.5979-101.08zm-527.67 39.458c-12.536-6.3099-9.7596-30.203 6.1835-29.068 0.6311 9.6751 5.9731 24.524-6.1835 29.068zm497.81-66.969c14.134-0.5469 12.704 18.93 8.161 27.764-11.274-2.6923-18.467-20.444-8.161-27.764zm-19.013-15.018c-11.821 2.6923-16.49-15.859-10.559-23.43 14.134-6.0996 17.794 15.901 10.559 23.43zm1.5887 176.97c-2.0463 1.6668-4.2867 2.9683-6.679 3.9044 2.3923-0.9362 4.6322-2.2376 6.679-3.9044zm-15.765-0.0396c-1.4722-7.6136-3.0707-15.185-4.8372-22.715v-8e-4l0.0421-2.6081c4.6693-2.3978 9.5069-3.0289 14.512-1.893 4.3329 8.2029 0.7148 17.499-0.4211 26.039-2.3132 0.2946-6.9825 0.8836-9.2963 1.1778zm-6.6041-268.51c7.1515 4.6692 8.0768 13.461 8.6653 21.243-9.549 0.1682-20.402-6.5623-19.939-17.037 0.0842-5.9733 7.3194-8.4552 11.274-4.2066zm-10.433 155.9c-2.397-8.1187-4.0803-16.448-4.6687-24.903 16.91-5.8893 17.205 20.486 4.6687 24.903zm-2.3133 138.27c3.1128 9.044 3.2813 18.677-1.3459 27.258-1.8927 1.3883-5.6793 4.1226-7.572 5.4685-10.054-10.727-6.6884-29.951 8.9179-32.727zm-8.8337-62.636c-0.8832 6.7725-1.0938 13.671-2.6923 20.318-2.2712 2.1454-6.8568 6.352-9.1285 8.4974-13.881-9.0863-5.973-34.704 11.821-28.815zm-36.135-235.57c4.5855 1.0938 13.419-1.977 14.345 4.8798 1.598 6.5622 0.6306 13.335 0.5885 19.981-14.05 0.7572-15.522-14.302-14.934-24.861zm8.161 74.919c3.2813 7.8242 10.474 21.79-0.1258 26.88-10.643-2.5238-10.601-14.933-11.484-23.641 2.9028-0.7993 8.7074-2.44 11.61-3.2392zm9.6748 65.707c8.1194 5.8051 7.951 16.658 7.2357 25.576-3.2391 3.4494-6.6883 6.7304-10.474 9.549-2.1875 3.8279-3.9544 9.5909-9.4648 7.1091-8.4553-6.2259-4.5008-17.752-2.8186-26.207-4.2908-2.4396-8.4974-5.0058-12.62-7.74-1.8506 0.3363-5.5524 1.0095-7.4036 1.3461 1.2622-16.574 25.071-20.318 35.545-9.6331zm-38.869 61.248c11.863-0.715 9.9701 19.645 3.576 25.45-14.26 2.6922-14.765-21.79-3.576-25.45zm-10.053-80.935c-12.872 1.304-27.132-20.234-12.157-27.048 11.61 3.6177 12.956 16.784 12.157 27.048zm-27.258-170.74c11.694-3.9121 19.729 9.3385 22.084 18.888-8.4131 12.409-32.012-8.4553-22.084-18.888zm-17.836 65.959c14.891-6.7728 15.817 13.545 13.881 23.472-14.134 2.9026-14.26-13.84-13.881-23.472zm-25.618 43.748c9.8017 3.7439 6.5204 14.807 7.6142 22.884-2.8186 0.0842-8.4131 0.2524-11.232 0.3366-2.3975-7.8242-6.8988-19.14 3.6176-23.22zm-26.712-72.143c1.4722 6.8986 3.6176 13.84 3.2392 21.033-16.153 14.134-25.072-28.352-3.2392-21.033zm2.0612 105.08c17.247-1.304 30.708 17.373 25.029 33.484-2.1033-1.4725-6.3099-4.375-8.371-5.8051-3.8286-5.763-5.2582-14.639-13.125-16.196-11.063-2.9865-20.612 5.6369-30.119 9.8435-0.9675-13.167 14.807-21.622 26.585-21.327zm1.3459 35.798v3e-4c-0.9253 2.2715-2.7339 6.8146-3.6592 9.0861-3.3655-1.1777-6.6888-2.3557-10.012-3.6176 0.7153-8.371-4.2908-22.127 7.7405-23.557 7.74 2.608 5.5525 11.778 5.9309 18.088zm-19.319-3.5241c-0.6244-2.0969-1.1194-4.2579-1.7978-6.277 0.6788 2.019 1.1733 4.1801 1.7978 6.277zm-31.075-118.42c12.073-2.1454 9.7174 15.648 7.3615 22.968-13.419 12.452-20.318-19.056-7.3615-22.968zm4.2487 74.372c4.9219 5.7209 3.2392 13.419 3.197 20.276-6.6041-2.8186-8.9179-9.7172-12.073-15.522-11.148-5.4267-20.486 2.0191-28.731 8.8337-3.7439-20.738 26.712-28.815 37.607-13.587zm-12.073 30.876c-2.6923 0.2524-8.0768 0.7153-10.769 0.9256-2.7765-8.96-6.2678-21.243 3.7855-27.175 12.704 2.8604 9.2548 17.121 6.9831 26.249zm-51.278-119.55c3.365-2.6502 7.9084-2.0612 11.82-2.8604 1.178 8.8337 1.2622 17.794-1.2622 26.375-2.6918-0.5048-8.0763-1.4725-10.769-1.9772-0.3784-7.1512-1.7669-14.513 0.2106-21.538zm-6.0157 46.987c12.409 1.893 6.8988 18.046 6.6467 26.628-15.943 4.6693-18.635-21.243-6.6467-26.628zm1.5149 88.128c11.904-2.5238 26.459-1.8088 34.956 8.0766 8.3289 8.7919 8.7916 22.043 5.174 33.064-7.6136-4.0384-8.5395-13.041-11.652-20.108-8.0347 3.4494-9.6327 12.283-12.662 19.476-1.3459 2.2296-4.1224 6.6044-5.4682 8.7919-5.8472-2.2296-10.853-6.0996-11.064-12.914-3.4908-3.2391-7.0247-6.4362-10.516-9.6751-1.598 1.4722-4.7529 4.3326-6.3515 5.8051-2.0198-13.251 4.5849-27.722 17.584-32.517zm-12.536 106.05c0.4627 8.7916 0.0421 17.626-3.1549 25.954-2.3975-0.0421-7.2352-0.1261-9.6327-0.1682-5.174-10.558-3.5339-31.213 12.788-25.786zm-3.3228-8.96c2.7688 1.3644 4.908 3.1164 6.542 5.1504-1.634-2.034-3.7738-3.7861-6.542-5.1504zm-1.178 78.915c0.1684 1.388 0.5048 4.0803 0.6727 5.4685-4.2487 13.924-4.1224 28.352 3.9545 40.93-12.914 2.9868-23.809-10.18-22.127-22.421 0.1262-10.811 8.203-19.561 17.499-23.978zm11.652 86.277c4.2908 7.2352 9.3385 17.667 3.0286 25.155-14.807 4.7114-15.312-22.042-3.0286-25.155zm7.5715-74.541l1.7248 3.3652c0.3784 8.8761-0.0842 17.752-0.7569 26.628-19.561 2.0191-23.136-35.335-0.9679-29.993zm-41.729-184.71c7.6142 9.0019 2.5244 23.599-3.7855 32.39-14.218-5.5106-15.606-36.429 3.7855-32.39zm12.662 70.544c9.6753-3.281 23.431 4.0805 15.69 15.186l-4.3745 0.2942c-9.9696 0.2105-21.79 1.8091-26.081 12.367-6.9404 11.652 2.5244 23.767 8.9605 33.148-4.6276 1.7248-10.938 2.0612-13.587-3.1128-16.238-18.972-6.0998-53.592 19.392-57.882zm-46.23-162.63c12.031 2.7344 11.19 14.975 8.75 24.356-1.7669 5.3003-11.568 5.2582-12.662-0.2945-4.6698-8.0344-1.3464-17.289 3.9118-24.062zm-9.8433 160.99c3.8281 0.1261 7.6557 0.2103 11.484 0.3363 1.0938 8.834 0.7574 17.794-1.8506 26.375-2.8186-0.1682-8.4132-0.5048-11.232-0.6729-3.2813-8.6655-2.0613-17.668 1.5984-26.039zm-24.188-86.908c2.566 0.6732 7.74 2.0612 10.306 2.7344-0.3369 6.6044-0.7153 13.209-0.9674 19.813-15.775 9.9696-17.878-14.344-9.339-22.547zm-13.881-73.363c1.3038 10.516-4.1645 19.729-10.98 27.175-14.891-7.0671-4.1645-39.542 10.98-27.175zm-12.158 224.42c-4.3745-8.834-9.5906-22.716 0.8837-29.488 6.1835-5.0479 11.442 3.4913 10.222 9.2964 1.7665 8.7077-2.8606 17.079-11.106 20.192zm8.2453 58.513c4.1645-1.5985 8.4969-2.482 13.082-2.6081 0.5048 8.9179 3.1549 31.087-11.905 25.66-3.2387-7.109-4.4167-15.732-1.1775-23.052zm14.26 115.89c-13.209-3.9542-13.209-26.67 2.6497-25.87 3.3234 7.9923 8.7921 21.916-2.6497 25.87zm15.648-43.117c-5.0477-14.597 1.5564-29.656 9.5069-41.813 6.4783 6.9409 0.589 16.868 1.178 25.113-2.1875 10.138 5.5525 18.046 9.9696 26.291-7.5721-1.0938-16.195-2.5241-20.654-9.5911zm26.838 2.482c-10.138-1.8509-7.9505-14.387-7.4878-21.832 2.5238-0.0421 7.5299-0.1684 10.012-0.2103-0.3785 7.2773 2.7343 15.901-2.5239 22.042zm-1.388-76.896c-1.5148-0.6308-4.5855-1.9349-6.1414-2.6081-27.722 3.8281-33.443-44.464-7.8668-50.731 0.0421 9.0443-0.9253 18.004-1.8085 27.006 2.1033 2.3557 4.2066 4.7956 6.352 7.1933 1.2201-2.1033 3.6592-6.3099 4.8793-8.4132 4.2908-0.2103 11.947-5.3843 14.219 0.9256 4.1222 9.8854 0.0414 21.748-9.6334 26.628zm23.682 122.29c3.7023 9.2966 4.6698 19.014-1.5138 27.553-13.251-4.5849-16.826-29.656 1.5138-27.553zm10.811 112.23c-12.451 7.6981-19.308-19.981-6.3941-23.304 11.442-1.4724 9.8438 16.195 6.3941 23.304zm12.073-178.44c-0.9674 11.148-5.3424 23.936 1.9354 33.947 3.5329 6.8989 11.568 8.7498 17.878 12.115-3.4497 7.1512-12.999 5.1319-19.098 3.7018-19.435-7.9506-20.318-41.603-0.7154-49.764zm21.369 132.76c-17.12 0.8414-13.503-29.951 2.6928-24.566 7.1931 7.3615-0.7574 16.616-2.6928 24.566zm0.2948-34.157c-11.148-11.694-6.8567-29.026 0.6727-41.351 2.9028-0.1261 8.7079-0.4626 11.61-0.6308-0.5464 3.1549-1.6822 9.4648-2.2712 12.62-0.7574 7.2773-3.1549 15.354 0.9253 22.084 4.2487 6.8146 12.662 8.9601 19.561 11.989-8.1185 11.484-22.926 2.7344-30.498-4.7113zm26.038-28.31c13.756-4.5011 12.157 14.891 10.306 23.094-11.821 9.3384-21.286-17.289-10.306-23.094zm-5.2582 136.92c-12.746 2.8605-10.601-12.452-11.778-20.276 14.387-10.811 21.411 11.442 11.778 20.276zm13.461 59.018c-11.736-8.2869-3.7439-28.983 11.105-24.23 0.21 8.5816 1.5143 25.071-11.105 24.23zm5.2161-109.62c0.0837-7.656-2.8607-23.683 10.138-19.56 8.0342 6.7303 2.1875 23.472-10.138 19.56zm0.5469-165.32c5.0898-0.8414 10.18-1.6406 15.312-2.3978 2.3138 10.222 1.3464 20.738-4.7108 29.572-11.316-5.0058-10.727-16.784-10.601-27.175zm31.423 236.2c-9.3806 0.2103-8.2026-12.452-6.8146-18.761 1.388-6.6044 10.012-3.4073 14.639-4.5011-1.3038 7.6981 1.809 20.318-7.8242 23.262zm-27.89-121.65c1.388-6.8986 3.4492-13.671 6.0156-20.192 16.616-6.352 7.95 15.102 10.811 23.893 2.9449 13.083 22.211 9.6332 24.735 22.127-18.004 3.3652-37.943-7.067-41.561-25.828zm36.808 14.387c-3.5334-4.9637-6.9831-9.9695-10.432-15.018 3.0286-7.1512 7.3194-18.383 17.373-13.714 7.572 8.7919 0.5047 22.042-6.941 28.731zm11.526 37.396c3.0712 0.2524 9.1706 0.7153 12.199 0.9677-0.0842 8.4131-1.3043 16.868-7.3194 23.304-6.941-6.6465-7.1931-15.607-4.8798-24.272zm22.674 119.09c-18.215 4.7956-17.752-29.109 0.3369-24.314 1.7243 8.0345 0.9674 16.237-0.3369 24.314zm-8.96-225.18c-9.0442-5.3846-15.775-16.279-10.769-26.754 4.0382-0.7993 8.1605-1.1359 12.367-0.9677 1.4306 9.2967 2.6923 18.93-1.5985 27.722zm25.072 187.78c-12.2-5.5527-11.316-30.287 5.3003-25.156 0.5464 8.4553 6.2257 21.874-5.3003 25.156zm-18.046-108.82c7.0673 3.87 13.84 8.7074 21.664 10.979 11.022 1.977 16.196-9.1282 22.464-15.775l3.0707-3.4073c1.1359 5.8891 0.6311 11.61-1.5564 17.079-7.9505 21.285-44.463 12.578-45.641-8.8756zm9.5912-7.0673c2.0612-4.7956 4.0802-9.6332 6.0993-14.429 2.6923 0.0421 8.0332 0.0842 10.685 0.0842-0.1263 7.2354 1.0938 14.975-2.7344 21.58-6.3099 4.7113-10.054-3.87-14.05-7.2352zm32.39-76.518c3.8276-1.3882 7.8242-2.0614 12.031-1.9772 0.3784 7.3615 0.4206 14.723 0.21 22.084-2.7339 0.4205-8.2868 1.2198-11.021 1.6406-2.4822-6.983-4.3749-14.639-1.22-21.748zm11.315 138.94c-9.3385-3.1549-10.937-15.901-5.5525-23.136 2.7344-0.0421 8.2452-0.2103 10.979-0.2524-0.042 8.1187-1.7663 16.069-5.4266 23.389zm25.492-76.433c2.2717-0.0842 6.8146-0.2103 9.0858-0.2945 2.0196 8.7916-0.21 17.331-5.6783 24.356-2.0612 0.1263-6.1419 0.3787-8.2031 0.5048-1.8091-8.7495-0.9674-17.499 4.7956-24.566zm1.8506 124.09c-4.9635-7.3615-5.4266-15.817-1.977-23.809 2.7765-0.4205 8.2868-1.2198 11.063-1.6404 3.5755 9.8432-1.6827 19.056-9.0863 25.45zm18.467-174.45c-7.1515-10.474 1.7664-26.88 15.143-23.599 0.2527 9.3387-2.0612 26.333-15.143 23.599zm5.2583 117.57c-2.0617-9.8014 0.6306-29.025 14.807-24.314 6.5199 9.4227-2.9865 26.081-14.807 24.314zm-8.5816-151.98c-8.5816 14.639-2.6507 33.232-5.2582 49.427-5.2161 8.9179-11.442 19.224-22.421 21.37-8.7916 0.7151-22.463 4.0803-24.86-7.5718 5.6367-0.0421 11.273-0.0421 16.953 0.0421 6.8141-7.6139 14.723-14.891 18.466-24.609 4.5855-15.354-8.1184-31.802-23.052-34.368-19.392-1.6827-16.7 31.718-36.303 25.66-7.6136-7.656 2.4396-15.733 4.3329-23.683 2.1033-10.306 0.3363-23.767-10.222-28.773-6.9825-4.7534-15.27-0.1263-22 2.7341-8.5395 4.5432-18.888 10.979-19.182 21.874-1.2196 16.742 15.27 26.417 20.486 41.056-21.117 4.1645-36.64-13.082-47.45-28.647-2.1033-20.023 15.901-35.083 15.017-54.433-4.7113-21.538-37.733-17.626-45.515-0.5048-0.6311 12.914 6.2678 24.777 9.2122 37.144l1.2201 4.2905c-5.3003-0.5887-12.325 1.3882-15.606-4.2484-10.853-12.241-14.05-29.11-12.451-44.968 5.5104-10.685 14.134-19.266 20.065-29.657-0.1679-6.2678-1.1353-12.451-1.8512-18.677-0.2521-2.4396-0.7569-7.3194-1.0095-9.8011 6.4362 0.8411 12.872 2.3136 19.393 1.7667 15.775-8.7498 23.557-31.297 14.555-47.282-8.6658-10.138-26.628-11.863-36.009-1.7667-7.74 7.4455-7.5715 19.014-9.8848 28.815-2.2306-0.5048-6.6888-1.5564-8.9184-2.0612-5.8046-18.93 6.0577-36.345 22.59-44.716 17.92-3.786 33.526 8.4132 50.941 8.5813 21.58-5.8472 22.169-49.89-4.0803-48.965-11.273-1.0935-14.849 11.736-20.528 18.846-2.6923 8.7076-15.396 5.5527-16.195-2.482-9.1701-28.268 23.094-53.508 49.427-50.731 13.419 2.7765 20.402 16.027 31.339 22.968 7.4036 2.4399 16.154-0.7571 22.8 3.8279 9.8853 9.4227 18.298 25.955 34.536 22.884 21.117-1.5143 26.543-32.012 12.199-44.926-11.989-14.092-31.591-3.4073-46.819-2.8604 10.601-24.398 49.554-28.647 65.875-7.656 10.096 10.769 14.849 29.783 2.9865 41.098-11.694 10.642-7.6979 28.058 0.5474 39.542 14.049 2.9025 24.818-5.763 36.176-12.283l3.9966 1.8088c-0.0842 2.2296-0.21 6.6886-0.2942 8.96-8.8763 23.641 15.817 42.487 12.746 66.001 0 17.5-14.092 29.698-27.091 39.121-13.208 8.6234-17.752 25.66-16.11 40.636 2.3975 14.344 24.104 14.849 31.465 4.5429 5.174-12.536 4.3745-27.974 15.48-37.523 2.1454 1.893 6.4783 5.679 8.6237 7.5718-0.4211 9.0021 0.7569 18.467-2.2717 27.132-6.3941 9.7593-15.312 17.5-22.968 26.249-14.345 6.3519-30.12-8.918-43.076-0.7573zm-167.13-116.52c-12.116 3.8702-11.779-12.746-10.558-20.192 0.5464-7.5718 9.0858-7.067 14.555-8.2447-0.799 9.1702 3.1549 21.285-3.9961 28.436zm34.283-83.038c8.7921 9.3387 7.6563 23.136-0.1684 32.727-12.62-7.2776-13.756-26.418 0.1684-32.727zm97.887-35.125c1.7248 10.432 4.375 29.025-12.073 25.702-3.197-10.516-3.786-29.32 12.073-25.702zm61.752 216.76c-14.512-4.4169-8.6653-30.077 6.6046-28.941 1.8085 9.8856 3.1128 22.59-6.6046 28.941zm18.173 63.814c2.8181-0.1684 8.4974-0.4629 11.358-0.589 2.4822 8.3711-0.6727 16.658-3.1549 24.608-15.775 1.9772-12.536-14.891-8.2027-24.019zm-1.2201 74.961c-4.5008-10.054 0.8832-30.708 14.976-23.683 3.8276 10.348-3.8698 22.715-14.976 23.683zm32.265-116.02c-2.4818 0-7.4457-0.0842-9.9275-0.1263 0.6727-7.3194-3.5339-17.668 3.7018-22.673 2.5659 0.0419 7.6979 0.1682 10.264 0.2524-0.2525 7.6558-1.3884 15.312-4.0386 22.547zm16.953 37.943c-2.2717-0.2942-6.8567-0.8832-9.1706-1.2198-1.8927-8.371-2.0191-27.974 11.274-23.641 6.6463 7.1511 0.3785 17.205-2.1033 24.861zm22.21-101.76c-5.0477 2.3136-10.095 4.6271-15.312 6.4359 1.4722-9.2124-3.1128-22.253 7.2773-27.343 12.451 0.9256 9.1701 12.578 8.0342 20.907zm4.2066-137.68c-9.549-6.6462-6.2678-21.201-6.4778-31.339 18.467-4.4168 19.013 25.871 6.4778 31.339zm6.6467 36.934c2.1033-0.0842 6.2678-0.2945 8.3289-0.3787 6.352 9.5069 6.352 29.993-8.2448 30.918-1.2621-10.138-2.1453-20.444-0.0841-30.54zm0.8411 73.321c0-5.9733 0.0842-11.947 0.1684-17.92 0.6727-2.0612 1.977-6.1417 2.6502-8.1608 4.964 0.7993 9.8853 1.6406 14.849 2.482-0.7569 10.685-3.8697 24.819-17.667 23.599z" stroke-width="1.6589"/>
	</g>
	<path d="m273.91 415.6c2.2715-0.0842 6.8146-0.2104 9.0862-0.2945 2.0192 8.7917-0.2103 17.331-5.6788 24.356-2.0612 0.1262-6.1416 0.3786-8.2028 0.5048-1.809-8.7497-0.9677-17.499 4.7954-24.566z" fill="#FFC67E" stroke="#FFC67E" stroke-width=".3944"/>
	<path d="m-118.82 416.36c2.8184 0.0421 8.4132 0.0841 11.19 0.1262 2.9025 5.5948 5.8471 11.232 8.8338 16.826-1.1358 1.5144-3.3232 4.5431-4.459 6.0995-8.1187-5.174-11.105-15.059-15.564-23.052z" fill="#883415" stroke="#883415" stroke-width=".3944"/>
	<path d="m-55.174 422.84c2.0612 0.5048 6.1837 1.5984 8.2449 2.1453 0.673 7.6139 4.9217 16.91-0.9675 23.431-13.377 0.7152-14.891-17.92-7.2774-25.576z" fill="#E2A36D" stroke="#E2A36D" stroke-width=".3944"/>
	<path d="m334.65 451.7c-4.5011-10.054 0.8834-30.708 14.975-23.683 3.8279 10.348-3.87 22.716-14.975 23.683z" fill="#FFBE7F" stroke="#FFBE7F" stroke-width=".3944"/>
	<path d="m239.24 431.88l3.0708-3.4073c1.1358 5.8892 0.631 11.61-1.5564 17.079-7.9504 21.285-44.464 12.578-45.641-8.8759 7.067 3.8701 13.84 8.7076 21.664 10.979 11.021 1.9771 16.195-9.1283 22.463-15.775z" fill="#FB717B" stroke="#FB717B" stroke-width=".3944"/>
	<path d="m121.96 462.8c0.0841-7.656-2.8605-23.683 10.138-19.561 8.0346 6.7305 2.1875 23.473-10.138 19.561z" fill="#FFC18E" stroke="#FFC18E" stroke-width=".3944"/>
	<path d="m299.48 482.83c-2.0612-9.8014 0.631-29.025 14.807-24.314 6.5202 9.4227-2.9866 26.081-14.807 24.314z" fill="#FFC07F" stroke="#FFC07F" stroke-width=".3944"/>
	<path d="m-4.1063 461.58c12.872-4.1224 14.849 24.104 2.7343 24.735-7.2774-5.2161-11.526-19.687-2.7343-24.735z" fill="#E1A16D" stroke="#E1A16D" stroke-width=".3944"/>
	<path d="m42.376 461.33c11.442-1.4723 9.8434 16.195 6.394 23.304-12.451 7.698-19.308-19.981-6.394-23.304z" fill="#FFC584" stroke="#FFC584" stroke-width=".3944"/>
	<path d="m-69.098 462.17c12.199-6.2257 20.444 12.283 15.943 21.748-11.274 2.566-22.547-11.484-15.943-21.748z" fill="#DB8B5E" stroke="#DB8B5E" stroke-width=".3944"/>
	<path d="m174.38 463.81c3.0708 0.2524 9.1703 0.7151 12.199 0.9676-0.0842 8.4131-1.3041 16.868-7.3195 23.304-6.9408-6.6464-7.1932-15.606-4.8796-24.272z" fill="#FFC587" stroke="#FFC587" stroke-width=".3944"/>
	<path d="m242.86 468.9c2.7343-0.0421 8.2449-0.2104 10.979-0.2524-0.042 8.1187-1.7668 16.069-5.4265 23.388-9.3386-3.1548-10.937-15.901-5.5527-23.136z" fill="#FFC285" stroke="#FFC285" stroke-width=".3944"/>
	<path d="m91.509 493.13c14.386-10.811 21.412 11.442 11.778 20.276-12.746 2.8605-10.601-12.452-11.778-20.276z" fill="#FFC887" stroke="#FFC887" stroke-width=".3944"/>
	<path d="m-31.659 499.53c13.461-2.2295 18.635 11.947 16.784 23.136-7.656-0.631-13.587-4.7534-18.046-10.769 0.4205-4.1225 0.8412-8.245 1.2619-12.367z" fill="#DEA36B" stroke="#DEA36B" stroke-width=".3944"/>
	<path d="m315.72 523.29c-3.4915-13.251 8.5814-20.276 19.855-21.538-5.4685 12.956-14.092 25.282-26.249 32.769 2.1874-3.7018 4.3327-7.4456 6.394-11.232z" fill="#E6A182" stroke="#E6A182" stroke-width=".3944"/>
	<path d="m30.934 512.36c13.966-3.0287 16.406 13.293 15.48 23.641-2.2716 0.6731-6.7726 2.0192-9.0441 2.6922-7.6139-6.8987-9.3807-16.742-6.4361-26.333z" fill="#E1A26F" stroke="#E1A26F" stroke-width=".3944"/>
	<path d="m147.12 514.92c1.3882-6.6044 10.012-3.4074 14.639-4.5011-1.304 7.6981 1.8088 20.318-7.8242 23.262-9.3807 0.2103-8.2028-12.452-6.8147-18.761z" fill="#FFC088" stroke="#FFC088" stroke-width=".3944"/>
	<path d="m-53.197 511.05c11.19 7.067 19.518 17.163 25.071 29.11-5.763-1.0938-11.61-1.8509-17.163-3.7859-7.3195-6.0576-7.5298-16.616-7.9084-25.324z" fill="#D4B07C" stroke="#D4B07C" stroke-width=".3944"/>
	<path d="m273.78 515.89c2.7763-0.4207 8.287-1.22 11.063-1.6406 3.5756 9.8434-1.6826 19.056-9.0862 25.45-4.9638-7.3615-5.4265-15.817-1.9771-23.809z" fill="#FFBD83" stroke="#FFBD83" stroke-width=".3944"/>
	<path d="m213.16 545.5c-12.199-5.5526-11.316-30.287 5.3003-25.155 0.5468 8.4553 6.2257 21.874-5.3003 25.155z" fill="#FFBF8C" stroke="#FFBF8C" stroke-width=".3944"/>
	<path d="m74.515 537.13c7.067 1.6826 12.115 6.6885 15.522 12.872-4.1224 4.2486-6.2678 17.752-14.723 12.914-8.7496-5.9734-2.7763-17.794-0.7992-25.786z" fill="#ECAB6E" stroke="#ECAB6E" stroke-width=".3944"/>
	<path d="m8.5135 544.62c12.367-5.0059 22.674 12.241 16.111 21.454-11.652 2.7343-18.214-11.61-16.111-21.454z" fill="#E39D6D" stroke="#E39D6D" stroke-width=".3944"/>
	<path d="m279.38 554.84c6.9828-4.459 14.513-8.0345 21.748-12.115 2.3136 7.6139 2.1874 16.195-4.2907 21.79-7.7401 4.1224-16.868 4.6273-25.366 6.436 3.5335-4.8796 5.8471-10.474 7.9084-16.111z" fill="#ECCF9B" stroke="#ECCF9B" stroke-width=".3944"/>
	<path d="m116.75 572.43c-11.736-8.287-3.7439-28.983 11.105-24.23 0.2103 8.5814 1.5144 25.071-11.105 24.23z" fill="#FFC37A" stroke="#FFC37A" stroke-width=".3944"/>
	<path d="m197.05 582.9c-18.214 4.7955-17.752-29.11 0.3365-24.314 1.7247 8.0346 0.9675 16.237-0.3365 24.314z" fill="#FFC67D" stroke="#FFC67D" stroke-width=".3944"/>
	<path d="m246.31 579.16c11.61-7.3194 21.916-16.364 33.064-24.314-2.0612 5.6368-4.3749 11.232-7.9084 16.111l-4.6273 2.1033c-6.0575 2.2295-11.274 6.0995-16.279 10.138-7.2353 5.3424-15.396 9.2545-23.809 12.409-22.842 9.0021-46.651 15.27-71.091 18.172-2.0192-0.8414-6.0154-2.524-8.0346-3.3653 9.8855-1.7247 19.645-4.0804 29.488-6.0995 17.415-2.8605 37.481-5.9313 47.114-22.8 3.4915 2.5239 6.9829 5.09 10.516 7.698 3.5756-7.8663 6.6043-16.279 4.2066-24.987 2.5239 4.9217 4.9217 9.9275 7.3615 14.933z" fill="#883415" stroke="#883415" stroke-width=".3944"/>
	<path d="m224.23 581.51c-1.5564-8.7917 2.8605-23.978 14.723-17.289 2.3978 8.7076-0.631 17.121-4.2066 24.987-3.5335-2.608-7.025-5.1741-10.516-7.698z" fill="#FFC980" stroke="#FFC980" stroke-width=".3944"/>
	<path d="m52.598 585.34c-3.8701-6.4781 4.5431-10.39 8.1607-14.008 4.7535 6.9409 6.8988 15.018 5.8051 23.431-5.763-1.3881-13.629-1.6826-13.966-9.4228z" fill="#DF865F" stroke="#DF865F" stroke-width=".3944"/>
	<path d="m250.56 583.19c5.0058-4.0383 10.222-7.9084 16.279-10.138 4.6273 8.4553-10.054 15.901-16.279 10.138z" fill="#F6B8BD" stroke="#F6B8BD" stroke-width=".3944"/>
	<path d="m15.749 580.76c14.513 2.524 25.113 12.872 37.312 20.107-9.4227-0.042-18.888 0.5889-28.226-0.673-5.4265-5.0058-6.5202-12.872-9.0862-19.434z" fill="#EEC993" stroke="#EEC993" stroke-width=".3944"/>
	<path d="m156.29 586.01c4.501-2.1874 9.2124-3.8701 13.882-5.5527-0.8834 7.1512-1.8509 14.302-2.9446 21.454-2.6502-0.6731-7.9925-2.0192-10.643-2.6923-0.1261-4.4168-0.2102-8.7916-0.2944-13.209z" fill="#FFBF84" stroke="#FFBF84" stroke-width=".3944"/>
	<path d="m101.77 613.65c-2.566-10.096-3.87-24.777 10.685-24.566 2.2716 9.4648-1.0937 18.467-7.656 25.408l-2.2295 2.9446-0.7992-3.7859z" fill="#DAA26A" stroke="#DAA26A" stroke-width=".3944"/>
	<path d="m155.66 613.78c24.44-2.9025 48.249-9.1703 71.091-18.172-4.3328 6.7305-10.222 12.662-18.341 14.344-18.214 4.5851-37.018 6.9829-55.737 8.0766l2.9868-4.2486z" fill="#EEB8B7" stroke="#EEB8B7" stroke-width=".3944"/>
	<path d="m110.65 614.37c10.432-0.0421 20.991-0.9255 30.708-5.0059 1.5564 0.2944 4.7113 0.7993 6.2678 1.0516 2.0192 0.8413 6.0154 2.5239 8.0346 3.3653l-2.9867 4.2486c-11.694 8.918-29.152-0.4206-42.024-3.6596z" fill="#E6C0A1" stroke="#E6C0A1" stroke-width=".3944"/>
</svg>
