<?xml version="1.0" encoding="UTF-8"?>
<svg version="1.1" viewBox="0 0 412.8 425.03" xmlns="http://www.w3.org/2000/svg">
 <defs>
  <radialGradient id="a" cx="236.21" cy="261.41" r="40.224" fx="225.09" fy="274.91" gradientTransform="matrix(1.4853 0 0 .67325 -123.77 -41.675)" gradientUnits="userSpaceOnUse">
   <stop stop-color="#c8b800" offset="0"/>
   <stop stop-color="#f00" stop-opacity=".593" offset=".7"/>
   <stop stop-color="#f00" stop-opacity="0" offset="1"/>
  </radialGradient>
 </defs>
 <path d="m133.93 80.255c-52.862 12.216-118.94-12.216-132.16 85.515-13.216 97.731 79.294 280.98 158.59 256.54 39.647-12.216 26.431-12.216 79.294 0 105.72 24.433 211.45-217.45 158.59-293.19-52.862-73.298-158.59-73.298-264.31-48.866z" fill="#f00" stroke="#000"/>
 <path d="m206.98 113.62c-20.842-75.333-72.947-113-125.05-113-20.842 0-41.684 0-72.947 12.556 31.263 25.111 52.105 62.778 93.79 62.778 31.263 0 83.368 30.133 104.21 37.667z" fill="#0f0" stroke="#000" stroke-width="1.25"/>
 <path d="m8.9797 13.179c72.947 12.556 145.9 25.111 198 100.44" fill="#0f0" fill-opacity=".75" stroke="#000" stroke-width="1.25"/>
 <g transform="translate(-123.77 -41.675)" fill="#0f0" fill-opacity=".75" stroke="#000" stroke-width=".625">
  <path d="m174.43 42.676c8.3368 2.5111 14.59 14.69 20.842 24.734-10.421 15.067-19.8 12.556-34.806 12.932"/>
  <path d="m209.87 42.299c16.674 10.044 20.842 20.089 27.095 37.667-6.2526 10.044-20.321 25.425-43.247 27.936"/>
  <path d="m251.55 52.343c10.421 10.044 19.8 33.9 21.884 46.456-10.421 7.5333-26.053 18.833-46.895 18.833"/>
  <path d="m289.07 79.966c11.463 17.578 6.2526 22.6 10.421 37.667-12.505 2.5111-16.674 10.044-31.263 10.044"/>
 </g>
 <path d="m145.98 118.24c10.385-39.578 124.62-52.771 135 0-31.154 13.193-41.538 26.385-72.692 26.385s-41.538-13.193-62.308-26.385z" fill="url(#a)" fill-rule="evenodd" stroke-width="1.25"/>
 <path d="m215.75 145.02-9.7683 0.6032c0-50.269 9.7683-90.484 19.537-110.59 9.7683-20.108 13.676-36.194 29.305-20.108 9.7683 10.054-13.383 7.3996-19.537 20.108-9.7683 20.108-19.537 50.269-19.537 109.99z" fill="#5b0404" stroke="#2b1010" stroke-linejoin="bevel"/>
 <path d="m301.98 105.62c-26.769 20-53.538 40-93.692 40s-53.538-20-80.308-40" fill="none" stroke="#000" stroke-linecap="round" stroke-linejoin="round" stroke-width="1.25"/>
 <ellipse transform="matrix(-.53553 .84451 -.84451 -.53553 742.69 -212.05)" cx="480.08" cy="153.08" rx="13.88" ry="44.447" fill="#fff" stroke="#fff"/>
 <ellipse transform="translate(-123.77 -41.675)" cx="-384.5" cy="-11.883" rx="2" ry="0" fill="#fff" stroke="#000"/>
</svg>
