<?xml version="1.0" encoding="UTF-8"?>
<svg version="1.1" viewBox="0 0 2000 2000" xmlns="http://www.w3.org/2000/svg">
 <defs>
  <linearGradient id="f" x1="655.02" x2="585.15" y1="355.86" y2="443.19" gradientTransform="matrix(3.4495 0 0 3.9057 -459.73 -1696)" gradientUnits="userSpaceOnUse">
   <stop stop-color="#fff" stop-opacity=".52941" offset="0"/>
   <stop stop-color="#f00" stop-opacity="0" offset="1"/>
  </linearGradient>
  <linearGradient id="g" x1="414.85" x2="473.8" y1="299.09" y2="294.72" gradientTransform="matrix(2.9718 0 0 2.9718 -247.16 -1449.2)" gradientUnits="userSpaceOnUse">
   <stop stop-color="#3c1800" offset="0"/>
   <stop stop-color="#d55500" offset="1"/>
  </linearGradient>
  <linearGradient id="h" x1="429.82" x2="428.75" y1="383.34" y2="352.91" gradientTransform="matrix(2.9718 0 0 2.9718 -247.16 -1449.2)" gradientUnits="userSpaceOnUse">
   <stop offset="0"/>
   <stop stop-opacity="0" offset="1"/>
  </linearGradient>
  <filter id="e" x="-.07727" y="-.14952" width="1.1545" height="1.299" color-interpolation-filters="sRGB">
   <feGaussianBlur stdDeviation="5.5647559"/>
  </filter>
 </defs>
 <g transform="translate(0 947.64)">
  <path d="m899.08 821.79c-778.88 448.21-1410.6-1368.4-233.48-1396.1 263.5-6.2005 271.7 166.02 370.06 162.44 111.36-4.0483 61.031-155.94 329.33-162.44 1130.3 13.13 539.81 1809.7-240.35 1397.1-51.344-35.558-168.05-37.861-225.56-1.0013z" fill="#f00"/>
  <path d="m906.51-847.07c4.257-73.439 204.11 0.97004 198.42 65.208l13.651 464.67c-55.354 11.405-101.62 12.445-164.73 1.9164z" fill="url(#g)"/>
  <path d="m852.87-415.31c-11.733 45.131-19.647 101.11 164.26 108.72 148.62 6.1542 203.37-65.645 175.99-114.88" fill="url(#h)"/>
  <path d="m1376.3-768.07c-83.739 10.268-175.89 52.362-224.11 113.93-58.37 74.517-48.205 207.12-72.004 259.83-3.7505 8.306-42.083 96.321-38.776 99.814 139.34-17.625 302.47-29.304 411.85-127.98 89.116-84.342 105.08-181.2 85.061-297.9-1.9376-11.296-7.8098-109.52-15.964-118.13-18.108 31.66-107.43 65.703-146.06 70.44z" fill="#060"/>
  <path d="m1898.3 73.063c-63.304 151.94-164.81-78.833-286.89-174.17-122.08-95.333-286.28-129.99-222.98-281.93 63.304-151.94 236.18-86.964 358.26 8.3697 122.08 95.333 214.91 295.79 151.61 447.72z" fill="url(#f)"/>
  <path transform="matrix(2.74 -1.1507 1.1507 2.74 -484.47 -624.45)" d="m622.55 297.04c8.305 7.6652-40.518 20.463-90.5 20.463s-103.31-19.782-92.796-23.928c41.518-16.373 60.641-45.674 103.42-43.795 37.095 1.6291 61.132 29.964 79.872 47.26z" fill="#002700" fill-opacity=".82353" filter="url(#e)"/>
  <path d="m1533.8-534.55c-73.467-30.597-168.66-39.008-236.9-10.983-82.597 33.921-136.05 147.42-180.13 179.56-6.9464 5.0649-79.398 59.394-78.314 63.8 122.5 50.472 261.74 116.9 397.43 86.938 112.39-27.653 170.62-99.661 208.58-204.7 3.6744-10.168 44.625-93.467 41.952-104.33-29.604 17.531-118.73 3.8343-152.62-10.28z" fill="#008000"/>
 </g>
</svg>
