<?xml version="1.0" encoding="UTF-8"?>
<svg viewBox="0 0 48 48" xmlns="http://www.w3.org/2000/svg" xmlns:xlink="http://www.w3.org/1999/xlink">
 <defs>
  <linearGradient id="d">
   <stop stop-color="#59a40f" offset="0"/>
   <stop stop-color="#306102" offset="1"/>
  </linearGradient>
  <linearGradient id="c">
   <stop stop-color="#fff" offset="0"/>
   <stop stop-color="#fff" stop-opacity="0" offset="1"/>
  </linearGradient>
  <linearGradient id="b">
   <stop offset="0"/>
   <stop stop-opacity="0" offset="1"/>
  </linearGradient>
  <linearGradient id="a">
   <stop stop-color="#d50f0f" offset="0"/>
   <stop stop-color="#860000" offset="1"/>
  </linearGradient>
  <linearGradient id="o" x1="42.551" x2="22.734" y1="46.026" y2="23.323" gradientUnits="userSpaceOnUse" xlink:href="#a"/>
  <linearGradient id="n" x1="25.128" x2="7.2131" y1="38.802" y2="18.548" gradientTransform="matrix(.94566 .040955 -.041715 .94938 3.271 -2.8088)" gradientUnits="userSpaceOnUse" xlink:href="#a"/>
  <radialGradient id="m" cx="33.921" cy="32.026" r="12.011" gradientTransform="matrix(1.0972 -.060401 .059957 1.0724 -4.7989 -.43954)" gradientUnits="userSpaceOnUse" xlink:href="#a"/>
  <radialGradient id="l" cx="25.346" cy="30.31" r="12.011" fx="22.506" fy="25.064" gradientTransform="matrix(.78931 .49308 -.25971 .41573 13.249 5.1887)" gradientUnits="userSpaceOnUse" xlink:href="#c"/>
  <radialGradient id="k" cx="41.247" cy="11.365" r="4.9179" fx="41.772" fy="11.681" gradientTransform="matrix(.36505 -.56094 1.4421 .93854 10.519 23.383)" gradientUnits="userSpaceOnUse" xlink:href="#d"/>
  <radialGradient id="j" cx="15.116" cy="63.965" r="12.289" fx="13.292" fy="60.044" gradientTransform="matrix(1.1014 .0477 -.030844 .70196 15.085 -6.7691)" gradientUnits="userSpaceOnUse" xlink:href="#b"/>
  <radialGradient id="i" cx="15.116" cy="63.965" r="12.289" gradientTransform="matrix(1.0808 .04681 -.030844 .70196 .42347 -14.35)" gradientUnits="userSpaceOnUse" xlink:href="#b"/>
  <radialGradient id="h" cx="23.261" cy="33.479" r="11.057" gradientTransform="matrix(1.0945 .0051153 -.0049669 .94337 -.77201 -1.4802)" gradientUnits="userSpaceOnUse" xlink:href="#b"/>
  <radialGradient id="g" cx="9.7957" cy="24.748" r="11.057" fx="9.6233" fy="19.022" gradientTransform="matrix(.60566 .55109 -.31326 .34954 13.582 6.0888)" gradientUnits="userSpaceOnUse" xlink:href="#c"/>
  <radialGradient id="f" cx="16.357" cy="27.468" r="11.057" gradientTransform="matrix(1.025 .0083873 -.0087222 .9898 1.2755 -3.4343)" gradientUnits="userSpaceOnUse" xlink:href="#a"/>
  <radialGradient id="e" cx="29.496" cy="-3.5974" r="9.75" gradientTransform="matrix(-.79883 .076678 -.032006 -.33344 53.947 1.6115)" gradientUnits="userSpaceOnUse" xlink:href="#d"/>
 </defs>
 <path d="m28.071 31.834c-0.20791 4.765-6.3249 8.3707-13.662 8.0529s-13.114-4.4386-12.903-9.2034 6.3249-8.3707 13.662-8.0529 13.114 4.4386 12.903 9.2034z" fill="url(#i)"/>
 <path d="m43.296 39.44c-0.20788 4.765-6.438 8.3658-13.914 8.042s-13.367-4.4495-13.156-9.2144 6.438-8.3658 13.914-8.042 13.367 4.4495 13.156 9.2144z" fill="url(#j)"/>
 <path d="m23.836 30.313c-3.5093 4.432-10.086 7.1132-14.631 3.714-5.2695-2.2036-6.0544-9.0869-3.772-14.219 2.5635-5.7646 8.1349-6.618 14.269-3.1162s8.0755 8.6436 4.134 13.622z" fill="url(#f)" stroke="#520000"/>
 <path d="m23.836 30.313c-3.5093 4.432-10.086 7.1132-14.631 3.714-5.2695-2.2036-6.0544-9.0869-3.772-14.219 2.5635-5.7646 8.1349-6.618 14.269-3.1162s8.0755 8.6436 4.134 13.622z" fill="url(#g)" opacity=".66" stroke="#520000"/>
 <path d="m12.678 15.596c-4.2954 0.12808-6.4033 3.7381-7.1326 6.9816-1.0576 4.7038 0.46412 9.2286 4.227 10.623 3.3642 2.6859 8.6911 1.0575 11.903-2.0179 3.106-2.9739 4.2252-6.0532 2.2655-9.3447-1.6554-2.9081-6.8962-6.2615-11.263-6.2424z" fill="none" stroke="url(#n)"/>
 <path d="m15.81 16.255c-0.41036 2.1833 2.7304 4.4558 5.5212 3.0606" fill="none" stroke="#520000"/>
 <path d="m24.555 30.152c-4.2232 5.6403-11.132 7.6472-15.677 4.248-5.2695-2.2036-5.7272-9.4592-3.4448-14.592 2.5635-5.7646 8.3726-7.0165 14.53-3.5556 6.464 3.6254 8.1627 9.1546 4.5918 13.899z" fill="url(#h)"/>
 <g transform="matrix(.92007 .039847 -.040743 .92726 3.8008 -2.2928)">
  <path d="m41.738 37.156c-2.2797 6.2889-8.6364 11.671-14.976 9.4112-6.7061-0.64213-10.134-8.2006-9.4852-14.852 0.72889-7.471 6.6395-10.416 14.793-8.6024s12.229 6.9798 9.6682 14.043z" fill="url(#m)" stroke="#520000"/>
  <path d="m41.711 37.145c-2.2773 6.2958-8.6271 11.684-14.96 9.4216-6.6989-0.64284-10.123-8.2096-9.475-14.868 0.72811-7.4792 6.6324-10.428 14.778-8.6119s12.216 6.9875 9.6578 14.059z" fill="url(#l)" opacity=".66" stroke="#520000"/>
  <path d="m26.576 23.697c-3.072 0.1557-5.7878 1.5256-7.1616 4.2529-2.5368 5.0358-0.53472 11.521 1.706 14.299 2.6767 3.3242 4.9343 3.044 6.2271 3.3775 4.3572 1.4207 8.8682-1.0712 11.728-5.605 4.7834-7.5844 1.7669-12.682-4.479-15.088-2.4963-0.96163-5.2668-1.3763-8.0199-1.2367z" fill="none" stroke="url(#o)"/>
  <path d="m27.841 23.747c-0.60138 3.3361 4.8884 5.2134 6.3355 2.0007" fill="none" stroke="#520000"/>
 </g>
 <g transform="matrix(.92007 .039847 -.046626 1.0611 3.8132 -2.5733)">
  <path d="m24.613 3.4222c4.3798-2.7468 13.961 0.23583 13.961 0.23583s-7.1944 6.7153-10.797 5.9843c-3.0836-0.63087-11.581-5.2339-11.581-5.2339s4.5899 1.4036 8.4174-0.98626z" fill="url(#e)" stroke="#2d5a00"/>
  <path d="m20.414 5.5584c3.2525 1.6506 6.3903 2.9192 6.9708 3.1116 2.6918 0.89226 7.7555-3.3331 9.3231-4.625-2.0652-0.51169-8.0816-1.6513-11.074-0.16016-1.0507 0.52359-3.0201 1.552-5.2198 1.6736z" fill="none" stroke="#59aa0a" stroke-miterlimit="9"/>
 </g>
 <path d="m39.493 2.2869-1.6636 1.1486c-17.033 5.7594-18.757 14.085-21.04 14.027 0.57377 1.1404 1.7012 1.3628 3.2054 1.4612-1.8506-2.0095 5.4452-9.7165 16.533-13.839-4.2632 6.0549-5.303 17.437-6.8013 17.559 1.2012 0.81247 1.9168 1.1344 3.1762 0.48631-1.2012-1.319 0.91568-12.051 4.9113-18.075l2.7249-1.6477-1.0454-1.1206z" fill="#4e9a06" stroke="#275000"/>
 <g transform="matrix(.92007 .039847 -.040786 .92824 3.8029 -2.3394)">
  <path d="m39.151 3.4294c-0.23161 1.1725-0.7378 2.147 5.6518 5.6215 2.9569 1.6079 0.96418 5.0964 0.41037 9.7184-5.0782-4.748-10.409-10.07-6.0621-15.34z" fill="url(#k)" stroke="#2d5a00"/>
  <path d="m38.776 5.9607c-0.125 0.25-0.78808 2.0598 0.71509 4.7896 0.98777 1.9456 3.2838 4.3365 5.0502 6.0192 0.72569-3.7314 1.5183-5.7899-0.051-6.7497-0.6673-0.4081-2.4403-1.3294-3.6751-2.1968-1.6499-1.1588-2.0391-1.8623-2.0391-1.8623z" fill="none" stroke="#59aa0a"/>
 </g>
</svg>
