<?xml version="1.0" encoding="UTF-8"?>
<svg viewBox="0 0 640 480" xmlns="http://www.w3.org/2000/svg" xmlns:xlink="http://www.w3.org/1999/xlink">
 <defs>
  <linearGradient id="n" x1="25.128" x2="7.2131" y1="38.802" y2="18.548" gradientTransform="matrix(.94565 .040955 -.041715 .94938 3.271 -2.8088)" gradientUnits="userSpaceOnUse" xlink:href="#a"/>
  <linearGradient id="b">
   <stop offset="0"/>
   <stop stop-opacity="0" offset="1"/>
  </linearGradient>
  <linearGradient id="o" x1="42.551" x2="22.734" y1="46.026" y2="23.323" gradientUnits="userSpaceOnUse" xlink:href="#a"/>
  <linearGradient id="a">
   <stop stop-color="#d50f0f" offset="0"/>
   <stop stop-color="#860000" offset="1"/>
  </linearGradient>
  <linearGradient id="c">
   <stop stop-color="#fff" offset="0"/>
   <stop stop-color="#fff" stop-opacity="0" offset="1"/>
  </linearGradient>
  <linearGradient id="d">
   <stop stop-color="#59a40f" offset="0"/>
   <stop stop-color="#306102" offset="1"/>
  </linearGradient>
  <radialGradient id="f" cx="16.357" cy="27.468" r="11.057" gradientTransform="matrix(1.025 .0083873 -.0087222 .9898 1.2755 -3.4343)" gradientUnits="userSpaceOnUse" xlink:href="#a"/>
  <radialGradient id="h" cx="23.261" cy="33.479" r="11.057" gradientTransform="matrix(1.0945 .0051153 -.0049669 .94337 -.77201 -1.4802)" gradientUnits="userSpaceOnUse">
   <stop offset="0"/>
   <stop stop-opacity="0" offset="1"/>
  </radialGradient>
  <radialGradient id="g" cx="9.7957" cy="24.748" r="11.057" fx="9.6233" fy="19.022" gradientTransform="matrix(.60566 .55109 -.31326 .34954 13.582 6.0889)" gradientUnits="userSpaceOnUse" xlink:href="#c"/>
  <radialGradient id="k" cx="41.247" cy="11.365" r="4.9179" fx="41.772" fy="11.681" gradientTransform="matrix(.36505 -.56094 1.4421 .93854 10.519 23.383)" gradientUnits="userSpaceOnUse" xlink:href="#d"/>
  <radialGradient id="m" cx="33.921" cy="32.026" r="12.011" gradientTransform="matrix(1.0972 -.060401 .059957 1.0724 -4.7989 -.43954)" gradientUnits="userSpaceOnUse" xlink:href="#a"/>
  <radialGradient id="i" cx="15.116" cy="63.965" r="12.289" gradientTransform="matrix(1.0808 .04681 -.030844 .70196 .42347 -14.35)" gradientUnits="userSpaceOnUse" xlink:href="#b"/>
  <radialGradient id="l" cx="25.346" cy="30.31" r="12.011" fx="22.506" fy="25.064" gradientTransform="matrix(.78931 .49308 -.25971 .41573 13.249 5.1887)" gradientUnits="userSpaceOnUse" xlink:href="#c"/>
  <radialGradient id="j" cx="15.116" cy="63.965" r="12.289" fx="13.292" fy="60.044" gradientTransform="matrix(1.1014 .0477 -.030844 .70196 15.085 -6.7691)" gradientUnits="userSpaceOnUse" xlink:href="#b"/>
  <radialGradient id="e" cx="29.496" cy="-3.5974" r="9.75" gradientTransform="matrix(-.79883 .076678 -.032006 -.33344 53.947 1.6115)" gradientUnits="userSpaceOnUse" xlink:href="#d"/>
 </defs>
 <path d="m381.07 253.83c-0.20792 4.765-6.3249 8.3707-13.662 8.053-7.3368-0.31775-13.114-4.4386-12.903-9.2034 0.20792-4.765 6.3249-8.3707 13.662-8.053 7.3368 0.31775 13.114 4.4386 12.903 9.2034z" fill="url(#i)"/>
 <path d="m396.3 261.44c-0.20789 4.765-6.438 8.3658-13.914 8.042-7.4764-0.32379-13.367-4.4495-13.156-9.2144 0.20789-4.765 6.438-8.3658 13.914-8.042 7.4764 0.32379 13.367 4.4495 13.156 9.2144z" fill="url(#j)"/>
 <path d="m376.84 252.31c-3.5093 4.432-10.086 7.1132-14.631 3.714-5.2696-2.2036-6.0544-9.087-3.772-14.219 2.5635-5.7646 8.1349-6.618 14.269-3.1162 6.1345 3.5018 8.0755 8.6436 4.134 13.622z" fill="url(#f)" stroke="#520000"/>
 <path d="m376.84 252.31c-3.5093 4.432-10.086 7.1132-14.631 3.714-5.2696-2.2036-6.0544-9.087-3.772-14.219 2.5635-5.7646 8.1349-6.618 14.269-3.1162 6.1345 3.5018 8.0755 8.6436 4.134 13.622z" fill="url(#g)" opacity=".66" stroke="#520000"/>
 <path d="m365.68 237.6c-4.2954 0.12808-6.4034 3.7381-7.1326 6.9816-1.0576 4.7038 0.46414 9.2286 4.227 10.623 3.3643 2.6859 8.6911 1.0575 11.903-2.0179 3.106-2.9738 4.2252-6.0532 2.2655-9.3447-1.6554-2.9081-6.8962-6.2615-11.263-6.2424z" fill="none" stroke="url(#n)"/>
 <path d="m368.81 238.25c-0.41034 2.1833 2.7304 4.4558 5.5212 3.0606" fill="none" stroke="#520000"/>
 <path d="m377.55 252.15c-4.2232 5.6403-11.132 7.6472-15.677 4.248-5.2696-2.2036-5.7272-9.4592-3.4448-14.592 2.5635-5.7646 8.3726-7.0165 14.53-3.5556 6.464 3.6254 8.1627 9.1545 4.5918 13.899z" fill="url(#h)"/>
 <path d="m393.69 255.82c-2.3537 5.7405-8.4216 10.478-14.163 8.1298-6.144-0.86264-8.99-8.0078-8.1219-14.15 0.97501-6.8984 6.5332-9.3938 13.961-7.3872 7.4282 2.0066 10.967 6.9594 8.3232 13.407z" fill="url(#m)" stroke="#520000"/>
 <path d="m393.66 255.81c-2.3518 5.7471-8.4136 10.49-14.148 8.1401-6.1373-0.86301-8.9796-8.0158-8.1118-14.164 0.97461-6.9061 6.5271-9.4047 13.947-7.3966 7.4201 2.0081 10.955 6.966 8.3131 13.421z" fill="url(#l)" opacity=".66" stroke="#520000"/>
 <path d="m380.29 242.74c-2.8328 0.021957-5.3873 1.184-6.7625 3.6581-2.5392 4.5684-0.9614 10.662 0.98703 13.327 2.3274 3.1891 4.4159 3.0192 5.5918 3.38 3.951 1.4909 8.203-0.63989 11.018-4.73 4.71-6.8421 2.1423-11.689-3.5063-14.168-2.2576-0.99115-4.7898-1.486-7.3285-1.4663z" fill="none" stroke="url(#o)"/>
 <path d="m381.45 242.84c-0.68924 3.0694 4.2852 5.029 5.7476 2.1076" fill="none" stroke="#520000"/>
 <path d="m379.3 224.04c4.1578-2.7402 12.834 0.80656 12.834 0.80656s-6.9324 6.8392-10.213 5.92c-2.8078-0.79233-10.412-6.0154-10.412-6.0154s4.1576 1.6723 7.7906-0.71117z" fill="url(#e)" stroke="#2d5a00"/>
 <path d="m375.34 226.14c2.9156 1.8812 5.7434 3.3523 6.2685 3.5796 2.4351 1.0541 7.291-3.2279 8.7936-4.5363-1.8763-0.62529-7.3587-2.0743-10.182-0.61122-0.99115 0.51373-2.8511 1.5266-4.8806 1.5679z" fill="none" stroke="#59aa0a" stroke-miterlimit="9"/>
 <path d="m392.49 224.29l-1.6636 1.1486c-17.033 5.7594-18.757 14.085-21.04 14.027 0.57379 1.1404 1.7012 1.3628 3.2054 1.4612-1.8506-2.0095 5.4452-9.7165 16.533-13.839-4.2632 6.0549-5.303 17.437-6.8013 17.559 1.2012 0.81247 1.9168 1.1344 3.1762 0.48631-1.2012-1.319 0.91568-12.051 4.9113-18.075l2.7249-1.6477-1.0454-1.1206z" fill="#4e9a06" stroke="#275000"/>
 <path d="m392.68 224.4c-0.2609 1.0792-0.76639 1.9635 4.9707 5.4433 2.655 1.6104 0.67926 4.7691-0.018799 9.0373-4.4787-4.6097-9.1666-9.7625-4.9519-14.481z" fill="url(#k)" stroke="#2d5a00"/>
 <path d="m392.24 226.74c-0.12518 0.22707-0.80908 1.8806 0.46258 4.4743 0.82947 1.8454 2.8445 4.1562 4.401 5.7884 0.81986-3.4347 1.6331-5.3139 0.22836-6.2673-0.59732-0.40541-2.191-1.3312-3.2918-2.1856-1.4707-1.1414-1.8002-1.8099-1.8002-1.8099z" fill="none" stroke="#59aa0a"/>
</svg>
