<?xml version="1.0" encoding="UTF-8"?>
<!DOCTYPE svg  PUBLIC '-//W3C//DTD SVG 1.1//EN'  'http://www.w3.org/Graphics/SVG/1.1/DTD/svg11.dtd'>
<svg enable-background="new 0 0 38 41.1" version="1.1" viewBox="0 0 38 41.1" xml:space="preserve" xmlns="http://www.w3.org/2000/svg">
<g clip-rule="evenodd" fill-rule="evenodd">
	<path d="m21.83 29.18l0.12 0.101c0.133 0.08 0.253 0.08 0.359 0 0.16-0.187 0.507-0.267 1.04-0.24 0.64 0.026 1.12 0.32 1.44 0.88 0.347 0.587 0.093 0.934-0.76 1.04-0.773 0.106-1.307 0.04-1.601-0.2-0.16-0.133-0.307-0.453-0.44-0.96l-0.158-0.621zm-0.08-0.06c-1.387 0.054-2.254-0.066-2.601-0.36-0.213-0.187-0.333-0.506-0.36-0.96l0.041-0.64 0.28 0.24c0.266 0.133 0.586 0.199 0.959 0.199 0.454 0 0.841 0.16 1.16 0.48 0.32 0.293 0.507 0.613 0.561 0.96l0.04 0.14-0.08-0.059z" fill="#2D4F1B"/>
	<path d="m23.79 31.439c0.427-0.053 0.906 0.106 1.439 0.48 0.561 0.399 0.881 0.894 0.96 1.479 0.187 1.094 0.027 2.107-0.479 3.04-0.293 0.614-0.373 1.134-0.24 1.561-0.187-0.533-0.227-1.134-0.12-1.8 0.054-0.533-0.093-1.134-0.439-1.801-0.4-0.72-0.841-1.093-1.32-1.119-0.427-0.027-0.521-0.334-0.28-0.92l0.479-0.92z" fill="#2D4F1B"/>
	<path d="m20.11 27.04c0.853 0.293 1.479 0.627 1.879 1 0.428 0.399 0.641 0.854 0.641 1.36-0.054 0.826-0.054 1.346 0 1.56-2.16-0.267-3.134-0.667-2.92-1.2 0.453-1.04 0.094-1.906-1.08-2.6-0.586-0.32-0.84-0.773-0.76-1.36 0.027-0.293 0.12-0.56 0.28-0.8-0.026 0.133-0.04 0.28-0.04 0.439 0.053 0.348 0.2 0.641 0.44 0.881 0.187 0.16 0.707 0.4 1.56 0.72z" fill="#387329"/>
	<path d="m21.91 30.08c1.066-0.373 2.066-0.28 3 0.28 0.56 0.373 0.933 1.053 1.12 2.039 0.08 0.507 0.106 0.974 0.08 1.4-0.188-0.347-0.454-0.64-0.801-0.88-0.693-0.507-1.453-0.507-2.279 0-0.827 0.507-1.254 0.187-1.28-0.96l0.16-1.879z" fill="#48782A"/>
		<radialGradient id="q" cx="9.6738" cy="-3.3438" r="14.267" gradientTransform="matrix(.307 .7387 .7387 -.307 16.69 22.947)" gradientUnits="userSpaceOnUse">
		<stop stop-color="#ED0101" offset="0"/>
		<stop stop-color="#7E0806" offset="1"/>
	</radialGradient>
	<path d="m12.95 33.64c0.187-1.493 0.626-2.68 1.32-3.56 0.747-0.986 1.733-1.533 2.96-1.641 2.426-0.213 4.293 0.348 5.6 1.681 1.706 1.84 2.413 3.706 2.12 5.6-0.214 1.52-0.907 2.667-2.08 3.44-1.014 0.666-2.188 1.053-3.521 1.159-1.733 0.16-2.826 0.307-3.28 0.44-1.066 0.347-2.04 0.427-2.92 0.24-0.907-0.187-1.374-0.613-1.4-1.28 0-0.533 0.133-1.267 0.4-2.2 0.348-1.252 0.614-2.545 0.801-3.879z" fill="url(#q)"/>
		<radialGradient id="r" cx="9.2959" cy="-2.3169" r="8.5519" gradientTransform="matrix(.3064 .739 .739 -.3064 15.175 23.581)" gradientUnits="userSpaceOnUse">
		<stop stop-color="#FF7D7D" offset="0"/>
		<stop stop-color="#F51919" offset="1"/>
	</radialGradient>
	<path d="m15.15 37.28c0.213-0.027 0.4-0.147 0.56-0.36 0.133-0.24 0.173-0.521 0.12-0.84-0.08-0.347-0.267-0.44-0.56-0.28-0.187 0.08-0.347 0.254-0.48 0.52-0.16 0.268-0.187 0.507-0.08 0.721 0.08 0.212 0.227 0.292 0.44 0.239zm1.08-1.08c0.267 0.267 0.626 0.133 1.08-0.4 0.16-0.187 0.227-0.387 0.2-0.6-0.054-0.24-0.267-0.32-0.641-0.24-0.266 0.053-0.48 0.227-0.64 0.52-0.186 0.293-0.186 0.533 1e-3 0.72zm0.48-3.28c-0.32 0.319-0.493 0.64-0.52 0.96-0.053 0.347 0.066 0.52 0.36 0.52s0.587-0.227 0.88-0.68c0.32-0.427 0.466-0.76 0.439-1-0.026-0.24-0.173-0.333-0.439-0.28-0.213 0.027-0.453 0.186-0.72 0.48zm-0.68-1.16c0.027 0.4 0.28 0.467 0.76 0.2 0.454-0.267 0.747-0.573 0.88-0.92 0.133-0.294 0.187-0.479 0.16-0.56-0.054-0.107-0.213-0.174-0.48-0.2s-0.561 0.106-0.88 0.399c-0.32 0.321-0.467 0.681-0.44 1.081zm3.76 0.24c-0.24-0.054-0.547 0.066-0.92 0.36-0.373 0.293-0.6 0.613-0.68 0.959-0.08 0.374 0.053 0.547 0.4 0.521 0.32 0 0.627-0.16 0.92-0.479 0.267-0.294 0.427-0.574 0.479-0.841 0.054-0.293-0.012-0.466-0.199-0.52zm-1.2-1.04c0.027 0.427 0.374 0.36 1.04-0.2 0.693-0.586 0.854-0.946 0.48-1.08-0.32-0.106-0.654-0.026-1 0.24-0.373 0.267-0.547 0.613-0.52 1.04zm-2.88 2.6c-0.24 0-0.493 0.134-0.76 0.4-0.293 0.293-0.427 0.653-0.4 1.08 0.027 0.32 0.174 0.467 0.44 0.439 0.267-0.026 0.507-0.187 0.72-0.479 0.187-0.294 0.293-0.601 0.32-0.92 0-0.347-0.107-0.52-0.32-0.52zm-0.12-1.96c-0.24-0.187-0.6 0.08-1.08 0.8-0.134 0.24-0.121 0.494 0.04 0.761 0.133 0.239 0.293 0.227 0.48-0.04l0.36-0.561c0.267-0.586 0.333-0.907 0.2-0.96zm4.44-2.161c0.746 0.054 0.813 0.521 0.199 1.4-0.24 0.347-0.626 0.587-1.16 0.72l0.761 0.04c0.479 0.134 0.666 0.427 0.56 0.88-0.24 0.881-0.854 1.467-1.84 1.76-0.213 0.08-0.44 0.121-0.68 0.121h-0.32l0.16 0.239c0.107 0.187 0.12 0.427 0.04 0.72-0.08 0.32-0.187 0.561-0.32 0.721-0.08 0.08-0.28 0.199-0.6 0.359-0.293 0.16-0.547 0.188-0.76 0.08-0.187 0.427-0.427 0.707-0.72 0.84-0.187 0.107-0.374 0.12-0.56 0.041-0.16-0.08-0.24-0.188-0.24-0.32v-0.2c-0.373 0.347-0.693 0.479-0.96 0.399-0.24-0.106-0.307-0.399-0.2-0.879-0.026 0.293 0.041 0.52 0.2 0.68 0.134 0.16 0.28 0.12 0.44-0.12 0.187-0.24 0.307-0.521 0.359-0.84l0.041-0.4c-0.107-0.16-0.24-0.253-0.4-0.28-0.17 0-0.33 0.12-0.48 0.36l0.2-0.36c-0.08-0.053-0.16-0.146-0.24-0.279 0.106 0.106 0.227 0.133 0.36 0.08 0.106-0.054 0.187-0.146 0.24-0.28 0.106-0.24 0.173-0.521 0.2-0.84 0.053-0.374 0.04-0.561-0.04-0.561-0.48 0-0.773 0.307-0.88 0.92v0.4c-0.026-0.187-0.026-0.4 0-0.64 0.214-0.773 0.547-1.08 1-0.92-0.213-0.107-0.24-0.414-0.08-0.92 0.107-0.4 0.307-0.734 0.6-1 0.24-0.24 0.44-0.334 0.6-0.28l0.32 0.04c0.32-0.587 0.787-0.946 1.4-1.08 0.613-0.16 0.894-0.134 0.84 0.08l0.64-0.36c0.507-0.24 0.946-0.347 1.32-0.321z" fill="url(#r)"/>
		<radialGradient id="t" cx="13.202" cy="4.0728" r=".4202" gradientTransform="matrix(.3094 .7377 .7377 -.3094 5.7407 27.521)" gradientUnits="userSpaceOnUse">
		<stop stop-color="#FF7D7D" offset="0"/>
		<stop stop-color="#F51919" offset="1"/>
	</radialGradient>
	<path d="m13.11 35.92c-0.214 0.267-0.347 0.387-0.4 0.36s-0.08-0.094-0.08-0.2l0.04-0.12 0.08 0.08c0.054 0.08 0.173 0.04 0.36-0.12z" fill="url(#t)"/>
		<radialGradient id="u" cx="15.208" cy="-3.165" r="1.2606" gradientTransform="matrix(.3094 .7377 .7377 -.3094 16.42 23.042)" gradientUnits="userSpaceOnUse">
		<stop stop-color="#FF7D7D" offset="0"/>
		<stop stop-color="#F51919" offset="1"/>
	</radialGradient>
	<path d="m18.27 35.84c0.133 0.134 0.373 0.106 0.72-0.08 0.32-0.187 0.494-0.44 0.52-0.76 0 0.399-0.134 0.706-0.399 0.92-0.374 0.267-0.654 0.24-0.841-0.08z" fill="url(#u)"/>
		<radialGradient id="v" cx="12.958" cy="-8.1108" r="1.451" gradientTransform="matrix(.3101 .7374 .7374 -.3101 23.712 19.969)" gradientUnits="userSpaceOnUse">
		<stop stop-color="#FF7D7D" offset="0"/>
		<stop stop-color="#F51919" offset="1"/>
	</radialGradient>
	<path d="m21.31 33.04c0.24 0.026 0.494-0.094 0.76-0.36 0.24-0.24 0.32-0.56 0.24-0.96 0.214 0.267 0.214 0.613 0 1.04-0.241 0.427-0.574 0.52-1 0.28z" fill="url(#v)"/>
		<radialGradient id="w" cx="16.361" cy="-5.5771" r="1.3952" gradientTransform="matrix(.3082 .7382 .7382 -.3082 19.985 21.562)" gradientUnits="userSpaceOnUse">
		<stop stop-color="#FF7D7D" offset="0"/>
		<stop stop-color="#F51919" offset="1"/>
	</radialGradient>
	<path d="m20.27 36c0.24 0.106 0.534 0.04 0.88-0.2 0.32-0.24 0.547-0.467 0.681-0.68-0.054 0.506-0.28 0.84-0.681 1-0.239 0.08-0.467 0.08-0.68 0l-0.2-0.12z" fill="url(#w)"/>
		<radialGradient id="x" cx="17.519" cy="-1.4102" r=".8635" gradientTransform="matrix(.3011 .7412 .7412 -.3011 13.841 24.151)" gradientUnits="userSpaceOnUse">
		<stop stop-color="#FF7D7D" offset="0"/>
		<stop stop-color="#F51919" offset="1"/>
	</radialGradient>
	<path d="m18.75 37.439c0 0.294-0.173 0.454-0.52 0.48-0.187 0-0.347-0.04-0.48-0.12l-0.12-0.12 0.2 0.04c0.133 0.026 0.266 0.026 0.4 0 0.213-0.052 0.387-0.146 0.52-0.28z" fill="url(#x)"/>
		<radialGradient id="y" cx="16.842" cy=".8037" r="1.0702" gradientTransform="matrix(.3084 .7382 .7382 -.3084 10.564 25.495)" gradientUnits="userSpaceOnUse">
		<stop stop-color="#FF7D7D" offset="0"/>
		<stop stop-color="#F51919" offset="1"/>
	</radialGradient>
	<path d="m16.99 37.52l0.04 0.2c0 0.16-0.066 0.32-0.2 0.48-0.24 0.267-0.56 0.279-0.96 0.039 0.32 0 0.561-0.053 0.72-0.159 0.16-0.08 0.293-0.267 0.4-0.56z" fill="url(#y)"/>
		<radialGradient id="z" cx="16.959" cy="2.7896" r=".8241" gradientTransform="matrix(.3034 .7402 .7402 -.3034 7.6202 26.692)" gradientUnits="userSpaceOnUse">
		<stop stop-color="#FF7D7D" offset="0"/>
		<stop stop-color="#F51919" offset="1"/>
	</radialGradient>
	<path d="m15.27 38.239c0.053 0.16 0.04 0.307-0.04 0.44s-0.2 0.214-0.36 0.24c-0.107 0.026-0.2 0.026-0.28 0l-0.08-0.04c0.24 0.026 0.413-0.014 0.52-0.12l0.24-0.52z" fill="url(#z)"/>
		<radialGradient id="o" cx="16.638" cy="5.7217" r=".6385" gradientTransform="matrix(.3132 .7361 .7361 -.3132 3.3259 28.585)" gradientUnits="userSpaceOnUse">
		<stop stop-color="#FF7D7D" offset="0"/>
		<stop stop-color="#F51919" offset="1"/>
	</radialGradient>
	<path d="m13.19 38.92c0.053 0.187-0.027 0.333-0.24 0.44-0.24 0.106-0.4 0.066-0.48-0.121l0.28 0.041c0.106 0 0.253-0.12 0.44-0.36z" fill="url(#o)"/>
		<radialGradient id="p" cx="15.923" cy="3.8149" r=".801" gradientTransform="matrix(.3121 .7366 .7366 -.3121 6.1303 27.381)" gradientUnits="userSpaceOnUse">
		<stop stop-color="#FF7D7D" offset="0"/>
		<stop stop-color="#F51919" offset="1"/>
	</radialGradient>
	<path d="m14.43 37.8c-0.054 0.293-0.187 0.48-0.4 0.561-0.24 0.106-0.4 0.066-0.48-0.121l0.44 0.041c0.134-0.054 0.28-0.215 0.44-0.481z" fill="url(#p)"/>
		<radialGradient id="b" cx="9.3608" cy="-4.3594" r="10.928" gradientTransform="matrix(.2086 .7723 .7723 -.2086 18.484 23.181)" gradientUnits="userSpaceOnUse">
		<stop stop-color="#F58758" offset="0"/>
		<stop stop-color="#BD5206" offset="1"/>
	</radialGradient>
	<path d="m15.23 30.04c-0.16 0.507-0.36 0.813-0.6 0.92s-0.32 0-0.24-0.32c0.134-0.479 0.32-0.76 0.561-0.84 0.239-0.054 0.332 0.026 0.279 0.24z" fill="url(#b)"/>
		<radialGradient id="a" cx="9.3643" cy="-4.3521" r="10.944" gradientTransform="matrix(.2093 .7721 .7721 -.2093 18.47 23.179)" gradientUnits="userSpaceOnUse">
		<stop stop-color="#F58758" offset="0"/>
		<stop stop-color="#BD5206" offset="1"/>
	</radialGradient>
	<path d="m17.35 30.72c-0.08 0.561-0.333 0.894-0.76 1-0.453 0.106-0.56-0.04-0.32-0.439 0.187-0.347 0.426-0.601 0.72-0.761 0.293-0.133 0.413-0.067 0.36 0.2z" fill="url(#a)"/>
	<path d="m19.71 32.28c0.08 0.479-0.106 0.853-0.561 1.119-0.479 0.268-0.706 0.227-0.68-0.119 0.027-0.294 0.24-0.587 0.641-0.881 0.373-0.293 0.573-0.333 0.6-0.119z" fill="url(#a)"/>
	<path d="m21.39 34.84c0.373 0.026 0.387 0.214 0.04 0.56-0.373 0.374-0.72 0.507-1.04 0.4-0.32-0.08-0.32-0.267 0-0.561 0.32-0.293 0.653-0.426 1-0.399z" fill="url(#a)"/>
	<path d="m22.39 37.399c0.347 0 0.32 0.16-0.08 0.48-0.399 0.32-0.72 0.453-0.96 0.4-0.213-0.08-0.16-0.24 0.16-0.48 0.346-0.266 0.639-0.4 0.88-0.4z" fill="url(#b)"/>
	<path d="m15.39 31.8c-0.026 0.373-0.16 0.693-0.4 0.96-0.213 0.267-0.333 0.253-0.36-0.04-0.026-0.267 0.107-0.533 0.4-0.8 0.293-0.32 0.413-0.36 0.36-0.12z" fill="url(#b)"/>
	<path d="m17.51 32.64c0.293 0.214 0.253 0.521-0.121 0.92-0.346 0.4-0.64 0.561-0.879 0.48-0.187-0.107-0.121-0.4 0.2-0.88 0.32-0.454 0.586-0.627 0.8-0.52z" fill="url(#a)"/>
	<path d="m19.31 34.84c0.16 0.187 0.066 0.413-0.279 0.68-0.347 0.294-0.561 0.36-0.641 0.2-0.106-0.16-0.013-0.387 0.28-0.68 0.293-0.32 0.507-0.387 0.64-0.2z" fill="url(#a)"/>
	<path d="m20.47 37.16c0.08 0.213-0.066 0.453-0.439 0.72-0.374 0.24-0.627 0.267-0.761 0.08-0.133-0.16 0.014-0.373 0.44-0.641 0.427-0.265 0.68-0.319 0.76-0.159z" fill="url(#a)"/>
	<path d="m20.39 39.439c0.48 0.027 0.561 0.134 0.24 0.32-0.347 0.187-0.641 0.24-0.88 0.16-0.214-0.054-0.214-0.146 0-0.28 0.187-0.132 0.399-0.2 0.64-0.2z" fill="url(#a)"/>
	<path d="m14.07 33.68c0.054 0.374 0 0.707-0.16 1-0.187 0.294-0.307 0.28-0.36-0.04-0.053-0.293 0.014-0.573 0.2-0.84s0.293-0.307 0.32-0.12z" fill="url(#b)"/>
	<path d="m15.43 33.88c0.373-0.106 0.466 0.094 0.28 0.6-0.187 0.48-0.44 0.747-0.76 0.801-0.213 0-0.254-0.214-0.12-0.641 0.133-0.427 0.333-0.68 0.6-0.76z" fill="url(#a)"/>
	<path d="m17.11 35.12c0.293 0.026 0.307 0.227 0.04 0.6-0.267 0.347-0.507 0.493-0.72 0.44-0.187-0.08-0.187-0.267 0-0.561 0.213-0.319 0.44-0.479 0.68-0.479z" fill="url(#b)"/>
	<path d="m18.47 37c0.293 0.133 0.333 0.267 0.12 0.399-0.187 0.134-0.427 0.2-0.72 0.2-0.24 0-0.24-0.12 0-0.36 0.24-0.213 0.44-0.293 0.6-0.239z" fill="url(#b)"/>
	<path d="m19.03 38.92c0.399 0.054 0.466 0.16 0.199 0.319-0.24 0.134-0.506 0.2-0.799 0.2-0.24 0-0.254-0.093-0.041-0.279 0.188-0.186 0.401-0.266 0.641-0.24z" fill="url(#b)"/>
	<path d="m13.95 35.64c0.293-0.133 0.373 0.066 0.24 0.6s-0.307 0.747-0.52 0.641c-0.16-0.08-0.2-0.28-0.12-0.6 0.08-0.321 0.213-0.535 0.4-0.641z" fill="url(#a)"/>
	<path d="m15.47 35.96c0.267 0.026 0.28 0.253 0.041 0.68-0.214 0.427-0.4 0.561-0.56 0.4-0.133-0.16-0.133-0.387 0-0.68 0.132-0.294 0.305-0.427 0.519-0.4z" fill="url(#a)"/>
	<path d="m16.63 37.28c0.267 0.026 0.32 0.159 0.16 0.399-0.186 0.24-0.426 0.374-0.72 0.4-0.267 0.026-0.28-0.106-0.04-0.4 0.213-0.266 0.413-0.399 0.6-0.399z" fill="url(#a)"/>
	<path d="m17.31 38.84c0.267 0 0.32 0.106 0.16 0.32-0.16 0.187-0.387 0.293-0.68 0.319-0.293 0.027-0.32-0.08-0.08-0.319 0.213-0.214 0.414-0.32 0.6-0.32z" fill="url(#b)"/>
	<path d="m14.11 37.319c0.293-0.106 0.386-0.013 0.279 0.28-0.133 0.294-0.32 0.493-0.56 0.601-0.213 0.08-0.253-0.027-0.12-0.32s0.268-0.481 0.401-0.561z" fill="url(#a)"/>
	<path d="m14.87 38.08c0.267-0.187 0.347-0.12 0.24 0.2-0.08 0.319-0.227 0.506-0.44 0.56-0.187 0.026-0.227-0.066-0.12-0.28 0.08-0.213 0.187-0.373 0.32-0.48z" fill="url(#a)"/>
	<path d="m15.91 38.92c0.186 0 0.213 0.093 0.08 0.28-0.133 0.213-0.32 0.333-0.56 0.359-0.24 0.027-0.267-0.066-0.08-0.279 0.213-0.24 0.4-0.36 0.56-0.36z" fill="url(#b)"/>
	<path d="m13.03 37.16c-0.08 0.507-0.174 0.772-0.28 0.8-0.08 0.026-0.133-0.106-0.16-0.4-0.026-0.213 0.054-0.387 0.24-0.52 0.16-0.107 0.227-0.066 0.2 0.12z" fill="url(#a)"/>
	<path d="m13.07 38.439c0.08 0.214 0.041 0.4-0.12 0.561s-0.293 0.187-0.4 0.08c-0.106-0.08-0.053-0.227 0.16-0.44 0.186-0.213 0.307-0.28 0.36-0.201z" fill="url(#a)"/>
	<path d="m14.07 39.36c0.213 0 0.253 0.093 0.12 0.279s-0.32 0.28-0.56 0.28c-0.213 0-0.24-0.094-0.08-0.28 0.187-0.186 0.36-0.279 0.52-0.279z" fill="url(#a)"/>
	<path d="m13.15 35.16c0.027 0.239-0.04 0.439-0.2 0.6-0.133 0.16-0.2 0.146-0.2-0.04 0-0.16 0.067-0.333 0.2-0.52 0.107-0.16 0.174-0.174 0.2-0.04z" fill="url(#a)"/>
		<radialGradient id="s" cx="9.3633" cy="-4.355" r="10.956" gradientTransform="matrix(.209 .7722 .7722 -.209 18.476 23.179)" gradientUnits="userSpaceOnUse">
		<stop stop-color="#F58758" offset="0"/>
		<stop stop-color="#BD5206" offset="1"/>
	</radialGradient>
	<path d="m13.83 31.8c0 0.427-0.054 0.72-0.16 0.88-0.106 0.134-0.173 0.054-0.2-0.24-0.026-0.267 0.027-0.479 0.16-0.64 0.133-0.187 0.2-0.187 0.2 0z" fill="url(#s)"/>
	<path d="m17.23 29c0.374-0.026 0.507 0.054 0.4 0.24-0.106 0.213-0.374 0.373-0.8 0.479-0.427 0.134-0.534 0.054-0.32-0.239 0.186-0.293 0.427-0.454 0.72-0.48z" fill="url(#a)"/>
	<path d="m19.55 29.8c0.507-0.133 0.613 0 0.32 0.4-0.294 0.399-0.561 0.587-0.801 0.56-0.213-0.026-0.239-0.173-0.08-0.439 0.134-0.295 0.321-0.467 0.561-0.521z" fill="url(#b)"/>
	<path d="m21.79 31.72c0.427 0.106 0.52 0.347 0.279 0.72-0.266 0.374-0.506 0.507-0.72 0.4-0.187-0.08-0.213-0.294-0.08-0.64 0.134-0.346 0.307-0.507 0.521-0.48z" fill="url(#b)"/>
	<path d="m23.43 34.04c0.106 0.479 0.066 0.813-0.12 1-0.187 0.16-0.333 0.08-0.439-0.24-0.08-0.267-0.027-0.507 0.16-0.72 0.212-0.24 0.345-0.254 0.399-0.04z" fill="url(#a)"/>
	<path d="m24.59 36.439c0.026 0.24-0.08 0.48-0.32 0.721-0.213 0.239-0.399 0.279-0.56 0.12-0.134-0.134-0.027-0.36 0.32-0.681 0.346-0.319 0.533-0.372 0.56-0.16z" fill="url(#a)"/>
	<path d="m19.75 28.8c0.319 0.054 0.399 0.134 0.239 0.24-0.133 0.08-0.319 0.093-0.56 0.04-0.213-0.026-0.24-0.094-0.08-0.2 0.134-0.08 0.267-0.107 0.401-0.08z" fill="url(#b)"/>
	<path d="m21.27 29.8c0.4-0.133 0.534-0.054 0.4 0.24-0.16 0.347-0.32 0.493-0.48 0.44-0.106-0.027-0.133-0.134-0.079-0.32 0.026-0.186 0.078-0.306 0.159-0.36z" fill="url(#b)"/>
	<path d="m23.31 31.56c0.054 0.373 0.027 0.601-0.08 0.68-0.08 0.107-0.146 0.041-0.199-0.199-0.027-0.214 0-0.4 0.08-0.561 0.106-0.16 0.172-0.133 0.199 0.08z" fill="url(#a)"/>
	<path d="m24.67 33.479c0 0.4-0.054 0.681-0.16 0.84-0.08 0.16-0.173 0.16-0.28 0-0.08-0.133-0.026-0.373 0.16-0.72 0.16-0.319 0.254-0.36 0.28-0.12z" fill="url(#b)"/>
	<path d="m23.87 35.36c0.267-0.214 0.52-0.507 0.76-0.881 0.507-0.746 0.76-1.506 0.76-2.279-0.026-0.907-0.373-1.613-1.04-2.12l0.36 0.16c0.32 0.187 0.627 0.467 0.92 0.84 0.32 0.399 0.493 1 0.52 1.8 0.027 0.746-0.066 1.28-0.279 1.6-0.321 0.533-0.988 0.827-2.001 0.88z" fill="#649433"/>
</g>
</svg>
