<?xml version="1.0" encoding="utf-8"?>
<!-- Generator: Adobe Illustrator 15.1.0, SVG Export Plug-In . SVG Version: 6.00 Build 0)  -->
<!DOCTYPE svg PUBLIC "-//W3C//DTD SVG 1.1//EN" "http://www.w3.org/Graphics/SVG/1.1/DTD/svg11.dtd">
<svg version="1.1" id="Layer_1" xmlns="http://www.w3.org/2000/svg" xmlns:xlink="http://www.w3.org/1999/xlink" x="0px" y="0px"
	 width="792px" height="612px" viewBox="0 0 792 612" enable-background="new 0 0 792 612" xml:space="preserve">
<g>
	<path fill="#FFFFFF" d="M321.566,180.503c-69.3-71.745-183.655-73.74-255.428-4.426c-71.748,69.315-73.741,183.655-4.426,255.416
		c69.3,71.746,183.655,73.74,255.414,4.453C388.889,366.632,390.869,252.278,321.566,180.503z"/>
	<polygon fill="#F47821" points="39.2,190.913 76.847,153.278 345.924,422.367 308.29,460.003 	"/>
	<polygon fill="#F47821" points="308.277,153.278 345.924,190.913 76.834,460.003 39.187,422.367 	"/>
	<path fill="#F47821" d="M306.432,195.967c-60.189-62.32-159.478-64.041-221.812-3.878c-62.292,60.189-64.027,159.502-3.838,221.809
		c60.176,62.321,159.478,64.041,221.796,3.867C364.886,357.573,366.621,258.274,306.432,195.967z M97.735,397.518
		c-51.146-52.936-49.669-137.317,3.279-188.463c52.948-51.146,137.333-49.67,188.465,3.279
		c51.132,52.948,49.669,137.344-3.266,188.476C233.25,451.958,148.867,450.469,97.735,397.518z"/>
</g>
<g>
	<path fill="#FFFFFF" d="M702.344,180.498c-69.313-71.733-183.652-73.741-255.429-4.426c-71.747,69.316-73.741,183.642-4.427,255.4
		c69.302,71.775,183.645,73.77,255.416,4.455C769.666,366.624,771.645,252.272,702.344,180.498z"/>
	<path fill="#3FC2D0" d="M685.242,197.027c-60.189-62.306-159.476-64.042-221.799-3.852c-62.318,60.176-64.04,159.475-3.852,221.796
		c60.178,62.32,159.478,64.041,221.782,3.893C743.695,358.647,745.417,259.348,685.242,197.027z M476.533,398.604
		c-51.133-52.962-49.671-137.344,3.277-188.476c52.962-51.146,137.347-49.685,188.479,3.264
		c51.146,52.963,49.672,137.345-3.278,188.478C612.06,453.016,527.679,451.555,476.533,398.604z"/>
	<polygon fill="#3FC2D0" points="559.016,421.01 522.036,382.718 743.602,168.721 780.595,207.026 	"/>
	<polygon fill="#3FC2D0" points="596.214,384.003 557.908,420.981 443.554,302.571 481.859,265.577 	"/>
</g>
</svg>
