<?xml version="1.0" encoding="UTF-8"?>
<svg viewBox="0 0 744.09448819 1052.3622047" xmlns="http://www.w3.org/2000/svg">
 <path d="m134.02 574.51v-108.9s0-4.1883 5.8588-4.1883 5.8588 4.1883 5.8588 4.1883v108.9s0.19793 4.0808-5.8588 4.1883c-5.2965 0.094-5.8588-4.1883-5.8588-4.1883z" fill="#c83737"/>
 <path d="m145.74 569.68-11.718-4.5105v-9.0209l11.718 4.5105z" fill="#fae"/>
 <path d="m145.74 551.64-11.718-4.5105v-9.0209l11.718 4.5105z" fill="#fae"/>
 <path d="m145.74 533.6-11.718-4.5105v-9.0209l11.718 4.5105z" fill="#fae"/>
 <path d="m145.74 515.56-11.718-4.5105v-9.0209l11.718 4.5105z" fill="#fae"/>
 <path d="m145.74 497.51-11.718-4.5105v-9.0209l11.718 4.5105z" fill="#fae"/>
 <path d="m145.74 479.47-11.718-4.5105v-9.0209l11.718 4.5105z" fill="#fae"/>
 <path transform="matrix(0 -1.6168 1.6232 0 20.384 585.86)" d="m170.41 74.988c0 26.946-21.686 48.79-48.437 48.79s-48.437-21.844-48.437-48.79 21.686-48.79 48.437-48.79 48.429 21.835 48.437 48.775" fill="#f16280" stroke="#ffad91" stroke-width="2.3119"/>
 <path transform="matrix(0 -1.3102 1.4529 0 33.109 548.82)" d="m170.41 74.988c0 26.946-21.686 48.79-48.437 48.79s-48.437-21.844-48.437-48.79 21.686-48.79 48.437-48.79 48.429 21.835 48.437 48.775" fill="#ffaf8f"/>
 <path transform="matrix(0 -.84307 .96739 0 72.213 493.6)" d="m170.41 74.988c0 26.946-21.686 48.79-48.437 48.79s-48.437-21.844-48.437-48.79 21.686-48.79 48.437-48.79 48.429 21.835 48.437 48.775" fill="#f16280"/>
 <path transform="matrix(0 -1.3113 .97059 0 78.348 510.48)" d="m115.97 57.311c0 19.917-11.951 36.062-26.693 36.062s-26.693-16.146-26.693-36.062 11.951-36.062 26.693-36.062 26.689 16.139 26.693 36.051" fill="#ffaf8f"/>
 <path transform="matrix(0 -.96026 .72059 0 99.57 475.79)" d="m115.97 57.311c0 19.917-11.951 36.062-26.693 36.062s-26.693-16.146-26.693-36.062 11.951-36.062 26.693-36.062 26.689 16.139 26.693 36.051" fill="#f16280"/>
 <path transform="matrix(0 -.22517 .17157 0 127.85 418.47)" d="m115.97 57.311c0 19.917-11.951 36.062-26.693 36.062s-26.693-16.146-26.693-36.062 11.951-36.062 26.693-36.062 26.689 16.139 26.693 36.051" fill="#ffaf8f"/>
 <path transform="matrix(0 -.8607 .91469 0 91.631 446.49)" d="m60.811 52.007c3.244 2.6235-1.936 5.6672-4.3605 5.3917-6.5702-0.74653-8.4716-8.8599-6.4229-14.113 3.6647-9.3959 15.517-11.704 23.865-7.4541 12.251 6.2377 15.021 22.26 8.4853 33.617-8.7117 15.137-29.033 18.374-43.369 9.5165-18.041-11.146-21.744-35.82-10.548-53.121 13.56-20.954 42.615-25.124 62.874-11.579 23.874 15.963 28.511 49.415 12.61 72.626-18.358 26.798-56.218 31.902-82.378 13.641-29.724-20.75-35.297-63.024-14.672-92.13 23.138-32.652 69.832-38.694 101.88-15.704 35.582 25.523 42.092 76.64 16.735 111.63" fill="none" stroke="#fff" stroke-width="2.9951"/>
 <path transform="matrix(0 -1.6168 1.6232 0 20.384 585.86)" d="m170.41 74.988c0 26.946-21.686 48.79-48.437 48.79s-48.437-21.844-48.437-48.79 21.686-48.79 48.437-48.79 48.429 21.835 48.437 48.775" fill="#f16280" stroke="#ffad91" stroke-width="2.3119"/>
 <path transform="matrix(0 -1.3102 1.4529 0 33.109 548.82)" d="m170.41 74.988c0 26.946-21.686 48.79-48.437 48.79s-48.437-21.844-48.437-48.79 21.686-48.79 48.437-48.79 48.429 21.835 48.437 48.775" fill="#ffaf8f"/>
 <path transform="matrix(0 -.84307 .96739 0 72.213 493.6)" d="m170.41 74.988c0 26.946-21.686 48.79-48.437 48.79s-48.437-21.844-48.437-48.79 21.686-48.79 48.437-48.79 48.429 21.835 48.437 48.775" fill="#f16280"/>
 <path transform="matrix(0 -1.3113 .97059 0 78.348 510.48)" d="m115.97 57.311c0 19.917-11.951 36.062-26.693 36.062s-26.693-16.146-26.693-36.062 11.951-36.062 26.693-36.062 26.689 16.139 26.693 36.051" fill="#ffaf8f"/>
 <path transform="matrix(0 -.96026 .72059 0 99.57 475.79)" d="m115.97 57.311c0 19.917-11.951 36.062-26.693 36.062s-26.693-16.146-26.693-36.062 11.951-36.062 26.693-36.062 26.689 16.139 26.693 36.051" fill="#f16280"/>
 <path transform="matrix(0 -.22517 .17157 0 127.85 418.47)" d="m115.97 57.311c0 19.917-11.951 36.062-26.693 36.062s-26.693-16.146-26.693-36.062 11.951-36.062 26.693-36.062 26.689 16.139 26.693 36.051" fill="#ffaf8f"/>
 <path transform="matrix(0 -.8607 .91469 0 91.631 446.49)" d="m60.811 52.007c3.244 2.6235-1.936 5.6672-4.3605 5.3917-6.5702-0.74653-8.4716-8.8599-6.4229-14.113 3.6647-9.3959 15.517-11.704 23.865-7.4541 12.251 6.2377 15.021 22.26 8.4853 33.617-8.7117 15.137-29.033 18.374-43.369 9.5165-18.041-11.146-21.744-35.82-10.548-53.121 13.56-20.954 42.615-25.124 62.874-11.579 23.874 15.963 28.511 49.415 12.61 72.626-18.358 26.798-56.218 31.902-82.378 13.641-29.724-20.75-35.297-63.024-14.672-92.13 23.138-32.652 69.832-38.694 101.88-15.704 35.582 25.523 42.092 76.64 16.735 111.63" fill="none" stroke="#fff" stroke-width="2.9951"/>
 <path d="m320.02 574.51v-108.9s0-4.1883 5.8588-4.1883 5.8588 4.1883 5.8588 4.1883v108.9s0.19793 4.0808-5.8588 4.1883c-5.2965 0.094-5.8588-4.1883-5.8588-4.1883z" fill="#739322"/>
 <path d="m331.74 569.68-11.718-4.5105v-9.0209l11.718 4.5105z" fill="#d6f24b"/>
 <path d="m331.74 551.64-11.718-4.5105v-9.0209l11.718 4.5105z" fill="#d6f24b"/>
 <path d="m331.74 533.6-11.718-4.5105v-9.0209l11.718 4.5105z" fill="#d6f24b"/>
 <path d="m331.74 515.56-11.718-4.5105v-9.0209l11.718 4.5105z" fill="#d6f24b"/>
 <path d="m331.74 497.51-11.718-4.5105v-9.0209l11.718 4.5105z" fill="#d6f24b"/>
 <path d="m331.74 479.47-11.718-4.5105v-9.0209l11.718 4.5105z" fill="#d6f24b"/>
 <path transform="matrix(0 -1.6168 1.6232 0 206.38 585.86)" d="m170.41 74.988a48.437 48.79 0 1 1 0 -0.01492" fill="#84b080" stroke="#b9dc6c" stroke-width="2.3119"/>
 <path transform="matrix(0 -1.3102 1.4529 0 219.11 548.82)" d="m170.41 74.988a48.437 48.79 0 1 1 0 -0.01492" fill="#b9dc6c"/>
 <path transform="matrix(0 -.84307 .96739 0 258.21 493.6)" d="m170.41 74.988a48.437 48.79 0 1 1 0 -0.01492" fill="#84b080"/>
 <path transform="matrix(0 -1.3113 .97059 0 264.35 510.48)" d="m115.97 57.311a26.693 36.062 0 1 1 0 -0.01102" fill="#b9dc6c"/>
 <path transform="matrix(0 -.96026 .72059 0 285.57 475.79)" d="m115.97 57.311a26.693 36.062 0 1 1 0 -0.01102" fill="#84b080"/>
 <path transform="matrix(0 -.22517 .17157 0 313.85 418.47)" d="m115.97 57.311a26.693 36.062 0 1 1 0 -0.01102" fill="#b9dc6c"/>
 <path transform="matrix(0 -.8607 .91469 0 277.63 446.49)" d="m60.811 52.007c3.244 2.6235-1.936 5.6672-4.3605 5.3917-6.5702-0.74653-8.4716-8.8599-6.4229-14.113 3.6647-9.3959 15.517-11.704 23.865-7.4541 12.251 6.2377 15.021 22.26 8.4853 33.617-8.7117 15.137-29.033 18.374-43.369 9.5165-18.041-11.146-21.744-35.82-10.548-53.121 13.56-20.954 42.615-25.124 62.874-11.579 23.874 15.963 28.511 49.415 12.61 72.626-18.358 26.798-56.218 31.902-82.378 13.641-29.724-20.75-35.297-63.024-14.672-92.13 23.138-32.652 69.832-38.694 101.88-15.704 35.582 25.523 42.092 76.64 16.735 111.63" fill="none" stroke="#fff" stroke-width="2.9951"/>
 <path d="m145.74 569.68-11.718-4.5105v-9.0209l11.718 4.5105z" fill="#fae"/>
 <path d="m145.74 551.64-11.718-4.5105v-9.0209l11.718 4.5105z" fill="#fae"/>
 <path d="m145.74 533.6-11.718-4.5105v-9.0209l11.718 4.5105z" fill="#fae"/>
 <path d="m145.74 515.56-11.718-4.5105v-9.0209l11.718 4.5105z" fill="#fae"/>
 <path d="m145.74 497.51-11.718-4.5105v-9.0209l11.718 4.5105z" fill="#fae"/>
 <path d="m145.74 479.47-11.718-4.5105v-9.0209l11.718 4.5105z" fill="#fae"/>
 <path transform="matrix(0 -1.6168 1.6232 0 20.384 585.86)" d="m170.41 74.988c0 26.946-21.686 48.79-48.437 48.79s-48.437-21.844-48.437-48.79 21.686-48.79 48.437-48.79 48.429 21.835 48.437 48.775" fill="#f16280" stroke="#ffad91" stroke-width="2.3119"/>
 <path transform="matrix(0 -1.3102 1.4529 0 33.109 548.82)" d="m170.41 74.988c0 26.946-21.686 48.79-48.437 48.79s-48.437-21.844-48.437-48.79 21.686-48.79 48.437-48.79 48.429 21.835 48.437 48.775" fill="#ffaf8f"/>
 <path transform="matrix(0 -.84307 .96739 0 72.213 493.6)" d="m170.41 74.988c0 26.946-21.686 48.79-48.437 48.79s-48.437-21.844-48.437-48.79 21.686-48.79 48.437-48.79 48.429 21.835 48.437 48.775" fill="#f16280"/>
 <path transform="matrix(0 -1.3113 .97059 0 78.348 510.48)" d="m115.97 57.311c0 19.917-11.951 36.062-26.693 36.062s-26.693-16.146-26.693-36.062 11.951-36.062 26.693-36.062 26.689 16.139 26.693 36.051" fill="#ffaf8f"/>
 <path transform="matrix(0 -.96026 .72059 0 99.57 475.79)" d="m115.97 57.311c0 19.917-11.951 36.062-26.693 36.062s-26.693-16.146-26.693-36.062 11.951-36.062 26.693-36.062 26.689 16.139 26.693 36.051" fill="#f16280"/>
 <path transform="matrix(0 -.22517 .17157 0 127.85 418.47)" d="m115.97 57.311c0 19.917-11.951 36.062-26.693 36.062s-26.693-16.146-26.693-36.062 11.951-36.062 26.693-36.062 26.689 16.139 26.693 36.051" fill="#ffaf8f"/>
 <path transform="matrix(0 -.8607 .91469 0 91.631 446.49)" d="m60.811 52.007c3.244 2.6235-1.936 5.6672-4.3605 5.3917-6.5702-0.74653-8.4716-8.8599-6.4229-14.113 3.6647-9.3959 15.517-11.704 23.865-7.4541 12.251 6.2377 15.021 22.26 8.4853 33.617-8.7117 15.137-29.033 18.374-43.369 9.5165-18.041-11.146-21.744-35.82-10.548-53.121 13.56-20.954 42.615-25.124 62.874-11.579 23.874 15.963 28.511 49.415 12.61 72.626-18.358 26.798-56.218 31.902-82.378 13.641-29.724-20.75-35.297-63.024-14.672-92.13 23.138-32.652 69.832-38.694 101.88-15.704 35.582 25.523 42.092 76.64 16.735 111.63" fill="none" stroke="#fff" stroke-width="2.9951"/>
 <path d="m504.02 574.51v-108.9s0-4.1883 5.8588-4.1883 5.8588 4.1883 5.8588 4.1883v108.9s0.19793 4.0808-5.8588 4.1883c-5.2965 0.094-5.8588-4.1883-5.8588-4.1883z" fill="#5656b7"/>
 <path d="m515.74 569.68-11.718-4.5105v-9.0209l11.718 4.5105z" fill="#aff9ff"/>
 <path d="m515.74 551.64-11.718-4.5105v-9.0209l11.718 4.5105z" fill="#aff9ff"/>
 <path d="m515.74 533.6-11.718-4.5105v-9.0209l11.718 4.5105z" fill="#aff9ff"/>
 <path d="m515.74 515.56-11.718-4.5105v-9.0209l11.718 4.5105z" fill="#aff9ff"/>
 <path d="m515.74 497.51-11.718-4.5105v-9.0209l11.718 4.5105z" fill="#aff9ff"/>
 <path d="m515.74 479.47-11.718-4.5105v-9.0209l11.718 4.5105z" fill="#aff9ff"/>
 <path transform="matrix(0 -1.6168 1.6232 0 390.38 585.86)" d="m170.41 74.988a48.437 48.79 0 1 1 0 -0.01492" fill="#7899c8" stroke="#8ee2de" stroke-width="2.3119"/>
 <path transform="matrix(0 -1.3102 1.4529 0 403.11 548.82)" d="m170.41 74.988a48.437 48.79 0 1 1 0 -0.01492" fill="#8ee2de"/>
 <path transform="matrix(0 -.84307 .96739 0 442.21 493.6)" d="m170.41 74.988a48.437 48.79 0 1 1 0 -0.01492" fill="#7899c8"/>
 <path transform="matrix(0 -1.3113 .97059 0 448.35 510.48)" d="m115.97 57.311a26.693 36.062 0 1 1 0 -0.01102" fill="#8ee2de"/>
 <path transform="matrix(0 -.96026 .72059 0 469.57 475.79)" d="m115.97 57.311a26.693 36.062 0 1 1 0 -0.01102" fill="#7899c8"/>
 <path transform="matrix(0 -.22517 .17157 0 497.85 418.47)" d="m115.97 57.311a26.693 36.062 0 1 1 0 -0.01102" fill="#8ee2de"/>
 <path transform="matrix(0 -.8607 .91469 0 461.63 446.49)" d="m60.811 52.007c3.244 2.6235-1.936 5.6672-4.3605 5.3917-6.5702-0.74653-8.4716-8.8599-6.4229-14.113 3.6647-9.3959 15.517-11.704 23.865-7.4541 12.251 6.2377 15.021 22.26 8.4853 33.617-8.7117 15.137-29.033 18.374-43.369 9.5165-18.041-11.146-21.744-35.82-10.548-53.121 13.56-20.954 42.615-25.124 62.874-11.579 23.874 15.963 28.511 49.415 12.61 72.626-18.358 26.798-56.218 31.902-82.378 13.641-29.724-20.75-35.297-63.024-14.672-92.13 23.138-32.652 69.832-38.694 101.88-15.704 35.582 25.523 42.092 76.64 16.735 111.63" fill="none" stroke="#fff" stroke-width="2.9951"/>
</svg>
