<?xml version='1.0' encoding='utf-8'?>
<svg xmlns:xlink="http://www.w3.org/1999/xlink" xmlns="http://www.w3.org/2000/svg" id="svg8" version="1.1" viewBox="0 0 276.66269 117.65015" height="117.65015mm" width="276.66269mm"> <defs id="defs2"> <linearGradient id="linearGradient8521"> <stop style="stop-color:#87cc87;stop-opacity:1" offset="0" id="stop8515"/> <stop id="stop8517" offset="0.5" style="stop-color:#1d241c;stop-opacity:1"/> <stop style="stop-color:#87cc87;stop-opacity:1" offset="1" id="stop8519"/> </linearGradient> <linearGradient id="linearGradient8510"> <stop style="stop-color:#d5ccd5;stop-opacity:1" offset="0" id="stop8504"/> <stop id="stop8506" offset="0.50690073" style="stop-color:#00cc00;stop-opacity:1"/> <stop style="stop-color:#d5ccd5;stop-opacity:1" offset="1" id="stop8508"/> </linearGradient> <linearGradient id="linearGradient8502"> <stop style="stop-color:#d5ccd5;stop-opacity:1" offset="0" id="stop8496"/> <stop id="stop8498" offset="0.50690073" style="stop-color:#00cc00;stop-opacity:1"/> <stop style="stop-color:#d5ccd5;stop-opacity:1" offset="1" id="stop8500"/> </linearGradient> <linearGradient id="linearGradient8441"> <stop style="stop-color:#007777;stop-opacity:1" offset="0" id="stop8437"/> <stop style="stop-color:#46b3b3;stop-opacity:1" offset="1" id="stop8439"/> </linearGradient> <linearGradient id="linearGradient8428"> <stop id="stop8424" offset="0" style="stop-color:#007777;stop-opacity:1"/> <stop style="stop-color:#007777;stop-opacity:1" offset="0.72008491" id="stop8432"/> <stop id="stop8426" offset="1" style="stop-color:#46b3b3;stop-opacity:1"/> </linearGradient> <linearGradient id="linearGradient8369"> <stop id="stop8365" offset="0" style="stop-color:#005d5d;stop-opacity:1"/> <stop id="stop8367" offset="1" style="stop-color:#46b3b3;stop-opacity:1"/> </linearGradient> <linearGradient id="linearGradient8361"> <stop id="stop8357" offset="0" style="stop-color:#6c5353;stop-opacity:1;"/> <stop id="stop8359" offset="1" style="stop-color:#ac9393;stop-opacity:1"/> </linearGradient> <linearGradient id="linearGradient8267"> <stop id="stop8263" offset="0" style="stop-color:#de8787;stop-opacity:1"/> <stop style="stop-color:#241c1c;stop-opacity:1" offset="0.5" id="stop8273"/> <stop id="stop8265" offset="1" style="stop-color:#de8787;stop-opacity:1"/> </linearGradient> <linearGradient id="linearGradient7487"> <stop id="stop7483" offset="0" style="stop-color:#ffd5d5;stop-opacity:1"/> <stop style="stop-color:#ff0000;stop-opacity:1" offset="0.50690073" id="stop7493"/> <stop id="stop7485" offset="1" style="stop-color:#ffd5d5;stop-opacity:1"/> </linearGradient> <filter height="1.2490019" y="-0.12450094" width="1.1012878" x="-0.050643913" id="filter7515" style="color-interpolation-filters:sRGB"> <feGaussianBlur id="feGaussianBlur7517" stdDeviation="6.6292089"/> </filter> <linearGradient y2="544.21484" x2="345.64258" y1="544.21289" x1="35.183594" gradientUnits="userSpaceOnUse" id="linearGradient7836" xlink:href="#linearGradient7487"/> <linearGradient y2="544.21484" x2="345.64258" y1="544.21289" x1="35.183594" gradientUnits="userSpaceOnUse" id="linearGradient7842" xlink:href="#linearGradient7487"/> <linearGradient gradientUnits="userSpaceOnUse" y2="569.27344" x2="797.62109" y1="566.9375" x1="1064.7949" id="linearGradient8006" xlink:href="#linearGradient7487"/> <filter height="2.191597" y="-0.59579855" width="1.0766302" x="-0.038315117" id="filter8028" style="color-interpolation-filters:sRGB"> <feGaussianBlur id="feGaussianBlur8030" stdDeviation="4.2653317"/> </filter> <filter height="1.4731838" y="-0.23659188" width="1.5971808" x="-0.29859039" id="filter8143" style="color-interpolation-filters:sRGB"> <feGaussianBlur id="feGaussianBlur8145" stdDeviation="0.41759757"/> </filter> <linearGradient gradientUnits="userSpaceOnUse" y2="152.60202" x2="282.04303" y1="152.60202" x1="208.84644" id="linearGradient8269" xlink:href="#linearGradient8267"/> <linearGradient gradientTransform="translate(-0.52916663,1.0583333)" y2="152.60202" x2="282.04303" y1="152.60202" x1="208.84644" gradientUnits="userSpaceOnUse" id="linearGradient8275" xlink:href="#linearGradient8267"/> <linearGradient y2="569.27344" x2="797.62109" y1="566.9375" x1="1064.7949" gradientUnits="userSpaceOnUse" id="linearGradient8279" xlink:href="#linearGradient7487"/> <filter height="2.9570439" y="-0.97852188" width="1.1258552" x="-0.062927619" id="filter8322" style="color-interpolation-filters:sRGB"> <feGaussianBlur id="feGaussianBlur8324" stdDeviation="7.0052547"/> </filter> <filter height="1.217616" y="-0.108808" width="1.0615836" x="-0.030791812" id="filter8350" style="color-interpolation-filters:sRGB"> <feGaussianBlur id="feGaussianBlur8352" stdDeviation="0.81011231"/> </filter> <linearGradient gradientUnits="userSpaceOnUse" y2="197.33087" x2="222.61508" y1="197.13354" x1="231.08012" id="linearGradient8363" xlink:href="#linearGradient8361"/> <linearGradient gradientUnits="userSpaceOnUse" y2="205.63606" x2="221.99496" y1="205.63606" x1="213.63037" id="linearGradient8371" xlink:href="#linearGradient8369"/> <linearGradient gradientTransform="scale(3.7795276)" y2="197.33087" x2="222.61508" y1="197.073" x1="238.65552" gradientUnits="userSpaceOnUse" id="linearGradient8397" xlink:href="#linearGradient8441"/> <radialGradient gradientUnits="userSpaceOnUse" gradientTransform="matrix(0.99999999,0,0,0.19975955,0,475.53507)" r="231.42081" fy="594.24023" fx="934.13373" cy="594.24023" cx="934.13373" id="radialGradient8430" xlink:href="#linearGradient8428"/> <linearGradient y2="197.22752" x2="223.54526" y1="197.22752" x1="232.55769" gradientTransform="scale(3.7795276)" gradientUnits="userSpaceOnUse" id="linearGradient8448" xlink:href="#linearGradient8441"/> <radialGradient r="231.42081" fy="594.24023" fx="934.13373" cy="594.24023" cx="934.13373" gradientTransform="matrix(-0.26458333,0,0,0.05285305,648.51494,125.81865)" gradientUnits="userSpaceOnUse" id="radialGradient8472" xlink:href="#linearGradient8428"/> <linearGradient y2="152.60202" x2="282.04303" y1="152.60202" x1="208.84644" gradientTransform="translate(153.67331,1.0583333)" gradientUnits="userSpaceOnUse" id="linearGradient8474" xlink:href="#linearGradient8521"/> <linearGradient y2="544.21484" x2="345.64258" y1="544.21289" x1="35.183594" gradientUnits="userSpaceOnUse" id="linearGradient8476" xlink:href="#linearGradient7487"/> <linearGradient y2="544.21484" x2="345.64258" y1="544.21289" x1="35.183594" gradientUnits="userSpaceOnUse" id="linearGradient8478" xlink:href="#linearGradient8510"/> <linearGradient y2="569.27344" x2="797.62109" y1="566.9375" x1="1064.7949" gradientUnits="userSpaceOnUse" id="linearGradient8480" xlink:href="#linearGradient8502"/> <linearGradient y2="569.27344" x2="797.62109" y1="566.9375" x1="1064.7949" gradientUnits="userSpaceOnUse" id="linearGradient8482" xlink:href="#linearGradient8502"/> <linearGradient gradientTransform="matrix(-1,0,0,1,648.51494,0)" y2="205.63606" x2="221.99496" y1="205.63606" x1="213.63037" gradientUnits="userSpaceOnUse" id="linearGradient8484" xlink:href="#linearGradient8369"/> <linearGradient y2="197.22752" x2="223.54526" y1="197.22752" x1="232.55769" gradientTransform="matrix(-1,0,0,1,648.51494,0)" gradientUnits="userSpaceOnUse" id="linearGradient8486" xlink:href="#linearGradient8441"/> <linearGradient y2="544.21484" x2="345.64258" y1="544.21289" x1="35.183594" gradientUnits="userSpaceOnUse" id="linearGradient8513" xlink:href="#linearGradient8510"/> </defs> <metadata id="metadata5"> </metadata> <g transform="translate(-185.92612,-115.87479)" id="layer1"> <path id="path7854" transform="scale(0.26458333)" d="m 1029.2324,548.01172 -285.70506,19.97851 c -13.91199,1.74519 -28.58079,0.13663 -40.81445,9.31446 2.83843,-1.40047 5.53893,-2.92878 17.04102,1.19336 l 17.04101,7.65429 17.03906,7.6543 17.04102,7.6543 17.04102,7.65429 17.03906,7.6543 17.04101,7.6543 c 0.87949,0.39504 1.87494,0.80357 2.94336,1.23242 2.13684,0.85771 4.56542,1.79807 6.94141,2.88672 0.67053,0.30723 1.33192,0.63075 1.98633,0.96289 0.20694,0.10504 0.40701,0.21455 0.61133,0.32226 0.46259,0.24386 0.91631,0.49361 1.36132,0.75196 0.32858,0.19078 0.65636,0.3809 0.97266,0.58008 0.0803,0.0505 0.16279,0.0993 0.24219,0.15039 0.45171,0.29078 0.88559,0.59275 1.30469,0.90234 0.10274,0.0759 0.2022,0.15339 0.30273,0.23047 0.42183,0.32342 0.83084,0.65304 1.20898,0.99805 0.21328,0.1946 0.41773,0.39192 0.61524,0.59375 0.19787,0.20214 0.38765,0.40754 0.56836,0.61718 0.20805,0.24137 0.40062,0.48858 0.58398,0.74024 0.0505,0.0693 0.096,0.14081 0.14453,0.21094 0.12561,0.18145 0.24556,0.36582 0.35742,0.55273 0.056,0.0936 0.10967,0.18821 0.16211,0.2832 0.10061,0.18224 0.19239,0.36724 0.2793,0.55469 0.0393,0.0848 0.0827,0.16801 0.11914,0.25391 0.11703,0.27605 0.22287,0.55622 0.3086,0.84375 0.14931,0.50079 0.24904,1.01948 0.29492,1.55664 0.0229,0.26858 0.0323,0.54226 0.0273,0.82031 0.0102,-0.57396 0.10601,-1.11647 0.2793,-1.62891 0.17328,-0.51243 0.42404,-0.99436 0.74609,-1.44922 0.48279,-0.68188 1.12547,-1.30365 1.90235,-1.86718 0.25916,-0.18794 0.53397,-0.36916 0.82226,-0.54492 1.72924,-1.05424 3.96771,-1.8941 6.51953,-2.57227 0.85092,-0.22613 1.73865,-0.43474 2.65235,-0.62695 1.82738,-0.38444 3.7653,-0.70411 5.75781,-0.97657 5.97725,-0.81711 12.43996,-1.20247 17.83984,-1.58007 l 40.81446,-2.85352 40.81445,-2.85352 40.81447,-2.85351 40.8145,-2.85547 40.8164,-2.85352 40.8144,-2.85351 c 13.6581,-0.40449 34.0556,-2.12505 40.8145,5.83789 -0.1141,-6.11603 -3.6367,-9.46353 -7.875,-12.22852 z" style="opacity:1;fill:url(#radialGradient8430);fill-opacity:1;fill-rule:evenodd;stroke:none;stroke-width:5.29756403px;stroke-linecap:butt;stroke-linejoin:round;stroke-miterlimit:3.94740677;stroke-dasharray:none;stroke-opacity:1;paint-order:normal"/> <path id="rect7864" d="m 213.60894,143.66734 h 31.57121 31.57121 v 7.52739 6.99823 c -12.43136,1.96457 -23.44366,3.38678 -33.73478,3.34217 -10.29111,-0.0446 -19.86104,-1.55607 -29.40764,-3.34217 v -6.99823 z" style="opacity:0.8;fill:url(#linearGradient8275);fill-opacity:1;stroke:none;stroke-width:2.91000009;stroke-linecap:butt;stroke-linejoin:miter;stroke-miterlimit:3.94740677;stroke-dasharray:none;stroke-opacity:1;paint-order:normal;filter:url(#filter8350)"/> <path id="path7434" d="m 286.74056,153.09196 c 0,0 -1.29615,7.40833 -41.56041,7.40833 -40.26426,0 -41.56041,-7.40833 -41.56041,-7.40833 0,-18.2297 18.60723,-33.00779 41.56041,-33.00779 22.95318,0 41.56041,14.77809 41.56041,33.00779 z" style="opacity:1;fill:#ff0000;fill-opacity:1;stroke:none;stroke-width:2.91000032;stroke-linecap:butt;stroke-linejoin:miter;stroke-miterlimit:3.94740677;stroke-dasharray:none;stroke-opacity:1;paint-order:normal"/> <path transform="matrix(0.87040096,0,0,0.85301784,32.411245,22.619834)" d="m 244.44922,120.08398 c -22.95318,0 -41.56055,14.77812 -41.56055,33.00782 0,0 0.0618,0.31138 0.49024,0.80273 3.07492,-15.81934 20.29099,-27.92969 41.07031,-27.92969 20.77953,0 37.99565,12.11207 41.07031,27.93164 0.42887,-0.49167 0.49024,-0.80468 0.49024,-0.80468 0,-18.2297 -18.60737,-33.00782 -41.56055,-33.00782 z" id="path7840" style="opacity:1;fill:url(#linearGradient7842);fill-opacity:1;stroke:none;stroke-width:3.37718081;stroke-linecap:butt;stroke-linejoin:miter;stroke-miterlimit:3.94740677;stroke-dasharray:none;stroke-opacity:1;paint-order:normal;filter:url(#filter7515)" xlink:href="#path7478"/> <path transform="matrix(0.26458333,0,0,0.26458333,194.06902,9.9055368)" d="m 190.41406,416.42383 c -86.75218,0 -157.078123,55.85425 -157.078122,124.7539 0,0 0.22839,1.17809 1.847656,3.03516 11.621765,-59.78963 76.694476,-105.56641 155.230466,-105.56641 78.5368,0 143.60774,45.77783 155.22852,105.56836 1.62093,-1.85829 1.84961,-3.03711 1.84961,-3.03711 0,-68.89965 -70.32595,-124.7539 -157.07813,-124.7539 z" id="path7478" style="opacity:1;fill:url(#linearGradient7836);fill-opacity:1;stroke:none;stroke-width:10.99842644;stroke-linecap:butt;stroke-linejoin:miter;stroke-miterlimit:3.94740677;stroke-dasharray:none;stroke-opacity:1;paint-order:normal;filter:url(#filter7515)"/> <path id="path7987" transform="matrix(0.29834034,0,0,0.32282247,-32.636757,-30.843595)" d="m 1064.7949,566.9375 c -25.6202,6.30201 -68.16112,11.6582 -138.89256,11.6582 -61.77537,0 -101.99732,-4.08998 -128.28125,-9.32226 17.16962,7.06237 53.61075,14.8457 131.04493,14.8457 86.12138,0 121.55118,-9.62621 136.12888,-17.18164 z" style="opacity:1;fill:url(#linearGradient8006);fill-opacity:1;stroke:none;stroke-width:9.37681103;stroke-linecap:butt;stroke-linejoin:miter;stroke-miterlimit:3.94740677;stroke-dasharray:none;stroke-opacity:1;paint-order:normal;filter:url(#filter8028)"/> <path id="path8032" d="m 218.41998,142.7313 c -0.51048,0.95779 -1.50216,2.66763 -2.33861,2.26552 -0.83645,-0.4021 -0.16186,-1.63203 0.21924,-2.30206 0.49986,-0.87883 1.75724,-2.22248 2.44824,-1.7905 0.69099,0.43199 -0.0378,1.28096 -0.32887,1.82704 z" style="opacity:1;fill:#ffd5d5;fill-opacity:1;stroke:none;stroke-width:2.91000009;stroke-linecap:butt;stroke-linejoin:miter;stroke-miterlimit:3.94740677;stroke-dasharray:none;stroke-opacity:1;paint-order:normal;filter:url(#filter8143)"/> <path transform="matrix(-1,0,0,1,490.88947,3.1750001)" style="opacity:1;fill:#ffd5d5;fill-opacity:1;stroke:none;stroke-width:2.91000009;stroke-linecap:butt;stroke-linejoin:miter;stroke-miterlimit:3.94740677;stroke-dasharray:none;stroke-opacity:1;paint-order:normal;filter:url(#filter8143)" d="m 218.94915,139.55628 c -0.51048,0.95779 -1.50216,2.66763 -2.33861,2.26552 -0.83645,-0.4021 -0.16186,-1.63203 0.21924,-2.30206 0.49986,-0.87883 1.75724,-2.22248 2.44824,-1.7905 0.69099,0.43199 -0.0378,1.28096 -0.32887,1.82704 z" id="path8147"/> <path style="opacity:0.8;fill:url(#linearGradient8279);fill-opacity:1;stroke:none;stroke-width:10.4098711;stroke-linecap:butt;stroke-linejoin:miter;stroke-miterlimit:3.94740677;stroke-dasharray:none;stroke-opacity:1;paint-order:normal;filter:url(#filter8322)" d="m 1064.7949,566.9375 c -25.6202,6.30201 -68.16112,11.6582 -138.89256,11.6582 -61.77537,0 -101.99732,-4.08998 -128.28125,-9.32226 17.16962,7.06237 53.61075,14.8457 131.04493,14.8457 86.12138,0 121.55118,-9.62621 136.12888,-17.18164 z" transform="matrix(0.2687335,0,0,0.29078606,-5.5957962,-6.1012104)" id="path8277"/> <path d="m 223.13185,169.45722 c 0.0418,-2.35412 -3.78389,-3.409 -5.64547,-4.24518 l -4.5086,-2.02516 -4.50859,-2.02517 -4.50859,-2.02516 -4.50859,-2.02516 -4.50859,-2.02516 -4.5086,-2.02517 c -3.04326,-1.09065 -3.75759,-0.68625 -4.50859,-0.31571 v 0 55.52399 l 36.06874,25.25561 z" style="opacity:1;fill:url(#linearGradient8371);fill-opacity:1;fill-rule:evenodd;stroke:none;stroke-width:1.40164709px;stroke-linecap:butt;stroke-linejoin:round;stroke-miterlimit:3.94740677;stroke-dasharray:none;stroke-opacity:1;paint-order:normal" id="path7856"/> <path transform="scale(0.26458333)" id="path7846" d="m 1138.8965,611.66992 c -4.9626,0.0478 -9.8881,0.30329 -14.1563,0.42969 l -40.8144,2.85351 -40.8164,2.85352 -40.8145,2.85547 -40.81443,2.85351 -40.81445,2.85352 -40.81446,2.85352 c -14.3997,1.00694 -36.35656,2.06271 -36.51953,11.24609 l -4.29687,242.14453 326.51954,-22.83203 V 617.9375 c -4.6467,-5.47452 -15.7405,-6.37275 -26.6582,-6.26758 z" style="opacity:1;fill:url(#linearGradient8448);fill-opacity:1;fill-rule:evenodd;stroke:none;stroke-width:5.29756403px;stroke-linecap:butt;stroke-linejoin:round;stroke-miterlimit:3.94740677;stroke-dasharray:none;stroke-opacity:1;paint-order:normal"/> <path style="opacity:1;fill:url(#radialGradient8472);fill-opacity:1;fill-rule:evenodd;stroke:none;stroke-width:1.40164709px;stroke-linecap:butt;stroke-linejoin:round;stroke-miterlimit:3.94740677;stroke-dasharray:none;stroke-opacity:1;paint-order:normal" d="m 376.1972,144.99477 75.5928,5.28598 c 3.68088,0.46174 7.562,0.0361 10.79882,2.46445 -0.751,-0.37054 -1.46551,-0.77491 -4.50877,0.31574 l -4.50877,2.0252 -4.50825,2.0252 -4.50877,2.0252 -4.50877,2.0252 -4.50825,2.0252 -4.50877,2.0252 c -0.2327,0.10452 -0.49607,0.21261 -0.77876,0.32607 -0.56537,0.22694 -1.20793,0.47574 -1.83658,0.76378 -0.17741,0.0813 -0.35241,0.16689 -0.52555,0.25477 -0.0548,0.0278 -0.10769,0.0568 -0.16175,0.0853 -0.12239,0.0645 -0.24244,0.1306 -0.36018,0.19896 -0.0869,0.0505 -0.17366,0.10078 -0.25735,0.15348 -0.0213,0.0134 -0.0431,0.0263 -0.0641,0.0398 -0.11952,0.0769 -0.23431,0.15683 -0.3452,0.23874 -0.0272,0.0201 -0.0535,0.0406 -0.0801,0.061 -0.11161,0.0856 -0.21982,0.17278 -0.31987,0.26407 -0.0564,0.0515 -0.11053,0.10369 -0.16279,0.15709 -0.0524,0.0535 -0.10256,0.10783 -0.15037,0.1633 -0.055,0.0639 -0.106,0.12927 -0.15452,0.19585 -0.0134,0.0183 -0.0254,0.0373 -0.0382,0.0558 -0.0332,0.048 -0.065,0.0968 -0.0946,0.14624 -0.0148,0.0248 -0.029,0.0498 -0.0429,0.0749 -0.0266,0.0482 -0.0509,0.0972 -0.0739,0.14676 -0.0104,0.0224 -0.0219,0.0445 -0.0315,0.0672 -0.031,0.073 -0.059,0.14717 -0.0816,0.22324 -0.0395,0.1325 -0.0659,0.26974 -0.078,0.41186 -0.006,0.0711 -0.009,0.14348 -0.007,0.21704 -0.003,-0.15186 -0.0281,-0.29539 -0.0739,-0.43098 -0.0459,-0.13558 -0.11219,-0.26309 -0.1974,-0.38344 -0.12774,-0.18041 -0.29778,-0.34492 -0.50333,-0.49402 -0.0686,-0.0497 -0.14128,-0.0977 -0.21756,-0.14418 -0.45753,-0.27893 -1.04979,-0.50115 -1.72496,-0.68058 -0.22514,-0.0598 -0.46001,-0.11502 -0.70176,-0.16588 -0.4835,-0.10172 -0.99624,-0.18629 -1.52343,-0.25838 -1.58148,-0.2162 -3.2914,-0.31816 -4.72012,-0.41806 l -10.79883,-0.755 -10.79882,-0.75499 -10.79882,-0.75499 -10.79883,-0.75551 -10.79934,-0.755 -10.79881,-0.75499 c -3.61371,-0.10702 -9.01055,-0.56225 -10.79884,1.54461 0.0302,-1.6182 0.96221,-2.50389 2.0836,-3.23546 z" id="path8450"/> <path transform="matrix(-1,0,0,1,802.71741,0)" style="opacity:0.8;fill:url(#linearGradient8474);fill-opacity:1;stroke:none;stroke-width:2.91000009;stroke-linecap:butt;stroke-linejoin:miter;stroke-miterlimit:3.94740677;stroke-dasharray:none;stroke-opacity:1;paint-order:normal;filter:url(#filter8350)" d="m 367.81141,143.66734 h 31.57121 31.57121 v 7.52739 6.99823 c -12.43136,1.96457 -23.44366,3.38678 -33.73478,3.34217 -10.29111,-0.0446 -19.86104,-1.55607 -29.40764,-3.34217 v -6.99823 z" id="path8452"/> <path style="opacity:1;fill:#00cc00;fill-opacity:1;stroke:none;stroke-width:2.91000032;stroke-linecap:butt;stroke-linejoin:miter;stroke-miterlimit:3.94740677;stroke-dasharray:none;stroke-opacity:1;paint-order:normal" d="m 361.77438,153.09196 c 0,0 1.29615,7.40833 41.56041,7.40833 40.26426,0 41.56041,-7.40833 41.56041,-7.40833 0,-18.2297 -18.60723,-33.00779 -41.56041,-33.00779 -22.95318,0 -41.56041,14.77809 -41.56041,33.00779 z" id="path8454"/> <path id="path8456" d="m 244.44922,120.08398 c -22.95318,0 -41.56055,14.77812 -41.56055,33.00782 0,0 0.0618,0.31138 0.49024,0.80273 3.07492,-15.81934 20.29099,-27.92969 41.07031,-27.92969 20.77953,0 37.99565,12.11207 41.07031,27.93164 0.42887,-0.49167 0.49024,-0.80468 0.49024,-0.80468 0,-18.2297 -18.60737,-33.00782 -41.56055,-33.00782 z" style="opacity:1;fill:url(#linearGradient8513);fill-opacity:1;stroke:none;stroke-width:3.37718081;stroke-linecap:butt;stroke-linejoin:miter;stroke-miterlimit:3.94740677;stroke-dasharray:none;stroke-opacity:1;paint-order:normal;filter:url(#filter7515)" transform="matrix(-0.87040096,0,0,0.85301784,616.10369,22.619834)"/> <path style="opacity:1;fill:url(#linearGradient8478);fill-opacity:1;stroke:none;stroke-width:10.99842644;stroke-linecap:butt;stroke-linejoin:miter;stroke-miterlimit:3.94740677;stroke-dasharray:none;stroke-opacity:1;paint-order:normal;filter:url(#filter7515)" id="path8458" d="m 190.41406,416.42383 c -86.75218,0 -157.078123,55.85425 -157.078122,124.7539 0,0 0.22839,1.17809 1.847656,3.03516 11.621765,-59.78963 76.694476,-105.56641 155.230466,-105.56641 78.5368,0 143.60774,45.77783 155.22852,105.56836 1.62093,-1.85829 1.84961,-3.03711 1.84961,-3.03711 0,-68.89965 -70.32595,-124.7539 -157.07813,-124.7539 z" transform="matrix(-0.26458333,0,0,0.26458333,454.44592,9.9055368)"/> <path transform="matrix(-1,0,0,1,802.71741,0)" style="opacity:1;fill:#ffd5d5;fill-opacity:1;stroke:none;stroke-width:2.91000009;stroke-linecap:butt;stroke-linejoin:miter;stroke-miterlimit:3.94740677;stroke-dasharray:none;stroke-opacity:1;paint-order:normal;filter:url(#filter8143)" d="m 372.62245,142.7313 c -0.51048,0.95779 -1.50216,2.66763 -2.33861,2.26552 -0.83645,-0.4021 -0.16186,-1.63203 0.21924,-2.30206 0.49986,-0.87883 1.75724,-2.22248 2.44824,-1.7905 0.69099,0.43199 -0.0378,1.28096 -0.32887,1.82704 z" id="path8462"/> <path id="path8464" d="m 376.57462,142.73128 c -0.51048,0.95779 -1.50216,2.66763 -2.33861,2.26552 -0.83645,-0.4021 -0.16186,-1.63203 0.21924,-2.30206 0.49986,-0.87883 1.75724,-2.22248 2.44824,-1.7905 0.69099,0.43199 -0.0378,1.28096 -0.32887,1.82704 z" style="opacity:1;fill:#ffd5d5;fill-opacity:1;stroke:none;stroke-width:2.91000009;stroke-linecap:butt;stroke-linejoin:miter;stroke-miterlimit:3.94740677;stroke-dasharray:none;stroke-opacity:1;paint-order:normal;filter:url(#filter8143)"/> <path id="path8466" transform="matrix(-0.2687335,0,0,0.29078606,654.11073,-6.1012104)" d="m 1064.7949,566.9375 c -25.6202,6.30201 -68.16112,11.6582 -138.89256,11.6582 -61.77537,0 -101.99732,-4.08998 -128.28125,-9.32226 17.16962,7.06237 53.61075,14.8457 131.04493,14.8457 86.12138,0 121.55118,-9.62621 136.12888,-17.18164 z" style="opacity:0.8;fill:url(#linearGradient8482);fill-opacity:1;stroke:none;stroke-width:10.4098711;stroke-linecap:butt;stroke-linejoin:miter;stroke-miterlimit:3.94740677;stroke-dasharray:none;stroke-opacity:1;paint-order:normal;filter:url(#filter8322)"/> <path id="path8468" style="opacity:1;fill:url(#linearGradient8484);fill-opacity:1;fill-rule:evenodd;stroke:none;stroke-width:1.40164709px;stroke-linecap:butt;stroke-linejoin:round;stroke-miterlimit:3.94740677;stroke-dasharray:none;stroke-opacity:1;paint-order:normal" d="m 425.38309,169.45722 c -0.0418,-2.35412 3.78389,-3.409 5.64547,-4.24518 l 4.5086,-2.02516 4.50859,-2.02517 4.50859,-2.02516 4.50859,-2.02516 4.50859,-2.02516 4.5086,-2.02517 c 3.04326,-1.09065 3.75759,-0.68625 4.50859,-0.31571 v 0 55.52399 l -36.06874,25.25561 z"/> <path style="opacity:1;fill:url(#linearGradient8486);fill-opacity:1;fill-rule:evenodd;stroke:none;stroke-width:1.40164709px;stroke-linecap:butt;stroke-linejoin:round;stroke-miterlimit:3.94740677;stroke-dasharray:none;stroke-opacity:1;paint-order:normal" d="m 347.18191,161.83766 c 1.31302,0.0127 2.61622,0.0803 3.74552,0.11369 l 10.79881,0.75499 10.79934,0.755 10.79883,0.75551 10.79882,0.75499 10.79882,0.75499 10.79883,0.755 c 3.80992,0.26642 9.61934,0.54576 9.66246,2.97552 l 1.13688,64.06741 -86.39163,-6.04097 v -63.98783 c 1.22944,-1.44847 4.16468,-1.68612 7.05332,-1.6583 z" id="path8470"/> <path style="opacity:1;fill:url(#linearGradient8480);fill-opacity:1;stroke:none;stroke-width:9.37681103;stroke-linecap:butt;stroke-linejoin:miter;stroke-miterlimit:3.94740677;stroke-dasharray:none;stroke-opacity:1;paint-order:normal;filter:url(#filter8028)" d="m 1064.7949,566.9375 c -25.6202,6.30201 -68.16112,11.6582 -138.89256,11.6582 -61.77537,0 -101.99732,-4.08998 -128.28125,-9.32226 17.16962,7.06237 53.61075,14.8457 131.04493,14.8457 86.12138,0 121.55118,-9.62621 136.12888,-17.18164 z" transform="matrix(-0.29834034,0,0,0.32282247,681.15169,-30.843595)" id="path8460"/> </g> </svg>