<?xml version="1.0" encoding="UTF-8"?>
<svg version="1.1" viewBox="0 0 744.09 1052.4" xmlns="http://www.w3.org/2000/svg">
 <defs>
  <linearGradient id="d" x1="15.949" x2="639.51" y1="458.92" y2="458.92" gradientUnits="userSpaceOnUse">
   <stop stop-color="#fff" offset="0"/>
   <stop stop-color="#eac3ee" offset="1"/>
  </linearGradient>
  <linearGradient id="c" x1="353.57" x2="423.57" y1="812.63" y2="812.63" gradientUnits="userSpaceOnUse">
   <stop stop-color="#d2d2e2" offset="0"/>
   <stop stop-color="#bdb6b9" offset="1"/>
  </linearGradient>
 </defs>
 <path transform="matrix(.85417 .52 -.52 .85417 327.83 -238.18)" d="m314.29 472.36c6.6421 4.6712-3.0197 11.258-7.7639 11.04-12.856-0.59191-17.608-16.1-14.316-26.568 5.8899-18.725 28.605-24.755 45.371-17.591 24.605 10.514 32.077 41.266 20.867 64.175-14.941 30.533-53.981 39.471-82.978 24.143-36.49-19.289-46.902-66.722-27.419-101.78 23.596-42.462 79.476-54.354 120.58-30.694 48.446 27.882 61.819 92.239 33.97 139.39-32.152 54.436-105.01 69.293-158.19 37.246-60.432-36.414-76.773-117.78-40.522-177 40.669-66.43 130.56-84.258 195.8-43.798 72.432 44.919 91.746 143.34 47.073 214.6-49.166 78.435-156.12 99.237-233.41 50.349-84.44-53.41-106.73-168.9-53.625-252.21 57.651-90.446 181.68-114.22 271.01-56.901 96.453 61.892 121.72 194.46 60.176 289.82-66.13 102.46-207.25 129.22-308.62 63.452-108.47-70.368-136.72-220.03-66.728-327.42 74.605-114.48 232.82-144.21 346.23-70.004 120.49 78.841 151.71 245.6 73.28 365.03-83.076 126.5-258.39 159.21-383.84 76.555-132.51-87.31-166.71-271.18-79.831-402.64 91.545-138.52 283.96-174.21 421.44-83.107 144.53 95.778 181.72 296.75 86.383 440.25-21.249 31.985-48.203 60.106-79.219 82.741" fill="#f00" stroke="url(#d)" stroke-linecap="round" stroke-linejoin="round" stroke-width="15.2"/>
 <path d="m375.32 593.29 26.493 438.67" fill="#fff" stroke="url(#c)" stroke-width="43.5"/>
</svg>
