<?xml version="1.0" encoding="UTF-8"?>
<!DOCTYPE svg PUBLIC "-//W3C//DTD SVG 1.1//EN" "http://www.w3.org/Graphics/SVG/1.1/DTD/svg11.dtd">
<svg xmlns="http://www.w3.org/2000/svg" version="1.1" width="181px" height="181px" style="shape-rendering:geometricPrecision; text-rendering:geometricPrecision; image-rendering:optimizeQuality; fill-rule:evenodd; clip-rule:evenodd" xmlns:xlink="http://www.w3.org/1999/xlink">
<g><path style="opacity:0.968" fill="#51a4fb" d="M 23.5,21.5 C 45.171,24.6681 63.5044,34.1681 78.5,50C 79.5,50.1667 80.5,50.3333 81.5,50.5C 87.4969,49.5577 93.4969,49.3911 99.5,50C 114.973,33.2618 133.973,24.0952 156.5,22.5C 170.096,43.3109 174.096,65.8109 168.5,90C 176.679,116.128 169.346,136.795 146.5,152C 117.798,168.441 87.4649,172.108 55.5,163C 37.6335,157.832 23.4668,147.665 13,132.5C 5.41376,118.876 4.58043,104.876 10.5,90.5C 3.6833,65.2569 8.01663,42.2569 23.5,21.5 Z M 29.5,36.5 C 41.6337,38.7341 52.3004,43.9007 61.5,52C 46.3314,55.6644 33.1648,62.8311 22,73.5C 21.3623,72.3914 20.8623,71.2247 20.5,70C 21.2297,66.2062 21.7297,62.3728 22,58.5C 24.0107,50.9673 26.5107,43.634 29.5,36.5 Z M 147.5,36.5 C 154.398,47.7497 157.731,60.083 157.5,73.5C 156.448,73.6495 155.448,73.4828 154.5,73C 143.573,63.2011 130.906,56.5345 116.5,53C 125.753,45.375 136.086,39.875 147.5,36.5 Z M 77.5,63.5 C 100.728,61.2419 122.061,66.4086 141.5,79C 165.894,103.123 163.561,124.456 134.5,143C 100.875,159.245 68.2084,157.578 36.5,138C 15.9349,119.665 15.2682,100.665 34.5,81C 47.4323,71.5274 61.7657,65.6941 77.5,63.5 Z"/></g>
<g><path style="opacity:0.944" fill="#51a3fb" d="M 76.5,122.5 C 85.1731,122.334 93.8397,122.5 102.5,123C 105.29,125.21 106.123,128.044 105,131.5C 101.159,135.673 96.9928,139.507 92.5,143C 90.5,143.667 88.5,143.667 86.5,143C 81.6472,139.145 77.1472,134.978 73,130.5C 71.7801,126.707 72.9468,124.04 76.5,122.5 Z"/></g>
</svg>
