<?xml version="1.0" encoding="UTF-8" standalone="no"?>
<!-- Created with Inkscape (http://www.inkscape.org/) -->
<!-- ClipArt created by Arvin61r58 (http://openclipart.org/user-detail/Arvin61r58) -->
<svg xmlns:inkscape="http://www.inkscape.org/namespaces/inkscape" xmlns:rdf="http://www.w3.org/1999/02/22-rdf-syntax-ns#" xmlns="http://www.w3.org/2000/svg" xmlns:sodipodi="http://sodipodi.sourceforge.net/DTD/sodipodi-0.dtd" xmlns:ns1="http://sozi.baierouge.fr" xmlns:cc="http://creativecommons.org/ns#" xmlns:xlink="http://www.w3.org/1999/xlink" xmlns:dc="http://purl.org/dc/elements/1.1/" id="svg4035" viewBox="0 0 290.41 379.56" version="1.1" inkscape:version="0.91 r13725">
  <title id="title4886">Apple</title>
  <defs id="defs4037">
    <linearGradient id="linearGradient4888" y2="706.4" gradientUnits="userSpaceOnUse" x2="781.33" gradientTransform="translate(-313.3 -164.49)" y1="706.4" x1="511.06">
      <stop id="stop4827" style="stop-color:#727272" offset="0"/>
      <stop id="stop4829" style="stop-color:#7a7a7a" offset=".071429"/>
      <stop id="stop4831" style="stop-color:#9f9f9f" offset=".14286"/>
      <stop id="stop4833" style="stop-color:#c3c3c3" offset=".21429"/>
      <stop id="stop4835" style="stop-color:#d3d3d3" offset=".28571"/>
      <stop id="stop4837" style="stop-color:#d5d5d5" offset=".35714"/>
      <stop id="stop4839" style="stop-color:#c8c8c8" offset=".42857"/>
      <stop id="stop4841" style="stop-color:#b5b5b5" offset=".5"/>
      <stop id="stop4843" style="stop-color:#9f9f9f" offset=".57143"/>
      <stop id="stop4845" style="stop-color:#898989" offset=".64286"/>
      <stop id="stop4847" style="stop-color:#747474" offset=".71429"/>
      <stop id="stop4849" style="stop-color:#616161" offset=".78571"/>
      <stop id="stop4851" style="stop-color:#555555" offset=".85714"/>
      <stop id="stop4853" style="stop-color:#545454" offset=".92857"/>
      <stop id="stop4855" style="stop-color:#696969" offset="1"/>
    </linearGradient>
  </defs>
  <g id="layer1" transform="translate(-188.55 -313.66)">
    <g id="g4877">
      <g id="g3998" style="stroke-width:5" transform="matrix(1.4586 0 0 1.5479 -391 190.27)">
        <path id="path3938" style="fill-rule:evenodd;stroke:#00e100;stroke-width:3.3277;fill:#00e100" d="m491.83 142.4c-0.16089-0.26259-3.9605-3.6216-5.5763-4.9297-3.8233-3.0952-6.7894-5.058-12.882-8.5248-4.2694-2.4292-5.0658-2.9094-7.0278-4.237-5.1979-3.5173-8.072-7.0136-10.195-12.403-0.80648-2.0469-1.294-3.6779-2.6341-8.8129-1.334-5.1117-2.0313-7.5128-2.8712-9.8876-0.67038-1.8954-2.0316-5.2977-2.7498-6.8731-0.29502-0.64706-0.49699-1.2141-0.44886-1.26 0.17243-0.16458 7.5228 7.6901 11.84 12.652 9.9974 11.491 20.22 25.121 30.534 40.711 1.2941 1.9562 2.3529 3.5886 2.3529 3.6277 0 0.12394-0.25446 0.0766-0.3402-0.0632z"/>
        <path id="path3936" style="fill-rule:evenodd;stroke:#008000;stroke-width:3.3277;fill:#008000" d="m491.3 140.28c-13.307-19.857-25.736-35.777-38.602-49.445-1.563-1.6604-2.8096-3.0509-2.7703-3.09 0.0393-0.03909 0.52518 0.15625 1.0798 0.43408 1.5888 0.79598 2.9235 1.2931 7.4217 2.7642 4.531 1.4818 6.424 2.2549 8.953 3.656 3.6748 2.036 6.5553 4.3099 9.8403 7.7678 6.6112 6.9592 11.409 16.468 14.517 28.773 1.2412 4.9134 2.5742 12.787 2.1647 12.787-0.0884 0-1.2606-1.6414-2.605-3.6475z"/>
        <path id="path3141" style="stroke:#000000;stroke-width:3.3277;fill:none" d="m448.69 86.195c4.2591 3.0253 9.6399 3.8726 14.503 5.7814 7.3569 2.8876 13.573 8.2873 18.174 14.714 4.6005 6.4263 7.6596 13.853 9.7704 21.469 1.5592 5.626 2.621 11.39 3.1691 17.202-5.1186-5.3796-10.988-10.044-17.385-13.814-3.2989-1.9446-6.7361-3.6526-9.9778-5.6912s-6.3171-4.4428-8.5945-7.5214c-4.0485-5.4727-5.1995-12.475-7.0175-19.035-1.8103-6.5324-4.3871-12.852-7.6606-18.788 1.2079 2.246 2.9401 4.208 5.0192 5.6848"/>
      </g>
      <path id="path3772" style="fill-rule:evenodd;stroke:#000000;stroke-width:10;fill:#f30000" d="m297.39 686.59c-23.009-6.4434-61.191-33.134-74.741-52.248-17.582-24.799-27.342-57.799-28.872-97.615-1.3268-34.526 2.992-58.88 14.522-81.894 14.737-29.413 41.929-45.121 70.056-40.468 19.014 3.1455 42.159 12.83 46.502 19.457 5.288 8.0705 11.892 7.348 11.908-1.3026 0.021-11.798 6.9545-24.616 16.213-29.973 8.3081-4.8073 16.727-6.674 29.936-6.6372 19.692 0.0549 33.969 7.8378 55.435 30.218 18.64 19.435 24.533 29.462 29.783 50.683 5.6822 22.966 6.8732 37.617 5.0337 61.924-3.3226 43.907-11.214 67.698-32.545 98.12-21.332 30.422-46.69 46.729-72.821 46.827-12.415 0.0467-15.417-1.665-19.851-11.321-5.3719-11.698-12.475-11.582 0.93296-26.178 6.8292-7.4342 15.256-16.033 7.4992-12.055-15.804 8.1044-24.408 18.311-25.988 30.83-1.4438 11.44-3.4213 16.329-7.8911 19.512-5.3732 3.826-15.858 4.7111-25.112 2.1197z"/>
      <path id="path4013" style="stroke-width:5;block-progression:tb;text-indent:0;color:#000000;stroke:#402000;text-transform:none;fill:#622100" d="m336.58 338.05c-1.3762-0.20381-2.2555-0.17907-2.3398 0.43434-0.0669 0.48666 0.0506 2.4557 0.91019 2.9467 1.4748 8.3985-12.431 65.461-8.3222 90.213 0.34162 2.0581 5.8147 2.8907 5.7751 0.79347-0.44456-23.576 11.585-85.645 14.643-90.049 1.3622-0.21922 2.1441-1.216 2.2259-1.8114 0.16856-1.2268-3.3321-1.0346-7.5382-1.6125-2.103-0.28894-3.9778-0.71074-5.3539-0.91462z"/>
      <path id="path4641" style="opacity:.25;fill:url(#linearGradient4888)" d="m286.89 678.33c-16.029-6.9981-38.332-22.433-51.426-35.589-24.64-24.757-37.701-64.212-37.701-113.89 0-33.2 3.0685-49.065 13.727-70.969 2.7077-5.5649 8.0574-13.635 11.888-17.933 17.864-20.042 39.119-25.556 67.174-17.426 15.953 4.6229 22.907 8.1338 30.357 15.327 4.4397 4.2861 7.1384 5.7692 10.498 5.7692 5.7146 0 7.8727-2.9104 9.1205-12.3 1.2671-9.5346 6.567-19.25 12.846-23.548 10.887-7.4521 30.105-9.2904 44.927-4.2975 11.086 3.7345 17.526 8.2206 31.744 22.111 21.424 20.932 28.12 32.434 34.337 58.99 3.2708 13.971 3.7503 18.992 3.6395 38.105-0.27098 46.759-8.2816 76.133-29.422 107.89-15.441 23.194-36.141 40.636-54.686 46.076-10.749 3.1534-25.972 3.0358-28.795-0.22233-3.3635-3.8821-9.649-15.299-9.6471-17.523 0.00095-1.1031 3.8713-6.7398 8.6007-12.526 7.5226-9.2037 12.701-16.999 12.701-19.12 0-1.1229-10.337 2.1031-16.042 5.0064-6.9232 3.5233-16.161 11.88-20.158 18.235-1.7222 2.7383-3.9223 8.4939-4.8891 12.79-4.1456 18.422-5.6068 19.896-19.694 19.866-6.0605-0.0128-10.869-1.2264-19.1-4.82z"/>
    </g>
  </g>
  <metadata>
    <rdf:RDF>
      <cc:Work>
        <dc:format>image/svg+xml</dc:format>
        <dc:type rdf:resource="http://purl.org/dc/dcmitype/StillImage"/>
        <cc:license rdf:resource="http://creativecommons.org/licenses/publicdomain/"/>
        <dc:publisher>
          <cc:Agent rdf:about="http://openclipart.org/">
            <dc:title>Openclipart</dc:title>
          </cc:Agent>
        </dc:publisher>
      </cc:Work>
      <cc:License rdf:about="http://creativecommons.org/licenses/publicdomain/">
        <cc:permits rdf:resource="http://creativecommons.org/ns#Reproduction"/>
        <cc:permits rdf:resource="http://creativecommons.org/ns#Distribution"/>
        <cc:permits rdf:resource="http://creativecommons.org/ns#DerivativeWorks"/>
      </cc:License>
    </rdf:RDF>
  </metadata>
</svg>
