<?xml version="1.0" encoding="UTF-8" standalone="no"?>
<svg
   version="1.1"
   id="svg2"
   xml:space="preserve"
   width="1080"
   height="230"
   viewBox="0 0 1080 230"
   sodipodi:docname="cloud-curriculum.svg"
   inkscape:version="1.1 (c4e8f9e, 2021-05-24)"
   xmlns:inkscape="http://www.inkscape.org/namespaces/inkscape"
   xmlns:sodipodi="http://sodipodi.sourceforge.net/DTD/sodipodi-0.dtd"
   xmlns="http://www.w3.org/2000/svg"
   xmlns:svg="http://www.w3.org/2000/svg"
   xmlns:rdf="http://www.w3.org/1999/02/22-rdf-syntax-ns#"
   xmlns:cc="http://creativecommons.org/ns#"
   xmlns:dc="http://purl.org/dc/elements/1.1/"><metadata
     id="metadata8"><rdf:RDF><cc:Work
         rdf:about=""><dc:format>image/svg+xml</dc:format><dc:type
           rdf:resource="http://purl.org/dc/dcmitype/StillImage" /></cc:Work></rdf:RDF></metadata><defs
     id="defs6"><clipPath
       clipPathUnits="userSpaceOnUse"
       id="clipPath20"><path
         d="M 0,209.24 H 858.707 V 0 H 0 Z"
         id="path18" /></clipPath><clipPath
       clipPathUnits="userSpaceOnUse"
       id="clipPath32"><path
         d="M 0,209.24 H 858.707 V 0 H 0 Z"
         id="path30" /></clipPath><clipPath
       clipPathUnits="userSpaceOnUse"
       id="clipPath64"><path
         d="M 0,209.24 H 858.707 V 0 H 0 Z"
         id="path62" /></clipPath><clipPath
       clipPathUnits="userSpaceOnUse"
       id="clipPath72"><path
         d="M 73.4467,77.2534 H 165.153 V 59.3223 H 73.4467 Z"
         id="path70" /></clipPath><clipPath
       clipPathUnits="userSpaceOnUse"
       id="clipPath92"><path
         d="M 0,209.24 H 858.707 V 0 H 0 Z"
         id="path90" /></clipPath><clipPath
       clipPathUnits="userSpaceOnUse"
       id="clipPath100"><path
         d="M 96.6118,117.376 H 141.916 V 99.4454 H 96.6118 Z"
         id="path98" /></clipPath><clipPath
       clipPathUnits="userSpaceOnUse"
       id="clipPath116"><path
         d="M 61.1819,57.1142 H 177.455 V 38.0791 H 61.1819 Z"
         id="path114" /></clipPath><linearGradient
       x1="0"
       y1="0"
       x2="1"
       y2="0"
       gradientUnits="userSpaceOnUse"
       gradientTransform="matrix(12.208358,-21.145496,-21.145496,-12.208358,794.08459,68.380394)"
       spreadMethod="pad"
       id="linearGradient166"><stop
         style="stop-opacity:1;stop-color:#ec1c24"
         offset="0"
         id="stop162" /><stop
         style="stop-opacity:1;stop-color:#690005"
         offset="1"
         id="stop164" /></linearGradient></defs><sodipodi:namedview
     pagecolor="#ffffff"
     bordercolor="#666666"
     borderopacity="1"
     objecttolerance="10"
     gridtolerance="10"
     guidetolerance="10"
     inkscape:pageopacity="0"
     inkscape:pageshadow="2"
     inkscape:window-width="1680"
     inkscape:window-height="776"
     id="namedview4"
     inkscape:pagecheckerboard="0"
     showgrid="false"
     inkscape:zoom="0.78823165"
     inkscape:cx="575.33848"
     inkscape:cy="204.25468"
     inkscape:window-x="0"
     inkscape:window-y="55"
     inkscape:window-maximized="0"
     inkscape:current-layer="g10"
     height="258.98666px"
     width="1080px" /><g
     id="g10"
     inkscape:groupmode="layer"
     inkscape:label="Cloud-Curriculum_Logo-with-Tagline_Neg"
     transform="matrix(1.3333333,0,0,-1.3333333,0,278.98667)"><g
       id="g14"
       style="fill:none;fill-opacity:1;stroke:#ffffff;stroke-width:4.5;stroke-miterlimit:4;stroke-dasharray:none;stroke-opacity:1"
       transform="translate(-18,15)"><g
         id="g16"
         clip-path="url(#clipPath20)"
         style="fill:none;fill-opacity:1;stroke:#ffffff;stroke-width:4.5;stroke-miterlimit:4;stroke-dasharray:none;stroke-opacity:1"><g
           id="g22"
           transform="translate(162.5485,73.5197)"
           style="fill:none;fill-opacity:1;stroke:#ffffff;stroke-width:4.5;stroke-miterlimit:4;stroke-dasharray:none;stroke-opacity:1"><path
             d="m 0,0 h -101.69 c -14.172,0 -25.702,11.528 -25.702,25.698 0,14.71 12.425,26.593 27.333,25.647 1.546,12.485 12.075,22.036 24.833,22.221 6.453,17.178 22.897,28.625 41.339,28.625 21.852,0 40.408,-16.037 43.657,-37.501 C 23.552,60.438 33.076,47.614 33.076,33.081 33.076,14.84 18.239,0 0,0"
             style="fill:none;fill-opacity:1;fill-rule:nonzero;stroke:#ffffff;stroke-width:4.5;stroke-miterlimit:4;stroke-dasharray:none;stroke-opacity:1"
             id="path24" /></g></g></g><g
       id="g38"
       transform="translate(136.841,92.2531)"><path
         d="M 0,0 H -70.969 L -81.322,-17.931 H 10.384 Z"
         style="fill:#ffffff;fill-opacity:1;fill-rule:nonzero;stroke:none"
         id="path40" /></g><g
       id="g42"
       transform="translate(112.3254,134.5846)"><path
         d="M 0,0 -11.024,19.035 -22.014,0 Z"
         style="fill:#ffffff;fill-opacity:1;fill-rule:nonzero;stroke:none"
         id="path44" /></g><g
       id="g46"
       transform="translate(78.6843,114.4455)"><path
         d="M 0,0 H 45.304 L 34.92,17.931 H 10.353 Z"
         style="fill:#ffffff;fill-opacity:1;fill-rule:nonzero;stroke:none"
         id="path48" /></g><g
       id="g50"
       transform="translate(54.2443,72.1144)"><path
         d="M 0,0 -10.99,-19.035 H 105.284 L 94.26,0 Z"
         style="fill:#ffffff;fill-opacity:1;fill-rule:nonzero;stroke:none"
         id="path52" /></g><g
       id="g54"
       transform="translate(67.1467,94.4611)"><path
         d="M 0,0 H 68.416 L 58.121,17.776 H 10.263 Z"
         style="fill:#ffffff;fill-opacity:1;fill-rule:nonzero;stroke:none"
         id="path56" /></g><g
       id="g58"
       transform="translate(-18,15)"><g
         id="g60"
         clip-path="url(#clipPath64)"><g
           id="g66"><g
             id="g68" /><g
             id="g80"><g
               clip-path="url(#clipPath72)"
               opacity="0.699997"
               id="g78"><g
                 transform="translate(154.7682,77.2531)"
                 id="g76"><path
                   d="M 0,0 H -70.969 L -81.322,-17.931 H 10.384 Z"
                   style="fill:#fcb615;fill-opacity:1;fill-rule:nonzero;stroke:none"
                   id="path74" /></g></g></g></g></g></g><g
       id="g82"
       transform="translate(112.2531,134.5846)"><path
         d="M 0,0 -11.024,19.035 -22.014,0 Z"
         style="fill:#00a1e4;fill-opacity:1;fill-rule:nonzero;stroke:none"
         id="path84" /></g><g
       id="g86"
       transform="translate(-18,15)"><g
         id="g88"
         clip-path="url(#clipPath92)"><g
           id="g94"><g
             id="g96" /><g
             id="g108"><g
               clip-path="url(#clipPath100)"
               opacity="0.699997"
               id="g106"><g
                 transform="translate(96.612,99.4455)"
                 id="g104"><path
                   d="M 0,0 H 45.304 L 34.919,17.931 H 10.353 Z"
                   style="fill:#00a1e4;fill-opacity:1;fill-rule:nonzero;stroke:none"
                   id="path102" /></g></g></g></g><g
           id="g110"><g
             id="g112" /><g
             id="g124"><g
               clip-path="url(#clipPath116)"
               opacity="0.399994"
               id="g122"><g
                 transform="translate(72.1721,57.1144)"
                 id="g120"><path
                   d="M 0,0 -10.99,-19.035 H 105.283 L 94.259,0 Z"
                   style="fill:#fcb615;fill-opacity:1;fill-rule:nonzero;stroke:none"
                   id="path118" /></g></g></g></g></g></g><g
       id="g126"
       transform="translate(67.0739,94.4611)"><path
         d="M 0,0 H 68.416 L 58.121,17.776 H 10.263 Z"
         style="fill:#fcb615;fill-opacity:1;fill-rule:nonzero;stroke:none"
         id="path128" /></g><text
       transform="scale(1,-1)"
       style="font-variant:normal;font-weight:bold;font-stretch:normal;font-size:83px;font-family:'BentonSans Bold';-inkscape-font-specification:BentonSans-Bold;writing-mode:lr-tb;fill:#ffffff;fill-opacity:1;fill-rule:nonzero;stroke:none"
       id="text132"
       x="189.6938"
       y="-89.881798"><tspan
         x="189.6938 246.8808 267.9628 315.18979 363.16379"
         y="-89.881798"
         sodipodi:role="line"
         id="tspan130">Cloud</tspan></text><text
       transform="scale(1,-1)"
       style="font-variant:normal;font-weight:300;font-stretch:normal;font-size:83px;font-family:'BentonSans Light';-inkscape-font-specification:BentonSans-Light;writing-mode:lr-tb;fill:#ffffff;fill-opacity:1;fill-rule:nonzero;stroke:none"
       id="text136"
       x="411.6358"
       y="-89.881798"><tspan
         x="411.6358 465.7518 509.99078 538.87482 567.75879 583.36279 623.70081 667.93976 683.54376 727.78278"
         y="-89.881798"
         sodipodi:role="line"
         id="tspan134">Curriculum</tspan></text><text
       transform="scale(1,-1)"
       style="font-variant:normal;font-weight:normal;font-stretch:normal;font-size:23px;font-family:'BentonSans Regular';-inkscape-font-specification:BentonSans-Regular;writing-mode:lr-tb;fill:#ffffff;fill-opacity:1;fill-rule:nonzero;stroke:none"
       id="text140"
       x="599.69427"
       y="-62.529305"><tspan
         x="599.69427 606.68628 614.39362 626.88263"
         y="-62.529305"
         sodipodi:role="line"
         id="tspan138">from</tspan></text><text
       transform="scale(1,-1)"
       style="font-variant:normal;font-weight:bold;font-stretch:normal;font-size:23px;font-family:'BentonSans Bold';-inkscape-font-specification:BentonSans-Bold;writing-mode:lr-tb;fill:#ffffff;fill-opacity:1;fill-rule:nonzero;stroke:none"
       id="text144"
       x="651.9043"
       y="-62.529305"><tspan
         x="651.9043 666.47021 682.3172 698.41718 714.26422"
         y="-62.529305"
         sodipodi:role="line"
         id="tspan142">ACDC </tspan></text><text
       transform="scale(1,-1)"
       style="font-variant:normal;font-weight:normal;font-stretch:normal;font-size:23px;font-family:'BentonSans Regular';-inkscape-font-specification:BentonSans-Regular;writing-mode:lr-tb;fill:#ffffff;fill-opacity:1;fill-rule:nonzero;stroke:none"
       id="text148"
       x="719.5473"
       y="-62.529305"><tspan
         x="719.5473 735.92328 740.7533 748.50427"
         y="-62.529305"
         sodipodi:role="line"
         id="tspan146">with</tspan></text><g
       id="g150"
       transform="translate(-18,15)"><g
         id="g152"><g
           id="g158"><g
             id="g160"><path
               d="m 805.95,66.366 c -1.331,0 -2.572,-0.382 -3.623,-1.044 v 0 c -0.038,-0.018 -0.07,-0.043 -0.102,-0.063 v 0 c -0.611,-0.401 -1.152,-0.891 -1.604,-1.458 v 0 c -0.076,-0.089 -0.147,-0.191 -0.216,-0.286 v 0 c -0.07,-0.096 -0.14,-0.197 -0.204,-0.299 v 0 c -0.127,-0.204 -0.249,-0.421 -0.357,-0.636 v 0 c -0.037,-0.071 -0.076,-0.147 -0.108,-0.223 v 0 c -0.026,-0.058 -0.057,-0.121 -0.083,-0.185 v 0 c -0.031,-0.083 -0.063,-0.166 -0.095,-0.242 v 0 c -0.007,-0.013 -0.012,-0.025 -0.012,-0.038 v 0 c -0.045,-0.115 -0.083,-0.223 -0.116,-0.331 v 0 c -0.07,-0.237 -0.134,-0.478 -0.184,-0.726 v 0 c -0.025,-0.121 -0.044,-0.243 -0.064,-0.37 v 0 c -0.267,1.999 -1.407,3.731 -3.024,4.788 v 0 c -0.038,0.026 -0.069,0.044 -0.107,0.069 v 0 c -1.051,0.662 -2.292,1.044 -3.63,1.044 v 0 h -0.05 c -0.192,0 -0.382,-0.013 -0.566,-0.031 v 0 c -0.078,0 -0.147,-0.012 -0.217,-0.019 v 0 c -0.077,-0.007 -0.154,-0.019 -0.223,-0.032 v 0 c -0.452,-0.07 -0.885,-0.184 -1.305,-0.337 v 0 c -0.204,-0.077 -0.401,-0.166 -0.598,-0.255 v 0 c 0,-0.006 -0.007,-0.006 -0.014,-0.006 v 0 c -0.198,-0.096 -0.387,-0.205 -0.579,-0.319 v 0 c -0.185,-0.114 -0.363,-0.235 -0.541,-0.369 v 0 c -0.172,-0.127 -0.338,-0.267 -0.496,-0.407 v 0 l -0.007,-0.007 c -0.083,-0.076 -0.159,-0.152 -0.236,-0.229 v 0 c -0.305,-0.305 -0.586,-0.643 -0.827,-1.006 v 0 c -0.121,-0.178 -0.236,-0.37 -0.344,-0.56 v 0 c -0.102,-0.191 -0.198,-0.395 -0.287,-0.592 v 0 -0.006 c -0.083,-0.204 -0.158,-0.408 -0.228,-0.617 v 0 c -0.199,-0.644 -0.306,-1.324 -0.306,-2.032 v 0 c 0,-0.496 0.057,-0.986 0.16,-1.451 v 0 c 0.069,-0.313 0.159,-0.617 0.266,-0.917 v 0 c 0.166,-0.44 0.376,-0.859 0.624,-1.254 v 0 c 0.02,-0.038 0.045,-0.076 0.064,-0.108 v 0 c 0.019,-0.019 0.032,-0.044 0.045,-0.064 v 0 c 0.197,-0.299 0.419,-0.579 0.661,-0.841 v 0 l 11.771,-11.77 h 0.007 v 0.006 l 6.787,6.787 v 0.006 l 4.787,4.787 c 0.305,0.306 0.585,0.643 0.828,1 v 0 c 0.018,0.031 0.044,0.063 0.063,0.096 v 0 c 0.019,0.031 0.045,0.069 0.064,0.101 v 0 c 0.661,1.051 1.044,2.298 1.044,3.622 v 0 c 0,3.756 -3.037,6.806 -6.786,6.824 v 0 z"
               style="fill:url(#linearGradient166);stroke:none"
               id="path168" /></g></g></g></g></g></svg>
