<?xml version="1.0" encoding="UTF-8"?>
<svg viewBox="0 0 128 128" xmlns="http://www.w3.org/2000/svg" xmlns:xlink="http://www.w3.org/1999/xlink">
 <defs>
  <filter id="o" x="-.34802" y="-.34085" width="1.696" height="1.6817">
   <feGaussianBlur stdDeviation="5.46506"/>
  </filter>
  <filter id="n" x="-.51975" y="-.45339" width="2.0395" height="1.9068">
   <feGaussianBlur stdDeviation="4.15116"/>
  </filter>
  <filter id="m" x="-.07002" y="-.3401" width="1.14" height="1.6802">
   <feGaussianBlur stdDeviation="3.96783"/>
  </filter>
  <filter id="p" x="-.72009" y="-.90592" width="2.4402" height="2.8118">
   <feGaussianBlur stdDeviation="2.08412"/>
  </filter>
  <filter id="e" x="-.10495" y="-.08176" width="1.2099" height="1.1635">
   <feGaussianBlur stdDeviation=".76439"/>
  </filter>
  <linearGradient id="a">
   <stop offset="0"/>
   <stop stop-color="#333" offset=".5"/>
   <stop offset="1"/>
  </linearGradient>
  <linearGradient id="b">
   <stop stop-opacity="0" offset="0"/>
   <stop stop-opacity=".57196" offset="1"/>
  </linearGradient>
  <linearGradient id="l" x1="297.52" x2="296.84" y1="87.127" y2="89.847" gradientTransform="matrix(.97086 -.16355 .23963 .66265 -11.703 85.181)" gradientUnits="userSpaceOnUse" xlink:href="#a"/>
  <linearGradient id="k" x1="297.52" x2="296.84" y1="87.127" y2="89.847" gradientTransform="matrix(.80388 -.48916 .5948 .66111 8.4148 187.06)" gradientUnits="userSpaceOnUse" xlink:href="#a"/>
  <linearGradient id="j" x1="297.52" x2="296.84" y1="87.127" y2="89.847" gradientTransform="matrix(-.80388 -.44955 -.5948 .60757 618.47 179.15)" gradientUnits="userSpaceOnUse" xlink:href="#a"/>
  <linearGradient id="i" x1="297.52" x2="296.84" y1="87.127" y2="89.847" gradientTransform="matrix(-.99724 -.06256 -.0742 .84077 630.05 37.051)" gradientUnits="userSpaceOnUse" xlink:href="#a"/>
  <radialGradient id="g" cx="210.89" cy="506.35" r="68" gradientTransform="matrix(1.4028 1.6439e-6 -1.4521e-7 .20588 -89.845 403.11)" gradientUnits="userSpaceOnUse">
   <stop offset="0"/>
   <stop stop-opacity="0" offset="1"/>
  </radialGradient>
  <radialGradient id="h" cx="216.99" cy="497.96" r="65" gradientTransform="matrix(.51027 1.0072 -.96511 .48897 650.67 -405.93)" gradientUnits="userSpaceOnUse" xlink:href="#b"/>
  <radialGradient id="d" cx="233.5" cy="409.86" r="15.5" gradientTransform="matrix(.3871 1.5161 -1.4234 .36342 726.51 -93.107)" gradientUnits="userSpaceOnUse" xlink:href="#b"/>
  <radialGradient id="c" cx="35.806" cy="29.751" r="10.944" gradientTransform="matrix(2.2791 -.02245 .02284 2.3186 129.73 24.148)" gradientUnits="userSpaceOnUse" xlink:href="#b"/>
  <radialGradient id="f" cx="255.11" cy="42.847" r="12.05" gradientTransform="matrix(1.1126 -.10953 .05951 3.6687 -86.278 -82.277)" gradientUnits="userSpaceOnUse" xlink:href="#b"/>
 </defs>
 <g transform="translate(-233.42 -11.734)">
  <path transform="matrix(.7548 0 0 .61103 141.93 -182.83)" d="m274 507.36c0 7.728-30.464 14-68 14s-68-6.272-68-14 30.464-14 68-14 68 6.272 68 14z" fill="url(#g)" filter="url(#m)"/>
  <g transform="matrix(-.8772 .12568 .12045 .84068 501.05 -59.387)" fill-rule="evenodd">
   <path d="m210.22 111.24c8.2953-2.1518 14.865-5.4088 18.75-14.5 6.1013-51.547-75.718-14.952-18.75 14.5z" fill="#83796b"/>
   <path d="m212.25 109.99c6.177-1.839 12.024-5.578 14.719-11.594 1.5204-41.509-60.731-16.436-14.719 11.594z" fill="#fff" fill-opacity=".65639" filter="url(#e)"/>
   <path d="m210.22 111.45c8.2953-2.1518 14.865-5.4088 18.75-14.5 6.1891-52.655-75.889-14.563-18.75 14.5z" fill="url(#c)"/>
  </g>
  <g transform="matrix(.9787 -.2053 .2053 .9787 37.999 33.046)" fill-rule="evenodd">
   <path d="m198.25 33.015c2.9018 25.536-4.0205 50.73 4.1931 63.921 5.5761-4.5353 10.714-42.209-4.1931-63.921z" fill="#6f4c05"/>
   <path d="m198.25 33.015c2.9018 25.536-4.0205 50.73 4.1931 63.921 5.5761-4.5353 10.714-42.209-4.1931-63.921z" fill="url(#f)"/>
  </g>
  <path d="m343.76 83.695c0 3.4523-0.37818 26.777-1.0954 30.015-1.7638 8.8818-7.4732 13.995-16.047 15.942-3.985 0.7434-8.5178-15.558-13.437-15.648s-10.225 16.028-15.757 16.028c-5.5573 0-10.887-16.128-15.826-16.053s-9.4866 16.353-13.48 15.582c-9.0418-1.5005-13.769-7.6856-15.999-16.143-0.67582-3.1476-1.0316-26.374-1.0316-29.722 0-25.578 20.759-46.336 46.336-46.336s46.336 20.759 46.336 46.336z" fill="#4b453d"/>
  <path d="m343.54 83.909c0 3.4523-0.37818 26.777-1.0954 30.015-1.7638 8.8818-7.4732 13.995-16.047 15.942-3.985 0.7434-8.5178-15.558-13.437-15.648s-10.225 16.028-15.757 16.028c-5.5573 0-10.887-16.128-15.826-16.053s-9.4866 16.353-13.48 15.582c-9.0418-1.5005-13.769-7.6856-15.999-16.143-0.67582-3.1476-1.0316-26.374-1.0316-29.722 0-25.578 20.759-46.336 46.336-46.336s46.336 20.759 46.336 46.336z" fill="url(#h)"/>
  <path transform="matrix(.71287 0 0 .71287 148.43 -234.5)" d="m180.01 413.25c-10.026 10.27-20.406 16.414-23.171 13.715s3.1277-13.225 13.153-23.494 20.406-16.414 23.171-13.715-3.1277 13.225-13.153 23.494z" fill="#fff" fill-opacity=".62745" filter="url(#o)"/>
  <path transform="matrix(.5498 .45376 -.45376 .5498 418.69 -273.33)" d="m262 501.86c0 7.452-2.464 13.5-5.5 13.5s-5.5-6.048-5.5-13.5 2.464-13.5 5.5-13.5 5.5 6.048 5.5 13.5z" fill="#fff" fill-opacity=".43439" filter="url(#n)"/>
  <path transform="matrix(1.0556 0 0 1.0556 228.79 9.4274)" d="m87 82.25c0 3.7279-3.0221 6.75-6.75 6.75s-6.75-3.0221-6.75-6.75 3.0221-6.75 6.75-6.75 6.75 3.0221 6.75 6.75z"/>
  <path transform="matrix(.53137 .27866 -.525 1.0011 309.68 -8.5055)" d="m83.5 80.125c0 1.5878-1.3991 2.875-3.125 2.875s-3.125-1.2872-3.125-2.875 1.3991-2.875 3.125-2.875 3.125 1.2872 3.125 2.875z" fill="#fff" fill-opacity=".7533" filter="url(#p)"/>
  <path d="m281.07 95.297 22.253 1.2862c1.2258-1.0532 0.37236-2.213-0.1337-2.7565l-22.12 1.4702z" fill="url(#l)" fill-rule="evenodd"/>
  <g transform="translate(57.91 -44.875)" fill-rule="evenodd">
   <path d="m210.22 111.24c8.2953-2.1518 14.865-5.4088 18.75-14.5 6.1013-51.547-75.718-14.952-18.75 14.5z" fill="#83796b"/>
   <path d="m212.25 109.99c6.177-1.839 12.024-5.578 14.719-11.594 1.5204-41.509-60.731-16.436-14.719 11.594z" fill="#fff" fill-opacity=".65639" filter="url(#e)"/>
   <path d="m210.22 111.45c8.2953-2.1518 14.865-5.4088 18.75-14.5 6.1891-52.655-75.889-14.563-18.75 14.5z" fill="url(#c)"/>
  </g>
  <path d="m286.72 104.73 18.89-4.6874c0.53755-1.5593-1.1541-2.7846-1.9276-3.2289l-16.962 7.9162z" fill="url(#k)" fill-rule="evenodd"/>
  <path d="m338.17 102.82-16.89-3.6464c-0.53755-1.433 1.1541-2.5591 1.9276-2.9674l14.962 6.6138z" fill="url(#j)" fill-rule="evenodd"/>
  <path d="m342.61 90.681-20.377 4.593c-1.4662-1.1102-0.90836-2.6429-0.54232-3.376l20.919-1.217z" fill="url(#i)" fill-rule="evenodd"/>
  <path transform="matrix(.71287 0 0 .71287 154.94 -222.68)" d="m255 417.86c0 8.5604-6.9396 15.5-15.5 15.5s-15.5-6.9396-15.5-15.5 6.9396-15.5 15.5-15.5 15.5 6.9396 15.5 15.5z" fill="#fff"/>
  <path transform="matrix(.71287 0 0 .71287 154.94 -222.68)" d="m255 417.86c0 8.5604-6.9396 15.5-15.5 15.5s-15.5-6.9396-15.5-15.5 6.9396-15.5 15.5-15.5 15.5 6.9396 15.5 15.5z" fill="url(#d)"/>
  <path transform="matrix(.43692 0 0 .43692 224.6 -106.66)" d="m255 417.86c0 8.5604-6.9396 15.5-15.5 15.5s-15.5-6.9396-15.5-15.5 6.9396-15.5 15.5-15.5 15.5 6.9396 15.5 15.5z"/>
  <path transform="matrix(.71287 0 0 .71287 126.43 -222.68)" d="m255 417.86c0 8.5604-6.9396 15.5-15.5 15.5s-15.5-6.9396-15.5-15.5 6.9396-15.5 15.5-15.5 15.5 6.9396 15.5 15.5z" fill="#fff"/>
  <path transform="matrix(.71287 0 0 .71287 126.43 -222.68)" d="m255 417.86c0 8.5604-6.9396 15.5-15.5 15.5s-15.5-6.9396-15.5-15.5 6.9396-15.5 15.5-15.5 15.5 6.9396 15.5 15.5z" fill="url(#d)"/>
  <path transform="matrix(.43692 0 0 .43692 196.08 -106.66)" d="m255 417.86c0 8.5604-6.9396 15.5-15.5 15.5s-15.5-6.9396-15.5-15.5 6.9396-15.5 15.5-15.5 15.5 6.9396 15.5 15.5z"/>
 </g>
</svg>
