<?xml version="1.0" encoding="UTF-8"?>
<svg viewBox="0 0 128 128" xmlns="http://www.w3.org/2000/svg" xmlns:xlink="http://www.w3.org/1999/xlink">
 <defs>
  <filter id="m" x="-.34802" y="-.34085" width="1.696" height="1.6817">
   <feGaussianBlur stdDeviation="5.46506"/>
  </filter>
  <filter id="l" x="-.51975" y="-.45339" width="2.0395" height="1.9068">
   <feGaussianBlur stdDeviation="4.15116"/>
  </filter>
  <filter id="k" x="-.07002" y="-.3401" width="1.14" height="1.6802">
   <feGaussianBlur stdDeviation="3.96783"/>
  </filter>
  <filter id="j" x="-.38126" y="-.834" width="1.7625" height="2.668">
   <feGaussianBlur stdDeviation=".98288"/>
  </filter>
  <filter id="i" x="-.07742" y="-.24144" width="1.1548" height="1.4829">
   <feGaussianBlur stdDeviation=".4436"/>
  </filter>
  <linearGradient id="c">
   <stop offset="0"/>
   <stop stop-opacity="0" offset="1"/>
  </linearGradient>
  <linearGradient id="a">
   <stop stop-opacity="0" offset="0"/>
   <stop stop-opacity=".57196" offset="1"/>
  </linearGradient>
  <radialGradient id="b" cx="233.5" cy="409.86" r="15.5" gradientTransform="matrix(.3871 1.5161 -1.4234 .36342 726.51 -93.107)" gradientUnits="userSpaceOnUse" xlink:href="#a"/>
  <radialGradient id="h" cx="210.89" cy="506.35" r="68" gradientTransform="matrix(1.4028 1.6439e-6 -1.4521e-7 .20588 -89.845 403.11)" gradientUnits="userSpaceOnUse" xlink:href="#c"/>
  <radialGradient id="g" cx="216.99" cy="497.96" r="65" gradientTransform="matrix(.51027 1.0072 -.96511 .48897 650.63 -406.14)" gradientUnits="userSpaceOnUse" xlink:href="#a"/>
  <radialGradient id="f" cx="307.44" cy="273.5" r="6.9375" gradientTransform="matrix(1.4615 -.21496 .079255 .53886 -163.57 192.21)" gradientUnits="userSpaceOnUse" xlink:href="#c"/>
  <radialGradient id="e" cx="305.61" cy="259.27" r="6.9041" gradientTransform="matrix(-1.6319 1.8905 -3.3513 -2.893 1618.3 219.74)" gradientUnits="userSpaceOnUse" xlink:href="#a"/>
  <radialGradient id="d" cx="158.55" cy="441.93" r="15.554" gradientTransform="matrix(1.2652 -.99261 .79826 1.0265 -314.76 -240.85)" gradientUnits="userSpaceOnUse" xlink:href="#a"/>
 </defs>
 <g transform="translate(-233.42 -11.735)">
  <path d="m261.2 61.867c4.7203-2.4857 8.6006-6.5588 6.9557-11.787-4.9234 3.3326-8.7173 2.4721-10.597-4.2698-0.82402-2.9552-5.2977-2.9227-7.5157-6.0373-2.7972 0.48092-5.2719 3.2997-5.4339 6.8628 3.8345 1.3438 7.6453-0.29162 8.795 3.3698 1.1984 3.8164 3.8513 10.28 7.796 11.861z" fill="#c87137" fill-rule="evenodd"/>
  <path d="m260.68 62.126c4.7203-2.4857 8.6006-6.5588 6.9557-11.787-4.9234 3.3326-8.7173 2.4721-10.597-4.2698-0.82402-2.9552-5.2977-2.9227-7.5157-6.0373-2.7972 0.48092-5.2719 3.2997-5.4339 6.8628 3.8345 1.3438 7.6453-0.29162 8.795 3.3698 1.1984 3.8164 3.8513 10.28 7.796 11.861z" fill="url(#e)" fill-rule="evenodd"/>
  <path transform="matrix(.61329 -.78986 .78986 .61329 -140.24 131.11)" d="m306 270.53c-2.284-0.22236-8.6187 1.3626-5.625 4.5 4.4276 1.9635 11.173 2.6235 14.906-0.90625 0.38897-4.117-6.799-3.431-9.2812-3.5938z" fill="url(#f)" fill-opacity=".76549" filter="url(#i)"/>
  <path transform="matrix(.6429 -.76595 .76595 .6429 69.41 197.89)" d="m236.19 36.635c0 0.78065-1.3859 1.4142-3.0936 1.4142s-3.0936-0.63357-3.0936-1.4142 1.3859-1.4142 3.0936-1.4142 3.0936 0.63357 3.0936 1.4142z" fill="#fff" fill-opacity=".76549" filter="url(#j)"/>
  <path transform="matrix(.7548 0 0 .61103 141.67 -182.83)" d="m274 507.36c0 7.728-30.464 14-68 14s-68-6.272-68-14 30.464-14 68-14 68 6.272 68 14z" fill="url(#h)" filter="url(#k)"/>
  <path d="m343.5 83.695c0 3.4523-0.37818 26.777-1.0954 30.015-1.7638 8.8818-7.4732 13.995-16.047 15.942-3.985 0.7434-8.5178-15.558-13.437-15.648s-10.225 16.028-15.757 16.028c-5.5573 0-10.887-16.128-15.826-16.053s-9.4866 16.353-13.48 15.582c-9.0418-1.5005-13.769-7.6856-15.999-16.143-0.67582-3.1476-1.0316-26.374-1.0316-29.722 0-25.578 20.759-46.336 46.336-46.336s46.336 20.759 46.336 46.336z" fill="#fca"/>
  <path d="m343.5 83.698c0 3.4523-0.37818 26.777-1.0954 30.015-1.7638 8.8818-7.4732 13.995-16.047 15.942-3.985 0.7434-8.5178-15.558-13.437-15.648s-10.225 16.028-15.757 16.028c-5.5573 0-10.887-16.128-15.826-16.053s-9.4866 16.353-13.48 15.582c-9.0418-1.5005-13.769-7.6856-15.999-16.143-0.67582-3.1476-1.0316-26.374-1.0316-29.722 0-25.578 20.759-46.336 46.336-46.336s46.336 20.759 46.336 46.336z" fill="url(#g)"/>
  <path transform="matrix(.71287 0 0 .71287 148.17 -234.5)" d="m182.98 415.24c-10.026 10.27-20.406 16.414-23.171 13.715s3.1277-13.225 13.153-23.494 20.406-16.414 23.171-13.715-3.1277 13.225-13.153 23.494z" fill="#fff" fill-opacity=".62745" filter="url(#m)"/>
  <path transform="matrix(.5498 .45375 -.45375 .5498 418.43 -273.33)" d="m262 501.86c0 7.452-2.464 13.5-5.5 13.5s-5.5-6.048-5.5-13.5 2.464-13.5 5.5-13.5 5.5 6.048 5.5 13.5z" fill="#fff" fill-opacity=".43439" filter="url(#l)"/>
  <path d="m236.12 75.701s-6.1016-56.636 18.294-39.89c14.807 10.164-13.059 36.67-18.294 39.89z" fill-rule="evenodd"/>
  <path d="m236.26 75.703s-6.1016-56.636 18.294-39.89c14.807 10.164-13.059 36.67-18.294 39.89z" fill="url(#d)" fill-rule="evenodd"/>
  <path transform="matrix(.71287 0 0 .71287 127.46 -220.87)" d="m255 417.86a15.5 15.5 0 1 1 -31 0 15.5 15.5 0 1 1 31 0z" fill="#fff"/>
  <path transform="matrix(.71287 0 0 .71287 127.46 -220.87)" d="m255 417.86a15.5 15.5 0 1 1 -31 0 15.5 15.5 0 1 1 31 0z" fill="url(#b)"/>
  <path transform="matrix(.43692 0 0 .43692 197.11 -104.84)" d="m255 417.86a15.5 15.5 0 1 1 -31 0 15.5 15.5 0 1 1 31 0z"/>
  <path transform="matrix(.71287 0 0 .71287 152.8 -219.59)" d="m255 417.86a15.5 15.5 0 1 1 -31 0 15.5 15.5 0 1 1 31 0z" fill="#fff"/>
  <path transform="matrix(.71287 0 0 .71287 152.8 -219.59)" d="m255 417.86a15.5 15.5 0 1 1 -31 0 15.5 15.5 0 1 1 31 0z" fill="url(#b)"/>
  <path transform="matrix(.43692 0 0 .43692 222.45 -103.56)" d="m255 417.86a15.5 15.5 0 1 1 -31 0 15.5 15.5 0 1 1 31 0z"/>
  <path d="m320.88 101.8c-4.9827-3.1561-9.9733-1.491-16.947-0.00678l-2.3328 0.87198c7.396-0.23976 11.653-2.1219 19.049-0.2563l0.22998-0.6089z" fill-rule="evenodd"/>
  <path transform="translate(233.42 11.735)" d="m18.176 64c6.144-4.5227 16.264-10.205 19.456-11.776l68.096 1.28c-6.2723-16.867-32.731-35.931-59.904-23.808-6.5071 2.5149-14.655 8.7526-19.712 15.872-3.4577 5.3316-6.4922 11.087-7.936 18.432z" fill="#030000" fill-rule="evenodd" stroke="#000"/>
 </g>
</svg>
