<?xml version="1.0" encoding="UTF-8"?>
<svg viewBox="0 0 128 128" xmlns="http://www.w3.org/2000/svg" xmlns:xlink="http://www.w3.org/1999/xlink">
 <defs>
  <filter id="i" x="-.34802" y="-.34085" width="1.696" height="1.6817">
   <feGaussianBlur stdDeviation="5.46506"/>
  </filter>
  <filter id="h" x="-.51975" y="-.45339" width="2.0395" height="1.9068">
   <feGaussianBlur stdDeviation="4.15116"/>
  </filter>
  <filter id="g" x="-.07002" y="-.3401" width="1.14" height="1.6802">
   <feGaussianBlur stdDeviation="3.96783"/>
  </filter>
  <filter id="b" x="-.64455" y="-.25037" width="2.2891" height="1.5007">
   <feGaussianBlur stdDeviation="5.29014"/>
  </filter>
  <linearGradient id="a">
   <stop stop-opacity="0" offset="0"/>
   <stop stop-opacity=".57196" offset="1"/>
  </linearGradient>
  <radialGradient id="f" cx="210.89" cy="506.35" r="68" gradientTransform="matrix(1.4028 1.6439e-6 -1.4521e-7 .20588 -89.845 403.11)" gradientUnits="userSpaceOnUse">
   <stop offset="0"/>
   <stop stop-opacity="0" offset="1"/>
  </radialGradient>
  <radialGradient id="e" cx="216.99" cy="497.96" r="65" gradientTransform="matrix(.7158 1.4128 -1.3538 .68592 735.84 -155.77)" gradientUnits="userSpaceOnUse" xlink:href="#a"/>
  <radialGradient id="d" cx="326.28" cy="410.9" r="13.647" gradientTransform="matrix(1.6069 .040769 -.0083746 .33009 -199.49 262.8)" gradientUnits="userSpaceOnUse" xlink:href="#a"/>
  <radialGradient id="c" cx="540.82" cy="53.658" r="10.14" gradientTransform="matrix(1.3542 .12822 -.031791 .361 -193.86 -29.605)" gradientUnits="userSpaceOnUse" xlink:href="#a"/>
 </defs>
 <g transform="matrix(.71287 0 0 .71287 -84.989 -246.24)">
  <path transform="matrix(1.0588 0 0 .85714 -9.1176 72.48)" d="m274 507.36c0 7.728-30.464 14-68 14s-68-6.272-68-14 30.464-14 68-14 68 6.272 68 14z" fill="url(#f)" filter="url(#g)"/>
  <path transform="translate(-31,-85)" d="m305 531.36c0 4.8429-0.53051 37.563-1.5365 42.104-2.4742 12.459-10.483 19.633-22.511 22.363-5.5901 1.0428-11.949-21.824-18.85-21.951s-14.344 22.484-22.103 22.484c-7.7957 0-15.272-22.625-22.2-22.52s-13.308 22.94-18.91 21.858c-12.684-2.1049-19.316-10.781-22.443-22.645-0.94804-4.4155-1.4472-36.997-1.4472-41.694 0-35.88 29.12-65 65-65s65 29.12 65 65z" fill="#7137c8"/>
  <path transform="translate(-31,-85)" d="m305 531.36c0 4.8429-0.53051 37.563-1.5365 42.104-2.4742 12.459-10.483 19.633-22.511 22.363-5.5901 1.0428-11.949-21.824-18.85-21.951s-14.344 22.484-22.103 22.484c-7.7957 0-15.272-22.625-22.2-22.52s-13.308 22.94-18.91 21.858c-12.684-2.1049-19.316-10.781-22.443-22.645-0.94804-4.4155-1.4472-36.997-1.4472-41.694 0-35.88 29.12-65 65-65s65 29.12 65 65z" fill="url(#e)"/>
  <path d="m180.01 413.25c-10.026 10.27-20.406 16.414-23.171 13.715s3.1277-13.225 13.153-23.494 20.406-16.414 23.171-13.715-3.1277 13.225-13.153 23.494z" fill="#fff" fill-opacity=".62745" filter="url(#i)"/>
  <path transform="matrix(.77126 .63652 -.63652 .77126 379.12 -54.471)" d="m262 501.86c0 7.452-2.464 13.5-5.5 13.5s-5.5-6.048-5.5-13.5 2.464-13.5 5.5-13.5 5.5 6.048 5.5 13.5z" fill="#fff" fill-opacity=".43439" filter="url(#h)"/>
  <path d="m270.12 418.38c-27.499 3.7711-53.79 4.7247-79.038 3.2439l-44.582 4.6467c-2.6051 1.8483-4.4888 3.9852-3.3754 7.3208l47.651-2.7179c-4.5754 26.825 20.24 37.511 37.437 17.754 1.5711-3.5864 1.2666-7.1727 0.89511-10.759 0.94247-2.3783 4.5826-4.3693 6.8285-1.2203 0.37779 3.601-0.562 7.202 2.2173 10.803 17.912 13.688 37.279 1.1119 34.611-20.52-0.30146-2.4441-2.4132-5.985-2.6438-8.5508z"/>
  <path transform="matrix(.42089 -.21671 .24495 .27862 2.5938 363.02)" d="m223.16 432.1c-10.026 10.27-20.406 16.414-23.171 13.715s3.1277-13.225 13.153-23.494 20.406-16.414 23.171-13.715-3.1277 13.225-13.153 23.494z" fill="#fff" fill-opacity=".47511" filter="url(#b)"/>
  <path transform="matrix(.42089 -.21671 .24495 .27862 46.982 362.52)" d="m223.16 432.1c-10.026 10.27-20.406 16.414-23.171 13.715s3.1277-13.225 13.153-23.494 20.406-16.414 23.171-13.715-3.1277 13.225-13.153 23.494z" fill="#fff" fill-opacity=".47511" filter="url(#b)"/>
  <path transform="rotate(9.6922)" d="m315.7 410.43h27.294v5.6277h-27.294z" fill="#fe8dff"/>
  <path transform="rotate(9.6922)" d="m315.7 410.43h27.294v5.6277h-27.294z" fill="url(#d)"/>
  <path transform="matrix(.59244,.80561,-.80068,.5991,0,0)" d="m531.04 57.434h20.281v5.6275h-20.281z" fill="#fe8dff"/>
  <path transform="matrix(.59244,.80561,-.80068,.5991,0,0)" d="m531.04 57.434h20.281v5.6275h-20.281z" fill="url(#c)"/>
 </g>
</svg>
