<?xml version="1.0" encoding="UTF-8" standalone="no"?>
<svg
   version="1.1"
   id="svg2"
   xml:space="preserve"
   width="870"
   height="210"
   viewBox="0 0 870 210"
   sodipodi:docname="acdc.svg"
   inkscape:version="1.1 (c4e8f9e, 2021-05-24)"
   xmlns:inkscape="http://www.inkscape.org/namespaces/inkscape"
   xmlns:sodipodi="http://sodipodi.sourceforge.net/DTD/sodipodi-0.dtd"
   xmlns="http://www.w3.org/2000/svg"
   xmlns:svg="http://www.w3.org/2000/svg"
   xmlns:rdf="http://www.w3.org/1999/02/22-rdf-syntax-ns#"
   xmlns:cc="http://creativecommons.org/ns#"
   xmlns:dc="http://purl.org/dc/elements/1.1/"><metadata
     id="metadata8"><rdf:RDF><cc:Work
         rdf:about=""><dc:format>image/svg+xml</dc:format><dc:type
           rdf:resource="http://purl.org/dc/dcmitype/StillImage" /></cc:Work></rdf:RDF></metadata><defs
     id="defs6"><clipPath
       clipPathUnits="userSpaceOnUse"
       id="clipPath18"><path
         d="M 0,178.491 H 697.465 V 0 H 0 Z"
         id="path16" /></clipPath></defs><sodipodi:namedview
     pagecolor="#ffffff"
     bordercolor="#666666"
     borderopacity="1"
     objecttolerance="10"
     gridtolerance="10"
     guidetolerance="10"
     inkscape:pageopacity="0"
     inkscape:pageshadow="2"
     inkscape:window-width="1641"
     inkscape:window-height="845"
     id="namedview4"
     inkscape:pagecheckerboard="0"
     showgrid="false"
     width="870px"
     height="220px"
     inkscape:zoom="0.86054223"
     inkscape:cx="468.30938"
     inkscape:cy="97.031845"
     inkscape:window-x="0"
     inkscape:window-y="25"
     inkscape:window-maximized="0"
     inkscape:current-layer="g10" /><g
     id="g10"
     inkscape:groupmode="layer"
     inkscape:label="ACDC-Logo_Neg"
     transform="matrix(1.3333333,0,0,-1.3333333,0,237.988)"><g
       id="g12"
       transform="translate(-15,3)"><g
         id="g14"
         clip-path="url(#clipPath18)"><g
           id="g20"
           transform="translate(476.0304,47.3069)"><path
             d="M 0,0 -14.667,14.666 V 5.839 h -7.336 C -25.13,1.271 -29.075,-2.689 -33.624,-5.839 h 18.957 v -8.828 z"
             style="fill:#00a1e4;fill-opacity:1;fill-rule:nonzero;stroke:none"
             id="path22" /></g><g
           id="g24"
           transform="translate(300.6193,71.1663)"><path
             d="m 0,0 c 0,9.938 8.086,18.022 18.023,18.022 0.813,0 1.654,-0.06 2.495,-0.176 l 6.334,-0.888 0.306,6.391 c 0.454,9.445 8.232,16.844 17.708,16.844 0.229,0 0.457,-0.01 0.685,-0.019 l 4.345,-0.167 1.404,4.115 c 4.432,12.975 15.679,22.208 28.928,24.261 l -5.272,5.271 6.644,6.643 C 64.219,78.745 48.789,67.737 41.733,51.704 29.518,50.393 19.319,41.49 16.343,29.654 0.746,28.794 -11.678,15.822 -11.678,0 c 0,-4.441 0.998,-8.648 2.755,-12.435 H 5.011 C 1.915,-9.197 0,-4.822 0,0"
             style="fill:#00a1e4;fill-opacity:1;fill-rule:nonzero;stroke:none"
             id="path26" /></g><g
           id="g28"
           transform="translate(457.4103,78.5491)"><path
             d="m 0,0 c 0,15.282 -9.663,29.175 -23.781,34.618 -3.73,18.218 -17.873,32.538 -35.487,37.017 v 9.303 L -73.935,66.271 -59.268,51.604 v 7.892 c 12.938,-4.387 22.757,-15.849 24.507,-30.037 l 0.482,-3.904 3.8,-1.019 c 11.07,-2.971 18.801,-13.06 18.801,-24.536 0,-14.008 -11.393,-25.403 -25.398,-25.403 h -6.936 -47.785 -46.971 -23.586 -0.548 l 5.839,-5.839 -5.839,-5.839 h 24.134 46.971 54.721 C -16.633,-37.081 0,-20.446 0,0"
             style="fill:#00a1e4;fill-opacity:1;fill-rule:nonzero;stroke:none"
             id="path30" /></g></g></g><text
       transform="scale(1,-1)"
       style="font-variant:normal;font-weight:bold;font-stretch:normal;font-size:85.0114px;font-family:'BentonSans Bold';-inkscape-font-specification:BentonSans-Bold;writing-mode:lr-tb;fill:#ffffff;fill-opacity:1;fill-rule:nonzero;stroke:none"
       id="text34"
       x="18.900398"
       y="-61.667"><tspan
         x="18.900398 72.738121 131.31099 190.81895"
         y="-61.667"
         sodipodi:role="line"
         id="tspan32">ACDC</tspan></text><text
       transform="scale(1,-1)"
       style="font-variant:normal;font-weight:bold;font-stretch:normal;font-size:25px;font-family:'BentonSans Bold';-inkscape-font-specification:BentonSans-Bold;writing-mode:lr-tb;fill:#ffffff;fill-opacity:1;fill-rule:nonzero;stroke:none"
       id="text38"
       x="470.09961"
       y="-106.9316"><tspan
         x="470.09961 486.92459 501.29962 507.6496 513.99957"
         y="-106.9316"
         sodipodi:role="line"
         id="tspan36">Agile</tspan></text><text
       transform="scale(1,-1)"
       style="font-variant:normal;font-weight:normal;font-stretch:normal;font-size:25px;font-family:'BentonSans Book';-inkscape-font-specification:BentonSans-Book;writing-mode:lr-tb;fill:#ffffff;fill-opacity:1;fill-rule:nonzero;stroke:none"
       id="text42"
       x="527.42462"
       y="-106.9316"><tspan
         x="527.42462"
         y="-106.9316"
         id="tspan40">+</tspan></text><text
       transform="scale(1,-1)"
       style="font-variant:normal;font-weight:bold;font-stretch:normal;font-size:25px;font-family:'BentonSans Bold';-inkscape-font-specification:BentonSans-Bold;writing-mode:lr-tb;fill:#ffffff;fill-opacity:1;fill-rule:nonzero;stroke:none"
       id="text50"
       x="542.32458"
       y="-106.9316"><tspan
         x="542.32458 559.54962 565.8996 580.12457 594.57458"
         y="-106.9316"
         sodipodi:role="line"
         id="tspan44">Cloud</tspan><tspan
         x="470.09961 487.36209 500.3996 512.2771 525.70209 532.05212 546.2771 560.87708 583.17712 596.60211 611.05212"
         y="-83.931602"
         sodipodi:role="line"
         id="tspan46">Development</tspan><tspan
         x="470.09961 487.07959 501.30463 523.60461 538.20459 551.62958 561.22461 574.6496 589.09961 601.97461 608.32458 621.50958"
         y="-60.931599"
         sodipodi:role="line"
         id="tspan48">Competencies</tspan></text></g></svg>
