<?xml version="1.0" standalone="no"?>
<!DOCTYPE svg PUBLIC "-//W3C//DTD SVG 1.1//EN" "http://www.w3.org/Graphics/SVG/1.1/DTD/svg11.dtd" >
<svg xmlns="http://www.w3.org/2000/svg" xmlns:xlink="http://www.w3.org/1999/xlink" version="1.1">
<metadata></metadata>
<defs>
<font id="komika_textregular" horiz-adv-x="454" >
<font-face units-per-em="2048" ascent="1638" descent="-410" />
<missing-glyph horiz-adv-x="536" />
<glyph horiz-adv-x="0" />
<glyph unicode="&#xd;" horiz-adv-x="1024" />
<glyph unicode=" "  horiz-adv-x="536" />
<glyph unicode="&#x09;" horiz-adv-x="536" />
<glyph unicode="&#xa0;" horiz-adv-x="536" />
<glyph unicode="!" d="M365 494q-4 -74 -35 -121t-97 -47q-59 0 -67 50t8 124l64 725q-2 25 -1 55.5t12 58t35.5 47t67.5 19.5q35 0 54.5 -19.5t27.5 -49t8 -66.5q0 -35 -4 -66zM352 129q-10 -100 -52 -133t-116 -33q-29 0 -47 10.5t-29.5 26.5t-15.5 35.5t-2 38.5q6 72 52 121t108 49 q61 0 83.5 -32t18.5 -83z" />
<glyph unicode="&#x22;" horiz-adv-x="704" d="M285 1006l22 262q-2 23 -4 49t-10 50t-27.5 40t-56.5 16q-33 0 -53.5 -14t-31.5 -38.5t-14.5 -55.5t-0.5 -64l-5 -243l-3 -24q-3 -23 1 -53t19.5 -56.5t52.5 -32.5q47 -8 79 41t32 123zM641 1008l8 256q0 27 3 54.5t-2 51t-23.5 38.5t-59.5 15q-37 0 -56 -14t-28.5 -37.5 t-11.5 -53.5t-2 -61l-6 -251q0 -33 1 -62t8 -51.5t21.5 -35.5t41.5 -15q55 -4 81.5 44t26.5 120z" />
<glyph unicode="#" horiz-adv-x="1431" d="M1382 905q8 14 4 33.5t-22 33t-51 19.5t-80 -4h-51l59 154q47 94 46 147t-66 53q-29 0 -46.5 -6t-32 -22.5t-26.5 -48t-31 -82.5l-75 -195h-226l70 184q37 76 30 123t-75 47q-27 0 -47.5 -15t-34.5 -37.5t-21.5 -47t-9.5 -41.5l-84 -213h-82q-92 4 -141 -17.5t-53 -64.5 q-6 -57 37 -69.5t114 -6.5h66l-123 -315h-59q-92 4 -145.5 -17.5t-57.5 -68.5q0 -16 2 -31.5t16.5 -28t44 -17.5t82.5 1h58l-72 -182q-18 -53 -28.5 -91t-7.5 -61.5t21.5 -34t59.5 -10.5q18 0 36.5 15.5t34 40t27 53.5t17.5 57l82 213h225l-74 -198q-27 -53 -30 -87 t6.5 -54.5t29 -29t40 -10.5t39 15.5t35.5 44t29.5 59.5t20.5 62l76 198h76q59 -2 98 -4t62.5 6t35 30t15.5 69q2 20 -4.5 32.5t-25.5 18.5t-53 8t-89 2h-52l119 315h70q43 -2 80 -2t63.5 8.5t40.5 24.5t8 45zM948 829l-121 -315h-225l121 315h225z" />
<glyph unicode="$" horiz-adv-x="1024" d="M1006 582q6 84 -9.5 144t-48.5 100t-78 58.5t-96 18.5t-108 -20l18 223q45 2 79 -15.5t50 -29.5q80 -59 128 -56t56 99q4 39 -23.5 72.5t-71.5 59.5t-98 40t-104 14l5 43q6 14 8 38t-5.5 45.5t-26.5 35.5t-54 12q-35 -4 -54.5 -19t-30 -35.5t-12.5 -43.5t0 -39l-6 -53 q-68 -20 -134 -63.5t-119.5 -103.5t-89.5 -136t-44 -164q-6 -61 11.5 -112.5t46 -87.5t66.5 -55.5t75 -19.5q27 0 59.5 14.5t69.5 37.5l-33 -381q-43 -18 -75.5 -10t-53 24t-30 33.5t-7.5 15.5q8 59 -14.5 91t-55 33t-63.5 -26.5t-37 -87.5q-6 -66 19.5 -112.5t70.5 -77.5 t105.5 -46t124.5 -20l-10 -108q-25 -166 71 -166q35 0 55.5 13.5t30.5 36t13.5 53t3.5 65.5l10 117q74 20 144.5 66t127 115t95.5 162t49 208zM485 797q-39 -27 -71.5 -46.5t-59.5 -19.5q-23 0 -32 27.5t-5 62.5q8 92 65.5 163t129.5 108zM831 596q-10 -135 -73.5 -226 t-147.5 -128l41 465q57 29 109 28q41 0 59 -36.5t12 -102.5z" />
<glyph unicode="%" horiz-adv-x="1355" d="M705 1128q-6 -61 -42 -115.5t-86.5 -96.5t-106.5 -65.5t-101 -23.5q-57 0 -97.5 23.5t-66 59.5t-35.5 79t-6 82q6 63 35.5 117.5t73.5 95.5t98.5 64.5t111.5 23.5q113 0 172.5 -69t49.5 -175zM1122 1270q0 -8 -4 -20.5t-21.5 -50.5t-53 -111.5t-99 -204.5t-159 -330 t-232.5 -487q-35 -66 -75 -93.5t-73.5 -24.5t-54 31.5t-16.5 75.5q0 8 4 18.5t21.5 48.5t53.5 113.5t101.5 212t163.5 346.5t242 515q25 49 60.5 63t67 4t54 -39.5t20.5 -66.5zM1313 272q-6 -78 -45 -139t-92.5 -104t-112.5 -65.5t-105 -22.5q-66 0 -105.5 24.5t-61 61 t-27.5 80t-2 79.5q8 92 43 156t85 102.5t113.5 56t129.5 17.5q45 0 80.5 -20.5t58 -54t34 -78t7.5 -93.5zM530 1143q2 16 -14 35.5t-49 19.5q-20 0 -42 -10t-40 -28.5t-30.5 -41t-14.5 -47.5q-2 -29 2 -43t12 -21.5t16.5 -8.5t14.5 -1q18 0 43 12.5t46.5 33t37.5 46t18 54.5 zM1139 272v25q0 14 -6.5 23.5t-19.5 15.5t-38 6q-45 0 -86 -39t-47 -104v-27q0 -14 4 -27.5t15.5 -22.5t33.5 -9q23 0 46.5 13t44 34.5t35 50t18.5 61.5z" />
<glyph unicode="&#x26;" horiz-adv-x="1284" d="M1016 319l172 -213q-8 -33 -34 -66.5t-60.5 -49t-73.5 -1t-76 80.5l-67 112q-119 -106 -256.5 -172.5t-255.5 -66.5q-90 0 -144.5 34.5t-83 93t-36 133.5t-1.5 154q8 100 38 182.5t76 148t109.5 117.5t143.5 95q-31 59 -55.5 128t-20.5 128q10 121 90 168t207 47 q57 0 111.5 -14.5t96.5 -42t66.5 -67.5t20.5 -91t-29.5 -99t-62.5 -91t-82 -79t-88 -61q39 -68 92 -162t107 -188q16 20 28.5 41t22.5 37q6 14 12 35.5t15.5 42t25.5 35t41 14.5q33 0 65.5 -7t53 -22.5t22.5 -39t-28 -58.5q-12 -23 -32 -53.5t-41.5 -62t-45 -63.5t-43.5 -57 zM799 1153q2 18 -11.5 31.5t-34 20.5t-43 11.5t-36.5 4.5q-45 0 -72 -14.5t-31 -49.5q-4 -41 17.5 -87t46.5 -87q59 29 109.5 70t54.5 100zM786 336q-33 55 -64.5 112.5t-62 111.5t-57.5 102.5t-47 85.5q-117 -66 -189.5 -156t-84.5 -234q-4 -41 0 -81.5t16 -75.5 t32.5 -56.5t51.5 -21.5q45 0 96 17.5t104.5 46t105.5 67.5t99 82z" />
<glyph unicode="'" horiz-adv-x="350" d="M285 1006l22 262q-2 23 -4 49t-10 50t-27.5 40t-56.5 16q-33 0 -53.5 -14t-31.5 -38.5t-14.5 -55.5t-0.5 -64l-5 -243l-3 -24q-3 -23 1 -53t19.5 -56.5t52.5 -32.5q47 -8 79 41t32 123z" />
<glyph unicode="(" horiz-adv-x="786" d="M786 1571q-2 -12 -14 -23.5t-28.5 -23t-36 -21.5t-33.5 -22q-125 -86 -203 -277.5t-100 -460.5q-12 -127 -2 -239.5t31.5 -204.5t50 -159.5t53.5 -104.5q12 -10 32.5 -25.5t39 -36t32 -42t10.5 -44.5q-4 -33 -14 -59.5t-27.5 -39.5t-43 -10t-60.5 27q-180 135 -253 370 t-44 568q14 162 45 295t81 244t121 200t167 160q35 27 70.5 38.5t65.5 4t47 -35t13 -78.5z" />
<glyph unicode=")" horiz-adv-x="786" d="M741 735q4 147 -6 282.5t-43 253.5t-92 214t-154 166q-33 23 -60.5 23.5t-49 -14.5t-34.5 -44t-15 -66q-2 -25 14 -45t41 -42.5t50.5 -50.5t39.5 -64q12 -31 34.5 -86.5t43 -134t33 -177t2.5 -215.5t-21.5 -195.5t-37 -152.5t-70.5 -159t-125 -216q-16 -12 -40 -27.5 t-46.5 -34t-38.5 -41t-19 -48.5q-4 -41 17.5 -63.5t52.5 -32t60.5 -5.5t44.5 21q106 115 181 218t124 214t75.5 236.5t38.5 285.5z" />
<glyph unicode="*" horiz-adv-x="1087" d="M1053 1188q0 -100 -92 -127q-43 -10 -87.5 -19.5t-85.5 -19.5q10 -29 82 -80q66 -49 66 -92q0 -35 -25.5 -64.5t-60.5 -29.5q-12 0 -88 39q-41 20 -66.5 30.5t-36.5 14.5q-27 -35 -41 -156q-16 -96 -77 -96q-37 0 -52 8q-96 59 -96 166q0 16 2 45t2 45q0 53 -12 70 q-12 23 -61 22q-12 0 -38 -4t-38 -4q-68 0 -133 53q-59 53 -60 125q0 29 27 53.5t59 32.5q6 2 41 2h4q53 0 78 25l-92 116q-61 80 -61 123q0 35 24.5 60.5t59.5 25.5q59 0 114 -49l86 -92q12 0 23 19q-14 55 -15 102q-4 25 3.5 50.5t22.5 46t36.5 33.5t48.5 15q82 0 107 -67 q16 -37 20 -142q2 -51 7 -84.5t14 -52.5q20 -33 90 -33q14 0 34.5 2.5t49 6.5t57.5 -5.5t43 -9.5q68 0 92.5 -20.5t24.5 -83.5z" />
<glyph unicode="+" horiz-adv-x="1112" d="M911 543l111 2q55 0 75.5 -30t12.5 -65.5t-42 -65.5t-85 -30q-10 0 -41 -6t-53 4h-223l-19 -180q0 -12 -2 -34.5t-4 -47t-4 -47.5t-2 -31q-4 -41 -38 -65.5t-71 -24.5q-35 0 -61.5 25.5t-18.5 87.5q2 16 1 50t10 50l18 217h-199q-23 -10 -57.5 -4t-52.5 6q-53 0 -78 29 t-20.5 63.5t36 63.5t91.5 29q12 0 43.5 6t46.5 -2h207l18 207q-4 12 3 39.5t9 50.5q4 49 36 75.5t68 27.5t63.5 -25.5t23.5 -83.5q-2 -6 -2 -37q0 -27 -11 -47l-18 -207h229z" />
<glyph unicode="," horiz-adv-x="438" d="M375 51q-4 -49 -28.5 -102t-64.5 -98.5t-91.5 -75t-108.5 -29.5q-33 0 -54.5 15.5t-17.5 64.5q2 10 32 20.5t56.5 30t34.5 51t-31 84.5q-20 29 -26 67t8 72.5t51 59.5t105 25q86 0 114.5 -49.5t20.5 -135.5z" />
<glyph unicode="-" horiz-adv-x="790" d="M715 479l-142 -2l-274 -2q-23 -16 -56.5 -9t-54.5 7q-51 0 -77.5 29.5t-28.5 64.5t22.5 65t77.5 30q10 0 36 3t46 3q18 0 25 -2h282q23 8 57 5t58 -3q66 0 96.5 -30t31.5 -64.5t-25.5 -64.5t-73.5 -30z" />
<glyph unicode="." horiz-adv-x="407" d="M352 131q2 23 1 50.5t-11 51t-32.5 40t-61.5 16.5q-41 0 -76 -15.5t-61.5 -40t-42 -53t-17.5 -55.5t8.5 -55.5t30 -52t45 -39t55.5 -15.5q41 0 71 16.5t49.5 42t29.5 55t12 54.5z" />
<glyph unicode="/" horiz-adv-x="825" d="M801 1171q10 27 19 59t8 60.5t-15 48t-51 19.5q-39 0 -63.5 -9.5t-40 -22.5t-24.5 -29.5t-16 -30.5q-23 -57 -57.5 -143.5t-75.5 -187.5t-86 -210t-88 -212t-83 -194.5t-68 -156.5q-25 -55 -38 -98.5t-11 -72t23.5 -43t66.5 -14.5q31 0 53 21.5t38.5 49.5t28 55.5 t19.5 39.5q23 53 60.5 135t82.5 178.5t93.5 202t91.5 207t78.5 192.5t54.5 159v-3z" />
<glyph unicode="0" horiz-adv-x="1036" d="M82 616q0 -125 28.5 -236.5t82 -196.5t129 -134t167.5 -49q100 0 179.5 56.5t134.5 151.5t86 223t31 269v15q0 98 -13.5 209.5t-49.5 207t-100.5 159t-166.5 63.5q-90 0 -155.5 -18.5t-133.5 -86.5q-51 -51 -92 -120.5t-68.5 -151.5t-43 -173.5t-15.5 -187.5zM489 211 q-92 0 -149 99.5t-57 303.5q0 135 29.5 255t80.5 190q12 18 34 36.5t46.5 34t48 25.5t39.5 10q49 0 85 -33.5t59.5 -92t34 -138.5t10.5 -174q0 -92 -11.5 -182t-41 -163t-80 -119t-128.5 -52z" />
<glyph unicode="1" horiz-adv-x="512" d="M178 1094v-15q0 -59 -8 -128.5t-17.5 -147.5t-17.5 -166t-8 -184q0 -84 5 -187.5t9 -208.5q2 -12 13.5 -22t27.5 -17h2q31 -18 66 -18q43 0 53 18.5t10 49.5q2 125 3 243.5t5.5 226t13.5 197.5t25 158q12 47 18.5 100.5t14.5 141.5q0 12 2 28.5t4 32.5t4.5 27.5t2.5 13.5 q-4 25 -21.5 40t-38 24.5t-37 12.5t-18.5 3q-35 0 -75 -17.5t-76 -39t-59.5 -42t-23.5 -26.5q0 -70 113 -90z" />
<glyph unicode="2" horiz-adv-x="1040" d="M389 279q37 39 77 86t80 96t79 96t75 86q66 70 112 139.5t74.5 129t41 107.5t12.5 77v6q0 92 -60.5 147.5t-164.5 55.5q-119 0 -248 -62q-51 -25 -113.5 -64.5t-118 -84.5t-93.5 -89t-38 -81q0 -18 9.5 -36t23 -32t26.5 -22.5t23 -8.5q41 6 82 35t103 88q33 33 73.5 62.5 t82.5 52t79 37t66 14.5t49 -18.5t20 -44.5q0 -23 -34.5 -80.5t-90 -133t-124 -161.5t-136 -167t-126 -148.5t-95.5 -104.5q-45 -47 -72.5 -78t-42 -51.5t-19.5 -31.5t-5 -19q0 -31 16.5 -52.5t48.5 -21.5q14 0 60.5 11.5t113 23.5t147.5 23.5t165 11.5q111 0 175 -3t99 -6.5 t47.5 -6.5t20.5 -3h10q37 0 52.5 26.5t15.5 63.5q0 74 -73 101.5t-239 27.5q-57 0 -123.5 -5t-144.5 -19z" />
<glyph unicode="3" horiz-adv-x="1077" d="M729 705q156 86 228.5 162.5t72.5 179.5q0 57 -24.5 104t-65.5 81t-94 52.5t-111 18.5q-47 0 -112.5 -16.5t-135 -45.5t-138 -65.5t-123 -76.5t-88.5 -82t-34 -79q0 -20 10.5 -38.5t26 -34t34 -25t36.5 -9.5q29 0 53 31q49 57 109.5 103.5t121 80t117 52t99.5 18.5 q41 0 70.5 -18.5t29.5 -61.5q0 -49 -53 -105.5t-132 -105.5t-169 -86t-164 -47q-37 -4 -48.5 -18.5t-11.5 -48.5q0 -47 21.5 -88t50.5 -41q4 0 15.5 4t31.5 10q92 33 195 33q94 0 152.5 -33t58.5 -109q0 -43 -22.5 -84t-63.5 -72.5t-100.5 -51t-135.5 -19.5 q-88 0 -149.5 20.5t-81.5 65.5q-10 20 -24.5 33.5t-30 19.5t-28.5 8.5t-20 2.5q-39 0 -71.5 -15.5t-32.5 -60.5q0 -51 37 -96.5t99.5 -79t145 -53t177.5 -19.5q100 0 190 24.5t158.5 73.5t109.5 123t41 172q0 117 -57 191.5t-168 101.5z" />
<glyph unicode="4" horiz-adv-x="1222" d="M604 418q-8 -66 -12 -118t-4 -93q0 -111 29.5 -157t95.5 -46q53 0 84.5 25.5t31.5 48.5q-16 53 -21 87t-5 79q0 31 3 71.5t7 92.5l4 32l10 9q18 2 49 5t58 3l162 -13h4q16 0 29.5 11.5t22.5 27t13 32.5t4 32q0 33 -18 50t-48 26.5t-69 11.5t-80 2h-98l-8 14 q6 45 19.5 107.5t33 134.5t43 149.5t47.5 153.5q14 35 15 39q-8 10 -21.5 27.5t-29 34t-32 27.5t-28.5 11q-43 -18 -124 -79.5t-178 -145.5t-198.5 -181.5t-184.5 -188.5t-136.5 -164.5t-53.5 -112.5q0 -18 7.5 -37.5t19.5 -36t25.5 -28t25.5 -11.5q2 0 4 1t4 1 q49 16 114 32.5t129.5 30t120.5 21.5t89 8q37 0 37 -10q0 -2 -2 -2v-2zM641 635l-12 -6q-121 -8 -187.5 -15.5t-95.5 -17.5l-8 18q82 90 136 148.5t94 98.5t69 65.5t57 50.5l17 -10q-16 -66 -32.5 -139.5t-33.5 -165.5z" />
<glyph unicode="5" horiz-adv-x="1060" d="M319 786l52 248q4 16 39.5 28.5t90 22t120 14.5t129 9t117 5t83.5 1q33 0 44.5 22.5t11.5 51.5q0 39 -8.5 61.5t-21.5 34.5t-30.5 16.5t-34.5 4.5h-34q2 0 -30 -2.5t-86 -8.5t-123 -14t-142.5 -19.5t-145 -27.5t-129.5 -35q-16 -8 -33.5 -50t-34 -101.5t-30.5 -129 t-25.5 -130t-17.5 -102.5t-6 -50q0 -16 8 -35.5t22.5 -36t34 -28t41.5 -11.5q18 0 41 11q145 63 271 63q57 0 108 -16.5t91 -44t63.5 -66.5t23.5 -82q0 -86 -75.5 -132t-200.5 -56h-23q-70 0 -128 28.5t-104 63.5t-79 63.5t-49 28.5q-41 0 -78 -39v-2q-41 -47 -41 -78 q0 -49 43 -96t111.5 -84t152.5 -59.5t164 -22.5q119 0 214 32t161.5 85t102.5 123.5t36 150.5q0 74 -31.5 145.5t-93 128t-153 91.5t-211.5 35q-84 0 -166 -21z" />
<glyph unicode="6" horiz-adv-x="1134" d="M481 930q39 74 85 128t85 93t64.5 60.5t25.5 31.5q0 41 -33.5 68.5t-76.5 27.5q-59 0 -133 -65.5t-166 -212.5q-80 -129 -128 -220t-73 -162t-32 -125t-7 -110q0 -141 55.5 -227t128 -134t143 -64.5t101.5 -16.5q104 0 200.5 44t168.5 118t115 169t43 197q0 82 -31 156 t-85 129t-130 88t-168 33q-27 0 -62.5 -5t-81.5 -18zM829 506q-18 -102 -52 -163.5t-76 -94.5t-88 -44t-87 -11q-96 0 -160.5 66.5t-64.5 191.5q0 76 22.5 135t60.5 99t89 60.5t107 20.5q70 0 110.5 -13.5t62 -34t30 -42t14.5 -35.5h2q30 -65 30 -135z" />
<glyph unicode="7" horiz-adv-x="987" d="M604 1042q-78 -166 -139.5 -312t-104.5 -266t-65.5 -209t-22.5 -140v-11q0 -47 25 -75.5t80 -28.5q35 0 59.5 8t40 20.5t22.5 25t7 20.5v10q-10 27 -11 41t-1 31q0 53 37.5 191t142.5 368q45 96 93 179t88 145.5t65.5 98.5t25.5 40q-2 41 -16.5 64.5t-32.5 35.5t-39.5 15 t-38.5 3q2 0 -24.5 -5t-71.5 -11t-106.5 -10t-131.5 -4q-92 0 -146 1t-84 2t-42 2t-20 1h-9q-90 -10 -123.5 -39t-33.5 -53q0 -37 33.5 -57.5t77.5 -31t86 -12.5t57 -2h18h70q33 0 63.5 2t62 4t68.5 9q4 4 24.5 3t24.5 1l11 -17z" />
<glyph unicode="8" horiz-adv-x="1056" d="M557 604l4 17q25 18 75 64t103.5 99.5t97.5 102.5t56 76q23 47 33 83.5t10 71.5q0 31 -14.5 62.5t-43 58.5t-71.5 44t-98 17q-61 0 -132 -12t-137.5 -30.5t-122 -40t-88.5 -39.5q-145 -80 -145 -224q0 -152 192 -333l3 -15q-117 -113 -169.5 -194.5t-52.5 -163.5 q0 -57 28 -103.5t78 -78t120.5 -49t154.5 -17.5q70 0 139.5 11.5t126 37t91 64.5t34.5 94v8q0 35 -14 71t-44 76.5t-76 93t-111 122.5zM424 745q-39 29 -65.5 63t-44 64.5t-25.5 52t-8 25.5q0 29 32.5 60.5t87 59.5t124 46.5t143.5 20.5h6q41 0 61.5 -19.5t20.5 -46.5 q0 -31 -28 -67.5t-62.5 -70.5t-67.5 -60.5t-43 -34.5q-37 -31 -59.5 -48.5t-33.5 -26.5t-16 -11l-4 -2l-4 -5h-14zM416 481q184 -166 184 -233q0 -41 -43 -68h-2q-43 -25 -106 -24q-193 0 -193 100q0 47 37 105.5t110 119.5h13z" />
<glyph unicode="9" horiz-adv-x="1077" d="M715 37q18 -37 92 -37q37 0 71.5 14.5t34.5 55.5q-6 47 -8 86t-2 92q0 109 9.5 219.5t25.5 217t37.5 201.5t46.5 173q25 70 30 92.5t5 34.5q0 29 -28 62.5t-54 45.5q-16 4 -64.5 13.5t-105.5 9.5q-115 0 -201 -20.5t-146.5 -47t-96 -52.5t-48.5 -34 q-96 -72 -151.5 -144.5t-82 -137t-32.5 -115.5t-6 -80q0 -63 23.5 -115.5t63.5 -90.5t93 -59.5t113 -21.5q102 0 208.5 47.5t194.5 106.5zM782 999q0 -59 -31.5 -133.5t-86 -140.5t-128 -110t-157.5 -44q-57 0 -95 34t-38 89q0 74 36.5 149t94 136t127 99t135.5 38 q57 0 98 -29t45 -88z" />
<glyph unicode=":" horiz-adv-x="405" d="M395 705q6 66 -18.5 108.5t-83.5 42.5q-39 0 -69.5 -16.5t-52 -42t-34 -56t-14.5 -61.5q-4 -55 25.5 -102.5t89.5 -47.5q37 0 64.5 14.5t47 39t30.5 56.5t15 65zM350 137q6 66 -19.5 109t-84.5 43q-39 0 -69 -16.5t-50.5 -42t-32.5 -56.5t-14 -61q-4 -55 23.5 -102.5 t86.5 -47.5q37 0 65 14.5t48.5 39t31.5 56t15 64.5z" />
<glyph unicode=";" horiz-adv-x="405" d="M399 705q6 66 -18.5 108.5t-83.5 42.5q-39 0 -68.5 -16.5t-51 -42t-34 -56t-14.5 -61.5q-4 -55 24.5 -102.5t88.5 -47.5q37 0 64.5 14.5t47 39t30.5 56.5t15 65zM358 51q8 84 -20.5 134.5t-114.5 50.5q-41 0 -70.5 -17.5t-50 -42t-31 -53.5t-12.5 -51q-4 -37 10.5 -61.5 t36 -35t46.5 -10.5q27 0 49 12q-18 -43 -51 -59t-67 -25.5t-60.5 -21.5t-28.5 -47q-4 -49 17.5 -64.5t54.5 -15.5q57 0 108 29.5t91 75t64.5 99.5t28.5 103z" />
<glyph unicode="&#x3c;" horiz-adv-x="1077" d="M1018 805q4 37 -18.5 62.5t-55.5 34.5t-66.5 -2t-54.5 -50l-577 -287q-39 -18 -56.5 -43.5t-17.5 -52.5q0 -25 15.5 -49.5t41.5 -42.5l527 -369q20 -27 52 -31t60.5 8.5t51 38t24.5 58.5q6 55 -19.5 69.5t-52.5 16.5l-434 295l494 246q31 0 56.5 23.5t29.5 74.5z" />
<glyph unicode="=" horiz-adv-x="1202" d="M1126 838q4 45 -17.5 81.5t-66.5 36.5q-29 0 -48 -10l-19 -10h-619q-16 12 -34.5 14t-26.5 2q-51 0 -79 -35.5t-31 -77.5t17.5 -78t67.5 -36q20 0 39 5t29 15h616q16 -10 30.5 -12t29.5 -2q55 0 81.5 29t30.5 78zM1004 549q-29 0 -44 -9l-16 -10h-625q-12 10 -28.5 12.5 t-30.5 2.5q-49 0 -76.5 -36t-32 -78t16 -78t70.5 -36q23 0 73 23h613q23 -10 33 -11t18 -1q55 0 87 34.5t38 75.5t-17.5 76t-78.5 35z" />
<glyph unicode="&#x3e;" horiz-adv-x="1077" d="M940 389q20 12 35.5 33.5t18.5 46.5t-7 48.5t-43 41.5l-536 295q0 8 -7.5 18.5t-18.5 18.5t-24.5 14t-25.5 6q-49 0 -83 -28.5t-44 -64.5t5 -68.5t62 -42.5l455 -244l-487 -293q-12 0 -26.5 -2t-29 -10t-24.5 -24.5t-13 -45.5q-4 -43 18.5 -72.5t54.5 -41t64.5 -3 t49.5 38.5z" />
<glyph unicode="?" horiz-adv-x="1087" d="M1004 1130q-4 -53 -27 -100t-57.5 -89t-78.5 -76t-91 -58q-88 -47 -143.5 -99.5t-89.5 -104.5t-52.5 -100t-30.5 -85t-25.5 -58.5t-35.5 -21.5q-78 0 -106.5 30.5t-28.5 84.5q0 18 1 37.5t3 39.5q6 59 50 117t106.5 114t134 108.5t133 99.5t102.5 88t43 73q4 35 -33 54.5 t-88 19.5q-72 0 -147.5 -52t-151.5 -124q-49 -59 -97 -89t-87 -30q-37 0 -58.5 28t-17.5 81q4 41 37 84t74 76q47 37 102 75.5t114.5 69.5t122 51.5t128.5 20.5q59 0 115.5 -20.5t98.5 -56.5t64.5 -84.5t16.5 -103.5zM514 78l2 2q-4 -66 -41 -102.5t-106 -36.5 q-25 0 -49.5 6t-43 21.5t-28.5 39t-6 58.5q8 92 59 124.5t123 32.5q59 0 77.5 -42t12.5 -103z" />
<glyph unicode="@" horiz-adv-x="1650" d="M1636 834q-12 -145 -59 -262t-112.5 -201t-141.5 -129t-145 -45q-100 0 -124 92t9 252q-39 -43 -88 -93.5t-103.5 -94.5t-113 -72.5t-113.5 -28.5q-117 0 -156.5 53t-31.5 141q8 92 62 200t140 201t196 155.5t230 62.5q16 0 39 -3l23 -3q4 27 30.5 41t47.5 12 q31 0 47 -15.5t22 -35t4 -36.5t-8 -24l-86 -567q-4 -23 -5 -49.5t22 -26.5q27 0 66.5 31t78.5 91.5t69.5 149.5t41.5 204q6 70 -3.5 143.5t-43 132.5t-98 97t-169.5 38q-137 0 -254.5 -39t-215 -104.5t-172.5 -149.5t-128 -172t-83.5 -176t-37.5 -160q-6 -66 2.5 -130 t41 -115.5t97 -83t169.5 -31.5q51 0 99 15.5t73.5 27.5t29.5 14q23 33 38.5 51.5t49.5 18.5q61 0 83 -30.5t15 -68.5t-38 -69t-76 -31l-22 -10q-23 -10 -62 -23.5t-92 -24.5t-113 -11q-147 0 -240.5 42t-144.5 114.5t-66.5 166.5t-4.5 199q10 113 55 225.5t115.5 215 t166 189.5t205 150.5t231.5 100t246 36.5q156 0 257.5 -45t160 -120.5t77.5 -174.5t11 -208zM1120 883q2 16 -9 29.5t-38 13.5q-76 0 -153.5 -52.5t-141 -125t-104.5 -149.5t-45 -128q-2 -18 7 -38.5t48 -20.5q35 0 80 28.5t93 73.5t94 99.5t83 106.5t60.5 96t25.5 67z" />
<glyph unicode="A" horiz-adv-x="1222" d="M1212 160q-29 92 -80 229t-106 287.5t-105.5 295t-74.5 253.5q-6 55 -30.5 94t-57.5 48t-71 -18.5t-71 -107.5l-555 -1069q-8 -16 -21 -48t-16.5 -65.5t15 -59.5t76.5 -30q41 -4 72.5 46.5t66.5 125.5l162 326l56 4t133 9t153 9.5t114 4.5q29 -66 45.5 -104t26.5 -63.5 t17.5 -45t17.5 -50.5q12 -33 30.5 -77.5t37 -85.5t35 -70t22.5 -29q43 -4 69.5 10.5t39 41t11 62.5t-11.5 77zM819 672l-311 -19l199 412q8 -33 22 -86t29.5 -109.5t32 -110.5t28.5 -87z" />
<glyph unicode="B" horiz-adv-x="1255" d="M1239 584q-8 -98 -64.5 -183.5t-142.5 -155t-194.5 -123.5t-222 -91t-224 -56.5t-201.5 -19.5q-29 0 -40 22.5t-12 59.5t4 82t12 88l69 917q-6 31 1 54.5t20.5 40t32 26.5t34.5 15q117 29 257.5 61.5t293.5 32.5q147 0 219 -54.5t66 -128.5q-8 -86 -60.5 -159.5 t-185.5 -143.5q174 0 261 -80.5t77 -203.5zM944 1133q4 25 -29.5 34t-68.5 9q-123 0 -230.5 -28t-195.5 -81l-23 -240q84 8 178.5 36t175 69t135 92.5t58.5 108.5zM1044 592q4 39 -22.5 61.5t-67.5 34.5t-91 15.5t-95 3.5q-86 0 -180 -15.5t-205 -42.5l-45 -506 q92 12 210 49t225.5 94.5t184 135.5t86.5 170z" />
<glyph unicode="C" horiz-adv-x="1175" d="M1100 279q-37 -59 -98.5 -120t-140.5 -110t-169 -79.5t-182 -30.5q-104 0 -182 46t-128 124.5t-72 183t-11 221.5q14 166 74.5 322.5t154.5 278.5t213 194.5t252 72.5q100 0 188 -26.5t166 -98.5q33 -31 40 -66.5t-6 -66t-42 -51t-65 -20.5q-8 0 -40 31.5t-85 80.5 q-16 16 -51 25.5t-99 9.5q-100 0 -187 -60.5t-152.5 -156.5t-107.5 -220t-53 -249q-6 -74 2.5 -145.5t35 -127t75.5 -89t125 -33.5q45 0 96 18.5t97.5 46t83 61.5t53.5 62q35 51 86 72.5t91 16.5t56.5 -35.5t-18.5 -81.5z" />
<glyph unicode="D" horiz-adv-x="1241" d="M1251 889q8 92 -13 180t-74.5 155.5t-138.5 109.5t-204 42q-86 0 -152.5 -9t-121.5 -23.5t-103.5 -32t-99.5 -33.5q-70 -23 -97.5 -81t-17.5 -116l-75 -862q-2 -43 -6.5 -88t1 -81t22.5 -58.5t56 -22.5q55 0 149.5 20.5t203 66.5t222 118t209 174.5t161 236.5t79.5 304z M1051 889q-14 -166 -91 -291t-183.5 -211t-223.5 -137t-211 -72l80 920q63 35 157.5 67.5t204.5 32.5q76 0 129.5 -26.5t85 -70.5t44 -99.5t8.5 -112.5z" />
<glyph unicode="E" horiz-adv-x="1087" d="M1081 113q0 -16 -5 -31.5t-21.5 -29t-45 -21.5t-73.5 -8l-641 -48q-72 -6 -105.5 10.5t-44 49.5t-4.5 80t13 104l26 348q16 217 22.5 367.5t10.5 218.5q-4 18 1 42t18.5 45.5t38 35.5t61.5 14h35h43h61q39 0 98.5 2t144.5 7.5t206 13.5q39 2 79.5 5t72.5 -3t50.5 -25.5 t14.5 -60.5q-4 -39 -17.5 -58.5t-38 -27.5t-61.5 -9t-88 -4l-510 -32l-31 -348l438 55q57 6 92 0t53.5 -19.5t24 -32t2.5 -34.5q-6 -59 -40.5 -76.5t-75.5 -17.5q-14 0 -26.5 -1t-22.5 -3l-461 -52l-35 -413l596 51q78 4 113.5 -15.5t31.5 -78.5z" />
<glyph unicode="F" horiz-adv-x="993" d="M1102 1257q-8 63 -47 80t-119 13q-182 -16 -281.5 -25.5t-150.5 -15.5t-70.5 -9.5t-42.5 -5.5q-61 -6 -98 -16t-54.5 -28.5t-18.5 -47t11 -74.5q-10 -123 -16 -195.5t-11 -124.5t-9.5 -98t-10.5 -116l-53 -463q-10 -100 7.5 -134t84.5 -24q33 4 53.5 13.5t33 28t18.5 47 t12 69.5l45 436l467 72q57 4 88 12t45 21.5t18.5 32t8.5 45.5q8 45 -21.5 63t-75 21.5t-93.5 -3t-77 -10.5l-350 -53l29 348l534 37q80 8 109 30.5t35 73.5z" />
<glyph unicode="G" horiz-adv-x="1474" d="M1473 754q-12 -150 -84 -295.5t-190 -261t-274.5 -187t-340.5 -71.5q-143 0 -238.5 48t-150 127t-73 181t-7.5 211q10 133 58 249.5t122 214t168 174.5t197.5 130t209 80.5t203.5 27.5q141 0 231.5 -53t118.5 -129q18 -51 5 -91t-58 -44q-51 -6 -73.5 0t-34 20.5 t-17.5 32t-24.5 34.5t-55.5 30.5t-108 17.5q-121 8 -249 -51t-235.5 -159.5t-179 -227.5t-82.5 -256q-6 -72 7.5 -141.5t49 -124t93 -88t139.5 -33.5q135 0 244.5 49t191.5 125t138.5 166t87.5 172q-63 -16 -120 -33.5t-112 -35t-111.5 -34t-117.5 -30.5q-39 -10 -57.5 17.5 t-11.5 66.5t42 74.5t103 41.5q31 6 100.5 26.5t142 44.5t128.5 41l55 17q33 12 63 13q49 0 80 -21.5t27 -64.5z" />
<glyph unicode="H" horiz-adv-x="1259" d="M317 100l43 500l639 21l-34 -449q-10 -59 19.5 -105.5t92.5 -41.5q41 2 60.5 24.5t26.5 53t7 63.5q0 35 3 59l86 1047q4 29 6 54.5t-4.5 45t-23.5 30.5t-52 11q-43 0 -67.5 -10t-38 -27.5t-18.5 -40t-9 -47.5l-35 -483l-645 -27l35 410q2 14 3 37.5t-5.5 47t-22.5 42 t-49 22.5q-31 4 -52.5 -6t-36 -27.5t-22.5 -41t-10 -43.5q-4 -43 -11 -125t-16.5 -179.5t-17.5 -200t-14 -188.5l-29 -407q-6 -74 9.5 -104.5t82.5 -45.5q37 -8 67.5 23.5t32.5 107.5z" />
<glyph unicode="I" d="M336 115l92 1050q4 27 9 56.5t2 55.5t-18 43t-50 17q-47 0 -73 -9t-40 -27.5t-18 -47t-4 -65.5l-95 -1069q-12 -55 3.5 -98.5t80.5 -51.5q35 -4 54.5 6.5t31 30t15.5 48t10 61.5z" />
<glyph unicode="J" horiz-adv-x="1069" d="M971 350l71 821q2 37 4.5 68t-4 52.5t-24 33.5t-51.5 12q-41 0 -63.5 -17t-34 -42t-15.5 -53.5t-6 -53.5l-74 -821q-4 -45 -30.5 -97t-71.5 -97t-108.5 -75t-139.5 -30q-47 0 -76 5t-45 17.5t-26.5 32t-20.5 48.5q0 31 5 68.5t1 70.5t-22.5 55.5t-63.5 22.5h-31 q-18 0 -39.5 -12.5t-39 -42t-21.5 -87.5q-6 -57 11.5 -115.5t63.5 -106.5t125 -77.5t195 -29.5q111 0 205 36.5t164 98t112 143.5t50 172z" />
<glyph unicode="K" horiz-adv-x="1128" d="M1059 131l-531 614l463 381q78 43 88.5 87t-16.5 71t-74 28t-86 -42l-504 -422l37 352q0 33 -1 59.5t-9 46t-27.5 30t-56.5 10.5q-45 -2 -72.5 -44t-33.5 -102l-95 -1081q-4 -90 14.5 -122t67.5 -32q20 0 42 6t38 23.5t25.5 48.5t7.5 78l45 520l520 -612 q37 -43 60.5 -60.5t46.5 -9.5q86 27 92 68t-41 104z" />
<glyph unicode="L" horiz-adv-x="909" d="M911 129q4 53 -40 69.5t-121 2.5l-412 -56l92 1055q8 76 -7 109.5t-69 33.5q-78 0 -96 -39.5t-22 -107.5l-95 -1083q-6 -23 -6 -52q0 -23 4 -45t14.5 -38.5t27 -25.5t40.5 -5l567 76q72 14 103.5 45.5t19.5 60.5z" />
<glyph unicode="M" horiz-adv-x="1589" d="M1470 117l97 1089q0 39 -6.5 63.5t-18.5 39t-31.5 21.5t-46.5 11q-12 2 -30.5 -11t-41 -37.5t-46 -56.5t-43.5 -65q-90 -143 -159 -250.5t-120 -185.5l-85 -130t-54 -85q-29 -45 -44.5 -78.5t-24.5 -46t-18.5 1t-25.5 60.5q-25 68 -55.5 145.5t-59 146t-50 119 t-23.5 60.5q-18 51 -40 106.5t-41.5 99.5t-33.5 72.5t-14 26.5q-18 55 -49 84t-63 30t-56.5 -27t-30.5 -85l-115 -1124q0 -78 24.5 -107t67.5 -35q25 -4 44.5 11.5t33 39t19.5 51t6 46.5l63 733q49 -121 106.5 -247t104.5 -249q16 -43 24.5 -63.5t14.5 -33.5t13.5 -26.5 t21.5 -42.5q6 -16 29.5 -32.5t55.5 -21.5t67.5 6.5t66.5 54.5q23 31 32 47t17.5 33.5t18.5 39t33 62.5q18 31 57 87t87 125.5t100 145.5t102 146l-74 -779q-10 -51 4 -90t74 -43q35 -2 57.5 10.5t36.5 33t19 48t3 56.5z" />
<glyph unicode="N" horiz-adv-x="1337" d="M1210 100q-2 -18 -7 -39.5t-16 -41t-26.5 -33t-40.5 -13.5q-37 0 -59.5 6.5t-34.5 15.5t-18.5 20.5t-12.5 19.5q-27 37 -66.5 94t-81.5 118.5t-79 120t-59 99.5q-25 45 -63 102.5t-81 116.5t-86 119.5t-80 114.5l-71 -818q12 -45 -10.5 -88t-75.5 -47q-135 -10 -107 144 l94 1079q12 94 38 120.5t73 26.5q20 0 40.5 -13t37 -33.5t31 -43t24.5 -41.5q20 -45 31.5 -65.5t17.5 -30.5t11.5 -16.5t15.5 -22.5q70 -109 119 -188.5t91 -145t82 -125t89 -125.5q6 -10 21.5 -30.5t32.5 -44t33.5 -45t22.5 -29.5l74 893q2 20 5 42.5t13.5 42t29 32 t52.5 12.5q66 0 81.5 -31t11.5 -110z" />
<glyph unicode="O" horiz-adv-x="1304" d="M1300 737q10 121 -2 237t-59 207t-135 146t-225 55q-102 0 -197.5 -41t-177.5 -109.5t-150.5 -155.5t-119 -181t-81 -187.5t-36.5 -170.5q-12 -139 11.5 -251t78.5 -190t140 -118.5t198 -40.5q139 0 270 63t233.5 172t170 254t81.5 311zM1110 737q-10 -125 -58 -237.5 t-122 -197.5t-169 -135t-200 -50q-74 0 -126 30.5t-82.5 86t-41 132t-2.5 171.5q8 90 56.5 205.5t124 218t172 172t200.5 69.5q88 0 140.5 -42t79 -108.5t31.5 -149.5t-3 -165z" />
<glyph unicode="P" horiz-adv-x="1132" d="M1182 1096q6 74 -13.5 121t-55.5 74.5t-84 38.5t-99 11q-215 0 -356.5 -20.5t-229.5 -36.5q-55 -10 -81.5 -52t-31.5 -91q-4 -39 -8 -82t-9 -85t-8 -80t-3 -67l-60 -696q-4 -25 -6 -53.5t4 -53t25.5 -40t56.5 -13.5q35 2 59.5 18.5t39 38t17.5 46t-3 45.5l37 426 q115 18 252 66t258 121t205 165.5t94 198.5zM987 1096q-6 -57 -67.5 -114.5t-149.5 -108t-190.5 -89.5t-190.5 -57l23 385q43 12 100 21.5t118.5 15.5t124 9t117.5 3q18 0 40 -1t39.5 -7t27.5 -19t8 -38z" />
<glyph unicode="Q" horiz-adv-x="1347" d="M1358 -23l-2 3q-25 -76 -72 -90.5t-139 30.5q-33 51 -84 93t-96 91q-104 -80 -220 -122.5t-241 -42.5q-119 0 -199 39.5t-126 112.5t-62.5 172t-5.5 216q12 147 88.5 306t195.5 292t265.5 219t300.5 86q100 0 179 -45t129 -120.5t72.5 -178t12.5 -215.5 q-16 -174 -82 -323.5t-170 -268.5q47 -55 77.5 -83.5t67.5 -65.5q31 -27 59.5 -50.5t51.5 -54.5zM1161 823q6 74 -3 141.5t-34.5 120t-70.5 83t-109 30.5q-78 0 -154.5 -32.5t-145.5 -87t-128 -127t-105 -152.5t-74 -162t-34 -158q-6 -74 -1 -139.5t29.5 -114.5t69.5 -77.5 t119 -28.5q92 0 176 32.5t158 90.5q-39 47 -69.5 83.5t-53.5 47.5q-31 33 -28.5 68.5t22.5 60t52 31t61 -18.5q27 -27 61.5 -63.5t85.5 -79.5q72 92 119 207.5t57 244.5z" />
<glyph unicode="R" horiz-adv-x="1150" d="M1143 35q4 39 -23.5 68.5t-64.5 56.5l-502 458q98 25 198.5 67t182.5 99.5t136 131t63 163.5q25 260 -287 260q-176 0 -293 -7t-197 -19q-61 -10 -90.5 -60.5t-32.5 -117.5q-4 -80 -8 -164t-6 -160l-78 -690q-6 -78 8.5 -116t67.5 -36q37 0 58.5 12.5t34 33t17.5 46 t9 52.5l37 428l540 -516q35 -35 75 -48.5t76 -7.5t60.5 30t28.5 67zM932 1079q-4 -57 -60.5 -111.5t-138.5 -100.5t-174 -78.5t-168 -45.5l33 392q31 10 81 17t106.5 11t114.5 3t105 -7q107 -17 101 -80z" />
<glyph unicode="S" horiz-adv-x="1292" d="M1276 596q-14 -170 -100 -294t-207 -205t-259.5 -119.5t-256.5 -38.5q-96 0 -166 28.5t-114 72.5t-63.5 98.5t-15.5 107.5q4 41 33 71.5t88 30.5q39 0 59.5 -36t40.5 -76q8 -16 19.5 -34t32 -34t53.5 -26.5t84 -10.5q37 0 91 10.5t115.5 32t123 55t111.5 82.5t85 112.5 t41 143.5q6 70 -24.5 94.5t-81.5 24.5q-72 0 -149 -18.5t-151.5 -42t-145 -42t-128.5 -18.5q-45 0 -92 10.5t-84 38t-58.5 75.5t-15.5 124q10 113 74 215t161 180t217 125t243 47q70 0 133 -15t111 -43t76 -64.5t24 -77.5q0 -12 -6.5 -27.5t-17.5 -29t-26.5 -23.5t-35.5 -10 q-35 0 -52.5 4t-31 12t-27.5 21.5t-41 31.5q-14 8 -38.5 22.5t-84.5 14.5q-109 0 -193.5 -38t-146 -91t-95.5 -112.5t-38 -102.5q-4 -45 22.5 -65.5t59.5 -20.5q37 0 92 18.5t127 42t156 42t180 18.5q37 0 90 -11.5t101.5 -42t79 -88t22.5 -149.5z" />
<glyph unicode="T" horiz-adv-x="1021" d="M1167 1292q4 53 -28.5 77t-87.5 13q-92 -16 -165 -29.5t-155 -29.5t-186.5 -36.5t-257.5 -51.5q-27 -8 -54.5 -16.5t-51 -19.5t-39 -27.5t-17.5 -41.5q-4 -45 32 -68.5t130 -10.5l239 49l-84 -994q0 -20 -3 -43.5t1 -44t21.5 -35t58.5 -14.5q66 0 84.5 31t28.5 104 l90 1031l287 53q47 12 76.5 22.5t47 22.5t24.5 26.5t9 32.5z" />
<glyph unicode="U" horiz-adv-x="1251" d="M1153 350l74 844q2 2 7 24.5t1 49t-22.5 48t-63.5 21.5q-39 0 -60.5 -12t-33 -32.5t-14.5 -48t-3 -56.5l-90 -846q-4 -37 -39 -77t-93 -72.5t-137 -53t-171 -20.5q-66 0 -116 29.5t-46 82.5l88 1004q0 12 -3 29.5t-12 34t-27.5 27.5t-49.5 11q-33 0 -52.5 -10 t-29.5 -26.5t-14 -36t-8 -39.5l-86 -994q-6 -63 12 -116.5t63 -93t120 -62t181 -22.5q129 0 241 35.5t195 94t133 133t56 150.5z" />
<glyph unicode="V" horiz-adv-x="1064" d="M1161 1200q4 43 -14.5 66.5t-48 28.5t-65.5 -11t-64 -53q-23 -29 -44.5 -63.5t-58.5 -98.5q-33 -51 -49 -77.5t-24.5 -40t-9.5 -17.5t-3 -10t-8 -20.5t-22 -47.5q-10 -18 -35 -59t-55.5 -92.5t-64.5 -105.5t-62.5 -100t-48 -77t-19.5 -33q-4 8 -14.5 61.5t-20.5 114 t-19.5 110.5t-9.5 52q-8 53 -12 83t-6 48.5t-3 31.5t-4 32.5t-8.5 51.5t-15.5 89q-4 27 -10 75t-10 79q-8 51 -40 75.5t-69 24.5q-35 0 -64.5 -21.5t-31.5 -62.5q-2 -6 -2 -39q0 -35 1 -80t7 -67q25 -147 44.5 -263t31.5 -180q6 -37 8 -46t6 -32q4 -27 11.5 -73.5 t17.5 -98.5q20 -117 40.5 -214t51.5 -142q35 -47 81 -38t93 110q23 53 67 140t93 179t94 173t68 124q16 31 27.5 50.5t28.5 46t47 70.5t83 122q31 43 46 65.5t23.5 32.5t13.5 17.5t15 19.5z" />
<glyph unicode="W" horiz-adv-x="1560" d="M1657 1278q2 14 0 30.5t-12.5 32t-30 25.5t-51.5 10q-47 0 -74 -46t-49 -99q-10 -20 -46 -106.5t-86.5 -210t-107.5 -272t-110 -294.5q-6 33 -19.5 99.5t-29 146.5t-33 165t-31.5 155.5t-24.5 118.5t-12.5 54q-4 18 -10 51t-14.5 65t-19.5 56.5t-26 24.5q-29 0 -46 -3 t-33.5 -21.5t-35 -58.5t-48.5 -114q-6 -12 -23.5 -53t-43.5 -99t-55.5 -130t-61 -145.5t-63.5 -143.5t-59 -125q-12 92 -24 191.5t-23.5 195.5t-20.5 183.5t-16 156.5q-2 16 -7 55t-5 80q-23 53 -46 67.5t-60 14.5q-63 0 -84 -28.5t-21 -81.5q0 -117 10.5 -234t23.5 -222 t27.5 -195.5t22.5 -153.5q6 -43 12.5 -91t11.5 -93.5t9 -80t6 -49.5q6 -47 13.5 -74.5t18.5 -42t26.5 -17.5t37.5 -1q20 2 34.5 5.5t29 16.5t32 41.5t46.5 84.5q4 6 23.5 45t49 97t65.5 132t71.5 149.5t67.5 148.5t54 130q16 -96 42 -215t53.5 -228.5t50 -192.5t33.5 -107 q25 -53 41 -79t28.5 -36t23.5 -9t25 1q33 0 65 26.5t60 106.5q14 41 49 127t80 194.5t94.5 232.5t94.5 241.5t80.5 219t52.5 169.5z" />
<glyph unicode="X" horiz-adv-x="983" d="M920 94l22 -59q-37 -41 -72.5 -50.5t-65.5 0t-52.5 32t-30.5 49.5q-29 45 -62.5 116.5t-64.5 139t-52 115.5l-20 48q-2 -2 -21.5 -34.5t-54 -89t-73.5 -118t-77 -121t-67 -99.5q-23 -29 -52.5 -43.5t-58 -13.5t-54 16.5t-37.5 46.5q-4 8 8 33.5t30.5 52t34 48t17.5 25.5 q27 37 66.5 99.5t80.5 128t79 127t59.5 98.5t23.5 39q-2 4 -21.5 47t-50 112.5t-60.5 136t-51.5 118t-23.5 59.5q-4 8 -11 24.5t-14.5 35t-12.5 38t-3 33.5q4 35 29.5 58.5t77.5 23.5q47 0 62 -27.5t32 -62.5q27 -55 58.5 -126t60 -133.5t51 -104.5t29.5 -38l17 23t43 58.5 t58.5 80.5t63.5 88t58.5 81t43.5 61q16 18 30.5 34.5t32 27.5t38 15.5t47.5 -2.5q35 -8 46 -32.5t6 -55t-19.5 -62.5t-32.5 -56q-29 -33 -66 -80t-73.5 -99.5t-72.5 -103.5t-63.5 -92t-44.5 -66l-16 -26l22 -60q23 -61 56.5 -144t71.5 -167t71 -133q8 -14 18.5 -27.5 t6.5 -42.5z" />
<glyph unicode="Y" horiz-adv-x="1251" d="M1294 1147l-524 -508l-45 -520q-4 -53 -25.5 -96t-93.5 -50q-53 -4 -66.5 43t-7.5 115l43 508l-393 508q-41 47 -48 82t6.5 59.5t41 38.5t56.5 21q27 6 61.5 -38t77.5 -110l323 -371l422 414q25 14 47.5 31.5t44 31t41 16.5t41.5 -9q16 -10 31.5 -21.5t21 -28t-6 -44 t-48.5 -72.5z" />
<glyph unicode="Z" horiz-adv-x="1163" d="M1126 111q-4 -51 -29.5 -92.5t-70.5 -41.5h-63q-59 0 -162 -1t-216.5 -2t-225 -4t-191.5 -7q-35 -2 -61.5 11.5t-40 37t-8.5 56t36 69.5l873 1053l-471 -37q-117 -27 -182.5 -18.5t-61.5 65.5q2 37 10 60.5t34 37t77 19.5t139 8l653 39q27 2 46.5 -10.5t28.5 -33t6 -45 t-23 -48.5l-897 -1086q70 6 127 10.5t112.5 5.5t112.5 2t129 1q74 4 136.5 9t105.5 4t64 -14t13 -48z" />
<glyph unicode="[" horiz-adv-x="827" d="M678 -121q-4 -37 -19.5 -61.5t-62.5 -28.5l-315 -33q-59 -12 -94 -13t-53.5 13.5t-23 45t0.5 81.5l118 1530q6 61 57.5 104.5t123.5 61.5l198 47q39 6 74 5t61.5 -11t41 -29.5t12.5 -46.5q-2 -31 -7.5 -43t-19.5 -18t-42 -12.5t-75 -22.5l-213 -59l-129 -1446l226 24 q43 4 71.5 7t45 -3t22.5 -26.5t2 -65.5z" />
<glyph unicode="\" horiz-adv-x="919" d="M739 147q-55 154 -106 323t-92 317.5t-68 256t-33 138.5q-14 53 -25.5 100t-28.5 78t-46 40t-78 -11q-45 -18 -47 -48t4 -63q8 -47 26.5 -134t45 -196.5t58.5 -230.5t67 -234.5t70.5 -213t68.5 -163.5q4 -18 11 -42.5t18.5 -49t25 -45t29.5 -28.5q39 -23 70.5 -24 t48 22.5t14.5 73.5t-33 134z" />
<glyph unicode="]" horiz-adv-x="827" d="M698 -117q-4 -35 -16 -53t-33.5 -28.5t-54.5 -16.5t-76 -14l-156 -23q-41 -10 -79.5 -17t-68.5 -3t-46 23.5t-12 62.5q2 37 14 57t32.5 29.5t47 13.5t57.5 10l207 47l127 1454l-217 -30q-78 -8 -118 7t-34 85q4 37 32 58.5t93 27.5q0 2 38 7t85 11t92 12.5t58 10.5 q68 14 105.5 11t56 -17.5t21.5 -36t1 -45.5z" />
<glyph unicode="^" horiz-adv-x="819" d="M1135 1104q2 27 -19 61l-178 252q-10 29 -32.5 50.5t-51.5 21.5q-33 0 -45 -13.5t-23 -31.5l-260 -264q-20 -18 -34.5 -34t-18.5 -42v-17q0 -14 13.5 -25t52.5 -22q23 -4 44 5.5t56 54.5l199 200l135 -194q25 -49 57.5 -59.5t40.5 -6.5q37 14 49.5 27.5t14.5 36.5z" />
<glyph unicode="_" horiz-adv-x="962" d="M950 -256q33 0 50.5 22.5t19.5 50t-12.5 51t-44.5 23.5h-938q-35 0 -53.5 -23.5t-20.5 -51t12 -50t49 -22.5h938z" />
<glyph unicode="`" horiz-adv-x="1079" d="M715 1022q23 8 37 15t18 18.5t-1 29t-19 45.5q-18 35 -44 76t-57 80t-62.5 73t-60.5 52q-39 25 -72.5 36t-56 6t-31 -29.5t4.5 -71.5q12 -33 24.5 -56.5t30.5 -44t42 -40t58 -44.5q41 -29 70 -52t43 -40q35 -45 56.5 -48t19.5 -5z" />
<glyph unicode="a" horiz-adv-x="1081" d="M958 100l41 602q4 70 -13 115t-48 69.5t-69 34t-74 9.5q-123 0 -261.5 -30t-248.5 -103q-12 -6 -26.5 -11.5t-29 -15.5t-23.5 -25.5t-11 -42.5q-4 -47 23.5 -57t63 -4t69.5 22.5t44 22.5q49 12 91 27.5t83 28t81 20.5t85 8q8 0 21.5 -1t26 -5t20.5 -13.5t8 -27.5l-8 -113 q-154 -6 -284 -31.5t-227 -73.5t-158.5 -120t-78.5 -166q-6 -41 8.5 -90t44 -92t71.5 -71.5t89 -28.5q74 0 149 17t141.5 41.5t120.5 49.5t89 37q-2 -29 -5 -50.5t2 -36.5t23.5 -23.5t59.5 -8.5q61 0 85.5 33t22.5 102zM801 307q0 -4 -24.5 -22.5t-64.5 -45t-91.5 -55 t-105.5 -50t-107.5 -34t-96.5 -4.5l-14 6q-14 7 -30.5 20t-29 36.5t-10.5 60.5q4 47 57.5 87t134.5 73t180 55.5t194 34.5z" />
<glyph unicode="b" horiz-adv-x="1024" d="M1026 700q4 53 -11.5 90t-46 60.5t-74.5 34t-97 10.5q-106 0 -213 -33t-205 -106l45 463q0 35 -2 60.5t-11.5 42.5t-29 25.5t-53.5 8.5q-41 0 -63.5 -16.5t-35 -43t-16.5 -59.5t-6 -66l-74 -1046q-4 -84 11.5 -136t74.5 -52q82 0 172 31.5t178 87t168 130t142.5 158.5 t101.5 176t45 180zM831 672q-4 -59 -50 -142.5t-115.5 -163t-156.5 -146t-175 -93.5l26 385q29 47 74 85t98.5 64.5t110.5 41t111 14.5q6 0 19 1t26.5 -2t23.5 -13.5t8 -30.5z" />
<glyph unicode="c" horiz-adv-x="944" d="M920 219l-70 -78q-20 -27 -56 -61.5t-91.5 -66t-134.5 -53t-185 -21.5q-84 0 -141.5 29.5t-92 78.5t-49 111.5t-10.5 128.5q8 123 58.5 236.5t127 201.5t175 140.5t202.5 52.5q84 0 145.5 -12.5t125.5 -59.5q55 -43 61 -82t-17.5 -62.5t-65.5 -28.5t-85 19q-16 25 -63 37 t-113 12q-59 0 -119.5 -37.5t-112 -101t-85 -145.5t-39.5 -170q-2 -31 3 -61.5t20.5 -55.5t40 -40t59.5 -15q61 0 118.5 19.5t103.5 49t77.5 62.5t46.5 61q4 6 11 22.5t20.5 32t36 27.5t59.5 12q82 0 85 -52t-46 -130z" />
<glyph unicode="d" horiz-adv-x="1142" d="M1034 188l-12 -79q4 -68 -13.5 -105t-88.5 -37q-29 0 -45.5 2t-25.5 12.5t-13.5 31t-10.5 59.5q-18 8 -40.5 -9.5t-72.5 -41t-140.5 -45t-243.5 -21.5q-35 0 -82 27.5t-86 77t-60.5 118t-5.5 148.5q12 66 57.5 157.5t129.5 176.5t210.5 144.5t303.5 59.5q23 0 43 -3 t43 -23l24 368q4 31 8.5 57.5t14.5 47t31.5 32t62.5 11.5q39 0 57.5 -14.5t24.5 -34t3 -43t-7 -41.5zM866 479l4 142q4 29 -12 47t-51 18q-66 0 -133.5 -8t-134 -41t-130 -95.5t-116.5 -168.5q-20 -39 -21 -82q0 -59 28 -102.5t69 -63.5q23 -10 66.5 -5t98 22.5t111.5 49 t105.5 73.5t80 96.5t35.5 117.5z" />
<glyph unicode="e" horiz-adv-x="960" d="M956 627q-4 -68 -67.5 -120t-161.5 -94t-216 -75t-230 -59l-3 -26q-2 -26 7 -65q8 -37 24.5 -56t34.5 -27.5t36.5 -9.5t33.5 -1q49 0 97 16.5t94 41t89 55.5t82 59q23 12 36 19.5t25.5 10.5t27 4t36.5 1q35 0 46 -23.5t7 -70.5q-2 -29 -55 -76t-136 -91t-186.5 -77 t-207.5 -33q-141 0 -217 82t-64 256q8 115 54 227.5t124 202.5t182.5 145.5t231.5 55.5q63 0 116.5 -20.5t90.5 -56.5t55 -86t14 -109zM764 655q4 29 -22.5 58.5t-86.5 29.5q-45 0 -97 -21.5t-101 -59t-88 -92t-60 -121.5q25 -8 67 -1t90 23t98 40t92 49.5t72 51t36 43.5z " />
<glyph unicode="f" horiz-adv-x="794" d="M852 858q-2 41 -26.5 62.5t-86.5 7.5l-264 -35l2 113q0 14 4 49t17.5 70.5t40 63.5t71.5 28q29 0 67 -14.5t56 -31.5q61 -20 90 -20q25 0 51 14q55 31 56.5 72t-25.5 57q-49 29 -128 64t-183 35q-92 0 -150.5 -42t-92.5 -108.5t-48 -150.5t-20 -166l-7 -72l-47 -20 q-20 -6 -38.5 -10.5t-32 -12.5t-22.5 -26.5t-13 -51.5q-4 -31 5 -47t25.5 -22.5t38 -4t44.5 8.5l28 -2l-41 -570q-16 -51 14.5 -89t79.5 -34q51 4 83 44t20 87l41 598l280 54q37 14 59.5 24.5t33 19.5t13.5 22.5t3 33.5z" />
<glyph unicode="g" horiz-adv-x="1075" d="M944 -35l55 789q2 35 1 62.5t-16 47t-50 29.5t-103 10q-154 0 -285.5 -32.5t-230 -93t-156 -146.5t-57.5 -193q0 -147 11.5 -233t34 -135.5t54 -73t72.5 -43.5q23 -12 81.5 -5t132 35.5t152.5 82t142 135.5q-10 -119 -16 -179l-6 -59q-4 -61 -26.5 -109.5t-56.5 -82 t-77 -51t-88 -15.5q-49 4 -103.5 19.5t-86.5 39.5q-29 10 -44.5 15.5t-26.5 6.5t-20 1h-20q-41 0 -58.5 -23.5t-21.5 -64.5q-4 -43 24.5 -76t77 -54.5t109.5 -32.5t125 -11q94 0 178 26.5t147.5 81t103.5 137t48 195.5zM803 725q-2 -16 4 -42t8 -56.5t-4 -65.5t-31 -69 q-35 -61 -89 -126t-113.5 -119t-117 -88t-98.5 -34q-35 0 -51 37t-23 85t-7 91v57q6 70 26.5 118t56 82t84 57.5t109.5 45.5q68 14 134.5 25.5t111.5 1.5z" />
<glyph unicode="h" horiz-adv-x="1044" d="M922 96l41 563q10 135 -25 188.5t-127 53.5q-115 0 -225.5 -54t-216.5 -132l32 456q2 66 2 103q0 39 -7 58.5t-23.5 24.5t-42.5 5q-43 0 -66.5 -23.5t-35 -60.5t-14.5 -82t-5 -90l-72 -1012q-4 -45 11.5 -84t68.5 -45q43 -4 79 30t36 99l26 373q47 39 97.5 80t98.5 72.5 t91 52t78 20.5q25 0 37 -16.5t15 -39t1 -47t-4 -40.5l-45 -449q-2 -61 20.5 -97t65.5 -40q49 -4 73 23.5t36 109.5z" />
<glyph unicode="i" d="M446 1231q4 39 -15 66.5t-85 27.5t-109.5 -41t-50.5 -137q-2 -27 7.5 -51.5t24.5 -44t33.5 -30.5t35.5 -11q82 0 123 52t45 116zM334 125l41 584q8 70 9 109.5t-8 61t-26.5 27.5t-42.5 6q-47 0 -72.5 -10t-37 -34.5t-15.5 -64.5t-8 -99l-35 -574q-2 -31 -4 -59.5t3 -50 t22.5 -35t54.5 -17.5q39 -4 60.5 8.5t32.5 35t16.5 53t9.5 61.5v-2z" />
<glyph unicode="j" d="M324 -182l67 880q4 35 7 72t-4 66.5t-28.5 48t-68.5 18.5t-68.5 -21.5t-31 -51t-10.5 -63.5t-7 -58l-51 -891q-12 -158 -74 -148q-35 4 -45 6t-24 13q-25 14 -37 25.5t-22.5 21.5t-26 21.5t-47.5 25.5q-23 8 -45.5 -1t-40 -27.5t-26.5 -44t-5 -50.5l30 -26q29 -27 71 -62 t88 -68.5t79 -48.5q63 -27 121.5 -3t102.5 79t70 132t26 155zM469 1235q4 37 -18.5 60.5t-100.5 23.5q-29 0 -58.5 -11.5t-54 -31t-42 -48t-19.5 -63.5q-2 -27 3 -56.5t19.5 -54t38 -41t58.5 -16.5q78 0 132 51.5t52 151.5z" />
<glyph unicode="k" horiz-adv-x="860" d="M899 840q0 12 -6 34.5t-19.5 41t-32 27.5t-42.5 -3q-41 -23 -65.5 -39t-65.5 -43l-287 -231l31 608q4 27 3 51.5t-11.5 43t-32 26.5t-58.5 4q-43 -6 -62.5 -19.5t-27.5 -34t-9 -49t-5 -63.5l-70 -1081q-2 -23 0 -47.5t11.5 -46t27 -36t47.5 -14.5q35 0 56.5 11.5t34 31 t15.5 46t3 55.5l26 295l277 -349q4 -12 17.5 -29.5t32 -33.5t36.5 -28.5t31 -14.5q29 -4 53 9t35.5 38t6.5 57.5t-36 67.5l-291 389l281 229q47 29 68.5 46.5t25.5 52.5z" />
<glyph unicode="l" d="M334 119l76 1075q4 35 7 67.5t-3 56t-25.5 37t-60.5 11.5q-35 -2 -55.5 -18.5t-32 -41t-15.5 -54t-6 -58.5l-80 -1088q-2 -66 23.5 -103.5t73.5 -33.5q55 2 71.5 42t26.5 106v2z" />
<glyph unicode="m" horiz-adv-x="1542" d="M1421 113l47 665q2 31 -10 67t-39.5 62.5t-74 33.5t-109.5 -23q-57 -31 -127 -64t-180 -86l-4 84q-4 63 -24.5 76.5t-59.5 17.5q-41 4 -95.5 -17.5t-117 -54t-129 -70.5t-127.5 -65l4 60q12 45 -9.5 69.5t-62.5 24.5q-49 0 -78.5 -23.5t-38.5 -89.5l-47 -661 q-8 -49 5.5 -87t72.5 -50q31 -6 51.5 3t32.5 27.5t18.5 45t8.5 55.5l51 413q37 29 88 60.5t101 59.5t90 45.5t53 17.5q12 0 13 -7.5t-1 -19.5l-41 -563q-2 -80 15.5 -108.5t80.5 -39.5q29 -4 47.5 12.5t29.5 41t15 51t4 43.5l37 420q45 51 102.5 84.5t109 54t89 29t43.5 8.5 q14 0 15.5 -9.5t-0.5 -23.5l-39 -582q2 -57 19.5 -86.5t60.5 -38.5q88 -16 110 142v-4z" />
<glyph unicode="n" horiz-adv-x="1028" d="M913 199l-6 -93q4 -66 -23.5 -101.5t-80.5 -31.5t-72.5 28t-15.5 99l41 568q0 10 -4 30.5t-27 20.5q-8 0 -44 -3t-85 -16.5t-107.5 -39t-109.5 -68.5l-51 -494q2 -16 -2 -36.5t-17.5 -39t-36 -33t-55.5 -16.5q-41 -4 -61.5 23t-20.5 61q0 12 1 24.5t3 24.5 q6 129 11.5 196t8.5 105.5t6 66.5t5 77l16 248q0 49 28 85t87 44q39 6 54.5 2t19.5 -14.5t4 -28.5q0 -16 6 -35l4 -37q31 8 85 26.5t113.5 37t115 33t90.5 14.5q29 0 58.5 -10.5t53 -31t37.5 -48t12 -60.5z" />
<glyph unicode="o" horiz-adv-x="1071" d="M1040 528q-8 -121 -63 -227t-141 -187t-196 -128t-228 -47q-94 0 -158 30.5t-101.5 80.5t-52 114.5t-10.5 130.5q6 102 52 214t128 204t197 151.5t260 59.5q88 0 150.5 -34t100.5 -89.5t53 -127t9 -145.5zM846 528q2 37 -3 74t-21.5 66.5t-45 47t-74.5 17.5 q-100 0 -175.5 -42t-127 -106.5t-80 -142t-34.5 -147.5q-2 -31 3 -63.5t20.5 -58.5t44 -42t71.5 -16q82 0 155.5 34.5t131 92t93.5 132t42 154.5z" />
<glyph unicode="p" horiz-adv-x="1083" d="M1059 623q-8 -127 -68.5 -245t-148.5 -209t-193.5 -146.5t-206.5 -55.5q-10 0 -26.5 -1t-34.5 -1h-35q-16 0 -22 2l-31 -426q-2 -63 -28.5 -92t-88.5 -41q-57 -10 -69.5 31t-6.5 110l84 1213v24q0 16 5.5 39t17.5 44.5t32.5 38t51.5 20.5q47 4 79.5 -17.5t28.5 -83.5 q104 66 206 89.5t200 23.5q141 0 202.5 -85t51.5 -232zM864 623q4 53 -19.5 83.5t-76.5 30.5q-74 0 -143.5 -16t-124 -39t-87 -47.5t-34.5 -42.5l-29 -408q-2 -29 16.5 -39t51.5 -10q70 0 146.5 43t141 111.5t108.5 156t50 177.5z" />
<glyph unicode="q" horiz-adv-x="1089" d="M1161 -365q4 49 -31.5 63.5t-76.5 -15.5l-115 -48l80 1174q2 33 -23.5 54.5t-63.5 32.5t-79 15t-68 4q-111 0 -228.5 -40.5t-217.5 -117.5t-168 -190.5t-78 -257.5q-12 -160 54.5 -252t201.5 -92q129 0 235.5 38t192.5 110l-45 -609q-4 -66 22.5 -89t63.5 -23 q27 0 82 19.5t109.5 48t96.5 63.5t44 65zM289 322q8 104 54 177.5t105.5 122t121 73t102.5 32.5q18 4 44.5 10t49.5 6q25 0 40 -10t13 -37q-2 -31 -4 -73.5t-6 -91t-10 -93.5t-19 -78q-10 -39 -49 -76.5t-94 -66.5t-120.5 -47t-133.5 -18q-35 0 -54.5 15t-28.5 38.5 t-11 54.5t0 62z" />
<glyph unicode="r" horiz-adv-x="774" d="M186 793q-10 61 14.5 93t110.5 32q39 0 51.5 -17.5t26.5 -66.5q53 25 78 36t41 18t35.5 12t64.5 18q84 23 131 22q51 0 101 -18l41 -70q-6 -23 -7.5 -42t-24 -35.5t-78.5 -31t-173 -28.5q-55 -8 -86 -19.5t-51.5 -24t-35.5 -25.5t-40 -25l-57 -502q-10 -88 -27.5 -116 t-46.5 -28h-18q-8 0 -19 -2q-27 -2 -43 12.5t-24.5 36t-10.5 48t0 49.5z" />
<glyph unicode="s" horiz-adv-x="1064" d="M1026 403q4 57 -13.5 99.5t-47 70t-67.5 40t-77 12.5q-72 0 -145.5 -18.5t-139 -42t-116.5 -42t-76 -18.5q-35 0 -40 11t-5 24q2 39 36 76.5t92 68.5t140 49.5t185 18.5q2 0 20.5 -2t42.5 -2q25 0 51.5 2t44.5 8q33 12 48.5 39.5t5 57.5t-48 51.5t-111.5 21.5 q-111 0 -230.5 -27t-220 -79t-170 -130t-80.5 -182q-2 -31 6.5 -64.5t32 -62.5t63.5 -47.5t101 -18.5q55 0 120 19.5t127 42t118.5 42t97.5 19.5q25 0 44.5 -15t16.5 -42q-4 -47 -40.5 -96t-97 -90t-135.5 -67t-150 -26q-35 0 -81 23t-112 74q-16 12 -42 17t-51.5 -1 t-45 -23.5t-25.5 -46.5q-8 -45 25 -83.5t86 -66.5t117.5 -44t117.5 -16q111 0 219.5 36.5t197.5 101t147.5 148.5t64.5 180z" />
<glyph unicode="t" horiz-adv-x="892" d="M793 166l-39 -47q-27 -23 -65 -51.5t-87 -53t-107.5 -42t-121.5 -17.5q-27 0 -51.5 5t-43 20.5t-28.5 42t-6 71.5l45 641l-78 -14q-121 0 -115 59q2 37 19.5 63.5t70.5 43.5l115 18l8 148q2 143 117 135q29 -2 44 -12.5t21.5 -26.5t7.5 -41t1 -55l-8 -117l237 33 q49 12 75.5 10t39 -13.5t14.5 -31t2 -41.5q4 -31 -21.5 -51.5t-103.5 -42.5l-256 -37l-39 -565q-2 -20 7.5 -26.5t21.5 -6.5q45 0 69.5 23.5t39.5 37.5q27 27 64.5 39t71.5 6t57.5 -31.5t21.5 -72.5z" />
<glyph unicode="u" horiz-adv-x="1044" d="M311 918q-37 2 -62.5 -11.5t-40.5 -34t-20.5 -46t-1.5 -46.5l-43 -608q-8 -111 42.5 -164t142.5 -53q61 0 130.5 15.5t129 34t98.5 33.5l39 15q-4 -53 21.5 -69.5t62.5 -16.5q31 0 56.5 7.5t43 22.5t22.5 40.5t-7 62.5l49 693q23 94 3 125.5t-71 27.5q-53 -4 -82.5 -39 t-46.5 -114l-37 -533q-25 -18 -60.5 -39.5t-75.5 -41t-82 -32t-79 -12.5q-16 0 -33.5 1t-34 6t-26.5 14.5t-10 25.5l47 592q12 59 -5.5 100.5t-68.5 43.5z" />
<glyph unicode="v" horiz-adv-x="839" d="M879 815q-12 -39 -44 -100.5t-74 -133t-88 -147.5t-88 -143.5t-74 -119.5t-44 -77q-25 -53 -55.5 -95t-81.5 -38q-31 2 -56.5 55.5t-47 124t-39 144t-33.5 116.5q-12 61 -22.5 110.5t-22 95.5t-22.5 93.5t-26 104.5q-2 12 0 30.5t12.5 35t30 28.5t54.5 12q33 0 52 -2 t40 -45q2 -8 8 -36.5t13.5 -62.5t13.5 -66.5t8 -47.5q6 -45 29.5 -142t39.5 -220q31 55 75 132t90 153.5t87 145t64 107.5q35 57 59.5 76t77.5 19q47 0 62.5 -30t1.5 -77z" />
<glyph unicode="w" horiz-adv-x="1228" d="M1257 733q45 72 47.5 116t-69.5 73q-39 16 -62.5 9t-42 -33t-35 -64.5t-38.5 -88.5q-31 -68 -59.5 -136t-54 -130.5t-49.5 -115t-46 -84.5q0 4 -10.5 43.5t-26.5 104.5t-32.5 130.5t-30 119.5t-17.5 71q-12 66 -23.5 96t-54.5 30q-2 0 -12 2.5t-27.5 -6t-41 -34 t-50.5 -80.5q-8 -23 -26.5 -62t-41 -85t-47 -95l-46 -92t-37 -76t-19.5 -45q-2 61 -6 131t-9 133.5t-8 114.5t-3 78q-2 35 -3.5 67.5t-9.5 58t-25.5 40t-54.5 12.5q-61 -4 -81.5 -40t-14.5 -134q2 -16 6 -70.5t9.5 -129.5t11.5 -157.5t11 -154.5t10 -123t7 -61 q12 -41 20.5 -61.5t20 -30t25.5 -9.5h39q27 0 44 6t37.5 34t48.5 81t75 150q2 6 15 28.5t31.5 57t42 81t46.5 99.5q14 -74 36.5 -154t44 -149.5t38 -118.5t20.5 -62q10 -35 20.5 -49t23.5 -18t29.5 -3t39 -1t42 19.5t37 54t31 67.5t23.5 59z" />
<glyph unicode="x" horiz-adv-x="845" d="M319 434q-27 39 -49 72t-47.5 66.5t-56.5 71.5t-74 89q-20 20 -35.5 46t-17.5 51.5t13.5 47t58.5 33.5q39 10 63.5 0t43 -31.5t35.5 -50t42 -55.5q31 -41 51.5 -68.5t36.5 -48t30.5 -38t30.5 -37.5l191 217q16 23 34.5 44t37 41.5t39 30t38.5 9.5q20 0 37 -4.5t29 -10.5 q35 -12 37 -32.5t-8.5 -43t-32 -50t-49.5 -62.5q-27 -29 -66 -73t-76 -86t-63 -72l-25 -29q27 -27 59.5 -66t64.5 -80t57.5 -77.5t37.5 -57.5q8 -12 15.5 -20t15.5 -20.5t19.5 -31t25.5 -49.5q-2 -25 -17.5 -46t-40 -30.5t-56 -4t-68.5 33.5q-6 6 -20.5 23.5t-32 40l-35 45 t-29.5 39.5q-23 35 -55.5 78t-63.5 73l-26 -33q-27 -32 -63 -77t-71.5 -89t-54.5 -65q-16 -10 -26 -22.5t-23.5 -23.5t-34 -19.5t-53.5 -8.5q-66 0 -72 55.5t80 149.5q20 25 57.5 68t73 85t49.5 57z" />
<glyph unicode="y" horiz-adv-x="944" d="M950 745q12 29 20.5 57.5t5.5 51.5t-22.5 37t-62.5 14q-59 0 -79.5 -21.5t-37.5 -62.5l-227 -588l-260 560q-8 18 -15.5 39.5t-20.5 37t-35.5 21.5t-59.5 -4q-53 -16 -70.5 -57.5t12.5 -108.5l344 -719l-39 -96q-6 -14 -17 -43t-27.5 -57.5t-41 -50t-57.5 -21.5 q-18 0 -46 5t-59.5 7t-61.5 -2t-50 -21.5t-28.5 -51t3.5 -91.5q12 -14 39 -20t60 -8.5t69.5 -1.5t67.5 1q68 0 118 25t88 66t67.5 94t54.5 112z" />
<glyph unicode="z" horiz-adv-x="948" d="M940 829q0 -29 -13.5 -50t-62.5 -62l-506 -570h347q33 0 66.5 3.5t63 1.5t49 -11.5t23.5 -34.5q4 -49 -13 -75.5t-63 -46.5q-6 -4 -23 -6.5t-38 -2.5q-20 0 -38.5 2.5t-26.5 8.5l-488 -9q-61 -4 -94 -5t-48.5 5.5t-20.5 20.5t-11 43q-4 29 34 61.5t95 85.5l475 539 q-78 0 -137 -3t-111.5 -6t-100.5 -4t-101 1q-16 0 -34 5t-31 16.5t-20.5 27.5t-2.5 41q6 33 18 50t30.5 25.5t44 9.5t58.5 1l471 8q43 2 81 4t67.5 -3t46 -21.5t14.5 -49.5z" />
<glyph unicode="{" horiz-adv-x="1015" d="M823 -141q-4 -31 -19.5 -49.5t-35.5 -29.5t-43 -16.5t-39 -9.5q-106 -27 -177 -21.5t-111 40t-53 97t-5 150.5q6 68 26.5 177.5t30.5 228.5q6 55 4 95t-20.5 64.5t-55 36t-100.5 11.5q-53 0 -72.5 32.5t-12.5 70.5t41 71t87 33q80 0 122 23.5t62.5 69.5t26.5 113.5 t15 157.5q8 82 37.5 163t78.5 143.5t120 101.5t161 39q37 0 58.5 -15.5t17.5 -72.5q-4 -35 -15.5 -51.5t-27 -22.5t-35 -5t-39.5 1q-47 0 -77 -27.5t-48 -68.5t-26.5 -90.5t-12.5 -94.5q-8 -90 -18.5 -163.5t-30 -134t-52 -106.5t-85.5 -81q68 -66 84 -133.5t8 -159.5 q-12 -147 -28.5 -242.5t-22.5 -163.5q-8 -70 37 -101.5t143 18.5q25 12 45 9t33.5 -16.5t19.5 -33t4 -37.5z" />
<glyph unicode="|" horiz-adv-x="456" d="M303 -160l143 1473q0 29 7.5 81t7.5 101t-15.5 82t-62.5 25q-45 -10 -68.5 -26.5t-35 -46.5t-15.5 -76t-10 -116l-148 -1499q-10 -41 -1.5 -66.5t25.5 -41t40 -21.5t41 -6q35 0 62.5 35t31.5 104z" />
<glyph unicode="}" horiz-adv-x="1015" d="M819 774l49 -6q53 0 76 -27.5t16.5 -60.5t-38 -60.5t-86.5 -27.5q-66 0 -107 -30t-63.5 -70.5t-31.5 -83.5t-11 -70l-17 -203q-6 -76 -38.5 -147.5t-84 -128t-116 -91t-134.5 -34.5q-35 0 -66.5 21.5t-27.5 80.5q4 41 43 75t111 42q37 4 58.5 23.5t34.5 46t18.5 57.5 t7.5 55l16 203q10 117 50 207t132 141q-49 31 -70.5 89.5t-23.5 144.5q2 98 16.5 219t40.5 243q8 29 0 58.5t-49 38t-82 0t-75 -8.5q-47 0 -67.5 25t-20.5 55q0 31 19 59.5t56 37.5q51 12 91 15t96 3q72 0 120 -27.5t75.5 -72.5t34.5 -99.5t-5 -109.5q-25 -111 -39 -220.5 t-14 -201.5q0 -59 9 -88t24.5 -42t35 -17.5t37.5 -12.5z" />
<glyph unicode="~" horiz-adv-x="1007" d="M989 1284q2 20 -17.5 38.5t-47 25t-56 -5t-45.5 -48.5q-4 -12 -7 -32.5t-10 -40t-20.5 -33.5t-37.5 -14q-35 0 -55.5 24.5t-42 55t-51.5 55t-83 24.5q-43 0 -93 -18.5t-95 -49t-77 -68.5t-34 -77q-4 -33 21.5 -57.5t66.5 -24.5q25 0 47.5 19.5t44 44t44 44t46.5 19.5 q23 0 40.5 -22.5t41 -48t58.5 -48t92 -22.5q59 0 106 12.5t82 41t55.5 78.5t26.5 128z" />
<glyph unicode="&#xa1;" d="M164 514l-74 -711q-2 -16 -3 -32.5t-1 -32.5q0 -53 18.5 -94t71.5 -41q43 0 67.5 19.5t36 47t12.5 58t-1 55.5l63 725q16 74 8 124t-67 50q-66 0 -96.5 -47t-34.5 -121zM176 879q-4 -51 18.5 -83t84.5 -32q61 0 107 49t52 121q4 37 -17.5 73.5t-76.5 36.5 q-74 0 -116 -32.5t-52 -132.5z" />
<glyph unicode="&#xa2;" horiz-adv-x="985" d="M1036 1040q4 70 -43 90.5t-116 20.5q-84 0 -118 -2t-54 -6l6 92q0 14 4 39.5t2 52.5t-16.5 46.5t-51.5 19.5q-43 0 -63.5 -10.5t-28.5 -30t-9 -48t-7 -63.5l-11 -149q-180 -66 -287.5 -195t-123.5 -334q-8 -90 14.5 -157.5t65.5 -113.5t102 -69.5t123 -23.5h27l-7 -140 q-6 -49 -5 -74.5t10.5 -36.5t27 -13.5t45.5 -2.5q35 0 51.5 9.5t22.5 28t7 44t5 58.5l17 170q47 12 95 36.5t93 53t83 59.5t65 53q29 27 45 60t19 61.5t-7 48t-35 19.5q-4 0 -28.5 2t-68.5 -11.5t-85 -56.5q-12 -23 -56.5 -63.5t-101.5 -65.5l45 518l24 8q23 7 48 7 q14 0 36.5 -5t45 -10.5t42 -10.5t25.5 -5q76 -10 101.5 13.5t29.5 58.5zM467 381h-16q-59 0 -101.5 57.5t-34.5 143.5q10 117 57.5 186.5t139.5 118.5z" />
<glyph unicode="&#xa3;" horiz-adv-x="1185" d="M893 680q-29 0 -44 -9l-15 -9h-281q12 92 12 215h279q16 -10 30.5 -12.5t28.5 -2.5q55 0 82 29t31 78q4 45 -17.5 81.5t-66.5 36.5q-29 0 -48 -10l-20 -10h-307q-4 41 -7 84t-7 92q2 66 -23.5 103.5t-73.5 33.5q-55 -2 -71.5 -42t-26.5 -105v-2q23 -88 31 -164h-133 q-16 12 -34.5 14t-27.5 2q-51 0 -78.5 -35.5t-30.5 -77.5t17.5 -78t67.5 -36q20 0 38.5 5t28.5 16h164q0 -55 -4 -108.5t-10 -106.5h-168q-12 10 -28.5 12t-30.5 2q-49 0 -77 -36t-32 -78t16.5 -77.5t69.5 -35.5q23 0 74 22h143q-16 -78 -35.5 -155.5t-36.5 -159.5 q-4 -35 -7 -68t3 -56.5t25.5 -36.5t60.5 -11q51 4 73 35.5t30 72.5q31 -18 73.5 -37.5t90 -37t94.5 -30t90 -16.5q109 -10 180.5 18.5t114.5 78t61.5 109t19.5 110.5t-10.5 86t-27.5 33q-25 -2 -43.5 -8.5t-30.5 -19.5t-19.5 -38t-9.5 -66q0 -45 -21.5 -70.5t-58 -37.5 t-81.5 -15.5t-91 -3.5q-43 0 -86 12.5t-82.5 30t-77.5 36t-71 30.5q12 59 24.5 111.5t22.5 103.5h295q23 -10 33 -11t18 -1q55 0 87 34.5t38 75.5t-17.5 76t-78.5 35z" />
<glyph unicode="&#xa5;" horiz-adv-x="1251" d="M1032 377q-29 0 -44 -9l-15 -10h-228l19 215h219q16 -10 30.5 -12t28.5 -2q55 0 82 28.5t31 78.5q4 45 -17.5 81.5t-66.5 36.5q-29 0 -48 -10l-19 -10h-105l395 383q37 45 48.5 72.5t6 44t-20.5 28t-32 21.5q-23 12 -43 8t-40.5 -16.5t-42 -30t-48.5 -31.5l-422 -414 l-323 371q-43 66 -78 110t-61 38q-29 -6 -56.5 -20.5t-41 -39t-6.5 -59.5t48 -82l297 -383h-94q-16 12 -34.5 14t-26.5 2q-51 0 -79 -35.5t-31 -77.5t17.5 -78t67.5 -36q20 0 38.5 5t29.5 15h202l-18 -215h-203q-12 10 -28.5 12.5t-30.5 2.5q-49 0 -77 -36t-32 -78t16.5 -78 t69.5 -36q23 0 74 23h195l-3 -37q-6 -68 7.5 -115t66.5 -43q72 6 93.5 49.5t25.5 96.5l4 49h223q23 -10 33 -11t19 -1q55 0 86.5 34.5t38 75.5t-17.5 76t-79 35z" />
<glyph unicode="&#xa6;" horiz-adv-x="456" d="M406 881l40 432q0 29 7.5 81t7.5 101t-15.5 82t-62.5 25q-45 -10 -68.5 -26.5t-35 -46.5t-15.5 -76t-10 -116l-45 -458q-10 -41 -2 -67t25.5 -41t40 -21.5t40.5 -6.5q35 0 62.5 35t32.5 105zM307 -199l41 432q0 29 7 81.5t7 101.5t-15 81.5t-62 24.5q-45 -10 -68.5 -26.5 t-35 -46t-15.5 -75.5t-10 -116l-45 -459q-10 -41 -2 -66.5t25.5 -41t40 -21.5t40.5 -6q35 0 62.5 35t31.5 104z" />
<glyph unicode="&#xa7;" horiz-adv-x="856" d="M422 692q0 -84 24.5 -119.5t79.5 -35.5q47 0 75 28.5t28 50.5q-10 35 -13.5 54.5t-3.5 44.5v45t4 57h160q33 0 52.5 33t19.5 59q0 29 -14.5 46.5t-37 25.5t-53 10t-61.5 2l-35 13q10 59 32.5 143t51.5 168l12 35q-6 10 -18 25.5t-25.5 29.5t-29 24.5t-29.5 10.5 q-29 -12 -83 -54t-118.5 -98.5t-133 -121t-124 -126t-90.5 -111.5t-35 -75q0 -33 27 -65.5t49 -32.5h14q29 8 67 18t76 18.5t71.5 14.5t56.5 8l6 -10q2 -35 0 -63.5t-2 -51.5zM516 1157q-10 -33 -16 -77t-13 -95q-74 -4 -132 -24.5t-117 -38.5q51 61 91 103t70.5 69.5t52 46 t37.5 33.5z" />
<glyph unicode="&#xa8;" horiz-adv-x="917" d="M453 1182q2 18 1 42.5t-10.5 45t-28 35t-53.5 14.5t-65.5 -13.5t-53 -34t-35.5 -46t-15.5 -48t7 -47t26 -45t39 -34t48.5 -13.5q35 0 59.5 14.5t42 36t27 46t11.5 47.5zM840 1192q2 18 1 41.5t-9.5 44t-28 35t-53.5 14.5q-35 0 -65 -13.5t-52.5 -33.5t-35.5 -46 t-15 -48.5t6 -47t25.5 -45t40 -33.5t46.5 -13q35 0 60.5 14t43 35.5t26 47t10.5 48.5z" />
<glyph unicode="&#xa9;" horiz-adv-x="1499" d="M1485 784q12 139 -2.5 272.5t-68.5 238t-154.5 169t-260.5 64.5q-119 0 -227 -47t-202.5 -126t-174.5 -180.5t-137 -210t-93 -215t-42 -196.5q-14 -162 12.5 -290t90 -217t161.5 -137t227 -48q162 0 312.5 72.5t268.5 198.5t196 294t94 358zM1323 797 q-12 -162 -73.5 -307.5t-158 -256t-219 -175t-258.5 -64.5q-96 0 -161.5 39t-105.5 110.5t-54 172t-4 221.5q8 78 38.5 172t81 189t116 185.5t142 160t162.5 111.5t177 42q113 0 181 -54.5t102 -140.5t40 -193.5t-6 -211.5zM1139 489q41 68 39 113t-74 45q-33 0 -52.5 -10 t-31.5 -24.5t-17.5 -28t-9.5 -19.5q-12 -25 -40.5 -53.5t-68.5 -54t-89.5 -43t-102.5 -17.5q-31 0 -52.5 13.5t-34.5 35t-18 48t-3 53.5q6 78 35.5 149.5t73.5 127t97.5 88t104.5 32.5q57 0 97 -10t57 -33q37 -20 73.5 -16t57 25.5t15.5 54t-54 69.5q-53 43 -107.5 53.5 t-128.5 10.5q-90 0 -176 -46t-153.5 -122t-110.5 -176.5t-51 -206.5q-4 -57 9 -111.5t44 -97.5t81 -68.5t122 -25.5q92 0 160.5 18.5t117.5 46t80 58t49 55.5z" />
<glyph unicode="&#xaa;" horiz-adv-x="759" d="M713 807l30 428q2 49 -10 81t-33.5 50t-49 24.5t-54.5 6.5q-86 0 -184.5 -20.5t-178.5 -73.5q-16 -10 -38.5 -20.5t-24.5 -47.5q-4 -33 15.5 -40t45 -3t50 15.5t32.5 15.5q70 18 124.5 39.5t117.5 21.5q12 0 32.5 -4t20.5 -31l-6 -80q-109 -4 -201 -22.5t-161.5 -52 t-112.5 -85t-55 -118.5q-4 -29 6 -63.5t31.5 -65.5t50 -51.5t63.5 -20.5q53 0 105.5 13.5t99.5 30t86 33.5t64 28q-2 -20 -4.5 -36t2 -27t17.5 -17t42 -6q43 0 60.5 23.5t17.5 72.5v2zM657 457q47 0 73 18.5t24 40t-34 39.5t-97 18q-25 0 -59 3.5t-56 -5.5h-283q-4 2 -24 2 t-46 -3t-36 -3q-53 0 -77 -18.5t-20.5 -40t31 -39.5t78.5 -18q20 0 54 -7.5t57 9.5l274 2zM602 954q0 -4 -38 -30.5t-91 -56t-113.5 -51t-105.5 -11.5q-2 0 -16.5 6t-31 26.5t-14 53.5t41 62.5t96 52t128 39t138.5 24.5z" />
<glyph unicode="&#xab;" horiz-adv-x="940" d="M842 946q-29 2 -62 -18l-252 -178q-29 -10 -50 -33t-21 -51q0 -33 13 -45.5t32 -22.5l264 -260q18 -20 33.5 -34.5t42.5 -18.5h16q14 0 25.5 13t21.5 52q4 23 -5 44.5t-54 56.5l-201 198l195 135q49 25 59 57.5t6 41.5q-14 37 -27 49t-36 14zM459 981q-29 2 -62 -18 l-252 -179q-29 -10 -50 -32.5t-21 -51.5q0 -33 13 -45t32 -22l264 -260q18 -20 33.5 -34.5t42.5 -19.5h16q14 0 25.5 13.5t21.5 52.5q4 23 -5 44.5t-54 55.5l-201 199l195 135q49 25 59 57.5t6 41.5q-14 37 -27 49t-36 14z" />
<glyph unicode="&#xac;" horiz-adv-x="1943" d="M1761 354q57 35 94 66q41 35 67 77t9 91q-10 45 -33.5 76.5t-56.5 60.5q-35 31 -98.5 39t-136 2t-145 -25.5t-126.5 -44.5q-4 -63 -14 -138t-21.5 -149.5t-22.5 -146.5t-17 -131q-8 -37 1 -52.5t31 -39.5q27 -23 48.5 -38t54.5 -28q29 -18 51 -19t63 9q33 8 73 22.5 t79 32t75 38t60 44.5q35 29 51.5 61t5.5 75q-4 35 -30.5 67.5t-61.5 50.5zM1030 160q4 -41 8 -75t9 -65q6 -29 16 -40t33 -17q25 -10 47 -11t49 -1q25 0 32 7t7 26q-6 86 -11.5 181t-9.5 185t-5 171t3 141q0 25 -9 38t-38 23q-37 10 -81 19.5t-113 13.5q-41 4 -62.5 -9.5 t-36.5 -35.5q-39 -61 -84 -144.5t-89 -171.5t-83 -173t-65 -152q-14 -43 -4 -55.5t32 -28.5q16 -8 32 -14.5t28 -12.5q25 -8 34 -5t19 21q16 33 31.5 67t38.5 73q55 16 127.5 25.5t144.5 19.5zM1352 1470q4 20 0 31.5t-29 26.5q-51 33 -106 45q-29 6 -42.5 3t-19.5 -30 q-20 -68 -38.5 -155.5t-41.5 -180.5q-35 -4 -72.5 -6t-78.5 -6q23 78 38 143.5t31 112.5q4 23 -1 34t-29 25q-27 16 -56.5 27.5t-56.5 20.5q-29 8 -43 4t-19 -31q-14 -68 -28.5 -155t-30.5 -176t-33.5 -174t-36.5 -152q-6 -29 2.5 -43.5t30.5 -24.5q20 -12 47 -19.5 t49 -13.5q27 -6 35 -1t13 22q12 49 22 109.5t29 127.5q39 6 79 11.5t78 11.5q-10 -55 -16 -101.5t-10 -83.5q-10 -37 13.5 -54t64.5 -30q41 -10 68.5 -15t27.5 24q14 82 35.5 174t43 182t43.5 172t38 145zM1427 1511l-110 -591q-4 -27 3 -45.5t23 -34.5q18 -18 35 -29.5 t33 -24.5q14 -10 34.5 -15t63.5 5q59 10 125 23.5t129 25.5q27 6 33 13.5t-4 27.5q-6 18 -13 36t-18 38q-10 16 -26.5 23.5t-44.5 3.5q-47 -4 -89 -7.5t-88 -13.5q10 29 15.5 56.5t15.5 56.5q55 12 114.5 21.5t117.5 19.5q27 6 34 12t-4 29q-6 18 -13 35.5t-17 35.5 q-10 16 -25.5 22.5t-42.5 4.5q-66 0 -113 -8q14 47 25.5 89t26.5 79q63 10 120.5 15t110.5 11q25 4 31 10.5t2 28.5q-4 18 -10.5 33.5t-16.5 36.5q-18 35 -65 35q-104 -4 -209 -22t-183 -36zM702 1440q27 4 31 10t0 25q-20 47 -49 81q-10 10 -22.5 15.5t-40.5 5.5 q-51 -2 -116 -7t-133.5 -11.5t-134 -14.5t-118.5 -16q-16 -4 -21.5 -10.5t2.5 -24.5q10 -16 23.5 -43t34.5 -45q16 -16 30.5 -20.5t38.5 1.5q16 4 40 7.5t50 7.5q-14 -59 -30.5 -130t-29.5 -142.5t-24.5 -138t-15.5 -113.5q-10 -41 15.5 -58.5t64.5 -30.5q43 -12 69.5 -17 t30.5 24q14 74 31.5 153.5t37 161.5t40 163t39.5 152q41 4 81.5 7.5t75.5 7.5zM481 12q31 6 33 12.5t-2 28.5q-8 18 -15.5 37t-17.5 35q-16 18 -29.5 24.5t-39.5 4.5q-47 -4 -87 -8.5t-87 -10.5q16 63 34.5 133t37 137.5t36.5 130t37 113.5q6 20 0 31.5t-29 26.5 q-53 29 -116 43q-27 8 -39.5 3t-22.5 -28q-20 -61 -42.5 -145t-42 -172.5t-35 -169t-23.5 -138.5q-4 -25 4 -42t24 -33q23 -18 37.5 -29.5t30.5 -24.5q14 -10 32.5 -16t63.5 6q59 12 125.5 25.5t132.5 25.5zM596 463q12 12 26.5 32.5t29 44t26.5 48t20 45.5q2 12 3 20.5 t1 12.5q0 16 -14 32q-12 10 -27.5 21.5t-31.5 21.5q-23 14 -36 11.5t-24 -21.5q-12 -27 -29.5 -61.5t-36 -69.5t-35.5 -67.5t-30 -55.5q-14 -33 27 -41q16 -2 34.5 -4t32.5 2q18 0 33 7.5t31 21.5zM1513 420q10 47 20.5 87t25.5 77q78 33 130 35t62 -21q4 -14 -10.5 -36.5 t-45 -48.5t-77 -50.5t-105.5 -42.5zM846 293q47 86 88 164t78 139q0 -68 2 -139.5t8 -145.5q-47 -4 -90 -8t-86 -10zM1473 266q78 27 126 20t56 -28q8 -33 -52.5 -75t-166.5 -68q10 39 18.5 75.5t18.5 75.5z" />
<glyph unicode="&#xad;" horiz-adv-x="790" d="M715 479l-142 -2l-274 -2q-23 -16 -56.5 -9t-54.5 7q-51 0 -77.5 29.5t-28.5 64.5t22.5 65t77.5 30q10 0 36 3t46 3q18 0 25 -2h282q23 8 57 5t58 -3q66 0 96.5 -30t31.5 -64.5t-25.5 -64.5t-73.5 -30z" />
<glyph unicode="&#xae;" horiz-adv-x="1048" d="M1044 1051q0 135 -50 218t-119.5 130t-143.5 63.5t-123 16.5q-109 0 -206 -52.5t-169.5 -137.5t-115.5 -192.5t-43 -215.5q0 -106 38 -184.5t97 -128.5t131 -74.5t139 -24.5q80 0 178.5 33t184.5 103.5t144 180t58 265.5zM948 1051q0 -129 -48 -220.5t-119.5 -150.5 t-152.5 -87t-149 -28q-53 0 -108.5 18.5t-99.5 57.5t-72.5 98.5t-28.5 141.5q0 92 36 182t95 160.5t139 114.5t168 44q31 0 88.5 -12t113.5 -48t97 -101.5t41 -169.5zM545 911q43 18 86 42t76.5 52.5t54 63.5t20.5 76q0 55 -30.5 91t-81.5 36q-27 2 -68 -1t-86 -15.5 t-87 -36t-69 -60.5q0 -84 -1 -132t-1 -77t-1 -49t-1 -43v-151q0 -23 14.5 -34t37.5 -11q27 0 51 16t24 47v86l111 -35q45 -20 80 -32.5t60.5 -9.5t42 24.5t26.5 64.5q-55 18 -92 30.5t-65 22t-51 17.5t-50 18zM662 1126q0 -29 -42 -57.5t-92 -50.5q-12 -6 -22 -12.5 t-23 -10.5v109l33 12q35 12 68.5 22.5t56.5 10.5q16 0 18.5 -7.5t2.5 -15.5z" />
<glyph unicode="&#xaf;" horiz-adv-x="790" d="M678 1065q47 0 73.5 29.5t25.5 64.5t-31.5 64.5t-96.5 29.5q-160 2 -252 2h-139q-47 0 -62.5 -1t-23.5 -1q-53 0 -77.5 -29.5t-22.5 -64.5t28.5 -64.5t77.5 -29.5h500z" />
<glyph unicode="&#xb0;" horiz-adv-x="518" d="M514 1196q8 68 -25.5 123t-111.5 55q-66 0 -117 -26.5t-88 -68.5t-57.5 -91t-22.5 -94q-4 -61 28 -110.5t118 -49.5q51 0 100 21.5t87 57.5t61.5 83t27.5 100zM403 1182q-4 -47 -38.5 -85t-83.5 -38q-25 0 -33 17.5t-8 37.5q2 20 10 43t23.5 41.5t38 30.5t50.5 12 q29 0 36 -18t5 -41z" />
<glyph unicode="&#xb1;" horiz-adv-x="854" d="M721 815h-164l12 150q8 14 9 32q0 25 2 27q2 41 -17.5 60.5t-45 18.5t-49.5 -20.5t-26 -54.5q-2 -16 -7 -35.5t-1 -27.5l-14 -150h-148q-10 6 -32.5 2t-32.5 -4q-43 0 -65.5 -20.5t-25.5 -46t14 -46t56 -20.5q14 0 39 -5t41 3h142l-13 -156q-8 -12 -7 -35.5t-1 -35.5 q-4 -45 14.5 -62.5t42.5 -17.5q29 0 51.5 17.5t26.5 45.5q0 6 2 22.5t3 34t3 34t2 24.5l13 129h160q16 -8 37.5 -3t29.5 5q37 0 61.5 21.5t30.5 47t-9 47t-54 21.5zM690 299h-450q-10 6 -33 2t-33 -4q-43 0 -65.5 -20.5t-25.5 -46t14.5 -46t56.5 -20.5q14 0 38.5 -5t40.5 5 h441q16 -10 37.5 -5t29.5 5q37 0 60.5 21.5t30 47t-9 47t-54.5 21.5z" />
<glyph unicode="&#xb2;" horiz-adv-x="733" d="M545 946q88 96 125 182t37 127v5q0 72 -47.5 114.5t-124.5 42.5q-88 0 -170 -41q-35 -16 -78 -43.5t-80 -59.5t-62.5 -65.5t-25.5 -60.5q0 -16 9 -32.5t22.5 -29t28 -20.5t24.5 -8q29 4 57.5 24.5t73.5 61.5q39 39 90 68.5t84 29.5q6 0 12 -5t6 -9q0 -12 -21.5 -47 t-56 -82t-77.5 -101.5t-85 -104.5t-79 -91t-60 -64q-63 -66 -80.5 -93.5t-19.5 -37.5q0 -33 17.5 -54.5t52.5 -21.5q25 4 32 5.5t23 5.5q45 10 114.5 21t141.5 11q92 0 134 -3t59 -5q61 -2 81.5 23.5t20.5 58.5q0 63 -53.5 86t-171.5 23q-45 0 -97 -6l-10 16z" />
<glyph unicode="&#xb3;" horiz-adv-x="763" d="M754 1257q0 43 -18.5 78t-48.5 60.5t-68.5 39t-79.5 13.5q-49 0 -122 -25.5t-141.5 -64.5t-117.5 -85t-49 -85q0 -20 12 -40t30.5 -33t41 -18t47.5 5q35 39 73.5 70.5t77.5 54t73 36t58 13.5q39 0 39 -25q0 -29 -31.5 -59.5t-80 -58t-101.5 -48t-96 -28.5h-2 q-35 -4 -47.5 -19.5t-12.5 -50.5q0 -23 7.5 -45t19.5 -37.5t28.5 -23t35.5 1.5h4h2q0 2 4 2q61 25 127 24q47 0 77.5 -15t30.5 -48q0 -47 -47 -84t-133 -37q-47 0 -81 9t-44 32q-16 35 -47 45t-41 10q-35 0 -64.5 -15t-29.5 -58q0 -37 25.5 -71t69.5 -59.5t102.5 -41 t121.5 -15.5q70 0 132.5 17.5t110.5 52.5t77 87t29 122q0 66 -27 116t-78 88q78 51 115 99t37 114z" />
<glyph unicode="&#xb4;" horiz-adv-x="1079" d="M420 1022h12t14.5 5t19.5 15.5t30 32.5q14 16 42.5 40t69.5 52q33 25 57.5 44.5t43 40t31 44t24.5 56.5q12 47 4 71.5t-30.5 29.5t-56.5 -6t-73 -36q-29 -18 -60.5 -52t-62 -73t-56.5 -80t-44 -76q-14 -29 -19.5 -46t-1 -28.5t18.5 -18.5t37 -15z" />
<glyph unicode="&#xb5;" horiz-adv-x="1044" d="M317 -221l13 176q61 0 130.5 15.5t128 34t97.5 33.5l39 15q-4 -53 21.5 -69.5t62.5 -16.5q31 0 56.5 7.5t43 22.5t22.5 40.5t-7 62.5l49 693q23 94 3 125.5t-71 27.5q-53 -4 -82.5 -39t-46.5 -114l-37 -533q-25 -18 -60.5 -38.5t-75.5 -39t-82 -32t-79 -15.5 q-45 -4 -75.5 29t-26.5 106l45 504q12 59 -5.5 100t-68.5 44q-37 2 -62.5 -11.5t-40.5 -34t-20.5 -46t-1.5 -46.5q-16 -236 -25 -365.5t-13.5 -193t-4.5 -80.5v-20l-20 -336q-2 -33 -4 -60.5t3 -49t22.5 -35t54.5 -17.5q39 -4 60.5 8.5t33.5 35t16 53t8 61.5v-2z" />
<glyph unicode="&#xb6;" horiz-adv-x="1021" d="M795 1239q-111 0 -228.5 -41t-218 -117.5t-168 -190.5t-78.5 -257q-12 -160 54.5 -252t201.5 -92q59 0 107 8l-35 -516q-4 -66 23.5 -94.5t62.5 -18.5q31 8 51.5 23.5t33.5 43t21.5 70.5t14.5 107l94 1151q16 -2 31.5 1t30 2t29 -9t28.5 -35l-107 -1225q-4 -66 24 -94.5 t62 -17.5q31 8 51.5 23.5t34 43t21.5 70.5t14 106l78 1205q2 33 -23.5 54t-63.5 32.5t-78.5 15.5t-67.5 4z" />
<glyph unicode="&#xb7;" horiz-adv-x="434" d="M397 639q2 23 1 50.5t-11 51t-32.5 40t-61.5 16.5q-41 0 -76 -15.5t-61.5 -40t-42 -53.5t-17.5 -55.5t8.5 -55t30 -52t45 -39t56.5 -15.5q41 0 70.5 16.5t49 42t29.5 55t12 54.5z" />
<glyph unicode="&#xb8;" horiz-adv-x="1024" d="M612 -141l37 125q0 20 3 47.5t-1 51t-20.5 40t-55.5 16.5q-33 0 -55 -14t-37.5 -39t-23.5 -55.5t-13 -63.5l-14 -106l-7 -23q-7 -24 -7 -55q0 -29 11 -55.5t46 -32.5q20 -4 43 7t41.5 33.5t32.5 54.5t20 69z" />
<glyph unicode="&#xb9;" horiz-adv-x="380" d="M135 1092l-20 -267q0 -20 1 -56t2 -73t2 -69.5t3 -46.5q2 -10 15.5 -21.5t31.5 -17.5q16 -12 26.5 -13.5t22.5 -1.5q47 0 57.5 18.5t10.5 51.5v149q4 113 10 199t13 149.5t13.5 107.5t12.5 75q4 16 5 30.5t3 26.5v10q-4 25 -18.5 40.5t-32 23.5t-31.5 11t-16 3 q-27 0 -57.5 -14t-57.5 -32.5t-44 -36t-17 -21.5q0 -29 16 -50.5t53 -31.5l8 -10q-6 -72 -8 -95.5t-4 -37.5z" />
<glyph unicode="&#xba;" horiz-adv-x="817" d="M811 1081q4 51 -6 100.5t-37 87.5t-70 61.5t-104 23.5q-98 0 -178 -41t-136.5 -104.5t-88 -140.5t-35.5 -146q-2 -45 8 -89.5t35.5 -79t68.5 -56t109 -21.5q82 0 157.5 32.5t135 88t97.5 129t44 155.5zM676 1081q-4 -55 -28.5 -106t-63.5 -91t-90.5 -63.5t-106.5 -23.5 q-61 0 -80.5 41t-15.5 84q4 49 23.5 101t54 97t87 74t122.5 29q31 0 51 -12.5t30.5 -33t14.5 -45t2 -51.5zM670 457q47 0 72.5 18.5t23.5 40t-34 39.5t-97 18q-25 0 -58.5 3.5t-56.5 -5.5h-282q-4 2 -25 2q-20 0 -46 -3t-36 -3q-53 0 -76.5 -18.5t-20.5 -40t30.5 -39.5 t78.5 -18q20 0 54 -7.5t57 9.5l274 2z" />
<glyph unicode="&#xbb;" horiz-adv-x="940" d="M141 946q-23 -2 -36 -14t-27 -49q-4 -8 6 -41t59 -58l195 -135l-201 -198q-45 -35 -54 -56.5t-5 -44.5q10 -39 21.5 -52t25.5 -13h16q27 4 42.5 18t33.5 35l264 260q18 10 31.5 22.5t13.5 45.5q0 29 -21.5 51t-49.5 33l-252 178q-35 20 -62 18zM524 981q-23 -2 -36 -14.5 t-27 -48.5q-4 -8 6 -41t59 -58l195 -135l-201 -199q-45 -35 -54 -56t-5 -44q10 -39 21.5 -52.5t25.5 -13.5h16q27 4 42.5 18.5t33.5 35.5l264 260q18 10 31.5 22.5t13.5 44.5q0 29 -21.5 51.5t-49.5 32.5l-252 179q-35 20 -62 18z" />
<glyph unicode="&#xbc;" horiz-adv-x="1323" d="M897 154q0 -84 24.5 -120t79.5 -36q47 0 75 28.5t28 51.5q-10 35 -13.5 54.5t-3.5 43.5v45t5 58h159q33 0 52.5 32.5t19.5 59.5q0 29 -14.5 46t-37 25.5t-53 10.5t-61.5 2l-35 12q10 59 33 143t51 168l13 35q-6 10 -18.5 25.5t-26 30t-29 24.5t-29.5 10q-29 -12 -83 -54 t-118.5 -98.5t-133 -121t-124 -126t-90.5 -111.5t-35 -75q0 -33 27 -65.5t49 -32.5h15q29 8 66.5 18.5t75.5 18.5t71.5 14t56.5 9l6 -11q2 -35 0 -63t-2 -51zM920 1171q8 23 16 48.5t8 48.5q0 29 -14.5 47t-48.5 18q-66 0 -89.5 -25.5t-33.5 -54.5q-27 -43 -73 -122.5 t-101.5 -178t-115.5 -207t-113.5 -210t-97.5 -187.5t-67 -139q-41 -88 -40 -133q0 -63 81 -64q20 0 37 11.5t29 28t22.5 35.5t18.5 36q2 6 7 17.5t11 24.5t11.5 24.5t7.5 15.5q27 59 70.5 140t97 172t111 186.5t108.5 182.5t93 160.5t65 120.5v4zM104 1044l-20 -266 q0 -20 1 -56t2 -73t2 -69.5t3 -47.5q2 -10 15.5 -21t31.5 -17q16 -12 26.5 -13.5t22.5 -1.5q47 0 57.5 18.5t10.5 51.5v149q4 113 10 199t13.5 149.5t13.5 107.5t12 75q4 16 5 30.5t3 26.5v10q-4 25 -18 40.5t-31.5 23.5t-32 11t-16.5 3q-27 0 -57.5 -14t-57 -32.5t-44 -36 t-17.5 -21.5q0 -29 16.5 -50.5t53.5 -31.5l8 -10q-6 -72 -8.5 -96t-4.5 -38zM991 618q-10 -33 -16 -76.5t-12 -95.5q-74 -4 -132.5 -24.5t-117.5 -38.5q51 61 91 103t70.5 70t52 46.5t38.5 32.5z" />
<glyph unicode="&#xbd;" horiz-adv-x="1323" d="M1116 387q88 96 125 182t37 127v4q0 72 -47 115t-125 43q-88 0 -170 -41q-35 -16 -78 -44t-80 -59.5t-62.5 -65.5t-25.5 -60q0 -16 9.5 -32.5t22.5 -29t27.5 -20.5t24.5 -8q29 4 57.5 24.5t73.5 61.5q39 39 90.5 68.5t83.5 29.5q6 0 12.5 -5t6.5 -9q0 -12 -21.5 -47 t-56.5 -82t-78 -101.5t-85 -104.5t-79 -91t-59 -64q-63 -66 -80.5 -93.5t-20.5 -37.5q0 -33 17.5 -54.5t52.5 -21.5q25 4 32 5t23 6q45 10 115 21t141 11q92 0 134.5 -3t58.5 -5q61 -2 81.5 23.5t20.5 58.5q0 63 -53 86t-172 23q-45 0 -96 -7l-10 17zM920 1171q8 23 16 48.5 t8 48.5q0 29 -14.5 47t-48.5 18q-66 0 -89.5 -25.5t-33.5 -54.5q-27 -43 -73 -122.5t-101.5 -178t-115.5 -207t-113.5 -210t-97.5 -187.5t-67 -139q-41 -88 -40 -133q0 -63 81 -64q20 0 37 11.5t29 28t22.5 35.5t18.5 36q2 6 7 17.5t11 24.5t11.5 24.5t7.5 15.5 q27 59 70.5 140t97 172t111 186.5t108.5 182.5t93 160.5t65 120.5v4zM104 1044l-20 -266q0 -20 1 -56t2 -73t2 -69.5t3 -47.5q2 -10 15.5 -21t31.5 -17q16 -12 26.5 -13.5t22.5 -1.5q47 0 57.5 18.5t10.5 51.5v149q4 113 10 199t13.5 149.5t13.5 107.5t12 75q4 16 5 30.5 t3 26.5v10q-4 25 -18 40.5t-31.5 23.5t-32 11t-16.5 3q-27 0 -57.5 -14t-57 -32.5t-44 -36t-17.5 -21.5q0 -29 16.5 -50.5t53.5 -31.5l8 -10q-6 -72 -8.5 -96t-4.5 -38z" />
<glyph unicode="&#xbe;" horiz-adv-x="1669" d="M760 1223q0 43 -18.5 77.5t-48 60t-68.5 39t-80 13.5q-49 0 -122 -25.5t-141.5 -64.5t-117.5 -85t-49 -85q0 -20 12 -39.5t30.5 -33t41 -18.5t47.5 5q35 39 73.5 70.5t77.5 54t73 36t58 13.5q39 0 39 -24q0 -29 -31.5 -60t-79.5 -58.5t-101.5 -48t-96.5 -28.5h-2 q-35 -4 -47 -19.5t-12 -50.5q0 -23 7 -45t19.5 -37.5t28.5 -22.5t35 1h4h2q0 2 4 2q61 25 127 24q47 0 77.5 -15t30.5 -48q0 -47 -47 -84t-133 -37q-47 0 -80.5 9.5t-44.5 31.5q-16 35 -46.5 45t-41.5 10q-35 0 -64.5 -15t-29.5 -58q0 -37 25.5 -71t69.5 -59.5t102.5 -41 t122.5 -15.5q70 0 132 17.5t110 52.5t77 87t29 122q0 66 -27 116t-78 89q78 51 115 99t37 114zM1243 154q0 -84 24.5 -120t80.5 -36q47 0 61 25.5t14 48.5q-10 35 -13 54t-3 44v47t4 59l186 3q33 0 52.5 32.5t19.5 59.5q0 29 -14.5 46t-37 25.5t-53 10.5t-61.5 2l-69 -2 q10 68 25.5 111.5t30.5 77.5t31.5 64.5t30.5 71.5l13 35q-6 10 -18.5 25.5t-26 30t-28.5 24.5t-30 10q-29 -12 -83 -54t-118.5 -98.5t-133 -121t-124 -126t-90 -111.5t-34.5 -75q0 -33 26.5 -65.5t48.5 -32.5q35 8 76 18.5t80 18.5t73 14t56 9l6 -11q2 -35 0 -63t-2 -51z M1266 1171q8 23 16 48.5t8 48.5q0 29 -14 47t-49 18q-66 0 -89.5 -25.5t-33.5 -54.5q-27 -43 -73 -122.5t-101.5 -178t-115.5 -207t-113.5 -210t-97.5 -187.5t-66 -139q-41 -88 -41 -133q0 -63 82 -64q20 0 36.5 11.5t28.5 28t22.5 35.5t18.5 36q2 6 7 17.5t11.5 24.5 t11.5 24.5t7 15.5q27 59 71 140t97 172t110.5 186.5t108.5 182.5t93 160.5t65 120.5v4zM1337 618q-10 -33 -29.5 -78.5t-25.5 -97.5q-74 -4 -119 -22.5t-104 -36.5q104 125 185 196.5t112 100.5z" />
<glyph unicode="&#xbf;" horiz-adv-x="1087" d="M131 -131q-6 -55 16.5 -103.5t64.5 -84t98.5 -56t115.5 -20.5q63 0 126.5 20.5t123 51t115 69.5t102.5 76q41 33 73.5 76t37.5 84q4 53 -17.5 80.5t-58.5 27.5q-39 0 -87 -29.5t-98 -89.5q-76 -72 -151.5 -124t-147.5 -52q-51 0 -88 19.5t-32 54.5q2 33 43 74t102 88 t133 99t134.5 108.5t106.5 115t50 115.5q2 20 3 39.5t1 38.5q0 53 -28.5 84t-106.5 31q-23 0 -36 -22t-25.5 -58.5t-31 -84.5t-52 -100.5t-90 -104.5t-142.5 -99q-47 -25 -91 -59t-79 -76t-57.5 -90t-26.5 -99zM621 922q-6 -61 12 -103.5t78 -42.5q72 0 123 33t59 125 q4 35 -6 58.5t-28.5 39t-43 21.5t-49.5 6q-70 0 -106.5 -37t-41.5 -102z" />
<glyph unicode="&#xc0;" horiz-adv-x="1222" d="M1212 160q-29 92 -80 229t-106 287.5t-105.5 295t-74.5 253.5q-6 55 -30.5 94t-57.5 48t-71 -18.5t-71 -107.5l-555 -1069q-8 -16 -21 -48t-16.5 -65.5t15 -59.5t76.5 -30q41 -4 72.5 46.5t66.5 125.5l162 326l56 4t133 9t153 9.5t114 4.5q29 -66 45.5 -104t26.5 -63.5 t17.5 -45t17.5 -50.5q12 -33 30.5 -77.5t37 -85.5t35 -70t22.5 -29q43 -4 69.5 10.5t39 41t11 62.5t-11.5 77zM846 1432q23 8 37 15t18 18.5t-1 28.5t-19 46q-18 35 -44 76t-56.5 80t-62.5 72.5t-61 52.5q-39 25 -72.5 36t-56 6t-31 -30t4.5 -72q12 -33 24.5 -56.5t30.5 -44 t42 -39.5t58 -44q41 -29 70 -52.5t43 -39.5q35 -45 56.5 -48t19.5 -5zM819 672l-311 -19l199 412q8 -33 22 -86t29.5 -109.5t32 -110.5t28.5 -87z" />
<glyph unicode="&#xc1;" horiz-adv-x="1222" d="M1212 160q-29 92 -80 229t-106 287.5t-105.5 295t-74.5 253.5q-6 55 -30.5 94t-57.5 48t-71 -18.5t-71 -107.5l-555 -1069q-8 -16 -21 -48t-16.5 -65.5t15 -59.5t76.5 -30q41 -4 72.5 46.5t66.5 125.5l162 326l56 4t133 9t153 9.5t114 4.5q29 -66 45.5 -104t26.5 -63.5 t17.5 -45t17.5 -50.5q12 -33 30.5 -77.5t37 -85.5t35 -70t22.5 -29q43 -4 69.5 10.5t39 41t11 62.5t-11.5 77zM633 1432h12t14.5 5t19.5 15t30 33q14 16 42.5 39.5t69.5 52.5q33 25 57.5 44t43 39.5t31 44.5t24.5 56q12 47 4 72t-30.5 30t-56.5 -6.5t-73 -35.5 q-29 -18 -60.5 -52t-62 -73t-56.5 -80t-44 -76q-14 -29 -19.5 -46t-1 -28.5t18.5 -18.5t37 -15zM819 672l-311 -19l199 412q8 -33 22 -86t29.5 -109.5t32 -110.5t28.5 -87z" />
<glyph unicode="&#xc2;" horiz-adv-x="1222" d="M1212 160q-29 92 -80 229t-106 287.5t-105.5 295t-74.5 253.5q-6 55 -30.5 94t-57.5 48t-71 -18.5t-71 -107.5l-555 -1069q-8 -16 -21 -48t-16.5 -65.5t15 -59.5t76.5 -30q41 -4 72.5 46.5t66.5 125.5l162 326l56 4t133 9t153 9.5t114 4.5q29 -66 45.5 -104t26.5 -63.5 t17.5 -45t17.5 -50.5q12 -33 30.5 -77.5t37 -85.5t35 -70t22.5 -29q43 -4 69.5 10.5t39 41t11 62.5t-11.5 77zM1036 1513q2 27 -18 62l-178 252q-10 29 -33 50t-51 21q-33 0 -45.5 -13t-22.5 -32l-260 -264q-20 -18 -34.5 -33.5t-18.5 -42.5v-16q0 -14 13 -25.5t52 -21.5 q23 -4 44.5 5t56.5 54l198 201l135 -194q25 -49 58 -59.5t41 -6.5q37 14 49 27t14 36zM819 672l-311 -19l199 412q8 -33 22 -86t29.5 -109.5t32 -110.5t28.5 -87z" />
<glyph unicode="&#xc3;" horiz-adv-x="1222" d="M1212 160q-29 92 -80 229t-106 287.5t-105.5 295t-74.5 253.5q-6 55 -30.5 94t-57.5 48t-71 -18.5t-71 -107.5l-555 -1069q-8 -16 -21 -48t-16.5 -65.5t15 -59.5t76.5 -30q41 -4 72.5 46.5t66.5 125.5l162 326l56 4t133 9t153 9.5t114 4.5q29 -66 45.5 -104t26.5 -63.5 t17.5 -45t17.5 -50.5q12 -33 30.5 -77.5t37 -85.5t35 -70t22.5 -29q43 -4 69.5 10.5t39 41t11 62.5t-11.5 77zM1028 1657q2 14 -13.5 28.5t-36 18.5t-42 -4t-33.5 -35q-4 -10 -6 -25.5t-7 -30t-16.5 -25.5t-29.5 -11q-27 0 -42.5 18.5t-31.5 42t-38.5 42t-61.5 18.5 q-31 0 -70 -14.5t-72.5 -37t-58.5 -51t-27 -59.5q-4 -25 15.5 -43.5t52.5 -18.5q18 0 34.5 15.5t34 33t34 33t34.5 15.5q16 0 29.5 -16.5t32 -37t45 -37t69.5 -16.5q90 0 142.5 40t62.5 157zM819 672l-311 -19l199 412q8 -33 22 -86t29.5 -109.5t32 -110.5t28.5 -87z" />
<glyph unicode="&#xc4;" horiz-adv-x="1222" d="M1212 160q-29 92 -80 229t-106 287.5t-105.5 295t-74.5 253.5q-6 55 -30.5 94t-57.5 48t-71 -18.5t-71 -107.5l-555 -1069q-8 -16 -21 -48t-16.5 -65.5t15 -59.5t76.5 -30q41 -4 72.5 46.5t66.5 125.5l162 326l56 4t133 9t153 9.5t114 4.5q29 -66 45.5 -104t26.5 -63.5 t17.5 -45t17.5 -50.5q12 -33 30.5 -77.5t37 -85.5t35 -70t22.5 -29q43 -4 69.5 10.5t39 41t11 62.5t-11.5 77zM819 672l-311 -19l199 412q8 -33 22 -86t29.5 -109.5t32 -110.5t28.5 -87zM672 1591q2 18 1 43t-10.5 45.5t-28 35t-52.5 14.5q-35 0 -66 -13.5t-53.5 -34 t-35.5 -46t-15 -48t7 -47t25.5 -45t39 -34t48.5 -13.5q35 0 59.5 14.5t42 36t27 45.5t11.5 47zM1059 1602q2 18 1 41.5t-9.5 44t-27.5 35t-54 14.5t-65 -13.5t-52.5 -34t-35.5 -46t-15 -48t6 -47t25.5 -45t40 -34t47.5 -13.5q35 0 60.5 14.5t42.5 36t25.5 47t10.5 48.5z" />
<glyph unicode="&#xc5;" horiz-adv-x="1222" d="M1212 160q-29 92 -80 229t-106 287.5t-105.5 295t-74.5 253.5q-6 55 -30.5 94t-57.5 48t-71 -18.5t-71 -107.5l-555 -1069q-8 -16 -21 -48t-16.5 -65.5t15 -59.5t76.5 -30q41 -4 72.5 46.5t66.5 125.5l162 326l56 4t133 9t153 9.5t114 4.5q29 -66 45.5 -104t26.5 -63.5 t17.5 -45t17.5 -50.5q12 -33 30.5 -77.5t37 -85.5t35 -70t22.5 -29q43 -4 69.5 10.5t39 41t11 62.5t-11.5 77zM993 1686q8 68 -25.5 123t-111.5 55q-66 0 -117 -27t-88 -69t-57.5 -91t-22.5 -94q-4 -61 28 -110.5t118 -49.5q51 0 100 21.5t87 57.5t61.5 83.5t27.5 100.5z M819 672l-311 -19l199 412q8 -33 22 -86t29.5 -109.5t32 -110.5t28.5 -87zM883 1671q-4 -47 -39 -85t-84 -38q-25 0 -33 17.5t-8 38.5q2 20 10 42.5t23.5 41t38 31t51.5 12.5t36 -18.5t5 -41.5z" />
<glyph unicode="&#xc6;" horiz-adv-x="2013" d="M2003 102q4 59 -32 79t-113 16l-596 -52l34 414l461 51q10 2 22.5 3t26.5 1q41 0 76 17.5t41 77.5q2 16 -3 34.5t-23.5 31.5t-53.5 19.5t-92 0.5l-438 -56q8 100 15 162t11 98.5t7.5 55t7.5 32.5l499 33q51 2 88 3t62 9.5t38 28t17 58.5q4 41 -14.5 60t-50 25.5 t-72.5 3.5t-80 -5q-90 -6 -160.5 -10.5t-124 -7.5t-93.5 -4t-70 -1h-140q-35 0 -75.5 -15.5t-57.5 -35.5l-1030 -1116q-14 -16 -43 -48t-47 -66t-12 -59.5t61 -29.5q39 -4 93.5 46t125.5 126l318 326l64 9q63 9 149 21.5t171 22.5t126 10l-21 -262q-6 -57 -12 -104.5t4 -80 t44 -49t106 -10.5l641 47q45 0 73.5 8.5t45 21.5t21.5 28.5t5 31.5zM1120 1024q-4 -23 -2 -56.5t4 -74.5q-4 -57 -4 -117q0 -59 -12 -127l-342 -55z" />
<glyph unicode="&#xc7;" horiz-adv-x="1175" d="M582 -182q14 51 20 76.5t9 36t4 12.5t1 6q78 14 152 49t137.5 80t113.5 97t81 104q35 51 19.5 81.5t-56.5 35.5t-92 -16.5t-86 -72.5q-16 -29 -53 -62.5t-83.5 -61t-97.5 -46t-96 -18.5q-76 0 -125 33.5t-75.5 89t-35 127t-2.5 145.5q10 125 51.5 249t108 220 t153.5 156.5t187 60.5q63 0 98 -9t52 -26q53 -49 84.5 -80.5t40.5 -31.5q37 0 65.5 20.5t41.5 51t6 66.5t-40 66q-78 72 -166 98.5t-188 26.5q-133 0 -252 -72.5t-213 -194.5t-154.5 -278.5t-74.5 -322.5q-10 -104 6 -198.5t55 -169t99.5 -127t142.5 -70.5l-19 -129l-7 -24 q-7 -23 -7 -54q0 -29 11.5 -55.5t45.5 -32.5q20 -4 43 7t41.5 33.5t33 54.5t20.5 69z" />
<glyph unicode="&#xc8;" horiz-adv-x="1087" d="M1081 113q4 59 -31.5 78.5t-113.5 15.5l-596 -51l35 413l461 52q10 2 22 3t27 1q41 0 75.5 17t40.5 77q2 16 -3 34.5t-23.5 32t-53 19.5t-92.5 0l-438 -55l31 348l510 32q51 2 88 3.5t61.5 9.5t38 27.5t17.5 58.5q4 41 -14.5 60.5t-50.5 25.5t-73 3t-79 -5 q-90 -6 -161 -10.5t-124 -7.5t-93 -4t-71 -1h-139q-37 0 -61.5 -14t-38 -35.5t-18.5 -45.5t-1 -42q-4 -68 -10 -218.5t-23 -367.5l-26 -348q-6 -57 -12.5 -104t4 -80t44 -49.5t105.5 -10.5l641 48q45 0 73.5 8t45 21.5t21.5 29t5 31.5zM797 1432q23 8 37 15t18 18.5t-1 28.5 t-20 46q-18 35 -43.5 76t-56.5 80t-62.5 72.5t-60.5 52.5q-39 25 -72.5 36t-56 6t-31 -30t4.5 -72q12 -33 24 -56.5t30.5 -44t42 -39.5t58.5 -44q41 -29 70 -52.5t43 -39.5q35 -45 56.5 -48t19.5 -5z" />
<glyph unicode="&#xc9;" horiz-adv-x="1087" d="M1081 113q4 59 -31.5 78.5t-113.5 15.5l-596 -51l35 413l461 52q10 2 22 3t27 1q41 0 75.5 17t40.5 77q2 16 -3 34.5t-23.5 32t-53 19.5t-92.5 0l-438 -55l31 348l510 32q51 2 88 3.5t61.5 9.5t38 27.5t17.5 58.5q4 41 -14.5 60.5t-50.5 25.5t-73 3t-79 -5 q-90 -6 -161 -10.5t-124 -7.5t-93 -4t-71 -1h-139q-37 0 -61.5 -14t-38 -35.5t-18.5 -45.5t-1 -42q-4 -68 -10 -218.5t-23 -367.5l-26 -348q-6 -57 -12.5 -104t4 -80t44 -49.5t105.5 -10.5l641 48q45 0 73.5 8t45 21.5t21.5 29t5 31.5zM614 1432h13q6 0 14 5t19.5 15 t29.5 33q14 16 43 39.5t70 52.5q33 25 57.5 44t43 39.5t30.5 44.5t24 56q12 47 4 72t-30.5 30t-56 -6.5t-72.5 -35.5q-29 -18 -60.5 -52t-62.5 -73t-56.5 -80t-43.5 -76q-14 -29 -19.5 -46t-1.5 -28.5t18 -18.5t37 -15z" />
<glyph unicode="&#xca;" horiz-adv-x="1087" d="M1081 113q4 59 -31.5 78.5t-113.5 15.5l-596 -51l35 413l461 52q10 2 22 3t27 1q41 0 75.5 17t40.5 77q2 16 -3 34.5t-23.5 32t-53 19.5t-92.5 0l-438 -55l31 348l510 32q51 2 88 3.5t61.5 9.5t38 27.5t17.5 58.5q4 41 -14.5 60.5t-50.5 25.5t-73 3t-79 -5 q-90 -6 -161 -10.5t-124 -7.5t-93 -4t-71 -1h-139q-37 0 -61.5 -14t-38 -35.5t-18.5 -45.5t-1 -42q-4 -68 -10 -218.5t-23 -367.5l-26 -348q-6 -57 -12.5 -104t4 -80t44 -49.5t105.5 -10.5l641 48q45 0 73.5 8t45 21.5t21.5 29t5 31.5zM1030 1513q2 27 -18 62l-178 252 q-10 29 -33 50t-51 21q-33 0 -45.5 -13t-22.5 -32l-260 -264q-20 -18 -34.5 -33.5t-18.5 -42.5v-16q0 -14 13 -25.5t52 -21.5q23 -4 44.5 5t56.5 54l198 201l135 -194q25 -49 57.5 -59.5t41.5 -6.5q37 14 49 27t14 36z" />
<glyph unicode="&#xcb;" horiz-adv-x="1087" d="M1081 113q4 59 -31.5 78.5t-113.5 15.5l-596 -51l35 413l461 52q10 2 22 3t27 1q41 0 75.5 17t40.5 77q2 16 -3 34.5t-23.5 32t-53 19.5t-92.5 0l-438 -55l31 348l510 32q51 2 88 3.5t61.5 9.5t38 27.5t17.5 58.5q4 41 -14.5 60.5t-50.5 25.5t-73 3t-79 -5 q-90 -6 -161 -10.5t-124 -7.5t-93 -4t-71 -1h-139q-37 0 -61.5 -14t-38 -35.5t-18.5 -45.5t-1 -42q-4 -68 -10 -218.5t-23 -367.5l-26 -348q-6 -57 -12.5 -104t4 -80t44 -49.5t105.5 -10.5l641 48q45 0 73.5 8t45 21.5t21.5 29t5 31.5zM668 1591q2 18 1 43t-10.5 45.5 t-28 35t-52.5 14.5q-35 0 -66 -13.5t-53.5 -34t-35.5 -46t-15 -48t7 -47t25.5 -45t39 -34t48.5 -13.5q35 0 59.5 14.5t42 36t27 45.5t11.5 47zM1055 1602q2 18 1 41.5t-9.5 44t-28 35t-53.5 14.5q-35 0 -65 -13.5t-52.5 -34t-35.5 -46t-15 -48t6 -47t25.5 -45t40 -34 t46.5 -13.5q35 0 60.5 14.5t43 36t26 47t10.5 48.5z" />
<glyph unicode="&#xcc;" d="M336 115l92 1050q4 27 9 56.5t2 55.5t-18 43t-50 17q-45 0 -72 -9t-41 -27.5t-18 -47t-4 -65.5l-95 -1069q-12 -55 3.5 -98.5t80.5 -51.5q35 -4 54.5 6.5t29.5 30t15.5 48t11.5 61.5zM492 1432q23 8 37 15t18 18.5t-1 28.5t-20 46q-18 35 -43.5 76t-56.5 80t-62.5 72.5 t-60.5 52.5q-39 25 -72.5 36t-56 6t-31 -30t3.5 -72q12 -33 24.5 -56.5t31 -44t42 -39.5t58.5 -44q41 -29 69.5 -52.5t43.5 -39.5q35 -45 56.5 -48t19.5 -5z" />
<glyph unicode="&#xcd;" d="M336 115l92 1050q4 27 9 56.5t2 55.5t-18 43t-50 17q-45 0 -72 -9t-41 -27.5t-18 -47t-4 -65.5l-95 -1069q-12 -55 3.5 -98.5t80.5 -51.5q35 -4 54.5 6.5t29.5 30t15.5 48t11.5 61.5zM231 1432h13q6 0 14 5t19.5 15t29.5 33q14 16 43 39.5t70 52.5q33 25 57.5 44t43 39.5 t30.5 44.5t24 56q12 47 4 72t-30.5 30t-56 -6.5t-72.5 -35.5q-29 -18 -60.5 -52t-62.5 -73t-56.5 -80t-43.5 -76q-14 -29 -19.5 -46t-1.5 -28.5t18 -18.5t37 -15z" />
<glyph unicode="&#xce;" d="M336 115l92 1050q4 27 9 56.5t2 55.5t-18 43t-50 17q-45 0 -72 -9t-41 -27.5t-18 -47t-4 -65.5l-95 -1069q-12 -55 3.5 -98.5t80.5 -51.5q35 -4 54.5 6.5t29.5 30t15.5 48t11.5 61.5zM682 1513q2 27 -18 62l-179 252q-10 29 -32.5 50t-51.5 21q-33 0 -45 -13t-22 -32 l-260 -264q-20 -18 -34.5 -33.5t-19.5 -42.5v-16q0 -14 13.5 -25.5t52.5 -21.5q23 -4 44.5 5t55.5 54l199 201l135 -194q25 -49 57.5 -59.5t40.5 -6.5q37 14 49.5 27t14.5 36z" />
<glyph unicode="&#xcf;" d="M336 115l92 1050q4 27 9 56.5t2 55.5t-18 43t-50 17q-45 0 -72 -9t-41 -27.5t-18 -47t-4 -65.5l-95 -1069q-12 -55 3.5 -98.5t80.5 -51.5q35 -4 54.5 6.5t29.5 30t15.5 48t11.5 61.5zM299 1581q2 18 1 43t-10 45.5t-27.5 34.5t-53.5 14t-65.5 -13t-53 -33.5t-36 -46.5 t-15.5 -48.5t7 -47t25.5 -45t39 -33.5t49.5 -13q35 0 59.5 14t42 35.5t26.5 46t11 47.5zM686 1591q2 18 1 42t-9 44.5t-27.5 34.5t-54.5 14t-64.5 -13t-52 -33.5t-36 -46t-15.5 -48t6 -47.5t25.5 -45t40 -33.5t47.5 -13.5q35 0 60.5 14.5t43 36t25.5 46.5t10 48z" />
<glyph unicode="&#xd0;" horiz-adv-x="1241" d="M1251 889q8 92 -13 180t-74.5 155.5t-138.5 109.5t-204 42q-86 0 -152.5 -9t-121.5 -23.5t-103.5 -32t-99.5 -33.5q-70 -23 -97.5 -81t-17.5 -116l-26 -295q-35 2 -56 2q-20 0 -32.5 -2t-18.5 -3t-14 -1q-53 0 -77.5 -28.5t-22.5 -64.5t28.5 -64.5t77.5 -28.5h98 l-32 -377q-2 -43 -6.5 -88t1 -81t22.5 -58.5t56 -22.5q55 0 149.5 20.5t203 66.5t222 118t209 174.5t161 236.5t79.5 304zM551 600q47 0 73.5 28.5t25.5 64.5t-31.5 64.5t-96.5 28.5h-127l27 312q63 35 157.5 67.5t204.5 32.5q76 0 129.5 -26.5t85 -70.5t44 -99.5 t8.5 -112.5q-14 -166 -91 -291t-183.5 -211t-223.5 -137t-211 -72l37 420z" />
<glyph unicode="&#xd1;" horiz-adv-x="1337" d="M1210 100l97 1119q4 80 -11.5 110.5t-81.5 30.5q-35 0 -53 -12.5t-28.5 -32t-13.5 -42t-5 -42.5l-74 -893q-6 8 -22.5 29.5t-33.5 45t-32.5 44t-21.5 30.5q-49 66 -89 125.5t-82 125t-91.5 145.5t-118.5 188q-10 16 -15.5 22.5t-11.5 16.5t-17 30.5t-32 65.5 q-10 18 -24.5 41t-31 43.5t-37 33.5t-40.5 13q-25 0 -42 -5t-30.5 -21.5t-22.5 -45t-16 -75.5l-94 -1079q-27 -152 107 -144q53 4 75.5 47t10.5 88l71 818q37 -53 80 -114t86 -120t81 -116.5t63 -102.5q23 -41 59.5 -99.5t78.5 -120t82 -118.5t66 -94q6 -8 12.5 -19.5 t18.5 -20.5t34.5 -15.5t59.5 -6.5q25 0 40.5 13.5t26.5 33t16 41t7 39.5zM1044 1649q2 14 -13 28.5t-35.5 18.5t-42 -4.5t-33.5 -34.5q-4 -10 -6.5 -25.5t-7.5 -30t-16 -25.5t-30 -11q-27 0 -42 18.5t-31.5 42t-39 42t-61.5 18.5q-31 0 -69.5 -14.5t-72.5 -37t-58.5 -51.5 t-26.5 -59q-4 -25 15.5 -43.5t51.5 -18.5q18 0 35 15.5t34 33t33.5 33t35.5 15.5q16 0 29.5 -16.5t31.5 -37t45 -37t70 -16.5q90 0 142 40t62 157z" />
<glyph unicode="&#xd2;" horiz-adv-x="1304" d="M1300 737q10 121 -2 237t-59 207t-134 146t-226 55q-102 0 -196.5 -41t-177.5 -109.5t-151.5 -155.5t-119 -181t-81 -187.5t-36.5 -170.5q-12 -139 11.5 -251t78.5 -190t140 -118.5t198 -40.5q139 0 269 63t233.5 172t171 254t81.5 311zM1110 737q-10 -125 -58 -237.5 t-122 -197.5t-169 -135t-200 -50q-74 0 -126 30.5t-82.5 86t-41 132t-2.5 171.5q6 59 29.5 132.5t61.5 147.5t89.5 143.5t110.5 123t126 86t136 32.5q88 0 140.5 -42t79 -108.5t31.5 -149.5t-3 -165zM934 1432q23 8 37 15t18 18.5t-1 28.5t-19 46q-18 35 -44 76t-56.5 80 t-62.5 72.5t-61 52.5q-39 25 -72.5 36t-56 6t-30.5 -30t4 -72q12 -33 24.5 -56.5t31 -44t42 -39.5t57.5 -44q41 -29 70 -52.5t43 -39.5q35 -45 56.5 -48t19.5 -5z" />
<glyph unicode="&#xd3;" horiz-adv-x="1304" d="M1300 737q10 121 -2 237t-59 207t-134 146t-226 55q-102 0 -196.5 -41t-177.5 -109.5t-151.5 -155.5t-119 -181t-81 -187.5t-36.5 -170.5q-12 -139 11.5 -251t78.5 -190t140 -118.5t198 -40.5q139 0 269 63t233.5 172t171 254t81.5 311zM1110 737q-10 -125 -58 -237.5 t-122 -197.5t-169 -135t-200 -50q-74 0 -126 30.5t-82.5 86t-41 132t-2.5 171.5q6 59 29.5 132.5t61.5 147.5t89.5 143.5t110.5 123t126 86t136 32.5q88 0 140.5 -42t79 -108.5t31.5 -149.5t-3 -165zM803 1432h12t14.5 5t19.5 15t30 33q14 16 42.5 39.5t69.5 52.5 q33 25 57.5 44t43 39.5t31 44.5t24.5 56q12 47 4 72t-30.5 30t-56.5 -6.5t-73 -35.5q-29 -18 -60.5 -52t-62 -73t-56.5 -80t-44 -76q-14 -29 -19.5 -46t-1 -28.5t18.5 -18.5t37 -15z" />
<glyph unicode="&#xd4;" horiz-adv-x="1304" d="M1300 737q10 121 -2 237t-59 207t-134 146t-226 55q-102 0 -196.5 -41t-177.5 -109.5t-151.5 -155.5t-119 -181t-81 -187.5t-36.5 -170.5q-12 -139 11.5 -251t78.5 -190t140 -118.5t198 -40.5q139 0 269 63t233.5 172t171 254t81.5 311zM1110 737q-10 -125 -58 -237.5 t-122 -197.5t-169 -135t-200 -50q-74 0 -126 30.5t-82.5 86t-41 132t-2.5 171.5q6 59 29.5 132.5t61.5 147.5t89.5 143.5t110.5 123t126 86t136 32.5q88 0 140.5 -42t79 -108.5t31.5 -149.5t-3 -165zM1190 1513q2 27 -19 62l-178 252q-10 29 -32.5 50t-51.5 21 q-33 0 -45 -13t-22 -32l-260 -264q-20 -18 -35 -33.5t-19 -42.5v-16q0 -14 13.5 -25.5t52.5 -21.5q23 -4 44 5t56 54l199 201l135 -194q25 -49 57.5 -59.5t40.5 -6.5q37 14 49.5 27t14.5 36z" />
<glyph unicode="&#xd5;" horiz-adv-x="1304" d="M1300 737q10 121 -2 237t-59 207t-134 146t-226 55q-102 0 -196.5 -41t-177.5 -109.5t-151.5 -155.5t-119 -181t-81 -187.5t-36.5 -170.5q-12 -139 11.5 -251t78.5 -190t140 -118.5t198 -40.5q139 0 269 63t233.5 172t171 254t81.5 311zM1110 737q-10 -125 -58 -237.5 t-122 -197.5t-169 -135t-200 -50q-74 0 -126 30.5t-82.5 86t-41 132t-2.5 171.5q6 59 29.5 132.5t61.5 147.5t89.5 143.5t110.5 123t126 86t136 32.5q88 0 140.5 -42t79 -108.5t31.5 -149.5t-3 -165zM1155 1657q2 14 -13.5 28.5t-36 18.5t-42 -4t-33.5 -35q-4 -10 -6 -25.5 t-7 -30t-16.5 -25.5t-29.5 -11q-27 0 -42.5 18.5t-31.5 42t-38.5 42t-61.5 18.5q-31 0 -70 -14.5t-72.5 -37t-58.5 -51t-27 -59.5q-4 -25 15.5 -43.5t52.5 -18.5q18 0 34.5 15.5t34 33t34 33t34.5 15.5q16 0 29.5 -16.5t32 -37t45 -37t69.5 -16.5q90 0 142.5 40t62.5 157z " />
<glyph unicode="&#xd6;" horiz-adv-x="1304" d="M1300 737q10 121 -2 237t-59 207t-134 146t-226 55q-102 0 -196.5 -41t-177.5 -109.5t-151.5 -155.5t-119 -181t-81 -187.5t-36.5 -170.5q-12 -139 11.5 -251t78.5 -190t140 -118.5t198 -40.5q139 0 269 63t233.5 172t171 254t81.5 311zM1110 737q-10 -125 -58 -237.5 t-122 -197.5t-169 -135t-200 -50q-74 0 -126 30.5t-82.5 86t-41 132t-2.5 171.5q6 59 29.5 132.5t61.5 147.5t89.5 143.5t110.5 123t126 86t136 32.5q88 0 140.5 -42t79 -108.5t31.5 -149.5t-3 -165zM760 1591q2 18 1 43t-10.5 45.5t-27.5 35t-53 14.5t-66 -13.5t-53.5 -34 t-35.5 -46t-15 -48t7 -47t25.5 -45t39 -34t49.5 -13.5q35 0 59.5 14.5t41.5 36t26.5 45.5t11.5 47zM1147 1602q2 18 1 41.5t-9.5 44t-27.5 35t-54 14.5t-64.5 -13.5t-52 -34t-36 -46t-15.5 -48t6 -47t25.5 -45t40 -34t47.5 -13.5q35 0 60.5 14.5t42.5 36t25.5 47t10.5 48.5z " />
<glyph unicode="&#xd7;" horiz-adv-x="952" d="M825 324l-161 163l157 134q27 10 41 24q20 25 29 25q43 39 42 76.5t-26.5 62.5t-67.5 29t-79 -29q-16 -16 -42 -29.5t-30 -25.5l-160 -133l-145 147q-2 8 -11.5 16.5t-20.5 17.5t-21.5 16t-14.5 11q-41 41 -84 43t-70.5 -19.5t-30.5 -59t34 -74.5q14 -14 33.5 -42 t44.5 -38l141 -141l-168 -140q-20 -4 -41.5 -28.5t-36.5 -34.5q-49 -39 -49 -76t27 -61q27 -27 66.5 -33t72.5 20q6 6 23.5 20.5t37 30t37 31t25.5 23.5l139 115l158 -160q10 -23 35.5 -39t33.5 -25q37 -37 81 -40t75 16.5t38 55.5t-32 75z" />
<glyph unicode="&#xd8;" horiz-adv-x="1304" d="M1128 1350q10 27 19.5 58.5t8.5 60t-15.5 48t-50.5 19.5q-39 0 -64 -9t-40 -22.5t-24.5 -30t-15.5 -30.5t-11 -29.5t-13 -34.5q-10 0 -21.5 1t-21.5 1q-102 0 -196.5 -41t-177.5 -109.5t-151.5 -155.5t-119 -181t-81 -187.5t-36.5 -170.5q-18 -207 40 -349.5t181 -203.5 q-20 -49 -29.5 -86t-4.5 -61.5t26.5 -37t62.5 -12.5q27 0 47.5 16.5t36 40t26.5 49t19 44.5h23q139 0 269 63t233.5 172t171 254t81.5 311q6 88 2 174t-24.5 162t-59 139.5t-100.5 104.5q4 10 5 18t5 17v-2zM309 537q6 59 28.5 130.5t60.5 144.5t87.5 141.5t106.5 121.5 t122.5 88t133.5 37q-47 -115 -104.5 -253t-116 -279.5t-114.5 -274.5t-99 -233q-66 49 -91.5 146.5t-13.5 230.5zM1110 737q-10 -119 -54 -226.5t-111.5 -191t-155 -137t-185.5 -63.5q43 96 101.5 222t119 261t117.5 269.5t102 246.5q53 -70 64.5 -173.5t1.5 -207.5z" />
<glyph unicode="&#xd9;" horiz-adv-x="1251" d="M1153 350l74 844q2 2 7 24.5t1 49t-22.5 48t-63.5 21.5q-39 0 -60.5 -12t-33 -32.5t-14.5 -48t-3 -56.5l-90 -846q-4 -37 -39 -77t-93 -72.5t-137 -53t-171 -20.5q-33 0 -63.5 7t-53 21.5t-35 36t-10.5 47.5l88 1004q0 12 -3 29.5t-12 34t-27.5 27.5t-49.5 11 q-33 0 -52.5 -10t-29.5 -26.5t-14 -36t-8 -39.5l-86 -994q-6 -63 12 -116.5t63 -93t120 -62t181 -22.5q129 0 241 35.5t195 94t133 132t56 151.5zM819 1432q23 8 37 15t18.5 18.5t-1 28.5t-19.5 46q-18 35 -44 76t-56.5 80t-62.5 72.5t-60 52.5q-39 25 -73 36t-56.5 6 t-30.5 -30t4 -72q12 -33 24.5 -56.5t31 -44t42 -39.5t58.5 -44q41 -29 69.5 -52.5t42.5 -39.5q35 -45 56.5 -48t19.5 -5z" />
<glyph unicode="&#xda;" horiz-adv-x="1251" d="M1153 350l74 844q2 2 7 24.5t1 49t-22.5 48t-63.5 21.5q-39 0 -60.5 -12t-33 -32.5t-14.5 -48t-3 -56.5l-90 -846q-4 -37 -39 -77t-93 -72.5t-137 -53t-171 -20.5q-33 0 -63.5 7t-53 21.5t-35 36t-10.5 47.5l88 1004q0 12 -3 29.5t-12 34t-27.5 27.5t-49.5 11 q-33 0 -52.5 -10t-29.5 -26.5t-14 -36t-8 -39.5l-86 -994q-6 -63 12 -116.5t63 -93t120 -62t181 -22.5q129 0 241 35.5t195 94t133 132t56 151.5zM727 1432h12t14.5 5t19.5 15t30 33q14 16 42.5 39.5t69.5 52.5q33 25 57.5 44t43 39.5t31 44.5t24.5 56q12 47 4 72t-30.5 30 t-56.5 -6.5t-73 -35.5q-29 -18 -60.5 -52t-62 -73t-56 -80t-44.5 -76q-14 -29 -19 -46t-1 -28.5t18 -18.5t37 -15z" />
<glyph unicode="&#xdb;" horiz-adv-x="1251" d="M1153 350l74 844q2 2 7 24.5t1 49t-22.5 48t-63.5 21.5q-39 0 -60.5 -12t-33 -32.5t-14.5 -48t-3 -56.5l-90 -846q-4 -37 -39 -77t-93 -72.5t-137 -53t-171 -20.5q-33 0 -63.5 7t-53 21.5t-35 36t-10.5 47.5l88 1004q0 12 -3 29.5t-12 34t-27.5 27.5t-49.5 11 q-33 0 -52.5 -10t-29.5 -26.5t-14 -36t-8 -39.5l-86 -994q-6 -63 12 -116.5t63 -93t120 -62t181 -22.5q129 0 241 35.5t195 94t133 132t56 151.5zM1128 1513q2 27 -18 62l-178 252q-10 29 -32.5 50t-51.5 21q-33 0 -45 -13t-23 -32l-260 -264q-20 -18 -34.5 -33.5 t-18.5 -42.5v-16q0 -14 13.5 -25.5t51.5 -21.5q23 -4 44.5 5t56.5 54l198 201l136 -194q25 -49 57.5 -59.5t40.5 -6.5q37 14 49 27t14 36z" />
<glyph unicode="&#xdc;" horiz-adv-x="1251" d="M1153 350l74 844q2 2 7 24.5t1 49t-22.5 48t-63.5 21.5q-39 0 -60.5 -12t-33 -32.5t-14.5 -48t-3 -56.5l-90 -846q-4 -37 -39 -77t-93 -72.5t-137 -53t-171 -20.5q-33 0 -63.5 7t-53 21.5t-35 36t-10.5 47.5l88 1004q0 12 -3 29.5t-12 34t-27.5 27.5t-49.5 11 q-33 0 -52.5 -10t-29.5 -26.5t-14 -36t-8 -39.5l-86 -994q-6 -63 12 -116.5t63 -93t120 -62t181 -22.5q129 0 241 35.5t195 94t133 132t56 151.5zM694 1591q2 18 1 43t-10 45.5t-27.5 35t-53.5 14.5t-65.5 -13.5t-53 -34t-36 -46t-15.5 -48t7.5 -47t25.5 -45t38.5 -34 t49.5 -13.5q35 0 59.5 14.5t42 36t26.5 45.5t11 47zM1081 1602q2 18 1 41.5t-9 44t-27.5 35t-54.5 14.5t-64.5 -13.5t-52 -34t-36 -46t-15.5 -48t6.5 -47t25.5 -45t40 -34t47 -13.5q35 0 60.5 14.5t43 36t25.5 47t10 48.5z" />
<glyph unicode="&#xdd;" horiz-adv-x="1251" d="M1294 1147q37 45 48.5 72.5t6 44t-20.5 28t-32 21.5q-23 12 -43 8t-40.5 -16.5t-42 -30t-48.5 -31.5l-422 -414l-323 371q-43 66 -78 110t-61 38q-29 -6 -56.5 -20.5t-41 -39t-6.5 -59.5t48 -82l393 -508l-43 -508q-6 -68 7.5 -115t66.5 -43q72 6 93.5 49.5t25.5 96.5 l45 520zM723 1419h12t14.5 5.5t19.5 15.5t30 33q14 16 42.5 39.5t69.5 52.5q33 25 57.5 44t43 39.5t31 44t24.5 56.5q12 47 4 71.5t-30.5 29.5t-56.5 -6t-73 -36q-29 -18 -60.5 -52t-62 -72.5t-56 -79.5t-44.5 -76q-14 -29 -19 -46.5t-1 -28.5t18 -18.5t37 -15.5z" />
<glyph unicode="&#xde;" horiz-adv-x="1073" d="M338 160l4 53q59 0 81.5 1t33.5 1q100 0 205.5 55.5t193.5 146.5t148.5 208.5t68.5 244.5q10 147 -51 232.5t-203 85.5q-98 0 -197.5 -22.5t-203.5 -88.5l10 88q4 27 9 56.5t2 55.5t-18 43t-50 17q-45 0 -72 -9t-41 -27.5t-18 -47t-4 -65.5l-95 -1069q-12 -55 3.5 -98.5 t80.5 -51.5q35 -4 54.5 13.5t31 45t16.5 63.5t11 69zM879 870q-6 -90 -50.5 -177t-109 -155.5t-141 -111.5t-146.5 -43q-33 0 -51.5 10t-15.5 39l10 139l24 281q12 18 48 42t87.5 44t116 33.5t131.5 13.5q53 0 77 -31t20 -84z" />
<glyph unicode="&#xdf;" horiz-adv-x="1241" d="M1229 375q0 51 -17.5 92t-46 69.5t-65.5 44t-76 15.5q-98 0 -163.5 31.5t-90.5 83t-3.5 114t97.5 121.5q37 29 56.5 46.5t30 30.5t15.5 27.5t15 36.5q33 88 5 153t-90 103.5t-144 51t-158 -1.5q-92 -18 -149.5 -62.5t-91.5 -107t-49 -139t-21 -158.5l-7 -72l-47 -20 q-20 -6 -38.5 -10.5t-32 -12.5t-22.5 -26.5t-13 -51.5q-4 -31 5 -47t25.5 -22.5t38 -4t44.5 8.5l28 -2l-43 -754q-16 -51 14.5 -89t79.5 -34q51 4 83 44t20 87l59 1086q0 14 5 46.5t19.5 67.5t42 66t70.5 43q39 10 76 16t65.5 0t47 -27.5t20.5 -66.5q-29 -37 -68.5 -77 t-73.5 -86t-54.5 -102.5t-10.5 -125.5q-16 -39 5.5 -98.5t71.5 -116t123 -95t157 -38.5q25 0 47 -26t4 -79q-16 -45 -25.5 -72.5t-21.5 -46t-29.5 -28.5t-48.5 -19q-35 -10 -81 17.5t-111 79.5q-18 12 -44 17t-50.5 -1t-44 -23.5t-25.5 -46.5q-8 -45 24.5 -87t87 -72.5 t118 -45t116.5 -6.5q61 10 120.5 38t105.5 77t77 120t37 167z" />
<glyph unicode="&#xe0;" horiz-adv-x="1081" d="M958 100l41 602q4 70 -13 115t-48 69.5t-69 34t-74 9.5q-123 0 -261.5 -30t-248.5 -103q-12 -6 -26.5 -12.5t-28 -15.5t-23.5 -24.5t-12 -42.5q-4 -47 23.5 -57t63 -3t69.5 22.5t44 21.5q49 12 92 26.5t83 28t80 21.5t85 8q8 0 21.5 -1t26 -5t20.5 -13.5t8 -27.5l-8 -113 q-154 -6 -284 -31.5t-227 -73.5t-158.5 -119t-78.5 -167q-6 -41 8.5 -90t44 -92t71.5 -71.5t89 -28.5q74 0 149 18t141.5 41.5t120.5 48.5t89 37q-2 -29 -5 -50.5t2 -36.5t23.5 -23.5t59.5 -8.5q61 0 85.5 33t22.5 102zM801 307q0 -4 -24.5 -22.5t-64.5 -45t-91.5 -55 t-105.5 -51t-107.5 -34t-96.5 -3.5l-14 6q-14 7 -30.5 20t-29 36.5t-10.5 60.5q4 47 57.5 87t134.5 73t179 55.5t195 34.5zM715 1022q23 8 37 15t18 18.5t-1 29t-19 45.5q-18 35 -44 76t-57 80t-62.5 73t-60.5 52q-39 25 -72.5 36t-56 6t-31 -29.5t4.5 -71.5 q12 -33 24.5 -56.5t30.5 -44t42 -40t58 -44.5q41 -29 70 -52t43 -40q35 -45 56.5 -48t19.5 -5z" />
<glyph unicode="&#xe1;" horiz-adv-x="1081" d="M958 100l41 602q4 70 -13 115t-48 69.5t-69 34t-74 9.5q-123 0 -261.5 -30t-248.5 -103q-12 -6 -26.5 -12.5t-28 -15.5t-23.5 -24.5t-12 -42.5q-4 -47 23.5 -57t63 -3t69.5 22.5t44 21.5q49 12 92 26.5t83 28t80 21.5t85 8q8 0 21.5 -1t26 -5t20.5 -13.5t8 -27.5l-8 -113 q-154 -6 -284 -31.5t-227 -73.5t-158.5 -119t-78.5 -167q-6 -41 8.5 -90t44 -92t71.5 -71.5t89 -28.5q74 0 149 18t141.5 41.5t120.5 48.5t89 37q-2 -29 -5 -50.5t2 -36.5t23.5 -23.5t59.5 -8.5q61 0 85.5 33t22.5 102zM801 307q0 -4 -24.5 -22.5t-64.5 -45t-91.5 -55 t-105.5 -51t-107.5 -34t-96.5 -3.5l-14 6q-14 7 -30.5 20t-29 36.5t-10.5 60.5q4 47 57.5 87t134.5 73t179 55.5t195 34.5zM502 1022h12t14.5 5t19.5 15.5t30 32.5q14 16 42.5 40t69.5 52q33 25 57.5 44.5t43 40t31 44t24.5 56.5q12 47 4 71.5t-30.5 29.5t-56.5 -6t-73 -36 q-29 -18 -60.5 -52t-62 -73t-56.5 -80t-44 -76q-14 -29 -19.5 -46t-1 -28.5t18.5 -18.5t37 -15z" />
<glyph unicode="&#xe2;" horiz-adv-x="1081" d="M958 100l41 602q4 70 -13 115t-48 69.5t-69 34t-74 9.5q-123 0 -261.5 -30t-248.5 -103q-12 -6 -26.5 -12.5t-28 -15.5t-23.5 -24.5t-12 -42.5q-4 -47 23.5 -57t63 -3t69.5 22.5t44 21.5q49 12 92 26.5t83 28t80 21.5t85 8q8 0 21.5 -1t26 -5t20.5 -13.5t8 -27.5l-8 -113 q-154 -6 -284 -31.5t-227 -73.5t-158.5 -119t-78.5 -167q-6 -41 8.5 -90t44 -92t71.5 -71.5t89 -28.5q74 0 149 18t141.5 41.5t120.5 48.5t89 37q-2 -29 -5 -50.5t2 -36.5t23.5 -23.5t59.5 -8.5q61 0 85.5 33t22.5 102zM801 307q0 -4 -24.5 -22.5t-64.5 -45t-91.5 -55 t-105.5 -51t-107.5 -34t-96.5 -3.5l-14 6q-14 7 -30.5 20t-29 36.5t-10.5 60.5q4 47 57.5 87t134.5 73t179 55.5t195 34.5zM961 1104q2 27 -19 61l-178 252q-10 29 -32.5 50.5t-51.5 21.5q-33 0 -45 -13.5t-23 -31.5l-260 -264q-20 -18 -34.5 -34t-18.5 -42v-17 q0 -14 13.5 -25t52.5 -22q23 -4 44 5.5t56 54.5l199 200l135 -194q25 -49 57.5 -59.5t40.5 -6.5q37 14 49.5 27.5t14.5 36.5z" />
<glyph unicode="&#xe3;" horiz-adv-x="1081" d="M958 100l41 602q4 70 -13 115t-48 69.5t-69 34t-74 9.5q-123 0 -261.5 -30t-248.5 -103q-12 -6 -26.5 -12.5t-28 -15.5t-23.5 -24.5t-12 -42.5q-4 -47 23.5 -57t63 -3t69.5 22.5t44 21.5q49 12 92 26.5t83 28t80 21.5t85 8q8 0 21.5 -1t26 -5t20.5 -13.5t8 -27.5l-8 -113 q-154 -6 -284 -31.5t-227 -73.5t-158.5 -119t-78.5 -167q-6 -41 8.5 -90t44 -92t71.5 -71.5t89 -28.5q74 0 149 18t141.5 41.5t120.5 48.5t89 37q-2 -29 -5 -50.5t2 -36.5t23.5 -23.5t59.5 -8.5q61 0 85.5 33t22.5 102zM801 307q0 -4 -24.5 -22.5t-64.5 -45t-91.5 -55 t-105.5 -51t-107.5 -34t-96.5 -3.5l-14 6q-14 7 -30.5 20t-29 36.5t-10.5 60.5q4 47 57.5 87t134.5 73t179 55.5t195 34.5zM918 1247q2 14 -13.5 28.5t-36 18.5t-42 -4t-33.5 -35q-4 -10 -6.5 -25.5t-7.5 -29.5t-16 -25.5t-30 -11.5q-27 0 -42 18.5t-31.5 42t-39 42 t-61.5 18.5q-31 0 -69.5 -14.5t-72.5 -37t-58.5 -51t-26.5 -59.5q-4 -25 15.5 -43t51.5 -18q18 0 35 15.5t34 32.5t33.5 32.5t35.5 15.5q16 0 29.5 -16.5t31.5 -37t45 -36.5t70 -16q90 0 142.5 39.5t62.5 156.5z" />
<glyph unicode="&#xe4;" horiz-adv-x="1081" d="M958 100l41 602q4 70 -13 115t-48 69.5t-69 34t-74 9.5q-123 0 -261.5 -30t-248.5 -103q-12 -6 -26.5 -12.5t-28 -15.5t-23.5 -24.5t-12 -42.5q-4 -47 23.5 -57t63 -3t69.5 22.5t44 21.5q49 12 92 26.5t83 28t80 21.5t85 8q8 0 21.5 -1t26 -5t20.5 -13.5t8 -27.5l-8 -113 q-154 -6 -284 -31.5t-227 -73.5t-158.5 -119t-78.5 -167q-6 -41 8.5 -90t44 -92t71.5 -71.5t89 -28.5q74 0 149 18t141.5 41.5t120.5 48.5t89 37q-2 -29 -5 -50.5t2 -36.5t23.5 -23.5t59.5 -8.5q61 0 85.5 33t22.5 102zM801 307q0 -4 -24.5 -22.5t-64.5 -45t-91.5 -55 t-105.5 -51t-107.5 -34t-96.5 -3.5l-14 6q-14 7 -30.5 20t-29 36.5t-10.5 60.5q4 47 57.5 87t134.5 73t179 55.5t195 34.5zM557 1182q2 18 1 42.5t-10 45t-27.5 35t-53.5 14.5t-65.5 -13.5t-53 -34t-36 -46t-15.5 -48t7 -47t25.5 -45t39 -34t49.5 -13.5q35 0 59.5 14.5 t42 36t26.5 46t11 47.5zM944 1192q2 18 1 41.5t-9 44t-27.5 35t-54.5 14.5t-64.5 -13.5t-52 -33.5t-36 -46t-15.5 -48.5t6 -47t25.5 -45t40 -33.5t47.5 -13q35 0 60.5 14t43 35.5t25.5 47t10 48.5z" />
<glyph unicode="&#xe5;" horiz-adv-x="1081" d="M958 100l41 602q4 70 -13 115t-48 69.5t-69 34t-74 9.5q-123 0 -261.5 -30t-248.5 -103q-12 -6 -26.5 -12.5t-28 -15.5t-23.5 -24.5t-12 -42.5q-4 -47 23.5 -57t63 -3t69.5 22.5t44 21.5q49 12 92 26.5t83 28t80 21.5t85 8q8 0 21.5 -1t26 -5t20.5 -13.5t8 -27.5l-8 -113 q-154 -6 -284 -31.5t-227 -73.5t-158.5 -119t-78.5 -167q-6 -41 8.5 -90t44 -92t71.5 -71.5t89 -28.5q74 0 149 18t141.5 41.5t120.5 48.5t89 37q-2 -29 -5 -50.5t2 -36.5t23.5 -23.5t59.5 -8.5q61 0 85.5 33t22.5 102zM858 1286q8 68 -25.5 123t-111.5 55q-66 0 -117 -26.5 t-88 -68.5t-57.5 -91t-22.5 -94q-4 -61 28 -110.5t118 -49.5q51 0 100 21.5t87 57.5t61.5 83t27.5 100zM801 307q0 -4 -24.5 -22.5t-64.5 -45t-91.5 -55t-105.5 -51t-107.5 -34t-96.5 -3.5l-14 6q-14 7 -30.5 20t-29 36.5t-10.5 60.5q4 47 57.5 87t134.5 73t179 55.5 t195 34.5zM748 1272q-4 -47 -39 -85t-84 -38q-25 0 -33 17.5t-8 37.5q2 20 10 43t23.5 41.5t38 30.5t51.5 12t36 -18t5 -41z" />
<glyph unicode="&#xe6;" horiz-adv-x="1648" d="M1649 662q4 59 -14.5 109t-55.5 86t-90 56.5t-117 20.5q-113 0 -207 -44t-170 -118q-6 49 -26.5 80t-49 48.5t-61.5 23.5t-63 6q-123 0 -261.5 -30t-248.5 -103q-12 -6 -26.5 -12.5t-28 -15.5t-23.5 -24.5t-12 -42.5q-4 -47 23.5 -57t63 -3t69.5 22.5t44 21.5 q49 12 92 26.5t83 28t80 21.5t85 8q8 0 21.5 -1t26 -5t20.5 -13.5t8 -27.5l-8 -113q-154 -6 -284 -31.5t-227 -73.5t-158.5 -119t-78.5 -167q-6 -41 8.5 -90t44 -92t71.5 -71.5t89 -28.5q74 0 149 18t141.5 41.5t120.5 48.5t89 37q29 -23 48.5 -38t36.5 -26.5t34.5 -17.5 t40.5 -10q55 -25 133 -25q104 0 207.5 33t186.5 77t136.5 91t55.5 76q4 47 -7.5 70.5t-46.5 23.5q-23 0 -37 -1t-26 -4t-25.5 -10.5t-36.5 -19.5q-39 -29 -82 -59.5t-89 -55t-94 -41t-97 -16.5q-14 0 -32.5 1t-37 9t-35 27.5t-24.5 56.5l-4 90q113 27 230.5 60t216 74.5 t162 94t67.5 120.5zM780 303q0 -4 -1 -8t-1 -8q-29 -23 -84 -58.5t-122.5 -68.5t-136 -53.5t-124.5 -10.5l-14 6q-14 7 -30.5 20t-29 36.5t-10.5 60.5q4 47 57.5 87t134.5 73t179 55.5t195 34.5q-4 -53 -6.5 -84t-4.5 -47t-2 -25v-10zM1456 690q-6 -18 -35.5 -43.5 t-71.5 -51.5t-92.5 -49.5t-98.5 -40t-90 -23.5t-67 1q20 68 59.5 122t88.5 92t101.5 59.5t97.5 21.5q59 0 85.5 -29.5t22.5 -58.5z" />
<glyph unicode="&#xe7;" horiz-adv-x="944" d="M479 -193l37 125v19q72 12 127 34.5t95 50t66.5 55.5t45.5 50l70 78q49 78 46 130t-85 52q-37 0 -59.5 -12t-36 -27.5t-20.5 -32t-11 -22.5q-14 -29 -46 -61.5t-78 -62t-103.5 -49t-118.5 -19.5q-35 0 -59.5 15t-40 40t-20.5 55.5t-3 61.5q6 88 39.5 170t85 145.5 t112 101t119.5 37.5q66 0 113 -12t63 -37q43 -25 85 -19.5t65.5 30t17.5 62.5t-61 81q-63 47 -125 59.5t-146 12.5q-104 0 -202.5 -52.5t-175 -140.5t-127 -201.5t-58.5 -236.5q-4 -59 7.5 -115.5t39 -102.5t71.5 -79t109 -45q-4 -16 -4 -29l-14 -106l-7 -24t-7 -54 q0 -29 11 -55.5t46 -32.5q20 -4 43 7t41 33.5t32.5 54t20.5 68.5z" />
<glyph unicode="&#xe8;" horiz-adv-x="960" d="M956 627q4 59 -14 109t-55 86t-90.5 56.5t-116.5 20.5q-127 0 -231.5 -55.5t-182.5 -145.5t-124 -202.5t-54 -227.5q-12 -174 63.5 -256t217.5 -82q104 0 207.5 33t186.5 77t136 91t55 76q4 47 -7 70.5t-46 23.5q-23 0 -37 -1t-26.5 -4t-25.5 -10t-36 -20 q-39 -29 -82 -59.5t-89 -55t-94 -41t-97 -16.5q-14 0 -33 1t-37 9.5t-34.5 28t-24.5 55.5q-8 39 -6 65l2 26q113 27 230.5 59.5t215.5 74.5t161.5 94t67.5 120zM715 1022q23 8 37 15t18 18.5t-1 29t-19 45.5q-18 35 -44 76t-57 80t-62.5 73t-60.5 52q-39 25 -72.5 36t-56 6 t-31 -29.5t4.5 -71.5q12 -33 24.5 -56.5t30.5 -44t42 -40t58 -44.5q41 -29 70 -52t43 -40q35 -45 56.5 -48t19.5 -5zM764 655q-6 -18 -36 -43.5t-72 -51t-92 -49.5t-98 -40t-90 -23.5t-67 1.5q20 68 59.5 122t88.5 91.5t101 59t97 21.5q59 0 86 -29.5t23 -58.5z" />
<glyph unicode="&#xe9;" horiz-adv-x="960" d="M956 627q4 59 -14 109t-55 86t-90.5 56.5t-116.5 20.5q-127 0 -231.5 -55.5t-182.5 -145.5t-124 -202.5t-54 -227.5q-12 -174 63.5 -256t217.5 -82q104 0 207.5 33t186.5 77t136 91t55 76q4 47 -7 70.5t-46 23.5q-23 0 -37 -1t-26.5 -4t-25.5 -10t-36 -20 q-39 -29 -82 -59.5t-89 -55t-94 -41t-97 -16.5q-14 0 -33 1t-37 9.5t-34.5 28t-24.5 55.5q-8 39 -6 65l2 26q113 27 230.5 59.5t215.5 74.5t161.5 94t67.5 120zM563 1022h12t14.5 5t20 15.5t29.5 32.5q14 16 43 40t70 52q33 25 57.5 44.5t42.5 40t30.5 44t24.5 56.5 q12 47 4 71.5t-30.5 29.5t-56 -6t-72.5 -36q-29 -18 -61 -52t-62.5 -73t-56 -80t-44.5 -76q-14 -29 -19 -46t-1 -28.5t18 -18.5t37 -15zM764 655q-6 -18 -36 -43.5t-72 -51t-92 -49.5t-98 -40t-90 -23.5t-67 1.5q20 68 59.5 122t88.5 91.5t101 59t97 21.5q59 0 86 -29.5 t23 -58.5z" />
<glyph unicode="&#xea;" horiz-adv-x="960" d="M956 627q4 59 -14 109t-55 86t-90.5 56.5t-116.5 20.5q-127 0 -231.5 -55.5t-182.5 -145.5t-124 -202.5t-54 -227.5q-12 -174 63.5 -256t217.5 -82q104 0 207.5 33t186.5 77t136 91t55 76q4 47 -7 70.5t-46 23.5q-23 0 -37 -1t-26.5 -4t-25.5 -10t-36 -20 q-39 -29 -82 -59.5t-89 -55t-94 -41t-97 -16.5q-14 0 -33 1t-37 9.5t-34.5 28t-24.5 55.5q-8 39 -6 65l2 26q113 27 230.5 59.5t215.5 74.5t161.5 94t67.5 120zM948 1104q2 27 -18 61l-178 252q-10 29 -33 50.5t-51 21.5q-33 0 -45.5 -13.5t-22.5 -31.5l-260 -264 q-20 -18 -34.5 -34t-18.5 -42v-17q0 -14 13 -25t52 -22q23 -4 44.5 5.5t56.5 54.5l198 200l135 -194q25 -49 58 -59.5t41 -6.5q37 14 49 27.5t14 36.5zM764 655q-6 -18 -36 -43.5t-72 -51t-92 -49.5t-98 -40t-90 -23.5t-67 1.5q20 68 59.5 122t88.5 91.5t101 59t97 21.5 q59 0 86 -29.5t23 -58.5z" />
<glyph unicode="&#xeb;" horiz-adv-x="960" d="M956 627q4 59 -14 109t-55 86t-90.5 56.5t-116.5 20.5q-127 0 -231.5 -55.5t-182.5 -145.5t-124 -202.5t-54 -227.5q-12 -174 63.5 -256t217.5 -82q104 0 207.5 33t186.5 77t136 91t55 76q4 47 -7 70.5t-46 23.5q-23 0 -37 -1t-26.5 -4t-25.5 -10t-36 -20 q-39 -29 -82 -59.5t-89 -55t-94 -41t-97 -16.5q-14 0 -33 1t-37 9.5t-34.5 28t-24.5 55.5q-8 39 -6 65l2 26q113 27 230.5 59.5t215.5 74.5t161.5 94t67.5 120zM764 655q-6 -18 -36 -43.5t-72 -51t-92 -49.5t-98 -40t-90 -23.5t-67 1.5q20 68 59.5 122t88.5 91.5t101 59 t97 21.5q59 0 86 -29.5t23 -58.5zM567 1182q2 18 1 42.5t-10 45t-27.5 35t-53.5 14.5t-65.5 -13.5t-53 -34t-36 -46t-15.5 -48t7.5 -47t25.5 -45t38.5 -34t49.5 -13.5q35 0 59.5 14.5t42 36t26.5 46t11 47.5zM954 1192q2 18 1 41.5t-9 44t-27.5 35t-54.5 14.5t-64.5 -13.5 t-52 -33.5t-36 -46t-15.5 -48.5t6.5 -47t25.5 -45t40 -33.5t47 -13q35 0 60.5 14t43 35.5t25.5 47t10 48.5z" />
<glyph unicode="&#xec;" d="M334 125l41 584q8 70 8 108q0 41 -8 62.5t-24.5 27.5t-43.5 6q-47 0 -72.5 -10t-38 -34.5t-15.5 -64.5t-7 -99l-35 -574q-2 -33 -4 -60.5t3 -49t22.5 -35t54.5 -17.5q39 -4 60.5 8.5t34 35t16.5 53t8 61.5v-2zM418 1022q23 8 37 15t18 18.5t-1 29t-19 45.5q-18 35 -44 76 t-56.5 80t-62.5 73t-61 52q-39 25 -72.5 36t-56 6t-31 -29.5t4.5 -71.5q12 -33 24.5 -56.5t30.5 -44t42 -40t58 -44.5q41 -29 70 -52t43 -40q35 -45 56.5 -48t19.5 -5z" />
<glyph unicode="&#xed;" d="M334 125l41 584q8 70 8 108q0 41 -8 62.5t-24.5 27.5t-43.5 6q-47 0 -72.5 -10t-38 -34.5t-15.5 -64.5t-7 -99l-35 -574q-2 -33 -4 -60.5t3 -49t22.5 -35t54.5 -17.5q39 -4 60.5 8.5t34 35t16.5 53t8 61.5v-2zM201 1022h12t14.5 5t19.5 15.5t29 32.5q14 16 43 40t70 52 q33 25 57.5 44.5t43 40t30.5 44t25 56.5q12 47 4 71.5t-30.5 29.5t-56.5 -6t-73 -36q-29 -18 -60.5 -52t-62 -73t-56.5 -80t-44 -76q-14 -29 -19.5 -46t-1 -28.5t18.5 -18.5t37 -15z" />
<glyph unicode="&#xee;" d="M334 125l41 584q8 70 8 108q0 41 -8 62.5t-24.5 27.5t-43.5 6q-47 0 -72.5 -10t-38 -34.5t-15.5 -64.5t-7 -99l-35 -574q-2 -33 -4 -60.5t3 -49t22.5 -35t54.5 -17.5q39 -4 60.5 8.5t34 35t16.5 53t8 61.5v-2zM621 1104q2 27 -19 61l-178 252q-10 29 -32.5 50.5 t-51.5 21.5q-33 0 -45 -13.5t-23 -31.5l-260 -264q-20 -18 -34.5 -34t-18.5 -42v-17q0 -14 13.5 -25t52.5 -22q23 -4 44 5.5t56 54.5l199 200l135 -194q25 -49 57.5 -59.5t40.5 -6.5q37 14 49.5 27.5t14.5 36.5z" />
<glyph unicode="&#xef;" d="M334 125l41 584q8 70 8 108q0 41 -8 62.5t-24.5 27.5t-43.5 6q-47 0 -72.5 -10t-38 -34.5t-15.5 -64.5t-7 -99l-35 -574q-2 -33 -4 -60.5t3 -49t22.5 -35t54.5 -17.5q39 -4 60.5 8.5t34 35t16.5 53t8 61.5v-2zM227 1182q2 18 1 42.5t-10 45t-27.5 35t-53.5 14.5 t-65.5 -13.5t-53 -34t-36 -46t-15.5 -48t7.5 -47t25.5 -45t38.5 -34t49.5 -13.5q35 0 59.5 14.5t42 36t26.5 46t11 47.5zM614 1192q2 18 1 41.5t-9 44t-27.5 35t-54.5 14.5t-64.5 -13.5t-52 -33.5t-36 -46t-15.5 -48.5t6.5 -47t26 -45t40 -33.5t46.5 -13q35 0 60.5 14 t43 35.5t25.5 47t10 48.5z" />
<glyph unicode="&#xf0;" horiz-adv-x="1085" d="M764 1022l2 8l6 4q27 -47 44.5 -96t21.5 -96l-35 28q-76 51 -129 72q-86 31 -168 28t-152.5 -36t-125 -91.5t-83.5 -135.5q-37 -96 -29.5 -201t49.5 -199t116.5 -169t173.5 -111q29 -10 97.5 -18.5t151 12t165.5 82t141 188.5q31 70 42 174t0.5 221t-41 236.5 t-81.5 222.5l53 37q39 27 44 65.5t-15.5 67t-61.5 36t-96 -29.5q-6 -4 -13 -8l-14 -8q-35 41 -75.5 71.5t-87.5 48.5q-41 16 -82 1t-58 -52q-2 -4 10.5 -19.5t32 -39t46 -55t55.5 -68.5q-10 -8 -16.5 -13t-10.5 -10q-45 -31 -49 -68.5t17.5 -66t60.5 -38t82 19.5q2 2 5 3 t7 3zM342 606q25 70 74 117h2q10 12 25.5 28.5t42 28t69.5 10t111 -25.5q51 -18 92 -55t62.5 -88.5t22.5 -115t-26 -134.5q-43 -117 -128 -157t-173 -7q-39 14 -79 40.5t-67.5 73t-36.5 116t9 169.5z" />
<glyph unicode="&#xf1;" horiz-adv-x="1028" d="M913 199l41 577q2 33 -12 60.5t-37.5 48t-53.5 31t-58 10.5q-35 0 -90.5 -14.5t-115 -33t-113.5 -37t-85 -26.5l-4 37q-6 18 -6 35q0 27 -10.5 38t-67.5 3q-59 -8 -87 -44t-28 -85l-16 -248q-2 -49 -5 -77t-6 -66.5t-8.5 -105t-11.5 -196.5q-2 -12 -3 -24t-1 -25 q0 -35 20.5 -61.5t61.5 -22.5q33 2 55.5 16.5t36 33t17.5 39t2 36.5l51 494q51 43 109.5 68.5t107.5 39t85 16.5t44 3q23 0 27 -20.5t4 -30.5l-41 -568q-4 -76 15.5 -99.5t72.5 -27.5t80.5 32t23.5 101zM901 1241q2 14 -13.5 28.5t-36 18.5t-42 -4t-33.5 -35 q-4 -10 -6 -25.5t-7 -29.5t-16.5 -25.5t-29.5 -11.5q-27 0 -42.5 18.5t-31.5 42t-38.5 42t-61.5 18.5q-31 0 -70 -14.5t-72.5 -37t-58.5 -51t-27 -59.5q-4 -25 15.5 -43t52.5 -18q18 0 34.5 15t34 32.5t34 33t34.5 15.5q16 0 29.5 -16.5t32 -37t45 -37t69.5 -16.5 q90 0 142.5 40t62.5 157z" />
<glyph unicode="&#xf2;" horiz-adv-x="1071" d="M1040 528q6 74 -9 145.5t-53 127t-100.5 89.5t-150.5 34q-145 0 -260 -59.5t-197 -151.5t-128 -204t-52 -214q-4 -66 10.5 -130.5t52 -114.5t101 -80.5t158.5 -30.5q119 0 228.5 47t195.5 128t141 187t63 227zM846 528q-6 -80 -42 -154.5t-93.5 -132t-131 -92 t-155.5 -34.5q-43 0 -71.5 16t-44 42t-20.5 58.5t-3 63.5q6 70 34.5 147.5t80 142t127 106.5t175.5 42q45 0 74 -17.5t45.5 -47t21.5 -66.5t3 -74zM715 1022q23 8 37 15t18 18.5t-1 29t-19 45.5q-18 35 -44 76t-57 80t-62.5 73t-60.5 52q-39 25 -72.5 36t-56 6t-31 -29.5 t4.5 -71.5q12 -33 24.5 -56.5t30.5 -44t42 -40t58 -44.5q41 -29 70 -52t43 -40q35 -45 56.5 -48t19.5 -5z" />
<glyph unicode="&#xf3;" horiz-adv-x="1071" d="M1040 528q6 74 -9 145.5t-53 127t-100.5 89.5t-150.5 34q-145 0 -260 -59.5t-197 -151.5t-128 -204t-52 -214q-4 -66 10.5 -130.5t52 -114.5t101 -80.5t158.5 -30.5q119 0 228.5 47t195.5 128t141 187t63 227zM846 528q-6 -80 -42 -154.5t-93.5 -132t-131 -92 t-155.5 -34.5q-43 0 -71.5 16t-44 42t-20.5 58.5t-3 63.5q6 70 34.5 147.5t80 142t127 106.5t175.5 42q45 0 74 -17.5t45.5 -47t21.5 -66.5t3 -74zM600 1022h12t14.5 5t19.5 15.5t30 32.5q14 16 43 40t69 52q33 25 57.5 44.5t43 40t31 44t24.5 56.5q12 47 4 71.5t-30.5 29.5 t-56.5 -6t-73 -36q-29 -18 -60.5 -52t-62 -73t-56 -80t-44.5 -76q-14 -29 -19 -46t-1 -28.5t18 -18.5t37 -15z" />
<glyph unicode="&#xf4;" horiz-adv-x="1071" d="M1040 528q6 74 -9 145.5t-53 127t-100.5 89.5t-150.5 34q-145 0 -260 -59.5t-197 -151.5t-128 -204t-52 -214q-4 -66 10.5 -130.5t52 -114.5t101 -80.5t158.5 -30.5q119 0 228.5 47t195.5 128t141 187t63 227zM846 528q-6 -80 -42 -154.5t-93.5 -132t-131 -92 t-155.5 -34.5q-43 0 -71.5 16t-44 42t-20.5 58.5t-3 63.5q6 70 34.5 147.5t80 142t127 106.5t175.5 42q45 0 74 -17.5t45.5 -47t21.5 -66.5t3 -74zM989 1104q2 27 -18 61l-178 252q-10 29 -33 50.5t-51 21.5q-33 0 -45.5 -13.5t-22.5 -31.5l-260 -264q-20 -18 -34.5 -34 t-18.5 -42v-17q0 -14 13 -25t52 -22q23 -4 44.5 5.5t56.5 54.5l198 200l135 -194q25 -49 58 -59.5t41 -6.5q37 14 49 27.5t14 36.5z" />
<glyph unicode="&#xf5;" horiz-adv-x="1071" d="M1040 528q6 74 -9 145.5t-53 127t-100.5 89.5t-150.5 34q-145 0 -260 -59.5t-197 -151.5t-128 -204t-52 -214q-4 -66 10.5 -130.5t52 -114.5t101 -80.5t158.5 -30.5q119 0 228.5 47t195.5 128t141 187t63 227zM846 528q-6 -80 -42 -154.5t-93.5 -132t-131 -92 t-155.5 -34.5q-43 0 -71.5 16t-44 42t-20.5 58.5t-3 63.5q6 70 34.5 147.5t80 142t127 106.5t175.5 42q45 0 74 -17.5t45.5 -47t21.5 -66.5t3 -74zM971 1247q2 14 -13.5 28.5t-36 18.5t-42 -4t-33.5 -35q-4 -10 -6 -25.5t-7.5 -29.5t-16.5 -25.5t-30 -11.5q-27 0 -42 18.5 t-31.5 42t-39 42t-61.5 18.5q-31 0 -69.5 -14.5t-72.5 -37t-58.5 -51t-26.5 -59.5q-4 -25 15.5 -43t52.5 -18q18 0 34.5 15.5t34 32.5t33.5 32.5t35 15.5q16 0 29.5 -16.5t32 -37t45 -36.5t69.5 -16q90 0 142.5 39.5t62.5 156.5z" />
<glyph unicode="&#xf6;" horiz-adv-x="1071" d="M1040 528q6 74 -9 145.5t-53 127t-100.5 89.5t-150.5 34q-145 0 -260 -59.5t-197 -151.5t-128 -204t-52 -214q-4 -66 10.5 -130.5t52 -114.5t101 -80.5t158.5 -30.5q119 0 228.5 47t195.5 128t141 187t63 227zM846 528q-6 -80 -42 -154.5t-93.5 -132t-131 -92 t-155.5 -34.5q-43 0 -71.5 16t-44 42t-20.5 58.5t-3 63.5q6 70 34.5 147.5t80 142t127 106.5t175.5 42q45 0 74 -17.5t45.5 -47t21.5 -66.5t3 -74zM618 1182q2 18 1 42.5t-10 45t-27.5 35t-53.5 14.5t-65.5 -13.5t-53 -34t-36 -46t-15.5 -48t7.5 -47t26 -45t39 -34 t48.5 -13.5q35 0 59.5 14.5t42 36t26.5 46t11 47.5zM1006 1192q2 18 1 41.5t-9.5 44t-28 35t-54.5 14.5t-64.5 -13.5t-52 -33.5t-35.5 -46t-15.5 -48.5t6 -47t26 -45t40 -33.5t46.5 -13q35 0 60.5 14t43 35.5t26 47t10.5 48.5z" />
<glyph unicode="&#xf7;" horiz-adv-x="790" d="M711 356q47 0 73.5 30t25.5 64.5t-31.5 64.5t-96.5 30q-25 0 -58.5 3t-56.5 -5h-282q-4 2 -25 2q-20 0 -46 -3t-36 -3q-53 0 -77.5 -30t-22.5 -64.5t28.5 -64.5t77.5 -30q20 0 54 -7t57 9l274 2zM539 104q2 23 1 50.5t-11.5 51t-33 40t-61.5 16.5q-41 0 -75.5 -15.5 t-61.5 -40t-42 -53t-17 -55t8 -55.5t29.5 -52.5t45 -38.5t56.5 -15q41 0 70.5 16t49 41.5t30 55t12.5 54.5zM627 815q2 23 1 50.5t-11.5 51t-33 40t-61.5 16.5q-41 0 -75.5 -15.5t-61.5 -40t-42 -53t-17 -55.5t8 -55.5t29.5 -52t45 -39t56.5 -15.5q41 0 70.5 16.5t49 42 t30 55t12.5 54.5z" />
<glyph unicode="&#xf8;" horiz-adv-x="1071" d="M913 963q10 27 19.5 58.5t8.5 60t-15.5 48t-51.5 19.5q-39 0 -63.5 -9.5t-39.5 -22.5t-24.5 -29.5t-15.5 -30.5q-10 -29 -23.5 -62.5t-29.5 -74.5q-133 -10 -239.5 -73t-182.5 -153t-118 -195.5t-48 -203.5q-4 -53 4 -104.5t29.5 -95.5t58.5 -78.5t92 -55.5q0 -2 -1 -4 t-1 -4q-25 -55 -38 -98t-10 -72t23.5 -43t65.5 -14q31 0 53.5 21.5t39 49t27.5 55t20 39.5q4 12 9 24.5l11 27.5q109 12 208 63t176 130t126 179.5t57 212.5q10 109 -26.5 206t-126.5 149q8 20 15 41t11 39zM285 295q6 59 26.5 124.5t59.5 125t94 105.5t129 69 q-59 -145 -123.5 -301t-120.5 -287q-41 25 -55 71t-10 93zM846 528q-4 -61 -27.5 -120.5t-60.5 -109.5t-85 -90t-106 -65q57 125 124 266.5t120 274.5q23 -31 30 -72t5 -84z" />
<glyph unicode="&#xf9;" horiz-adv-x="1044" d="M311 918q-37 2 -62.5 -11.5t-40.5 -34t-20.5 -46t-1.5 -46.5l-43 -608q-8 -111 42.5 -164t142.5 -53q61 0 130.5 15.5t129 34t98.5 33.5l39 15q-4 -53 21.5 -69.5t62.5 -16.5q31 0 56.5 7.5t43 22.5t22.5 40.5t-7 62.5l49 693q23 94 3 125.5t-71 27.5q-53 -4 -82.5 -39 t-46.5 -114l-37 -533q-25 -18 -60.5 -39.5t-75.5 -41t-82 -32t-79 -12.5q-16 0 -33.5 1t-34 6t-26.5 14.5t-10 25.5l47 592q12 59 -5.5 100.5t-68.5 43.5zM715 1022q23 8 37 15t18 18.5t-1 29t-19 45.5q-18 35 -44 76t-57 80t-62.5 73t-60.5 52q-39 25 -72.5 36t-56 6 t-31 -29.5t4.5 -71.5q12 -33 24.5 -56.5t30.5 -44t42 -40t58 -44.5q41 -29 70 -52t43 -40q35 -45 56.5 -48t19.5 -5z" />
<glyph unicode="&#xfa;" horiz-adv-x="1044" d="M311 918q-37 2 -62.5 -11.5t-40.5 -34t-20.5 -46t-1.5 -46.5l-43 -608q-8 -111 42.5 -164t142.5 -53q61 0 130.5 15.5t129 34t98.5 33.5l39 15q-4 -53 21.5 -69.5t62.5 -16.5q31 0 56.5 7.5t43 22.5t22.5 40.5t-7 62.5l49 693q23 94 3 125.5t-71 27.5q-53 -4 -82.5 -39 t-46.5 -114l-37 -533q-25 -18 -60.5 -39.5t-75.5 -41t-82 -32t-79 -12.5q-16 0 -33.5 1t-34 6t-26.5 14.5t-10 25.5l47 592q12 59 -5.5 100.5t-68.5 43.5zM547 1022h12t14.5 5t19.5 15.5t30 32.5q14 16 42.5 40t69.5 52q33 25 57.5 44.5t43 40t31 44t24.5 56.5q12 47 4 71.5 t-30.5 29.5t-56.5 -6t-73 -36q-29 -18 -60.5 -52t-62 -73t-56.5 -80t-44 -76q-14 -29 -19.5 -46t-1 -28.5t18.5 -18.5t37 -15z" />
<glyph unicode="&#xfb;" horiz-adv-x="1044" d="M311 918q-37 2 -62.5 -11.5t-40.5 -34t-20.5 -46t-1.5 -46.5l-43 -608q-8 -111 42.5 -164t142.5 -53q61 0 130.5 15.5t129 34t98.5 33.5l39 15q-4 -53 21.5 -69.5t62.5 -16.5q31 0 56.5 7.5t43 22.5t22.5 40.5t-7 62.5l49 693q23 94 3 125.5t-71 27.5q-53 -4 -82.5 -39 t-46.5 -114l-37 -533q-25 -18 -60.5 -39.5t-75.5 -41t-82 -32t-79 -12.5q-16 0 -33.5 1t-34 6t-26.5 14.5t-10 25.5l47 592q12 59 -5.5 100.5t-68.5 43.5zM936 1104q2 27 -18 61l-179 252q-10 29 -32.5 50.5t-51.5 21.5q-33 0 -45 -13.5t-22 -31.5l-260 -264 q-20 -18 -34.5 -34t-19.5 -42v-17q0 -14 13.5 -25t52.5 -22q23 -4 44.5 5.5t55.5 54.5l199 200l135 -194q25 -49 57.5 -59.5t40.5 -6.5q37 14 49.5 27.5t14.5 36.5z" />
<glyph unicode="&#xfc;" horiz-adv-x="1044" d="M311 918q-37 2 -62.5 -11.5t-40.5 -34t-20.5 -46t-1.5 -46.5l-43 -608q-8 -111 42.5 -164t142.5 -53q61 0 130.5 15.5t129 34t98.5 33.5l39 15q-4 -53 21.5 -69.5t62.5 -16.5q31 0 56.5 7.5t43 22.5t22.5 40.5t-7 62.5l49 693q23 94 3 125.5t-71 27.5q-53 -4 -82.5 -39 t-46.5 -114l-37 -533q-25 -18 -60.5 -39.5t-75.5 -41t-82 -32t-79 -12.5q-16 0 -33.5 1t-34 6t-26.5 14.5t-10 25.5l47 592q12 59 -5.5 100.5t-68.5 43.5zM553 1182q2 18 1 42.5t-10 45t-27.5 35t-53.5 14.5t-65.5 -13.5t-53 -34t-36 -46t-15.5 -48t7 -47t25.5 -45t39 -34 t49.5 -13.5q35 0 59.5 14.5t41.5 36t26.5 46t11.5 47.5zM940 1192q2 18 1 41.5t-9 44t-27.5 35t-54.5 14.5t-64.5 -13.5t-52 -33.5t-36 -46t-15.5 -48.5t6 -47t25.5 -45t40 -33.5t47.5 -13q35 0 60.5 14t43 35.5t25.5 47t10 48.5z" />
<glyph unicode="&#xfd;" horiz-adv-x="944" d="M950 745q12 29 20.5 57.5t5.5 51.5t-22.5 37t-62.5 14q-59 0 -79.5 -21.5t-37.5 -62.5l-227 -588l-260 560q-8 18 -15.5 39.5t-20.5 37t-35.5 21.5t-59.5 -4q-53 -16 -70.5 -57.5t12.5 -108.5l344 -719l-39 -96q-6 -14 -17 -43t-27.5 -57.5t-41 -50t-57.5 -21.5 q-18 0 -46 5t-59.5 7t-61.5 -2t-50 -21.5t-28.5 -51t3.5 -91.5q12 -14 39 -20t60 -8.5t69.5 -1.5t67.5 1q68 0 118 25t88 66t67.5 94t54.5 112zM504 1022h12t14.5 5t19.5 15.5t30 32.5q14 16 42.5 40t69.5 52q33 25 57.5 44.5t43 40t31 44t24.5 56.5q12 47 4 71.5 t-30.5 29.5t-56.5 -6t-73 -36q-29 -18 -60.5 -52t-62 -73t-56.5 -80t-44 -76q-14 -29 -19.5 -46t-1 -28.5t18.5 -18.5t37 -15z" />
<glyph unicode="&#xfe;" horiz-adv-x="1083" d="M1059 623q10 147 -51.5 232t-202.5 85q-98 0 -199.5 -23.5t-206.5 -89.5l23 312q8 70 7 109.5t-12 61t-29.5 27.5t-45.5 6q-47 0 -72.5 -10t-38 -34.5t-15.5 -64.5t-7 -99l-109 -1586q-6 -70 6.5 -110.5t69.5 -30.5q61 12 88 41t29 92l31 426q47 -10 77.5 -5t40.5 5 q100 0 206 55.5t194 146.5t148.5 209t68.5 245zM383 604q12 18 48 42t88 44.5t116.5 33.5t132.5 13q53 0 76.5 -30.5t19.5 -83.5q-6 -90 -50 -177.5t-108.5 -156t-141.5 -111.5t-146 -43q-33 0 -51.5 10.5t-16.5 38.5z" />
<glyph unicode="&#xff;" horiz-adv-x="944" d="M950 745q12 29 20.5 57.5t5.5 51.5t-22.5 37t-62.5 14q-59 0 -79.5 -21.5t-37.5 -62.5l-227 -588l-260 560q-8 18 -15.5 39.5t-20.5 37t-35.5 21.5t-59.5 -4q-53 -16 -70.5 -57.5t12.5 -108.5l344 -719l-39 -96q-6 -14 -17 -43t-27.5 -57.5t-41 -50t-57.5 -21.5 q-18 0 -46 5t-59.5 7t-61.5 -2t-50 -21.5t-28.5 -51t3.5 -91.5q12 -14 39 -20t60 -8.5t69.5 -1.5t67.5 1q68 0 118 25t88 66t67.5 94t54.5 112zM453 1182q2 18 1 42.5t-10.5 45t-28 35t-53.5 14.5t-65.5 -13.5t-53 -34t-35.5 -46t-15.5 -48t7 -47t26 -45t39 -34t48.5 -13.5 q35 0 59.5 14.5t42 36t27 46t11.5 47.5zM840 1192q2 18 1 41.5t-9.5 44t-28 35t-53.5 14.5q-35 0 -65 -13.5t-52.5 -33.5t-35.5 -46t-15 -48.5t6 -47t25.5 -45t40 -33.5t46.5 -13q35 0 60.5 14t43 35.5t26 47t10.5 48.5z" />
<glyph unicode="&#x152;" horiz-adv-x="1996" d="M1993 141q4 59 -32 79t-114 16l-596 -52l35 414l461 51q10 2 22.5 3t26.5 1q41 0 76 17.5t41 77.5q2 16 -3 34.5t-23.5 31.5t-53.5 19.5t-92 0.5l-438 -56v15l30 333l510 33q51 2 88 3t61.5 9.5t38 28t17.5 57.5q4 41 -14.5 60.5t-50 26t-72.5 3t-80 -5.5 q-90 -6 -161 -10t-124 -7t-93 -4t-71 -1h-139q-29 0 -49 -9.5t-35 -23.5q-49 45 -118.5 70.5t-161.5 25.5q-102 0 -196.5 -41t-177.5 -109.5t-151.5 -155.5t-119 -181t-81 -187.5t-36.5 -170.5q-12 -139 11.5 -251t78.5 -190t140 -118.5t198 -40.5q143 0 275 65.5t237 177.5 q-6 -43 -6 -78t14 -58.5t47 -34.5t94 -5l641 47q45 0 74 8.5t45 21.5t21.5 28.5t5.5 31.5zM1112 920q-6 -121 -18 -285q-23 -109 -74 -203t-122 -164.5t-157 -110.5t-180 -40q-74 0 -126 30.5t-82.5 86t-41 132t-2.5 171.5q6 59 29.5 132.5t61.5 147.5t89.5 143.5t110.5 123 t126 86t136 32.5q63 0 107.5 -22.5t74 -61.5t46 -90t22.5 -108z" />
<glyph unicode="&#x153;" horiz-adv-x="1685" d="M1679 629q4 59 -14 109t-55 86t-90.5 56.5t-116.5 20.5q-117 0 -214 -48t-173 -126q-33 86 -103.5 141.5t-185.5 55.5q-145 0 -260 -59.5t-197 -151.5t-128 -204t-52 -214q-4 -66 10.5 -130.5t52 -114.5t101 -80.5t158.5 -30.5q115 0 221 44t192 121q27 -88 95.5 -130 t171.5 -42q104 0 207.5 33t186.5 77t136 91t55 76q4 47 -7 70.5t-46 23.5q-23 0 -37 -1t-26.5 -4t-25.5 -10t-36 -20q-39 -29 -82 -59.5t-89 -55t-94 -41t-97 -16.5q-14 0 -33 1t-37 9.5t-34.5 28t-24.5 55.5q-8 39 -6 65l2 26q113 27 230.5 59.5t215.5 74.5t161.5 94 t67.5 120zM846 528q-6 -80 -42 -154.5t-93.5 -132t-131 -92t-155.5 -34.5q-43 0 -71.5 16t-44 42t-20.5 58.5t-3 63.5q6 70 34.5 147.5t80 142t127 106.5t175.5 42q45 0 74 -17.5t45.5 -47t21.5 -66.5t3 -74zM1487 657q-6 -18 -36 -43.5t-72 -51t-92 -49.5t-98 -40 t-90 -23.5t-67 1.5q20 68 59 122t88.5 91.5t101.5 59t97 21.5q59 0 86 -29.5t23 -58.5z" />
<glyph unicode="&#x178;" horiz-adv-x="1251" d="M1294 1147q37 45 48.5 72.5t6 44t-20.5 28t-32 21.5q-23 12 -43 8t-40.5 -16.5t-42 -30t-48.5 -31.5l-422 -414l-323 371q-43 66 -78 110t-61 38q-29 -6 -56.5 -20.5t-41 -39t-6.5 -59.5t48 -82l393 -508l-43 -508q-6 -68 7.5 -115t66.5 -43q72 6 93.5 49.5t25.5 96.5 l45 520zM709 1575q2 18 1 42.5t-10.5 45t-28 35t-53.5 14.5t-65.5 -13t-53 -33.5t-35.5 -46.5t-15.5 -48.5t7 -47t26 -45t39 -33.5t48.5 -13q35 0 59.5 14t42 35.5t27 46t11.5 47.5zM1096 1585q2 18 1 42t-9.5 44.5t-28 34.5t-53.5 14q-35 0 -65 -13t-52.5 -33.5t-35.5 -46 t-15 -48.5t6 -47.5t25.5 -45t40 -33.5t46.5 -13q35 0 60.5 14t43 35.5t26 47t10.5 48.5z" />
<glyph unicode="&#x2c6;" horiz-adv-x="819" d="M827 1104q2 27 -18 61l-178 252q-10 29 -33 50.5t-51 21.5q-33 0 -45.5 -13.5t-22.5 -31.5l-260 -264q-20 -18 -34.5 -34t-18.5 -42v-17q0 -14 13.5 -25t51.5 -22q23 -4 44.5 5.5t56.5 54.5l198 200l136 -194q25 -49 57.5 -59.5t40.5 -6.5q37 14 49 27.5t14 36.5z" />
<glyph unicode="&#x2dc;" horiz-adv-x="1007" d="M848 1247q2 14 -13.5 28.5t-36 18.5t-42 -4t-33.5 -35q-4 -10 -6 -25.5t-7 -29.5t-16.5 -25.5t-29.5 -11.5q-27 0 -42.5 18.5t-32 42t-39 42t-61.5 18.5q-31 0 -69.5 -14.5t-72.5 -37t-58.5 -51t-26.5 -59.5q-4 -25 15.5 -43t52.5 -18q18 0 34.5 15.5t34 32.5t34 32.5 t34.5 15.5q16 0 29.5 -16.5t32 -37t45 -36.5t69.5 -16q90 0 142.5 39.5t62.5 156.5z" />
<glyph unicode="&#x2000;" horiz-adv-x="949" />
<glyph unicode="&#x2001;" horiz-adv-x="1898" />
<glyph unicode="&#x2002;" horiz-adv-x="949" />
<glyph unicode="&#x2003;" horiz-adv-x="1898" />
<glyph unicode="&#x2004;" horiz-adv-x="632" />
<glyph unicode="&#x2005;" horiz-adv-x="474" />
<glyph unicode="&#x2006;" horiz-adv-x="316" />
<glyph unicode="&#x2007;" horiz-adv-x="316" />
<glyph unicode="&#x2008;" horiz-adv-x="237" />
<glyph unicode="&#x2009;" horiz-adv-x="379" />
<glyph unicode="&#x200a;" horiz-adv-x="105" />
<glyph unicode="&#x2010;" horiz-adv-x="790" d="M715 479l-142 -2l-274 -2q-23 -16 -56.5 -9t-54.5 7q-51 0 -77.5 29.5t-28.5 64.5t22.5 65t77.5 30q10 0 36 3t46 3q18 0 25 -2h282q23 8 57 5t58 -3q66 0 96.5 -30t31.5 -64.5t-25.5 -64.5t-73.5 -30z" />
<glyph unicode="&#x2011;" horiz-adv-x="790" d="M715 479l-142 -2l-274 -2q-23 -16 -56.5 -9t-54.5 7q-51 0 -77.5 29.5t-28.5 64.5t22.5 65t77.5 30q10 0 36 3t46 3q18 0 25 -2h282q23 8 57 5t58 -3q66 0 96.5 -30t31.5 -64.5t-25.5 -64.5t-73.5 -30z" />
<glyph unicode="&#x2012;" horiz-adv-x="790" d="M715 479l-142 -2l-274 -2q-23 -16 -56.5 -9t-54.5 7q-51 0 -77.5 29.5t-28.5 64.5t22.5 65t77.5 30q10 0 36 3t46 3q18 0 25 -2h282q23 8 57 5t58 -3q66 0 96.5 -30t31.5 -64.5t-25.5 -64.5t-73.5 -30z" />
<glyph unicode="&#x2013;" horiz-adv-x="1112" d="M913 655h-626q-14 8 -46 2t-44 -6q-59 0 -91 -28.5t-36 -63.5t20.5 -63.5t77.5 -28.5q18 0 53 -6t58 4h612q23 -10 53.5 -4t40.5 6q51 0 85 29.5t42 65.5t-12.5 65.5t-75.5 29.5z" />
<glyph unicode="&#x2014;" horiz-adv-x="1544" d="M1343 653l-1056 2q-14 8 -46 2t-44 -6q-59 0 -91 -28.5t-36 -63.5t20.5 -63.5t77.5 -28.5q18 0 53 -6t58 4l1042 -2q23 -10 53.5 -4t40.5 6q51 0 85 29.5t42 65.5t-12.5 65.5t-75.5 29.5z" />
<glyph unicode="&#x2018;" horiz-adv-x="391" d="M340 922l-43 256q-4 27 -6 54.5t-12.5 51t-32 38.5t-62.5 15q-37 0 -53 -14t-21.5 -37.5t-1 -53.5t10.5 -61l43 -251q10 -66 29.5 -113t72.5 -51q57 -4 74.5 44t3.5 120z" />
<glyph unicode="&#x2019;" horiz-adv-x="307" d="M244 920l63 262q0 20 3 47.5t-1 51.5t-20.5 40t-55.5 16q-33 0 -55 -14t-37.5 -38.5t-23.5 -55.5t-13 -64l-41 -243l-7 -24t-7 -54q0 -29 11.5 -55.5t45.5 -32.5q20 -4 43 7t41.5 33.5t33 54.5t20.5 69z" />
<glyph unicode="&#x201a;" horiz-adv-x="307" d="M244 -123l63 262q0 20 3 48t-1 51.5t-20.5 40t-55.5 16.5q-33 0 -55 -14.5t-37.5 -39t-23.5 -55t-13 -63.5l-41 -244l-7 -23q-7 -24 -7 -55q0 -29 11.5 -55.5t45.5 -32.5q20 -4 43 7.5t41.5 34t33 54t20.5 68.5z" />
<glyph unicode="&#x201c;" horiz-adv-x="753" d="M594 922l-43 256q-4 27 -6 54.5t-12.5 51t-32 38.5t-62.5 15q-37 0 -53 -14t-21.5 -37.5t-1 -53.5t10.5 -61l43 -251q10 -66 29.5 -113t72.5 -51q57 -4 74.5 44t3.5 120zM238 920l-31 262q-6 23 -13.5 49t-19.5 50t-33.5 40t-60.5 16q-33 0 -50.5 -14t-24.5 -38.5 t-4 -55.5t11 -64l45 -243l1 -24t11.5 -53.5t31 -56t57.5 -32.5q47 -8 70.5 41t9.5 123z" />
<glyph unicode="&#x201d;" horiz-adv-x="647" d="M600 922l47 256q6 27 13.5 54.5t6.5 51t-17.5 38.5t-57.5 15q-37 0 -58.5 -14t-35 -37.5t-19.5 -53.5t-10 -61l-47 -251q-6 -33 -9 -62t1 -50.5t16 -35.5t37 -16q57 -4 91 44t44 120zM244 920l63 262q0 23 3 49t-1 50t-20.5 40t-55.5 16q-33 0 -55 -14t-37.5 -38.5 t-23.5 -55.5t-13 -64l-41 -243l-7 -24t-7 -54q0 -29 11.5 -55.5t45.5 -32.5q20 -4 43 7t42.5 33.5t33 54.5t19.5 69z" />
<glyph unicode="&#x201e;" horiz-adv-x="647" d="M244 -131l63 262q0 20 3 48t-1 51.5t-20.5 40t-55.5 16.5q-33 0 -55 -14.5t-37.5 -39t-23.5 -55.5t-13 -63l-41 -244l-7 -23q-7 -24 -7 -55q0 -29 11.5 -55.5t45.5 -32.5q20 -4 43 7.5t41.5 34t33 54t20.5 68.5zM600 -129l47 256q6 27 13.5 54.5t6.5 51t-17.5 39 t-57.5 15.5q-37 0 -58.5 -14.5t-35 -38t-19.5 -53t-10 -60.5l-47 -252q-12 -66 -8 -113t53 -51q57 -4 91 44t44 120z" />
<glyph unicode="&#x2022;" horiz-adv-x="579" d="M537 584q2 35 1 78t-17.5 79.5t-51.5 62t-96 25.5q-63 0 -117.5 -24.5t-95.5 -62t-65.5 -83t-26.5 -86.5q-4 -43 12 -87t46 -80.5t71 -60t88 -23.5q63 0 108 25.5t76 65.5t47.5 85t20.5 86z" />
<glyph unicode="&#x2026;" horiz-adv-x="1409" d="M389 172q2 23 1 50.5t-11 51t-32.5 40t-61.5 16.5q-41 0 -76 -15.5t-61.5 -40t-42 -53t-17.5 -55.5t8 -55.5t29.5 -52t45.5 -39t56 -15.5q41 0 71 16.5t49.5 42t29.5 55t12 54.5zM864 166q2 23 1 50.5t-11 51t-32.5 40t-61.5 16.5q-41 0 -76 -15.5t-61.5 -40t-42 -53.5 t-17.5 -55.5t8.5 -55t30 -52t45 -39t55.5 -15.5q41 0 71 16.5t49.5 42t29.5 55t12 54.5zM1325 170q2 23 1 50.5t-11 51t-32.5 40t-61.5 16.5q-41 0 -76 -15.5t-61.5 -40t-42 -53.5t-17.5 -55.5t8 -55t29.5 -52t45.5 -39t56 -15.5q41 0 71 16.5t49.5 42t29.5 55t12 54.5z" />
<glyph unicode="&#x202f;" horiz-adv-x="379" />
<glyph unicode="&#x2039;" horiz-adv-x="546" d="M461 946q-29 2 -62 -18l-252 -178q-29 -10 -50 -33t-21 -51q0 -33 13 -45.5t32 -22.5l264 -260q18 -20 33.5 -34.5t42.5 -18.5h16q14 0 25.5 13t21.5 52q4 23 -5 44.5t-54 56.5l-201 198l195 135q49 25 59 57.5t6 41.5q-14 37 -27 49t-36 14z" />
<glyph unicode="&#x203a;" horiz-adv-x="546" d="M141 946q-23 -2 -36 -14t-27 -49q-4 -8 6 -41t59 -58l195 -135l-201 -198q-45 -35 -54 -56.5t-5 -44.5q10 -39 21.5 -52t25.5 -13h16q27 4 42.5 18t33.5 35l264 260q18 10 31.5 22.5t13.5 45.5q0 29 -21.5 51t-49.5 33l-252 178q-35 20 -62 18z" />
<glyph unicode="&#x205f;" horiz-adv-x="474" />
<glyph unicode="&#x20ac;" horiz-adv-x="1226" d="M848 602q-29 0 -44 -9l-16 -9h-411q14 111 55 215h367q16 -10 30.5 -12.5t28.5 -2.5q55 0 82 29t31 78q4 45 -17.5 82t-66.5 37q-29 0 -49 -10l-19 -11h-287q66 94 151 152.5t185 58.5q63 0 98 -9t52 -26q53 -49 85 -80.5t40 -31.5q37 0 65.5 20.5t42 51t6 66.5t-39.5 66 q-78 72 -166 98.5t-189 26.5q-82 0 -159.5 -29.5t-147.5 -81.5t-130 -124t-110 -158h-114q-16 12 -35 14.5t-27 2.5q-51 0 -78.5 -36t-30.5 -78t17.5 -78t67.5 -36q20 0 38.5 5t28.5 16h47q-39 -109 -53 -215h-12q-12 10 -28.5 12t-31.5 2q-49 0 -76.5 -36t-31.5 -78 t16.5 -77.5t69.5 -35.5q23 0 74 22h10q6 -96 34.5 -179t79 -144.5t121 -96t160.5 -34.5q92 0 182.5 30.5t169 79.5t140 109.5t98.5 120.5q35 51 19.5 81.5t-56.5 35.5t-92 -16.5t-86 -72.5q-16 -29 -53 -62.5t-83 -61t-97.5 -46t-96.5 -18.5q-61 0 -104 21.5t-72 58.5 t-44 87t-19 107h401q23 -10 33 -11t18 -1q55 0 87 35t38 75.5t-17.5 75.5t-78.5 35z" />
<glyph unicode="&#x2122;" horiz-adv-x="1644" d="M1567 596l61 702q0 51 -15.5 66.5t-49.5 19.5q-16 4 -46 -30.5t-59 -77.5q-115 -186 -178 -281.5t-90 -138.5q-18 -29 -28.5 -50.5t-16.5 -29.5t-11.5 0t-17.5 39q-16 43 -35.5 93t-38 94.5t-32 77t-15.5 38.5q-12 33 -26.5 69t-26.5 64.5t-20.5 47t-8.5 16.5 q-12 35 -32.5 53t-40 19.5t-36 -16t-20.5 -54.5l-73 -725q0 -51 15 -68.5t44 -21.5q16 -4 28.5 6t20.5 25.5t12.5 33t4.5 29.5l41 473q33 -78 69.5 -160t67.5 -159q10 -29 15 -42.5t8 -21.5t8.5 -16t15.5 -27q4 -10 19.5 -21.5t36 -14.5t43 4t42.5 36q14 18 20.5 29.5 t10.5 22t11 24.5t22 41q12 20 36.5 56t55.5 81t65.5 93t65.5 93l-47 -499q-8 -35 1 -58.5t48 -27.5q45 -4 62.5 26.5t13.5 67.5zM727 1335q4 35 -18.5 50.5t-57.5 9.5q-59 -10 -106 -19.5t-99.5 -21t-120 -24.5t-165.5 -32q-35 -10 -68 -22t-37 -45q-4 -29 20.5 -44.5 t84.5 -6.5l153 32l-53 -641q0 -12 -2 -27.5t1 -28.5t13.5 -22.5t36.5 -9.5q43 0 54.5 20.5t19.5 67.5l57 664l185 35q59 16 78.5 28t23.5 37z" />
<glyph unicode="&#x25fc;" horiz-adv-x="921" d="M0 922h922v-922h-922v922z" />
<glyph unicode="&#xfb01;" horiz-adv-x="1028" d="M958 702q16 139 7 201t-62 53l-428 -63l2 113q0 14 4 49t17.5 70.5t40 63.5t71.5 28q29 0 67 -14.5t56 -31.5q61 -20 90 -20q25 0 51 14q55 31 56.5 72t-25.5 57q-49 29 -128 64t-183 35q-92 0 -150.5 -42t-92.5 -108.5t-48 -150.5t-20 -166l-7 -72l-47 -20 q-20 -6 -38.5 -10.5t-32 -12.5t-22.5 -26.5t-13 -51.5q-4 -31 5 -47t25.5 -22.5t38 -4t44.5 8.5l28 -2l-41 -570q-16 -51 14.5 -89t79.5 -34q51 4 83 44t20 87l41 598q106 20 166.5 31.5t89 18t36 8.5t9.5 2l-39 -637q-2 -33 -4 -60.5t3 -49t22.5 -35t54.5 -17.5 q39 -4 60.5 8.5t33.5 35t16 53t9 61.5v-2z" />
<glyph unicode="&#xfb02;" horiz-adv-x="1173" d="M1051 133l75 1075q4 35 7.5 68t-3 56.5t-26 36.5t-60.5 11q-51 -4 -72.5 -35.5t-29.5 -72.5q-31 18 -74 38.5t-89 39t-94 31t-91 12.5q-92 0 -150.5 -42t-92.5 -108.5t-48 -150.5t-20 -166l-7 -72l-47 -20q-20 -6 -38.5 -10.5t-32 -12.5t-22.5 -26.5t-13 -51.5 q-4 -31 5 -47t25.5 -22.5t38 -4t44.5 8.5l28 -2l-41 -570q-16 -51 14.5 -89t79.5 -34q51 4 83 44t20 87l41 598l280 54q37 14 59.5 24.5t33 19.5t13.5 22.5t3 33.5l2 2q-2 41 -26.5 62.5t-86.5 7.5l-264 -35l2 113q0 14 4 49t17.5 70.5t40 63.5t71.5 28q43 0 86 -12.5 t83 -30t78 -36t71 -30.5l-72 -987q-2 -66 23.5 -103.5t72.5 -33.5q55 2 71.5 42t27.5 105v2z" />
</font>
</defs>
</svg>
