<?xml version="1.0" encoding="UTF-8"?>
<svg width="411.57" height="603.76" version="1.1" viewBox="0 0 411.57044 603.76472" xmlns="http://www.w3.org/2000/svg" xmlns:xlink="http://www.w3.org/1999/xlink">
 <defs>
  <linearGradient id="f" x1="359.38" x2="216.21" y1="579.98" y2="325.72" gradientUnits="userSpaceOnUse" xlink:href="#a"/>
  <linearGradient id="a">
   <stop stop-color="#f3ed6d" offset="0"/>
   <stop stop-color="#ede77c" offset=".071429"/>
   <stop stop-color="#f5ef72" offset=".14286"/>
   <stop stop-color="#f4e65c" offset=".21429"/>
   <stop stop-color="#eed756" offset=".28571"/>
   <stop stop-color="#e9c952" offset=".35714"/>
   <stop stop-color="#eac74d" offset=".42857"/>
   <stop stop-color="#eac848" offset=".5"/>
   <stop stop-color="#e6c842" offset=".57143"/>
   <stop stop-color="#e1c540" offset=".64286"/>
   <stop stop-color="#dbbd3c" offset=".71429"/>
   <stop stop-color="#d1ae39" offset=".78571"/>
   <stop stop-color="#c7a534" offset=".85714"/>
   <stop stop-color="#c4a92f" offset=".92857"/>
   <stop stop-color="#c1ac2d" offset="1"/>
  </linearGradient>
  <linearGradient id="g" x1="158.59" x2="372.45" y1="360.17" y2="567.5" gradientUnits="userSpaceOnUse" xlink:href="#a"/>
  <linearGradient id="e" x1="190.05" x2="341.58" y1="391.07" y2="526.51" gradientTransform="translate(-.001512 -.0015172)" gradientUnits="userSpaceOnUse" xlink:href="#a"/>
 </defs>
 <g transform="translate(-166.26 -224.3)">
  <g transform="translate(75.992 29.224)">
   <g transform="translate(-7.3504 -8)">
    <g transform="matrix(.86603 .5 -.79268 1.373 640.26 -224.14)">
     <path d="m27.29 490.45v205l47.5-53.97 47.5 53.97v-205h-95z" fill="#f30000" fill-rule="evenodd"/>
     <path d="m32.04 496.75v184.5l42.75-48.573 42.75 48.573v-184.5h-85.5z" fill="none" stroke="#b20000" stroke-width=".79421"/>
    </g>
    <g transform="matrix(.86603 -.5 .79268 1.373 -261.21 -125)">
     <path d="m124.52 508.13v205l47.5-53.97 47.5 53.97v-205h-95z" fill="#4141f3" fill-rule="evenodd"/>
     <path d="m129.27 514.43v184.5l42.75-48.573 42.75 48.573v-184.5h-85.5z" fill="none" stroke="#0000b2" stroke-width=".79421"/>
    </g>
   </g>
   <g transform="matrix(1.1494 0 0 1.1494 -10.835 -140.2)" stroke-linecap="round">
    <path d="m415.6 457.01-38.068-14.539 33.021-23.897-40.542-4.2203 25.683-31.646-40.269 6.4686 16.696-37.242-37.242 16.693 6.4186-40.269-31.646 25.686-4.1733-40.545-23.893 33.022-14.586-38.112-14.539 38.112-23.896-33.022-4.2173 40.545-31.646-25.686 6.4656 40.269-37.242-16.693 16.696 37.242-40.269-6.4686 25.683 31.646-40.542 4.2203 33.022 23.897-38.115 14.539 38.115 14.583-33.022 23.896 40.542 4.1732-25.683 31.646 40.269-6.4216-16.696 37.242 37.242-16.693-6.4656 40.269 31.646-25.686 4.2173 40.546 23.896-33.022 14.539 38.065 14.586-38.065 23.893 33.022 4.1733-40.546 31.646 25.686-6.4186-40.269 37.242 16.693-16.696-37.242 40.269 6.4216-25.683-31.646 40.542-4.1732-33.021-23.896z" fill="url(#f)" stroke="url(#g)" stroke-miterlimit="8" stroke-width="2.6101"/>
    <circle cx="267" cy="457.01" r="101.5" fill="none" stroke="url(#e)" stroke-dasharray="1.74004567, 5.22013702" stroke-linejoin="round" stroke-width="1.74"/>
   </g>
  </g>
 </g>
</svg>
