<?xml version="1.0" encoding="UTF-8" standalone="no"?>
<svg id="svg6678" xmlns:rdf="http://www.w3.org/1999/02/22-rdf-syntax-ns#" xmlns="http://www.w3.org/2000/svg" height="202.02mm" width="211.34mm" version="1.1" xmlns:cc="http://creativecommons.org/ns#" xmlns:dc="http://purl.org/dc/elements/1.1/" viewBox="0 0 748.84997 715.80847">
<g id="layer1" transform="translate(1660.1 359.83)">
<g id="g4977" transform="translate(-3217.1 -548.57)">
<path id="path4941" d="m2252.5 420.11c-5.6337 24.441-21.495 50.73-43.518 72.125-16.235 15.776-34.72 27.66-52.595 34.938 0.4675-5.6525 0.7188-11.364 0.7188-17.132v-131.63c19.579-11.36 39.616-17.534 56.4-17.534 12.768 0 23.651 3.5725 31.011 11.15 13.409 13.8 10.756 36.05 7.9825 48.084m-598.39 78.081c-41.744-40.555-58.35-96.729-35.538-120.21 7.365-7.5788 18.242-11.15 31.014-11.15 19.332 0 42.99 8.1962 65.285 23.075v120.13c0 9.0325 0.5888 17.932 1.7213 26.669-20.809-6.5588-43.229-19.808-62.482-38.518m627.13-161.85c-29.272-30.132-76.682-34.194-124.14-15.104v-43.164h41.955c24.565 0 44.662-20.099 44.662-44.662 0-24.565-20.098-44.662-44.662-44.662h-526.14c-24.564 0-44.662 20.098-44.662 44.662s20.099 44.662 44.662 44.662h41.955v52.964c-50.354-23.342-101.93-20.75-133.03 11.26-44.026 45.312-27.96 129.92 36.575 192.63 35.058 34.06 76.16 53.629 113.46 57.146 23.268 53.649 68.57 95.744 124.33 114.67v108.49h-29.424c-24.564 0-44.662 20.098-44.662 44.661v0.001c0 24.564 20.099 44.662 44.662 44.662h218.41c24.565 0 44.662-20.099 44.662-44.662v-0.001c0-24.564-20.098-44.661-44.662-44.661h-29.422v-108.49c58.374-19.819 105.29-65.025 127.46-122.3 33.954-6.1812 70.115-25.044 101.44-55.48 29.326-28.492 49.83-63.068 57.734-97.354 8.7025-37.752 0.99-72.479-21.158-95.274" fill="#cd7f32"/>
<path id="path4958" fill="#fff" d="m1935.3 616.32q-19.011 0-33.398-4.1106-14.216-4.2818-23.807-13.188-9.4201-9.0775-14.216-22.951-4.7957-13.873-4.7957-33.227v-26.376h61.83v26.547q0 3.768 0.5138 7.3648 0.5138 3.4255 2.2266 6.1659 1.884 2.5691 5.3095 4.1106 3.4254 1.5415 9.2487 1.5415 4.2819 0 7.1935-1.0276 2.9117-1.1989 4.7957-4.4531t2.7404-9.2488 0.8564-15.928q0-7.7073-1.3702-14.73-1.1989-7.1935-4.1106-12.503t-7.8786-8.3924q-4.9669-3.2542-12.332-3.2542-1.884 0-3.4255 0.17127-1.3702 0-2.3978 0.17128v-52.581q15.243 0 23.636-6.5084 8.3924-6.5084 8.3924-22.608 0-19.696-14.73-19.696-6.3371 0-9.7626 1.884-3.2542 1.884-4.7957 4.7957-1.3701 2.9117-1.5414 6.5084-0.1713 3.5968-0.1713 7.1935v8.9062h-62.344l-0.3426-10.276q-0.1712-19.696 4.967-33.57 5.1382-13.873 15.072-22.608 10.105-8.735 24.835-12.674 14.73-3.9393 33.741-3.9393 18.326 0 32.713 4.4531 14.387 4.2818 24.15 13.359 9.9339 8.9062 15.072 22.608 5.1383 13.702 5.1383 32.371 0 9.4201-1.199 18.155-1.0276 8.5637-4.1105 15.757-3.083 7.1935-8.5637 12.846-5.4808 5.4808-14.387 8.5637 11.475 5.4808 17.47 12.846 5.9946 7.1935 8.5637 15.928 2.5691 8.735 2.7404 18.498 0.1713 9.7626 0.1713 20.21 0 19.525-4.4532 34.94-4.2818 15.415-14.044 26.034-9.7626 10.619-25.349 16.271t-37.852 5.652z"/>
</g>
</g>
</svg>
