<?xml version="1.0" encoding="UTF-8" standalone="no"?>
<svg id="svg4371" xmlns:rdf="http://www.w3.org/1999/02/22-rdf-syntax-ns#" xmlns="http://www.w3.org/2000/svg" height="336.25mm" width="194.87mm" version="1.1" xmlns:cc="http://creativecommons.org/ns#" xmlns:dc="http://purl.org/dc/elements/1.1/" viewBox="0 0 690.47591 1191.4248">
<defs id="defs4373">
<clipPath id="clipPath80" clipPathUnits="userSpaceOnUse">
<path id="path82" d="m360 569.44h121.38v-418.88h-121.38v418.88z"/>
</clipPath>
</defs>
<g id="layer1" transform="translate(473.81 -19.507)">
<g id="g4978">
<g>
<path id="path48" d="m-374.47 19.508s-0.1052 19.326 1.6094 50.221h-99.008l-1.0508 12.713c-0.26453 3.18-6.1666 78.823 16.4 160.82 28.715 104.34 90.768 170.75 180.02 193.12 23.494 35.213 52.617 63.924 88.727 81.111h-4.1621c-9.9125 0-18.025 8.1109-18.025 18.023v7.8477c0 9.9125 8.1129 18.025 18.025 18.025h29.885c3.4051 36.295 22.431 294.99-111.98 429.01h116.6 20.793 154.25c-134.41-134.01-115.38-392.7-111.98-429h29.172c9.9125 0 18.025-8.1129 18.025-18.025v-7.8477c0-9.9125-8.1129-18.023-18.025-18.023h-4.1602c36.109-17.187 65.232-45.898 88.727-81.111 89.25-22.367 151.3-88.778 180.02-193.12 22.567-81.999 16.665-157.64 16.4-160.82l-1.0488-12.713h-99.008c1.7146-30.895 1.6094-50.221 1.6094-50.221h-245.9-0.004-245.9zm-71.41 77.926h74.859c6.2764 80.249 23.949 206.84 73.635 303.28-64.686-25.553-109.07-80.57-132.23-164.12-16.176-58.354-16.908-114.7-16.266-139.16zm559.76 0h74.861c0.64283 24.461-0.0918 80.806-16.268 139.16-23.154 83.549-67.541 138.57-132.23 164.12 49.686-96.438 67.358-223.03 73.635-303.28zm-435.2 900.5v190.49h385.5v-190.49h-385.5z" fill="#d28232"/>
<path id="path60" d="m17.932 1008.3h-293.01c-6.2576 0-11.377-5.1198-11.377-11.377v-4.952c0-6.2575 5.1198-11.377 11.377-11.377h293.01c6.2576 0 11.377 5.1198 11.377 11.377v4.952c0 6.2576-5.1198 11.377-11.377 11.377" fill="#f26c46"/>
<path id="path64" d="m85.298 1210.9h-427.73v-39.829h427.73v39.829z" fill="#f04e38"/>
<path id="path66" d="m9.9655 1154.7h-277.08v-136.91h277.08v136.91z" fill="#e7e8e9"/>
</g>
<g id="g86" opacity=".050003" transform="matrix(2.8443 0 0 -2.8443 -1152.5 1639.2)" clip-path="url(#clipPath80)">
<g id="g88" transform="translate(465.84 493.12)">
<path id="path90" d="m0 0c-8.14-29.371-23.751-48.702-46.489-57.687 17.464 33.904 23.682 78.4 25.889 106.61h26.319c0.225-8.599-0.033-28.408-5.719-48.923m15.224 54.196-0.368 4.47h-34.804c0.606 10.891 0.561 17.656 0.561 17.656h-86.453-0.001v-418.88h75.191v14.003h-7.425v60.883h-12.433c0.103 0.391 0.174 0.795 0.174 1.217 0 2.679-2.191 4.871-4.87 4.871h-2.513c-43.618 47.92-37.281 134.79-36.103 147.39h8.878c4.244 0 7.716 3.473 7.716 7.717s-3.472 7.716-7.716 7.716h-0.144c12.714 6.039 22.971 16.125 31.241 28.517 31.384 7.86 53.207 31.207 63.303 67.896 7.934 28.829 5.859 55.423 5.766 56.541" fill="#373535"/>
</g>
</g>
</g>
</g>
</svg>
