<?xml version="1.0" encoding="UTF-8" standalone="no"?>
<svg id="svg4992" xmlns:rdf="http://www.w3.org/1999/02/22-rdf-syntax-ns#" xmlns="http://www.w3.org/2000/svg" height="202.02mm" width="211.34mm" version="1.1" xmlns:cc="http://creativecommons.org/ns#" xmlns:dc="http://purl.org/dc/elements/1.1/" viewBox="0 0 748.84997 715.80847">
<g id="layer1" transform="translate(42.996 -128.74)">
<g id="g4969" transform="translate(200 -60)">
<path id="path64" d="m452.45 420.11c-5.6338 24.441-21.495 50.73-43.518 72.125-16.235 15.776-34.72 27.66-52.595 34.938 0.4675-5.6525 0.71875-11.364 0.71875-17.132v-131.63c19.579-11.36 39.616-17.534 56.4-17.534 12.768 0 23.651 3.5725 31.011 11.15 13.409 13.8 10.756 36.05 7.9825 48.084m-598.39 78.081c-41.744-40.555-58.35-96.729-35.538-120.21 7.365-7.5788 18.242-11.15 31.014-11.15 19.332 0 42.99 8.1962 65.285 23.075v120.13c0 9.0325 0.58875 17.932 1.7212 26.669-20.809-6.5588-43.229-19.808-62.482-38.518m627.13-161.85c-29.272-30.132-76.682-34.194-124.14-15.104v-43.164h41.955c24.565 0 44.662-20.099 44.662-44.662 0-24.565-20.098-44.662-44.662-44.662h-526.14c-24.564 0-44.662 20.098-44.662 44.662s20.099 44.662 44.662 44.662h41.955v52.964c-50.354-23.342-101.93-20.75-133.03 11.26-44.026 45.312-27.96 129.92 36.575 192.63 35.058 34.06 76.16 53.629 113.46 57.146 23.268 53.649 68.57 95.744 124.33 114.67v108.49h-29.424c-24.564 0-44.662 20.098-44.662 44.661v0.001c0 24.564 20.099 44.662 44.662 44.662h218.41c24.565 0 44.662-20.099 44.662-44.662v-0.001c0-24.564-20.098-44.661-44.662-44.661h-29.422v-108.49c58.374-19.819 105.29-65.025 127.46-122.3 33.954-6.1812 70.115-25.044 101.44-55.48 29.326-28.492 49.83-63.068 57.734-97.354 8.7025-37.752 0.99-72.479-21.158-95.274" fill="#fa0"/>
<path id="path4964" fill="#fff" d="m124.33 340.22h48.471v272.84h-63.885v-198.68q-2.0553 1.0276-5.652 2.5691-3.4255 1.5415-13.359 4.1106-9.7626 2.5691-18.326 2.5691v-46.758q4.7957 0 13.188-2.5691 8.3924-2.5691 17.47-7.0222 9.0775-4.4531 15.586-11.647 6.5084-7.1935 6.5084-15.415z"/>
</g>
</g>
</svg>
