<?xml version="1.0" encoding="UTF-8" standalone="no"?>
<svg id="svg6109" xmlns:rdf="http://www.w3.org/1999/02/22-rdf-syntax-ns#" xmlns="http://www.w3.org/2000/svg" height="202.02mm" width="211.34mm" version="1.1" xmlns:cc="http://creativecommons.org/ns#" xmlns:dc="http://purl.org/dc/elements/1.1/" viewBox="0 0 748.84997 715.80847">
<g id="layer1" transform="translate(48.711 -165.89)">
<g id="g4973" transform="translate(-705.71 -22.857)">
<path id="path4937" d="m1352.5 420.11c-5.6337 24.441-21.495 50.73-43.518 72.125-16.235 15.776-34.72 27.66-52.595 34.938 0.4675-5.6525 0.7188-11.364 0.7188-17.132v-131.63c19.579-11.36 39.616-17.534 56.4-17.534 12.768 0 23.651 3.5725 31.011 11.15 13.409 13.8 10.756 36.05 7.9825 48.084m-598.39 78.081c-41.744-40.555-58.35-96.729-35.538-120.21 7.365-7.5788 18.242-11.15 31.014-11.15 19.332 0 42.99 8.1962 65.285 23.075v120.13c0 9.0325 0.58875 17.932 1.7212 26.669-20.809-6.5588-43.229-19.808-62.482-38.518m627.09-161.85c-29.272-30.132-76.682-34.194-124.14-15.104v-43.164h41.955c24.565 0 44.662-20.099 44.662-44.662 0-24.565-20.098-44.662-44.662-44.662h-526.14c-24.564 0-44.662 20.098-44.662 44.662s20.099 44.662 44.662 44.662h41.955v52.964c-50.354-23.342-101.93-20.75-133.03 11.26-44.026 45.312-27.96 129.92 36.575 192.63 35.058 34.06 76.16 53.629 113.46 57.146 23.268 53.649 68.57 95.744 124.33 114.67v108.49h-29.424c-24.564 0-44.662 20.098-44.662 44.661v0.001c0 24.564 20.099 44.662 44.662 44.662h218.41c24.565 0 44.662-20.099 44.662-44.662v-0.001c0-24.564-20.098-44.661-44.662-44.661h-29.422v-108.49c58.374-19.819 105.29-65.025 127.46-122.3 33.954-6.1812 70.115-25.044 101.44-55.48 29.326-28.492 49.83-63.068 57.734-97.354 8.7025-37.752 0.99-72.479-21.158-95.274" fill="#aeaeae"/>
<path id="path4961" fill="#fff" d="m959.92 613.06v-14.044q0-12.16 2.3978-25.177 3.5968-18.84 11.475-34.597 7.8786-15.928 18.326-29.973 10.448-14.044 22.608-26.89 12.332-13.017 24.492-25.862 7.1935-7.7073 11.304-17.127 4.1106-9.4201 4.1106-21.581 0-11.475-3.5967-18.155-3.4255-6.851-12.674-6.851-15.072 0-15.072 26.034v25.52h-63.371l-0.6851-7.7073q0.17127-23.122 3.2542-41.448 3.2542-18.498 11.989-31.172 8.9062-12.674 24.321-19.354 15.586-6.851 40.421-6.851 19.183 0 33.912 5.652 14.73 5.4808 24.663 15.757 10.105 10.276 15.243 24.835 5.3095 14.558 5.3095 32.713 0 18.498-6.3371 34.769-6.1659 16.271-15.928 29.63-7.8786 11.133-16.271 20.21-8.3924 8.9062-16.614 17.641-8.0499 8.735-15.586 18.155-7.5361 9.2488-13.531 20.724h82.212v55.15h-156.37z"/>
</g>
</g>
</svg>
