<?xml version="1.0" encoding="UTF-8"?>
<svg width="30.038mm" height="30.587mm" version="1.1" viewBox="0 0 106.43412 108.37851" xmlns="http://www.w3.org/2000/svg" xmlns:xlink="http://www.w3.org/1999/xlink">
 <defs>
  <pattern id="y" patternTransform="matrix(1.025,0,0,1.45,0,946)" xlink:href="#a"/>
  <pattern id="x" patternTransform="matrix(1.025,0,0,1.45,0,946)" xlink:href="#a"/>
  <pattern id="w" patternTransform="matrix(1.025,0,0,1.45,0,946)" xlink:href="#a"/>
  <linearGradient id="b">
   <stop stop-color="#b80000" offset="0"/>
   <stop stop-color="#9e3838" offset="1"/>
  </linearGradient>
  <linearGradient id="c">
   <stop stop-color="#f8c0c0" offset="0"/>
   <stop stop-color="#d56262" offset=".079313"/>
   <stop stop-color="#c70303" offset=".18554"/>
   <stop stop-color="#dc0000" offset=".44214"/>
   <stop stop-color="#b80000" offset=".63106"/>
   <stop stop-color="#b80000" offset="1"/>
  </linearGradient>
  <pattern id="z" xlink:href="#u" patternTransform="matrix(.11029 0 0 .6622 -16 908)"/>
  <pattern id="u" width="30.066020" height="5.1805778" patternUnits="userSpaceOnUse">
   <path d="m7.597 0.061c-2.518-0.248-4.941 0.241-7.607 1.727v1.273c2.783-1.63 5.183-2.009 7.482-1.781 2.298 0.228 4.497 1.081 6.781 1.938 4.567 1.713 9.551 3.458 15.813-0.157l-4e-3 -1.273c-6.44 3.709-10.816 1.982-15.371 0.273-2.278-0.854-4.576-1.75-7.094-2z"/>
  </pattern>
  <pattern id="a" xlink:href="#t" patternTransform="matrix(1.025,0,0,1.45,0,946)"/>
  <pattern id="t" width="10" height="10" patternTransform="translate(0) scale(10)" patternUnits="userSpaceOnUse">
   <circle cx="2.567" cy=".81" r=".45"/>
   <circle cx="3.048" cy="2.33" r=".45"/>
   <circle cx="4.418" cy="2.415" r=".45"/>
   <circle cx="1.844" cy="3.029" r=".45"/>
   <circle cx="6.08" cy="1.363" r=".45"/>
   <circle cx="5.819" cy="4.413" r=".45"/>
   <circle cx="4.305" cy="4.048" r=".45"/>
   <circle cx="5.541" cy="3.045" r=".45"/>
   <circle cx="4.785" cy="5.527" r=".45"/>
   <circle cx="2.667" cy="5.184" r=".45"/>
   <circle cx="7.965" cy="1.448" r=".45"/>
   <circle cx="7.047" cy="5.049" r=".45"/>
   <circle cx="4.34" cy=".895" r=".45"/>
   <circle cx="7.125" cy=".34" r=".45"/>
   <circle cx="9.553" cy="1.049" r=".45"/>
   <circle cx="7.006" cy="2.689" r=".45"/>
   <circle cx="8.909" cy="2.689" r=".45"/>
   <circle cx="9.315" cy="4.407" r=".45"/>
   <circle cx="7.82" cy="3.87" r=".45"/>
   <circle cx="8.27" cy="5.948" r=".45"/>
   <circle cx="7.973" cy="7.428" r=".45"/>
   <circle cx="9.342" cy="8.072" r=".45"/>
   <circle cx="8.206" cy="9.315" r=".45"/>
   <circle cx="9.682" cy="9.475" r=".45"/>
   <circle cx="9.688" cy="6.186" r=".45"/>
   <circle cx="3.379" cy="6.296" r=".45"/>
   <circle cx="2.871" cy="8.204" r=".45"/>
   <circle cx="4.59" cy="8.719" r=".45"/>
   <circle cx="3.181" cy="9.671" r=".45"/>
   <circle cx="5.734" cy="7.315" r=".45"/>
   <circle cx="6.707" cy="6.513" r=".45"/>
   <circle cx="5.73" cy="9.67" r=".45"/>
   <circle cx="6.535" cy="8.373" r=".45"/>
   <circle cx="4.37" cy="7.154" r=".45"/>
   <circle cx=".622" cy="7.25" r=".45"/>
   <circle cx=".831" cy="5.679" r=".45"/>
   <circle cx="1.257" cy="8.519" r=".45"/>
   <circle cx="1.989" cy="6.877" r=".45"/>
   <circle cx=".374" cy="3.181" r=".45"/>
   <circle cx="1.166" cy="1.664" r=".45"/>
   <circle cx="1.151" cy=".093" r=".45"/>
   <circle cx="1.151" cy="10.093" r=".45"/>
   <circle cx="1.302" cy="4.451" r=".45"/>
   <circle cx="3.047" cy="3.763" r=".45"/>
  </pattern>
  <radialGradient id="aa" cx="93.488" cy="1011.9" r="22.05" gradientTransform="matrix(-1.9744 .8053 -.57056 -1.3989 855.4 2352)" gradientUnits="userSpaceOnUse" xlink:href="#c"/>
  <radialGradient id="ab" cx="93.222" cy="1013.8" r="3.7877" gradientTransform="matrix(1 0 0 1.5737 0 -581.67)" gradientUnits="userSpaceOnUse">
   <stop stop-color="#f8c0c0" offset="0"/>
   <stop stop-color="#f8c0c0" stop-opacity="0" offset="1"/>
  </radialGradient>
  <radialGradient id="ac" cx="70.681" cy="1020" r="13.734" gradientTransform="matrix(1 0 0 1.5194 63.987 -465.98)" gradientUnits="userSpaceOnUse" xlink:href="#b"/>
  <radialGradient id="ad" cx="90.584" cy="988.71" r="11.634" gradientTransform="matrix(-.78349 .49422 -.2737 -.43389 492.22 1450.2)" gradientUnits="userSpaceOnUse" xlink:href="#b"/>
  <radialGradient id="ae" cx="11.817" cy="1028.3" r="9.9155" gradientTransform="matrix(1.7564 .033566 -.057679 3.0181 114.67 -2011)" gradientUnits="userSpaceOnUse" xlink:href="#b"/>
  <radialGradient id="af" cx="31.804" cy="1008.7" r="11.199" gradientTransform="matrix(-1.1207 .91524 -.27322 -.33455 412.08 1388.1)" gradientUnits="userSpaceOnUse">
   <stop stop-color="#b80000" offset="0"/>
   <stop stop-color="#9e3838" offset="1"/>
  </radialGradient>
  <radialGradient id="ag" cx="40.116" cy="1024.2" r="21.466" gradientTransform="matrix(-1.9252 .19317 -.16884 -1.6827 287.62 2739.9)" gradientUnits="userSpaceOnUse" xlink:href="#c"/>
  <radialGradient id="ah" cx="35.597" cy="1024.9" r="8.8739" gradientTransform="matrix(1 0 0 .46232 -7.6512e-6 550.75)" gradientUnits="userSpaceOnUse">
   <stop stop-color="#fff" stop-opacity=".74654" offset="0"/>
   <stop stop-color="#fff" stop-opacity="0" offset="1"/>
  </radialGradient>
  <radialGradient id="ai" cx="55.695" cy="1095.3" r="28.764" gradientTransform="matrix(.027156 1.7513 -1.1588 .017968 1295.1 843.51)" gradientUnits="userSpaceOnUse" spreadMethod="repeat">
   <stop stop-color="#5c0000" offset="0"/>
   <stop stop-color="#222f00" offset=".56706"/>
   <stop stop-color="#662300" offset=".80211"/>
   <stop stop-color="#5c0000" offset="1"/>
  </radialGradient>
  <linearGradient id="v" x1="30.868" x2="59.303" y1="951.36" y2="987.11" gradientTransform="translate(.5 -.25)" gradientUnits="userSpaceOnUse">
   <stop stop-color="#006e0c" offset="0"/>
   <stop stop-color="#014d09" offset=".23306"/>
   <stop stop-color="#00780d" offset=".39256"/>
   <stop stop-color="#006e3e" offset=".5712"/>
   <stop stop-color="#005c0a" offset=".74984"/>
   <stop stop-color="#006e0c" offset="1"/>
  </linearGradient>
 </defs>
 <g transform="translate(.25841 -945.12)" fill-rule="evenodd">
  <path d="m58.913 957.66c-6.7161 2.6-10.127-0.76291-17.97 5.9341 1.6505-4.655-1.9051-6.0355-4.601-8.1742-9.1109-5.3717-17.224-1.9684-18.97 0.69194-10.713 12.143-7.8478 18.634-11.573 28.659-1.124 4.3882-2.1494 9.3884-0.45711 11.899 1.8891 3.4681 4.3173 5.6396 6.4419 5.1036 0.78512-5.7407 4.9867-10.811 8.636-12.139 8.8904 1.6609 16.361-2.6794 19.675-7.1915 2.8478-3.8777 5.3179-8.5873 0.27772-14.334 8.528-4.7167 8.2872-3.2324 11.765-4.1616z" fill="#064300" stroke="#0f0" stroke-width=".35433"/>
  <path d="m41.042 963.24c1.6505-4.655-1.9051-6.0355-4.601-8.1742-9.1109-5.3717-17.224-1.9683-18.97 0.692-10.713 12.143-7.8478 18.634-11.573 28.659-1.124 4.3882-2.1494 9.3883-0.45711 11.899 1.8891 3.4682 4.3173 5.6397 6.4419 5.1037 0.78512-5.7407 4.9867-10.812 8.636-12.139 8.8904 1.6609 16.361-2.6794 19.675-7.1915 2.8478-3.8777 5.3179-8.5873 0.27772-14.334 0 0 0.15898-1.4657 0.57063-4.5151z" fill="url(#v)"/>
  <path d="m24.137 951.85c-9.261 1.2292-14.274 12.089-16.244 19.732-1.1544 4.8836-2.1947 9.4805-3.2227 14.578-0.8011 3.9726-1.3865 8.2296 0.33984 11.189 0.96442 1.7594 1.9629 3.1512 3.0898 4.078 1.1413 0.9386 3.1298 1.5658 4.4859 1.2237-0.11986-2.6669 1.6185-6.0097 3.3188-8.1592 1.5902-1.974 3.5155-3.4072 5.0977-4.0195 9.085 1.5603 16.72-2.5493 20.215-7.3086 1.4528-1.9783 2.8809-4.2396 3.2598-6.8652 0.33996-2.356-0.32104-4.9661-2.3555-7.6562 3.4358-1.81 5.4459-3.4837 6.5942-3.5743 0.63424-0.0501 2.2038-0.25916 2.8478-0.23976 0.64398 0.019 0.69458-0.45755 1.6523-0.71343l1.2897-1.7452c0.86443-1.8325 4.1692-3.5966 6.661-5.7546l-3.0547 0.66015c-3.6108 0.54097-5.2165 0.3299-8.1953 0.79297-2.458 0.38212-5.077 1.394-7.9746 3.9707 9e-3 -1.3122-0.21987-2.5046-0.82422-3.4473-0.98963-1.5436-2.4859-2.6144-3.8164-3.6699-1.3826-1.0969-0.03187-0.0257-0.04883-0.0371-0.01695-0.0114-0.05273-0.0312-0.05273-0.0312-4.1794-2.4729-8.586-3.5981-13.063-3.004zm0.20117 1.7598c3.2457-0.12175 6.3914 0.84439 9.197 1.8482 2.4018 0.85935 4.5896 1.8007 6.0901 4.0893 0.7519 1.1468 0.93968 3.228 0.1831 5.3619 1.277-0.92466 1.8771-1.1724 2.4625-1.4055 4.2579-2.9232 5.1971-3.2601 7.9169-3.6829 1.9603-0.30474 3.0587-0.15404 5.3867-0.62891-1.8989 1.5874-3.0113 1.1026-2.3827 2.8479-0.63253 0.14446-1.4436 0.76683-1.9312 0.75249-0.55555-0.0163-1.8793 0.18196-2.6856 0.24566-1.6126 0.12727-3.9073 2.1068-8.2232 4.4938l-0.96289 0.53125 0.72656 0.82618c2.3937 2.7291 2.9155 5.0231 2.6074 7.1582-0.30809 2.1351-1.5386 4.1689-2.9336 6.0684-6.5756 5.5153-12.811 7.5718-19.264 6.6172-2.0458 0.74429-4.2001 2.4142-6 4.6484-1.6467 2.0441-2.8922 4.6057-3.4297 7.371-0.60016 0.032-1.1827-0.1272-1.8711-0.6933-0.85526-0.7034-1.784-1.9406-2.6973-3.6172l-0.019531-0.0352-0.023437-0.0351c-1.4289-2.1199-1.4068-5.5519-0.30373-9.8584 1.7331-4.455 2.4808-10.375 3.4365-14.524 1.1109-4.6994 2.58-9.9929 8.2969-15.535 1.7292-1.6764 4.277-2.7632 6.4238-2.8438z" color="#000000" color-rendering="auto" image-rendering="auto" shape-rendering="auto" solid-color="#000000" style="block-progression:tb;isolation:auto;mix-blend-mode:normal;text-decoration-color:#000000;text-decoration-line:none;text-decoration-style:solid;text-indent:0;text-transform:none;white-space:normal"/>
  <path d="m68.492 949.7c-1.8574 0.387-2.3264 3.4718-2.6035 4.502 0.17478 0.3711-0.3977 2.546-4.7559 2.9082-2.2072 1.5946-8.4855 5.4328-8.0059 9.9941-14.972 15.108-19.41 24.787-26.223 42.246-3.6695 0.7496-4.5284-0.9578-6.5207-1.7243-7.9099-2.435-15.209 5.4937-15.209 14.547-3e-5 10.848 3.8523 22.507 12.41 25.357 11.338 3.7762 25.625-3.0801 29.375-15 2.4266-7.7133 1.8983-22.872-13.824-21.085-1.97 0.058-0.83979-1.7162-1.477-2.2465 3.3638-9.2608 4.5283-12.328 9.4881-21.182 3.2887-5.8708 8.256-10.617 12.91-15.273 1.7759 9.7881 8.8009 19.718 13.021 23.205 1.5372 1.2702 2.6449 2.3903 3.9434 3.2715-0.86168-0.24471-1.7977-0.33456-2.8965-0.084-8.177 1.8649-12.074 8.7746-11.225 18.074 0.98688 10.804 12.422 27.867 30.008 23.26 8.0974-2.1213 15.266-14.882 14.279-25.686-0.87386-9.566-4.3862-18.163-15.533-16.912-2.4814 0.27843-1.6896 1.7809-5.5606 2.6211-4.0741-1.9391-9.6787-5.2609-12.246-8.8184-4.4204-6.1252-8.5904-11.889-9.248-19.092-0.21221-2.3242 0.1615-4.3316 1.5469-6.8965 1.464-2.7105 3.945-3.5466 6.8496-5.0625 1.9416 1.4402 4.7926 3.028 6.9355 1.9082 1.735-0.9066 2.9319-2.5559 2.4238-4.4297l3.0176-1.5098c1.0982-0.7562 2.6587-2.4823 1.3711-5.168-0.8941-1.865-3.8209-2.0727-5.9844-0.85546l-1.9219 0.67382c-2.013-1.2465-2.2099-2.2632-4.3457-1.543z" color="#000000" fill="#fff" stroke="#f00" stroke-linecap="round" stroke-linejoin="round" stroke-width=".35433"/>
  <path d="m100.77 1016.2c0.9869 10.804-6.2269 22.618-14.324 24.739-17.585 4.6069-28.226-11.572-29.213-22.376-0.8495-9.2996 2.8704-17.27 11.047-19.135 2.7118-0.61842 4.3679 1.6836 6.1787 3.1502 0.81512 0.6602 4.7346 3.7452 5.9448 3.5387 3.0135-0.5141 1.3138-4.0585 1.7064-5.6118 1.4226-0.89558 2.7649-2.4208 4.4066-2.605 11.147-1.2508 13.379 8.7337 14.253 18.3z" color="#000000" fill="url(#aa)" stroke="#f00" stroke-linecap="round" stroke-linejoin="round" stroke-width=".35433"/>
  <path d="m67.99 949.7c-0.97354 1.8012-1.7076 3.3835-1.9848 4.4136-0.44394 0.6362-0.30932 2.4576-4.6675 2.8198-2.2072 1.5946-6.6293 4.1954-8.9781 11.143-14.972 15.108-18.349 23.727-25.163 41.185 0.21894 0.6666-1.7515 0.6834-2.0386 1.5131-0.39987 1.1559 0.88753 3.1409 1.8935 4.0171 0.60026 0.5228 2.4531 0.1178 3.9906-0.695 1.0352-0.4724 1.1048-3.7492 0.46751-4.2795 3.3638-9.2608 4.0864-11.533 9.0461-20.387 3.2887-5.8708 8.7864-11.059 13.44-15.715 1.2895 4.5093 4.0666 10.578 7.259 15.356 2.736 4.0947 5.8476 7.1238 7.7954 8.7332 1.5372 1.2702 4.0591 3.7162 5.3576 4.5974-0.86168-0.2448 1.7378 2.4054 4.3513 3.1863 2.6614 0.7266 3.4118 0.1035 3.4926-1.6635 0.0374-0.8184-0.90198-2.2988-0.36266-3.2546-0.89388-0.4254-2.4182-0.5927-3.5906-1.0462-4.1709-1.6133-8.5076-5.2604-10.512-8.0374-4.4204-6.1252-8.3252-11.182-8.9829-18.385-0.21221-2.3242-0.634-3.5361 0.75138-6.101 1.464-2.7105 4.2102-5.1376 7.1148-6.6535 1.9416 1.4402 4.7043 3.6467 6.8472 2.5269 1.735-0.9066 2.7551-1.5835 2.2471-3.4573l2.9292-2.3937c1.0982-0.7562 3.5604-2.9778 2.1666-5.6099-1.6896-3.1909-4.1745-1.8959-6.3379-0.6787-0.75848 0.6077-0.3447 0.075-2.4522 0.1435-2.013-1.2465-1.9447-1.998-4.0805-1.2778z" color="#000000" fill="url(#ai)" stroke="#f00" stroke-linecap="round" stroke-linejoin="round" stroke-width=".35433"/>
  <path d="m67.99 949.7c-0.97354 1.8012-1.7076 3.3835-1.9848 4.4136-0.44394 0.63626-0.30932 2.4576-4.6675 2.8198-2.2072 1.5946-6.6293 4.1954-8.9781 11.143-14.972 15.108-18.349 23.727-25.163 41.185 0.21894 0.6666-1.7515 0.6834-2.0386 1.5131-0.39987 1.1559 0.88753 3.1409 1.8935 4.0171 0.60026 0.5228 2.4531 0.1178 3.9906-0.695 1.0352-0.4724 1.1048-3.7492 0.46751-4.2795 3.3638-9.2608 4.0864-11.533 9.0461-20.387 3.2887-5.8708 8.7864-11.059 13.44-15.715 1.2895 4.5093 4.0666 10.578 7.259 15.356 2.736 4.0947 5.8476 7.1238 7.7954 8.7332 1.5372 1.2702 4.0591 3.7162 5.3576 4.5974-0.86168-0.2448 1.7378 2.4054 4.3514 3.1863 2.6614 0.7266 3.4118 0.1035 3.4926-1.6635 0.0374-0.8184-0.90198-2.2988-0.36267-3.2546-0.89387-0.4254-2.4182-0.5927-3.5906-1.0462-4.1709-1.6133-8.5076-5.2604-10.512-8.0374-4.4204-6.1252-8.3252-11.182-8.9829-18.385-0.21221-2.3242-0.634-3.5361 0.75138-6.101 1.464-2.7105 4.2102-5.1376 7.1148-6.6535 1.9416 1.4402 4.7043 3.6467 6.8472 2.5269 1.735-0.9066 2.7551-1.5835 2.2471-3.4573l2.9292-2.3937c1.0982-0.7562 3.5604-2.9778 2.1666-5.61-1.6896-3.1908-4.1745-1.8958-6.3379-0.67862-0.75848 0.60762-0.3447 0.0755-2.4522 0.14347-2.013-1.2465-1.9447-1.998-4.0805-1.2778z" color="#000000" fill="url(#z)" opacity=".317" stroke="#f00" stroke-linecap="round" stroke-linejoin="round" stroke-width=".35433"/>
  <path d="m47.463 1032.6c-3.75 11.92-18.037 18.776-29.375 15-8.5579-2.8501-12.411-14.509-12.411-25.357 3e-5 -9.0532 7.2985-16.982 15.208-14.547 1.1408 0.3512 2.599 1.7735 3.9595 2.8558 0.64086 0.5098-0.08879 3.9343 2.1677 4.6028 4.849 1.4367 4.2763-3.133 6.2539-3.6558 1.076-0.2845 2.0845-0.5428 3.0239-0.5132 10.595 0.3338 13.599 13.901 11.172 21.615z" color="#000000" fill="url(#ag)" stroke="#db0900" stroke-linecap="round" stroke-linejoin="round" stroke-width=".35433"/>
  <g transform="translate(-63.987 -63.843)">
   <path d="m88.495 1073.6c-16.773 5.1637-16.031 28.572-2.1794 38.838-7.2935-0.3939-13.04-7.0067-14.578-11.283-2.6685-7.4178-2.3232-16.699-2.3232-16.699-0.49197-4.0342 3.8456-11.261 9.4128-13.216 3.1165-1.0944 7.1038 1.3444 9.6682 2.3598z" fill="url(#ae)"/>
   <path d="m89.443 1074.4c-0.87954-0.2157-2.9313 0.8801-3.0936 2.2981-0.47242 2.8498 4.1197 6.5885 4.1543 6.364 3.1565 1.0383 3.7263 0.5867 5.1265 0.088 1.6215-0.9603 1.8833-2.1926 1.149-3.624-0.11708-0.1707 2.089-0.9698 4.5006-0.8142 1.1726 0.076 6.7923 1.8186 7.0081 0.4727 0.79304-0.631-5.3214-4.3388-7.5381-3.9623-0.89618 0.1522-3.5709 0.5017-4.9429 1.5638-1.0463 1.4089-1.1924 2.8896-4.2426 2.74-1.5148-1.2682-3.1272-2.4833-2.1213-5.1265z" fill="url(#af)"/>
   <path d="m136.98 1065.3c-14.141 10.395-5.6495 33.493 10.808 38.631-7.0171 2.0276-15.494-2.0764-18.354-5.6084-4.9604-6.1269-7.563-14.755-7.563-14.755-1.7919-3.6477-0.38402-14.167 4.23-17.845 2.5829-2.0587 7.239-4.5148 10.879-0.4221z" fill="url(#ac)"/>
   <path d="m139.21 1067.6c-0.69452 0.5812 0.0366 4.0084 1.0833 4.9787 2.0171 2.0678 8.3113 0.8299 8.1508 0.6692 2.7054-1.9293 2.3662-2.3434 2.7932-3.7671-0.35514-0.9922-0.92563-1.628-1.3548-2.2544-0.279-0.5093 2.4528-1.2054 5.2284-0.7466 3.1122 0.5143 6.5232 2.0589 6.7296 1.867-0.38976-2.7028-6.2716-6.9034-10.235-6.0545-2.3418 0.5016-5.4097 2.2421-5.3925 2.9661-0.0777 1.8471 0.36269 2.7728-0.24074 4.3539-1.6224 0.3714-2.3754 0.9955-4.1375-0.2001z" fill="url(#ad)"/>
  </g>
  <path d="m22.467 1012.8c-1.245 0.2479-0.59643 2.5381 0.6943 4.9039 0.50251 0.921 1.8934 2.1994 3.4033 2.8811 2.148 0.9698 4.5913 1.0578 6.4258-0.8202 1.4977-1.5332 1.202-3.6561-0.28125-4.3261-0.15631 1.5323-0.63045 2.2144-2.0182 2.6244-1.6453 0.4861-3.4381-0.078-4.8916-0.9784-1.5516-0.9613-2.4502-2.712-3.3324-4.2847z" color="#000000" color-rendering="auto" fill="#610000" image-rendering="auto" shape-rendering="auto" solid-color="#000000" style="block-progression:tb;isolation:auto;mix-blend-mode:normal;text-decoration-color:#000000;text-decoration-line:none;text-decoration-style:solid;text-indent:0;text-transform:none;white-space:normal"/>
  <path d="m74.65 1005.3c-1.2553 0.2723 0.27022 3.7173 2.2983 5.053 1.0027 0.6604 2.2748 0.7098 3.462 0.6826 2.4606-0.057 5.1447-0.7337 6.7491-2.6808 2.0564-2.4956 0.88566-6.036-1.9135-5.3014 1.2006 1.2714 0.83573 3.2844-0.29243 4.0739-1.4337 1.0031-4.0486 1.8747-5.745 1.4783-1.9241-0.4495-3.2254-2.2118-4.5586-3.3056z" color="#000000" color-rendering="auto" fill="#540000" image-rendering="auto" shape-rendering="auto" solid-color="#000000" style="block-progression:tb;isolation:auto;mix-blend-mode:normal;text-decoration-color:#000000;text-decoration-line:none;text-decoration-style:solid;text-indent:0;text-transform:none;white-space:normal"/>
  <g opacity=".232">
   <path d="m24.508 1009.8c-16.773 5.1637-16.031 28.572-2.1794 38.838-7.2935-0.3939-13.04-7.0067-14.578-11.283-2.6685-7.4178-2.3232-16.699-2.3232-16.699-0.49197-4.0342 3.8456-11.261 9.4128-13.216 3.1165-1.0944 7.1038 1.3444 9.6682 2.3598z" fill="url(#y)"/>
   <path d="m25.456 1010.6c-0.87954-0.2157-2.9313 0.8801-3.0936 2.2981-0.47242 2.8498 4.1197 6.5885 4.1543 6.364 3.1565 1.0383 3.7263 0.5867 5.1265 0.088 1.6215-0.9603 1.8833-2.1926 1.149-3.624-0.11708-0.1707 2.089-0.9698 4.5006-0.8142 1.1726 0.076 6.7923 1.8186 7.0081 0.4727 0.79304-0.631-5.3214-4.3388-7.5381-3.9623-0.89618 0.1522-3.5709 0.5017-4.9429 1.5638-1.0463 1.4089-1.1924 2.8896-4.2426 2.74-1.5148-1.2682-3.1272-2.4833-2.1213-5.1265z" fill="url(#x)"/>
   <path d="m72.991 1001.5c-14.141 10.395-5.6495 33.493 10.808 38.631-7.0171 2.0276-15.494-2.0764-18.354-5.6084-4.9604-6.1269-7.563-14.755-7.563-14.755-1.7919-3.6477-0.38402-14.167 4.23-17.845 2.5829-2.0588 7.239-4.5148 10.879-0.4221z" fill="url(#w)"/>
   <path d="m75.22 1003.8c-0.69452 0.5812 0.03658 4.0084 1.0833 4.9787 2.0171 2.0678 8.3113 0.8299 8.1508 0.6692 2.7054-1.9293 2.3662-2.3434 2.7932-3.7671-0.35514-0.9922-0.92564-1.628-1.3548-2.2544-0.279-0.5093 2.4528-1.2054 5.2284-0.7466 3.1122 0.5143 6.5232 2.0589 6.7296 1.867-0.38976-2.7028-6.2716-6.9034-10.235-6.0545-2.3418 0.50158-5.4097 2.2421-5.3925 2.9661-0.07768 1.8471 0.36269 2.7728-0.24074 4.3539-1.6224 0.3714-2.3754 0.9955-4.1375-0.2001z" fill="url(#a)"/>
  </g>
  <path d="m92 1009.6c0.66213-0.8705 2.2133-1.6041 3.125-1 1.9182 1.2711 1.4776 4.7377 0.625 6.875-0.67826 1.7002-2.4725 4.4124-4.125 3.625-2.861-1.3631-1.5436-6.9776 0.375-9.5z" fill="url(#ab)" stroke="#995858" stroke-width="1.063"/>
  <path d="m36.75 1021.4c1.104-2.0544 5.9607 1.1977 5.125 3.375-2.4635 6.4185-16.625 1.125-16.625 1.125 0.125-1.6516 8.5436 1.0012 11.5-4.5z" fill="url(#ah)" stroke="#a74444" stroke-width="1px"/>
  <path d="m30.078 963.65c2.9034 2.7581 1.0823 1.7711 4.2125 4.1739 0.92317 0.71532-1.7664 0.44841-2.4219 0.71138-2.5347 0.39062-5.1721 0.35583-7.6047 1.2401-1.5154-0.80476-3.7329-0.95888-5.4105-1.0183-1.318 0.17222-4.1331 0.97103-5.0103 1.4504 1.582 0.16927 3.5341-0.35234 5.2173-0.68264 2.0303 0.0715 1.814 0.64221 3.8383 0.88088-3.8996 2.2316-6.4531 6.1854-8.1621 10.236-1.8097-0.12745-2.7806 1.0939-3.9632 2.7115-0.5512 0.91577-0.23211 1.0204-1.4803 1.241 1.3452 1.2854 2.2751-1.9267 3.5201-2.4849 0.55247-0.45558 2.1138-1.0679 1.2439 0.33097-1.3636 4.4865-3.0526 8.4712-3.6994 13.573 0.34774 0.56825 1.6143-4.2656 1.971-5.2341 1.0015-3.7109 1.4438-5.1456 2.6853-7.8538 0.60652 0.76828-0.51066 4.0827-0.60575 8.0603-0.05792 1.3919-0.6285 4.0291 0.25614 4.2639-0.28007-2.2245 0.47503-4.4389 0.76341-6.6369 0.3015-2.3338 1.0509-4.8102 0.28784-7.1216 0.10024-1.2648 1.0471-2.5359 1.6259-3.7265 1.5681-2.6861 3.6587-5.1978 6.4771-6.6244 1.0558 3.2029 0.03101 6.6019-0.55869 9.7949-0.32414 1.9056-0.95987 3.8814-0.49209 5.8145 0.39887-1.2324 0.5008-2.0695 0.7811-3.0683 0.49236-4.1481 2.3139-7.3836 1.5716-11.602-0.54164-1.9751 1.8736-1.709 3.013-2.0328 2.4603-0.30441 4.9305-0.53625 7.3804-0.91944 1.2167 3.2334-0.32366 6.6111-1.2183 9.7188-0.67295 2.223-1.3142 4.6548-0.56298 6.9434 0.32083-1.4031 0.29728-2.3114 0.36517-3.2696 0.11653-4.6786 3.5954-7.836 2.7344-12.592-0.87963-1.935 3.3277-1.2871 4.17-2.7052-0.87794-0.37337-1.816-0.32966-2.3556 0.14497-1.962 1.1043-3.6138 0.16464-4.9973-1.3241-2.0774-2.8757-6.6434-4.8889-10.1-6.3498-0.60872 0.96662 5.3835 2.9229 6.5288 3.9572z" color="#000000" color-rendering="auto" image-rendering="auto" shape-rendering="auto" solid-color="#000000" style="block-progression:tb;isolation:auto;mix-blend-mode:normal;text-decoration-color:#000000;text-decoration-line:none;text-decoration-style:solid;text-indent:0;text-transform:none;white-space:normal"/>
  <path d="m69.148 948.69c-1.4861-0.19181-2.5492 1.0635-3.0033 2.2863-0.89225 2.4029-1.3329 5.3769-4.8056 5.1143-4.4144 2.4263-8.1121 6.4832-9.5456 11.077-5.0016 5.087-9.5955 10.319-13.433 16.297-4.7154 7.3454-8.3825 15.581-11.305 23.814-0.76431 2.153-1.5403 1.8091-3.3069 0.7146-2.3226-1.4389-6.3253-3.1389-9.4046-2.0572-3.8846 1.3646-7.4999 3.4584-9.3224 6.9287-1.928 3.6713-1.939 8.7936-1.5049 12.857 0.94011 8.8015 3.6984 18.973 12.586 22.654 14.036 5.8131 33.152-5.0932 33.784-20.617 0.31468-7.7268-3.719-17.025-12.254-18.166-2.8373-0.3791-6.41 2.5741-4.4347-2.3129 4.0557-10.034 7.9169-19.362 16.104-27.949 1.4278-1.4974 3.2017-3.7842 4.7107-3.9672 0.35097 0.54896 0.57076 1.3207 0.94939 2.427 2.6362 7.7026 6.9532 14.961 13.308 20.047-7.3551 1.4326-13.834 8.6815-13.916 15.96-0.07691 6.8078 2.932 13.919 7.2175 19.26 3.4012 4.2386 7.6715 7.7694 12.906 9.3053 7.4567 2.1878 17.801-0.4597 22.394-7.2265 6.5116-9.5928 7.7876-22.743 2.3543-32.936-3.0771-5.7724-11.833-7.7322-17.189-3.5694-1.2718 0.9885-2.7733 0.53391-4.2083-0.0258-3.4445-1.3436-7.5986-5.4649-8.6259-6.6592-3.7787-4.3932-5.7642-7.738-7.5293-12.576-1.4301-3.9199-3.1835-6.7732-1.9736-10.792 1.3114-4.356 6.8647-9.2648 10.582-4.7382 3.0926 0.96159 4.7449-0.4369 5.9564-2.3465 0.73552-1.1594 1.0295-2.8141 2.1872-3.3606 2.3148-1.0926 3.6497-2.9006 3.644-4.9542-0.0067-2.4466-1.7243-4.7443-5.0778-4.321-3.6634 1.7823-5.4814 0.137-7.8444-0.16799zm4.9089 3.6002c0.38978-0.14967 0.80375-0.44685 1.258-0.94627 2.1462-2.3594 4.9963 0.0496 5.0439 2.1476 0.02499 1.1021-0.80888 1.8276-2.3319 2.759-0.48664 0.29761-1.1047 0.57873-1.6754 0.90208-0.2259 0.128-1.7706-0.66755-2.1443-1.8425-0.56653-1.7813-0.1876-2.1444-0.15027-3.0199zm0.61704 5.9265c-0.45086 0.50196-0.14064 0.939 0.22111 1.7815-2.0104 4.5023-6.2162 0.70919-7.9255-0.57702-4.7138 2.1397-9.5109 5.954-9.5184 11.61-0.0032 2.443 2.5302 10.861 5.9367 15.7 2.9127 4.1377 6.1585 8.5444 10.377 11.202 2.0233 1.2747 4.4713 2.3456 6.5407 3.2613 1.4715 0.6511 1.7552 2.2319 0.93295 3.6507-0.50126 0.8649-1.804 0.8027-3.3571-0.3655-2.1394-1.6093-4.5832-3.9092-6.6463-6.0213-0.91742-0.9392-2.2724-1.636-3.1724-2.4896-2.0814-1.9743-3.6188-4.0445-5.4864-6.3446-3.0245-3.7251-5.0661-8.7187-6.6674-13.186-0.7726-2.1553-1.4052-3.3625-1.84-5.6258-0.32233-1.6778-0.44172-2.9183-0.24368-3.9251 0.89971-4.5738 4.869-6.7914 8.4636-9.309 2.6309-0.12854 3.8935-1.3227 4.7123-3.3914 1.0369-1.3287-0.01545-4.3961 2.3008-3.7422 1.3863 0.39139 2.3955 1.4859 3.4505 1.8484-0.18909 0.33754 0.17914 3.1235 0.26173 3.3056 0.34941 0.77041 0.9807 1.6818 1.6594 2.6168zm-22.292 15.066c-6.0206 5.8877-11.54 12.031-15.167 19.961-1.3191 2.8833-3.0143 6.7364-4.1044 9.7598-1.031 2.8597-1.555 4.0961-2.3888 6.906-0.17734 0.5977 0.72926 0.7139 0.57225 1.5217-0.11449 0.5891-0.22169 1.6881-0.76674 2.2804-0.51779 0.5627-1.4612 0.6345-2.051 0.621-0.99354-0.023-1.9448-0.5826-2.2976-1.4943-0.20076-0.5187-0.10218-1.3205 0.02812-1.779 0.22267-0.7838 1.6872-0.8142 1.832-1.3962 0.88901-3.5739 1.8541-5.3522 3.2463-8.8409 2.2859-5.7283 5.2089-11.561 8.6796-16.648 3.6037-5.2818 7.0376-9.6264 11.559-14.21 0.05246 0.88639 0.36463 2.4888 0.85854 3.3184zm35.988 25.891c5.4059-0.38711 9.0881 4.3325 10.293 9.1866 2.5436 10.251 0.76705 22.981-8.1867 29.218-7.4502 5.1894-18.149 1.6348-23.989-4.8801-6.2646-6.9887-10.228-17.82-5.4292-26.565 2.2299-3.7419 5.2324-6.5792 9.4844-5.4609 3.7219 0.9789 7.778 8.3423 11.635 5.5136 2.4647-1.8077-1.646-4.2579 2.2109-5.7597 1.3989-0.54472 2.5478-1.1492 3.9824-1.252zm-70.207 9.4297c2.7985 0.041 5.3855 0.666 5.9721 2.688 0.21315 0.7348 0.13689 2.428 0.94925 3.6371 0.23229 0.3458 1.3481 1.2446 1.6048 1.417 1.0665 0.7161 3.2444 0.035 3.8789-0.5984 0.89415-0.8929 1.4223-1.9363 2.2135-2.4876 4.0814-2.844 9.2928-0.4895 11.824 4.0871 4.444 8.0334 2.356 18.687-4.9191 24.358-6.8087 5.3068-17.811 8.2566-24.803 2.2806-6.6936-5.721-8.2002-15.69-7.4015-24.097 0.51253-5.3941 4.7803-11.37 10.68-11.284z" color="#000000" color-rendering="auto" fill="#470000" image-rendering="auto" shape-rendering="auto" solid-color="#000000" style="block-progression:tb;isolation:auto;mix-blend-mode:normal;text-decoration-color:#000000;text-decoration-line:none;text-decoration-style:solid;text-indent:0;text-transform:none;white-space:normal"/>
 </g>
</svg>
