<?xml version="1.0" encoding="UTF-8"?>
<svg enable-background="new 0 0 258.119 322.963" viewBox="0 0 258.119 322.963" xmlns="http://www.w3.org/2000/svg">
 <path d="m76.338,55.459c-25.74,5.148-27,8.784-37.656,17.316-10.728,8.568-19.476,20.304-25.956,33.552-6.624,13.176-12.528,30.6-12.708,44.784-.108,14.112-.432,22.536 12.204,39.168 12.744,16.631 45.9,40.031 63.072,59.508 16.848,19.26 22.896,43.199 38.16,55.439 15.336,12.061 36.864,20.844 52.92,16.777 15.768-4.248 31.932-24.301 41.688-41.689 9.611-17.676 8.279-41.256 16.271-62.568 8.136-21.348 27.18-41.939 31.572-64.115 4.14-22.356 3.924-49.284-6.624-68.148-10.8-18.864-28.08-38.628-56.988-43.74-29.267-5.004-89.999,8.46-115.955,13.716z" fill-rule="evenodd" stroke="#000" stroke-miterlimit="10" stroke-width=".036"/>
 <path d="m77.814,62.047c-24.048,4.824-25.452,7.848-35.172,16.164-9.792,8.316-16.884,20.88-22.788,33.228-5.976,12.24-12.708,26.712-12.708,39.672-.144,12.852.72,22.032 12.708,37.116 12.204,15.084 43.38,34.777 59.508,52.416 15.84,17.496 21.744,39.924 35.64,51.877 13.86,11.807 32.472,21.852 46.944,18.611 14.436-3.637 29.735-22.607 38.952-38.988 9-16.416 7.739-38.627 15.228-58.463 7.488-19.908 25.452-39.168 29.448-59.869 3.815-20.808 3.708-46.152-6.156-63.684-10.008-17.604-26.28-36.144-53.244-40.896-27.324-4.608-84.132,7.812-108.36,12.816z" fill="#e2391c" fill-rule="evenodd" stroke="#000" stroke-miterlimit="10" stroke-width=".036"/>
 <path d="m32.238,153.451c-1.512.9-4.932-3.132-6.084-5.148-1.188-2.16-1.584-5.148-.9-7.02 .612-1.872 2.952-4.392 4.644-4.104 1.62.252 4.428,2.556 4.968,5.4 .288,2.736-1.188,9.828-2.628,10.872z" fill-rule="evenodd" stroke="#000" stroke-miterlimit="10" stroke-width=".036"/>
 <path d="m31.734,149.419c-.792.324-2.376-1.476-2.952-2.484-.612-1.044-.756-2.556-.432-3.42 .252-1.008 1.476-2.088 2.268-1.98 .828.108 2.088,1.26 2.412,2.628 .036,1.296-.576,4.716-1.296,5.256z" fill="#f5c080" fill-rule="evenodd" stroke="#000" stroke-miterlimit="10" stroke-width=".036"/>
 <path d="m55.962,189.234c-1.332,1.225-5.472-1.908-7.128-3.563-1.728-1.801-2.664-4.645-2.52-6.588 .072-2.09 1.908-4.896 3.564-5.113 1.584-.18 5.004,1.404 6.084,4.068 1.044,2.521 1.044,9.864 0,11.196z" fill-rule="evenodd" stroke="#000" stroke-miterlimit="10" stroke-width=".036"/>
 <path d="m54.558,185.455c-.684.576-2.664-.973-3.456-1.729-.864-.936-1.332-2.195-1.26-3.203 0-1.08.9-2.377 1.728-2.484 .756,0 2.448.611 2.988,1.98 .396,1.295.576,4.68 0,5.436z" fill="#f5c080" fill-rule="evenodd" stroke="#000" stroke-miterlimit="10" stroke-width=".036"/>
 <path d="m118.134,175.088c-1.656.756-4.464-3.854-5.364-5.904-.936-2.27-.936-5.328 0-7.093 .828-1.872 3.528-3.852 5.184-3.456 1.548.468 4.068,3.168 4.212,6.011-.108,2.702-2.376,9.649-4.032,10.442z" fill-rule="evenodd" stroke="#000" stroke-miterlimit="10" stroke-width=".036"/>
 <path d="m118.17,171.02c-.828.324-2.196-1.873-2.592-2.844-.468-1.117-.468-2.592 0-3.457 .432-.9 1.584-1.871 2.484-1.656 .648.252 1.98,1.404 2.052,2.881-.072,1.294-1.224,4.607-1.944,5.076z" fill="#f5c080" fill-rule="evenodd" stroke="#000" stroke-miterlimit="10" stroke-width=".036"/>
 <path d="m98.19,212.635c-1.332,1.225-5.472-1.908-7.128-3.564-1.728-1.799-2.664-4.643-2.52-6.588 .072-2.088 1.908-4.895 3.564-5.111 1.584-.18 5.004,1.404 6.084,4.068 1.044,2.519 1.044,9.863 0,11.195z" fill-rule="evenodd" stroke="#000" stroke-miterlimit="10" stroke-width=".036"/>
 <path d="m96.75,208.855c-.576.576-2.736-.973-3.42-1.729-.864-.936-1.332-2.195-1.26-3.203 0-1.08.9-2.377 1.728-2.484 .792,0 2.376.611 2.952,1.98 .396,1.296.576,4.681 0,5.436z" fill="#f5c080" fill-rule="evenodd" stroke="#000" stroke-miterlimit="10" stroke-width=".036"/>
 <path d="m127.21 249.28c-1.332 1.152-5.472-1.801-7.128-3.564-1.692-1.729-2.736-4.715-2.556-6.623 0.072-1.98 1.908-4.969 3.564-5.076 1.692-0.18 4.932 1.404 6.12 4.068 1.044 2.519 1.044 9.863 0 11.195z" fill-rule="evenodd" stroke="#000" stroke-miterlimit="10" stroke-width=".036"/>
 <path d="m125.766,245.467c-.684.576-2.664-.973-3.456-1.729-.756-.863-1.44-2.303-1.224-3.203 0-.936.9-2.447 1.728-2.447 .792,0 2.376.611 2.952,1.979 .396,1.224.576,4.644 0,5.4z" fill="#f5c080" fill-rule="evenodd" stroke="#000" stroke-miterlimit="10" stroke-width=".036"/>
 <path d="m146.466,281.756c-.863,1.475-5.796-.217-7.848-1.332-2.124-1.332-3.96-3.564-4.393-5.58-.468-1.98.36-5.293 1.944-5.904 1.512-.613 5.148-.145 7.021,2.088 1.656,2.16 3.997,9.072 3.276,10.728z" fill-rule="evenodd" stroke="#000" stroke-miterlimit="10" stroke-width=".036"/>
 <path d="m143.982,278.516c-.469.684-2.845-.037-3.816-.613-1.044-.719-1.979-1.727-2.124-2.736-.288-1.008.216-2.555.937-2.844 .684-.432 2.52,0 3.42,1.008 .719,1.009 1.943,4.357 1.583,5.185z" fill="#f5c080" fill-rule="evenodd" stroke="#000" stroke-miterlimit="10" stroke-width=".036"/>
 <path d="m172.278,272.359c-1.836-.252-2.053-5.436-1.765-7.775 .217-2.449 1.836-5.006 3.492-6.156 1.62-1.189 4.933-1.621 6.192-.469 1.26,1.188 1.872,4.787.72,7.309-1.331,2.412-6.983,7.091-8.639,7.091z" fill-rule="evenodd" stroke="#000" stroke-miterlimit="10" stroke-width=".036"/>
 <path d="m174.294,268.83c-.9-.18-1.044-2.627-.864-3.742 .181-1.225.792-2.449 1.692-2.988 .828-.686 2.304-.721 3.024-.252 .575.576.827,2.23.323,3.563-.827,1.189-3.239,3.349-4.175,3.419z" fill="#f5c080" fill-rule="evenodd" stroke="#000" stroke-miterlimit="10" stroke-width=".036"/>
 <path d="m184.158,237.584c-1.332,1.15-5.472-1.801-7.128-3.564-1.729-1.729-2.664-4.717-2.521-6.625 .072-1.98 1.908-4.967 3.564-5.076 1.584-.18 5.004,1.404 6.084,4.068 1.045,2.519 1.045,9.865.001,11.197z" fill-rule="evenodd" stroke="#000" stroke-miterlimit="10" stroke-width=".036"/>
 <path d="m182.718,233.768c-.684.576-2.664-.973-3.456-1.729-.756-.863-1.439-2.305-1.224-3.203 0-.938.9-2.449 1.728-2.449 .792,0 2.376.611 2.952,1.98 .396,1.225.576,4.645 0,5.401z" fill="#f5c080" fill-rule="evenodd" stroke="#000" stroke-miterlimit="10" stroke-width=".036"/>
 <path d="m146.97,208.963c-1.584.793-4.859-3.24-5.939-5.291-1.225-2.197-1.368-5.148-.721-7.057 .576-1.943 3.133-4.248 4.753-3.996 1.691.252 4.319,2.699 4.823,5.543 .18,2.774-1.44,9.758-2.916,10.801z" fill-rule="evenodd" stroke="#000" stroke-miterlimit="10" stroke-width=".036"/>
 <path d="m146.61,204.932c-.792.287-2.412-1.549-2.916-2.592-.576-1.045-.685-2.557-.324-3.42 .216-.973 1.584-1.98 2.304-1.908 .756.215 2.088,1.15 2.34,2.664 .108,1.295-.684,4.715-1.404,5.256z" fill="#f5c080" fill-rule="evenodd" stroke="#000" stroke-miterlimit="10" stroke-width=".036"/>
 <path d="m207.558,188.73c-1.332,1.225-5.472-1.908-7.128-3.563-1.728-1.801-2.664-4.645-2.52-6.59 .072-2.088 1.908-4.895 3.563-5.111 1.584-.18 5.005,1.404 6.084,4.068 1.046,2.521 1.046,9.864.001,11.196z" fill-rule="evenodd" stroke="#000" stroke-miterlimit="10" stroke-width=".036"/>
 <path d="m206.118,184.951c-.685.576-2.664-.973-3.456-1.729-.756-.936-1.44-2.195-1.224-3.203 0-1.08.899-2.377 1.728-2.484 .792,0 2.376.611 2.952,1.98 .396,1.296.576,4.68 0,5.436z" fill="#f5c080" fill-rule="evenodd" stroke="#000" stroke-miterlimit="10" stroke-width=".036"/>
 <path d="m224.118,135.883c-1.692.72-4.536-3.6-5.472-5.76-.937-2.34-1.044-5.22-.181-7.092s3.349-3.996 5.076-3.6c1.548.396 4.212,3.06 4.392,5.904 .073,2.736-2.303,9.72-3.815,10.548z" fill-rule="evenodd" stroke="#000" stroke-miterlimit="10" stroke-width=".036"/>
 <path d="m224.082,131.815c-.792.288-2.232-1.8-2.664-2.808-.54-1.152-.432-2.52-.072-3.42 .433-.972 1.62-1.872 2.448-1.728 .756.108 1.98,1.512 2.124,2.844-.108,1.26-1.044,4.68-1.836,5.112z" fill="#f5c080" fill-rule="evenodd" stroke="#000" stroke-miterlimit="10" stroke-width=".036"/>
 <path d="m195.354,97.183c-1.332,1.152-5.473-1.8-7.129-3.564-1.728-1.728-2.663-4.716-2.52-6.624 .144-1.98 1.836-4.968 3.528-5.076 1.691-.18 4.932,1.404 6.12,4.068 1.045,2.52 1.045,9.864.001,11.196z" fill-rule="evenodd" stroke="#000" stroke-miterlimit="10" stroke-width=".036"/>
 <path d="m193.914,93.367c-.684.576-2.664-.972-3.456-1.728-.756-.864-1.44-2.304-1.224-3.204 0-.936.899-2.448 1.728-2.448 .792,0 2.376.612 2.952,1.98 .396,1.224.576,4.644 0,5.4z" fill="#f5c080" fill-rule="evenodd" stroke="#000" stroke-miterlimit="10" stroke-width=".036"/>
 <path d="m165.438,143.011c-1.656.72-4.465-3.78-5.364-5.868-.937-2.34-.937-5.22 0-7.092 .899-1.872 3.456-3.852 5.147-3.456 1.513.396 4.177,3.168 4.248,5.976-.107,2.7-2.375,9.648-4.031,10.44z" fill-rule="evenodd" stroke="#000" stroke-miterlimit="10" stroke-width=".036"/>
 <path d="m165.474,138.979c-.827.36-2.195-1.944-2.592-2.88-.468-1.116-.468-2.628 0-3.42 .433-.9 1.584-1.872 2.484-1.656 .647.252 1.979,1.404 2.052,2.88-.072,1.296-1.224,4.608-1.944,5.076z" fill="#f5c080" fill-rule="evenodd" stroke="#000" stroke-miterlimit="10" stroke-width=".036"/>
 <path d="m138.582,131.203c-1.62.684-4.752-3.276-5.796-5.472-1.044-2.16-1.26-5.256-.504-7.056 .684-1.908 3.24-4.212 4.896-3.852 1.513.252 4.356,2.88 4.645,5.652 .143,2.808-1.765,9.72-3.241,10.728z" fill-rule="evenodd" stroke="#000" stroke-miterlimit="10" stroke-width=".036"/>
 <path d="m138.33,127.135c-.864.36-2.268-1.62-2.808-2.628-.469-1.044-.685-2.556-.252-3.42 .287-.972 1.548-2.016 2.376-1.872 .684.144 2.124,1.332 2.231,2.736 .073,1.332-.898,4.68-1.547,5.184z" fill="#f5c080" fill-rule="evenodd" stroke="#000" stroke-miterlimit="10" stroke-width=".036"/>
 <path d="m92.61,131.239c-1.332,1.188-5.472-1.836-7.128-3.528-1.692-1.728-2.736-4.716-2.556-6.624 .072-1.98 1.908-4.968 3.564-5.076 1.692-.18 4.932,1.404 6.12,4.068 1.044,2.556 1.044,9.792 0,11.16z" fill-rule="evenodd" stroke="#000" stroke-miterlimit="10" stroke-width=".036"/>
 <path d="m91.17,127.459c-.684.576-2.664-.972-3.456-1.728-.756-.864-1.44-2.304-1.224-3.204 0-.936.9-2.448 1.728-2.448 .792-.072 2.376.576 2.952,1.944 .396,1.296.576,4.68 0,5.436z" fill="#f5c080" fill-rule="evenodd" stroke="#000" stroke-miterlimit="10" stroke-width=".036"/>
 <path d="m42.426,113.311c-1.764-.396-1.548-5.616-1.008-7.884 .576-2.376 2.196-4.86 4.032-5.796 1.692-1.008 5.112-1.152 6.228.108 1.008,1.296 1.476,4.896.036,7.308-1.656,2.16-7.524,6.516-9.288,6.264z" fill-rule="evenodd" stroke="#000" stroke-miterlimit="10" stroke-width=".036"/>
 <path d="m44.802,109.999c-.9-.216-.792-2.736-.504-3.816 .144-1.224 1.116-2.34 1.944-2.808 .864-.54 2.376-.576 3.024.036 .396.576.72,2.412 0,3.564-.792,1.08-3.708,3.06-4.464,3.024z" fill="#f5c080" fill-rule="evenodd" stroke="#000" stroke-miterlimit="10" stroke-width=".036"/>
 <path d="m125.154,48.331c-.216-2.268-3.384-4.68-9.648-7.092-6.372-2.448-15.516-5.04-28.008-7.632l13.248,8.64c-15.444-2.736-28.476-1.548-39.672,3.564-11.16,5.148-20.052,14.004-26.964,26.964 1.98-3.636 5.616-6.084 11.196-7.632s12.672-2.016 21.852-1.548c-9.36,10.8-14.4,20.88-15.264,30.528-.828,9.612 2.52,18.504 10.188,26.964-.324-8.604 1.296-15.588 4.572-21.384 3.348-5.868 8.532-11.7 15.264-13.212 6.66-1.584 14.616-.18 24.408,4.068-2.34,15.408-2.268,26.64.504,34.092 2.7,7.344 7.956,10.728 15.768,10.152-3.96-8.136-5.364-15.624-4.068-22.86 1.296-7.308 5.148-13.968 11.7-20.376l7.128,16.308 8.64-18.324c3.996,2.592 7.848,6.192 11.7,11.196 3.78,5.004 7.56,10.872 11.195,18.288 2.952-8.676 3.853-17.136 2.557-25.92-1.296-8.856-4.645-17.496-10.188-26.46 7.128-.36 13.86.828 20.341,3.564 6.479,2.772 12.455,6.876 18.323,12.708-2.52-9.504-6.372-16.596-11.7-21.852-5.399-5.184-12.132-8.244-20.34-9.18 1.836-2.016 5.437-3.42 11.196-4.068 5.724-.72 13.176-.72 22.896,0-6.624-3.564-14.977-5.472-25.452-5.58-10.513-.18-22.752,1.296-37.116,4.572 11.808-14.328 17.604-25.2 17.784-33.048 0-7.848-5.616-12.384-17.28-13.752-3.672,3.528-6.732,9.108-9.18,17.28-2.52,8.064-4.284,18.36-5.58,31.032z" fill-rule="evenodd" stroke="#000" stroke-miterlimit="10" stroke-width=".036"/>
 <path d="m128.07,51.103c-4.824-3.276-9.432-5.94-13.968-7.848s-8.856-3.204-13.104-3.744l6.912,6.084c-15.876-1.944-28.764-1.44-39.492,1.512-10.728,2.988-18.504,8.136-24.012,15.984 3.672-2.7 8.172-4.212 13.644-4.68 5.436-.468 11.7.216 18.936,2.052-9.72,9.036-15.84,17.64-18.936,26.244-2.988,8.64-2.808,16.632.828,24.804 2.448-11.88 5.76-20.052 10.368-25.2 4.536-5.04 9-5.472 16.704-5.04 7.632.324 16.992,2.628 28.656,7.056-4.068,11.736-6.156,20.88-5.868,27.864 .252,6.876 2.484,11.304 7.092,13.428-2.232-10.692-2.088-19.548.864-27 2.844-7.488 8.208-13.284 16.236-17.532l4.896,12.816 7.74-16.884c3.636.936 7.199,3.6 10.979,8.532 3.708,4.824 7.344,11.556 11.196,20.34 .828-7.92.144-15.408-2.448-23.004-2.556-7.668-6.804-14.868-12.744-22.284 4.572-2.592 10.116-3.204 17.208-1.692 7.057,1.44 15.084,4.896 24.624,10.368-3.42-5.184-7.92-9.576-14.04-13.032-6.155-3.564-13.392-6.192-22.248-8.028 .216-1.764 2.521-3.276 7.2-4.392 4.608-1.224 11.412-2.052 20.556-2.628-9.107-.576-17.928-.216-27.287,1.224-9.324,1.368-18.54,3.744-28.08,7.128 10.476-14.22 16.56-25.056 18.647-33.336 1.98-8.244-.18-13.356-6.624-15.732-4.968,5.184-8.532,11.448-10.979,19.332-2.412,7.884-3.564,16.704-3.456,27.288z" fill="#137f40" fill-rule="evenodd" stroke="#000" stroke-miterlimit="10" stroke-width=".036"/>
</svg>
