<?xml version="1.0" encoding="UTF-8"?>
<svg viewBox="0 0 128 128" xmlns="http://www.w3.org/2000/svg" xmlns:xlink="http://www.w3.org/1999/xlink">
 <defs>
  <filter id="d">
   <feGaussianBlur stdDeviation=".31602"/>
  </filter>
  <filter id="j" x="-.34802" y="-.34085" width="1.696" height="1.6817">
   <feGaussianBlur stdDeviation="5.46506"/>
  </filter>
  <filter id="i" x="-.51975" y="-.45339" width="2.0395" height="1.9068">
   <feGaussianBlur stdDeviation="4.15116"/>
  </filter>
  <filter id="h" x="-.07002" y="-.3401" width="1.14" height="1.6802">
   <feGaussianBlur stdDeviation="3.96783"/>
  </filter>
  <linearGradient id="b">
   <stop stop-opacity="0" offset="0"/>
   <stop stop-opacity=".57196" offset="1"/>
  </linearGradient>
  <radialGradient id="g" cx="210.89" cy="506.35" r="68" gradientTransform="matrix(1.4028 1.6439e-6 -1.4521e-7 .20588 -89.845 403.11)" gradientUnits="userSpaceOnUse">
   <stop offset="0"/>
   <stop stop-opacity="0" offset="1"/>
  </radialGradient>
  <radialGradient id="a" cx="85.914" cy="458.27" r="23.445" gradientTransform="matrix(.53827 1.5836 -2.1115 .7177 1003.6 -8.43)" gradientUnits="userSpaceOnUse" xlink:href="#b"/>
  <radialGradient id="c" cx="233.5" cy="409.86" r="15.5" gradientTransform="matrix(.3871 1.5161 -1.4234 .36342 726.51 -93.107)" gradientUnits="userSpaceOnUse" xlink:href="#b"/>
  <radialGradient id="f" cx="236.47" cy="469.07" r="13.809" gradientTransform="matrix(1.4254 -.11753 .038397 .46571 -28.241 25.037)" gradientUnits="userSpaceOnUse" xlink:href="#b"/>
  <radialGradient id="e" cx="216.99" cy="497.96" r="65" gradientTransform="matrix(.51027 1.0072 -.96511 .48897 665.78 -290.53)" gradientUnits="userSpaceOnUse" xlink:href="#b"/>
 </defs>
 <g transform="translate(-242.9 -127.35)">
  <path transform="matrix(.7548 0 0 .61103 156.83 -67.219)" d="m274 507.36c0 7.728-30.464 14-68 14s-68-6.272-68-14 30.464-14 68-14 68 6.272 68 14z" fill="url(#g)" filter="url(#h)"/>
  <path transform="matrix(.39176 0 0 .39176 316.23 -31.943)" d="m118.7 470.05a23.445 23.445 0 1 1 -46.889 0 23.445 23.445 0 1 1 46.889 0z" fill="#80b0fa"/>
  <path transform="matrix(.39176 0 0 .39176 316.23 -31.943)" d="m118.7 470.05a23.445 23.445 0 1 1 -46.889 0 23.445 23.445 0 1 1 46.889 0z" fill="url(#a)"/>
  <path transform="matrix(.51378 0 0 .51378 297.76 -82.454)" d="m118.7 470.05a23.445 23.445 0 1 1 -46.889 0 23.445 23.445 0 1 1 46.889 0z" fill="#80b0fa"/>
  <path transform="matrix(.51378 0 0 .51378 297.76 -82.454)" d="m118.7 470.05a23.445 23.445 0 1 1 -46.889 0 23.445 23.445 0 1 1 46.889 0z" fill="url(#a)"/>
  <path transform="matrix(.71287 0 0 .71287 270.41 -166.24)" d="m118.7 470.05a23.445 23.445 0 1 1 -46.889 0 23.445 23.445 0 1 1 46.889 0z" fill="#80b0fa"/>
  <path transform="matrix(.71287 0 0 .71287 270.41 -166.24)" d="m118.7 470.05a23.445 23.445 0 1 1 -46.889 0 23.445 23.445 0 1 1 46.889 0z" fill="url(#a)"/>
  <path d="m358.65 199.31c0 3.4523-0.37818 26.777-1.0954 30.015-1.7638 8.8818-7.4732 13.995-16.047 15.942-3.985 0.7434-8.5178-15.558-13.437-15.648s-10.225 16.028-15.757 16.028c-5.5573 0-10.887-16.128-15.826-16.053s-9.4866 16.353-13.48 15.582c-9.0418-1.5005-13.769-7.6856-15.999-16.143-0.67582-3.1476-1.0316-26.374-1.0316-29.722 0-25.578 20.759-46.336 46.336-46.336s46.336 20.759 46.336 46.336z" fill="#80b0fa"/>
  <path d="m318.83 171.35c-4.8012 2.7257-7.6723 6.0133-8.3125 9.8438l3.4688 0.15625c0.62129-3.7172 0.7976-6.5264 5.375-9.125l-0.53125-0.875zm2.0938 4.5938c-2.466 1.3149-5.1919 3.8797-5.5 5.9375l3.125 0.84375c0.2544-1.6991 0.75785-4.794 2.8438-5.9062l-0.46875-0.875zm1.7812 4.7812c-1.5911 0.58324-2.8436 1.6026-3.3438 3.125l1.6875 0.5625c0.27643-1.3233 0.57149-2.6831 1.6875-3.2812l-0.03125-0.40625z" fill-opacity=".5354" fill-rule="evenodd" filter="url(#d)"/>
  <path d="m358.65 199.31c0 3.4523-0.37818 26.777-1.0954 30.015-1.7638 8.8818-7.4732 13.995-16.047 15.942-3.985 0.7434-8.5178-15.558-13.437-15.648s-10.225 16.028-15.757 16.028c-5.5573 0-10.887-16.128-15.826-16.053s-9.4866 16.353-13.48 15.582c-9.0418-1.5005-13.769-7.6856-15.999-16.143-0.67582-3.1476-1.0316-26.374-1.0316-29.722 0-25.578 20.759-46.336 46.336-46.336s46.336 20.759 46.336 46.336z" fill="url(#e)"/>
  <path d="m348.08 171.35c-4.8012 2.7257-7.6723 6.0133-8.3125 9.8438l3.4688 0.15625c0.62129-3.7172 0.7976-6.5264 5.375-9.125l-0.53125-0.875zm2.0938 4.5938c-2.466 1.3149-5.1919 3.8797-5.5 5.9375l3.125 0.84375c0.2544-1.6991 0.75785-4.794 2.8438-5.9062l-0.46875-0.875zm1.7812 4.7812c-1.5911 0.58324-2.8436 1.6026-3.3438 3.125l1.6875 0.5625c0.27643-1.3233 0.57149-2.6831 1.6875-3.2812l-0.03125-0.40625z" fill-opacity=".5354" fill-rule="evenodd" filter="url(#d)"/>
  <path transform="translate(233.42 11.735)" d="m113.25 158.91c-4.8012 2.7257-7.6723 6.0133-8.3125 9.8438l3.4688 0.15625c0.62129-3.7172 0.7976-6.5264 5.375-9.125l-0.53125-0.875zm2.0938 4.5938c-2.466 1.3149-5.1919 3.8797-5.5 5.9375l3.125 0.84375c0.2544-1.6991 0.75785-4.794 2.8438-5.9062l-0.46875-0.875zm1.7812 4.7812c-1.5911 0.58324-2.8436 1.6026-3.3438 3.125l1.6875 0.5625c0.27643-1.3233 0.57149-2.6831 1.6875-3.2812l-0.03125-0.40625z" fill-rule="evenodd"/>
  <path transform="matrix(.71287 0 0 .71287 169.74 -106.77)" d="m255 417.86a15.5 15.5 0 1 1 -31 0 15.5 15.5 0 1 1 31 0z" fill="#fff"/>
  <path transform="matrix(.71287 0 0 .71287 169.74 -106.77)" d="m255 417.86a15.5 15.5 0 1 1 -31 0 15.5 15.5 0 1 1 31 0z" fill="url(#c)"/>
  <path transform="matrix(.43692 0 0 .43692 239.4 9.2526)" d="m255 417.86a15.5 15.5 0 1 1 -31 0 15.5 15.5 0 1 1 31 0z"/>
  <path d="m317.42 170.64c-4.8012 2.7257-7.6723 6.0133-8.3125 9.8438l3.4688 0.15625c0.62129-3.7172 0.7976-6.5264 5.375-9.125l-0.53125-0.875zm2.0938 4.5938c-2.466 1.3149-5.1919 3.8797-5.5 5.9375l3.125 0.84375c0.2544-1.6991 0.75785-4.794 2.8438-5.9062l-0.46875-0.875zm1.7812 4.7812c-1.5911 0.58324-2.8436 1.6026-3.3438 3.125l1.6875 0.5625c0.27643-1.3233 0.57149-2.6831 1.6875-3.2812l-0.03125-0.40625z" fill-rule="evenodd"/>
  <path transform="matrix(.71287 0 0 .71287 141.23 -106.77)" d="m255 417.86a15.5 15.5 0 1 1 -31 0 15.5 15.5 0 1 1 31 0z" fill="#fff"/>
  <path transform="matrix(.71287 0 0 .71287 141.23 -106.77)" d="m255 417.86a15.5 15.5 0 1 1 -31 0 15.5 15.5 0 1 1 31 0z" fill="url(#c)"/>
  <path transform="matrix(.43692 0 0 .43692 210.88 9.2526)" d="m255 417.86a15.5 15.5 0 1 1 -31 0 15.5 15.5 0 1 1 31 0z"/>
  <path transform="matrix(.71287 0 0 .71287 163.33 -118.89)" d="m180.01 413.25c-10.026 10.27-20.406 16.414-23.171 13.715s3.1277-13.225 13.153-23.494 20.406-16.414 23.171-13.715-3.1277 13.225-13.153 23.494z" fill="#fff" fill-opacity=".62745" filter="url(#j)"/>
  <path transform="matrix(.5498 .45375 -.45375 .5498 433.59 -157.72)" d="m262 501.86c0 7.452-2.464 13.5-5.5 13.5s-5.5-6.048-5.5-13.5 2.464-13.5 5.5-13.5 5.5 6.048 5.5 13.5z" fill="#fff" fill-opacity=".43439" filter="url(#i)"/>
  <path transform="matrix(.71287 0 0 .71287 211.81 -160.58)" d="m118.7 470.05a23.445 23.445 0 1 1 -46.889 0 23.445 23.445 0 1 1 46.889 0z" fill="#80b0fa"/>
  <path transform="matrix(.71287 0 0 .71287 211.81 -160.58)" d="m118.7 470.05a23.445 23.445 0 1 1 -46.889 0 23.445 23.445 0 1 1 46.889 0z" fill="url(#a)"/>
  <path transform="matrix(.51378 0 0 .51378 219.18 -75.287)" d="m118.7 470.05a23.445 23.445 0 1 1 -46.889 0 23.445 23.445 0 1 1 46.889 0z" fill="#80b0fa"/>
  <path transform="matrix(.51378 0 0 .51378 219.18 -75.287)" d="m118.7 470.05a23.445 23.445 0 1 1 -46.889 0 23.445 23.445 0 1 1 46.889 0z" fill="url(#a)"/>
  <path transform="matrix(.39176 0 0 .39176 222.03 -24.258)" d="m118.7 470.05a23.445 23.445 0 1 1 -46.889 0 23.445 23.445 0 1 1 46.889 0z" fill="#80b0fa"/>
  <path transform="matrix(.39176 0 0 .39176 222.03 -24.258)" d="m118.7 470.05a23.445 23.445 0 1 1 -46.889 0 23.445 23.445 0 1 1 46.889 0z" fill="url(#a)"/>
  <path d="m317.17 215.58c4.2409-2.4654 10.97-6.009 14.586-0.99409 2.3576-5.2218 6.5796-3.1245 11.13-0.3315-2.8534 4.7741-13.227 9.4519-25.717 1.3256z" fill="#f00" fill-rule="evenodd"/>
  <path d="m317.17 215.58c4.2409-2.4654 10.97-6.009 14.586-0.99409 2.3576-5.2218 6.5796-3.1245 11.13-0.3315-2.8534 4.7741-13.227 9.4519-25.717 1.3256z" fill="url(#f)" fill-rule="evenodd"/>
 </g>
</svg>
