<?xml version="1.0" encoding="UTF-8"?>
<svg viewBox="0 0 128 128" xmlns="http://www.w3.org/2000/svg" xmlns:xlink="http://www.w3.org/1999/xlink">
 <defs>
  <filter id="m" x="-.34802" y="-.34085" width="1.696" height="1.6817">
   <feGaussianBlur stdDeviation="5.46506"/>
  </filter>
  <filter id="l" x="-.51975" y="-.45339" width="2.0395" height="1.9068">
   <feGaussianBlur stdDeviation="4.15116"/>
  </filter>
  <filter id="k" x="-.07002" y="-.3401" width="1.14" height="1.6802">
   <feGaussianBlur stdDeviation="3.96783"/>
  </filter>
  <linearGradient id="a">
   <stop stop-opacity="0" offset="0"/>
   <stop stop-opacity=".57196" offset="1"/>
  </linearGradient>
  <radialGradient id="i" cx="210.89" cy="506.35" r="68" gradientTransform="matrix(1.4028 1.6439e-6 -1.4521e-7 .20588 -89.845 403.11)" gradientUnits="userSpaceOnUse">
   <stop offset="0"/>
   <stop stop-opacity="0" offset="1"/>
  </radialGradient>
  <radialGradient id="j" cx="216.99" cy="497.96" r="65" gradientTransform="matrix(.51027 1.0072 -.96511 .48897 655.29 -406.19)" gradientUnits="userSpaceOnUse" xlink:href="#a"/>
  <radialGradient id="b" cx="233.5" cy="409.86" r="15.5" gradientTransform="matrix(.3871 1.5161 -1.4234 .36342 726.51 -93.107)" gradientUnits="userSpaceOnUse" xlink:href="#a"/>
  <radialGradient id="h" cx="208.35" cy="408.81" r="58.521" gradientTransform="matrix(-1.0592 -.00172 .00018184 .06262 522.65 30.746)" gradientUnits="userSpaceOnUse" xlink:href="#a"/>
  <radialGradient id="f" cx="132.87" cy="408.73" r="10.283" gradientTransform="matrix(.82052 -.03436 .01964 .44177 136.62 -119.2)" gradientUnits="userSpaceOnUse" xlink:href="#a"/>
  <radialGradient id="e" cx="136.62" cy="419.19" r="7.9448" gradientTransform="matrix(.84199 .06449 -.06721 .90772 169.31 -327.13)" gradientUnits="userSpaceOnUse" xlink:href="#a"/>
  <radialGradient id="d" cx="392.24" cy="402.71" r="3.625" gradientTransform="matrix(1.2438 .39012 -.39366 1.2551 62.891 -255.76)" gradientUnits="userSpaceOnUse" xlink:href="#a"/>
  <radialGradient id="g" cx="208.35" cy="408.81" r="58.521" gradientTransform="matrix(-1.1068 .00451 -.00063794 .04378 532.67 40.492)" gradientUnits="userSpaceOnUse" xlink:href="#a"/>
  <radialGradient id="c" cx="390.32" cy="378.02" r="3.5355" gradientTransform="matrix(-4.7652 -1.8773 -36.118 3.3571 15733 -464.06)" gradientUnits="userSpaceOnUse" xlink:href="#a"/>
 </defs>
 <g transform="translate(-233.42 -11.735)">
  <path transform="matrix(.7548 0 0 .61103 146.27 -182.83)" d="m274 507.36c0 7.728-30.464 14-68 14s-68-6.272-68-14 30.464-14 68-14 68 6.272 68 14z" fill="url(#i)" filter="url(#k)"/>
  <path d="m348.1 83.695c0 3.4523-0.37818 26.777-1.0954 30.015-1.7638 8.8818-7.4732 13.995-16.047 15.942-3.985 0.7434-8.5178-15.558-13.437-15.648s-10.225 16.028-15.757 16.028c-5.5573 0-10.887-16.128-15.826-16.053s-9.4866 16.353-13.48 15.582c-9.0418-1.5005-13.769-7.6856-15.999-16.143-0.67582-3.1476-1.0316-26.374-1.0316-29.722 0-25.578 20.759-46.336 46.336-46.336s46.336 20.759 46.336 46.336z" fill="#501616"/>
  <path d="m348.16 83.644c0 3.4523-0.37818 26.777-1.0954 30.015-1.7638 8.8818-7.4732 13.995-16.047 15.942-3.985 0.7434-8.5178-15.558-13.437-15.648s-10.225 16.028-15.757 16.028c-5.5573 0-10.887-16.128-15.826-16.053s-9.4866 16.353-13.48 15.582c-9.0418-1.5005-13.769-7.6856-15.999-16.143-0.67582-3.1476-1.0316-26.374-1.0316-29.722 0-25.578 20.759-46.336 46.336-46.336s46.336 20.759 46.336 46.336z" fill="url(#j)"/>
  <path transform="matrix(.71287 0 0 .71287 159.19 -222.38)" d="m255 417.86c0 8.5604-6.9396 15.5-15.5 15.5s-15.5-6.9396-15.5-15.5 6.9396-15.5 15.5-15.5 15.5 6.9396 15.5 15.5z" fill="#fff"/>
  <path transform="matrix(.71287 0 0 .71287 159.19 -222.38)" d="m255 417.86c0 8.5604-6.9396 15.5-15.5 15.5s-15.5-6.9396-15.5-15.5 6.9396-15.5 15.5-15.5 15.5 6.9396 15.5 15.5z" fill="url(#b)"/>
  <path transform="matrix(.43692 0 0 .43692 228.84 -106.36)" d="m255 417.86c0 8.5604-6.9396 15.5-15.5 15.5s-15.5-6.9396-15.5-15.5 6.9396-15.5 15.5-15.5 15.5 6.9396 15.5 15.5z"/>
  <path transform="matrix(.71287 0 0 .71287 130.68 -222.38)" d="m255 417.86c0 8.5604-6.9396 15.5-15.5 15.5s-15.5-6.9396-15.5-15.5 6.9396-15.5 15.5-15.5 15.5 6.9396 15.5 15.5z" fill="#fff"/>
  <path transform="matrix(.71287 0 0 .71287 130.68 -222.38)" d="m255 417.86c0 8.5604-6.9396 15.5-15.5 15.5s-15.5-6.9396-15.5-15.5 6.9396-15.5 15.5-15.5 15.5 6.9396 15.5 15.5z" fill="url(#b)"/>
  <path transform="matrix(.43692 0 0 .43692 200.33 -106.36)" d="m255 417.86c0 8.5604-6.9396 15.5-15.5 15.5s-15.5-6.9396-15.5-15.5 6.9396-15.5 15.5-15.5 15.5 6.9396 15.5 15.5z"/>
  <path transform="matrix(.71287 0 0 .71287 153.03 -234.5)" d="m180.01 413.25c-10.026 10.27-20.406 16.414-23.171 13.715s3.1277-13.225 13.153-23.494 20.406-16.414 23.171-13.715-3.1277 13.225-13.153 23.494z" fill="#fff" fill-opacity=".62745" filter="url(#m)"/>
  <path transform="matrix(.5498 .45375 -.45375 .5498 423.03 -273.33)" d="m262 501.86c0 7.452-2.464 13.5-5.5 13.5s-5.5-6.048-5.5-13.5 2.464-13.5 5.5-13.5 5.5 6.048 5.5 13.5z" fill="#fff" fill-opacity=".43439" filter="url(#l)"/>
  <g transform="matrix(.75001 .44038 -.55039 .62734 174.95 -26.117)">
   <path d="m226.99 71.258 12.687-9.3417-106.28 9.4502 2.9792 8.3136 90.616-8.4222z" fill="#808000"/>
   <path d="m226.23 71.577 12.687-9.3417-106.7 9.1654 3.397 8.5985 90.616-8.4222z" fill="url(#c)"/>
  </g>
  <path d="m337.23 53.729-71.038-0.11555c-2.8845 1.0117-2.0011 2.9308-2.0357 4.6288l75.819 0.12332c0.36273-2.3095-0.68549-3.7755-2.7457-4.6366z" fill="#f00"/>
  <path d="m337.23 53.729-71.038-0.11555c-2.8845 1.0117-2.0011 2.9308-2.0357 4.6288l75.819 0.12332c0.36273-2.3095-0.68549-3.7755-2.7457-4.6366z" fill="url(#h)"/>
  <path d="m338.96 57.398-74.595 0.37472c-3.039 0.73757-2.1303 2.0957-2.1835 3.3027l79.616-0.39995c0.40374-1.6436-0.68249-2.6788-2.8374-3.2775z" fill="#fff"/>
  <path d="m338.6 57.558-74.236 0.30241c-3.0278 0.7228-2.13 2.0596-2.1886 3.2467l79.232-0.32277c0.4096-1.6164-0.66645-2.6355-2.808-3.2264z" fill="url(#g)"/>
  <path d="m252.11 68.715s9.7753-15.048 10.687-8.895-7.6033 7.0291-10.687 8.895z" fill="#f00" fill-rule="evenodd"/>
  <path d="m252.11 68.715s9.7753-15.048 10.687-8.895-7.6033 7.0291-10.687 8.895z" fill="url(#e)" fill-rule="evenodd"/>
  <path d="m248.22 61.126s17.935-1.018 13.034-4.8582-9.883 3.1092-13.034 4.8582z" fill="#f00" fill-rule="evenodd"/>
  <path d="m248.22 61.126s17.935-1.018 13.034-4.8582-9.883 3.1092-13.034 4.8582z" fill="url(#f)" fill-rule="evenodd"/>
  <path transform="matrix(.82225 .00552 -.00457 .67968 -57.865 -219.96)" d="m396.75 404.12a3.625 3.625 0 1 1 -7.25 0 3.625 3.625 0 1 1 7.25 0z" fill="#f00"/>
  <path transform="matrix(.82225 .00552 -.00457 .67968 -57.865 -219.96)" d="m396.75 404.12a3.625 3.625 0 1 1 -7.25 0 3.625 3.625 0 1 1 7.25 0z" fill="url(#d)"/>
 </g>
</svg>
