<?xml version="1.0" encoding="UTF-8"?>
<svg viewBox="0 0 128 128" xmlns="http://www.w3.org/2000/svg" xmlns:xlink="http://www.w3.org/1999/xlink">
 <defs>
  <filter id="m" x="-.34802" y="-.34085" width="1.696" height="1.6817">
   <feGaussianBlur stdDeviation="5.46506"/>
  </filter>
  <filter id="l" x="-.51975" y="-.45339" width="2.0395" height="1.9068">
   <feGaussianBlur stdDeviation="4.15116"/>
  </filter>
  <filter id="k" x="-.07002" y="-.3401" width="1.14" height="1.6802">
   <feGaussianBlur stdDeviation="3.96783"/>
  </filter>
  <linearGradient id="a">
   <stop stop-opacity="0" offset="0"/>
   <stop stop-opacity=".57196" offset="1"/>
  </linearGradient>
  <radialGradient id="j" cx="210.89" cy="506.35" r="68" gradientTransform="matrix(1.4028 1.6439e-6 -1.4521e-7 .20588 -89.845 403.11)" gradientUnits="userSpaceOnUse">
   <stop offset="0"/>
   <stop stop-opacity="0" offset="1"/>
  </radialGradient>
  <radialGradient id="i" cx="216.99" cy="497.96" r="65" gradientTransform="matrix(.7158 1.4128 -1.3538 .68592 735.84 -155.77)" gradientUnits="userSpaceOnUse" xlink:href="#a"/>
  <radialGradient id="b" cx="233.5" cy="409.86" r="15.5" gradientTransform="matrix(.3871 1.5161 -1.4234 .36342 726.51 -93.107)" gradientUnits="userSpaceOnUse" xlink:href="#a"/>
  <radialGradient id="h" cx="153.75" cy="399" r="24.75" gradientTransform="matrix(1.2978 .012269 -.024201 1.7777 -36.127 -312.17)" gradientUnits="userSpaceOnUse" xlink:href="#a"/>
  <radialGradient id="g" cx="159.58" cy="387.27" r="27.833" gradientTransform="matrix(.99621 -.087005 .08084 .92562 -30.702 39.798)" gradientUnits="userSpaceOnUse" xlink:href="#a"/>
  <radialGradient id="f" cx="153.75" cy="399" r="24.75" gradientTransform="matrix(1.5355 -.08482 .15285 1.9216 -143.32 -354.69)" gradientUnits="userSpaceOnUse" xlink:href="#a"/>
  <radialGradient id="e" cx="381.47" cy="469.03" r="7.0915" gradientTransform="matrix(1.9434 -.93101 .62973 1.3145 -670.54 208.05)" gradientUnits="userSpaceOnUse" xlink:href="#a"/>
  <radialGradient id="d" cx="404.13" cy="467.75" r="7.127" gradientTransform="matrix(1.1479 1.0671 -1.2524 1.3473 516.73 -591.03)" gradientUnits="userSpaceOnUse" xlink:href="#a"/>
  <radialGradient id="c" cx="348.61" cy="504.84" r="6" gradientTransform="matrix(1.7307 -.049827 .042714 1.4836 -246.27 -256.14)" gradientUnits="userSpaceOnUse" xlink:href="#a"/>
 </defs>
 <g transform="matrix(.71287 0 0 .71287 -196.69 -249.28)">
  <g transform="translate(156.45 4.2722)">
   <path transform="matrix(1.0588 0 0 .85714 -9.1176 72.48)" d="m274 507.36c0 7.728-30.464 14-68 14s-68-6.272-68-14 30.464-14 68-14 68 6.272 68 14z" fill="url(#j)" filter="url(#k)"/>
   <path transform="translate(-31,-85)" d="m305 531.36c0 4.8429-0.53051 37.563-1.5365 42.104-2.4742 12.459-10.483 19.633-22.511 22.363-5.5901 1.0428-11.949-21.824-18.85-21.951s-14.344 22.484-22.103 22.484c-7.7957 0-15.272-22.625-22.2-22.52s-13.308 22.94-18.91 21.858c-12.684-2.1049-19.316-10.781-22.443-22.645-0.94804-4.4155-1.4472-36.997-1.4472-41.694 0-35.88 29.12-65 65-65s65 29.12 65 65z" fill="#808000"/>
   <path transform="translate(-31,-85)" d="m305 531.36c0 4.8429-0.53051 37.563-1.5365 42.104-2.4742 12.459-10.483 19.633-22.511 22.363-5.5901 1.0428-11.949-21.824-18.85-21.951s-14.344 22.484-22.103 22.484c-7.7957 0-15.272-22.625-22.2-22.52s-13.308 22.94-18.91 21.858c-12.684-2.1049-19.316-10.781-22.443-22.645-0.94804-4.4155-1.4472-36.997-1.4472-41.694 0-35.88 29.12-65 65-65s65 29.12 65 65z" fill="url(#i)"/>
   <path transform="translate(9,17)" d="m255 417.86a15.5 15.5 0 1 1 -31 0 15.5 15.5 0 1 1 31 0z" fill="#fff"/>
   <path transform="translate(9,17)" d="m255 417.86a15.5 15.5 0 1 1 -31 0 15.5 15.5 0 1 1 31 0z" fill="url(#b)"/>
   <path transform="matrix(.6129 0 0 .6129 106.71 179.75)" d="m255 417.86a15.5 15.5 0 1 1 -31 0 15.5 15.5 0 1 1 31 0z"/>
   <path transform="translate(-31,17)" d="m255 417.86a15.5 15.5 0 1 1 -31 0 15.5 15.5 0 1 1 31 0z" fill="#fff"/>
   <path transform="translate(-31,17)" d="m255 417.86a15.5 15.5 0 1 1 -31 0 15.5 15.5 0 1 1 31 0z" fill="url(#b)"/>
   <path transform="matrix(.6129 0 0 .6129 66.71 179.75)" d="m255 417.86a15.5 15.5 0 1 1 -31 0 15.5 15.5 0 1 1 31 0z"/>
   <path d="m180.01 413.25c-10.026 10.27-20.406 16.414-23.171 13.715s3.1277-13.225 13.153-23.494 20.406-16.414 23.171-13.715-3.1277 13.225-13.153 23.494z" fill="#fff" fill-opacity=".62745" filter="url(#m)"/>
   <path transform="matrix(.77126 .63652 -.63652 .77126 379.12 -54.471)" d="m262 501.86c0 7.452-2.464 13.5-5.5 13.5s-5.5-6.048-5.5-13.5 2.464-13.5 5.5-13.5 5.5 6.048 5.5 13.5z" fill="#fff" fill-opacity=".43439" filter="url(#l)"/>
  </g>
  <path transform="matrix(.33542 -.76285 .91542 .4025 -20.028 353.18)" d="m178.5 399a24.75 44 0 1 1 -49.5 0 24.75 44 0 1 1 49.5 0z" fill="#a40"/>
  <path transform="matrix(.33542 -.76285 .91542 .4025 -20.028 353.18)" d="m178.5 399a24.75 44 0 1 1 -49.5 0 24.75 44 0 1 1 49.5 0z" fill="url(#h)"/>
  <path transform="translate(233.42 11.735)" d="m155.12 358.62c-5.5232 0.13309-9.6546 1.8518-11.094 5.125l-4 6c-2.8784 6.5464 6.128 16.859 20.094 23s27.622 5.7964 30.5-0.75l4-6c2.8784-6.5464-6.128-16.859-20.094-23-6.9828-3.0703-13.883-4.5081-19.406-4.375z" fill="#520"/>
  <path transform="translate(233.42 11.735)" d="m155.12 358.62c-5.5232 0.13309-9.6546 1.8518-11.094 5.125l-4 6c-2.8784 6.5464 6.128 16.859 20.094 23s27.622 5.7964 30.5-0.75l4-6c2.8784-6.5464-6.128-16.859-20.094-23-6.9828-3.0703-13.883-4.5081-19.406-4.375z" fill="url(#g)"/>
  <path transform="matrix(.21069 -.47917 .575 .25282 140.93 359.41)" d="m178.5 399a24.75 44 0 1 1 -49.5 0 24.75 44 0 1 1 49.5 0z" fill="#a40"/>
  <path transform="matrix(.21069 -.47917 .575 .25282 140.93 359.41)" d="m178.5 399a24.75 44 0 1 1 -49.5 0 24.75 44 0 1 1 49.5 0z" fill="url(#f)"/>
  <path d="m378.3 472.15c-4.8718-2.9479-8.8792-9.0007-15.169-6.8543-3.1226 6.272-1.8049 12.514-0.17593 18.754 4.9032-1.6434 9.4575-1.8497 15.08-6.4535l0.26572-5.4462z" fill="#0f0" fill-rule="evenodd"/>
  <path d="m389.35 471.77c4.8316-3.0134 8.7569-9.1197 15.076-7.0584 3.207 6.2293 1.9736 12.489 0.42896 18.75-4.925-1.5771-9.4816-1.7219-15.165-6.2494l-0.33918-5.4421z" fill="#0f0" fill-rule="evenodd"/>
  <path d="m378.3 472.15c-4.8718-2.9479-8.8792-9.0007-15.169-6.8543-3.1226 6.272-1.8049 12.514-0.17593 18.754 4.9032-1.6434 9.4575-1.8497 15.08-6.4535l0.26572-5.4462z" fill="url(#e)" fill-rule="evenodd"/>
  <path d="m389.35 471.77c4.8316-3.0134 8.7569-9.1197 15.076-7.0584 3.207 6.2293 1.9736 12.489 0.42896 18.75-4.925-1.5771-9.4816-1.7219-15.165-6.2494l-0.33918-5.4421z" fill="url(#d)" fill-rule="evenodd"/>
  <path transform="matrix(.99998 -.0067469 .0067469 .99998 0 0)" d="m377.77 470.76h6.775a3.8714 3.8714 0 0 1 3.8714 3.8714v6.4726a3.8714 3.8714 0 0 1 -3.8714 3.8714h-6.775a3.8714 3.8714 0 0 1 -3.8714 -3.8714v-6.4726a3.8714 3.8714 0 0 1 3.8714 -3.8714" fill="#0f0"/>
  <path transform="matrix(.99998 -.0067469 .0067469 .99998 0 0)" d="m377.77 470.76h6.775a3.8714 3.8714 0 0 1 3.8714 3.8714v6.4726a3.8714 3.8714 0 0 1 -3.8714 3.8714h-6.775a3.8714 3.8714 0 0 1 -3.8714 -3.8714v-6.4726a3.8714 3.8714 0 0 1 3.8714 -3.8714" fill="url(#c)"/>
 </g>
</svg>
