<?xml version="1.0" encoding="UTF-8"?>
<svg viewBox="0 0 128 128" xmlns="http://www.w3.org/2000/svg" xmlns:xlink="http://www.w3.org/1999/xlink">
 <defs>
  <filter id="o" x="-.34802" y="-.34085" width="1.696" height="1.6817">
   <feGaussianBlur stdDeviation="5.46506"/>
  </filter>
  <filter id="n" x="-.51975" y="-.45339" width="2.0395" height="1.9068">
   <feGaussianBlur stdDeviation="4.15116"/>
  </filter>
  <filter id="m" x="-.07002" y="-.3401" width="1.14" height="1.6802">
   <feGaussianBlur stdDeviation="3.96783"/>
  </filter>
  <filter id="d" x="-.39286" y="-.5919" width="1.7857" height="2.1838">
   <feGaussianBlur stdDeviation="1.73354"/>
  </filter>
  <filter id="c" x="-.38126" y="-.834" width="1.7625" height="2.668">
   <feGaussianBlur stdDeviation=".98288"/>
  </filter>
  <filter id="l" x="-.07742" y="-.24144" width="1.1548" height="1.4829">
   <feGaussianBlur stdDeviation=".4436"/>
  </filter>
  <filter id="k" x="-.07675" y="-.26551" width="1.1535" height="1.531">
   <feGaussianBlur stdDeviation=".4436"/>
  </filter>
  <linearGradient id="a">
   <stop offset="0"/>
   <stop stop-opacity="0" offset="1"/>
  </linearGradient>
  <linearGradient id="b">
   <stop stop-opacity="0" offset="0"/>
   <stop stop-opacity=".57196" offset="1"/>
  </linearGradient>
  <radialGradient id="j" cx="210.89" cy="506.35" r="68" gradientTransform="matrix(1.4028 1.6439e-6 -1.4521e-7 .20588 -89.845 403.11)" gradientUnits="userSpaceOnUse" xlink:href="#a"/>
  <radialGradient id="i" cx="216.99" cy="497.96" r="65" gradientTransform="matrix(.7158 1.4128 -1.3538 .68592 735.84 -155.77)" gradientUnits="userSpaceOnUse" xlink:href="#b"/>
  <radialGradient id="h" cx="305.61" cy="259.27" r="6.9041" gradientTransform="matrix(-2.4972 -.034591 .061321 -4.4268 1053.4 1414.7)" gradientUnits="userSpaceOnUse" xlink:href="#b"/>
  <radialGradient id="g" cx="575.81" cy="269.47" r="6.8948" gradientTransform="matrix(-1.6164 -.0096115 .01832 -3.0809 1501.6 1103.8)" gradientUnits="userSpaceOnUse" xlink:href="#b"/>
  <radialGradient id="f" cx="307.44" cy="273.5" r="6.9375" gradientTransform="matrix(1.4615 -.21496 .079255 .53886 -163.57 192.21)" gradientUnits="userSpaceOnUse" xlink:href="#a"/>
  <radialGradient id="e" cx="307.44" cy="273.5" r="6.9375" gradientTransform="matrix(1.0898 -.022704 .010506 .50433 -30.498 142.55)" gradientUnits="userSpaceOnUse" xlink:href="#a"/>
 </defs>
 <g transform="translate(-490.79 -241.62)">
  <g transform="matrix(.71287 0 0 .71287 405.8 -4.6158)">
   <path transform="matrix(1.0588 0 0 .85714 -9.1176 72.48)" d="m274 507.36c0 7.728-30.464 14-68 14s-68-6.272-68-14 30.464-14 68-14 68 6.272 68 14z" fill="url(#j)" filter="url(#m)"/>
   <path transform="translate(-31,-85)" d="m305 531.36c0 4.8429-0.53051 37.563-1.5365 42.104-2.4742 12.459-10.483 19.633-22.511 22.363-5.5901 1.0428-11.949-21.824-18.85-21.951s-14.344 22.484-22.103 22.484c-7.7957 0-15.272-22.625-22.2-22.52s-13.308 22.94-18.91 21.858c-12.684-2.1049-19.316-10.781-22.443-22.645-0.94804-4.4155-1.4472-36.997-1.4472-41.694 0-35.88 29.12-65 65-65s65 29.12 65 65z" fill="#0f0"/>
   <path transform="translate(-31,-85)" d="m305 531.36c0 4.8429-0.53051 37.563-1.5365 42.104-2.4742 12.459-10.483 19.633-22.511 22.363-5.5901 1.0428-11.949-21.824-18.85-21.951s-14.344 22.484-22.103 22.484c-7.7957 0-15.272-22.625-22.2-22.52s-13.308 22.94-18.91 21.858c-12.684-2.1049-19.316-10.781-22.443-22.645-0.94804-4.4155-1.4472-36.997-1.4472-41.694 0-35.88 29.12-65 65-65s65 29.12 65 65z" fill="url(#i)"/>
   <path d="m182.98 415.24c-10.026 10.27-20.406 16.414-23.171 13.715s3.1277-13.225 13.153-23.494 20.406-16.414 23.171-13.715-3.1277 13.225-13.153 23.494z" fill="#fff" fill-opacity=".62745" filter="url(#o)"/>
   <path transform="matrix(.77126 .63652 -.63652 .77126 379.12 -54.471)" d="m262 501.86c0 7.452-2.464 13.5-5.5 13.5s-5.5-6.048-5.5-13.5 2.464-13.5 5.5-13.5 5.5 6.048 5.5 13.5z" fill="#fff" fill-opacity=".43439" filter="url(#n)"/>
   <path d="m185.21 434.14c13.232-23.813 25.265-14.076 37.197-1.4879-0.39952 2.3972-19.376 28.966-37.197 1.4879z" fill="#fff" fill-rule="evenodd"/>
   <path d="m269.03 431.66c-13.232-23.813-25.265-14.076-37.197-1.4879 0.39952 2.3972 19.376 28.966 37.197 1.4879z" fill="#fff" fill-rule="evenodd"/>
   <path d="m185.21 434.14c13.232-23.813 25.265-14.076 37.197-1.4879-0.39952 2.3972-19.376 28.966-37.197 1.4879z" fill-rule="evenodd"/>
   <path d="m269.03 431.66c-13.232-23.813-25.265-14.076-37.197-1.4879 0.39952 2.3972 19.376 28.966 37.197 1.4879z" fill-rule="evenodd"/>
   <path transform="matrix(.63329 1.0548 -1.3113 .78734 428.32 -145.66)" d="m326.25 293.38c0 2.553-1.68 4.625-3.75 4.625s-3.75-2.072-3.75-4.625 1.68-4.625 3.75-4.625 3.75 2.072 3.75 4.625z" fill="#fff" fill-opacity=".45575" filter="url(#d)"/>
   <path transform="matrix(.63329 1.0548 -1.3113 .78734 378.72 -141.69)" d="m326.25 293.38c0 2.553-1.68 4.625-3.75 4.625s-3.75-2.072-3.75-4.625 1.68-4.625 3.75-4.625 3.75 2.072 3.75 4.625z" fill="#fff" fill-opacity=".45575" filter="url(#d)"/>
  </g>
  <path transform="matrix(.99928 -.038049 .038049 .99928 223.49 23.002)" d="m306 270.53c-2.284-0.22236-8.6187 1.3626-5.625 4.5 4.4276 1.9635 11.173 2.6235 14.906-0.90625 0.38897-4.117-6.799-3.431-9.2812-3.5938z" fill="url(#f)" fill-opacity=".76549" filter="url(#l)"/>
  <path transform="translate(233.42 11.735)" d="m301.25 273.5c4.9386 2.0175 10.553 2.371 13.5-2.25-5.7178-1.6286-7.4978-5.0877-3.5425-10.862 1.7338-2.5311-1.1672-5.9368-0.20754-9.638-2.1667-1.8333-5.9167-1.9167-8.75 0.25 1.4359 3.801 5.1385 5.6684 3.0732 8.903-2.1527 3.3715-5.3981 9.5589-4.0732 13.597z" fill="#0f0" fill-rule="evenodd"/>
  <path transform="matrix(.99978 .020828 -.020828 .99978 276.31 2.1404)" d="m306 270.53c-2.284-0.22236-8.6187 1.3626-5.625 4.5 4.4276 1.9635 11.173 2.6235 14.906-0.90625 0.38897-4.117-6.799-3.431-9.2812-3.5938z" fill="url(#e)" fill-opacity=".76549" filter="url(#k)"/>
  <path d="m585.08 281.68c-4.6836 2.5541-10.224 3.5297-13.666-0.73496 5.5013-2.2543 6.8856-5.8898 2.3127-11.188-2.0045-2.3226 0.49988-6.0298-0.86541-9.6014 1.9494-2.0629 5.6669-2.5627 8.7235-0.72448-1.0043 3.9371-4.4764 6.2046-2.0642 9.1895 2.5143 3.1112 6.4275 8.8994 5.5598 13.06z" fill="#0f0" fill-rule="evenodd"/>
  <path transform="translate(233.42 11.735)" d="m301.25 273.5c4.9386 2.0175 10.553 2.371 13.5-2.25-5.7178-1.6286-7.4978-5.0877-3.5425-10.862 1.7338-2.5311-1.1672-5.9368-0.20754-9.638-2.1667-1.8333-5.9167-1.9167-8.75 0.25 1.4359 3.801 5.1385 5.6684 3.0732 8.903-2.1527 3.3715-5.3981 9.5589-4.0732 13.597z" fill="url(#h)" fill-rule="evenodd"/>
  <path d="m585.08 281.68c-4.6836 2.5541-10.224 3.5297-13.666-0.73496 5.5013-2.2543 6.8856-5.8898 2.3127-11.188-2.0045-2.3226 0.49988-6.0298-0.86541-9.6014 1.9494-2.0629 5.6669-2.5627 8.7235-0.72448-1.0043 3.9371-4.4764 6.2046-2.0642 9.1895 2.5143 3.1112 6.4275 8.8994 5.5598 13.06z" fill="url(#g)" fill-rule="evenodd"/>
  <path transform="translate(233.42 10.497)" d="m309.89 252.65c0 0.78065-1.3859 1.4142-3.0936 1.4142s-3.0936-0.63357-3.0936-1.4142 1.3859-1.4142 3.0936-1.4142 3.0936 0.63357 3.0936 1.4142z" fill="#fff" fill-opacity=".76549" filter="url(#c)"/>
  <path transform="translate(270.54 7.4919)" d="m309.89 252.65c0 0.78065-1.3859 1.4142-3.0936 1.4142s-3.0936-0.63357-3.0936-1.4142 1.3859-1.4142 3.0936-1.4142 3.0936 0.63357 3.0936 1.4142z" fill="#fff" fill-opacity=".76549" filter="url(#c)"/>
 </g>
</svg>
