<?xml version="1.0" encoding="UTF-8"?>
<svg viewBox="0 0 128 128" xmlns="http://www.w3.org/2000/svg" xmlns:xlink="http://www.w3.org/1999/xlink">
 <defs>
  <filter id="q" x="-.34802" y="-.34085" width="1.696" height="1.6817">
   <feGaussianBlur stdDeviation="5.46506"/>
  </filter>
  <filter id="p" x="-.51975" y="-.45339" width="2.0395" height="1.9068">
   <feGaussianBlur stdDeviation="4.15116"/>
  </filter>
  <filter id="o" x="-.07002" y="-.3401" width="1.14" height="1.6802">
   <feGaussianBlur stdDeviation="3.96783"/>
  </filter>
  <linearGradient id="a">
   <stop stop-opacity="0" offset="0"/>
   <stop stop-opacity=".57196" offset="1"/>
  </linearGradient>
  <radialGradient id="n" cx="210.89" cy="506.35" r="68" gradientTransform="matrix(1.4028 1.6439e-6 -1.4521e-7 .20588 -89.845 403.11)" gradientUnits="userSpaceOnUse">
   <stop offset="0"/>
   <stop stop-opacity="0" offset="1"/>
  </radialGradient>
  <radialGradient id="m" cx="216.99" cy="497.96" r="65" gradientTransform="matrix(.7158 1.4128 -1.3538 .68592 735.84 -155.77)" gradientUnits="userSpaceOnUse" xlink:href="#a"/>
  <radialGradient id="b" cx="233.5" cy="409.86" r="15.5" gradientTransform="matrix(.3871 1.5161 -1.4234 .36342 726.51 -93.107)" gradientUnits="userSpaceOnUse" xlink:href="#a"/>
  <radialGradient id="l" cx="186.83" cy="380.03" r="2.3672" gradientTransform="matrix(1.3782 -.017187 .074074 5.94 -98.818 -1876.2)" gradientUnits="userSpaceOnUse" xlink:href="#a"/>
  <radialGradient id="k" cx="442.89" cy="-12.793" r="42.766" gradientTransform="matrix(1.5641 -.024614 .0091991 .58454 -249.7 31.41)" gradientUnits="userSpaceOnUse" xlink:href="#a"/>
  <radialGradient id="j" cx="415.03" cy="60.533" r="5.0625" gradientTransform="matrix(1.2121 .13348 -.31598 2.8693 -68.891 -166.14)" gradientUnits="userSpaceOnUse" xlink:href="#a"/>
  <radialGradient id="i" cx="414.81" cy="60.831" r="5.0625" gradientTransform="matrix(1.266 -.030432 .070806 2.9457 -114.67 -102.93)" gradientUnits="userSpaceOnUse" xlink:href="#a"/>
  <radialGradient id="h" cx="413.84" cy="60.363" r="5.0625" gradientTransform="matrix(1.5043 .03924 -.08454 3.241 -203.61 -149.32)" gradientUnits="userSpaceOnUse" xlink:href="#a"/>
  <radialGradient id="g" cx="432.2" cy="61.364" r="3" gradientTransform="matrix(1.461 .48755 -.14338 5.2502 -190.45 -474.97)" gradientUnits="userSpaceOnUse" xlink:href="#a"/>
  <radialGradient id="f" cx="432.67" cy="60.772" r="3" gradientTransform="matrix(1.461 .48755 -.14338 5.2502 -190.45 -474.97)" gradientUnits="userSpaceOnUse" xlink:href="#a"/>
  <radialGradient id="e" cx="414.42" cy="57.798" r="5.0625" gradientTransform="matrix(1.2121 .13348 -.31598 2.8693 -68.891 -166.14)" gradientUnits="userSpaceOnUse" xlink:href="#a"/>
  <radialGradient id="d" cx="415.38" cy="58.218" r="5.0625" gradientTransform="matrix(1.266 -.030432 .070806 2.9457 -114.67 -102.93)" gradientUnits="userSpaceOnUse" xlink:href="#a"/>
  <radialGradient id="c" cx="413.71" cy="57.452" r="5.0625" gradientTransform="matrix(1.5043 .03924 -.08454 3.241 -203.61 -149.32)" gradientUnits="userSpaceOnUse" xlink:href="#a"/>
 </defs>
 <g transform="matrix(.71287 0 0 .71287 -83.642 -246.24)">
  <path transform="matrix(-2.3395 .07742 -.38564 1.7279 1287 283.03)" d="m436.5 62.375a3 12.625 0 1 1 -6 0 3 12.625 0 1 1 6 0z" fill="#f9f9f9"/>
  <path transform="matrix(-2.3395 .07742 -.38564 1.7279 1287 283.03)" d="m436.5 62.375a3 12.625 0 1 1 -6 0 3 12.625 0 1 1 6 0z" fill="url(#f)"/>
  <path transform="matrix(-.19631 1.2353 1.2353 .19631 270 -93.906)" d="m421.5 58.688a5.0625 11.688 0 1 1 -10.125 0 5.0625 11.688 0 1 1 10.125 0z" fill="#f9f9f9"/>
  <path transform="matrix(-.19631 1.2353 1.2353 .19631 270 -93.906)" d="m421.5 58.688a5.0625 11.688 0 1 1 -10.125 0 5.0625 11.688 0 1 1 10.125 0z" fill="url(#e)"/>
  <path transform="matrix(-.24294 1.5287 1.5287 .24294 276.57 -228.02)" d="m421.5 58.688a5.0625 11.688 0 1 1 -10.125 0 5.0625 11.688 0 1 1 10.125 0z" fill="#f9f9f9"/>
  <path transform="matrix(-.24294 1.5287 1.5287 .24294 276.57 -228.02)" d="m421.5 58.688a5.0625 11.688 0 1 1 -10.125 0 5.0625 11.688 0 1 1 10.125 0z" fill="url(#d)"/>
  <path transform="matrix(-.30674 1.9302 1.9302 .30674 286.14 -408.9)" d="m421.5 58.688a5.0625 11.688 0 1 1 -10.125 0 5.0625 11.688 0 1 1 10.125 0z" fill="#f9f9f9"/>
  <path transform="matrix(-.30674 1.9302 1.9302 .30674 286.14 -408.9)" d="m421.5 58.688a5.0625 11.688 0 1 1 -10.125 0 5.0625 11.688 0 1 1 10.125 0z" fill="url(#c)"/>
  <path d="m185.34 371.35h4.7344v18.762h-4.7344z" fill="#008080"/>
  <path d="m185.34 371.35h4.7344v18.762h-4.7344z" fill="url(#l)"/>
  <path transform="matrix(1.0588 0 0 .85714 -9.1176 72.48)" d="m274 507.36c0 7.728-30.464 14-68 14s-68-6.272-68-14 30.464-14 68-14 68 6.272 68 14z" fill="url(#n)" filter="url(#o)"/>
  <path transform="translate(-31,-85)" d="m305 531.36c0 4.8429-0.53051 37.563-1.5365 42.104-2.4742 12.459-10.483 19.633-22.511 22.363-5.5901 1.0428-11.949-21.824-18.85-21.951s-14.344 22.484-22.103 22.484c-7.7957 0-15.272-22.625-22.2-22.52s-13.308 22.94-18.91 21.858c-12.684-2.1049-19.316-10.781-22.443-22.645-0.94804-4.4155-1.4472-36.997-1.4472-41.694 0-35.88 29.12-65 65-65s65 29.12 65 65z" fill="#f4e3d7"/>
  <path transform="translate(-31,-85)" d="m305 531.36c0 4.8429-0.53051 37.563-1.5365 42.104-2.4742 12.459-10.483 19.633-22.511 22.363-5.5901 1.0428-11.949-21.824-18.85-21.951s-14.344 22.484-22.103 22.484c-7.7957 0-15.272-22.625-22.2-22.52s-13.308 22.94-18.91 21.858c-12.684-2.1049-19.316-10.781-22.443-22.645-0.94804-4.4155-1.4472-36.997-1.4472-41.694 0-35.88 29.12-65 65-65s65 29.12 65 65z" fill="url(#m)"/>
  <path transform="translate(9,17)" d="m255 417.86a15.5 15.5 0 1 1 -31 0 15.5 15.5 0 1 1 31 0z" fill="#fff"/>
  <path transform="translate(9,17)" d="m255 417.86a15.5 15.5 0 1 1 -31 0 15.5 15.5 0 1 1 31 0z" fill="url(#b)"/>
  <path transform="matrix(.6129 0 0 .6129 106.71 179.75)" d="m255 417.86a15.5 15.5 0 1 1 -31 0 15.5 15.5 0 1 1 31 0z"/>
  <path transform="translate(-31,17)" d="m255 417.86a15.5 15.5 0 1 1 -31 0 15.5 15.5 0 1 1 31 0z" fill="#fff"/>
  <path transform="translate(-31,17)" d="m255 417.86a15.5 15.5 0 1 1 -31 0 15.5 15.5 0 1 1 31 0z" fill="url(#b)"/>
  <path transform="matrix(.6129 0 0 .6129 66.71 179.75)" d="m255 417.86a15.5 15.5 0 1 1 -31 0 15.5 15.5 0 1 1 31 0z"/>
  <path d="m180.01 413.25c-10.026 10.27-20.406 16.414-23.171 13.715s3.1277-13.225 13.153-23.494 20.406-16.414 23.171-13.715-3.1277 13.225-13.153 23.494z" fill="#fff" fill-opacity=".62745" filter="url(#q)"/>
  <path transform="matrix(.77126 .63652 -.63652 .77126 379.12 -54.471)" d="m262 501.86c0 7.452-2.464 13.5-5.5 13.5s-5.5-6.048-5.5-13.5 2.464-13.5 5.5-13.5 5.5 6.048 5.5 13.5z" fill="#fff" fill-opacity=".43439" filter="url(#p)"/>
  <path transform="matrix(1.4028 0 0 1.4028 -433.99 354.7)" d="m459.53 10.906c-23.605 0-42.781 4.3087-42.781 9.625s19.177 9.625 42.781 9.625 42.75-4.3087 42.75-9.625-19.145-9.625-42.75-9.625zm0.1875 1.125c19.914 0 36.062 3.4134 36.062 7.625s-16.148 7.625-36.062 7.625-36.094-3.4134-36.094-7.625 16.18-7.625 36.094-7.625z" fill="#ff0"/>
  <path transform="matrix(1.4028 0 0 1.4028 -433.99 354.7)" d="m459.53 10.906c-23.605 0-42.781 4.3087-42.781 9.625s19.177 9.625 42.781 9.625 42.75-4.3087 42.75-9.625-19.145-9.625-42.75-9.625zm0.1875 1.125c19.914 0 36.062 3.4134 36.062 7.625s-16.148 7.625-36.062 7.625-36.094-3.4134-36.094-7.625 16.18-7.625 36.094-7.625z" fill="url(#k)"/>
  <path transform="matrix(2.3218 -.29746 .65683 1.6441 -881.2 470.52)" d="m436.5 62.375a3 12.625 0 1 1 -6 0 3 12.625 0 1 1 6 0z" fill="#f9f9f9"/>
  <path transform="matrix(2.3218 -.29746 .65683 1.6441 -881.2 470.52)" d="m436.5 62.375a3 12.625 0 1 1 -6 0 3 12.625 0 1 1 6 0z" fill="url(#g)"/>
  <path transform="matrix(.39121 1.1881 -1.1881 .39121 62.511 -64.102)" d="m421.5 58.688a5.0625 11.688 0 1 1 -10.125 0 5.0625 11.688 0 1 1 10.125 0z" fill="#f9f9f9"/>
  <path transform="matrix(.39121 1.1881 -1.1881 .39121 62.511 -64.102)" d="m421.5 58.688a5.0625 11.688 0 1 1 -10.125 0 5.0625 11.688 0 1 1 10.125 0z" fill="url(#j)"/>
  <path transform="matrix(.48412 1.4702 -1.4702 .48412 34.592 -195.44)" d="m421.5 58.688a5.0625 11.688 0 1 1 -10.125 0 5.0625 11.688 0 1 1 10.125 0z" fill="#f9f9f9"/>
  <path transform="matrix(.48412 1.4702 -1.4702 .48412 34.592 -195.44)" d="m421.5 58.688a5.0625 11.688 0 1 1 -10.125 0 5.0625 11.688 0 1 1 10.125 0z" fill="url(#i)"/>
  <path transform="matrix(.61126 1.8564 -1.8564 .61126 -3.7611 -372.46)" d="m421.5 58.688a5.0625 11.688 0 1 1 -10.125 0 5.0625 11.688 0 1 1 10.125 0z" fill="#f9f9f9"/>
  <path transform="matrix(.61126 1.8564 -1.8564 .61126 -3.7611 -372.46)" d="m421.5 58.688a5.0625 11.688 0 1 1 -10.125 0 5.0625 11.688 0 1 1 10.125 0z" fill="url(#h)"/>
 </g>
</svg>
