<?xml version="1.0" encoding="UTF-8"?>
<svg viewBox="0 0 128 128" xmlns="http://www.w3.org/2000/svg" xmlns:xlink="http://www.w3.org/1999/xlink">
 <defs>
  <filter id="n" x="-.34802" y="-.34085" width="1.696" height="1.6817">
   <feGaussianBlur stdDeviation="5.46506"/>
  </filter>
  <filter id="m" x="-.51975" y="-.45339" width="2.0395" height="1.9068">
   <feGaussianBlur stdDeviation="4.15116"/>
  </filter>
  <filter id="l" x="-.07002" y="-.3401" width="1.14" height="1.6802">
   <feGaussianBlur stdDeviation="3.96783"/>
  </filter>
  <linearGradient id="c">
   <stop offset="0"/>
   <stop stop-opacity="0" offset="1"/>
  </linearGradient>
  <linearGradient id="a">
   <stop stop-opacity="0" offset="0"/>
   <stop stop-opacity=".57196" offset="1"/>
  </linearGradient>
  <linearGradient id="k" x1="224.33" x2="317.3" y1="9.3839" y2="49.13" gradientUnits="userSpaceOnUse" xlink:href="#c"/>
  <linearGradient id="j" x1="271.31" x2="271.56" gradientUnits="userSpaceOnUse" xlink:href="#a"/>
  <linearGradient id="i" x1="264.31" x2="264.51" gradientUnits="userSpaceOnUse" xlink:href="#a"/>
  <linearGradient id="h" x1="257.85" x2="258.1" gradientUnits="userSpaceOnUse" xlink:href="#a"/>
  <radialGradient id="g" cx="210.89" cy="506.35" r="68" gradientTransform="matrix(1.4028 1.6439e-6 -1.4521e-7 .20588 -89.845 403.11)" gradientUnits="userSpaceOnUse" xlink:href="#c"/>
  <radialGradient id="f" cx="243.65" cy="471.2" r="3.3848" gradientTransform="matrix(.64472 .06162 -.28259 1.4664 303.36 -611.74)" gradientUnits="userSpaceOnUse" xlink:href="#a"/>
  <radialGradient id="e" cx="216.99" cy="497.96" r="65" gradientTransform="matrix(.51027 1.0072 -.96511 .48897 650.9 -405.93)" gradientUnits="userSpaceOnUse" xlink:href="#a"/>
  <radialGradient id="b" cx="233.5" cy="409.86" r="15.5" gradientTransform="matrix(.3871 1.5161 -1.4234 .36342 726.51 -93.107)" gradientUnits="userSpaceOnUse" xlink:href="#a"/>
  <radialGradient id="d" cx="217.88" cy="470.88" r="3.6592" gradientTransform="matrix(1.1954 -.01425 .05001 2.8661 19.761 -1248.1)" gradientUnits="userSpaceOnUse" xlink:href="#a"/>
 </defs>
 <g transform="translate(-233.42 -11.735)">
  <path transform="matrix(.7548 0 0 .61103 141.94 -182.83)" d="m274 507.36c0 7.728-30.464 14-68 14s-68-6.272-68-14 30.464-14 68-14 68 6.272 68 14z" fill="url(#g)" filter="url(#l)"/>
  <path d="m343.77 83.695c0 3.4523-0.37818 26.777-1.0954 30.015-1.7638 8.8818-7.4732 13.995-16.047 15.942-3.985 0.7434-8.5178-15.558-13.437-15.648s-10.225 16.028-15.757 16.028c-5.5573 0-10.887-16.128-15.826-16.053s-9.4866 16.353-13.48 15.582c-9.0418-1.5005-13.769-7.6856-15.999-16.143-0.67582-3.1476-1.0316-26.374-1.0316-29.722 0-25.578 20.759-46.336 46.336-46.336s46.336 20.759 46.336 46.336z" fill="#00f"/>
  <path d="m343.77 83.909c0 3.4523-0.37818 26.777-1.0954 30.015-1.7638 8.8818-7.4732 13.995-16.047 15.942-3.985 0.7434-8.5178-15.558-13.437-15.648s-10.225 16.028-15.757 16.028c-5.5573 0-10.887-16.128-15.826-16.053s-9.4866 16.353-13.48 15.582c-9.0418-1.5005-13.769-7.6856-15.999-16.143-0.67582-3.1476-1.0316-26.374-1.0316-29.722 0-25.578 20.759-46.336 46.336-46.336s46.336 20.759 46.336 46.336z" fill="url(#e)"/>
  <g transform="translate(-94.237 -3.9533)">
   <path transform="matrix(.71287 0 0 .71287 252.51 -219.82)" d="m253.98 412.34c3.0523 7.9978-0.95683 16.956-8.9546 20.008s-16.956-0.95683-20.008-8.9546c-0.0898-0.23519-0.17378-0.47254-0.25198-0.71183" fill="#fff"/>
   <path transform="matrix(.71287 0 0 .71287 252.51 -219.82)" d="m253.88 412.08c3.192 7.943-0.65951 16.97-8.6026 20.162s-16.97-0.65951-20.162-8.6026c-0.1084-0.26975-0.20919-0.54249-0.30225-0.8179" fill="url(#b)"/>
   <path transform="matrix(-.41386 .14005 .14005 .41386 460.08 -127.15)" d="m255 417.8c0.0352 8.5603-6.8758 15.528-15.436 15.564s-15.528-6.8758-15.564-15.436c-8.6e-4 -0.2105 3e-3 -0.42099 0.0103-0.63135"/>
  </g>
  <path transform="matrix(.69568 -.15558 .15558 .69568 72.363 -178.02)" d="m253.17 425.17c-4.0353 7.5496-13.427 10.399-20.976 6.3633s-10.399-13.427-6.3633-20.976c0.1828-0.342 0.37837-0.67702 0.5863-1.0044l13.084 8.3109z" fill="#fff"/>
  <path transform="matrix(.69568 -.15558 .15558 .69568 72.363 -178.02)" d="m253.25 425.02c-3.9528 7.5932-13.313 10.544-20.906 6.5915s-10.544-13.313-6.5915-20.906c0.23037-0.44252 0.48197-0.87367 0.75391-1.2919l12.995 8.4491z" fill="url(#b)"/>
  <path transform="matrix(.42333 .10813 -.10813 .42333 251.52 -126.23)" d="m255 417.98c-0.063 8.5602-7.0535 15.449-15.614 15.386s-15.449-7.0535-15.386-15.614c2e-3 -0.25564 0.0101-0.5112 0.0246-0.76644l15.475 0.8805z"/>
  <path transform="matrix(.71287 0 0 .71287 148.44 -234.5)" d="m180.01 413.25c-10.026 10.27-20.406 16.414-23.171 13.715s3.1277-13.225 13.153-23.494 20.406-16.414 23.171-13.715-3.1277 13.225-13.153 23.494z" fill="#fff" fill-opacity=".62745" filter="url(#n)"/>
  <path transform="matrix(.5498 .45375 -.45375 .5498 418.7 -273.33)" d="m262 501.86c0 7.452-2.464 13.5-5.5 13.5s-5.5-6.048-5.5-13.5 2.464-13.5 5.5-13.5 5.5 6.048 5.5 13.5z" fill="#fff" fill-opacity=".43439" filter="url(#m)"/>
  <path d="m329.71 94.532c-5.3004 3.4657-10.886 2.1185-18.642 1.0776l-2.6162-0.7232c8.1499-0.22781 12.941 1.3823 20.97-0.94742l0.28791 0.59338z" fill-rule="evenodd"/>
  <g transform="matrix(.83616 0 0 .63719 55.613 33.693)" fill-rule="evenodd">
   <path d="m302.92 96.256c0.38133 4.2348 2.5263 7.2652 4.3226 10.534 0.39706-3.4142 1.5875-6.3154 0.3392-10.794-2.8223-0.44327-3.4613 0.0256-4.6618 0.2599z" fill="#fff"/>
   <path d="m302.92 96.265c0.38133 4.3173 2.5263 7.4066 4.3226 10.739 0.39706-3.4807 1.5875-6.4384 0.3392-11.004-2.8223-0.45189-3.4613 0.0261-4.6618 0.26496z" fill="url(#d)"/>
  </g>
  <g transform="translate(1.2821 1.9232)" fill-rule="evenodd">
   <path d="m326.71 92.629c-0.48088 2.5229 0.43943 4.5146 1.0827 6.6113 0.86352-1.9639 2.1735-3.5478 2.1112-6.2997-1.8289-0.54106-2.3422-0.32955-3.1939-0.31158z" fill="#fff"/>
   <path d="m326.71 92.629c-0.48088 2.5229 0.43943 4.5146 1.0827 6.6113 0.86352-1.9639 2.1735-3.5478 2.1112-6.2997-1.8289-0.54106-2.3422-0.32955-3.1939-0.31158z" fill="url(#f)"/>
  </g>
  <path d="m278.51 77.337-4.9149 10.257 7.2654 10.684-9.4023-10.257 7.0518-10.684z" fill="#00f" stroke="#000" stroke-width=".5"/>
  <path transform="translate(233.42 11.735)" d="m38.464 66.03-4.2738 10.257 7.4791 11.539-10.684-10.898 7.4791-10.898z" fill="#00f" stroke="#000" stroke-width=".4"/>
  <path transform="translate(233.42 11.735)" d="m34.404 66.03-6.197 11.112 4.9149 11.753-8.5476-11.326 9.8297-11.539z" fill="#00f" stroke="#000" stroke-width=".5"/>
  <path d="m281.26 44.334c6.9357 0.25432 6.236 3.7272 27.489-2.0535-10.349-20.192-26.039-23.262-41.686-26.468 5.3008 9.5355 14.975 19.289 14.197 28.522z" fill="#00f"/>
  <path d="m281.48 44.167c6.9357 0.25432 6.236 3.7272 27.489-2.0535-10.349-20.192-26.039-23.262-41.686-26.468 5.3008 9.5355 14.975 19.289 14.197 28.522z" fill="url(#k)"/>
  <path d="m278.62 77.658-4.9149 10.257 7.2654 10.684-9.4023-10.257 7.0518-10.684z" fill="url(#j)"/>
  <path d="m271.99 78.085-4.2738 10.257 7.4791 11.539-10.684-10.898 7.4791-10.898z" fill="url(#i)"/>
  <path d="m267.93 78.085-6.197 11.112 4.9149 11.753-8.5476-11.326 9.8297-11.539z" fill="url(#h)"/>
 </g>
</svg>
