<?xml version="1.0" encoding="UTF-8"?>
<svg viewBox="0 0 128 128" xmlns="http://www.w3.org/2000/svg" xmlns:xlink="http://www.w3.org/1999/xlink">
 <defs>
  <filter id="g" x="-.34802" y="-.34085" width="1.696" height="1.6817">
   <feGaussianBlur stdDeviation="5.46506"/>
  </filter>
  <filter id="f" x="-.51975" y="-.45339" width="2.0395" height="1.9068">
   <feGaussianBlur stdDeviation="4.15116"/>
  </filter>
  <filter id="e" x="-.07002" y="-.3401" width="1.14" height="1.6802">
   <feGaussianBlur stdDeviation="3.96783"/>
  </filter>
  <linearGradient id="b">
   <stop stop-opacity="0" offset="0"/>
   <stop stop-opacity=".57196" offset="1"/>
  </linearGradient>
  <radialGradient id="d" cx="210.89" cy="506.35" r="68" gradientTransform="matrix(1.4028 1.6439e-6 -1.4521e-7 .20588 -89.845 403.11)" gradientUnits="userSpaceOnUse">
   <stop offset="0"/>
   <stop stop-opacity="0" offset="1"/>
  </radialGradient>
  <radialGradient id="c" cx="216.99" cy="497.96" r="65" gradientTransform="matrix(.7158 1.4128 -1.3538 .68592 735.84 -155.77)" gradientUnits="userSpaceOnUse" xlink:href="#b"/>
  <radialGradient id="a" cx="233.5" cy="409.86" r="15.5" gradientTransform="matrix(.3871 1.5161 -1.4234 .36342 726.51 -93.107)" gradientUnits="userSpaceOnUse" xlink:href="#b"/>
 </defs>
 <g transform="matrix(.71287 0 0 .71287 -84.989 -246.24)">
  <path transform="matrix(1.0588 0 0 .85714 -9.1176 72.48)" d="m274 507.36c0 7.728-30.464 14-68 14s-68-6.272-68-14 30.464-14 68-14 68 6.272 68 14z" fill="url(#d)" filter="url(#e)"/>
  <path transform="translate(-31,-85)" d="m305 531.36c0 4.8429-0.53051 37.563-1.5365 42.104-2.4742 12.459-10.483 19.633-22.511 22.363-5.5901 1.0428-11.949-21.824-18.85-21.951s-14.344 22.484-22.103 22.484c-7.7957 0-15.272-22.625-22.2-22.52s-13.308 22.94-18.91 21.858c-12.684-2.1049-19.316-10.781-22.443-22.645-0.94804-4.4155-1.4472-36.997-1.4472-41.694 0-35.88 29.12-65 65-65s65 29.12 65 65z" fill="#e9c4af"/>
  <path transform="matrix(1.4028 0 0 1.4028 -72.748 -164.87)" d="m200.84 389.41c-5.8072 0-11.345 1.0777-16.469 3.0312v6.7188h30.469v-7.625c-4.4148-1.398-9.1247-2.125-14-2.125zm15.688 2.7188v7.0312h12.75c-3.8223-2.9778-8.1062-5.3602-12.75-7.0312zm-34.062 1.0625c-3.6163 1.5658-6.9932 3.5775-10.062 5.9688h10.062v-5.9688zm-11.625 7.25c-1.6218 1.3804-3.1446 2.8492-4.5625 4.4375v7.4688h30.469v-11.906h-25.906zm27.594 0v11.906h30.438v-11.906h-30.438zm31.938 0v11.906h10.469c-2.6448-4.5093-6.0412-8.5368-10-11.906h-0.46875zm-66 6.7188c-1.2854 1.6385-2.4725 3.3824-3.5312 5.1875h3.5312v-5.1875zm-4.2812 6.5c-2.007 3.693-3.4921 7.6942-4.4375 11.906h24.906v-11.906h-20.469zm22.375 0v11.906h30.469v-11.906h-30.469zm32.156 0v11.906h30.438v-3.7188c-0.89911-2.8667-2.0573-5.5903-3.4688-8.1875h-26.969zm-59.281 13.406c-0.53389 2.8127-0.84375 5.6889-0.84375 8.6562 0 0.48371 0.04776 2.0572 0.0625 3.25h9.8125v-11.906h-9.0312zm10.938 0v11.906h30.469v-11.906h-30.469zm32.156 0v11.906h30.438v-11.906h-30.438zm31.938 0v11.906h16.781c0.01532-1.1878 0.03125-2.7568 0.03125-3.25 0-2.9668-0.2788-5.844-0.8125-8.6562h-16zm-75.812 13.219c0.04806 3.2865 0.12438 7.4754 0.25 11.906h25.75v-11.906h-26zm27.906 0v11.906h30.469v-11.906h-30.469zm32.156 0v11.906h30.438v-11.906h-30.438zm31.938 0v11.906h0.3125c0.1316-4.4412 0.19979-8.6231 0.25-11.906h-0.5625zm-91.688 13.812c0.16727 5.3166 0.37791 10.047 0.65625 11.344 0.04985 0.18912 0.10388 0.37568 0.15625 0.5625h8.6875v-11.906h-9.5zm11.406 0v11.906h30.469v-11.906h-30.469zm32.156 0v11.906h30.438v-11.906h-30.438zm31.938 0v11.906h15.656c0.01777-0.08506 0.04547-0.16424 0.0625-0.25 0.29863-1.3481 0.5405-6.2272 0.71875-11.656h-16.438zm-74.281 13.219c1.6754 5.1875 4.4364 9.3648 8.75 11.906h9.9688c1.8265-2.5328 3.7497-6.5524 5.75-9.5v-2.4062h-24.469zm26.375 0v0.03125l0.03125-0.03125h-0.03125zm5.2188 0c2.8271 2.5878 5.7575 8.3999 8.7812 11.906h8.7188c2.6472-3.0798 5.2507-7.9217 7.75-10.812v-1.0938h-25.25zm31.375 0c2.6888 2.5986 5.2576 8.5246 7.6562 11.906h9.9375c3.8968-2.1646 6.7628-5.407 8.4062-9.8438v-2.0625h-26z" fill="#c86f23"/>
  <path transform="translate(-31,-85)" d="m305 531.36c0 4.8429-0.53051 37.563-1.5365 42.104-2.4742 12.459-10.483 19.633-22.511 22.363-5.5901 1.0428-11.949-21.824-18.85-21.951s-14.344 22.484-22.103 22.484c-7.7957 0-15.272-22.625-22.2-22.52s-13.308 22.94-18.91 21.858c-12.684-2.1049-19.316-10.781-22.443-22.645-0.94804-4.4155-1.4472-36.997-1.4472-41.694 0-35.88 29.12-65 65-65s65 29.12 65 65z" fill="url(#c)"/>
  <path transform="translate(9,17)" d="m255 417.86a15.5 15.5 0 1 1 -31 0 15.5 15.5 0 1 1 31 0z" fill="#fff"/>
  <path transform="translate(9,17)" d="m255 417.86a15.5 15.5 0 1 1 -31 0 15.5 15.5 0 1 1 31 0z" fill="url(#a)"/>
  <path transform="matrix(.6129 0 0 .6129 106.71 179.75)" d="m255 417.86a15.5 15.5 0 1 1 -31 0 15.5 15.5 0 1 1 31 0z"/>
  <path transform="translate(-31,17)" d="m255 417.86a15.5 15.5 0 1 1 -31 0 15.5 15.5 0 1 1 31 0z" fill="#fff"/>
  <path transform="translate(-31,17)" d="m255 417.86a15.5 15.5 0 1 1 -31 0 15.5 15.5 0 1 1 31 0z" fill="url(#a)"/>
  <path transform="matrix(.6129 0 0 .6129 66.71 179.75)" d="m255 417.86a15.5 15.5 0 1 1 -31 0 15.5 15.5 0 1 1 31 0z"/>
  <path d="m180.01 413.25c-10.026 10.27-20.406 16.414-23.171 13.715s3.1277-13.225 13.153-23.494 20.406-16.414 23.171-13.715-3.1277 13.225-13.153 23.494z" fill="#fff" fill-opacity=".62745" filter="url(#g)"/>
  <path transform="matrix(.77126 .63652 -.63652 .77126 379.12 -54.471)" d="m262 501.86c0 7.452-2.464 13.5-5.5 13.5s-5.5-6.048-5.5-13.5 2.464-13.5 5.5-13.5 5.5 6.048 5.5 13.5z" fill="#fff" fill-opacity=".43439" filter="url(#f)"/>
 </g>
</svg>
