<?xml version="1.0" encoding="UTF-8"?>
<svg viewBox="0 0 128 128" xmlns="http://www.w3.org/2000/svg" xmlns:xlink="http://www.w3.org/1999/xlink">
 <defs>
  <filter id="k" x="-.34802" y="-.34085" width="1.696" height="1.6817">
   <feGaussianBlur stdDeviation="5.46506"/>
  </filter>
  <filter id="j" x="-.51975" y="-.45339" width="2.0395" height="1.9068">
   <feGaussianBlur stdDeviation="4.15116"/>
  </filter>
  <filter id="i" x="-.07002" y="-.3401" width="1.14" height="1.6802">
   <feGaussianBlur stdDeviation="3.96783"/>
  </filter>
  <linearGradient id="a">
   <stop stop-opacity="0" offset="0"/>
   <stop stop-opacity=".57196" offset="1"/>
  </linearGradient>
  <radialGradient id="h" cx="210.89" cy="506.35" r="68" gradientTransform="matrix(1.4028 1.6439e-6 -1.4521e-7 .20588 -89.845 403.11)" gradientUnits="userSpaceOnUse">
   <stop offset="0"/>
   <stop stop-opacity="0" offset="1"/>
  </radialGradient>
  <radialGradient id="g" cx="216.99" cy="497.96" r="65" gradientTransform="matrix(.7158 1.4128 -1.3538 .68592 735.84 -155.77)" gradientUnits="userSpaceOnUse" xlink:href="#a"/>
  <radialGradient id="b" cx="233.5" cy="409.86" r="15.5" gradientTransform="matrix(.3871 1.5161 -1.4234 .36342 726.51 -93.107)" gradientUnits="userSpaceOnUse" xlink:href="#a"/>
  <radialGradient id="f" cx="265.02" cy="395.88" r="15.981" gradientTransform="matrix(.81099 .32127 -1.2243 3.0905 528.32 -908.84)" gradientUnits="userSpaceOnUse" xlink:href="#a"/>
  <radialGradient id="e" cx="151.56" cy="401.41" r="17.986" gradientTransform="matrix(1 -.51654 .98959 1.9158 -396.84 -288.39)" gradientUnits="userSpaceOnUse" xlink:href="#a"/>
  <radialGradient id="d" cx="217.88" cy="470.88" r="3.6592" gradientTransform="matrix(1.6768 -.024182 .070158 4.865 -180.51 -1817.9)" gradientUnits="userSpaceOnUse" xlink:href="#a"/>
  <radialGradient id="c" cx="243.65" cy="471.2" r="3.3848" gradientTransform="matrix(1.3106 .17788 -.57449 4.2329 195.01 -1569.8)" gradientUnits="userSpaceOnUse" xlink:href="#a"/>
 </defs>
 <g transform="matrix(.71287 0 0 .71287 -84.978 -246.24)">
  <path transform="matrix(1.0588 0 0 .85714 -9.1176 72.48)" d="m274 507.36c0 7.728-30.464 14-68 14s-68-6.272-68-14 30.464-14 68-14 68 6.272 68 14z" fill="url(#h)" filter="url(#i)"/>
  <path d="m263.2 363.17c8.9062 14.233 22.127 37.999-3.9888 61.377-6.2146 3.7458-16.942-6.3264-16.611-12.825 23.879-14.32 22.778-31.292 20.599-48.552z" fill="#a40" fill-rule="evenodd"/>
  <path d="m263.2 363.17c8.9062 14.233 22.127 37.999-3.9888 61.377-6.2146 3.7458-16.942-6.3264-16.611-12.825 23.879-14.32 22.778-31.292 20.599-48.552z" fill="url(#f)" fill-rule="evenodd"/>
  <path transform="translate(-31,-85)" d="m305 531.36c0 4.8429-0.53051 37.563-1.5365 42.104-2.4742 12.459-10.483 19.633-22.511 22.363-5.5901 1.0428-11.949-21.824-18.85-21.951s-14.344 22.484-22.103 22.484c-7.7957 0-15.272-22.625-22.2-22.52s-13.308 22.94-18.91 21.858c-12.684-2.1049-19.316-10.781-22.443-22.645-0.94804-4.4155-1.4472-36.997-1.4472-41.694 0-35.88 29.12-65 65-65s65 29.12 65 65z" fill="#f00"/>
  <path transform="translate(-31,-85)" d="m305 531.36c0 4.8429-0.53051 37.563-1.5365 42.104-2.4742 12.459-10.483 19.633-22.511 22.363-5.5901 1.0428-11.949-21.824-18.85-21.951s-14.344 22.484-22.103 22.484c-7.7957 0-15.272-22.625-22.2-22.52s-13.308 22.94-18.91 21.858c-12.684-2.1049-19.316-10.781-22.443-22.645-0.94804-4.4155-1.4472-36.997-1.4472-41.694 0-35.88 29.12-65 65-65s65 29.12 65 65z" fill="url(#g)"/>
  <path transform="translate(9,17)" d="m255 417.86a15.5 15.5 0 1 1 -31 0 15.5 15.5 0 1 1 31 0z" fill="#fff"/>
  <path transform="translate(9,17)" d="m255 417.86a15.5 15.5 0 1 1 -31 0 15.5 15.5 0 1 1 31 0z" fill="url(#b)"/>
  <path transform="matrix(.6129 0 0 .6129 106.71 179.75)" d="m255 417.86a15.5 15.5 0 1 1 -31 0 15.5 15.5 0 1 1 31 0z"/>
  <path transform="translate(-31,17)" d="m255 417.86a15.5 15.5 0 1 1 -31 0 15.5 15.5 0 1 1 31 0z" fill="#fff"/>
  <path transform="translate(-31,17)" d="m255 417.86a15.5 15.5 0 1 1 -31 0 15.5 15.5 0 1 1 31 0z" fill="url(#b)"/>
  <path transform="matrix(.6129 0 0 .6129 66.71 179.75)" d="m255 417.86a15.5 15.5 0 1 1 -31 0 15.5 15.5 0 1 1 31 0z"/>
  <path d="m180.01 413.25c-10.026 10.27-20.406 16.414-23.171 13.715s3.1277-13.225 13.153-23.494 20.406-16.414 23.171-13.715-3.1277 13.225-13.153 23.494z" fill="#fff" fill-opacity=".62745" filter="url(#k)"/>
  <path transform="matrix(.77126 .63652 -.63652 .77126 379.12 -54.471)" d="m262 501.86c0 7.452-2.464 13.5-5.5 13.5s-5.5-6.048-5.5-13.5 2.464-13.5 5.5-13.5 5.5 6.048 5.5 13.5z" fill="#fff" fill-opacity=".43439" filter="url(#j)"/>
  <path d="m142.3 369.62c-5.6898 15.796-13.577 41.823 16.897 59.14 6.8669 2.3447 15.218-9.771 13.518-16.052-26.37-8.938-28.889-25.758-30.415-43.088z" fill="#a40" fill-rule="evenodd"/>
  <path d="m244.8 463.3c-6.9896-4.4274-13.99-2.0915-23.772-0.00951l-3.2724 1.2232c10.375-0.33634 16.347-2.9766 26.722-0.35953l0.3226-0.85417z" fill-rule="evenodd"/>
  <path d="m216.7 464.13c0.53493 7.3283 3.5439 12.572 6.0637 18.228 0.557-5.9082 2.227-10.929 0.47583-18.678-3.959-0.76706-4.8555 0.0443-6.5395 0.44975z" fill="#fff" fill-rule="evenodd"/>
  <path d="m242.48 463.42c-0.97759 7.2824 0.89332 13.032 2.2011 19.084 1.7555-5.6688 4.4185-10.241 4.2919-18.184-3.7179-1.5618-4.7616-0.95127-6.493-0.89939z" fill="#fff" fill-rule="evenodd"/>
  <path d="m142.3 369.62c-5.6898 15.796-13.577 41.823 16.897 59.14 6.8669 2.3447 15.218-9.771 13.518-16.052-26.37-8.938-28.889-25.758-30.415-43.088z" fill="url(#e)" fill-rule="evenodd"/>
  <path d="m216.7 464.13c0.53493 7.3283 3.5439 12.572 6.0637 18.228 0.557-5.9082 2.227-10.929 0.47583-18.678-3.959-0.76706-4.8555 0.0443-6.5395 0.44975z" fill="url(#d)" fill-rule="evenodd"/>
  <path d="m242.48 463.42c-0.97759 7.2824 0.89332 13.032 2.2011 19.084 1.7555-5.6688 4.4185-10.241 4.2919-18.184-3.7179-1.5618-4.7616-0.95127-6.493-0.89939z" fill="url(#c)" fill-rule="evenodd"/>
 </g>
</svg>
