<?xml version="1.0" encoding="UTF-8"?>
<svg viewBox="0 0 128 128" xmlns="http://www.w3.org/2000/svg" xmlns:xlink="http://www.w3.org/1999/xlink">
 <defs>
  <filter id="n" x="-.34802" y="-.34085" width="1.696" height="1.6817">
   <feGaussianBlur stdDeviation="5.46506"/>
  </filter>
  <filter id="m" x="-.51975" y="-.45339" width="2.0395" height="1.9068">
   <feGaussianBlur stdDeviation="4.15116"/>
  </filter>
  <filter id="l" x="-.07002" y="-.3401" width="1.14" height="1.6802">
   <feGaussianBlur stdDeviation="3.96783"/>
  </filter>
  <filter id="o" x="-.27822" y="-.20148" width="1.5564" height="1.403">
   <feGaussianBlur stdDeviation=".88958"/>
  </filter>
  <linearGradient id="a">
   <stop stop-opacity="0" offset="0"/>
   <stop stop-opacity=".57196" offset="1"/>
  </linearGradient>
  <radialGradient id="k" cx="210.89" cy="506.35" r="68" gradientTransform="matrix(1.4028 1.6439e-6 -1.4521e-7 .20588 -89.845 403.11)" gradientUnits="userSpaceOnUse">
   <stop offset="0"/>
   <stop stop-opacity="0" offset="1"/>
  </radialGradient>
  <radialGradient id="j" cx="216.99" cy="497.96" r="65" gradientTransform="matrix(.51027 1.0072 -.96511 .48897 650.89 -406.14)" gradientUnits="userSpaceOnUse" xlink:href="#a"/>
  <radialGradient id="b" cx="233.5" cy="409.86" r="15.5" gradientTransform="matrix(.3871 1.5161 -1.4234 .36342 726.51 -93.107)" gradientUnits="userSpaceOnUse" xlink:href="#a"/>
  <radialGradient id="i" cx="351.43" cy="52.394" r="32.523" gradientTransform="matrix(1.0366 .10006 -.058104 .6019 -77.078 -25.783)" gradientUnits="userSpaceOnUse" xlink:href="#a"/>
  <radialGradient id="h" cx="48.034" cy="14.848" r="24.636" gradientTransform="matrix(1.402 .048165 -.027291 .79442 217.19 15.148)" gradientUnits="userSpaceOnUse" xlink:href="#a"/>
  <radialGradient id="g" cx="-36.728" cy="39.907" r="6.2294" gradientTransform="matrix(1.7898 -.46552 .36354 1.3977 13.553 -32.295)" gradientUnits="userSpaceOnUse" xlink:href="#a"/>
  <radialGradient id="f" cx="283.06" cy="13.514" r="5.955" gradientTransform="matrix(1.7328 .32809 -.22196 1.1723 -200.55 -92.986)" gradientUnits="userSpaceOnUse" xlink:href="#a"/>
  <radialGradient id="e" cx="54.825" cy="34.991" r="24.634" gradientTransform="matrix(.99796 .063796 -.014867 .23257 235.88 36.314)" gradientUnits="userSpaceOnUse" xlink:href="#a"/>
  <radialGradient id="d" cx="285.29" cy="97.676" r="39.528" gradientTransform="matrix(1.5502 -.04196 .049183 1.817 -161.77 -71.12)" gradientUnits="userSpaceOnUse" xlink:href="#a"/>
  <radialGradient id="c" cx="384.19" cy="50.12" r="9.0417" gradientTransform="matrix(1.3389 .16312 -.127 1.0424 -123.24 -64.858)" gradientUnits="userSpaceOnUse" xlink:href="#a"/>
 </defs>
 <g transform="translate(-233.42 -11.735)">
  <path transform="matrix(.7548 0 0 .61103 141.93 -182.83)" d="m274 507.36c0 7.728-30.464 14-68 14s-68-6.272-68-14 30.464-14 68-14 68 6.272 68 14z" fill="url(#k)" filter="url(#l)"/>
  <path d="m343.76 83.695c0 3.4523-0.37818 26.777-1.0954 30.015-1.7638 8.8818-7.4732 13.995-16.047 15.942-3.985 0.7434-8.5178-15.558-13.437-15.648s-10.225 16.028-15.757 16.028c-5.5573 0-10.887-16.128-15.826-16.053s-9.4866 16.353-13.48 15.582c-9.0418-1.5005-13.769-7.6856-15.999-16.143-0.67582-3.1476-1.0316-26.374-1.0316-29.722 0-25.578 20.759-46.336 46.336-46.336s46.336 20.759 46.336 46.336z" fill="#484889"/>
  <path d="m343.76 83.695c0 3.4523-0.37818 26.777-1.0954 30.015-1.7638 8.8818-7.4732 13.995-16.047 15.942-3.985 0.7434-8.5178-15.558-13.437-15.648s-10.225 16.028-15.757 16.028c-5.5573 0-10.887-16.128-15.826-16.053s-9.4866 16.353-13.48 15.582c-9.0418-1.5005-13.769-7.6856-15.999-16.143-0.67582-3.1476-1.0316-26.374-1.0316-29.722 0-25.578 20.759-46.336 46.336-46.336s46.336 20.759 46.336 46.336z" fill="url(#j)"/>
  <path transform="matrix(.71287 0 0 .71287 154.85 -222.38)" d="m255 417.86a15.5 15.5 0 1 1 -31 0 15.5 15.5 0 1 1 31 0z" fill="#fff"/>
  <path transform="matrix(.71287 0 0 .71287 154.85 -222.38)" d="m255 417.86a15.5 15.5 0 1 1 -31 0 15.5 15.5 0 1 1 31 0z" fill="url(#b)"/>
  <path transform="matrix(.43692 0 0 .43692 224.5 -106.36)" d="m255 417.86a15.5 15.5 0 1 1 -31 0 15.5 15.5 0 1 1 31 0z"/>
  <path transform="matrix(.71287 0 0 .71287 126.33 -222.38)" d="m255 417.86a15.5 15.5 0 1 1 -31 0 15.5 15.5 0 1 1 31 0z" fill="#fff"/>
  <path transform="matrix(.71287 0 0 .71287 126.33 -222.38)" d="m255 417.86a15.5 15.5 0 1 1 -31 0 15.5 15.5 0 1 1 31 0z" fill="url(#b)"/>
  <path transform="matrix(.43692 0 0 .43692 195.99 -106.36)" d="m255 417.86a15.5 15.5 0 1 1 -31 0 15.5 15.5 0 1 1 31 0z"/>
  <path d="m265.75 53.146c-0.99279 33.938 16.47 50.737 42.888 58.339 19.912 4.4259 41.863 4.4197 34.762-15.3l-0.19959 4.488c3.3443 16.774-25.901 11.883-34.281 9.8438-19.942-5.9122-39.131-23.592-38.177-57.007l-4.992-0.36291z" fill="#cacaca" fill-rule="evenodd"/>
  <path transform="matrix(.71287 0 0 .71287 148.43 -234.5)" d="m180.01 413.25c-10.026 10.27-20.406 16.414-23.171 13.715s3.1277-13.225 13.153-23.494 20.406-16.414 23.171-13.715-3.1277 13.225-13.153 23.494z" fill="#fff" fill-opacity=".62745" filter="url(#n)"/>
  <path transform="matrix(.5498 .45375 -.45375 .5498 418.69 -273.33)" d="m262 501.86c0 7.452-2.464 13.5-5.5 13.5s-5.5-6.048-5.5-13.5 2.464-13.5 5.5-13.5 5.5 6.048 5.5 13.5z" fill="#fff" fill-opacity=".43439" filter="url(#m)"/>
  <path d="m261.62 53.359c22.169 0.48327 36.462 9.6806 49.021 7.577 7.6894-2.4555 6.4911-13.822 16.025-14.166-0.01116-0.01339-4.7739-3.9782-12.95-6.8329-16.378-5.7181-27.479-10.308-43.262 3.2656-5.0671 4.3579-5.7905 5.1653-8.8331 10.156z" fill="#343462" fill-rule="evenodd"/>
  <path d="m261.62 53.359c22.169 0.48327 36.462 9.6806 49.021 7.577 7.6894-2.4555 6.4911-13.822 16.025-14.166-0.01116-0.01339-4.7739-3.9782-12.95-6.8329-16.378-5.7181-27.479-10.308-43.262 3.2656-5.0671 4.3579-5.7905 5.1653-8.8331 10.156z" fill="url(#i)" fill-rule="evenodd"/>
  <path d="m267.67 46.765c10.821 1.3138 32.999 15.853 48.795 0.26328 2.55-0.34261-8.6496-33.562-28.227-29.586-16.944 3.4416-21.841 29.043-20.568 29.322z" fill="#343462" fill-rule="evenodd"/>
  <path d="m267.67 46.765c10.821 1.3138 32.999 15.853 48.795 0.26328 2.55-0.34261-8.6496-33.562-28.227-29.586-16.944 3.4416-21.841 29.043-20.568 29.322z" fill="url(#h)" fill-rule="evenodd"/>
  <g transform="matrix(.99057 -.13703 .13703 .99057 83.492 12.494)">
   <path transform="matrix(1.0754 .75152 -.75152 1.0754 282.21 34.246)" d="m-29.538 46.899-2.6083-1.0668-2.2259 1.855-1.09-2.5987-2.8856-0.26228 1.0668-2.6083-1.855-2.2259 2.5987-1.09 0.26227-2.8856 2.6083 1.0668 2.2259-1.855 1.09 2.5987 2.8856 0.26228-1.0668 2.6083 1.855 2.2259-2.5987 1.09-0.26228 2.8856z" fill="#ccc"/>
   <path transform="matrix(.94521 0 0 .94521 230.63 12.576)" d="m-10.753 43.725a4.7288 4.7288 0 1 1 -9.4575 0 4.7288 4.7288 0 1 1 9.4575 0z" fill="#808080"/>
   <path transform="matrix(.71233 0 0 .71233 226.96 22.693)" d="m-10.753 43.725a4.7288 4.7288 0 1 1 -9.4575 0 4.7288 4.7288 0 1 1 9.4575 0z" fill="#ccc"/>
   <path transform="matrix(1.0754 .75152 -.75152 1.0754 282.21 34.246)" d="m-29.538 46.899-2.6083-1.0668-2.2259 1.855-1.09-2.5987-2.8856-0.26228 1.0668-2.6083-1.855-2.2259 2.5987-1.09 0.26227-2.8856 2.6083 1.0668 2.2259-1.855 1.09 2.5987 2.8856 0.26228-1.0668 2.6083 1.855 2.2259-2.5987 1.09-0.26228 2.8856z" fill="url(#g)"/>
  </g>
  <path d="m283.76 18.915s0.14444-5.1313 4.8984-4.8274 7.1151 3.5759 7.0099 5.2215-3.4081 1.618-3.4081 1.618-6.3954-3.3463-8.5002-2.0121z" fill="#cacaca" fill-rule="evenodd"/>
  <path d="m283.76 18.915s0.14444-5.1313 4.8984-4.8274 7.1151 3.5759 7.0099 5.2215-3.4081 1.618-3.4081 1.618-6.3954-3.3463-8.5002-2.0121z" fill="url(#f)" fill-rule="evenodd"/>
  <path d="m316.5 43.886c-0.053 0.07278-0.11541 0.10208-0.19509 0.11278-15.694 15.489-37.689 1.2484-48.585-0.22497-0.30631 1.7699-0.32705 2.9447-0.06664 3.0019 10.821 1.3138 33.007 15.829 48.803 0.23893 0.47232-0.06346 0.4804-1.2546 0.04343-3.1286z" fill="#b3b3b3" fill-rule="evenodd"/>
  <path d="m316.5 43.886c-0.053 0.07278-0.11541 0.10208-0.19509 0.11278-15.694 15.489-37.689 1.2484-48.585-0.22497-0.30631 1.7699-0.32705 2.9447-0.06664 3.0019 10.821 1.3138 33.007 15.829 48.803 0.23893 0.47232-0.06346 0.4804-1.2546 0.04343-3.1286z" fill="url(#e)" fill-rule="evenodd"/>
  <path transform="matrix(.83516 .55001 -.55001 .83516 249.74 -14.124)" d="m49.497 21.58a2.1213 6.1872 0 1 1 -4.2426 0 2.1213 6.1872 0 1 1 4.2426 0z" fill="#fff" fill-opacity=".50943" filter="url(#o)"/>
  <path d="m265.75 53.146c-0.99279 33.938 16.47 50.737 42.888 58.339 19.912 4.4259 41.863 4.4197 34.762-15.3l-0.19959 4.488c3.3443 16.774-25.901 11.883-34.281 9.8438-19.942-5.9122-39.131-23.592-38.177-57.007l-4.992-0.36291z" fill="url(#d)" fill-rule="evenodd"/>
  <g transform="translate(-53.117 57.522)">
   <path d="m393.87 48.48-4.1867-1.349c-2.4893-1.1577-7.6364-2.256-8.4348-1.3466s3.9699 1.7421 3.9016 8.169c-0.03303 3.1046 1.5589 5.8437 3.8475 6.1458l4.303-0.43322c2.2885 0.30207 4.2617-1.9506 4.417-5.0402s-1.5589-5.8437-3.8475-6.1458z" fill="#808000"/>
   <path d="m393.43 55.051c-0.1553 3.0897-2.1387 5.3521-4.4272 5.05s-4.0504-3.0589-3.8646-6.1445c0.32306-5.364-3.4142-6.7378-2.3843-7.6328 0.73828-0.64155 5.856 2.4566 6.8115 2.5827 2.2885 0.30207 4.0199 3.0548 3.8646 6.1445z" fill="#ff0"/>
   <path d="m386.84 47.698 4.93 0.14625 1.6299 0.98278-4.1748-0.24236-2.3852-0.88667z" fill-rule="evenodd"/>
   <path d="m393.87 48.48-4.1867-1.349c-2.4893-1.1577-7.6364-2.256-8.4348-1.3466s3.9699 1.7421 3.9016 8.169c-0.03303 3.1046 1.5589 5.8437 3.8475 6.1458l4.303-0.43322c2.2885 0.30207 4.2617-1.9506 4.417-5.0402s-1.5589-5.8437-3.8475-6.1458z" fill="url(#c)"/>
  </g>
 </g>
</svg>
