<?xml version="1.0" encoding="UTF-8"?>
<svg viewBox="0 0 128 128" xmlns="http://www.w3.org/2000/svg" xmlns:xlink="http://www.w3.org/1999/xlink">
 <defs>
  <filter id="p" x="-.34802" y="-.34085" width="1.696" height="1.6817">
   <feGaussianBlur stdDeviation="5.46506"/>
  </filter>
  <filter id="o" x="-.51975" y="-.45339" width="2.0395" height="1.9068">
   <feGaussianBlur stdDeviation="4.15116"/>
  </filter>
  <filter id="n" x="-.07002" y="-.3401" width="1.14" height="1.6802">
   <feGaussianBlur stdDeviation="3.96783"/>
  </filter>
  <filter id="q" x="-.59713" y="-.14877" width="2.1943" height="1.2976">
   <feGaussianBlur stdDeviation=".59859"/>
  </filter>
  <linearGradient id="b">
   <stop stop-opacity="0" offset="0"/>
   <stop stop-opacity=".57196" offset="1"/>
  </linearGradient>
  <radialGradient id="l" cx="210.89" cy="506.35" r="68" gradientTransform="matrix(1.4028 1.6439e-6 -1.4521e-7 .20588 -89.845 403.11)" gradientUnits="userSpaceOnUse">
   <stop offset="0"/>
   <stop stop-opacity="0" offset="1"/>
  </radialGradient>
  <radialGradient id="m" cx="248.98" cy="55.568" r="29.093" gradientTransform="matrix(1.5955 -.40557 .10103 .39746 -153.87 129.21)" gradientUnits="userSpaceOnUse" xlink:href="#b"/>
  <radialGradient id="k" cx="216.99" cy="497.96" r="65" gradientTransform="matrix(.51027 1.0072 -.96511 .48897 650.89 -406.14)" gradientUnits="userSpaceOnUse" xlink:href="#b"/>
  <radialGradient id="a" cx="233.5" cy="409.86" r="15.5" gradientTransform="matrix(.3871 1.5161 -1.4234 .36342 726.51 -93.107)" gradientUnits="userSpaceOnUse" xlink:href="#b"/>
  <radialGradient id="j" cx="59.908" cy="19.759" r="11.088" gradientTransform="matrix(1 0 0 1.2214 0 -4.8907)" gradientUnits="userSpaceOnUse" xlink:href="#b"/>
  <radialGradient id="i" cx="308.74" cy="46.612" r="13.427" gradientTransform="matrix(1.4274 .4114 -.28966 1.005 -118.94 -127)" gradientUnits="userSpaceOnUse" xlink:href="#b"/>
  <radialGradient id="h" cx="289.64" cy="46.026" r="12.728" gradientTransform="matrix(1.6103 -.088517 .087354 1.5892 -180.79 -1.2085)" gradientUnits="userSpaceOnUse" xlink:href="#b"/>
  <radialGradient id="g" cx="251.1" cy="62.165" r="25.456" gradientTransform="matrix(2.0262 -.59764 .21057 .71391 -270.42 163.57)" gradientUnits="userSpaceOnUse" xlink:href="#b"/>
  <radialGradient id="f" cx="23.865" cy="55.505" r="23.865" gradientTransform="matrix(2.2415 -1.4398 .65861 1.0253 167.59 42.175)" gradientUnits="userSpaceOnUse" xlink:href="#b"/>
  <radialGradient id="e" cx="56.227" cy="18.154" r="15.287" gradientTransform="matrix(1.7975 -.037084 .040115 1.9444 -45.569 -15.137)" gradientUnits="userSpaceOnUse" xlink:href="#b"/>
  <radialGradient id="c" cx="29.808" cy="68.239" r="2.4375" gradientTransform="matrix(1.4632 -.025026 .038613 2.7488 -16.441 -119.16)" gradientUnits="userSpaceOnUse" xlink:href="#b"/>
  <radialGradient id="d" cx="29.949" cy="68.271" r="2.4375" gradientTransform="matrix(1.3997 .2377 -.40544 2.9068 15.71 -137.85)" gradientUnits="userSpaceOnUse" xlink:href="#b"/>
 </defs>
 <g transform="translate(-228.98 -11.735)">
  <path d="m291.55 45.849c-18.591 4.274-21.951 17.799-54.345 7.596 28.355-5.6588 34.517-20.536 58.186-12.682l-3.841 5.0865z" fill="#ff0" fill-rule="evenodd"/>
  <path d="m291.55 45.849c-18.591 4.274-21.951 17.799-54.345 7.596 28.355-5.6588 34.517-20.536 58.186-12.682l-3.841 5.0865z" fill="url(#m)" fill-rule="evenodd"/>
  <path transform="matrix(.7548 0 0 .61103 141.93 -182.83)" d="m274 507.36c0 7.728-30.464 14-68 14s-68-6.272-68-14 30.464-14 68-14 68 6.272 68 14z" fill="url(#l)" filter="url(#n)"/>
  <path d="m343.76 83.695c0 3.4523-0.37818 26.777-1.0954 30.015-1.7638 8.8818-7.4732 13.995-16.047 15.942-3.985 0.7434-8.5178-15.558-13.437-15.648s-10.225 16.028-15.757 16.028c-5.5573 0-10.887-16.128-15.826-16.053s-9.4866 16.353-13.48 15.582c-9.0418-1.5005-13.769-7.6856-15.999-16.143-0.67582-3.1476-1.0316-26.374-1.0316-29.722 0-25.578 20.759-46.336 46.336-46.336s46.336 20.759 46.336 46.336z" fill="#faa"/>
  <path d="m343.76 83.695c0 3.4523-0.37818 26.777-1.0954 30.015-1.7638 8.8818-7.4732 13.995-16.047 15.942-3.985 0.7434-8.5178-15.558-13.437-15.648s-10.225 16.028-15.757 16.028c-5.5573 0-10.887-16.128-15.826-16.053s-9.4866 16.353-13.48 15.582c-9.0418-1.5005-13.769-7.6856-15.999-16.143-0.67582-3.1476-1.0316-26.374-1.0316-29.722 0-25.578 20.759-46.336 46.336-46.336s46.336 20.759 46.336 46.336z" fill="url(#k)"/>
  <path d="m335.4 72.455c2.4221-3.815 3.8538-8.5429 10.041-11.745-7.0656 1.6722-8.0014 5.2265-11.62 8.1054 0.62423-4.8153 3.5177-6.7463 5.4652-9.8797-2.659 1.9342-5.53 3.4502-7.3825 6.9753-0.19255-2.2711 0.52464-3.7851 2.1003-6.4508-2.3126 2.3294-2.9688 2.7524-5.2596 6.0326l6.6559 6.9619z" fill-rule="evenodd"/>
  <path transform="matrix(.71287 0 0 .71287 154.85 -222.38)" d="m255 417.86a15.5 15.5 0 1 1 -31 0 15.5 15.5 0 1 1 31 0z" fill="#fff"/>
  <path transform="matrix(.71287 0 0 .71287 154.85 -222.38)" d="m255 417.86a15.5 15.5 0 1 1 -31 0 15.5 15.5 0 1 1 31 0z" fill="url(#a)"/>
  <path transform="matrix(.43692 0 0 .43692 224.5 -106.36)" d="m255 417.86a15.5 15.5 0 1 1 -31 0 15.5 15.5 0 1 1 31 0z"/>
  <path d="m286.93 77.414c-3.8854-2.3074-7.3004-5.8769-14.267-5.9349 7.0581-1.7035 9.5 1.0434 14.03 1.9748-2.7342-4.0126-6.1882-4.4265-9.3421-6.3405 3.2463 0.52275 6.4925 0.57667 9.7388 2.8831-0.85524-2.1127-2.1796-3.1388-4.7904-4.8039 3.116 1.0318 3.8926 1.1124 7.4191 3.0022l-2.7883 9.2192z" fill-rule="evenodd"/>
  <path transform="matrix(.71287 0 0 .71287 126.33 -222.38)" d="m255 417.86a15.5 15.5 0 1 1 -31 0 15.5 15.5 0 1 1 31 0z" fill="#fff"/>
  <path transform="matrix(.71287 0 0 .71287 126.33 -222.38)" d="m255 417.86a15.5 15.5 0 1 1 -31 0 15.5 15.5 0 1 1 31 0z" fill="url(#a)"/>
  <path transform="matrix(.43692 0 0 .43692 195.99 -106.36)" d="m255 417.86a15.5 15.5 0 1 1 -31 0 15.5 15.5 0 1 1 31 0z"/>
  <path transform="matrix(.71287 0 0 .71287 148.78 -235.21)" d="m180.01 413.25c-10.026 10.27-20.406 16.414-23.171 13.715s3.1277-13.225 13.153-23.494 20.406-16.414 23.171-13.715-3.1277 13.225-13.153 23.494z" fill="#fff" fill-opacity=".62745" filter="url(#p)"/>
  <path transform="matrix(.5498 .45375 -.45375 .5498 418.69 -273.33)" d="m262 501.86c0 7.452-2.464 13.5-5.5 13.5s-5.5-6.048-5.5-13.5 2.464-13.5 5.5-13.5 5.5 6.048 5.5 13.5z" fill="#fff" fill-opacity=".43439" filter="url(#o)"/>
  <path d="m300.12 44.289s8.1062 12.469 10.22 14.848c4.5475 5.1182 17.789-12.247 16.552-13.64 0.68901-0.34451-14.427-8.4455-20.676-6.6581-5.0189 1.4355-5.6838 2.7198-6.0955 5.4503z" fill="#ff0" fill-rule="evenodd"/>
  <path transform="translate(233.42 11.735)" d="m52.599 33.166c-1.3826-7.9807 7.3013-7.7295 2.8502-16.324l0.77733-8.2915 7.2551 11.919 9.3279-10.883-0.25911 8.2915c-2.4683 7.921 1.8026 5.9971 2.0729 15.287-8.3353 3.9754-14.991 2.5299-22.024 0z" fill="#ffa300" fill-rule="evenodd"/>
  <path transform="translate(233.42 11.735)" d="m52.599 33.166c-1.3826-7.9807 7.3013-7.7295 2.8502-16.324l0.77733-8.2915 7.2551 11.919 9.3279-10.883-0.25911 8.2915c-2.4683 7.921 1.8026 5.9971 2.0729 15.287-8.3353 3.9754-14.991 2.5299-22.024 0z" fill="url(#j)" fill-rule="evenodd"/>
  <path d="m300.12 44.289s8.1062 12.469 10.22 14.848c4.5475 5.1182 17.789-12.247 16.552-13.64 0.68901-0.34451-14.427-8.4455-20.676-6.6581-5.0189 1.4355-5.6838 2.7198-6.0955 5.4503z" fill="url(#i)" fill-rule="evenodd"/>
  <path d="m287.87 40.74s-5.6569 15.91-5.6569 19.092c0 6.8466 25.456 2.9233 25.456 1.0607 0 0-2.4749-16.971-7.0711-19.445s-10.607-2.4749-12.728-0.70711z" fill="#ff0" fill-rule="evenodd"/>
  <path d="m287.87 40.74s-5.6569 15.91-5.6569 19.092c0 6.8466 25.456 2.9233 25.456 1.0607 0 0-2.4749-16.971-7.0711-19.445s-10.607-2.4749-12.728-0.70711z" fill="url(#h)" fill-rule="evenodd"/>
  <path d="m286.81 43.922c-16.425 9.7002-15.534 23.608-49.497 23.688 25.313-13.975 25.975-28.959 50.912-28.638l-1.4142 4.9498z" fill="#ff0" fill-rule="evenodd"/>
  <path d="m286.81 43.922c-16.425 9.7002-15.534 23.608-49.497 23.688 25.313-13.975 25.975-28.959 50.912-28.638l-1.4142 4.9498z" fill="url(#g)" fill-rule="evenodd"/>
  <path d="m286.1 47.457c-16.425 9.7002-11.292 29.618-45.255 29.698 26.02-18.925 23.501-37.798 47.73-36.062l-2.4749 6.364z" fill="#ff0" fill-rule="evenodd"/>
  <path d="m286.1 47.457c-16.425 9.7002-11.292 29.618-45.255 29.698 26.02-18.925 23.501-37.798 47.73-36.062l-2.4749 6.364z" fill="url(#f)" fill-rule="evenodd"/>
  <path transform="translate(233.42 11.735)" d="m52.599 33.166c-1.3826-7.9807 0.04624-13.43-4.4049-22.024l11.401 6.7368 5.4413-14.769 5.9595 14.251 7.7733-7.7733c-2.4683 7.921-4.416 14.289-4.1458 23.579-8.3353 3.9754-14.991 2.5299-22.024 0z" fill="#ffc000" fill-rule="evenodd"/>
  <path transform="translate(233.42 11.735)" d="m52.599 33.166c-1.3826-7.9807 0.04624-13.43-4.4049-22.024l11.401 6.7368 5.4413-14.769 5.9595 14.251 7.7733-7.7733c-2.4683 7.921-4.416 14.289-4.1458 23.579-8.3353 3.9754-14.991 2.5299-22.024 0z" fill="url(#e)" fill-rule="evenodd"/>
  <g transform="translate(13.992 -24.356)">
   <path transform="matrix(1.3281 0 0 1.2036 221.32 -10.955)" d="m33.375 69.125a2.4375 4 0 1 1 -4.875 0 2.4375 4 0 1 1 4.875 0z" fill="#00f"/>
   <path transform="matrix(1.3281 0 0 1.2036 221.32 -10.955)" d="m33.375 69.125a2.4375 4 0 1 1 -4.875 0 2.4375 4 0 1 1 4.875 0z" fill="url(#c)"/>
   <path transform="matrix(1.3281 0 0 1.2036 226.32 -14.33)" d="m33.375 69.125a2.4375 4 0 1 1 -4.875 0 2.4375 4 0 1 1 4.875 0z" fill="#00f"/>
   <path transform="matrix(1.3281 0 0 1.2036 226.32 -14.33)" d="m33.375 69.125a2.4375 4 0 1 1 -4.875 0 2.4375 4 0 1 1 4.875 0z" fill="url(#c)"/>
   <path transform="matrix(1.3281 0 0 1.2036 229.07 -10.205)" d="m33.375 69.125a2.4375 4 0 1 1 -4.875 0 2.4375 4 0 1 1 4.875 0z" fill="#00f"/>
   <path transform="matrix(1.3281 0 0 1.2036 229.07 -10.205)" d="m33.375 69.125a2.4375 4 0 1 1 -4.875 0 2.4375 4 0 1 1 4.875 0z" fill="url(#c)"/>
   <path transform="matrix(1.3281 0 0 1.2036 223.19 -4.2054)" d="m33.375 69.125a2.4375 4 0 1 1 -4.875 0 2.4375 4 0 1 1 4.875 0z" fill="#00f"/>
   <path transform="matrix(1.3281 0 0 1.2036 223.19 -4.2054)" d="m33.375 69.125a2.4375 4 0 1 1 -4.875 0 2.4375 4 0 1 1 4.875 0z" fill="url(#c)"/>
   <path transform="matrix(1.3281 0 0 1.2036 227.69 -4.7054)" d="m33.375 69.125a2.4375 4 0 1 1 -4.875 0 2.4375 4 0 1 1 4.875 0z" fill="#00f"/>
   <path transform="matrix(1.3281 0 0 1.2036 227.69 -4.7054)" d="m33.375 69.125a2.4375 4 0 1 1 -4.875 0 2.4375 4 0 1 1 4.875 0z" fill="url(#c)"/>
   <path transform="matrix(.8854 0 0 .80239 238.75 19.378)" d="m33.375 69.125a2.4375 4 0 1 1 -4.875 0 2.4375 4 0 1 1 4.875 0z" fill="#ff0"/>
   <path transform="matrix(.8854 0 0 .80239 238.75 19.378)" d="m33.375 69.125a2.4375 4 0 1 1 -4.875 0 2.4375 4 0 1 1 4.875 0z" fill="url(#d)"/>
  </g>
  <path transform="matrix(.99282 -.11958 .11958 .99282 230.81 17.28)" d="m54.801 25.028c0 2.6835-0.47518 4.8614-1.0607 4.8614s-1.0607-2.1779-1.0607-4.8614 0.47518-4.8614 1.0607-4.8614 1.0607 2.1779 1.0607 4.8614z" fill="#fff" fill-opacity=".71321" filter="url(#q)"/>
  <path transform="matrix(.18867 0 0 .18867 272.5 27.283)" d="m255 417.86a15.5 15.5 0 1 1 -31 0 15.5 15.5 0 1 1 31 0z" fill="#fff"/>
  <path transform="matrix(.18867 0 0 .18867 272.5 27.283)" d="m255 417.86a15.5 15.5 0 1 1 -31 0 15.5 15.5 0 1 1 31 0z" fill="url(#a)"/>
  <path transform="matrix(.18867 0 0 .18867 278 22.033)" d="m255 417.86a15.5 15.5 0 1 1 -31 0 15.5 15.5 0 1 1 31 0z" fill="#fff"/>
  <path transform="matrix(.18867 0 0 .18867 278 22.033)" d="m255 417.86a15.5 15.5 0 1 1 -31 0 15.5 15.5 0 1 1 31 0z" fill="url(#a)"/>
  <path transform="matrix(.18867 0 0 .18867 283.25 16.783)" d="m255 417.86a15.5 15.5 0 1 1 -31 0 15.5 15.5 0 1 1 31 0z" fill="#fff"/>
  <path transform="matrix(.18867 0 0 .18867 283.25 16.783)" d="m255 417.86a15.5 15.5 0 1 1 -31 0 15.5 15.5 0 1 1 31 0z" fill="url(#a)"/>
  <path transform="matrix(.18867 0 0 .18867 265.75 23.533)" d="m255 417.86a15.5 15.5 0 1 1 -31 0 15.5 15.5 0 1 1 31 0z" fill="#fff"/>
  <path transform="matrix(.18867 0 0 .18867 265.75 23.533)" d="m255 417.86a15.5 15.5 0 1 1 -31 0 15.5 15.5 0 1 1 31 0z" fill="url(#a)"/>
  <path transform="matrix(.18867 0 0 .18867 259.5 20.033)" d="m255 417.86a15.5 15.5 0 1 1 -31 0 15.5 15.5 0 1 1 31 0z" fill="#fff"/>
  <path transform="matrix(.18867 0 0 .18867 259.5 20.033)" d="m255 417.86a15.5 15.5 0 1 1 -31 0 15.5 15.5 0 1 1 31 0z" fill="url(#a)"/>
  <path transform="matrix(.18867 0 0 .18867 289.5 14.533)" d="m255 417.86a15.5 15.5 0 1 1 -31 0 15.5 15.5 0 1 1 31 0z" fill="#fff"/>
  <path transform="matrix(.18867 0 0 .18867 289.5 14.533)" d="m255 417.86a15.5 15.5 0 1 1 -31 0 15.5 15.5 0 1 1 31 0z" fill="url(#a)"/>
  <path transform="matrix(.18867 0 0 .18867 296 13.533)" d="m255 417.86a15.5 15.5 0 1 1 -31 0 15.5 15.5 0 1 1 31 0z" fill="#fff"/>
  <path transform="matrix(.18867 0 0 .18867 296 13.533)" d="m255 417.86a15.5 15.5 0 1 1 -31 0 15.5 15.5 0 1 1 31 0z" fill="url(#a)"/>
  <path transform="matrix(.18867 0 0 .18867 252.75 18.283)" d="m255 417.86a15.5 15.5 0 1 1 -31 0 15.5 15.5 0 1 1 31 0z" fill="#fff"/>
  <path transform="matrix(.18867 0 0 .18867 252.75 18.283)" d="m255 417.86a15.5 15.5 0 1 1 -31 0 15.5 15.5 0 1 1 31 0z" fill="url(#a)"/>
  <path transform="matrix(.18867 0 0 .18867 246 18.533)" d="m255 417.86a15.5 15.5 0 1 1 -31 0 15.5 15.5 0 1 1 31 0z" fill="#fff"/>
  <path transform="matrix(.18867 0 0 .18867 246 18.533)" d="m255 417.86a15.5 15.5 0 1 1 -31 0 15.5 15.5 0 1 1 31 0z" fill="url(#a)"/>
  <path transform="matrix(.18867 0 0 .18867 239.25 19.033)" d="m255 417.86a15.5 15.5 0 1 1 -31 0 15.5 15.5 0 1 1 31 0z" fill="#fff"/>
  <path transform="matrix(.18867 0 0 .18867 239.25 19.033)" d="m255 417.86a15.5 15.5 0 1 1 -31 0 15.5 15.5 0 1 1 31 0z" fill="url(#a)"/>
  <path transform="matrix(.18867 0 0 .18867 232.5 19.533)" d="m255 417.86a15.5 15.5 0 1 1 -31 0 15.5 15.5 0 1 1 31 0z" fill="#fff"/>
  <path transform="matrix(.18867 0 0 .18867 232.5 19.533)" d="m255 417.86a15.5 15.5 0 1 1 -31 0 15.5 15.5 0 1 1 31 0z" fill="url(#a)"/>
  <path transform="matrix(.18867 0 0 .18867 225.5 18.533)" d="m255 417.86a15.5 15.5 0 1 1 -31 0 15.5 15.5 0 1 1 31 0z" fill="#fff"/>
  <path transform="matrix(.18867 0 0 .18867 225.5 18.533)" d="m255 417.86a15.5 15.5 0 1 1 -31 0 15.5 15.5 0 1 1 31 0z" fill="url(#a)"/>
  <path transform="matrix(.18867 0 0 .18867 218.5 17.283)" d="m255 417.86a15.5 15.5 0 1 1 -31 0 15.5 15.5 0 1 1 31 0z" fill="#fff"/>
  <path transform="matrix(.18867 0 0 .18867 218.5 17.283)" d="m255 417.86a15.5 15.5 0 1 1 -31 0 15.5 15.5 0 1 1 31 0z" fill="url(#a)"/>
  <path transform="matrix(.18867 0 0 .18867 212 16.283)" d="m255 417.86a15.5 15.5 0 1 1 -31 0 15.5 15.5 0 1 1 31 0z" fill="#fff"/>
  <path transform="matrix(.18867 0 0 .18867 212 16.283)" d="m255 417.86a15.5 15.5 0 1 1 -31 0 15.5 15.5 0 1 1 31 0z" fill="url(#a)"/>
  <path transform="matrix(.18867 0 0 .18867 205.75 14.033)" d="m255 417.86a15.5 15.5 0 1 1 -31 0 15.5 15.5 0 1 1 31 0z" fill="#fff"/>
  <path transform="matrix(.18867 0 0 .18867 205.75 14.033)" d="m255 417.86a15.5 15.5 0 1 1 -31 0 15.5 15.5 0 1 1 31 0z" fill="url(#a)"/>
 </g>
</svg>
