<?xml version="1.0" encoding="UTF-8"?>
<svg viewBox="0 0 128 128" xmlns="http://www.w3.org/2000/svg" xmlns:xlink="http://www.w3.org/1999/xlink">
 <defs>
  <filter id="g" x="-.34802" y="-.34085" width="1.696" height="1.6817">
   <feGaussianBlur stdDeviation="5.46506"/>
  </filter>
  <filter id="f" x="-.51975" y="-.45339" width="2.0395" height="1.9068">
   <feGaussianBlur stdDeviation="4.15116"/>
  </filter>
  <filter id="e" x="-.07002" y="-.3401" width="1.14" height="1.6802">
   <feGaussianBlur stdDeviation="3.96783"/>
  </filter>
  <linearGradient id="b">
   <stop stop-opacity="0" offset="0"/>
   <stop stop-opacity=".57196" offset="1"/>
  </linearGradient>
  <radialGradient id="d" cx="210.89" cy="506.35" r="68" gradientTransform="matrix(1.4028 1.6439e-6 -1.4521e-7 .20588 -89.845 403.11)" gradientUnits="userSpaceOnUse">
   <stop offset="0"/>
   <stop stop-opacity="0" offset="1"/>
  </radialGradient>
  <radialGradient id="a" cx="233.5" cy="409.86" r="15.5" gradientTransform="matrix(.3871 1.5161 -1.4234 .36342 726.51 -93.107)" gradientUnits="userSpaceOnUse" xlink:href="#b"/>
  <radialGradient id="c" cx="216.99" cy="497.96" r="65" gradientTransform="matrix(.7158 1.4128 -1.3538 .68592 1027.8 -6.7722)" gradientUnits="userSpaceOnUse" xlink:href="#b"/>
 </defs>
 <g transform="matrix(.71287 0 0 .71287 -315.24 -413.05)">
  <path transform="matrix(1.0588 0 0 .85714 313.88 306.48)" d="m274 507.36c0 7.728-30.464 14-68 14s-68-6.272-68-14 30.464-14 68-14 68 6.272 68 14z" fill="url(#d)" filter="url(#e)"/>
  <path d="m597 680.36c0 4.8429-0.53051 37.563-1.5365 42.104-2.4742 12.459-10.483 19.633-22.511 22.363-5.5901 1.0428-11.949-21.824-18.85-21.951s-14.344 22.484-22.103 22.484c-7.7957 0-15.272-22.625-22.2-22.52s-13.308 22.94-18.91 21.858c-12.684-2.1049-19.316-10.781-22.443-22.645-0.94804-4.4155-1.4472-36.997-1.4472-41.694 0-35.88 29.12-65 65-65s65 29.12 65 65z" fill="#344a33"/>
  <path d="m532 615.38c-23.294 0-43.742 12.259-55.219 30.688 0.39326-0.23806 0.77802-0.51382 1.1562-0.8125 8.5059-2.0178 17.38-0.8766 26.031-1.625 6.6341 0.58255 12.873-0.19797 19.25-1.7812 6.7981 0.68464 13.236-2.5982 20.062-2.5625 6.6382-5.0805 12.349 8.371 17.656 0.8125 1.9523-6.2319 8.0222-7.7172 14-8.5-4.0729-3.5897-8.5876-6.667-13.469-9.1562-3.7224 1.4855-7.3296 2.7037-10.219-0.0625-0.06393-1.198 0.90573-2.3488 2.0938-3.4062-4.21-1.4651-8.6036-2.4898-13.156-3.0625-2.2613 0.38371-4.5078 0.35942-6.6875-0.5-0.50029-0.01138-0.99699-0.03125-1.5-0.03125zm-41.125 52.219c-2.6984 0.08738-5.481 1.0106-8.125 1.125-4.2184 0.09491-8.4136 0.10075-12.5-1.0312-0.77075 0.1704-1.4993 0.51009-2.1875 0.9375-0.69676 3.8113-1.0625 7.7385-1.0625 11.75 0 4.6974 0.48947 37.272 1.4375 41.688 0.90776 3.4436 2.1269 6.6138 3.6875 9.4375 4.0669-0.18318-4.6717-7.6912-0.15625-8.625 4.4794 0.63549 8.7449-1.8636 11.125-5.5625 3.0386-5.4589-7.0278-3.7663-7.4375-8.5625-2.0453-4.7621 2.6782-6.5461 6.5625-5.5312 3.9649 0.62658 8.1725 0.71438 12.125-0.09375 4.2304-0.39464 9.5013-1.0296 12.5-3.875-0.53955-5.2258-9.1575-2.0958-9.5625-7.0625-2.2867-3.4878 0.90398-4.7668 2.9688-7.0312 3.7676-1.6544 8.1999 0.00288 12.031-1.75 4.2715-0.67234 7.762-3.2907 11.812-4.5938 3.5101-4.536-4.4492-6.2417-7.5938-4.3125-3.7973 1.1984-8.308 0.28043-11.75 2.5938-3.1963 1.6216-6.1702 8.1159-9.9062 3.9375-3.6675-3.667-8.9922-0.94213-13.438-1.875-2.1646-4.2275 3.2082-5.3847 6.3125-4.625 3.8215-0.3784 7.8553-0.8549 11.406 0.96875 5.5547-1.4706 0.52405-7.4602-3.5312-6.8125-1.5115-0.88917-3.0997-1.1462-4.7188-1.0938zm105.31 22.031c-6.8104 0.30409-9.8495 8.0951-18.125 6-9.1172-1.036-18.089 0.2919-27.125 0.90625-8.5098-4.2642-16.531 8.554-4.4375 8.5625 8.5186-0.8306 17.647-1.3763 22.625 6.3438 3.3181-0.11661 11.59 1.002 4.6562 4.25-3.4506 0.82827-15.521-3.6954-8.8125 3.1875 8.8569 7.379 18.588-0.34815 28.5-2.0312 1.0789-0.323 1.9021-0.46565 2.5625-0.53125 0.41742-7.1638 0.69517-18.444 0.84375-26.688-0.23133-0.00671-0.46454-0.00996-0.6875 0zm-0.40625 30.438c-1.8657 1.6406-4.5356 3.1797-6.3438 3.0938-3.2499 1.4686-12.194-0.02371-6.5312 5.9062 2.1296 1.0262 5.948 1.399 9.5312 2.0312 1.3566-2.532 2.3906-5.3987 3.0312-8.625 0.10783-0.48679 0.21566-1.341 0.3125-2.4062zm-19.562 15.406c-3.7441 0.03542-6.6822 1.5984-9.4062 3.6562 2.1325 3.4867 4.1707 6.0833 6.125 5.7188 4.995-1.1339 9.3123-3.0544 12.812-5.7812-3.078-0.98461-6.0228-2.4162-8.5312-3.5625-0.33452-0.02021-0.67751-0.0343-1-0.03125z" fill="#463a28" fill-rule="evenodd"/>
  <path d="m518.25 616.84c-5.5799 1.2036-10.897 3.1198-15.844 5.6562 3.691 2.038 2.162 9.3473-4.1875 8.4062-4.3138-0.63936-15.53 7.8545-8.5938 9.7188 2.7293 0.73352 7.5384 3.2142 2.1562 2.8438-4.7442-0.32649-9.3795 0.39985-14.031 1.0938-3.2726 4.946-5.8563 10.358-7.6875 16.125 4.8534-0.33189 9.6043-1.6901 13.219-4.0938 3.9869-2.6513 7.7994-3.6868 7.625 2.5-0.14407 5.1103 11.972-2.6196 12.969 5.8125 0.69077 5.8412-4.6458 9.0365-9.0938 10.625-5.8589 2.0924-5.5942 10.774-0.3125 12.125 4.3928 1.124 15.487 7.1308 14.75-1.125-0.68514-7.6756 5.8586-10.458 10.75-14.438 5.9156-4.8131 12.894-2.2956 17.844 2.0938 3.7417 3.3184 4.9605-0.38905 9.6562 0.59375 5.6909 1.1911-2.0454-4.2726-2.7188-6.0312-2.3682-6.1848-10.639-4.4005-15.812-6.375-3.5283-1.3465-13.993-3.1495-8.0938-6.7188 4.588-2.776 12.267 0.20419 17.344 3.0625 3.4127 1.9213 9.3493 3.4293 7.9375-2.4375-0.85154-3.5388-0.68639-6.638-1.5625-10.094-1.414-5.5773-14.085-2.037-20.875-3s5.5315-3.4261 0.09375-6.8438c-2.5806-1.622-11.492-1.3687-6.5-5.875 4.9232-4.4443 13.13-5.8366 19.5-4.25 5.1886 1.2924-8.9404 6.9057-1.1562 7.3125 5.2786 0.27586 10.823-2.7073 15.875-1.2812 3.6529 1.0312 13.639-0.06205 9.2188-3.4062-3.7814-2.8608-13.728 3.7649-17.125 0.71875-3.4941-3.1337-5.9381-6.6653-11.625-5.9062-4.315 0.57589-15.006 0.31534-15.5-2.4375-0.19553-1.0904 1.2695-3.0747 1.7812-4.375zm67.531 27.031c0.01902 0.20031 0.0543 0.38857 0.0625 0.59375 0.24741 2.2857-3.013 1.7444-4.4062 2.25-0.74995 1.8762 2.8302 2.0924 4.1875 2.0625 1.466 0.24077 3.254 0.61663 4.1562 1.8125-1.2028-2.3287-2.5346-4.5644-4-6.7188zm4.4375 7.5625c0.06494 0.20355 0.10173 0.41862 0.125 0.65625 0.41113 2.4719-2.9788 2.0061-4.5 2.5625-2.1919 1.0353-4.6893 0.82845-6.9375 1.625-1.6428 0.74982-2.9965 2.9534-2.0938 4.7188 1.6 2.3934 4.8948-0.2498 7.2812 0.53125 1.6024-0.62681 3.4307 0.69443 1.5625 2.0625-1.8918 1.1514-3.6822 2.4982-5.5938 3.625-1.6352 1.2694-4.4564 2.9491-3.2812 5.4062 0.86068 1.7625 3.2846 2.1258 5.0625 2.0938 2.4389-0.39941 4.9565-0.59163 7.4062-0.125 2.0702 0.73069 4.5076-0.62261 6.3125 0.75 0.39361 0.47316 0.83239 0.86602 1.3125 1.2188-0.52017-8.9794-2.851-17.486-6.6562-25.125zm-67.688 43.719c-0.9844-0.03106-2.0246 2.1709-1.875 3.25 0.31341 2.2607 0.42163 4.7848 2 6.5312 0.42703 0.47252 0.99502 0.88891 1.2812 1.4375 0.64394 1.2342-2.5384 2.0796-3.6562 2.7812-2.3532 1.4772-3.6294 4.6973-6.375 5.4062-2.3898 0.61711-4.1036-2.4007-6.5625-2.0938-1.8401 0.22968-4.3292-0.27778-5.3125 1.9375-0.59 1.3292-0.26342 5.2281 1.3438 2.5 1.084-1.84 6.4552-2.1358 6.0938 1.125-0.31683 2.8581-3.9479 1.2497-5.625 2.4375-1.1564 0.81901-2.5098 3.3217-0.15625 2.625 1.0191-0.30167 1.972 0.58952 3.0938 1.125 0.99368-0.8491 2.0132-1.3596 3.0312-1.375 0.48402-0.00734 0.9482 0.11342 1.4375 0.3125 0.9066-0.58039 1.7603-0.93584 2.5312-0.03125 1.308 1.5347 4.9072 1.661 3.625 4.2188-0.18747 0.37396-0.40559 0.76912-0.625 1.1562 0.82522 1.128 1.6629 2.3609 2.5 3.625 0.22955-0.27628 0.42759-0.54145 0.53125-0.75 1.0208-2.0537 2.6111-3.057 4.6562-3.5625 1.9578-0.48393 3.2096-3.8914 5.4688-2.5312 1.0761 0.64789 2.0358 0.47061 0.9375-0.84375-1.4082-1.6852-3.6706-1.3102-5.5-1.4688-2.1427-0.18574-2.595-3.0216-4.1562-3.7188-0.94979-0.42404-4.0678 0.01057-2.3125-1.4688 1.5391-1.2971 2.5949-3.0042 4.1875-4.2812 1.6825-1.3491 3.2834-3.5562 5.5938-3.25 2.3528 0.31187 3.9526-1.9188 6.1875-1.7812 2.0365 0.12532 4.0488 1.1279 5.5 2.8438 2.1116 2.4968 3.2473 6.2112 1.875 9.4062-0.9046 2.1062-2.061 4.002-3.6562 5.4062-1.2256 1.0788-2.3398 4.8018 0.15625 4.125 1.7624-0.47785 3.1675-1.8932 4.6562-2.9375 1.5654-1.0981 3.019-4.1893 4.0625-4.3438 0.78592-0.11636 0.67938 1.8316 1.2812 3.4688 1.8175-2.1555 3.5924-3.5948 5.3438-3.5625 1.5193 0.02806 3.0357 1.1716 4.5 2.9062 0.26373-0.41569 0.52568-0.82245 0.75-1.2188 1.9358-3.4199 0.1717-4.7238-0.96875-6.4062s-1.8426-1.6072-0.5625-3 6.4465-0.54168 7.1562-3-5.4377-3.4768-10.062-3c-4.0632 0.41889-6.5056 3.5963-9.0625 3.0312-1-0.22095-0.95616-2.172-1.4688-3.25-0.97145-2.043-2.5368-4.0126-4.5625-4.9062-2.4676-1.0886-5.4978 0.75746-7.8125-1.25-1.4605-1.2666-3.6083-1.1273-5.1875-2.0312-1.7178-0.98336-2.9321-2.8683-3.5-4.9375-0.12886-0.46944-0.50562-0.64757-0.78125-0.65625zm73.844 13.188c-1.577 0.31854-2.9785 0.7115-3.4375 1.8438-0.78892 1.3395-1.9261 3.731 0.09375 4.5938 1.1862 0.41641 2.2676-0.24462 3.125-1.0938 0.07997-1.679 0.18137-3.4332 0.25-5.3438h-0.03125zm-6.7812 5.6875c-0.53163-0.0559-1.0462 0.63649-1.1562 2.5312-0.29344 5.0527-3.5578 9.6154-6.0938 14.031-2.761 3.5404-7.2831 5.0199-10.156 8.4688-1.1849 0.96933-2.5393 1.6584-3.9375 2.25 1.6205 2.2945 3.175 3.8134 4.6875 3.5312 12.027-2.7302 20.057-9.9158 22.531-22.375-3.3888 1.255-5.6722-0.8837-4.7188-3.9688 0.67928-2.1979-0.2702-4.3756-1.1562-4.4688zm-104.44 5.8438c-4.9702 0.01473-9.7481 3.0694-14 5.4062-0.50812 0.24907-0.98919 0.54173-1.4688 0.84375 2.4269 6.7249 6.2813 12.125 12.094 15.438-1.2674-0.88844-2.0247-2.07-1.5-3.875 1.7143-4.6905 7.0271-4.5042 10.562-2.1562 4.1153 1.6526 1.3414-5.3731-1.9688-4.7812-2.4852-0.82349-9.4956 0.953-6.5938-2.3125s8.1403 1.066 12.156 1.5c3.6044-1.8279-5.0957-4.8495-6.7188-5.625-4.2273-1.0233-2.0382-2.1742 1.3125-2.0625 0.77776-0.54965 0.54292-1.653-0.40625-1.8438-1.1653-0.36671-2.3218-0.53465-3.4688-0.53125z" fill="#758949" fill-rule="evenodd"/>
  <path d="m519.5,616.59375c-.93246.18194-1.86348.37236-2.78125.59375 .16984,1.76945-.17312,3.43977-2.25,4.21875-2.06239.77352-3.97459.25088-5.8125-.40625-.51875-.18547-1.01675-.43967-1.53125-.6875-3.01687,1.25275-5.91984,2.73213-8.6875,4.40625 .59439,2.19379 3.25939,1.96012 5.15625,1.9375 2.66487-.03179 5.20489-1.3608 7.84375-.84375 2.67129.52339 1.76252,3.66851 2.09375,5.625 .37524,2.21641.51585,4.66066-.59375,6.59375-1.21407,2.11512-3.40097,3.558-5.0625,5.375-1.63406,1.78695-4.00832,2.55436-5.46875,4.59375-2.27624,3.17857 1.76839,3.43672 3.625,1.65625 2.67367-2.56401 5.28322-5.20064 8.09375-7.59375 2.01419-1.71504 2.56833.37964 3.53125,1.625 1.42449,1.84229 1.89969,4.47589 2.375,6.25s.00566,5.79067 1.5,4.5625c1.65314-1.35874 1.3398-4.5862 1.40625-6.96875 .06822-2.44551.05245-5.35327 1.84375-7.15625 1.54082-1.55089 4.2226-.58769 6.28125-.4375 2.99372.21841 3.41506-3.48691.28125-3.375-2.42104.08644-4.8823-.92464-7.28125-.625-2.59202.32376-2.07468-2.63059-3-4.1875-1.19032-2.00273-4.04193-3.50577-4.4375-5.25-.33266-1.46669 2.26331-3.07377 3.21875-4.75 .87072-1.52759-.14671-3.69304-.34375-5.15625zm50.1875,14.03125c-.16935-.00698-.3309.01494-.5.03125-.17767.02786-.33044.11103-.46875.21875-.16154.12583-.30308.2848-.4375.4375-.14072.14981-.25753.30053-.375.46875l-.34375.46875c-.08685.11398-.17518.18525-.28125.28125-.14105.11113-.25546.24278-.375.375-.16296.1802-.34948.3701-.53125.53125-.20866.19703-.45401.33341-.6875.5-.19911.14204-.37236.28499-.5625.4375-.13204.10589-.27636.23557-.40625.34375-.14928.1092-.28229.24077-.40625.375-.13385.14497-.25649.31213-.375.46875-.14559.1696-.28343.33759-.4375.5-.15912.16776-.30298.33824-.46875.5-.14366.16731-.29125.33531-.4375.5-.12027.14528-.25745.25906-.375.40625-.1001.12533-.2224.23761-.34375.34375-.13854.10666-.27415.20366-.375.34375-.12678.15855-.17757.37859-.25.5625s-.15476.34479-.21875.53125c-.04896.14271-.11416.27429-.1875.40625-.0597.10739-.14532.20736-.25.28125-.11437.08069-.24259.14115-.375.1875-.19587.05972-.39427.13764-.59375.1875-.20554.06791-.41124.08412-.625.125-.1762.03371-.35542.09001-.53125.125-.14509.02888-.28771.00701-.4375,0-.21909-.0103-.43997-.04615-.65625-.09375l-.9375-.1875c-.36726-.0898-.75722-.16249-1.125-.25-.33344-.06316-.64159-.1549-.96875-.25-.20795-.05619-.41922-.12202-.625-.1875-.18527-.07901-.39896-.14869-.59375-.1875-.18131-.01946-.36598-.05052-.53125.03125-.03772.01866-.059.07053-.09375.09375-.19284.23049-.18921.50772-.15625.78125 .05697.3613.21012.70687.375,1.03125 .15589.30676.36137.58854.59375.84375 .2216.23333.50606.39524.78125.5625 .28551.166.54415.32677.84375.46875 .26657.13991.57162.27664.84375.40625s.56419.22215.84375.34375c.26691.11024.52217.24798.78125.375 .2326.11896.47943.2069.71875.3125 .21597.10061.42556.15961.65625.21875 .22306.05154.46059.02756.6875,0s.46371-.10807.6875-.1875c.22547-.10039.47862-.12232.71875-.15625 .25901-.03657.49829-.08126.75-.15625 .23249-.07818.46762-.20324.6875-.3125 .15169-.08995.30659-.18247.46875-.25 .1328-.05531.26432-.05999.40625-.0625 .14262.00968.28058.05916.40625.125 .18732.09805.35354.22942.53125.34375 .20409.13127.39394.23667.59375.375l.625.40625c.19137.1234.39555.23102.59375.34375 .21188.1083.4177.22596.625.34375 .23003.1307.45785.27389.6875.40625 .2635.17103.5284.30366.8125.4375 .3157.14101.62869.34312.9375.5l.8125.375c.19691.09266.41236.14703.625.1875 .17091.03251.36189.05265.53125.09375 .21269.03667.39044.11536.59375.1875 .21956.07789.46581.11633.6875.1875 .1755.04936.32753.12742.5.1875 .15823.06917.34037.12221.5.1875l.5625.21875 .625.25c.14174.07155.26058.15621.40625.21875s.31454.08522.46875.125c.14857.04512.28821.11343.4375.15625 .16072.07111.33814.11902.5.1875 .17617.08467.33857.14805.53125.15625 .1774-.01656.35213-.03344.53125-.03125 .22101-.00897.43213-.09881.40625-.34375-.00389-.03672-.01587-.09143-.03125-.125-.09662-.21109-.25814-.38451-.40625-.5625s-.29869-.34418-.4375-.53125c-.14795-.19945-.3059-.40658-.46875-.59375-.14962-.17196-.32473-.32221-.5-.46875-.14033-.11735-.27678-.24683-.40625-.375-.148-.14645-.29582-.28572-.4375-.4375l-.46875-.5c-.1704-.18152-.33064-.38066-.5-.5625-.15561-.17431-.32409-.34566-.5-.5-.2071-.17084-.41685-.31349-.65625-.4375-.25258-.13815-.53022-.26633-.78125-.40625-.26387-.14709-.53499-.25425-.8125-.375l-.75-.3125c-.19727-.07493-.36861-.13677-.5625-.21875-.14985-.07299-.31163-.16091-.46875-.21875-.13587-.06231-.29761-.07298-.4375-.125-.13508-.04276-.24745-.12844-.375-.1875-.15535-.07199-.31765-.13898-.46875-.21875-.1526-.09417-.30144-.18226-.46875-.25l-.4375-.1875c-.11329-.05753-.22284-.085-.34375-.125-.11485-.05413-.24881-.07407-.375-.09375-.11836-.0185-.22416-.01744-.34375-.03125l-.1875-.03125-.25-.09375c-.17228-.08161-.3563-.19008-.5-.3125-.07734-.06589-.12827-.14912-.15625-.25-.03933-.10233-.05522-.20364-.0625-.3125 .01226-.09652.03796-.18608.0625-.28125 .0386-.10574.09767-.18423.15625-.28125 .0711-.11773.18896-.21059.28125-.3125 .08962-.11201.17312-.21644.28125-.3125s.22932-.1908.34375-.28125c.11739-.09283.22627-.18836.34375-.28125s.22626-.1879.34375-.28125 .22641-.18763.34375-.28125l.375-.28125c.11731-.09392.22697-.18652.34375-.28125 .12265-.09951.26438-.2005.375-.3125s.18411-.24874.28125-.375c.09275-.13886.20132-.26011.28125-.40625 .09442-.17259.18632-.35867.28125-.53125 .10578-.1712.20034-.3321.3125-.5 .11383-.1808.25723-.35244.375-.53125 .11664-.18541.17616-.38946.25-.59375 .0671-.17001.14004-.35491.1875-.53125 .0528-.19625.10242-.39689.15625-.59375 .06068-.20525.13239-.38669.1875-.59375 .03046-.17829.04372-.38234.0625-.5625 .03579-.15869.03311-.30858.03125-.46875-.0019-.16684-.0682-.31506-.125-.46875-.06037-.20112-.1666-.33762-.34375-.4375-.19134-.09272-.41667-.1104-.625-.125zm-23.4375,14.96875c-.61654.02736-1.22329.24695-1.75.5625-1.56075,1.17733-2.25812,3.21921-2.3125,5.125 .21681,1.4892.79852,2.99391 1.9375,4.03125 1.01678,1.15735.32421,2.78729.875,4.125 .76376,1.42993 2.53231,2.13609 3.40625,3.5625 .9957,1.01424 2.60399,1.08345 3.84375,1.71875 1.20738.78432 1.29864,2.76988 2.65625,3.625 1.19995,1.08911 2.9136,2.11301 4.5,1.15625 1.32547-.64699 2.47412-2.10018 4.09375-1.21875 1.56.14236 2.7162-2.20382 4.21875-.65625 1.71362.52964 3.55667.3362 5.09375-.59375 1.46557-1.20575-.78261-1.74653-1.71875-1.1875-1.66391.44747-.43147-1.23067.375-1.46875 1.65539-1.05179 3.18165-2.54864 3.75-4.46875 .10289-1.87714-2.06842-.72844-2.28125.4375-.81319,1.38623-1.33971,3.43101-3.1875,3.71875-1.39032.00076-2.65777.42781-3.78125,1.25-1.38469.78297-2.87901-.2446-4.25-.5625-1.33267-.89069-2.9493-.82-4.4375-.4375-1.8789.81661-1.91971-1.69849-.71875-2.4375 1.47538-1.26773-.9215-3.27616-2.34375-2.65625-1.39217.21687-2.48877-1.807-.90625-2.4375 1.12706-.74462 2.86473-1.22339 2.8125-2.875 .08261-1.25605-.41788-2.8862-1.75-3.28125-1.36993-.70916-2.56897,1.65532-3.53125,1.03125-.76113-1.40635-.66867-3.05374-.8125-4.59375-.52441-1.51746-2.44239-1.51494-3.78125-1.46875zm36.9375.84375c-.05818.04655-.01292.02074-.0625.0625l-.09375.03125 .28125-.03125c-.02195-.04475-.09766-.08435-.125-.0625zm-93.96875,6.53125c-.17748.01242-.32764.04663-.5.09375-2.25058.39587-4.44104,1.32147-6.1875,2.8125-1.84708,1.18944-3.96505,1.87999-5.90625,2.875-1.65542.16195-3.67275.78919-4.25,2.53125-.04127,1.94625 2.36133.94041 3.3125.34375 1.1572-.66757 2.365-1.35074 3.75-1.125 1.0186-.19049 1.47235.40859.4375,1-.95011.83809-1.88219,1.75585-2.625,2.71875-1.17576.70263-2.72731,1.72708-2.75,3.21875 1.27996,1.60304 2.9258-1.04713 3.90625-1.9375 1.25633-1.57914 2.72363-2.93693 4.21875-4.28125 1.17584-.87457 2.49635-1.62168 3.875-2.125 1.21989-.34732 2.93402,1.00253 1.96875,2.21875-1.63963.69189-3.03247,1.94354-3.75,3.59375-.54318,1.07167-1.62526,3.26067.15625,3.65625 1.6754-.37589 1.83415-2.54142 2.8125-3.71875 .76122-1.41085 2.35317-2.08881 3.875-2.25 1.62244-.12853 1.49967,1.8606.8125,2.78125-.75716,1.37597-2.40545,1.57338-3.71875,2.125-1.52618.22831-.72853,1.62452.46875,1.375-.28251.35632-1.13514,1.54461-.5625,2.4375 1.01116,1.64031 2.56302-.56576 2.78125-1.71875 .2866-1.58163 2.0888-1.57078 2.875-2.65625 .67009-1.21098.57506-2.76928 1.8125-3.65625 1.05264-.90214 2.50709-.11849 3.71875-.09375 1.59581.02588 1.44266,2.08666 1.125,3.15625-.93882,1.89588-2.66683,3.26297-4.3125,4.53125-1.22909.28246-1.51515,2.70372.09375,1.8125 1.59574-.32026 1.60075,1.96457 1.125,2.96875-.5209.86097-.38915,3.54775 1,2.09375 .89853-1.37058.78389-3.29041 2.03125-4.46875 1.16812-1.16536 1.8326-2.6721 2.71875-4.03125 1.29492-1.52108 1.32967-3.73131.5625-5.5-.20635-1.49856-.89467-2.87381-1.71875-4.125-.50919-1.12897-1.66809-2.04437-2.96875-1.75-1.25599.00288-2.09994.97724-3.125,1.53125-1.1189.62723-2.81478.72402-3.8125-.0625-.89912-1.37098.38125-2.92919.0625-4.375-.47676-1.051-1.58027-1.97227-2.78125-2-.17719.0035-.35377-.01242-.53125,0zm-18.59375,5.96875c-1.6386,4.68836-2.75711,9.61132-3.28125,14.71875 .59367-.32619 1.19621-.6096 1.8125-.875 2.3746-1.90455 2.19678-5.249 2.3125-8-.17374-1.8742.28063-4.0443-.65625-5.6875-.06269-.05354-.12243-.11072-.1875-.15625zm71.625,8.4375c-4.41297-.12526-2.68033,6.90237-5.6875,4.84375-2.78716-2.78922-7.03647-4.21385-11.15625-4.46875-4.42662-.0866-7.53652,3.46668-8.96875,7.34375-1.56619,5.64183 4.31248-2.56698 5.65625,1.125 1.01244,2.28251 3.3262,2.84036 3.78125-.15625 1.82487-3.62546 9.62421-2.47897 6.21875,2.21875-2.32304,2.85804-5.25739,5.18228-7.5,8.125-2.05746,3.37034-8.04176,2.41425-9.65625,5.34375 2.38258-.45653 9.57245-3.23312 7.5625,1.96875 3.40255,1.00115 1.97316-6.93825 5.71875-6.03125 .24414,3.11488 5.59271,8.0009 7.75,5.875-2.20992-2.63294-5.63448-5.05872-5.0625-9.0625 .29095-3.88693 5.05499-6.4337 8.5-4.84375 3.10627,4.03247-1.79241,5.93552-3.4375,8.84375-.09469,2.26194 4.11981-3.20185 3.53125.6875-1.83591,3.01241 1.99008,3.30645 1.875.21875-.50266-3.63263.78033-7.77111 4.90625-8.375 1.89757-1.67174 3.9104-3.17102 6-4.625 4.42442-2.54675 6.27102,3.04207 2.84375,5.59375-2.19602,2.46213-2.88654,6.51999-1.53125,9.4375 1.12276-3.39225 2.7646-8.0676 7.03125-8.15625 3.35038-.10543 6.68883-5.93391 9.90625-2.4375 1.03897,1.63079 6.22259,2.32755 3,4.78125-2.15204,1.31858-7.09849,3.99917-5.78125,6.65625 2.79638-.66984 4.90792-7.21275 6.875-2.09375 1.46608-1.11485 1.69531-6.72967 5.9375-4.78125 4.15123,1.18381 8.41549,1.27959 12.34375,3.28125 2.95951,1.28254-.63256,5.3712-1.1875,7.5-1.14168,4.56496-6.26273,2.56546-9.8125,3.09375-1.56584.4545-8.24346,2.67917-4.78125,4.0625 2.65141-1.64769 7.34864-3.18355 9.9375-1.28125 2.56738,3.61782-1.86631,8.40289-6.03125,7.625s-7.19988,4.23922-10.0625,6.875c-2.48044,4.98122-5.84688,9.40704-9.25,13.78125 .26289.43486.55171.86424.8125,1.3125 1.7113-2.08244 3.84615-5.18944 6-3.9375 1.87703,2.44973-2.22259,9.0841 1.53125,9.0625 3.7329-2.77947-1.23752-8.56153 2.09375-11.34375 3.10312-.19281 4.10607,4.23347 7.59375,2.34375 4.8697-.6423-.49865-3.00379-2.65625-2.46875-3.1961-1.32125-2.18624-6.46633-1.78125-9.15625 1.82867-3.13064 5.81821-5.57138 8.59375-4.6875s1.24993,7.34465 3.1875,3.5c.89235-3.89429 3.03316-7.97722 4.96875-11.53125 .7196-3.18845 2.76798-5.61753 4.6875-8.09375 .06608-2.98348.11851-5.68974.15625-8.0625l-.09375-.03125c-.07132-4.8281-7.18145-1.45408-7.6875-5.84375-3.79873-.47687-7.83891.70299-11.71875.34375-4.33415-1.05464-6.38931-5.39106-10-7.53125-3.35535-3.76795-7.87511-.00823-11.75,0-3.09229-2.72991-7.39514-4.0825-11.09375-6.28125-.91327-.35626-1.68208-.54461-2.3125-.5625zm-16.8125,71.8125c-.38442-.00783-.72879.16277-1,.4375 .89283,1.17727 1.78405,2.26909 2.6875,3.15625 .00138-.07245-.00176-.14665 0-.21875-.25402-1.14034-.32975-2.5105-1.28125-3.3125-.13762-.04763-.27608-.05985-.40625-.0625z" fill="#17181f" fill-rule="evenodd"/>
  <path d="m597 680.36c0 4.8429-0.53051 37.563-1.5365 42.104-2.4742 12.459-10.483 19.633-22.511 22.363-5.5901 1.0428-11.949-21.824-18.85-21.951s-14.344 22.484-22.103 22.484c-7.7957 0-15.272-22.625-22.2-22.52s-13.308 22.94-18.91 21.858c-12.684-2.1049-19.316-10.781-22.443-22.645-0.94804-4.4155-1.4472-36.997-1.4472-41.694 0-35.88 29.12-65 65-65s65 29.12 65 65z" fill="url(#c)"/>
  <path transform="translate(332,251)" d="m255 417.86a15.5 15.5 0 1 1 -31 0 15.5 15.5 0 1 1 31 0z" fill="#fff"/>
  <path transform="translate(332,251)" d="m255 417.86a15.5 15.5 0 1 1 -31 0 15.5 15.5 0 1 1 31 0z" fill="url(#a)"/>
  <path transform="matrix(.6129 0 0 .6129 429.71 413.75)" d="m255 417.86a15.5 15.5 0 1 1 -31 0 15.5 15.5 0 1 1 31 0z"/>
  <path transform="translate(292,251)" d="m255 417.86a15.5 15.5 0 1 1 -31 0 15.5 15.5 0 1 1 31 0z" fill="#fff"/>
  <path transform="translate(292,251)" d="m255 417.86a15.5 15.5 0 1 1 -31 0 15.5 15.5 0 1 1 31 0z" fill="url(#a)"/>
  <path transform="matrix(.6129 0 0 .6129 389.71 413.75)" d="m255 417.86a15.5 15.5 0 1 1 -31 0 15.5 15.5 0 1 1 31 0z"/>
  <path d="m503.01 647.25c-10.026 10.27-20.406 16.414-23.171 13.715s3.1277-13.225 13.153-23.494 20.406-16.414 23.171-13.715-3.1277 13.225-13.153 23.494z" fill="#fff" fill-opacity=".62745" filter="url(#g)"/>
  <path transform="matrix(.77126 .63652 -.63652 .77126 702.12 179.53)" d="m262 501.86c0 7.452-2.464 13.5-5.5 13.5s-5.5-6.048-5.5-13.5 2.464-13.5 5.5-13.5 5.5 6.048 5.5 13.5z" fill="#fff" fill-opacity=".43439" filter="url(#f)"/>
 </g>
</svg>
