<?xml version="1.0" encoding="UTF-8"?>
<svg viewBox="0 0 128 128" xmlns="http://www.w3.org/2000/svg" xmlns:xlink="http://www.w3.org/1999/xlink">
 <defs>
  <filter id="l" x="-.34802" y="-.34085" width="1.696" height="1.6817">
   <feGaussianBlur stdDeviation="5.46506"/>
  </filter>
  <filter id="k" x="-.51975" y="-.45339" width="2.0395" height="1.9068">
   <feGaussianBlur stdDeviation="4.15116"/>
  </filter>
  <filter id="j" x="-.07002" y="-.3401" width="1.14" height="1.6802">
   <feGaussianBlur stdDeviation="3.96783"/>
  </filter>
  <linearGradient id="a">
   <stop stop-opacity="0" offset="0"/>
   <stop stop-opacity=".57196" offset="1"/>
  </linearGradient>
  <radialGradient id="i" cx="210.89" cy="506.35" r="68" gradientTransform="matrix(1.4028 1.6439e-6 -1.4521e-7 .20588 -89.845 403.11)" gradientUnits="userSpaceOnUse">
   <stop offset="0"/>
   <stop stop-opacity="0" offset="1"/>
  </radialGradient>
  <radialGradient id="h" cx="216.99" cy="497.96" r="65" gradientTransform="matrix(.7158 1.4128 -1.3538 .68592 735.84 -155.77)" gradientUnits="userSpaceOnUse" xlink:href="#a"/>
  <radialGradient id="b" cx="233.5" cy="409.86" r="15.5" gradientTransform="matrix(.3871 1.5161 -1.4234 .36342 726.51 -93.107)" gradientUnits="userSpaceOnUse" xlink:href="#a"/>
  <radialGradient id="g" cx="196.49" cy="498.02" r="10.389" gradientTransform="matrix(2.1011 .037187 -.028985 1.6377 -201.92 -324.88)" gradientUnits="userSpaceOnUse" xlink:href="#a"/>
  <radialGradient id="f" cx="198.47" cy="502.24" r="10.389" gradientTransform="matrix(1.6956 1.7824e-6 -1.5082e-6 1.4348 -140.04 -219.28)" gradientUnits="userSpaceOnUse" xlink:href="#a"/>
  <radialGradient id="e" cx="196.17" cy="498.96" r="10.389" gradientTransform="matrix(2.034 .086058 -.070172 1.6586 -167.83 -345.48)" gradientUnits="userSpaceOnUse" xlink:href="#a"/>
  <radialGradient id="d" cx="197.47" cy="366.54" r="35.894" gradientTransform="matrix(1.4971 -.035792 .021174 .88567 -105.7 58.261)" gradientUnits="userSpaceOnUse" xlink:href="#a"/>
  <radialGradient id="c" cx="281.75" cy="454.56" r="14.034" gradientTransform="matrix(.69436 .4501 -1.7631 2.7199 887.52 -909.55)" gradientUnits="userSpaceOnUse" xlink:href="#a"/>
 </defs>
 <g transform="matrix(.71287 0 0 .71287 -90.907 -246.24)">
  <path d="m274.82 465.11 6.4729-12.238c1.7472-9.3648 4.5145-16.754 12.063-21.572 3.4303 0.24086 7.4133 2.3018 8.8769 5.6218-0.4687 7.9508-1.8297 17.433-11.677 18.283l-4.5509 1.0034-11.84 24.167 0.65542-15.264z" fill="#ff0"/>
  <path transform="matrix(1.0588 0 0 .85714 -9.1176 72.48)" d="m274 507.36c0 7.728-30.464 14-68 14s-68-6.272-68-14 30.464-14 68-14 68 6.272 68 14z" fill="url(#i)" filter="url(#j)"/>
  <path d="m293.8 433.26c-4.1605 2.5991-9.5346 10.136-10.116 17.495 1.2782 2.0005 1.9615 1.6216 2.746 1.6476 5.4214-4.436 9.2231-9.378 10.984-16.476 0.16415-2.0801-2.2924-2.567-3.614-2.6662z" fill="#808000" fill-rule="evenodd"/>
  <path transform="translate(-31,-85)" d="m305 531.36c0 4.8429-0.53051 37.563-1.5365 42.104-2.4742 12.459-10.483 19.633-22.511 22.363-5.5901 1.0428-11.949-21.824-18.85-21.951s-14.344 22.484-22.103 22.484c-7.7957 0-15.272-22.625-22.2-22.52s-13.308 22.94-18.91 21.858c-12.684-2.1049-19.316-10.781-22.443-22.645-0.94804-4.4155-1.4472-36.997-1.4472-41.694 0-35.88 29.12-65 65-65s65 29.12 65 65z" fill="#a05a2c"/>
  <path transform="translate(-31,-85)" d="m305 531.36c0 4.8429-0.53051 37.563-1.5365 42.104-2.4742 12.459-10.483 19.633-22.511 22.363-5.5901 1.0428-11.949-21.824-18.85-21.951s-14.344 22.484-22.103 22.484c-7.7957 0-15.272-22.625-22.2-22.52s-13.308 22.94-18.91 21.858c-12.684-2.1049-19.316-10.781-22.443-22.645-0.94804-4.4155-1.4472-36.997-1.4472-41.694 0-35.88 29.12-65 65-65s65 29.12 65 65z" fill="url(#h)"/>
  <path transform="translate(9,17)" d="m255 417.86a15.5 15.5 0 1 1 -31 0 15.5 15.5 0 1 1 31 0z" fill="#fff"/>
  <path transform="translate(9,17)" d="m255 417.86a15.5 15.5 0 1 1 -31 0 15.5 15.5 0 1 1 31 0z" fill="url(#b)"/>
  <path transform="matrix(.6129 0 0 .6129 106.71 179.75)" d="m255 417.86a15.5 15.5 0 1 1 -31 0 15.5 15.5 0 1 1 31 0z"/>
  <path transform="translate(-31,17)" d="m255 417.86a15.5 15.5 0 1 1 -31 0 15.5 15.5 0 1 1 31 0z" fill="#fff"/>
  <path transform="translate(-31,17)" d="m255 417.86a15.5 15.5 0 1 1 -31 0 15.5 15.5 0 1 1 31 0z" fill="url(#b)"/>
  <path transform="matrix(.6129 0 0 .6129 66.71 179.75)" d="m255 417.86a15.5 15.5 0 1 1 -31 0 15.5 15.5 0 1 1 31 0z"/>
  <path d="m180.01 413.25c-10.026 10.27-20.406 16.414-23.171 13.715s3.1277-13.225 13.153-23.494 20.406-16.414 23.171-13.715-3.1277 13.225-13.153 23.494z" fill="#fff" fill-opacity=".62745" filter="url(#l)"/>
  <path transform="matrix(.77126 .63652 -.63652 .77126 379.12 -54.471)" d="m262 501.86c0 7.452-2.464 13.5-5.5 13.5s-5.5-6.048-5.5-13.5 2.464-13.5 5.5-13.5 5.5 6.048 5.5 13.5z" fill="#fff" fill-opacity=".43439" filter="url(#k)"/>
  <path d="m185.28 367.85h46.889l13.326 25.157c-12.629 13.017-53.638 14.682-71.789 1.7535l11.573-26.911z" fill="#e4eaf5"/>
  <path d="m185.28 367.85h46.889l13.326 25.157c-12.629 13.017-53.638 14.682-71.789 1.7535l11.573-26.911z" fill="url(#d)"/>
  <path transform="matrix(1.7281 0 0 1.7281 -138.73 -506.85)" d="m211.7 504.34a10.389 10.389 0 1 1 -20.778 0 10.389 10.389 0 1 1 20.778 0z" fill="#e4eaf5"/>
  <path transform="matrix(1.7281 0 0 1.7281 -138.73 -506.85)" d="m211.7 504.34a10.389 10.389 0 1 1 -20.778 0 10.389 10.389 0 1 1 20.778 0z" fill="url(#e)"/>
  <path transform="matrix(1.5041 0 0 1.5041 -121.01 -391.41)" d="m211.7 504.34a10.389 10.389 0 1 1 -20.778 0 10.389 10.389 0 1 1 20.778 0z" fill="#e4eaf5"/>
  <path transform="matrix(1.5041 0 0 1.5041 -121.01 -391.41)" d="m211.7 504.34a10.389 10.389 0 1 1 -20.778 0 10.389 10.389 0 1 1 20.778 0z" fill="url(#g)"/>
  <path transform="matrix(1.5378 0 0 1.5378 -73.895 -408.02)" d="m211.7 504.34a10.389 10.389 0 1 1 -20.778 0 10.389 10.389 0 1 1 20.778 0z" fill="#e4eaf5"/>
  <path transform="matrix(1.5378 0 0 1.5378 -73.895 -408.02)" d="m211.7 504.34a10.389 10.389 0 1 1 -20.778 0 10.389 10.389 0 1 1 20.778 0z" fill="url(#f)"/>
  <path d="m210.71 459.54c-5.3286 1.6689-10.3 6.0436-16.095 4.045l-0.17241-0.05421c6.288 2.1688 11.472 0.43702 16.895-0.52791 5.2138-0.92764 9.2915-0.20683 16.319 1.7652 3.0455-0.64323 3.13-2.1193 1.6558-3.4582-6.0061-3.2321-12.339-3.6681-18.602-1.7698z" fill-rule="evenodd"/>
  <path d="m255.84 457.14c5.4738 1.1033 10.875 4.935 16.429 2.3423l0.16581-0.07192c-6.0272 2.8135-11.363 1.6325-16.858 1.2391-5.2822-0.37815-9.2623 0.7645-16.045 3.4595-3.096-0.32171-3.3342-1.7809-2.0078-3.2664 5.6358-3.8415 11.888-4.9365 18.316-3.7025z" fill-rule="evenodd"/>
  <path d="m274.82 465.11 6.4729-12.238c1.7472-9.3648 4.5145-16.754 12.063-21.572 3.4303 0.24086 7.4133 2.3018 8.8769 5.6218-0.4687 7.9508-1.8297 17.433-11.677 18.283l-4.5509 1.0034-11.84 24.167 0.65542-15.264z" fill="url(#c)"/>
 </g>
</svg>
