<?xml version="1.0" encoding="UTF-8"?>
<svg viewBox="0 0 128 128" xmlns="http://www.w3.org/2000/svg" xmlns:xlink="http://www.w3.org/1999/xlink">
 <defs>
  <filter id="m">
   <feGaussianBlur stdDeviation=".21752"/>
  </filter>
  <filter id="l" x="-.34802" y="-.34085" width="1.696" height="1.6817">
   <feGaussianBlur stdDeviation="5.46506"/>
  </filter>
  <filter id="k" x="-.51975" y="-.45339" width="2.0395" height="1.9068">
   <feGaussianBlur stdDeviation="4.15116"/>
  </filter>
  <filter id="j" x="-.07002" y="-.3401" width="1.14" height="1.6802">
   <feGaussianBlur stdDeviation="3.96783"/>
  </filter>
  <linearGradient id="a">
   <stop stop-opacity="0" offset="0"/>
   <stop stop-opacity=".57196" offset="1"/>
  </linearGradient>
  <radialGradient id="i" cx="210.89" cy="506.35" r="68" gradientTransform="matrix(1.4028 1.6439e-6 -1.4521e-7 .20588 -89.845 403.11)" gradientUnits="userSpaceOnUse">
   <stop offset="0"/>
   <stop stop-opacity="0" offset="1"/>
  </radialGradient>
  <radialGradient id="h" cx="216.99" cy="497.96" r="65" gradientTransform="matrix(.51027 1.0072 -.96511 .48897 650.89 -406.14)" gradientUnits="userSpaceOnUse" xlink:href="#a"/>
  <radialGradient id="b" cx="233.5" cy="409.86" r="15.5" gradientTransform="matrix(.3871 1.5161 -1.4234 .36342 726.51 -93.107)" gradientUnits="userSpaceOnUse" xlink:href="#a"/>
  <radialGradient id="g" cx="23.48" cy="51.115" r="31.215" gradientTransform="matrix(1.2671 .29995 -.22238 .93944 5.183 -2.9463)" gradientUnits="userSpaceOnUse" xlink:href="#a"/>
  <radialGradient id="f" cx="276.04" cy="80.451" r="15.171" gradientTransform="matrix(1.0267 .35679 -.070533 .20297 -1.7058 -32.409)" gradientUnits="userSpaceOnUse" xlink:href="#a"/>
  <radialGradient id="e" cx="261.3" cy="74.868" r="5.4267" gradientTransform="matrix(1.2544 .46996 -.26563 .70903 -46.56 -100.19)" gradientUnits="userSpaceOnUse" xlink:href="#a"/>
  <radialGradient id="d" cx="244.43" cy="71.251" r="10.741" gradientTransform="matrix(1.9046 .17248 -.13223 1.4601 -211.43 -75.899)" gradientUnits="userSpaceOnUse" xlink:href="#a"/>
  <radialGradient id="c" cx="271.98" cy="38.641" r="13.677" gradientTransform="matrix(1.401 .058977 -.093382 2.2183 -105.46 -65.864)" gradientUnits="userSpaceOnUse" xlink:href="#a"/>
 </defs>
 <g transform="translate(-231.35 -11.735)">
  <path transform="matrix(.7548 0 0 .61103 141.93 -182.83)" d="m274 507.36c0 7.728-30.464 14-68 14s-68-6.272-68-14 30.464-14 68-14 68 6.272 68 14z" fill="url(#i)" filter="url(#j)"/>
  <path d="m343.76 83.695c0 3.4523-0.37818 26.777-1.0954 30.015-1.7638 8.8818-7.4732 13.995-16.047 15.942-3.985 0.7434-8.5178-15.558-13.437-15.648s-10.225 16.028-15.757 16.028c-5.5573 0-10.887-16.128-15.826-16.053s-9.4866 16.353-13.48 15.582c-9.0418-1.5005-13.769-7.6856-15.999-16.143-0.67582-3.1476-1.0316-26.374-1.0316-29.722 0-25.578 20.759-46.336 46.336-46.336s46.336 20.759 46.336 46.336z" fill="#7aa27a"/>
  <path d="m343.76 83.695c0 3.4523-0.37818 26.777-1.0954 30.015-1.7638 8.8818-7.4732 13.995-16.047 15.942-3.985 0.7434-8.5178-15.558-13.437-15.648s-10.225 16.028-15.757 16.028c-5.5573 0-10.887-16.128-15.826-16.053s-9.4866 16.353-13.48 15.582c-9.0418-1.5005-13.769-7.6856-15.999-16.143-0.67582-3.1476-1.0316-26.374-1.0316-29.722 0-25.578 20.759-46.336 46.336-46.336s46.336 20.759 46.336 46.336z" fill="url(#h)"/>
  <path transform="matrix(.71287 0 0 .71287 154.85 -222.38)" d="m255 417.86a15.5 15.5 0 1 1 -31 0 15.5 15.5 0 1 1 31 0z" fill="#fff"/>
  <path transform="matrix(.71287 0 0 .71287 154.85 -222.38)" d="m255 417.86a15.5 15.5 0 1 1 -31 0 15.5 15.5 0 1 1 31 0z" fill="url(#b)"/>
  <path transform="matrix(.43692 0 0 .43692 224.5 -106.36)" d="m255 417.86a15.5 15.5 0 1 1 -31 0 15.5 15.5 0 1 1 31 0z"/>
  <path transform="translate(233.42 11.735)" d="m24.615 44.308c-7.7629 7.2247-7.642 17.603-8.8097 27.466v14.769c11.642-4.6512 15.963 7.7811 23.838 11.919-0.52854-14.856-8.7718-36.614 28.243-17.879 18.303-17.012 7.4278-22.888 4.1458-29.279 0 0-34.202-18.397-47.417-6.996z" fill="#808080" fill-rule="evenodd"/>
  <path transform="translate(233.42 11.735)" d="m24.951 46.217c-7.4093 8.1086-6.1883 13.526-7.356 23.389l-0.03865 13.403c9.2603-1.7198 14.167 3.4207 19.192 9.1133 0.18913-14.036-4.6848-30.023 29.842-14.131 15.453-12.089 7.946-21.852 2.5911-25.652 0 0-29.502-17.152-44.231-6.1226z" fill="#666" fill-rule="evenodd"/>
  <path transform="translate(233.42 11.735)" d="m26.896 48.339c-7.4093 8.1086-6.0115 10.874-7.1792 20.737l0.49168 11.282c9.2603-1.7198 9.748 1.4761 14.773 7.1687 0.18913-14.036-0.26539-26.134 28.605-12.186 13.155-12.089 9.8906-17.079 4.5356-20.879 0 0-26.497-17.152-41.226-6.1226z" fill="#4d4d4d" fill-rule="evenodd"/>
  <path transform="matrix(.53021 .84787 -.84787 .53021 310.45 9.3696)" d="m32.173 59.145a3.4472 4.5078 0 1 1 -6.8943 0 3.4472 4.5078 0 1 1 6.8943 0z" fill="#999"/>
  <path transform="translate(233.6 11.381)" d="m32.173 59.145a3.4472 4.5078 0 1 1 -6.8943 0 3.4472 4.5078 0 1 1 6.8943 0z" fill="#999"/>
  <path transform="translate(233.42 11.735)" d="m24.615 44.308c-7.7629 7.2247-7.642 17.603-8.8097 27.466v14.769c11.642-4.6512 15.963 7.7811 23.838 11.919-0.52854-14.856-8.7718-36.614 28.243-17.879 18.303-17.012 7.4278-22.888 4.1458-29.279 0 0-34.202-18.397-47.417-6.996z" fill="url(#g)" fill-rule="evenodd"/>
  <path transform="matrix(.71287 0 0 .71287 126.33 -222.38)" d="m255 417.86a15.5 15.5 0 1 1 -31 0 15.5 15.5 0 1 1 31 0z" fill="#f00"/>
  <path transform="matrix(.71287 0 0 .71287 126.33 -222.38)" d="m255 417.86a15.5 15.5 0 1 1 -31 0 15.5 15.5 0 1 1 31 0z" fill="url(#b)"/>
  <path transform="matrix(.71287 0 0 .71287 148.43 -234.5)" d="m180.01 413.25c-10.026 10.27-20.406 16.414-23.171 13.715s3.1277-13.225 13.153-23.494 20.406-16.414 23.171-13.715-3.1277 13.225-13.153 23.494z" fill="#fff" fill-opacity=".62745" filter="url(#l)"/>
  <path transform="matrix(.5498 .45375 -.45375 .5498 418.69 -273.33)" d="m262 501.86c0 7.452-2.464 13.5-5.5 13.5s-5.5-6.048-5.5-13.5 2.464-13.5 5.5-13.5 5.5 6.048 5.5 13.5z" fill="#fff" fill-opacity=".43439" filter="url(#k)"/>
  <path d="m244.11 68.266c-4.6672 5.4794-1.2285 16.023 5.179 18.226l0.10009-4.8956c-3.4085-2.5978-5.2602-6.057-2.3175-10.722 3.8907-3.6674 9.5527-0.1159 14.765 1.9339 1.8532-0.99304 1.9323-3.2686 1.0542-4.2616-5.6621-2.229-13.681-5.2024-18.781-0.28125z" fill="#333" fill-rule="evenodd"/>
  <path d="m263.14 77.328 29.819 10.44-0.92463 2.7223-29.417-11.624 0.52262-1.5387z" fill="#f00" fill-opacity=".56981" filter="url(#m)"/>
  <path d="m263.14 77.328 29.819 10.44-0.92463 2.7223-29.417-11.624 0.52262-1.5387z" fill="url(#f)"/>
  <path d="m257.77 73.797 8.6501 2.9054c0.82675 2.0953 0.11826 3.4521-1.4726 4.3843l-8.6501-2.9054c-1.0588-3.1598 0.29135-3.6795 1.4726-4.3843z" fill="#999"/>
  <path d="m257.77 73.797 8.6501 2.9054c0.82675 2.0953 0.11826 3.4521-1.4726 4.3843l-8.6501-2.9054c-1.0588-3.1598 0.29135-3.6795 1.4726-4.3843z" fill="url(#e)"/>
  <path d="m270.73 37.876c-5.247 5.6433-4.2704 18.719 4.929 28.859 1.8767-0.1159 2.4574-0.97236 1.916-2.47-8.6257-9.8035-8.7575-19.474-4.2188-24.5 4.6899-5.1935 12.151-6.7401 17.393-1.8704l4.1542-0.49089c-6.538-6.7652-19.044-6.3152-24.173 0.47204z" fill="#333" fill-rule="evenodd"/>
  <path d="m244.11 68.266c-4.6672 5.4794-1.2285 16.023 5.179 18.226l0.10009-4.8956c-3.4085-2.5978-5.2602-6.057-2.3175-10.722 3.8907-3.6674 9.5527-0.1159 14.765 1.9339 1.8532-0.99304 1.9323-3.2686 1.0542-4.2616-5.6621-2.229-13.681-5.2024-18.781-0.28125z" fill="url(#d)" fill-rule="evenodd"/>
  <path d="m270.73 37.876c-5.247 5.6433-4.2704 18.719 4.929 28.859 1.8767-0.1159 2.4574-0.97236 1.916-2.47-8.6257-9.8035-8.7575-19.474-4.2188-24.5 4.6899-5.1935 12.151-6.7401 17.393-1.8704l4.1542-0.49089c-6.538-6.7652-19.044-6.3152-24.173 0.47204z" fill="url(#c)" fill-rule="evenodd"/>
 </g>
</svg>
