<?xml version="1.0" encoding="UTF-8"?>
<svg viewBox="0 0 128 128" xmlns="http://www.w3.org/2000/svg" xmlns:xlink="http://www.w3.org/1999/xlink">
 <defs>
  <filter id="q" x="-.34802" y="-.34085" width="1.696" height="1.6817">
   <feGaussianBlur stdDeviation="5.46506"/>
  </filter>
  <filter id="o" x="-.51975" y="-.45339" width="2.0395" height="1.9068">
   <feGaussianBlur stdDeviation="4.15116"/>
  </filter>
  <filter id="n" x="-.07002" y="-.3401" width="1.14" height="1.6802">
   <feGaussianBlur stdDeviation="3.96783"/>
  </filter>
  <filter id="p" x="-.21481" y="-.30745" width="1.4296" height="1.6149">
   <feGaussianBlur stdDeviation="1.52251"/>
  </filter>
  <linearGradient id="a">
   <stop stop-opacity="0" offset="0"/>
   <stop stop-opacity=".57196" offset="1"/>
  </linearGradient>
  <radialGradient id="m" cx="210.89" cy="506.35" r="68" gradientTransform="matrix(1.4028 1.6439e-6 -1.4521e-7 .20588 -89.845 403.11)" gradientUnits="userSpaceOnUse">
   <stop offset="0"/>
   <stop stop-opacity="0" offset="1"/>
  </radialGradient>
  <radialGradient id="l" cx="216.99" cy="497.96" r="65" gradientTransform="matrix(.7158 1.4128 -1.3538 .68592 735.84 -155.77)" gradientUnits="userSpaceOnUse" xlink:href="#a"/>
  <radialGradient id="k" cx="340.41" cy="539.77" r="13.702" gradientTransform="matrix(1.5524 .025873 -.015155 .90931 -179.86 44.492)" gradientUnits="userSpaceOnUse" xlink:href="#a"/>
  <radialGradient id="j" cx="341.41" cy="540.85" r="13.702" gradientTransform="matrix(1.6399 .37251 -.1421 .62556 -141.61 79.047)" gradientUnits="userSpaceOnUse" xlink:href="#a"/>
  <radialGradient id="i" cx="335.16" cy="506.15" r="19.625" gradientTransform="matrix(1.0495 -.18175 .15995 .92359 -97.577 103.57)" gradientUnits="userSpaceOnUse" xlink:href="#a"/>
  <radialGradient id="h" cx="302.85" cy="526.93" r="23.146" gradientTransform="matrix(1.8423 -.041507 .037105 1.6469 -274.64 -334.34)" gradientUnits="userSpaceOnUse" xlink:href="#a"/>
  <radialGradient id="g" cx="363.2" cy="510.65" r="10.696" gradientTransform="matrix(1.0935 .16361 -.14582 .97459 40.507 -46.386)" gradientUnits="userSpaceOnUse" xlink:href="#a"/>
  <radialGradient id="f" cx="296.21" cy="504.29" r="22.875" gradientTransform="matrix(1.6476 .076418 -.038398 .82787 -172.44 67.764)" gradientUnits="userSpaceOnUse" xlink:href="#a"/>
  <radialGradient id="e" cx="229.36" cy="462.57" r="11.338" gradientTransform="matrix(1.608 3.6724e-6 -8.2456e-7 .36105 -139.59 297.17)" gradientUnits="userSpaceOnUse" xlink:href="#a"/>
  <radialGradient id="d" cx="193.16" cy="355.79" r="28.833" gradientTransform="matrix(1.3098 -.16888 .074722 .57955 -86.432 192.08)" gradientUnits="userSpaceOnUse" xlink:href="#a"/>
  <radialGradient id="c" cx="31.822" cy="402.34" r="13.167" gradientTransform="matrix(1.4412 .05988 -8.9752e-5 .20583 -14.003 322.67)" gradientUnits="userSpaceOnUse" xlink:href="#a"/>
  <radialGradient id="b" cx="124.65" cy="410.42" r="12.475" gradientTransform="matrix(1.4455 -.021681 .015571 .23925 -61.984 318.91)" gradientUnits="userSpaceOnUse" xlink:href="#a"/>
 </defs>
 <g transform="matrix(.71287 0 0 .71287 -84.989 -246.24)">
  <path transform="matrix(.96535,-.26096,.30182,.95337,0,0)" d="m112.01 413.67h23.89c1.7584 1.5 1.0167 2.7507 0 3.974h-23.89v-3.974z" fill="#c87137"/>
  <path transform="matrix(.96535,-.26096,.30182,.95337,0,0)" d="m112.01 413.67h23.89c1.7584 1.5 1.0167 2.7507 0 3.974h-23.89v-3.974z" fill="url(#b)"/>
  <path transform="matrix(1.5948 -.20285 .20285 1.5948 -396.48 -386.95)" d="m333 516.25a22.875 15.25 0 1 1 -45.75 0 22.875 15.25 0 1 1 45.75 0z" fill="#1a1a1a"/>
  <path transform="matrix(1.5948 -.20285 .20285 1.5948 -396.48 -386.95)" d="m333 516.25a22.875 15.25 0 1 1 -45.75 0 22.875 15.25 0 1 1 45.75 0z" fill="url(#f)"/>
  <path d="m176.73 369.35c16.126-7.8291 35.999-12.079 57.666-4.9972l-3.3884 15.042-44.012 7.0529-10.265-17.098z" fill="#c87137"/>
  <path transform="matrix(1.0588 0 0 .85714 -9.1176 72.48)" d="m274 507.36c0 7.728-30.464 14-68 14s-68-6.272-68-14 30.464-14 68-14 68 6.272 68 14z" fill="url(#m)" filter="url(#n)"/>
  <path transform="translate(-31,-85)" d="m305 531.36c0 4.8429-0.53051 37.563-1.5365 42.104-2.4742 12.459-10.483 19.633-22.511 22.363-5.5901 1.0428-11.949-21.824-18.85-21.951s-14.344 22.484-22.103 22.484c-7.7957 0-15.272-22.625-22.2-22.52s-13.308 22.94-18.91 21.858c-12.684-2.1049-19.316-10.781-22.443-22.645-0.94804-4.4155-1.4472-36.997-1.4472-41.694 0-35.88 29.12-65 65-65s65 29.12 65 65z" fill="#fffbbc"/>
  <path transform="translate(-31,-85)" d="m305 531.36c0 4.8429-0.53051 37.563-1.5365 42.104-2.4742 12.459-10.483 19.633-22.511 22.363-5.5901 1.0428-11.949-21.824-18.85-21.951s-14.344 22.484-22.103 22.484c-7.7957 0-15.272-22.625-22.2-22.52s-13.308 22.94-18.91 21.858c-12.684-2.1049-19.316-10.781-22.443-22.645-0.94804-4.4155-1.4472-36.997-1.4472-41.694 0-35.88 29.12-65 65-65s65 29.12 65 65z" fill="url(#l)"/>
  <path transform="matrix(.77126 .63652 -.63652 .77126 379.12 -54.471)" d="m262 501.86c0 7.452-2.464 13.5-5.5 13.5s-5.5-6.048-5.5-13.5 2.464-13.5 5.5-13.5 5.5 6.048 5.5 13.5z" fill="#fff" fill-opacity=".43439" filter="url(#o)"/>
  <path transform="matrix(1.4028 0 0 1.4028 -271.37 -353.16)" d="m330.66 551.03 0.53125 2.7812c-0.16713 0.1248-0.31759 0.26907-0.46875 0.4375l-2.25-1.0312 1.625 1.9688c-0.45655 0.87632-0.81185 2.0769-1.0312 3.7188-0.40733 3.0481 5.0302 6.6009 12.469 7.9688s13.944 0.0245 14.5-3-5.0302-6.6009-12.469-7.9688c-3.5596-0.65459-6.7372-2.2271-9.2188-2.625l-0.5625-2.125-1 2.0625c-0.1476 0.01609-0.29706 0.06154-0.4375 0.09375l-1.6875-2.2812z"/>
  <path transform="matrix(1.3796 .25371 -.25371 1.3796 -129.21 -408.2)" d="m359.55 547.1a13.702 5.571 0 1 1 -27.403 0 13.702 5.571 0 1 1 27.403 0z" fill="#fff"/>
  <path transform="matrix(1.4028 0 0 1.4028 -271.37 -353.16)" d="m379.59 544.09-1.1875 2.1875c-0.29458-0.08596-0.589-0.13046-0.875-0.125l-1-1.4688-0.21875 1.75c-2.3123 0.94518-4.6244 4.1331-8.2188 6.1875-6.5664 3.7531-10.682 8.9864-9.1562 11.656s8.1211 1.7843 14.688-1.9688 10.651-8.9551 9.125-11.625c-0.68522-1.1175-1.3368-1.9837-1.9375-2.6562l1.2812-2.125-2.0625 1.3438c-0.18475-0.16079-0.35235-0.31514-0.53125-0.4375l0.09375-2.7188z"/>
  <path transform="matrix(1.2179 -.6961 .6961 1.2179 -553.19 3.2981)" d="m359.55 547.1a13.702 5.571 0 1 1 -27.403 0 13.702 5.571 0 1 1 27.403 0z" fill="#fff"/>
  <path transform="matrix(1.3796 .25371 -.25371 1.3796 -129.21 -408.2)" d="m359.55 547.1a13.702 5.571 0 1 1 -27.403 0 13.702 5.571 0 1 1 27.403 0z" fill="url(#k)"/>
  <path transform="matrix(1.2179 -.6961 .6961 1.2179 -553.19 3.2981)" d="m359.55 547.1a13.702 5.571 0 1 1 -27.403 0 13.702 5.571 0 1 1 27.403 0z" fill="url(#j)"/>
  <path transform="matrix(1.4028 0 0 1.4028 -279.39 -333.11)" d="m353.23 546.8a4.3664 4.3664 0 1 1 -8.7329 0 4.3664 4.3664 0 1 1 8.7329 0z"/>
  <path transform="matrix(1.4028 0 0 1.4028 -238 -339.03)" d="m353.23 546.8a4.3664 4.3664 0 1 1 -8.7329 0 4.3664 4.3664 0 1 1 8.7329 0z"/>
  <path d="m189.97 414.56 0.35069 1.3151c12.744-3.4646 21.216 2.4409 30.73 6.9701l0.61372-1.2274c-9.9086-6.3498-20.349-16.403-31.694-7.0578z" fill-rule="evenodd"/>
  <path d="m259.57 407.78-0.01875 1.3609c-13.204-0.24605-19.977 7.5506-28.096 14.267l-0.89501-1.0403c8.0568-8.5783 15.725-20.878 29.009-14.588z" fill-rule="evenodd"/>
  <path transform="matrix(1.4028 0 0 1.4028 -271.37 -329.31)" d="m360 504.25c3.0308 5.131 6.8012 9.879 4 18.25 5.5833-3.8161 11.167-0.60542 16.75 2.75 3.2123 0.2471-5.911-22.589-20.75-21z" fill="#1a1a1a" fill-rule="evenodd"/>
  <path d="m176.73 369.35c16.126-7.8291 35.999-12.079 57.666-4.9972l-3.3884 15.042-44.012 7.0529-10.265-17.098z" fill="url(#d)"/>
  <path transform="matrix(1.4028 0 0 1.4028 -271.37 -329.31)" d="m360 504.25c3.0308 5.131 6.8012 9.879 4 18.25 5.5833-3.8161 11.167-0.60542 16.75 2.75 3.2123 0.2471-5.911-22.589-20.75-21z" fill="url(#g)" fill-rule="evenodd"/>
  <path transform="matrix(1.4028 0 0 1.4028 -271.37 -329.31)" d="m326.75 507.75c10.599-4.8535 21.472-8.8385 36-1.25 2.7655 5.5911 3.1048 9.9691 3.25 14.25-4.4822 1.619-8.5042 4.1583-11 9.75-5.3545-3.7703-9.4071-9.7104-18.5-7.25-2.0198-4.9206-4.4423-9.9218-9.75-15.5z" fill="#1a1a1a" fill-rule="evenodd"/>
  <path transform="matrix(1.4028 0 0 1.4028 -271.37 -329.31)" d="m326.75 507.75c10.599-4.8535 21.472-8.8385 36-1.25 2.7655 5.5911 3.1048 9.9691 3.25 14.25-4.4822 1.619-8.5042 4.1583-11 9.75-5.3545-3.7703-9.4071-9.7104-18.5-7.25-2.0198-4.9206-4.4423-9.9218-9.75-15.5z" fill="url(#i)" fill-rule="evenodd"/>
  <path transform="matrix(1.4028 0 0 1.4028 -271.37 -329.31)" d="m327.25 504.5c9.9899 3.5467 9.0878 12.539 11.75 19.75-27.162-3.1492-29.194 31.944-42.75 49.5 0 0-19-62 31-69.25z" fill="#1a1a1a" fill-rule="evenodd"/>
  <path transform="matrix(1.4028 0 0 1.4028 -271.37 -329.31)" d="m327.25 504.5c9.9899 3.5467 9.0878 12.539 11.75 19.75-27.162-3.1492-29.194 31.944-42.75 49.5 0 0-19-62 31-69.25z" fill="url(#h)" fill-rule="evenodd"/>
  <path transform="matrix(.96535,-.26096,.30182,.95337,0,0)" d="m23.158 406.3h23.89c1.2481 1.2526 1.697 2.5514 0 3.974h-23.89c-2.4484-0.97922-0.95265-2.5149 0-3.974z" fill="#c87137"/>
  <path d="m234.58 463.9c4.2328-2.6359 6.1074-0.88537 10.34-0.90703-5.8695 5.6768-15.138 5.8904-22.676 2.5397 3.0495-2.1941 8.2095-2.6073 12.336-1.6327z" fill="#f00" fill-rule="evenodd"/>
  <path d="m234.58 463.9c4.2328-2.6359 6.1074-0.88537 10.34-0.90703-5.8695 5.6768-15.138 5.8904-22.676 2.5397 3.0495-2.1941 8.2095-2.6073 12.336-1.6327z" fill="url(#e)" fill-rule="evenodd"/>
  <path transform="matrix(.96535,-.26096,.30182,.95337,0,0)" d="m23.158 406.3h23.89c1.2481 1.2526 1.697 2.5514 0 3.974h-23.89c-2.4484-0.97922-0.95265-2.5149 0-3.974z" fill="url(#c)"/>
  <path d="m174.8 414.24c-10.026 10.27-20.406 16.414-23.171 13.715s3.1277-13.225 13.153-23.494 20.406-16.414 23.171-13.715-3.1277 13.225-13.153 23.494z" fill="#fff" fill-opacity=".62745" filter="url(#q)"/>
  <path d="m186.4 364.66c-4.5475 2.5252-9.1821 2.875-10.345 0.78075s1.584-5.8434 6.1315-8.3687 9.1821-2.875 10.345-0.78076-1.584 5.8434-6.1315 8.3687z" fill="#fff" fill-opacity=".41553" filter="url(#p)"/>
 </g>
</svg>
