<?xml version="1.0" encoding="UTF-8"?>
<svg viewBox="0 0 128 128" xmlns="http://www.w3.org/2000/svg" xmlns:xlink="http://www.w3.org/1999/xlink">
 <defs>
  <filter id="j" x="-.34802" y="-.34085" width="1.696" height="1.6817">
   <feGaussianBlur stdDeviation="5.46506"/>
  </filter>
  <filter id="i" x="-.07002" y="-.3401" width="1.14" height="1.6802">
   <feGaussianBlur stdDeviation="3.96783"/>
  </filter>
  <filter id="k" x="-.83942" y="-.38374" width="2.6788" height="1.7675">
   <feGaussianBlur stdDeviation="1.45002"/>
  </filter>
  <linearGradient id="a">
   <stop stop-opacity="0" offset="0"/>
   <stop stop-opacity=".57196" offset="1"/>
  </linearGradient>
  <radialGradient id="h" cx="210.89" cy="506.35" r="68" gradientTransform="matrix(1.4028 1.6439e-6 -1.4521e-7 .20588 -89.845 403.11)" gradientUnits="userSpaceOnUse">
   <stop offset="0"/>
   <stop stop-opacity="0" offset="1"/>
  </radialGradient>
  <radialGradient id="g" cx="216.99" cy="497.96" r="65" gradientTransform="matrix(.51027 1.0072 -.96511 .48897 650.89 -406.14)" gradientUnits="userSpaceOnUse" xlink:href="#a"/>
  <radialGradient id="b" cx="233.5" cy="409.86" r="15.5" gradientTransform="matrix(.3871 1.5161 -1.4234 .36342 726.51 -93.107)" gradientUnits="userSpaceOnUse" xlink:href="#a"/>
  <radialGradient id="f" cx="40.772" cy="18.576" r="28.243" gradientTransform="matrix(1.9654 -.3869 .2245 1.1404 -44.402 15.809)" gradientUnits="userSpaceOnUse" xlink:href="#a"/>
  <radialGradient id="e" cx="43.142" cy="79.676" r="7.9028" gradientTransform="matrix(1.6849 -.11125 .087771 1.3293 -36.541 -21.438)" gradientUnits="userSpaceOnUse" xlink:href="#a"/>
  <radialGradient id="d" cx="76.67" cy="81.4" r="23.25" gradientTransform="matrix(1.9784 -.52375 .27844 1.0518 -99.398 37.638)" gradientUnits="userSpaceOnUse" xlink:href="#a"/>
  <radialGradient id="c" cx="37.5" cy="25.994" r="32.75" gradientTransform="matrix(2.3282 -.1145 .018748 .38122 -50.296 28.635)" gradientUnits="userSpaceOnUse" xlink:href="#a"/>
 </defs>
 <g transform="translate(-233.42 -11.735)">
  <path transform="matrix(.7548 0 0 .61103 141.93 -182.83)" d="m274 507.36c0 7.728-30.464 14-68 14s-68-6.272-68-14 30.464-14 68-14 68 6.272 68 14z" fill="url(#h)" filter="url(#i)"/>
  <path d="m343.76 83.695c0 3.4523-0.37818 26.777-1.0954 30.015-1.7638 8.8818-7.4732 13.995-16.047 15.942-3.985 0.7434-8.5178-15.558-13.437-15.648s-10.225 16.028-15.757 16.028c-5.5573 0-10.887-16.128-15.826-16.053s-9.4866 16.353-13.48 15.582c-9.0418-1.5005-13.769-7.6856-15.999-16.143-0.67582-3.1476-1.0316-26.374-1.0316-29.722 0-25.578 20.759-46.336 46.336-46.336s46.336 20.759 46.336 46.336z" fill="#ff2a2a"/>
  <path d="m343.76 83.695c0 3.4523-0.37818 26.777-1.0954 30.015-1.7638 8.8818-7.4732 13.995-16.047 15.942-3.985 0.7434-8.5178-15.558-13.437-15.648s-10.225 16.028-15.757 16.028c-5.5573 0-10.887-16.128-15.826-16.053s-9.4866 16.353-13.48 15.582c-9.0418-1.5005-13.769-7.6856-15.999-16.143-0.67582-3.1476-1.0316-26.374-1.0316-29.722 0-25.578 20.759-46.336 46.336-46.336s46.336 20.759 46.336 46.336z" fill="url(#g)"/>
  <path transform="matrix(.71287 0 0 .71287 154.85 -222.38)" d="m255 417.86a15.5 15.5 0 1 1 -31 0 15.5 15.5 0 1 1 31 0z" fill="#fff"/>
  <path transform="matrix(.71287 0 0 .71287 154.85 -222.38)" d="m255 417.86a15.5 15.5 0 1 1 -31 0 15.5 15.5 0 1 1 31 0z" fill="url(#b)"/>
  <path transform="matrix(.43692 0 0 .43692 224.5 -106.36)" d="m255 417.86a15.5 15.5 0 1 1 -31 0 15.5 15.5 0 1 1 31 0z"/>
  <path transform="matrix(.71287 0 0 .71287 126.33 -222.38)" d="m255 417.86a15.5 15.5 0 1 1 -31 0 15.5 15.5 0 1 1 31 0z" fill="#fff"/>
  <path transform="matrix(.71287 0 0 .71287 126.33 -222.38)" d="m255 417.86a15.5 15.5 0 1 1 -31 0 15.5 15.5 0 1 1 31 0z" fill="url(#b)"/>
  <path transform="matrix(.43692 0 0 .43692 195.99 -106.36)" d="m255 417.86a15.5 15.5 0 1 1 -31 0 15.5 15.5 0 1 1 31 0z"/>
  <path transform="matrix(.71287 0 0 .71287 148.43 -234.5)" d="m180.01 413.25c-10.026 10.27-20.406 16.414-23.171 13.715s3.1277-13.225 13.153-23.494 20.406-16.414 23.171-13.715-3.1277 13.225-13.153 23.494z" fill="#fff" fill-opacity=".62745" filter="url(#j)"/>
  <path transform="translate(233.42 11.735)" d="m33.425 37.053c4.6331-10.035 6.5073-18.035-1.2956-26.688 29.299-1.1693 40.403 11.961 56.486 22.024 0 0-30.834 16.842-55.19 4.664z" fill="#f00" fill-rule="evenodd"/>
  <path transform="translate(233.42 11.735)" d="m33.425 37.053c4.6331-10.035 6.5073-18.035-1.2956-26.688 29.299-1.1693 40.403 11.961 56.486 22.024 0 0-30.834 16.842-55.19 4.664z" fill="url(#f)" fill-rule="evenodd"/>
  <path transform="matrix(1.1312 0 0 1.1312 210.47 -68.339)" d="m56.486 83.045a7.9028 7.9028 0 1 1 -15.806 0 7.9028 7.9028 0 1 1 15.806 0z" fill="#c7ffff"/>
  <path transform="matrix(1.1312 0 0 1.1312 210.47 -68.339)" d="m56.486 83.045a7.9028 7.9028 0 1 1 -15.806 0 7.9028 7.9028 0 1 1 15.806 0z" fill="url(#e)" fill-opacity=".85171"/>
  <path transform="translate(233.42 11.735)" d="m82.25,73.75-2.25,3.5-5.25-2.75-5.5,8-4.625-1.5-7.375,5.5 7.375,4.625-2.5,6.75 7.375-4.125 2.5,9 4-4.25-.5,8.75 3.75-3.25 4.5,10.5 2-10.25 4.75,1.25-1.75-10.5 5.5,6 .25-11.5 6.25,4.5-.75-8.5 3.75-7.25-8.75-2-4,2.25-8.75-4.75zm.875,7.5 5,3.125-1.75,2.75-3.375-1.875-2.75,3.375-3.75-1.625 3.5-5 1.875,1.5 1.25-2.25z" fill="#c5fcfc" fill-rule="evenodd"/>
  <path transform="translate(233.42 11.735)" d="m82.25,73.75-2.25,3.5-5.25-2.75-5.5,8-4.625-1.5-7.375,5.5 7.375,4.625-2.5,6.75 7.375-4.125 2.5,9 4-4.25-.5,8.75 3.75-3.25 4.5,10.5 2-10.25 4.75,1.25-1.75-10.5 5.5,6 .25-11.5 6.25,4.5-.75-8.5 3.75-7.25-8.75-2-4,2.25-8.75-4.75zm.875,7.5 5,3.125-1.75,2.75-3.375-1.875-2.75,3.375-3.75-1.625 3.5-5 1.875,1.5 1.25-2.25z" fill="url(#d)" fill-rule="evenodd"/>
  <path transform="translate(233.42 11.735)" d="m29,30 4,1.75 3-2.5 2.25,5.25 4-2 4.5,3.25 2.75-2.5 4.75,4.25 3.25-4 4.5,3 3.5-3.5 4,2 3-5 4.25,2 2.5-3 3.75,2 4-3 5.5,5-5,5-3.75-2.75-2,5.75-5.5-2.25-4,4.75-4.5-1.5-3.75,3.5-3.25-3.25-5.5,5-5-4-5.5,4.25-3.25-4.75-7.5,2-.75-5.75-6.25-1.5 2-7.5z" fill="#c6fefe" fill-rule="evenodd"/>
  <path transform="translate(233.42 11.735)" d="m29,30 4,1.75 3-2.5 2.25,5.25 4-2 4.5,3.25 2.75-2.5 4.75,4.25 3.25-4 4.5,3 3.5-3.5 4,2 3-5 4.25,2 2.5-3 3.75,2 4-3 5.5,5-5,5-3.75-2.75-2,5.75-5.5-2.25-4,4.75-4.5-1.5-3.75,3.5-3.25-3.25-5.5,5-5-4-5.5,4.25-3.25-4.75-7.5,2-.75-5.75-6.25-1.5 2-7.5z" fill="url(#c)" fill-rule="evenodd"/>
  <path transform="matrix(.625 0 0 1 246.99 11.735)" d="m43.789 25.781c0 2.503-0.92865 4.5344-2.0729 4.5344s-2.0729-2.0314-2.0729-4.5344 0.92865-4.5344 2.0729-4.5344 2.0729 2.0314 2.0729 4.5344z" fill="#fff" fill-opacity=".72624" filter="url(#k)"/>
 </g>
</svg>
