<?xml version="1.0" encoding="UTF-8"?>
<svg viewBox="0 0 128 128" xmlns="http://www.w3.org/2000/svg" xmlns:xlink="http://www.w3.org/1999/xlink">
 <defs>
  <filter id="r" x="-.34802" y="-.34085" width="1.696" height="1.6817">
   <feGaussianBlur stdDeviation="5.46506"/>
  </filter>
  <filter id="q" x="-.51975" y="-.45339" width="2.0395" height="1.9068">
   <feGaussianBlur stdDeviation="4.15116"/>
  </filter>
  <filter id="p" x="-.07002" y="-.3401" width="1.14" height="1.6802">
   <feGaussianBlur stdDeviation="3.96783"/>
  </filter>
  <filter id="s" x="-.72009" y="-.90592" width="2.4402" height="2.8118">
   <feGaussianBlur stdDeviation="2.08412"/>
  </filter>
  <filter id="d" x="-.10495" y="-.08176" width="1.2099" height="1.1635">
   <feGaussianBlur stdDeviation=".76439"/>
  </filter>
  <linearGradient id="c">
   <stop offset="0"/>
   <stop stop-color="#333" offset=".5"/>
   <stop offset="1"/>
  </linearGradient>
  <linearGradient id="b">
   <stop stop-opacity="0" offset="0"/>
   <stop stop-opacity=".57196" offset="1"/>
  </linearGradient>
  <linearGradient id="o" x1="297.52" x2="296.84" y1="87.127" y2="89.847" gradientTransform="matrix(-.97845 -.07198 -.0728 .96744 642.43 35.053)" gradientUnits="userSpaceOnUse" xlink:href="#c"/>
  <linearGradient id="n" x1="297.52" x2="296.84" y1="87.127" y2="89.847" gradientTransform="matrix(-.78873 -.57702 -.58359 .77985 630.86 211.27)" gradientUnits="userSpaceOnUse" xlink:href="#c"/>
  <linearGradient id="m" x1="297.52" x2="296.84" y1="87.127" y2="89.847" gradientTransform="matrix(.78873 -.57702 .58359 .77985 24.751 217.46)" gradientUnits="userSpaceOnUse" xlink:href="#c"/>
  <linearGradient id="l" x1="297.52" x2="296.84" y1="87.127" y2="89.847" gradientTransform="matrix(.95257 -.23246 .23511 .94185 2.4964 88.976)" gradientUnits="userSpaceOnUse" xlink:href="#c"/>
  <radialGradient id="k" cx="210.89" cy="506.35" r="68" gradientTransform="matrix(1.4028 1.6439e-6 -1.4521e-7 .20588 -89.845 403.11)" gradientUnits="userSpaceOnUse">
   <stop offset="0"/>
   <stop stop-opacity="0" offset="1"/>
  </radialGradient>
  <radialGradient id="a" cx="255.11" cy="42.847" r="12.05" gradientTransform="matrix(2.7409 -.10953 .14661 3.6687 -493.54 -97.876)" gradientUnits="userSpaceOnUse" xlink:href="#b"/>
  <radialGradient id="j" cx="255.11" cy="42.847" r="12.05" gradientTransform="matrix(2.7409 -.10953 .14661 3.6687 -529.19 -67.133)" gradientUnits="userSpaceOnUse" xlink:href="#b"/>
  <radialGradient id="i" cx="233.57" cy="412.09" r="15.5" gradientTransform="matrix(.3871 1.5161 -1.4234 .36342 726.52 -93.107)" gradientUnits="userSpaceOnUse" xlink:href="#b"/>
  <radialGradient id="h" cx="234.07" cy="402.67" r="15.5" gradientTransform="matrix(.3871 1.5161 -1.4234 .36342 726.52 -93.107)" gradientUnits="userSpaceOnUse" xlink:href="#b"/>
  <radialGradient id="g" cx="35.806" cy="29.751" r="10.944" gradientTransform="matrix(2.2362 -.02178 .02241 2.2493 199.56 -14.839)" gradientUnits="userSpaceOnUse" xlink:href="#b"/>
  <radialGradient id="f" cx="216.99" cy="497.96" r="65" gradientTransform="matrix(.50066 .97706 -.94693 .47435 658.47 -383.14)" gradientUnits="userSpaceOnUse" xlink:href="#b"/>
  <radialGradient id="e" cx="35.806" cy="29.751" r="10.944" gradientTransform="matrix(-2.2181 .28141 .28954 2.2312 413.72 -29.28)" gradientUnits="userSpaceOnUse" xlink:href="#b"/>
 </defs>
 <g transform="translate(-233.42 -11.734)">
  <path transform="matrix(.88928 0 0 .68175 116.89 -212.84)" d="m274 507.36c0 7.728-30.464 14-68 14s-68-6.272-68-14 30.464-14 68-14 68 6.272 68 14z" fill="url(#k)" filter="url(#p)"/>
  <g transform="matrix(-.92696 .31342 .32157 .90347 467.88 -68.485)" fill-rule="evenodd">
   <path d="m207.44 16.988c7.149 25.536-9.9051 50.73 10.33 63.921 13.738-4.5353 26.396-42.209-10.33-63.921z" fill="#e9590a"/>
   <path d="m207.44 16.979c2.1824 7.7954 2.1105 15.569 1.5312 22.969l3.8125-6.25 6 6 0.25-7.75 6.0312 1.25c-3.8139-5.8264-9.5099-11.421-17.625-16.219z" fill="#fff"/>
   <path d="m207.44 17.415c7.149 25.536-9.9051 50.73 10.33 63.921 13.738-4.5353 26.396-42.209-10.33-63.921z" fill="url(#a)"/>
  </g>
  <g transform="matrix(.54422 .8072 .81639 -.53809 107.15 -52.325)" fill-rule="evenodd">
   <path d="m207.44 16.988c7.149 25.536-9.9051 50.73 10.33 63.921 13.738-4.5353 26.396-42.209-10.33-63.921z" fill="#e9590a"/>
   <path d="m207.44 16.979c2.1824 7.7954 2.1105 15.569 1.5312 22.969l3.8125-6.25 6 6 0.25-7.75 6.0312 1.25c-3.8139-5.8264-9.5099-11.421-17.625-16.219z" fill="#fff"/>
   <path d="m207.44 17.415c7.149 25.536-9.9051 50.73 10.33 63.921 13.738-4.5353 26.396-42.209-10.33-63.921z" fill="url(#a)"/>
  </g>
  <g transform="matrix(.63079 -.74305 .75151 .62369 89.828 212.52)" fill-rule="evenodd">
   <path d="m207.44 16.988c7.149 25.536-9.9051 50.73 10.33 63.921 13.738-4.5353 26.396-42.209-10.33-63.921z" fill="#e9590a"/>
   <path d="m207.44 16.979c2.1824 7.7954 2.1105 15.569 1.5312 22.969l3.8125-6.25 6 6 0.25-7.75 6.0312 1.25c-3.8139-5.8264-9.5099-11.421-17.625-16.219z" fill="#fff"/>
   <path d="m207.44 17.415c7.149 25.536-9.9051 50.73 10.33 63.921 13.738-4.5353 26.396-42.209-10.33-63.921z" fill="url(#a)"/>
  </g>
  <g transform="matrix(-.98116 0 0 .97011 501.93 3.8163)" fill-rule="evenodd">
   <path d="m207.44 16.988c7.149 25.536-9.9051 50.73 10.33 63.921 13.738-4.5353 26.396-42.209-10.33-63.921z" fill="#e9590a"/>
   <path d="m207.44 16.979c2.1824 7.7954 2.1105 15.569 1.5312 22.969l3.8125-6.25 6 6 0.25-7.75 6.0312 1.25c-3.8139-5.8264-9.5099-11.421-17.625-16.219z" fill="#fff"/>
   <path d="m207.44 17.415c7.149 25.536-9.9051 50.73 10.33 63.921 13.738-4.5353 26.396-42.209-10.33-63.921z" fill="url(#a)"/>
  </g>
  <g transform="matrix(-1.0264 -.54082 -.5573 .90801 558.43 121.67)" fill-rule="evenodd">
   <path d="m207.44 16.988c7.149 25.536-9.9051 50.73 10.33 63.921 13.738-4.5353 26.396-42.209-10.33-63.921z" fill="#e9590a"/>
   <path d="m207.44 16.979c2.1824 7.7954 2.1105 15.569 1.5312 22.969l3.8125-6.25 6 6 0.25-7.75 6.0312 1.25c-3.8139-5.8264-9.5099-11.421-17.625-16.219z" fill="#fff"/>
   <path d="m207.44 17.415c7.149 25.536-9.9051 50.73 10.33 63.921 13.738-4.5353 26.396-42.209-10.33-63.921z" fill="url(#a)"/>
  </g>
  <g transform="matrix(-.92446 -.325 -.3287 .91405 512.9 75.892)" fill-rule="evenodd">
   <path d="m207.44 16.988c7.149 25.536-9.9051 50.73 10.33 63.921 13.738-4.5353 26.396-42.209-10.33-63.921z" fill="#e9590a"/>
   <path d="m207.44 16.979c2.1824 7.7954 2.1105 15.569 1.5312 22.969l3.8125-6.25 6 6 0.25-7.75 6.0312 1.25c-3.8139-5.8264-9.5099-11.421-17.625-16.219z" fill="#fff"/>
   <path d="m207.44 17.415c7.149 25.536-9.9051 50.73 10.33 63.921 13.738-4.5353 26.396-42.209-10.33-63.921z" fill="url(#a)"/>
  </g>
  <g transform="matrix(.77224 -.57971 .57553 .77785 64.281 157.71)" fill-rule="evenodd">
   <path d="m207.44 16.988c7.149 25.536-9.9051 50.73 10.33 63.921 13.738-4.5353 26.396-42.209-10.33-63.921z" fill="#e9590a"/>
   <path d="m207.44 16.979c2.1824 7.7954 2.1105 15.569 1.5312 22.969l3.8125-6.25 6 6 0.25-7.75 6.0312 1.25c-3.8139-5.8264-9.5099-11.421-17.625-16.219z" fill="#fff"/>
   <path d="m207.44 17.415c7.149 25.536-9.9051 50.73 10.33 63.921 13.738-4.5353 26.396-42.209-10.33-63.921z" fill="url(#a)"/>
  </g>
  <g transform="matrix(1.1139 -.14467 .17686 1.1904 22.48 28.882)" fill-rule="evenodd">
   <path d="m207.44 16.988c7.149 25.536-9.9051 50.73 10.33 63.921 13.738-4.5353 26.396-42.209-10.33-63.921z" fill="#e9590a"/>
   <path d="m207.44 16.979c2.1824 7.7954 2.1105 15.569 1.5312 22.969l3.8125-6.25 6 6 0.25-7.75 6.0312 1.25c-3.8139-5.8264-9.5099-11.421-17.625-16.219z" fill="#fff"/>
   <path d="m207.44 17.415c7.149 25.536-9.9051 50.73 10.33 63.921 13.738-4.5353 26.396-42.209-10.33-63.921z" fill="url(#a)"/>
  </g>
  <g transform="matrix(-.82495 .63141 .62209 .83731 367.45 -116.02)" fill-rule="evenodd">
   <path d="m171.79 48.373c7.149 25.536-9.9051 50.73 10.33 63.921 13.738-4.5353 26.396-42.209-10.33-63.921z" fill="#e9590a"/>
   <path d="m171.8 48.364c2.1824 7.7954 2.1105 15.569 1.5312 22.969l3.8125-6.25 6 6 0.25-7.75 6.0312 1.25c-3.8139-5.8264-9.5099-11.421-17.625-16.219z" fill="#fff"/>
   <path d="m171.79 48.159c7.149 25.536-9.9051 50.73 10.33 63.921 13.738-4.5353 26.396-42.209-10.33-63.921z" fill="url(#j)"/>
  </g>
  <path d="m345.87 37.834c2.8466 8.4219 2.2555 17.905 1.3685 27.479-8.3515-0.96501-15.175-3.2215-20.173-11.441 5.5336-7.1514 12.329-11.202 18.804-16.038z" fill="#e9590a" fill-rule="evenodd"/>
  <path transform="matrix(-.9719 .13294 .13445 .96096 599.15 -27.399)" d="m266.16 34.656c-0.50769 7.3185 0.88673 14.591 2.6562 21.656 6.177-1.839 12.024-5.578 14.719-11.594-5.0432-4.4859-11.064-8.1664-17.281-10.844l-0.0596 0.49644-0.0342 0.28481z" fill="#fff" fill-opacity=".65639" fill-rule="evenodd" filter="url(#d)"/>
  <path d="m345.87 37.834c2.8466 8.4219 2.2555 17.905 1.3685 27.479-8.3515-0.96501-15.175-3.2215-20.173-11.441 5.5336-7.1514 12.329-11.202 18.804-16.038z" fill="url(#e)" fill-rule="evenodd"/>
  <path d="m357.13 91.851c0 3.3491-0.37106 25.977-1.0747 29.118-1.7305 8.6163-7.3324 13.577-15.745 15.465-3.9099 0.72118-8.3573-15.093-13.184-15.181s-10.033 15.549-15.46 15.549c-5.4525 0-10.682-15.646-15.528-15.574s-9.3079 15.864-13.226 15.116c-8.8714-1.4557-13.51-7.4558-15.697-15.66-0.66309-3.0536-1.0122-25.586-1.0122-28.834 0-24.813 20.367-44.951 45.463-44.951s45.463 20.138 45.463 44.951z" fill="#e9590a"/>
  <path d="m357.13 92.058c0 3.3491-0.37106 25.977-1.0747 29.118-1.7305 8.6163-7.3324 13.577-15.745 15.465-3.9099 0.72118-8.3573-15.092-13.184-15.181s-10.033 15.549-15.46 15.549c-5.4525 0-10.682-15.646-15.528-15.574s-9.3079 15.864-13.226 15.116c-8.8714-1.4557-13.51-7.4558-15.697-15.66-0.66309-3.0536-1.0122-25.586-1.0122-28.834 0-24.813 20.367-44.951 45.463-44.951s45.463 20.138 45.463 44.951z" fill="url(#f)"/>
  <g stroke="#000" stroke-linecap="round" stroke-miterlimit="20">
   <path transform="matrix(.82534 .16408 -.11447 .56294 155.35 -189.05)" d="m255 417.86c0 8.5604-6.9396 15.5-15.5 15.5s-15.5-6.9396-15.5-15.5 6.9396-15.5 15.5-15.5 15.5 6.9396 15.5 15.5z" fill="#fff" stroke-width="1.2945"/>
   <path transform="matrix(.82534 .16408 -.11447 .56294 155.35 -189.05)" d="m255 417.86c0 8.5604-6.9396 15.5-15.5 15.5s-15.5-6.9396-15.5-15.5 6.9396-15.5 15.5-15.5 15.5 6.9396 15.5 15.5z" fill="url(#i)" stroke-width="1.2945"/>
   <path transform="matrix(.34349 .08355 -.06906 .41554 256.64 -107.27)" d="m255 417.86c0 8.5604-6.9396 15.5-15.5 15.5s-15.5-6.9396-15.5-15.5 6.9396-15.5 15.5-15.5 15.5 6.9396 15.5 15.5z" stroke-width="2.3354"/>
  </g>
  <path transform="matrix(.69943 0 0 .69156 165.48 -216.83)" d="m180.01 413.25c-10.026 10.27-20.406 16.414-23.171 13.715s3.1277-13.225 13.153-23.494 20.406-16.414 23.171-13.715-3.1277 13.225-13.153 23.494z" fill="#fff" fill-opacity=".62745" filter="url(#r)"/>
  <path transform="matrix(.53944 .44019 -.4452 .53337 430.65 -254.51)" d="m262 501.86c0 7.452-2.464 13.5-5.5 13.5s-5.5-6.048-5.5-13.5 2.464-13.5 5.5-13.5 5.5 6.048 5.5 13.5z" fill="#fff" fill-opacity=".43439" filter="url(#q)"/>
  <g stroke="#000" stroke-linecap="round" stroke-miterlimit="20">
   <path transform="matrix(-.79444 .27541 .19215 .54187 450.48 -210.31)" d="m255 417.86c0 8.5604-6.9396 15.5-15.5 15.5s-15.5-6.9396-15.5-15.5 6.9396-15.5 15.5-15.5 15.5 6.9396 15.5 15.5z" fill="#fff" stroke-width="1.2945"/>
   <path transform="matrix(-.79444 .27541 .19215 .54187 450.48 -210.31)" d="m255 417.86c0 8.5604-6.9396 15.5-15.5 15.5s-15.5-6.9396-15.5-15.5 6.9396-15.5 15.5-15.5 15.5 6.9396 15.5 15.5z" fill="url(#h)" stroke-width="1.2945"/>
   <path transform="matrix(-.2707 .17986 .15909 .38159 344.4 -120.96)" d="m255 417.86c0 8.5604-6.9396 15.5-15.5 15.5s-15.5-6.9396-15.5-15.5 6.9396-15.5 15.5-15.5 15.5 6.9396 15.5 15.5z" stroke-width="2.478"/>
  </g>
  <path transform="matrix(1.0357 0 0 1.024 244.33 19.803)" d="m87 82.25c0 3.7279-3.0221 6.75-6.75 6.75s-6.75-3.0221-6.75-6.75 3.0221-6.75 6.75-6.75 6.75 3.0221 6.75 6.75z"/>
  <path transform="matrix(.52135 .27033 -.51511 .97121 323.7 2.406)" d="m83.5 80.125c0 1.5878-1.3991 2.875-3.125 2.875s-3.125-1.2872-3.125-2.875 1.3991-2.875 3.125-2.875 3.125 1.2872 3.125 2.875z" fill="#fff" fill-opacity=".7533" filter="url(#s)"/>
  <path d="m289.75 103.36 21.834 1.8282c1.2027-1.497 0.36534-3.1454-0.13118-3.9179l-21.703 2.0897z" fill="url(#l)" fill-rule="evenodd"/>
  <path d="m276.28 42.449c-1.6525 8.7282 0.24734 18.042 2.4529 27.406 8.139-2.0875 14.585-5.2472 18.397-14.067-6.4725-6.3342-13.765-9.4258-20.85-13.339z" fill="#e9590a" fill-rule="evenodd"/>
  <path transform="matrix(.98116 0 0 .97011 19.85 10.657)" d="m262.59 36.193c-0.50769 7.3185 0.88673 14.591 2.6562 21.656 6.177-1.839 12.024-5.578 14.719-11.594-5.0432-4.4859-11.064-8.1664-17.281-10.844l-0.0596 0.49644-0.0342 0.28481z" fill="#fff" fill-opacity=".65639" fill-rule="evenodd" filter="url(#d)"/>
  <path d="m276.07 42.449c-1.6525 8.7282 0.24734 18.042 2.4529 27.406 8.139-2.0875 14.585-5.2472 18.397-14.067-6.4725-6.3342-13.765-9.4258-20.85-13.339z" fill="url(#g)" fill-rule="evenodd"/>
  <path d="m297.81 120.34 18.534-5.5292c0.52742-1.8393-1.1323-3.2847-1.8913-3.8088l-16.643 9.338z" fill="url(#m)" fill-rule="evenodd"/>
  <path d="m355.84 113.3-16.572-4.6804c-0.52743-1.8393 1.1323-3.2847 1.8913-3.8088l14.68 8.4892z" fill="url(#n)" fill-rule="evenodd"/>
  <path d="m360.4 96.762-19.993 5.2849c-1.4386-1.2775-0.89124-3.041-0.5321-3.8846l20.525-1.4003z" fill="url(#o)" fill-rule="evenodd"/>
 </g>
</svg>
