<?xml version="1.0" encoding="UTF-8"?>
<svg viewBox="0 0 375.75345 341.80386" xmlns="http://www.w3.org/2000/svg">
 <g transform="matrix(.64318 -.00056 .00066 .54456 -54.187 -168.58)" stroke="#000" stroke-opacity=".98438">
  <path d="m85.701 312.35h580.03v622.88h-580.03z" stroke-width="3.8557"/>
  <path d="m296.21 543.44v36.1h-37.358v0.73107l-3.4083 0.10067 7.3129 137.92h-0.23164v14.873h1.0258v0.22689l7.3129-0.22689h192.68v-2.647l0.99269-0.0252-8.0739-153.02-19.49 0.60503 0.0662 1.4621h-37.094v-36.024h-22.402v48.679h11.416v3.1512h48.94l6.5187 122.95h-162.14l-6.5187-122.95h40.138v-5.3948h1.9854v-46.511h-21.674z" fill="#00f" stroke-width="2.4103"/>
  <path d="m127.06 778.73 5.9726-0.11646 2.0482 105.04 56.254-1.0969 0.28164 14.443-56.254 1.097 2e-3 0.0872-5.9726 0.11646-2.3316-119.57z" fill="#00f" stroke-width="1.4468"/>
  <path d="m600.85 775.49-5.9726-0.11646-2.0482 105.04-56.254-1.0969-0.28164 14.443 56.254 1.097-2e-3 0.0872 5.9726 0.11646 2.3316-119.57z" fill="#00f" stroke-width="1.4468"/>
  <path d="m226.27 884.35h278.88v10.307h-278.88z" fill="#00f" stroke-width="5.0031"/>
  <path d="m428.85 782.94-0.1164 5.9726 105.04 2.0482-1.097 56.254 14.443 0.28164 1.0969-56.254 0.087 2e-3 0.1165-5.9726-119.57-2.3316z" fill="#00f" stroke-width="1.4468"/>
  <path d="m285.44 785.8 0.1164 5.9726-105.04 2.0482 1.097 56.254-14.443 0.28164-1.0969-56.254-0.087 2e-3 -0.1165-5.9726 119.57-2.3316z" fill="#00f" stroke-width="1.4468"/>
  <path d="m225.53 809.31v11.812h0.1875v36.938h14.281v-36.938h244.28v34.094h14.281v-34.094h4.4688v-11.812h-277.5z" fill="#00f" stroke-width="3.5278"/>
  <path d="m214.29 563.81v2.6875h-71.625v11.75h71.625v156.97h-74.281v17.156h82.844v-2.8438h8.5625v-185.72h-17.125z" fill="#00f" stroke-width="3.882"/>
  <g transform="matrix(.71879 0 0 .8174 629.45 172.98)" fill="#00f" stroke-width="3.882">
   <path d="m-757.14 558.08h125.71v20h-125.71z"/>
   <path d="m-754.29 628.08h125.71v20h-125.71z"/>
  </g>
  <g transform="matrix(-1 0 0 1 749.97 -11.441)" fill="#00f" stroke-width="3.882">
   <path d="m214.29 563.81v2.6875h-71.625v11.75h71.625v156.97h-74.281v17.156h82.844v-2.8438h8.5625v-185.72h-17.125z"/>
   <g transform="matrix(.71879 0 0 .8174 629.45 172.98)">
    <path d="m-757.14 558.08h125.71v20h-125.71z"/>
    <path d="m-754.29 628.08h125.71v20h-125.71z"/>
   </g>
  </g>
  <path d="m120.24 498.42v5.1451h132.61v48.46h18.235v-48.46h0.1101v-5.1451h-150.96z" fill="#00f" stroke-width="1.5086"/>
  <path d="m598.34 499.85v5.1451h-132.61v48.46h-18.235v-48.46h-0.1101v-5.1451h150.96z" fill="#00f" stroke-width="1.5086"/>
  <path d="m471.63 472.05v-5.9737h105.06v-56.265h14.446v56.265h0.0872v5.9737h-119.59z" fill="#00f" stroke-width="1.4468"/>
  <path d="m259.8 466.34v-5.9737h-105.06v-56.265h-14.446v56.265h-0.0872v5.9737h119.59z" fill="#00f" stroke-width="1.4468"/>
  <path d="m174.28 340.94v82.844h388.56v-17.125h-2.8438v-62.875h-17.156v62.875h-351.41v-65.719h-17.156z" fill="#00f" stroke-width="3.882"/>
  <path d="m205.71 366.65h308.57v17.143h-308.57z" fill="#00f" stroke-width="3.882"/>
  <path d="m620 363.79h14.286v168.57h-14.286z" fill="#00f" stroke-width="3.882"/>
  <path d="m95.877 359.67h16.817v168.25h-16.817z" fill="#00f" stroke-width="4.2078"/>
  <path transform="matrix(.0519 .01455 -.01549 .04875 117.77 840.35)" d="m242.86 583.79c0 146.75-127.92 265.71-285.71 265.71s-285.71-118.96-285.71-265.71 127.92-265.71 285.71-265.71c100.14 0 192.97 48.757 244.68 128.51l-244.68 137.2z" fill="#ff0" stroke-width="3.882"/>
  <path transform="matrix(.0175 .00568 -.00522 .01902 107.53 851.15)" d="m242.86 583.79c0 146.75-127.92 265.71-285.71 265.71s-285.71-118.96-285.71-265.71 127.92-265.71 285.71-265.71c100.14 0 192.97 48.757 244.68 128.51l-244.68 137.2z" stroke-width="3.882"/>
  <path d="m617.4 471.59c0 16.048-4.6266 9.1005-11.081 9.1005s-12.291 6.9474-12.291-9.1005 5.2319-29.057 11.686-29.057 11.686 13.009 11.686 29.057z" fill="#fff" stroke-width=".51032"/>
  <g transform="matrix(.03322 0 0 .04213 624.85 410.52)" stroke-width="3.882">
   <path d="m-625.71 1128.1c0 68.641-53.726 124.29-120 124.29s-120-55.645-120-124.29 53.726-124.29 120-124.29 120 55.645 120 124.29z" fill="#fff"/>
   <path transform="matrix(.53202 0 0 .4562 -357.55 620.59)" d="m-625.71 1128.1c0 68.641-53.726 124.29-120 124.29s-120-55.645-120-124.29 53.726-124.29 120-124.29 120 55.645 120 124.29z"/>
  </g>
  <g transform="matrix(.03322 0 0 .04213 634.72 411.07)" stroke-width="3.882">
   <path d="m-625.71 1128.1c0 68.641-53.726 124.29-120 124.29s-120-55.645-120-124.29 53.726-124.29 120-124.29 120 55.645 120 124.29z" fill="#fff"/>
   <path transform="matrix(.53202 0 0 .4562 -357.55 620.59)" d="m-625.71 1128.1c0 68.641-53.726 124.29-120 124.29s-120-55.645-120-124.29 53.726-124.29 120-124.29 120 55.645 120 124.29z"/>
  </g>
  <g transform="matrix(.24444 0 0 .12398 422.03 739.39)">
   <path d="m-346.51 1097.5c0 83.415-23.439 47.304-56.136 47.304s-62.27 36.112-62.27-47.304 26.506-151.04 59.203-151.04 59.203 67.621 59.203 151.04z" fill="#f60" stroke-width="2.6188"/>
   <g transform="matrix(.16829 0 0 .21901 -308.79 780.02)" stroke-width="3.882">
    <path d="m-625.71 1128.1c0 68.641-53.726 124.29-120 124.29s-120-55.645-120-124.29 53.726-124.29 120-124.29 120 55.645 120 124.29z" fill="#fff"/>
    <path transform="matrix(.53202 0 0 .4562 -357.55 620.59)" d="m-625.71 1128.1c0 68.641-53.726 124.29-120 124.29s-120-55.645-120-124.29 53.726-124.29 120-124.29 120 55.645 120 124.29z"/>
   </g>
   <g transform="matrix(.16829 0 0 .21901 -258.79 782.88)" stroke-width="3.882">
    <path d="m-625.71 1128.1c0 68.641-53.726 124.29-120 124.29s-120-55.645-120-124.29 53.726-124.29 120-124.29 120 55.645 120 124.29z" fill="#fff"/>
    <path transform="matrix(.53202 0 0 .4562 -357.55 620.59)" d="m-625.71 1128.1c0 68.641-53.726 124.29-120 124.29s-120-55.645-120-124.29 53.726-124.29 120-124.29 120 55.645 120 124.29z"/>
   </g>
  </g>
  <path d="m256.97 843.61h208.92v11.782h-208.92z" fill="#00f" stroke-width="3.5284"/>
  <g transform="matrix(.22094 0 0 .19242 387.98 504.72)">
   <path d="m-280.8 986.05c0 83.415-23.439 47.304-56.136 47.304s-62.27 36.112-62.27-47.304 26.506-151.04 59.203-151.04 59.203 67.622 59.203 151.04z" fill="#f00" stroke-width="2.6188"/>
   <g transform="matrix(.16829 0 0 .21901 -243.07 668.59)" stroke-width="3.882">
    <path d="m-625.71 1128.1c0 68.641-53.726 124.29-120 124.29s-120-55.645-120-124.29 53.726-124.29 120-124.29 120 55.645 120 124.29z" fill="#fff"/>
    <path transform="matrix(.53202 0 0 .4562 -357.55 620.59)" d="m-625.71 1128.1c0 68.641-53.726 124.29-120 124.29s-120-55.645-120-124.29 53.726-124.29 120-124.29 120 55.645 120 124.29z"/>
   </g>
   <g transform="matrix(.16829 0 0 .21901 -193.07 671.45)" stroke-width="3.882">
    <path d="m-625.71 1128.1c0 68.641-53.726 124.29-120 124.29s-120-55.645-120-124.29 53.726-124.29 120-124.29 120 55.645 120 124.29z" fill="#fff"/>
    <path transform="matrix(.53202 0 0 .4562 -357.55 620.59)" d="m-625.71 1128.1c0 68.641-53.726 124.29-120 124.29s-120-55.645-120-124.29 53.726-124.29 120-124.29 120 55.645 120 124.29z"/>
   </g>
  </g>
  <g transform="matrix(.23433 0 0 .1515 176.06 482.11)">
   <path d="m-192.23 1266.1c0 83.415-23.439 47.304-56.136 47.304s-62.27 36.112-62.27-47.304 26.506-151.04 59.203-151.04 59.203 67.621 59.203 151.04z" fill="#0f0" stroke-width="2.6188"/>
   <g transform="matrix(.16829 0 0 .21901 -154.5 948.59)" stroke-width="3.882">
    <path d="m-625.71 1128.1c0 68.641-53.726 124.29-120 124.29s-120-55.645-120-124.29 53.726-124.29 120-124.29 120 55.645 120 124.29z" fill="#fff"/>
    <path transform="matrix(.53202 0 0 .4562 -357.55 620.59)" d="m-625.71 1128.1c0 68.641-53.726 124.29-120 124.29s-120-55.645-120-124.29 53.726-124.29 120-124.29 120 55.645 120 124.29z"/>
   </g>
   <g transform="matrix(.16829 0 0 .21901 -104.5 951.45)" stroke-width="3.882">
    <path d="m-625.71 1128.1c0 68.641-53.726 124.29-120 124.29s-120-55.645-120-124.29 53.726-124.29 120-124.29 120 55.645 120 124.29z" fill="#fff"/>
    <path transform="matrix(.53202 0 0 .4562 -357.55 620.59)" d="m-625.71 1128.1c0 68.641-53.726 124.29-120 124.29s-120-55.645-120-124.29 53.726-124.29 120-124.29 120 55.645 120 124.29z"/>
   </g>
  </g>
  <g transform="matrix(.14039 0 0 .09822 199.05 807.56)">
   <path d="m-643.37 852.69-98.72 250.17 17.686 26.311 87.703-222.23 88.248 223.67 17.671-26.311-98.72-250.2-6.4561 9.6076-7.4108-11.02z" fill="#0f0" stroke-width="3.0128"/>
   <path d="m-665.71 1098.1c0 36.293-24.305 65.714-54.286 65.714s-54.286-29.421-54.286-65.714 24.305-65.714 54.286-65.714 54.286 29.421 54.286 65.714z" fill="#f00" stroke-width="3.882"/>
   <path transform="translate(171.43 8.5715)" d="m-665.71 1098.1c0 36.293-24.305 65.714-54.286 65.714s-54.286-29.421-54.286-65.714 24.305-65.714 54.286-65.714 54.286 29.421 54.286 65.714z" fill="#f00" stroke-width="3.882"/>
  </g>
  <g transform="matrix(.14039 0 0 .09822 720.47 807.17)">
   <path d="m-643.37 852.69-98.72 250.17 17.686 26.311 87.703-222.23 88.248 223.67 17.671-26.311-98.72-250.2-6.4561 9.6076-7.4108-11.02z" fill="#0f0" stroke-width="3.0128"/>
   <path d="m-665.71 1098.1c0 36.293-24.305 65.714-54.286 65.714s-54.286-29.421-54.286-65.714 24.305-65.714 54.286-65.714 54.286 29.421 54.286 65.714z" fill="#f00" stroke-width="3.882"/>
   <path transform="translate(171.43 8.5715)" d="m-665.71 1098.1c0 36.293-24.305 65.714-54.286 65.714s-54.286-29.421-54.286-65.714 24.305-65.714 54.286-65.714 54.286 29.421 54.286 65.714z" fill="#f00" stroke-width="3.882"/>
  </g>
  <g transform="matrix(.14039 0 0 .09822 726.19 235.74)">
   <path d="m-643.37 852.69-98.72 250.17 17.686 26.311 87.703-222.23 88.248 223.67 17.671-26.311-98.72-250.2-6.4561 9.6076-7.4108-11.02z" fill="#0f0" stroke-width="3.0128"/>
   <path d="m-665.71 1098.1c0 36.293-24.305 65.714-54.286 65.714s-54.286-29.421-54.286-65.714 24.305-65.714 54.286-65.714 54.286 29.421 54.286 65.714z" fill="#f00" stroke-width="3.882"/>
   <path transform="translate(171.43 8.5715)" d="m-665.71 1098.1c0 36.293-24.305 65.714-54.286 65.714s-54.286-29.421-54.286-65.714 24.305-65.714 54.286-65.714 54.286 29.421 54.286 65.714z" fill="#f00" stroke-width="3.882"/>
  </g>
  <g transform="matrix(.14039 0 0 .09822 206.19 235.74)">
   <path d="m-643.37 852.69-98.72 250.17 17.686 26.311 87.703-222.23 88.248 223.67 17.671-26.311-98.72-250.2-6.4561 9.6076-7.4108-11.02z" fill="#0f0" stroke-width="3.0128"/>
   <path d="m-665.71 1098.1c0 36.293-24.305 65.714-54.286 65.714s-54.286-29.421-54.286-65.714 24.305-65.714 54.286-65.714 54.286 29.421 54.286 65.714z" fill="#f00" stroke-width="3.882"/>
   <path transform="translate(171.43 8.5715)" d="m-665.71 1098.1c0 36.293-24.305 65.714-54.286 65.714s-54.286-29.421-54.286-65.714 24.305-65.714 54.286-65.714 54.286 29.421 54.286 65.714z" fill="#f00" stroke-width="3.882"/>
  </g>
 </g>
</svg>
