<?xml version="1.0" encoding="UTF-8"?>
<svg viewBox="0 0 128 128" xmlns="http://www.w3.org/2000/svg" xmlns:xlink="http://www.w3.org/1999/xlink">
 <defs>
  <filter id="n" x="-.34802" y="-.34085" width="1.696" height="1.6817">
   <feGaussianBlur stdDeviation="5.46506"/>
  </filter>
  <filter id="m" x="-.51975" y="-.45339" width="2.0395" height="1.9068">
   <feGaussianBlur stdDeviation="4.15116"/>
  </filter>
  <filter id="l" x="-.07002" y="-.3401" width="1.14" height="1.6802">
   <feGaussianBlur stdDeviation="3.96783"/>
  </filter>
  <linearGradient id="a">
   <stop stop-opacity="0" offset="0"/>
   <stop stop-opacity=".57196" offset="1"/>
  </linearGradient>
  <radialGradient id="k" cx="210.89" cy="506.35" r="68" gradientTransform="matrix(1.4028 1.6439e-6 -1.4521e-7 .20588 -89.845 403.11)" gradientUnits="userSpaceOnUse">
   <stop offset="0"/>
   <stop stop-opacity="0" offset="1"/>
  </radialGradient>
  <radialGradient id="j" cx="216.99" cy="497.96" r="65" gradientTransform="matrix(.7158 1.4128 -1.3538 .68592 735.84 -155.77)" gradientUnits="userSpaceOnUse" xlink:href="#a"/>
  <radialGradient id="c" cx="233.5" cy="409.86" r="15.5" gradientTransform="matrix(.3871 1.5161 -1.4234 .36342 726.51 -93.107)" gradientUnits="userSpaceOnUse" xlink:href="#a"/>
  <radialGradient id="b" cx="451.97" cy="437.09" r="6" gradientTransform="matrix(.42555 1.0935 -1.1421 .44444 762.08 -254.34)" gradientUnits="userSpaceOnUse" xlink:href="#a"/>
  <radialGradient id="i" cx="208.35" cy="408.81" r="58.521" gradientTransform="matrix(1.6314 -4.0417e-7 1.5474e-8 .0806 -131.55 375.86)" gradientUnits="userSpaceOnUse" xlink:href="#a"/>
  <radialGradient id="h" cx="392.24" cy="402.71" r="3.625" gradientTransform="matrix(1.2438 .39012 -.39366 1.2551 62.891 -255.76)" gradientUnits="userSpaceOnUse" xlink:href="#a"/>
  <radialGradient id="g" cx="136.62" cy="419.19" r="7.9448" gradientTransform="matrix(1.2497 .085533 -.092234 1.3476 4.5495 -157.35)" gradientUnits="userSpaceOnUse" xlink:href="#a"/>
  <radialGradient id="f" cx="132.87" cy="408.73" r="10.283" gradientTransform="matrix(1.217 -.060873 .032773 .65522 -42.232 151.55)" gradientUnits="userSpaceOnUse" xlink:href="#a"/>
  <radialGradient id="e" cx="143.81" cy="439.6" r="6.4879" gradientTransform="matrix(1.3772 -.04937 .25496 7.1122 -166.32 -2693.1)" gradientUnits="userSpaceOnUse" xlink:href="#a"/>
  <radialGradient id="d" cx="390.32" cy="378.02" r="3.5355" gradientTransform="matrix(2.01 2.9257e-5 -.00016368 11.274 -394.16 -3889.7)" gradientUnits="userSpaceOnUse" xlink:href="#a"/>
 </defs>
 <g transform="matrix(.71287 0 0 .71287 -80.646 -246.24)">
  <path transform="matrix(1.4028 0 0 1.4028 -403.81 -153.53)" d="m390.32 369.87 7.0711-9.1924v37.477h-7.0711v-28.284z" fill="#ececec"/>
  <path transform="matrix(1.4028 0 0 1.4028 -403.81 -153.53)" d="m390.32 369.87 7.0711-9.1924v37.477h-7.0711v-28.284z" fill="url(#d)"/>
  <path d="m141.53 401.62h12.976v81.011l-12.976-4.9098v-76.101z" fill="#00003f"/>
  <path d="m141.53 401.62h12.976v81.011l-12.976-4.9098v-76.101z" fill="url(#e)"/>
  <path d="m130.66 428.97s14.379-22.445 15.781-13.326-11.222 10.521-15.781 13.326z" fill="#f00" fill-rule="evenodd"/>
  <path d="m130.66 428.97s14.379-22.445 15.781-13.326-11.222 10.521-15.781 13.326z" fill="url(#g)" fill-rule="evenodd"/>
  <path d="m124.82 417.76s26.599-1.7267 19.298-7.3653-14.637 4.7324-19.298 7.3653z" fill="#f00" fill-rule="evenodd"/>
  <path transform="matrix(1.0588 0 0 .85714 -9.1176 72.48)" d="m274 507.36c0 7.728-30.464 14-68 14s-68-6.272-68-14 30.464-14 68-14 68 6.272 68 14z" fill="url(#k)" filter="url(#l)"/>
  <path transform="translate(-31,-85)" d="m305 531.36c0 4.8429-0.53051 37.563-1.5365 42.104-2.4742 12.459-10.483 19.633-22.511 22.363-5.5901 1.0428-11.949-21.824-18.85-21.951s-14.344 22.484-22.103 22.484c-7.7957 0-15.272-22.625-22.2-22.52s-13.308 22.94-18.91 21.858c-12.684-2.1049-19.316-10.781-22.443-22.645-0.94804-4.4155-1.4472-36.997-1.4472-41.694 0-35.88 29.12-65 65-65s65 29.12 65 65z" fill="#f1e06b"/>
  <path transform="matrix(1.4028 0 0 1.4028 -403.81 -153.53)" d="m436.84 381.31c-25.578 0-46.344 20.766-46.344 46.344 0 3.3486 0.35543 26.571 1.0312 29.719 2.2294 8.457 6.9582 14.624 16 16.125 3.9934 0.77079 8.5612-15.488 13.5-15.562s10.255 16.031 15.812 16.031c5.5313 0 10.831-16.122 15.75-16.031s9.4525 16.4 13.438 15.656c8.5738-1.9463 14.299-7.0558 16.062-15.938 0.71716-3.2375 1.0937-26.548 1.0938-30 0-25.578-20.766-46.344-46.344-46.344zm26.5 24.062c8.3944-1e-5 18.057 4.8982 18.179 11.918 0.1329 7.5184-9.5345 14.27-17.929 14.27-5.9396 1e-5 -11.31-3.1877-13.812-8.1562-2.2337 5.6214-7.461 9.3438-13.875 9.3438-8.3944-1e-5 -30.85-8.1589-30.577-14.54 0.18827-4.3975 21.932-11.616 30.327-11.616 5.946 0 12.063 3.9289 14.562 8.9062 2.2327-5.6236 6.7094-10.125 13.125-10.125z" fill="#2b1100"/>
  <path transform="translate(-31,-85)" d="m305 531.36c0 4.8429-0.53051 37.563-1.5365 42.104-2.4742 12.459-10.483 19.633-22.511 22.363-5.5901 1.0428-11.949-21.824-18.85-21.951s-14.344 22.484-22.103 22.484c-7.7957 0-15.272-22.625-22.2-22.52s-13.308 22.94-18.91 21.858c-12.684-2.1049-19.316-10.781-22.443-22.645-0.94804-4.4155-1.4472-36.997-1.4472-41.694 0-35.88 29.12-65 65-65s65 29.12 65 65z" fill="url(#j)"/>
  <path transform="translate(9,17)" d="m255 417.86a15.5 15.5 0 1 1 -31 0 15.5 15.5 0 1 1 31 0z" fill="#fff"/>
  <path transform="translate(9,17)" d="m255 417.86a15.5 15.5 0 1 1 -31 0 15.5 15.5 0 1 1 31 0z" fill="url(#c)"/>
  <path transform="matrix(.6129 0 0 .6129 106.71 179.75)" d="m255 417.86a15.5 15.5 0 1 1 -31 0 15.5 15.5 0 1 1 31 0z"/>
  <path transform="translate(-31,17)" d="m255 417.86a15.5 15.5 0 1 1 -31 0 15.5 15.5 0 1 1 31 0z" fill="#fff"/>
  <path transform="translate(-31,17)" d="m255 417.86a15.5 15.5 0 1 1 -31 0 15.5 15.5 0 1 1 31 0z" fill="url(#c)"/>
  <path transform="matrix(.6129 0 0 .6129 66.71 179.75)" d="m255 417.86a15.5 15.5 0 1 1 -31 0 15.5 15.5 0 1 1 31 0z"/>
  <path d="m180.01 413.25c-10.026 10.27-20.406 16.414-23.171 13.715s3.1277-13.225 13.153-23.494 20.406-16.414 23.171-13.715-3.1277 13.225-13.153 23.494z" fill="#fff" fill-opacity=".62745" filter="url(#n)"/>
  <path transform="matrix(.77126 .63652 -.63652 .77126 379.12 -54.471)" d="m262 501.86c0 7.452-2.464 13.5-5.5 13.5s-5.5-6.048-5.5-13.5 2.464-13.5 5.5-13.5 5.5 6.048 5.5 13.5z" fill="#fff" fill-opacity=".43439" filter="url(#m)"/>
  <path transform="matrix(1.8412 0 0 1.8412 -577.4 -338.48)" d="m462.25 443.5-2.944-3.3997-7.306 1.6497 3.3997-2.944-1.6497-7.306 2.944 3.3997 7.306-1.6497-3.3997 2.944 1.6497 7.306z" fill="#999"/>
  <path transform="matrix(1.8412 0 0 1.8412 -577.4 -338.48)" d="m462.25 443.5-2.944-3.3997-7.306 1.6497 3.3997-2.944-1.6497-7.306 2.944 3.3997 7.306-1.6497-3.3997 2.944 1.6497 7.306z" fill="url(#b)"/>
  <path transform="matrix(1.8412 0 0 1.8412 -597.39 -333.22)" d="m462.25 443.5-2.944-3.3997-7.306 1.6497 3.3997-2.944-1.6497-7.306 2.944 3.3997 7.306-1.6497-3.3997 2.944 1.6497 7.306z" fill="#999"/>
  <path transform="matrix(1.8412 0 0 1.8412 -597.39 -333.22)" d="m462.25 443.5-2.944-3.3997-7.306 1.6497 3.3997-2.944-1.6497-7.306 2.944 3.3997 7.306-1.6497-3.3997 2.944 1.6497 7.306z" fill="url(#b)"/>
  <path d="m154.15 405.83h109.42c4.4475 1.3082 3.0954 3.7763 3.1563 5.9618h-116.78c-0.56903-2.9732 1.039-4.8579 4.2084-5.9618z" fill="#f00"/>
  <path d="m154.15 405.83h109.42c4.4475 1.3082 3.0954 3.7763 3.1563 5.9618h-116.78c-0.56903-2.9732 1.039-4.8579 4.2084-5.9618z" fill="url(#i)"/>
  <path d="m124.82 417.76s26.599-1.7267 19.298-7.3653-14.637 4.7324-19.298 7.3653z" fill="url(#f)" fill-rule="evenodd"/>
  <path transform="matrix(1.4028 0 0 1.4028 -403.81 -154.58)" d="m396.75 404.12a3.625 3.625 0 1 1 -7.25 0 3.625 3.625 0 1 1 7.25 0z" fill="#f00"/>
  <path transform="matrix(1.4028 0 0 1.4028 -403.81 -154.58)" d="m396.75 404.12a3.625 3.625 0 1 1 -7.25 0 3.625 3.625 0 1 1 7.25 0z" fill="url(#h)"/>
 </g>
</svg>
