<?xml version="1.0" encoding="UTF-8"?>
<svg viewBox="0 0 128 128" xmlns="http://www.w3.org/2000/svg" xmlns:xlink="http://www.w3.org/1999/xlink">
 <defs>
  <filter id="l" x="-.34802" y="-.34085" width="1.696" height="1.6817">
   <feGaussianBlur stdDeviation="5.46506"/>
  </filter>
  <filter id="k" x="-.51975" y="-.45339" width="2.0395" height="1.9068">
   <feGaussianBlur stdDeviation="4.15116"/>
  </filter>
  <filter id="j" x="-.07002" y="-.3401" width="1.14" height="1.6802">
   <feGaussianBlur stdDeviation="3.96783"/>
  </filter>
  <filter id="i" x="-.39482" y="-.58614" width="1.7896" height="2.1723">
   <feGaussianBlur stdDeviation=".86739"/>
  </filter>
  <linearGradient id="a">
   <stop stop-opacity="0" offset="0"/>
   <stop stop-opacity=".57196" offset="1"/>
  </linearGradient>
  <radialGradient id="e" cx="210.89" cy="506.35" r="68" gradientTransform="matrix(1.4028 1.6439e-6 -1.4521e-7 .20588 -89.845 403.11)" gradientUnits="userSpaceOnUse">
   <stop offset="0"/>
   <stop stop-opacity="0" offset="1"/>
  </radialGradient>
  <radialGradient id="d" cx="216.99" cy="497.96" r="65" gradientTransform="matrix(.7158 1.4128 -1.3538 .68592 735.84 -155.77)" gradientUnits="userSpaceOnUse" xlink:href="#a"/>
  <radialGradient id="c" cx="233.5" cy="409.86" r="15.5" gradientTransform="matrix(.3871 1.5161 -1.4234 .36342 726.51 -93.107)" gradientUnits="userSpaceOnUse" xlink:href="#a"/>
  <radialGradient id="b" cx="152.73" cy="291.12" r="4" gradientTransform="matrix(1.4527 .1391 -.10736 1.1212 -37.887 -56.523)" gradientUnits="userSpaceOnUse" xlink:href="#a"/>
  <radialGradient id="h" cx="158.55" cy="441.93" r="15.554" gradientTransform="matrix(1.2913 -.067768 .045094 .85927 -101.12 82.935)" gradientUnits="userSpaceOnUse" xlink:href="#a"/>
  <radialGradient id="g" cx="153.31" cy="413.86" r="14.248" gradientTransform="matrix(1.2954 .098456 -.064221 .84495 -53.704 64.433)" gradientUnits="userSpaceOnUse" xlink:href="#a"/>
  <radialGradient id="f" cx="176.38" cy="251.85" r="36.625" gradientTransform="matrix(1.7621 -.49038 .33085 1.1888 -225.08 177.86)" gradientUnits="userSpaceOnUse" xlink:href="#a"/>
 </defs>
 <g transform="matrix(.71287 0 0 .71287 -74.748 -246.24)">
  <path transform="matrix(1.0588 0 0 .85714 -9.1176 72.48)" d="m274 507.36c0 7.728-30.464 14-68 14s-68-6.272-68-14 30.464-14 68-14 68 6.272 68 14z" fill="url(#e)" filter="url(#j)"/>
  <path transform="translate(-31,-85)" d="m305 531.36c0 4.8429-0.53051 37.563-1.5365 42.104-2.4742 12.459-10.483 19.633-22.511 22.363-5.5901 1.0428-11.949-21.824-18.85-21.951s-14.344 22.484-22.103 22.484c-7.7957 0-15.272-22.625-22.2-22.52s-13.308 22.94-18.91 21.858c-12.684-2.1049-19.316-10.781-22.443-22.645-0.94804-4.4155-1.4472-36.997-1.4472-41.694 0-35.88 29.12-65 65-65s65 29.12 65 65z" fill="#ffb380"/>
  <path transform="translate(-31,-85)" d="m305 531.36c0 4.8429-0.53051 37.563-1.5365 42.104-2.4742 12.459-10.483 19.633-22.511 22.363-5.5901 1.0428-11.949-21.824-18.85-21.951s-14.344 22.484-22.103 22.484c-7.7957 0-15.272-22.625-22.2-22.52s-13.308 22.94-18.91 21.858c-12.684-2.1049-19.316-10.781-22.443-22.645-0.94804-4.4155-1.4472-36.997-1.4472-41.694 0-35.88 29.12-65 65-65s65 29.12 65 65z" fill="url(#d)"/>
  <path transform="translate(9,17)" d="m255 417.86a15.5 15.5 0 1 1 -31 0 15.5 15.5 0 1 1 31 0z" fill="#fff"/>
  <path transform="translate(9,17)" d="m255 417.86a15.5 15.5 0 1 1 -31 0 15.5 15.5 0 1 1 31 0z" fill="url(#c)"/>
  <path transform="matrix(.6129 0 0 .6129 106.71 179.75)" d="m255 417.86a15.5 15.5 0 1 1 -31 0 15.5 15.5 0 1 1 31 0z"/>
  <path d="m143.56 470.8c51.525-19.078 80.11-47.594 109.11-74.394 1.8864 0.84138 3.6323 1.8232 4.2157 3.9677-24.381 24.875-47.515 49.673-113.08 77.122-1.2357-2.2318-1.6487-4.4636-0.24799-6.6955z" fill-rule="evenodd"/>
  <path transform="translate(-31,17)" d="m255 417.86a15.5 15.5 0 1 1 -31 0 15.5 15.5 0 1 1 31 0z"/>
  <path transform="matrix(1.2237 1.1703 -1.9844 2.0749 523.87 -400.06)" d="m203.47 285.8c0 1.1222-0.91075 2.0329-2.0329 2.0329s-2.0329-0.91075-2.0329-2.0329 0.91075-2.0329 2.0329-2.0329 2.0329 0.91075 2.0329 2.0329z" fill="#fff" fill-opacity=".58407" filter="url(#i)"/>
  <path d="m140.45 437.11c31.176 1.7747 64.735-22.758 102.75-49.448-51.487-34.672-100.78 5.2237-102.75 49.448z" fill="#f00" fill-rule="evenodd"/>
  <path d="m210.7148,378.43612c-1.23022.73549-.53369,2.19813.99309,3.21365 .30962.01593.60058-.08284.86909-.17743-.17.72841-.03433.92209-.17659,1.88631 .96846-.39294 1.44957-.53791 2.3269-.62704-.03394-.61802.10478-.58397.04135-1.09217 .23931.10291.48038.14056.76184.15505 2.80433-.36368 2.52829-2.72182.1542-3.51725-.73688-.03796-1.33652.25022-1.72137.74461-.59223-.46036-1.36424-.66654-2.05643-.96126-.50168.0784-.9082.20582-1.19208.37553zm-8.62328,8.04479c-.52464.2993-.97836.92423-1.25627,1.79286 .02552.73741.36795,1.3335.89362,1.67443-.41249.6452-.57687,1.39629-.78512,2.1262 .59981,2.72959 2.98035,2.27768 3.5797-.10635-.01076-.30988-.09237-.58989-.20973-.84927 .37846.05455.36465.04125.80664.08311-.01523-.82551-.01623-1.41821.56203-2.34497-.82399.11197-.81399-.04462-1.45478.09215 .08195-.24732.17728-.53229.16753-.81395-.40466-1.74644-1.42924-2.15301-2.30362-1.65421zm8.08964-1.45c-3.54375,2.17348-5.44443,5.54548-4.22876,7.52759 .88238,1.43868 3.17808,1.75194 5.71536.98411 .10252.19237.18748.37814.30448.56891 1.76825,2.88306 4.52687,4.4245 6.1486,3.42986s1.49828-4.1523-.26999-7.03536c-.14292-.23301-.29368-.44376-.44831-.65849 1.59224-1.82096 2.23276-3.82443 1.40529-5.17358-1.21566-1.98211-5.08292-1.81652-8.62667.35696zm3.53748,1.56421c.51706-.31713 1.1852-.16934 1.49139.32989s.13505,1.16179-.38201,1.47891-1.1852.16933-1.49139-.3299-.13505-1.16178.38201-1.4789zm-3.31528,2.56674c.51705-.31712 1.1852-.16933 1.49139.3299s.13505,1.16178-.38201,1.47891-1.1852.16933-1.4914-.3299-.13504-1.16178.38202-1.47891zm11.5802-3.3686c-.52462.29931-1.01066.94406-1.28857,1.81267 .0116.33509.0945.60685.22955.88158-.66455-.11565-.85265-.18445-1.75712-.25583-.29035.55177-.51855.95562-.9927,1.49785 .29125.32303.3263.67697.54952,1.04092 1.38936-.19219 1.94198-.26544 2.7959-.51462-.26102.3681-.45919.86937-.44145,1.38201 .6211,2.69605 2.99034,2.30986 3.5797-.10636-.03606-1.04163-.73145-1.8924-1.618-1.98582 .80468-.49045.92396-1.20156 1.21449-2.07838-.40467-1.74642-1.39692-2.17282-2.27132-1.67402zm-10.65215,8.57795c-.41838,1.34004.35059,2.75369.5818,4.3549-.34429-.29169-.82495-.48698-1.33722-.51337-2.77331.37938-2.45908,2.75085-.13439,3.54955 1.04089.05363 1.89578-.61356 2.06505-1.4888 .44453.84602 1.13441,1.07603 1.99614,1.44275 2.80432-.36371 2.54075-2.77393.16669-3.56936-.33485-.01725-.65569.02171-.94101.13264 .12918-.48871-.02188-.67298.09131-1.30062-.76981-.62747-1.02075-1.012-1.63781-2.01811-.117-.19075-.74802-.39721-.85056-.58958zm2.41775.02844 3.48842-2.13953 .47545.7752-3.48841,2.13952-.47546-.77519z" fill="#fff"/>
  <path d="m140.45 437.11c31.176 1.7747 64.735-22.758 102.75-49.448-51.487-34.672-100.78 5.2237-102.75 49.448z" fill="url(#f)" fill-rule="evenodd"/>
  <path d="m108.27 429.76s32.94-9.0552 27.988 7.6782c-3.0056 10.157-24.932-4.72-27.988-7.6782z" fill="#f00" fill-rule="evenodd"/>
  <path d="m108.27 429.76s32.94-9.0552 27.988 7.6782c-3.0056 10.157-24.932-4.72-27.988-7.6782z" fill="url(#g)" fill-rule="evenodd"/>
  <path d="m112.56 462.13s22.376-33.196 30.564-14.918c4.9701 11.095-25.634 15.121-30.564 14.918z" fill="#f00" fill-rule="evenodd"/>
  <path d="m112.56 462.13s22.376-33.196 30.564-14.918c4.9701 11.095-25.634 15.121-30.564 14.918z" fill="url(#h)" fill-rule="evenodd"/>
  <path transform="matrix(1.9815 0 0 1.9815 -167.65 -139.92)" d="m158.5 292a4 4 0 1 1 -8 0 4 4 0 1 1 8 0z" fill="#f00"/>
  <path transform="matrix(1.9815 0 0 1.9815 -167.65 -139.92)" d="m158.5 292a4 4 0 1 1 -8 0 4 4 0 1 1 8 0z" fill="url(#b)"/>
  <path d="m180.01 413.25c-10.026 10.27-20.406 16.414-23.171 13.715s3.1277-13.225 13.153-23.494 20.406-16.414 23.171-13.715-3.1277 13.225-13.153 23.494z" fill="#fff" fill-opacity=".62745" filter="url(#l)"/>
  <path transform="matrix(.77126 .63652 -.63652 .77126 379.12 -54.471)" d="m262 501.86c0 7.452-2.464 13.5-5.5 13.5s-5.5-6.048-5.5-13.5 2.464-13.5 5.5-13.5 5.5 6.048 5.5 13.5z" fill="#fff" fill-opacity=".43439" filter="url(#k)"/>
 </g>
</svg>
