<?xml version="1.0" encoding="UTF-8"?>
<svg viewBox="0 0 128 128" xmlns="http://www.w3.org/2000/svg" xmlns:xlink="http://www.w3.org/1999/xlink">
 <defs>
  <filter id="o" x="-.34802" y="-.34085" width="1.696" height="1.6817">
   <feGaussianBlur stdDeviation="5.46506"/>
  </filter>
  <filter id="n" x="-.51975" y="-.45339" width="2.0395" height="1.9068">
   <feGaussianBlur stdDeviation="4.15116"/>
  </filter>
  <filter id="m" x="-.07002" y="-.3401" width="1.14" height="1.6802">
   <feGaussianBlur stdDeviation="3.96783"/>
  </filter>
  <filter id="p" x="-.41736" y="-.50577" width="1.8347" height="2.0115">
   <feGaussianBlur stdDeviation="1.09198"/>
  </filter>
  <linearGradient id="a">
   <stop stop-opacity="0" offset="0"/>
   <stop stop-opacity=".57196" offset="1"/>
  </linearGradient>
  <radialGradient id="k" cx="210.89" cy="506.35" r="68" gradientTransform="matrix(1.4028 1.6439e-6 -1.4521e-7 .20588 -89.845 403.11)" gradientUnits="userSpaceOnUse">
   <stop offset="0"/>
   <stop stop-opacity="0" offset="1"/>
  </radialGradient>
  <radialGradient id="l" cx="-25.5" cy="55.133" r="6.7175" gradientTransform="matrix(1.7103 -.02991 .020252 1.158 16.625 -9.5097)" gradientUnits="userSpaceOnUse" xlink:href="#a"/>
  <radialGradient id="j" cx="216.99" cy="497.96" r="65" gradientTransform="matrix(.51027 1.0072 -.96511 .48897 650.89 -406.14)" gradientUnits="userSpaceOnUse" xlink:href="#a"/>
  <radialGradient id="b" cx="233.5" cy="409.86" r="15.5" gradientTransform="matrix(.3871 1.5161 -1.4234 .36342 726.51 -93.107)" gradientUnits="userSpaceOnUse" xlink:href="#a"/>
  <radialGradient id="i" cx="175.76" cy="410.87" r="76.197" gradientTransform="matrix(1.9344 .26003 -.077258 .57472 -133.47 133.88)" gradientUnits="userSpaceOnUse" xlink:href="#a"/>
  <radialGradient id="h" cx="195.14" cy="393.61" r="26.685" gradientTransform="matrix(2.2049 -.011483 .009658 1.8544 -237.62 -337.64)" gradientUnits="userSpaceOnUse" xlink:href="#a"/>
  <radialGradient id="g" cx="52.65" cy="29.57" r="14.693" gradientTransform="matrix(4.0082 6.898e-7 -1.7495e-7 1.0515 -16.656 383.01)" gradientUnits="userSpaceOnUse" xlink:href="#a"/>
  <radialGradient id="f" cx="47.12" cy="74.84" r="47.31" gradientTransform="matrix(1.5588 -.22192 .10012 .70327 -33.824 41.009)" gradientUnits="userSpaceOnUse" xlink:href="#a"/>
  <radialGradient id="e" cx="243.36" cy="74.406" r="5.5813" gradientTransform="matrix(1.8529 -.036472 .020472 1.04 -209.08 7.7499)" gradientUnits="userSpaceOnUse" xlink:href="#a"/>
  <radialGradient id="d" cx="240.53" cy="83.788" r="6.6082" gradientTransform="matrix(2.2482 -.035404 .018916 1.2012 -301.8 -8.3388)" gradientUnits="userSpaceOnUse" xlink:href="#a"/>
  <radialGradient id="c" cx="15.438" cy="68.312" r="3.6875" gradientTransform="matrix(1.8114 .095397 -.083006 1.5761 -6.8551 -40.827)" gradientUnits="userSpaceOnUse" xlink:href="#a"/>
 </defs>
 <g transform="translate(-228.83 -11.735)">
  <path transform="matrix(1.2122 .19286 0 1.4436 277.13 25.105)" d="m-19 62.5-2.9665-0.44415-1.7835 2.4117-1.7835-2.4117-2.9665 0.44415 0.44415-2.9665-2.4117-1.7835 2.4117-1.7835-0.44415-2.9665 2.9665 0.44415 1.7835-2.4117 1.7835 2.4117 2.9665-0.44415-0.44415 2.9665 2.4117 1.7835-2.4117 1.7835 0.44415 2.9665z" fill="#4d4d4d"/>
  <path transform="matrix(1.8676 .29715 0 2.2242 294.44 -16.993)" d="m-22.5 57.625a2.125 2.125 0 1 1 -4.25 0 2.125 2.125 0 1 1 4.25 0z" fill="#1a1a1a"/>
  <path transform="matrix(1.2122 .19286 0 1.4436 277.13 25.105)" d="m-19 62.5-2.9665-0.44415-1.7835 2.4117-1.7835-2.4117-2.9665 0.44415 0.44415-2.9665-2.4117-1.7835 2.4117-1.7835-0.44415-2.9665 2.9665 0.44415 1.7835-2.4117 1.7835 2.4117 2.9665-0.44415-0.44415 2.9665 2.4117 1.7835-2.4117 1.7835 0.44415 2.9665z" fill="url(#l)"/>
  <path transform="matrix(.7548 0 0 .61103 141.93 -182.83)" d="m274 507.36c0 7.728-30.464 14-68 14s-68-6.272-68-14 30.464-14 68-14 68 6.272 68 14z" fill="url(#k)" filter="url(#m)"/>
  <path d="m343.76 83.695c0 3.4523-0.37818 26.777-1.0954 30.015-1.7638 8.8818-7.4732 13.995-16.047 15.942-3.985 0.7434-8.5178-15.558-13.437-15.648s-10.225 16.028-15.757 16.028c-5.5573 0-10.887-16.128-15.826-16.053s-9.4866 16.353-13.48 15.582c-9.0418-1.5005-13.769-7.6856-15.999-16.143-0.67582-3.1476-1.0316-26.374-1.0316-29.722 0-25.578 20.759-46.336 46.336-46.336s46.336 20.759 46.336 46.336z" fill="#726fd6"/>
  <path d="m343.76 83.695c0 3.4523-0.37818 26.777-1.0954 30.015-1.7638 8.8818-7.4732 13.995-16.047 15.942-3.985 0.7434-8.5178-15.558-13.437-15.648s-10.225 16.028-15.757 16.028c-5.5573 0-10.887-16.128-15.826-16.053s-9.4866 16.353-13.48 15.582c-9.0418-1.5005-13.769-7.6856-15.999-16.143-0.67582-3.1476-1.0316-26.374-1.0316-29.722 0-25.578 20.759-46.336 46.336-46.336s46.336 20.759 46.336 46.336z" fill="url(#j)"/>
  <path transform="matrix(.71287 0 0 .71287 154.85 -222.38)" d="m255 417.86a15.5 15.5 0 1 1 -31 0 15.5 15.5 0 1 1 31 0z" fill="#fff"/>
  <path transform="matrix(.71287 0 0 .71287 154.85 -222.38)" d="m255 417.86a15.5 15.5 0 1 1 -31 0 15.5 15.5 0 1 1 31 0z" fill="url(#b)"/>
  <path transform="matrix(.43692 0 0 .43692 224.5 -106.36)" d="m255 417.86a15.5 15.5 0 1 1 -31 0 15.5 15.5 0 1 1 31 0z"/>
  <path transform="matrix(.71287 0 0 .71287 126.33 -222.38)" d="m255 417.86a15.5 15.5 0 1 1 -31 0 15.5 15.5 0 1 1 31 0z" fill="#fff"/>
  <path transform="matrix(.71287 0 0 .71287 126.33 -222.38)" d="m255 417.86a15.5 15.5 0 1 1 -31 0 15.5 15.5 0 1 1 31 0z" fill="url(#b)"/>
  <path transform="matrix(.43692 0 0 .43692 195.99 -106.36)" d="m255 417.86a15.5 15.5 0 1 1 -31 0 15.5 15.5 0 1 1 31 0z"/>
  <path transform="matrix(.71287 0 0 .71287 148.43 -234.5)" d="m180.01 413.25c-10.026 10.27-20.406 16.414-23.171 13.715s3.1277-13.225 13.153-23.494 20.406-16.414 23.171-13.715-3.1277 13.225-13.153 23.494z" fill="#fff" fill-opacity=".62745" filter="url(#o)"/>
  <path transform="matrix(.5498 .45375 -.45375 .5498 418.69 -273.33)" d="m262 501.86c0 7.452-2.464 13.5-5.5 13.5s-5.5-6.048-5.5-13.5 2.464-13.5 5.5-13.5 5.5 6.048 5.5 13.5z" fill="#fff" fill-opacity=".43439" filter="url(#n)"/>
  <g transform="matrix(.54468 0 0 .54468 180.79 -186.44)">
   <path d="m182.98 409.72c-8.9655-2.8014-20.858 3.1865-34.9-3.5927-21.311-9.212-30.949 3.6368-12.81 18.003 14.746 9.2044 30.847 11.334 47.67 15.002 23.193 4.3543 45.566 6.439 68.351-1.1208 17.216-6.2067 39.334-11.302 44.903-30.218 0.24239-16.41-14.94-12.786-28.923-7.4181-10.128 3.6957-17.94 3.624-25.433 6.7543-2.0038-17.806-39.118 26.493-58.859 2.5912z" fill="#c4b07e" fill-rule="evenodd"/>
   <path d="m182.98 409.72c-8.9655-2.8014-20.858 3.1865-34.9-3.5927-21.311-9.212-30.949 3.6368-12.81 18.003 14.746 9.2044 30.847 11.334 47.67 15.002 23.193 4.3543 45.566 6.439 68.351-1.1208 17.216-6.2067 39.334-11.302 44.903-30.218 0.24239-16.41-14.94-12.786-28.923-7.4181-10.128 3.6957-17.94 3.624-25.433 6.7543-17.968 9.3328-33.796 14.254-58.859 2.5912z" fill="url(#i)" fill-rule="evenodd"/>
   <path d="m232.05 378.08c-12.9 0.39665-11.278 1.5796-11.458 9.1392-0.28445-9.2764-13.774-9.481-26.4-7.1466-11.558 5.5189-5.2095 21.376-11.212 29.648-3.7073 23.934 67.32 13.38 58.859-2.5912-1.101-8.8957 0.10999-24.793-9.7879-29.049z" fill="#c4b07e" fill-rule="evenodd"/>
   <path d="m232.05 378.08c-12.9 0.39665-11.278 1.5796-11.458 9.1392-0.28445-9.2764-13.774-9.481-26.4-7.1466-11.558 5.5189-5.2095 21.376-11.212 29.648-3.7073 23.934 67.32 13.38 58.859-2.5912-1.101-8.8957 0.10999-24.793-9.7879-29.049z" fill="url(#h)" fill-rule="evenodd"/>
   <path d="m241.89 404.51c-5.7788 11.341-50.414 17.577-58.155 3.9884-0.89711 0.42346-1.0182 0.16282-0.77014 1.2194-3.7073 23.934 67.978 13.138 59.517-2.8332 0.84195-1.2535 0.00653-1.9702-0.59163-2.3746z" fill="#520" fill-rule="evenodd"/>
   <path d="m241.89 404.51c-5.7788 11.341-50.414 17.577-58.155 3.9884-0.89711 0.42346-1.0182 0.16282-0.77014 1.2194-3.7073 23.934 67.978 13.138 59.517-2.8332 0.84195-1.2535 0.00653-1.9702-0.59163-2.3746z" fill="url(#g)" fill-rule="evenodd"/>
   <path transform="matrix(1.6995 1.2416 -1.153 1.8302 128.38 288.24)" d="m58.429 21.571a3.6923 1.749 0 1 1 -7.3846 0 3.6923 1.749 0 1 1 7.3846 0z" fill="#fff" fill-opacity=".73004" filter="url(#p)"/>
  </g>
  <path transform="translate(233.42 11.735)" d="m17.475 68.03c20.843 20.251 64.613 24.338 92.891 6.5732 1.3728 1.5883 2.1663 2.4191-0.17678 3.5429-12.221 7.4589-10.058 22.256-25.5 36.195-23.744-34.146-42.059-16.943-67.214-44.962-1.0086-0.66254 0.15867-1.3858 0-1.3484z" fill="#f00" fill-rule="evenodd"/>
  <path transform="translate(233.42 11.735)" d="m17.475 68.03c20.843 20.251 64.613 24.338 92.891 6.5732 1.3728 1.5883 2.1663 2.4191-0.17678 3.5429-12.221 7.4589-10.058 22.256-25.5 36.195-23.744-34.146-42.059-16.943-67.214-44.962-1.0086-0.66254 0.15867-1.3858 0-1.3484z" fill="url(#f)" fill-rule="evenodd"/>
  <path d="m238.66 77.178c-0.04969 0.40325 10.821 6.5123 11.152 2.2723 0.13672-1.7525-0.88231-6.8343-11.152-2.2723z" fill="#f00" fill-rule="evenodd"/>
  <path d="m238.66 77.178c-0.04969 0.40325 10.821 6.5123 11.152 2.2723 0.13672-1.7525-0.88231-6.8343-11.152-2.2723z" fill="url(#e)" fill-rule="evenodd"/>
  <path d="m236.92 86.985c-0.1684-0.50519 11.463-11.111 13-5.75 0.63521 2.2156 0.75 9-13 5.75z" fill="#f00" fill-rule="evenodd"/>
  <path d="m236.92 86.985c-0.1684-0.50519 11.463-11.111 13-5.75 0.63521 2.2156 0.75 9-13 5.75z" fill="url(#d)" fill-rule="evenodd"/>
  <path transform="translate(232.42 10.86)" d="m21.25 69.562a3.6875 3.6875 0 1 1 -7.375 0 3.6875 3.6875 0 1 1 7.375 0z" fill="#f00"/>
  <path transform="translate(232.42 10.86)" d="m21.25 69.562a3.6875 3.6875 0 1 1 -7.375 0 3.6875 3.6875 0 1 1 7.375 0z" fill="url(#c)"/>
 </g>
</svg>
