<?xml version="1.0" encoding="UTF-8"?>
<svg viewBox="0 0 128 128" xmlns="http://www.w3.org/2000/svg" xmlns:xlink="http://www.w3.org/1999/xlink">
 <defs>
  <filter id="g" x="-.34802" y="-.34085" width="1.696" height="1.6817">
   <feGaussianBlur stdDeviation="5.46506"/>
  </filter>
  <filter id="f" x="-.51975" y="-.45339" width="2.0395" height="1.9068">
   <feGaussianBlur stdDeviation="4.15116"/>
  </filter>
  <filter id="e" x="-.07002" y="-.3401" width="1.14" height="1.6802">
   <feGaussianBlur stdDeviation="3.96783"/>
  </filter>
  <linearGradient id="b">
   <stop stop-opacity="0" offset="0"/>
   <stop stop-opacity=".57196" offset="1"/>
  </linearGradient>
  <radialGradient id="d" cx="210.89" cy="506.35" r="68" gradientTransform="matrix(1.4028 1.6439e-6 -1.4521e-7 .20588 -89.845 403.11)" gradientUnits="userSpaceOnUse">
   <stop offset="0"/>
   <stop stop-opacity="0" offset="1"/>
  </radialGradient>
  <radialGradient id="c" cx="216.99" cy="497.96" r="65" gradientTransform="matrix(.7158 1.4128 -1.3538 .68592 735.84 -155.77)" gradientUnits="userSpaceOnUse" xlink:href="#b"/>
  <radialGradient id="a" cx="233.5" cy="409.86" r="15.5" gradientTransform="matrix(.3871 1.5161 -1.4234 .36342 726.51 -93.107)" gradientUnits="userSpaceOnUse" xlink:href="#b"/>
 </defs>
 <g transform="matrix(.71287 0 0 .71287 -84.989 -246.24)">
  <path transform="matrix(1.0588 0 0 .85714 -9.1176 72.48)" d="m274 507.36c0 7.728-30.464 14-68 14s-68-6.272-68-14 30.464-14 68-14 68 6.272 68 14z" fill="url(#d)" filter="url(#e)"/>
  <path transform="translate(-31,-85)" d="m305 531.36c0 4.8429-0.53051 37.563-1.5365 42.104-2.4742 12.459-10.483 19.633-22.511 22.363-5.5901 1.0428-11.949-21.824-18.85-21.951s-14.344 22.484-22.103 22.484c-7.7957 0-15.272-22.625-22.2-22.52s-13.308 22.94-18.91 21.858c-12.684-2.1049-19.316-10.781-22.443-22.645-0.94804-4.4155-1.4472-36.997-1.4472-41.694 0-35.88 29.12-65 65-65s65 29.12 65 65z" fill="#ff80b2"/>
  <path transform="matrix(1.4028 0 0 1.4028 -422.94 -327.37)" d="m463.28125,507.03125c-10.80307,11.56579-4.62173,23.77192-.125,36.96875 1.97912-13.08449-2.78565-23.87951 14.9375-29.625-.56161-.41751-1.13775-.82615-1.71875-1.21875-.55421-.37452-1.11659-.74293-1.6875-1.09375-.06407-.03937-.12322-.08593-.1875-.125-.52118-.31678-1.05937-.60972-1.59375-.90625-.60333-.33469-1.22433-.6605-1.84375-.96875l-.5-.25c-.45584-.21975-.91103-.41989-1.375-.625-.63467-.28097-1.28841-.55966-1.9375-.8125s-1.30608-.4949-1.96875-.71875c-.60961-.20593-1.22332-.38179-1.84375-.5625l-.125-.03125c-.01243-.00358-.01882-.02768-.03125-.03125zm-32.09375,2.4375c-.5976.27468-1.19804.54763-1.78125.84375s-1.14921.61539-1.71875.9375-1.13313.655-1.6875,1c-.47266.29521-.94519.59468-1.40625.90625-.08503.05719-.16537.12977-.25.1875-.48016.32757-.94428.65674-1.40625,1-.04883.03623-.10756.05733-.15625.09375-.41265.30913-.81275.64454-1.21875.96875-.14454.11542-.2944.22663-.4375.34375l-.09375.0625c-.43928.36131-.8559.74787-1.28125,1.125-.36782.32679-.73654.66182-1.09375,1-.08098.07541-.17049.1424-.25.21875l-.09375.09375c6.48932,15.26923 30.56157,23.95395 42.96875,27.0625-8.98744-9.69152-33.28933-19.79315-30.09375-35.84375zm33.6875,34.59375c14.78851,2.39406 16.35105-1.32175 31.875,11.8125 .02691-1.8105.0625-3.65805.0625-4.3125 0-.79274-.02297-1.59244-.0625-2.375-.02297-.45268-.05786-.89457-.09375-1.34375-.0367-.46053-.07489-.91839-.125-1.375-.00335-.03053-.00149-.06218 0-.09375-.00228-.02034.0023-.04217 0-.0625-.06874-.60757-.15794-1.2122-.25-1.8125-.03847-.25156-.08249-.49978-.125-.75-.02178-.12801-.07092-.24734-.09375-.375-.12791-.71532-.24596-1.42102-.40625-2.125-10.46971-3.31844-20.95588-1.71871-30.78125,2.8125zm-60.40625,2.34375c1.47803-6.78017.93148-6.28296 0,0zc-.09443.84905-.16423,1.70422-.21875,2.5625s-.09375,1.71964-.09375,2.59375c0,1.19394.06741,5.1569.15625,9.59375 15.02195,6.60234 42.15504-6.83714 55.25-13.96875-14.33308-.12228-41.28508,5.10961-55.09375-.78125zm60.03125.15625c5.24277,10.64108 8.5428,19.76016.0625,35.84375 .04008-.02513.08479-.03904.125-.0625 .05346-.03139.10169-.06749.15625-.09375s.10567-.0382.15625-.0625c.11037-.05237.20207-.11723.3125-.15625l.09375-.03125 .125-.03125h.03125c.1137-.0305.23045-.0479.34375-.0625s.23083-.03333.34375-.03125c.15373.00284.31578.02902.46875.0625l.09375.03125c.17992.04694.3524.10174.53125.1875l.0625.03125c.03246.01609.06132.04521.09375.0625l.125.0625 .28125.1875c.05285.03672.1035.05409.15625.09375 .15896.11754.31067.23244.46875.375 .14983.13577.28848.28123.4375.4375 .22817.23739.46135.50171.6875.78125 .07534.09331.14362.1838.21875.28125 .2982.38523.58064.77817.875,1.21875s.55583.90175.84375,1.375c.0395.06664.08557.1203.125.1875 .26713.44323.51718.91491.78125,1.375 .05999.10545.12746.20714.1875.3125 .2053.36025.4216.70088.625,1.0625 .4926.87612.98788,1.74113 1.46875,2.5625 .44696.76345.87587,1.48097 1.3125,2.125 .0729.10752.14614.20944.21875.3125 .09333.13256.1884.28169.28125.40625 .09607.12844.21695.25589.3125.375 .23142.2885.45914.55512.6875.78125s.46224.40954.6875.5625c.09095.06108.19082.1397.28125.1875 .12472.06522.25125.11784.375.15625 .2533.07858.50094.10896.75.0625 .64711-.14689 1.26099-.31676 1.875-.5 .05494-.01639.10158-.04581.15625-.0625 .5369-.16388 1.05228-.33863 1.5625-.53125 .30219-.11375.61344-.21994.90625-.34375 .26352-.11143.52543-.22411.78125-.34375l.1875-.09375c.01277-.00616.01851-.02504.03125-.03125 .34997-.17054.69612-.34547 1.03125-.53125l.125-.0625 .1875-.09375 .3125-.1875c.82633-.49682 1.61769-1.0552 2.34375-1.65625l.15625-.125c.06787-.05743.12054-.12913.1875-.1875 .35741-.31156.70006-.63034 1.03125-.96875 .39324-.40181.76936-.80999 1.125-1.25-5.71987-20.55216-9.42622-34.98619-27.1875-44zm27.1875,44c.34143-.45011.61086-.81301.78125-1.0625 .51118-.74848.23996-.52245-.78125,1.0625zm-30.09375-43c-11.47337,24.02467-29.63681,27.3691-56.5,33.1875 .02663.19383.06604.40218.09375.53125 .96438,3.65837 2.39111,6.88723 4.4375,9.5 3.80606,3.29582 8.16084,6.09172 11.5625,6.65625 .15653.03021.31077.02024.46875,0 .09374-.01201.18699-.03386.28125-.0625l.1875-.0625 .1875-.09375c.09688-.05047.21502-.09064.3125-.15625l.09375-.0625c.12904-.09287.24492-.22671.375-.34375s.27514-.23583.40625-.375c.02837-.03012.06533-.06266.09375-.09375 .22287-.24665.46148-.54259.6875-.84375 .26601-.35435.54275-.74162.8125-1.15625 .00465-.00714-.00465-.02409 0-.03125l.03125-.03125c.25271-.38985.52528-.82182.78125-1.25l.34375-.59375c.43571-.74711.86768-1.52453 1.3125-2.3125 .32916-.58172.66586-1.14548 1-1.71875 .24221-.41698.47399-.81781.71875-1.21875 .27209-.44572.5373-.86833.8125-1.28125 .17724-.26557.35274-.50254.53125-.75 .12571-.17466.24866-.36716.375-.53125l.03125-.03125c.30147-.38952.60124-.74593.90625-1.0625 .07479-.07784.14376-.1459.21875-.21875 .07537-.07318.14316-.1509.21875-.21875l.21875-.1875c.07904-.06534.17073-.12852.25-.1875 .1512-.11269.2855-.1931.4375-.28125 .11699-.06851.22627-.13462.34375-.1875 .09339-.04208.18757-.06203.28125-.09375 .04335-.01472.08159-.05008.125-.0625 .20681-.05826.41679-.09059.625-.09375 1.83937-.02788 3.74811,2.20312 5.6875,5 13.2646-12.28778 17.2466-28.0229 21.25-39.28125z" fill="#f06"/>
  <path transform="translate(-31,-85)" d="m305 531.36c0 4.8429-0.53051 37.563-1.5365 42.104-2.4742 12.459-10.483 19.633-22.511 22.363-5.5901 1.0428-11.949-21.824-18.85-21.951s-14.344 22.484-22.103 22.484c-7.7957 0-15.272-22.625-22.2-22.52s-13.308 22.94-18.91 21.858c-12.684-2.1049-19.316-10.781-22.443-22.645-0.94804-4.4155-1.4472-36.997-1.4472-41.694 0-35.88 29.12-65 65-65s65 29.12 65 65z" fill="url(#c)"/>
  <path transform="translate(9,17)" d="m255 417.86a15.5 15.5 0 1 1 -31 0 15.5 15.5 0 1 1 31 0z" fill="#fff"/>
  <path transform="translate(9,17)" d="m255 417.86a15.5 15.5 0 1 1 -31 0 15.5 15.5 0 1 1 31 0z" fill="url(#a)"/>
  <path transform="matrix(.6129 0 0 .6129 106.71 179.75)" d="m255 417.86a15.5 15.5 0 1 1 -31 0 15.5 15.5 0 1 1 31 0z"/>
  <path transform="translate(-31,17)" d="m255 417.86a15.5 15.5 0 1 1 -31 0 15.5 15.5 0 1 1 31 0z" fill="#fff"/>
  <path transform="translate(-31,17)" d="m255 417.86a15.5 15.5 0 1 1 -31 0 15.5 15.5 0 1 1 31 0z" fill="url(#a)"/>
  <path transform="matrix(.6129 0 0 .6129 66.71 179.75)" d="m255 417.86a15.5 15.5 0 1 1 -31 0 15.5 15.5 0 1 1 31 0z"/>
  <path d="m180.01 413.25c-10.026 10.27-20.406 16.414-23.171 13.715s3.1277-13.225 13.153-23.494 20.406-16.414 23.171-13.715-3.1277 13.225-13.153 23.494z" fill="#fff" fill-opacity=".62745" filter="url(#g)"/>
  <path transform="matrix(.77126 .63652 -.63652 .77126 379.12 -54.471)" d="m262 501.86c0 7.452-2.464 13.5-5.5 13.5s-5.5-6.048-5.5-13.5 2.464-13.5 5.5-13.5 5.5 6.048 5.5 13.5z" fill="#fff" fill-opacity=".43439" filter="url(#f)"/>
 </g>
</svg>
