<?xml version="1.0" encoding="UTF-8"?>
<svg viewBox="0 0 128 128" xmlns="http://www.w3.org/2000/svg" xmlns:xlink="http://www.w3.org/1999/xlink">
 <defs>
  <filter id="l" x="-.34802" y="-.34085" width="1.696" height="1.6817">
   <feGaussianBlur stdDeviation="5.46506"/>
  </filter>
  <filter id="k" x="-.51975" y="-.45339" width="2.0395" height="1.9068">
   <feGaussianBlur stdDeviation="4.15116"/>
  </filter>
  <filter id="j" x="-.07002" y="-.3401" width="1.14" height="1.6802">
   <feGaussianBlur stdDeviation="3.96783"/>
  </filter>
  <linearGradient id="a">
   <stop stop-opacity="0" offset="0"/>
   <stop stop-opacity=".57196" offset="1"/>
  </linearGradient>
  <radialGradient id="i" cx="210.89" cy="506.35" r="68" gradientTransform="matrix(1.4028 1.6439e-6 -1.4521e-7 .20588 -89.845 403.11)" gradientUnits="userSpaceOnUse">
   <stop offset="0"/>
   <stop stop-opacity="0" offset="1"/>
  </radialGradient>
  <radialGradient id="h" cx="216.99" cy="497.96" r="65" gradientTransform="matrix(.7158 1.4128 -1.3538 .68592 735.84 -155.77)" gradientUnits="userSpaceOnUse" xlink:href="#a"/>
  <radialGradient id="b" cx="233.5" cy="409.86" r="15.5" gradientTransform="matrix(.3871 1.5161 -1.4234 .36342 726.51 -93.107)" gradientUnits="userSpaceOnUse" xlink:href="#a"/>
  <radialGradient id="g" cx="189.12" cy="504.07" r="40.125" gradientTransform="matrix(1.0997 -.080997 .025342 .34406 -31.628 360.2)" gradientUnits="userSpaceOnUse" xlink:href="#a"/>
  <radialGradient id="f" cx="176.62" cy="518.18" r="40.125" gradientTransform="matrix(2.2234 -.2547 .12757 1.1137 -282.2 -8.615)" gradientUnits="userSpaceOnUse" xlink:href="#a"/>
  <radialGradient id="e" cx="221.02" cy="363.7" r="9.7507" gradientTransform="matrix(1.648 -.057473 .043622 1.2508 -163.13 -78.513)" gradientUnits="userSpaceOnUse" xlink:href="#a"/>
  <radialGradient id="d" cx="188.77" cy="504.86" r="27.807" gradientTransform="matrix(2.3648 -.24395 .078937 .7652 -297.76 169.86)" gradientUnits="userSpaceOnUse" xlink:href="#a"/>
  <radialGradient id="c" cx="191.89" cy="559.78" r="48.177" gradientTransform="matrix(1.3971 -.074796 .019639 .36684 -87.191 389.98)" gradientUnits="userSpaceOnUse" xlink:href="#a"/>
 </defs>
 <g transform="matrix(.71287 0 0 .71287 -84.989 -246.24)">
  <path transform="matrix(1.0588 0 0 .85714 -9.1176 72.48)" d="m274 507.36c0 7.728-30.464 14-68 14s-68-6.272-68-14 30.464-14 68-14 68 6.272 68 14z" fill="url(#i)" filter="url(#j)"/>
  <path transform="translate(-31,-85)" d="m305 531.36c0 4.8429-0.53051 37.563-1.5365 42.104-2.4742 12.459-10.483 19.633-22.511 22.363-5.5901 1.0428-11.949-21.824-18.85-21.951s-14.344 22.484-22.103 22.484c-7.7957 0-15.272-22.625-22.2-22.52s-13.308 22.94-18.91 21.858c-12.684-2.1049-19.316-10.781-22.443-22.645-0.94804-4.4155-1.4472-36.997-1.4472-41.694 0-35.88 29.12-65 65-65s65 29.12 65 65z" fill="#f9f9f9"/>
  <path transform="translate(-31,-85)" d="m305 531.36c0 4.8429-0.53051 37.563-1.5365 42.104-2.4742 12.459-10.483 19.633-22.511 22.363-5.5901 1.0428-11.949-21.824-18.85-21.951s-14.344 22.484-22.103 22.484c-7.7957 0-15.272-22.625-22.2-22.52s-13.308 22.94-18.91 21.858c-12.684-2.1049-19.316-10.781-22.443-22.645-0.94804-4.4155-1.4472-36.997-1.4472-41.694 0-35.88 29.12-65 65-65s65 29.12 65 65z" fill="url(#h)"/>
  <path d="m259.64 425.19 7.6329-7.2492-9.9766 4.8748 5.7404-8.8517-6.8317 6.303 1.91-7.091-4.1526 7.2067 5.6775 4.8074z" fill-rule="evenodd"/>
  <path transform="translate(9,17)" d="m255 417.86a15.5 15.5 0 1 1 -31 0 15.5 15.5 0 1 1 31 0z" fill="#fff"/>
  <path transform="translate(9,17)" d="m255 417.86a15.5 15.5 0 1 1 -31 0 15.5 15.5 0 1 1 31 0z" fill="url(#b)"/>
  <path transform="matrix(.6129 0 0 .6129 106.71 179.75)" d="m255 417.86a15.5 15.5 0 1 1 -31 0 15.5 15.5 0 1 1 31 0z"/>
  <path d="m194.48 428.62-8.8856-5.6443 10.728 2.8632-7.337-7.5811 7.9172 4.87-3.2393-6.5907 5.4622 6.2726-4.6459 5.8104z" fill-rule="evenodd"/>
  <path transform="translate(-31,17)" d="m255 417.86a15.5 15.5 0 1 1 -31 0 15.5 15.5 0 1 1 31 0z" fill="#fff"/>
  <path transform="translate(-31,17)" d="m255 417.86a15.5 15.5 0 1 1 -31 0 15.5 15.5 0 1 1 31 0z" fill="url(#b)"/>
  <path transform="matrix(.6129 0 0 .6129 66.71 179.75)" d="m255 417.86a15.5 15.5 0 1 1 -31 0 15.5 15.5 0 1 1 31 0z"/>
  <path d="m180.01 413.25c-10.026 10.27-20.406 16.414-23.171 13.715s3.1277-13.225 13.153-23.494 20.406-16.414 23.171-13.715-3.1277 13.225-13.153 23.494z" fill="#fff" fill-opacity=".62745" filter="url(#l)"/>
  <path transform="matrix(.77126 .63652 -.63652 .77126 379.12 -54.471)" d="m262 501.86c0 7.452-2.464 13.5-5.5 13.5s-5.5-6.048-5.5-13.5 2.464-13.5 5.5-13.5 5.5 6.048 5.5 13.5z" fill="#fff" fill-opacity=".43439" filter="url(#k)"/>
  <path transform="matrix(1.4028 0 0 1.4028 -75.553 -350.04)" d="m158.75 520 7.25 19.5c20.569 0.15747 42.346 1.3266 67.25-6.5l5.75-21c-23.027 0.61454-46.502-2.7137-80.25 8z" fill="#f9f9f9" fill-rule="evenodd"/>
  <path transform="matrix(1.4028 0 0 1.4028 -75.553 -350.04)" d="m158.75 520 7.25 19.5c20.569 0.15747 42.346 1.3266 67.25-6.5l5.75-21c-23.027 0.61454-46.502-2.7137-80.25 8z" fill="url(#g)" fill-rule="evenodd"/>
  <path transform="matrix(1.4028 0 0 1.4028 -75.553 -350.04)" d="m172.89 533.66c3.3005-9.9964 6.1435-20.385 12.614-27.664 11.5-4.4862 23.25-4.8988 34.75-3.5l8.25 24.75-55.614 6.4142z" fill="#f9f9f9" fill-rule="evenodd"/>
  <path transform="matrix(1.4028 0 0 1.4028 -75.553 -350.04)" d="m172.89 533.66c3.3005-9.9964 6.1435-20.385 12.614-27.664 11.5-4.4862 23.25-4.8988 34.75-3.5l8.25 24.75-55.614 6.4142z" fill="url(#d)" fill-rule="evenodd"/>
  <path d="m216.84 358.57 0.99497 6.7658-6.7658 0.99497 0.76537 5.2045 6.7658-0.99498 0.99497 6.7658 5.2045-0.76537-0.99498-6.7658 6.7658-0.99497-0.76537-5.2045-6.7658 0.99498-0.99497-6.7658-5.2045 0.76537z" fill="#f00"/>
  <path d="m216.84 358.57 0.99497 6.7658-6.7658 0.99497 0.76537 5.2045 6.7658-0.99498 0.99497 6.7658 5.2045-0.76537-0.99498-6.7658 6.7658-0.99497-0.76537-5.2045-6.7658 0.99498-0.99497-6.7658-5.2045 0.76537z" fill="url(#e)"/>
  <path transform="matrix(1.4028 0 0 1.4028 -75.553 -350.04)" d="m158.75 520 7.25 19.5c21.031 1.2356 43.775 4.6604 67.25-6.5l5.75-21c-27.836 8.0945-53.598 8.3255-80.25 8z" fill="#f9f9f9" fill-rule="evenodd"/>
  <path transform="matrix(1.4028 0 0 1.4028 -75.553 -350.04)" d="m158.75 520 7.25 19.5c21.031 1.2356 43.775 4.6604 67.25-6.5l5.75-21c-27.836 8.0945-53.598 8.3255-80.25 8z" fill="url(#f)" fill-rule="evenodd"/>
  <path transform="matrix(1.4028 0 0 1.4028 -75.553 -350.04)" d="m250.5 576.72c-32.807 7.009-63.384 5.8181-94.938 1.75-0.09944 1.138-0.74576 1.7356 0 3.7188 18.952 2.7969 38.275 3.795 54.906 3.4375 4.4756 14.002 25.583 13.281 30.922-3.3732 4.8338-0.79781 6.0858-0.68179 9.1091-1.8143 1.9137-1.5564 0.81699-2.6175 0-3.7188z" fill="#f9f9f9"/>
  <path d="m258.92 467.22c-10.926 21.418-27.257 13.248-35.481 3.4631l-0.86041 1.4028c17.216 23.94 35.669 4.5129 36.472-3.507l-0.13151-1.359z" fill="#f00" fill-rule="evenodd"/>
  <path transform="matrix(1.4028 0 0 1.4028 -75.553 -350.04)" d="m250.5 576.72c-32.807 7.009-63.384 5.8181-94.938 1.75-0.09944 1.138-0.74576 1.7356 0 3.7188 18.952 2.7969 38.275 3.795 54.906 3.4375 4.4756 14.002 25.583 13.281 30.922-3.3732 4.8338-0.79781 6.0858-0.68179 9.1091-1.8143 1.9137-1.5564 0.81699-2.6175 0-3.7188z" fill="url(#c)"/>
 </g>
</svg>
